<svg width="276" height="220" viewBox="0 0 276 220" fill="none" xmlns="http://www.w3.org/2000/svg">
<path d="M138.13 220C214.069 220 275.63 216.401 275.63 211.961C275.63 207.521 214.069 203.922 138.13 203.922C62.1907 203.922 0.629883 207.521 0.629883 211.961C0.629883 216.401 62.1907 220 138.13 220Z" fill="#7B7AFF"/>
<path d="M171.794 4.06208H154.774C154.22 4.07389 153.685 4.27122 153.256 4.62259C152.827 4.97397 152.527 5.45917 152.405 6.00082L152.292 6.53344C151.998 7.85481 151.269 9.03887 150.222 9.89536C149.175 10.7518 147.871 11.2311 146.519 11.256H130.35C129.068 11.2847 127.826 10.8042 126.896 9.91944C125.966 9.03469 125.423 7.81748 125.386 6.53344V6.00082C125.373 5.47466 125.152 4.97512 124.772 4.6117C124.392 4.24829 123.883 4.05064 123.358 4.06208H106.338C103.543 4.11186 100.862 5.18574 98.8043 7.0806C96.7461 8.97547 95.4527 11.5599 95.1687 14.3452L81.5102 170.964C81.3659 172.273 81.5019 173.598 81.9091 174.851C82.3163 176.104 82.9854 177.255 83.8717 178.229C84.7581 179.203 85.8414 179.976 87.0495 180.497C88.2576 181.019 89.5629 181.277 90.8783 181.254H156.313C159.109 181.202 161.789 180.127 163.847 178.231C165.905 176.335 167.198 173.75 167.482 170.964L181.169 14.3452C181.312 13.0356 181.175 11.7105 180.767 10.4581C180.359 9.2057 179.689 8.05473 178.802 7.08182C177.915 6.10891 176.832 5.33639 175.623 4.81571C174.415 4.29502 173.109 4.03811 171.794 4.06208Z" fill="#7E58FF"/>
<path opacity="0.7" d="M171.794 4.06208H154.774C154.22 4.07389 153.685 4.27122 153.256 4.62259C152.827 4.97397 152.527 5.45917 152.405 6.00082L152.292 6.53344C151.998 7.85481 151.269 9.03887 150.222 9.89536C149.175 10.7518 147.871 11.2311 146.519 11.256H130.35C129.068 11.2847 127.826 10.8042 126.896 9.91944C125.966 9.03469 125.423 7.81748 125.386 6.53344V6.00082C125.373 5.47466 125.152 4.97512 124.772 4.6117C124.392 4.24829 123.883 4.05064 123.358 4.06208H106.338C103.543 4.11186 100.862 5.18574 98.8043 7.0806C96.7461 8.97547 95.4527 11.5599 95.1687 14.3452L81.5102 170.964C81.3659 172.273 81.5019 173.598 81.9091 174.851C82.3163 176.104 82.9854 177.255 83.8717 178.229C84.7581 179.203 85.8414 179.976 87.0495 180.497C88.2576 181.019 89.5629 181.277 90.8783 181.254H156.313C159.109 181.202 161.789 180.127 163.847 178.231C165.905 176.335 167.198 173.75 167.482 170.964L181.169 14.3452C181.312 13.0356 181.175 11.7105 180.767 10.4581C180.359 9.2057 179.689 8.05473 178.802 7.08182C177.915 6.10891 176.832 5.33639 175.623 4.81571C174.415 4.29502 173.109 4.03811 171.794 4.06208Z" fill="white"/>
<path d="M165.163 76.1004H130.414C130.122 76.1051 129.832 76.0475 129.563 75.9315C129.295 75.8155 129.054 75.6437 128.857 75.4275C128.66 75.2113 128.511 74.9556 128.42 74.6774C128.329 74.3992 128.298 74.1048 128.329 73.8137L130.946 43.8521C131.008 43.2327 131.296 42.6578 131.753 42.2363C132.211 41.8149 132.807 41.5761 133.428 41.5654H168.177C168.47 41.5595 168.76 41.6163 169.029 41.7319C169.298 41.8475 169.54 42.0193 169.737 42.2358C169.934 42.4522 170.083 42.7084 170.174 42.9871C170.264 43.2659 170.294 43.5607 170.262 43.8521L167.645 73.8137C167.581 74.4324 167.294 75.0065 166.837 75.4276C166.379 75.8488 165.784 76.0881 165.163 76.1004Z" fill="white"/>
<path d="M153.604 169.785H95.4523C94.7256 169.798 94.0045 169.656 93.3368 169.369C92.6692 169.081 92.0705 168.654 91.5806 168.117C91.0907 167.579 90.7209 166.943 90.4959 166.251C90.2708 165.559 90.1956 164.827 90.2754 164.104C90.4328 162.565 91.1474 161.138 92.2842 160.091C93.4209 159.044 94.9011 158.451 96.4451 158.422H154.597C155.323 158.409 156.044 158.551 156.712 158.838C157.38 159.126 157.978 159.553 158.468 160.09C158.958 160.628 159.328 161.264 159.553 161.956C159.778 162.648 159.853 163.38 159.774 164.104C159.618 165.643 158.903 167.071 157.766 168.118C156.629 169.165 155.148 169.758 153.604 169.785Z" fill="white"/>
<path d="M158.235 33.328H104.884C104.475 33.3404 104.069 33.2639 103.692 33.104C103.315 32.9441 102.977 32.7045 102.702 32.4016C102.426 32.0987 102.22 31.7397 102.096 31.3492C101.972 30.9587 101.933 30.546 101.984 30.1394L102.416 25.1683C102.506 24.3065 102.908 23.5073 103.545 22.9213C104.183 22.3353 105.012 22.0029 105.877 21.9868H159.228C159.635 21.9794 160.039 22.0589 160.413 22.2199C160.787 22.3809 161.123 22.6198 161.398 22.9207C161.673 23.2216 161.881 23.5776 162.008 23.9651C162.135 24.3526 162.178 24.7627 162.135 25.1683L161.695 30.1394C161.607 31.0025 161.207 31.8034 160.569 32.3909C159.931 32.9784 159.101 33.3117 158.235 33.328Z" fill="white"/>
<path d="M169.085 24.9975C169.061 25.2381 168.949 25.4614 168.771 25.625C168.593 25.7886 168.362 25.8812 168.12 25.8852C168.007 25.8869 167.895 25.8644 167.791 25.8193C167.687 25.7742 167.593 25.7075 167.517 25.6236C167.44 25.5397 167.383 25.4405 167.347 25.3325C167.312 25.2246 167.3 25.1104 167.312 24.9975C167.336 24.7576 167.448 24.5352 167.626 24.3727C167.804 24.2102 168.036 24.1192 168.277 24.1169C168.39 24.1142 168.502 24.1358 168.606 24.1801C168.71 24.2244 168.803 24.2904 168.88 24.3738C168.957 24.4571 169.014 24.5559 169.05 24.6635C169.085 24.771 169.097 24.8849 169.085 24.9975Z" fill="white"/>
<path d="M168.851 27.6534C168.828 27.8934 168.718 28.1166 168.541 28.2803C168.365 28.4441 168.134 28.5369 167.893 28.5411C167.78 28.5428 167.668 28.5203 167.564 28.4752C167.459 28.4301 167.366 28.3634 167.29 28.2795C167.213 28.1955 167.156 28.0964 167.12 27.9884C167.085 27.8805 167.073 27.7663 167.085 27.6534C167.108 27.4134 167.218 27.1902 167.394 27.0265C167.571 26.8627 167.802 26.7699 168.042 26.7657C168.156 26.7641 168.268 26.7865 168.372 26.8316C168.476 26.8767 168.57 26.9435 168.646 27.0274C168.723 27.1113 168.78 27.2105 168.816 27.3184C168.851 27.4263 168.863 27.5405 168.851 27.6534Z" fill="white"/>
<path d="M168.624 30.3023C168.6 30.5429 168.488 30.7662 168.31 30.9298C168.132 31.0935 167.901 31.186 167.659 31.19C167.546 31.1917 167.434 31.1692 167.33 31.1241C167.225 31.079 167.132 31.0123 167.056 30.9284C166.979 30.8445 166.922 30.7453 166.886 30.6374C166.851 30.5294 166.839 30.4153 166.851 30.3023C166.875 30.0618 166.987 29.8385 167.165 29.6749C167.342 29.5112 167.574 29.4186 167.815 29.4146C167.929 29.413 168.041 29.4355 168.145 29.4806C168.249 29.5257 168.343 29.5924 168.419 29.6763C168.496 29.7602 168.553 29.8594 168.589 29.9673C168.624 30.0752 168.636 30.1894 168.624 30.3023Z" fill="white"/>
<path d="M160.844 125.528H95.9345C95.6418 125.533 95.3513 125.477 95.0823 125.361C94.8133 125.245 94.5721 125.074 94.3747 124.857C94.1774 124.641 94.0284 124.385 93.9379 124.106C93.8473 123.827 93.8172 123.532 93.8495 123.241L96.8706 89.0468C96.933 88.4274 97.2201 87.8525 97.6776 87.431C98.1351 87.0096 98.7311 86.7708 99.3526 86.76H164.241C164.533 86.7552 164.823 86.8128 165.091 86.9288C165.359 87.0449 165.6 87.2168 165.796 87.4332C165.993 87.6495 166.141 87.9053 166.231 88.1835C166.321 88.4618 166.351 88.756 166.319 89.0468L163.334 123.241C163.271 123.861 162.983 124.437 162.524 124.859C162.065 125.281 161.467 125.519 160.844 125.528Z" fill="white"/>
<path d="M113.791 132.672H93.5801C93.5093 132.674 93.439 132.66 93.3738 132.632C93.3087 132.604 93.2504 132.562 93.2027 132.51C93.155 132.457 93.119 132.395 93.0973 132.328C93.0756 132.26 93.0685 132.189 93.0766 132.118C93.0906 131.967 93.1598 131.826 93.271 131.722C93.3822 131.619 93.5276 131.56 93.6794 131.557H113.891C113.962 131.556 114.033 131.57 114.099 131.598C114.164 131.626 114.223 131.669 114.271 131.722C114.319 131.775 114.355 131.838 114.376 131.907C114.397 131.975 114.403 132.047 114.394 132.118C114.379 132.268 114.309 132.408 114.198 132.51C114.087 132.612 113.942 132.67 113.791 132.672Z" fill="white"/>
<path d="M139.052 132.672H117.358C117.287 132.675 117.216 132.662 117.15 132.634C117.084 132.607 117.025 132.565 116.976 132.513C116.928 132.46 116.891 132.398 116.869 132.329C116.847 132.261 116.84 132.189 116.848 132.118C116.862 131.967 116.931 131.826 117.042 131.722C117.153 131.619 117.299 131.56 117.451 131.557H139.151C139.223 131.556 139.294 131.57 139.359 131.598C139.425 131.626 139.484 131.669 139.531 131.722C139.579 131.775 139.615 131.838 139.636 131.907C139.658 131.975 139.664 132.047 139.655 132.118C139.639 132.268 139.569 132.408 139.458 132.51C139.347 132.612 139.202 132.67 139.052 132.672Z" fill="white"/>
<path d="M106.799 137.607H93.1547C93.0829 137.609 93.0117 137.595 92.9457 137.567C92.8797 137.538 92.8206 137.496 92.7722 137.443C92.7239 137.39 92.6874 137.327 92.6653 137.259C92.6432 137.19 92.636 137.118 92.6441 137.046C92.6595 136.896 92.7292 136.755 92.8401 136.652C92.951 136.549 93.0955 136.49 93.2469 136.485H106.92C106.991 136.485 107.062 136.5 107.127 136.528C107.193 136.557 107.251 136.599 107.299 136.652C107.348 136.705 107.384 136.768 107.407 136.835C107.429 136.903 107.437 136.975 107.43 137.046C107.414 137.202 107.341 137.346 107.224 137.45C107.107 137.554 106.955 137.61 106.799 137.607Z" fill="white"/>
<path d="M132.783 137.608H110.387C110.316 137.609 110.244 137.595 110.178 137.567C110.112 137.538 110.053 137.496 110.005 137.443C109.957 137.39 109.92 137.327 109.898 137.259C109.876 137.19 109.869 137.118 109.877 137.046C109.892 136.894 109.963 136.753 110.075 136.65C110.188 136.547 110.334 136.488 110.487 136.485H132.875C132.947 136.484 133.018 136.498 133.084 136.526C133.15 136.555 133.209 136.597 133.257 136.65C133.306 136.703 133.342 136.766 133.364 136.834C133.386 136.903 133.394 136.975 133.386 137.046C133.372 137.198 133.302 137.339 133.191 137.442C133.08 137.546 132.935 137.605 132.783 137.608Z" fill="white"/>
<path d="M129.166 142.536H92.722C92.6506 142.538 92.5795 142.525 92.5135 142.498C92.4475 142.47 92.3883 142.429 92.3398 142.376C92.2913 142.324 92.2547 142.261 92.2326 142.193C92.2104 142.125 92.2032 142.053 92.2114 141.982C92.227 141.83 92.2977 141.689 92.41 141.586C92.5224 141.482 92.6687 141.424 92.8213 141.421H129.265C129.337 141.421 129.407 141.435 129.473 141.464C129.538 141.493 129.597 141.535 129.645 141.588C129.693 141.641 129.73 141.703 129.752 141.771C129.775 141.839 129.783 141.911 129.776 141.982C129.759 142.133 129.687 142.272 129.575 142.374C129.463 142.476 129.317 142.533 129.166 142.536Z" fill="white"/>
<path d="M135.165 142.536H132.761C132.69 142.538 132.619 142.526 132.553 142.498C132.487 142.47 132.428 142.429 132.379 142.376C132.331 142.324 132.294 142.261 132.272 142.193C132.25 142.125 132.243 142.053 132.251 141.982C132.265 141.831 132.334 141.69 132.445 141.586C132.556 141.483 132.702 141.424 132.854 141.421H135.265C135.336 141.419 135.407 141.433 135.473 141.462C135.539 141.49 135.597 141.532 135.645 141.586C135.693 141.639 135.729 141.702 135.75 141.77C135.771 141.839 135.777 141.911 135.768 141.982C135.753 142.132 135.683 142.271 135.572 142.373C135.461 142.476 135.316 142.533 135.165 142.536Z" fill="white"/>
<path d="M109.302 147.471H92.2823C92.2109 147.472 92.1401 147.457 92.0747 147.428C92.0093 147.399 91.9506 147.357 91.9025 147.304C91.8544 147.252 91.8179 147.189 91.7953 147.121C91.7728 147.053 91.7648 146.981 91.7717 146.91C91.7873 146.758 91.8579 146.617 91.9703 146.514C92.0827 146.41 92.229 146.352 92.3816 146.349H109.402C109.473 146.348 109.545 146.362 109.611 146.39C109.676 146.418 109.736 146.461 109.784 146.514C109.832 146.567 109.869 146.63 109.891 146.698C109.913 146.766 109.92 146.839 109.912 146.91C109.897 147.062 109.826 147.203 109.714 147.307C109.601 147.41 109.455 147.469 109.302 147.471Z" fill="white"/>
<path d="M134.059 147.471H112.869C112.798 147.472 112.727 147.457 112.662 147.428C112.596 147.399 112.538 147.357 112.49 147.304C112.441 147.252 112.405 147.189 112.382 147.121C112.36 147.053 112.352 146.981 112.359 146.91C112.374 146.758 112.445 146.617 112.557 146.514C112.67 146.41 112.816 146.352 112.969 146.349H134.151C134.223 146.348 134.294 146.362 134.36 146.39C134.426 146.418 134.485 146.461 134.534 146.514C134.582 146.567 134.619 146.63 134.641 146.698C134.663 146.766 134.67 146.839 134.662 146.91C134.647 147.061 134.577 147.201 134.466 147.304C134.355 147.408 134.211 147.467 134.059 147.471Z" fill="white"/>
<path d="M112.813 152.4H91.8569C91.7854 152.402 91.7143 152.388 91.6487 152.359C91.583 152.331 91.5243 152.289 91.4764 152.235C91.4286 152.182 91.3929 152.119 91.3716 152.051C91.3504 151.982 91.3442 151.91 91.3534 151.839C91.3689 151.689 91.4389 151.55 91.5499 151.447C91.661 151.345 91.8055 151.288 91.9562 151.285H112.905C112.976 151.282 113.047 151.295 113.113 151.323C113.179 151.35 113.239 151.392 113.287 151.445C113.336 151.497 113.372 151.56 113.394 151.628C113.417 151.696 113.424 151.768 113.416 151.839C113.402 151.99 113.332 152.131 113.221 152.235C113.11 152.338 112.965 152.397 112.813 152.4Z" fill="white"/>
<path d="M133.251 152.4H116.373C116.301 152.402 116.23 152.388 116.165 152.359C116.099 152.331 116.04 152.289 115.992 152.235C115.944 152.182 115.909 152.119 115.888 152.051C115.866 151.982 115.86 151.91 115.869 151.839C115.885 151.689 115.955 151.55 116.066 151.447C116.177 151.345 116.321 151.288 116.472 151.285H133.35C133.422 151.282 133.493 151.295 133.559 151.323C133.625 151.35 133.684 151.392 133.732 151.445C133.781 151.497 133.817 151.56 133.84 151.628C133.862 151.696 133.869 151.768 133.861 151.839C133.845 151.991 133.775 152.132 133.662 152.235C133.55 152.339 133.403 152.397 133.251 152.4Z" fill="white"/>
<path d="M164.341 73.2601C164.279 73.331 164.204 73.389 164.12 73.4306C164.036 73.4723 163.944 73.4968 163.85 73.5027C163.757 73.5087 163.663 73.4959 163.574 73.4652C163.485 73.4346 163.404 73.3866 163.334 73.324L134.308 45.5852C134.175 45.4522 134.101 45.2722 134.101 45.0846C134.101 44.8969 134.175 44.7169 134.308 44.5839C134.369 44.513 134.444 44.455 134.528 44.4134C134.612 44.3717 134.704 44.3472 134.798 44.3413C134.891 44.3353 134.985 44.3481 135.074 44.3787C135.163 44.4094 135.245 44.4574 135.315 44.52L164.341 72.2588C164.473 72.3918 164.547 72.5718 164.547 72.7594C164.547 72.9471 164.473 73.127 164.341 73.2601Z" fill="#7E58FF"/>
<path d="M131.74 73.2527C131.683 73.1772 131.641 73.0909 131.617 72.9989C131.593 72.9068 131.588 72.8109 131.602 72.7169C131.616 72.6228 131.648 72.5326 131.698 72.4514C131.747 72.3702 131.812 72.2997 131.889 72.2442L146.697 60.1218C146.837 59.9999 147.02 59.9382 147.206 59.9502C147.392 59.9622 147.565 60.0467 147.689 60.1857C147.746 60.261 147.787 60.3468 147.81 60.4381C147.833 60.5294 147.838 60.6245 147.824 60.7176C147.811 60.8108 147.778 60.9003 147.73 60.9809C147.681 61.0615 147.617 61.1316 147.541 61.1871L132.733 73.3166C132.592 73.4385 132.409 73.5002 132.224 73.4882C132.038 73.4763 131.864 73.3917 131.74 73.2527Z" fill="#7E58FF"/>
<path d="M150.874 57.5799C150.817 57.5046 150.776 57.4188 150.753 57.3275C150.73 57.2362 150.725 57.1411 150.739 57.0479C150.752 56.9548 150.785 56.8653 150.833 56.7847C150.882 56.7041 150.946 56.634 151.022 56.5785L165.858 44.4348C165.999 44.3129 166.182 44.2512 166.368 44.2632C166.553 44.2751 166.727 44.3597 166.851 44.4987C166.908 44.574 166.949 44.6598 166.972 44.7511C166.995 44.8424 167 44.9374 166.986 45.0306C166.972 45.1238 166.94 45.2133 166.891 45.2939C166.842 45.3745 166.778 45.4446 166.702 45.5001L151.866 57.6438C151.726 57.7657 151.543 57.8274 151.357 57.8154C151.171 57.8034 150.998 57.7188 150.874 57.5799Z" fill="#7E58FF"/>
<g opacity="0.7">
<path d="M164.341 73.2601C164.279 73.331 164.204 73.389 164.12 73.4306C164.036 73.4723 163.944 73.4968 163.85 73.5027C163.757 73.5087 163.663 73.4959 163.574 73.4652C163.485 73.4346 163.404 73.3866 163.334 73.324L134.308 45.5852C134.175 45.4522 134.101 45.2722 134.101 45.0846C134.101 44.8969 134.175 44.7169 134.308 44.5839C134.369 44.513 134.444 44.455 134.528 44.4134C134.612 44.3717 134.704 44.3472 134.798 44.3413C134.891 44.3353 134.985 44.3481 135.074 44.3787C135.163 44.4094 135.245 44.4574 135.315 44.52L164.341 72.2588C164.473 72.3918 164.547 72.5718 164.547 72.7594C164.547 72.9471 164.473 73.127 164.341 73.2601Z" fill="white"/>
</g>
<g opacity="0.7">
<path d="M131.74 73.2527C131.683 73.1772 131.641 73.0909 131.617 72.9989C131.593 72.9068 131.588 72.8109 131.602 72.7169C131.616 72.6228 131.648 72.5326 131.698 72.4514C131.747 72.3702 131.812 72.2997 131.889 72.2442L146.697 60.1218C146.837 59.9999 147.02 59.9382 147.206 59.9502C147.392 59.9622 147.565 60.0467 147.689 60.1857C147.746 60.261 147.787 60.3468 147.81 60.4381C147.833 60.5294 147.838 60.6245 147.824 60.7176C147.811 60.8108 147.778 60.9003 147.73 60.9809C147.681 61.0615 147.617 61.1316 147.541 61.1871L132.733 73.3166C132.592 73.4385 132.409 73.5002 132.224 73.4882C132.038 73.4763 131.864 73.3917 131.74 73.2527Z" fill="white"/>
</g>
<g opacity="0.7">
<path d="M150.874 57.5799C150.817 57.5046 150.776 57.4188 150.753 57.3275C150.73 57.2362 150.725 57.1411 150.739 57.0479C150.752 56.9548 150.785 56.8653 150.833 56.7847C150.882 56.7041 150.946 56.634 151.022 56.5785L165.858 44.4348C165.999 44.3129 166.182 44.2512 166.368 44.2632C166.553 44.2751 166.727 44.3597 166.851 44.4987C166.908 44.574 166.949 44.6598 166.972 44.7511C166.995 44.8424 167 44.9374 166.986 45.0306C166.972 45.1238 166.94 45.2133 166.891 45.2939C166.842 45.3745 166.778 45.4446 166.702 45.5001L151.866 57.6438C151.726 57.7657 151.543 57.8274 151.357 57.8154C151.171 57.8034 150.998 57.7188 150.874 57.5799Z" fill="white"/>
</g>
<path d="M174.879 21.5465V25.2678L171.333 27.1355C171.195 27.2096 171.08 27.3197 171 27.4541C170.919 27.5886 170.877 27.7423 170.877 27.8989C170.877 28.0556 170.919 28.2093 171 28.3437C171.08 28.4782 171.195 28.5883 171.333 28.6623L174.879 30.5301V34.2513C174.879 34.6487 175.037 35.0298 175.317 35.3108C175.598 35.5919 175.978 35.7497 176.375 35.7497H189.062C189.46 35.7497 189.841 35.5921 190.123 35.3113C190.404 35.0305 190.564 34.6493 190.566 34.2513V21.5465C190.566 21.1473 190.407 20.7643 190.125 20.482C189.843 20.1996 189.461 20.041 189.062 20.041H176.354C175.96 20.0466 175.583 20.2079 175.307 20.4899C175.031 20.7718 174.877 21.1516 174.879 21.5465Z" fill="#7E58FF"/>
<g opacity="0.9">
<path d="M179.219 25.4233H186.431C186.666 25.4233 186.892 25.3298 187.058 25.1633C187.224 24.9969 187.318 24.7711 187.318 24.5356C187.318 24.3002 187.224 24.0744 187.058 23.908C186.892 23.7415 186.666 23.6479 186.431 23.6479H179.219C178.984 23.6479 178.758 23.7415 178.592 23.908C178.426 24.0744 178.333 24.3002 178.333 24.5356C178.333 24.7711 178.426 24.9969 178.592 25.1633C178.758 25.3298 178.984 25.4233 179.219 25.4233Z" fill="white"/>
<path d="M186.431 27.0425H179.219C178.984 27.0425 178.758 27.136 178.592 27.3025C178.426 27.469 178.333 27.6947 178.333 27.9302C178.333 28.1656 178.426 28.3914 178.592 28.5579C178.758 28.7244 178.984 28.8179 179.219 28.8179H186.431C186.666 28.8179 186.892 28.7244 187.058 28.5579C187.224 28.3914 187.318 28.1656 187.318 27.9302C187.318 27.6947 187.224 27.469 187.058 27.3025C186.892 27.136 186.666 27.0425 186.431 27.0425Z" fill="white"/>
<path d="M186.431 30.3735H179.219C178.984 30.3735 178.758 30.4671 178.592 30.6335C178.426 30.8 178.333 31.0258 178.333 31.2612C178.333 31.4967 178.426 31.7225 178.592 31.8889C178.758 32.0554 178.984 32.1489 179.219 32.1489H186.431C186.666 32.1489 186.892 32.0554 187.058 31.8889C187.224 31.7225 187.318 31.4967 187.318 31.2612C187.318 31.0258 187.224 30.8 187.058 30.6335C186.892 30.4671 186.666 30.3735 186.431 30.3735Z" fill="white"/>
</g>
<path d="M103.182 15.6803H106.21L107.771 18.6417C107.873 18.8347 108.027 18.9962 108.214 19.1088C108.401 19.2214 108.616 19.2808 108.834 19.2808C109.053 19.2808 109.267 19.2214 109.455 19.1088C109.642 18.9962 109.795 18.8347 109.898 18.6417L111.458 15.6803H114.486C114.774 15.6803 115.058 15.6235 115.324 15.5131C115.589 15.4028 115.83 15.241 116.033 15.0372C116.236 14.8333 116.397 14.5913 116.506 14.3251C116.616 14.059 116.672 13.7738 116.671 13.4859V2.1873C116.671 1.6072 116.44 1.05085 116.031 0.640656C115.621 0.23046 115.066 1.16043e-05 114.486 1.16043e-05H103.182C102.895 -0.000926419 102.611 0.0550128 102.345 0.164602C102.08 0.274191 101.839 0.435269 101.636 0.638565C101.433 0.841861 101.272 1.08335 101.162 1.34915C101.053 1.61495 100.997 1.8998 100.998 2.1873V13.5498C101.013 14.12 101.249 14.6619 101.658 15.0599C102.066 15.4579 102.613 15.6805 103.182 15.6803Z" fill="#7E58FF"/>
<path opacity="0.9" d="M108.841 3.3877L105.352 5.43295V11.4125H107.948V7.40009H109.742V11.4125H112.338V5.43295L108.841 3.3877Z" fill="white"/>
<path d="M137.151 178.158H134.457L132.719 174.848C132.633 174.688 132.505 174.554 132.349 174.461C132.193 174.368 132.014 174.318 131.833 174.318C131.651 174.318 131.473 174.368 131.316 174.461C131.16 174.554 131.032 174.688 130.946 174.848L129.209 178.158H126.443C125.783 178.158 125.15 178.42 124.683 178.888C124.216 179.355 123.954 179.989 123.954 180.65V191.374C123.954 192.035 124.216 192.669 124.683 193.136C125.15 193.604 125.783 193.866 126.443 193.866H137.151C137.812 193.866 138.445 193.604 138.912 193.136C139.378 192.669 139.641 192.035 139.641 191.374V180.65C139.641 179.989 139.378 179.355 138.912 178.888C138.445 178.42 137.812 178.158 137.151 178.158Z" fill="#7E58FF"/>
<path opacity="0.9" d="M133.315 182.256C132.795 181.735 132.137 181.373 131.419 181.212C130.701 181.052 129.952 181.1 129.261 181.35C128.569 181.6 127.962 182.043 127.512 182.625C127.063 183.208 126.788 183.907 126.72 184.641C126.653 185.375 126.795 186.112 127.131 186.768C127.467 187.423 127.983 187.969 128.617 188.341C129.252 188.714 129.98 188.898 130.715 188.872C131.45 188.845 132.162 188.61 132.769 188.192C132.798 188.369 132.88 188.532 133.003 188.661L135.414 191.069C135.577 191.232 135.797 191.323 136.027 191.323C136.257 191.323 136.478 191.232 136.641 191.069C136.803 190.906 136.895 190.685 136.895 190.454C136.895 190.224 136.803 190.003 136.641 189.84L134.237 187.433C134.107 187.304 133.941 187.22 133.761 187.191C134.271 186.445 134.506 185.544 134.424 184.643C134.343 183.742 133.95 182.898 133.315 182.256ZM132.492 186.921C132.112 187.301 131.628 187.56 131.101 187.665C130.575 187.769 130.029 187.715 129.533 187.509C129.036 187.303 128.612 186.955 128.314 186.507C128.016 186.06 127.857 185.535 127.857 184.997C127.857 184.459 128.016 183.933 128.314 183.486C128.612 183.039 129.036 182.69 129.533 182.484C130.029 182.278 130.575 182.224 131.101 182.329C131.628 182.434 132.112 182.692 132.492 183.072C132.745 183.325 132.945 183.625 133.082 183.955C133.218 184.285 133.289 184.639 133.289 184.997C133.289 185.354 133.218 185.708 133.082 186.038C132.945 186.369 132.745 186.669 132.492 186.921Z" fill="white"/>
<path d="M251.674 106.744C251.674 106.744 245.894 121.089 240.235 122.637C234.576 124.186 226.052 122.929 226.052 122.929L223.414 123.639L220.825 123.255H220.733L217.819 123.184C217.713 123.193 217.608 123.172 217.515 123.122C217.421 123.073 217.344 122.998 217.292 122.906C217.24 122.814 217.215 122.71 217.22 122.604C217.226 122.499 217.261 122.397 217.322 122.311L218.365 120.89C218.452 120.774 218.574 120.687 218.712 120.642L221.492 119.747C221.602 119.723 221.716 119.723 221.825 119.747L226.08 120.422C226.08 120.422 237.888 118.483 239.094 117.389C240.299 116.296 243.852 104.827 243.852 104.827L251.674 106.744Z" fill="#EEC1BB"/>
<path opacity="0.1" d="M226.343 120.33L226.066 120.372L221.811 119.698C221.701 119.673 221.588 119.673 221.478 119.698L218.698 120.592C218.559 120.638 218.438 120.724 218.35 120.841L217.308 122.261C217.247 122.347 217.211 122.449 217.206 122.555C217.201 122.66 217.226 122.765 217.278 122.857C217.33 122.949 217.407 123.023 217.501 123.073C217.594 123.122 217.699 123.144 217.804 123.135L220.719 123.206H220.811L222.549 123.461C224.031 122.714 225.327 121.644 226.343 120.33Z" fill="black"/>
<path d="M255.163 92.5339C250.965 91.1562 245.058 94.3164 242.796 107.554L251.511 110.132C251.511 110.132 261.163 94.5082 255.163 92.5339Z" fill="#7E58FF"/>
<path d="M230.74 75.2342C230.74 75.6745 230.974 76.0225 231.257 76.0225C231.541 76.0225 231.789 75.6461 231.768 75.22C231.747 74.7939 231.534 74.4388 231.25 74.4459C230.967 74.453 230.74 74.801 230.74 75.2342Z" fill="#263238"/>
<path d="M232.456 75.6675L230.392 79.0833C230.392 79.0833 231.101 79.8929 232.654 79.2964L232.456 75.6675Z" fill="#D4827D"/>
<path d="M232.846 72.4932C232.821 72.5219 232.788 72.5435 232.752 72.556C232.716 72.5684 232.678 72.5713 232.64 72.5642C232.361 72.5163 232.075 72.5357 231.804 72.6209C231.534 72.7062 231.288 72.8547 231.087 73.0542C231.044 73.0946 230.987 73.1171 230.928 73.1171C230.868 73.1171 230.811 73.0946 230.768 73.0542C230.727 73.0097 230.704 72.9514 230.704 72.8909C230.704 72.8304 230.727 72.7721 230.768 72.7275C231.018 72.4709 231.328 72.2792 231.669 72.1691C232.01 72.059 232.372 72.0337 232.725 72.0955C232.755 72.099 232.784 72.1084 232.81 72.1232C232.837 72.138 232.86 72.1579 232.878 72.1817C232.897 72.2055 232.91 72.2327 232.918 72.2618C232.926 72.2909 232.928 72.3213 232.924 72.3512C232.913 72.4054 232.886 72.455 232.846 72.4932Z" fill="#263238"/>
<path d="M247.426 72.1382C247.745 77.9118 248.008 80.3547 245.462 83.6357C241.398 87.151 234.477 87.712 232.435 82.1514C230.598 77.1803 230.385 68.5661 235.718 65.5905C236.623 65.0858 237.618 64.7645 238.646 64.6452C239.675 64.5259 240.717 64.6107 241.713 64.895C242.709 65.1793 243.639 65.6574 244.45 66.3019C245.261 66.9464 245.938 67.7448 246.441 68.6513C247.031 69.723 247.368 70.9158 247.426 72.1382Z" fill="#EEC1BB"/>
<path d="M239.391 84.7719L240.852 93.3293L247.972 91.6817L245.483 82.9468L239.391 84.7719Z" fill="#EEC1BB"/>
<path d="M234.264 72.564C234.626 68.8143 233.335 73.1463 231.605 68.1965C229.875 63.2467 238.051 59.2272 239.356 60.1504C240.661 61.0736 239.916 62.4868 244.242 63.2893C245.422 63.477 246.494 64.0888 247.256 65.0103C248.018 65.9318 248.419 67.0998 248.384 68.2959C248.384 68.2959 250.873 69.4464 249.986 74.801C249.336 78.2319 247.877 81.4578 245.731 84.2106C245.731 84.2106 244.093 82.5204 241.476 84.0756C240.455 83.4081 239.591 82.5261 238.945 81.4906C237.782 79.7437 237.42 78.0819 235.824 77.9399C232.491 77.6345 234.144 73.7996 234.264 72.564Z" fill="#263238"/>
<path d="M247.923 68.9422C247.923 68.9422 251.469 66.7691 249.894 64.4895C248.32 62.2099 249.079 67.0035 247.923 68.9422Z" fill="#263238"/>
<path d="M235.278 74.7443C234.492 75.6247 234.086 76.7817 234.151 77.9613C234.25 79.5236 235.782 79.8006 236.987 78.9484C238.193 78.0962 239.335 76.4344 238.64 75.0638C238.486 74.7648 238.259 74.5093 237.981 74.3208C237.702 74.1323 237.381 74.0169 237.046 73.9851C236.712 73.9533 236.374 74.0061 236.066 74.1388C235.757 74.2714 235.486 74.4796 235.278 74.7443Z" fill="#FFC3BD"/>
<path opacity="0.1" d="M239.526 85.5816L240.108 88.9762C240.057 88.1356 240.172 87.2932 240.447 86.4974C240.722 85.7015 241.152 84.968 241.711 84.3389C241.276 84.3668 240.854 84.4931 240.476 84.7084C240.097 84.9237 239.773 85.2223 239.526 85.5816Z" fill="black"/>
<path d="M189.466 107.653H187.431V119.676H189.466V107.653Z" fill="#7E58FF"/>
<path opacity="0.7" d="M189.466 107.653H187.431V119.676H189.466V107.653Z" fill="white"/>
<path d="M175.481 83.7773H170.411C169.499 83.7773 168.624 84.1402 167.979 84.7861C167.334 85.4321 166.971 86.3081 166.971 87.2216V110.749C166.971 111.201 167.06 111.649 167.233 112.067C167.406 112.485 167.659 112.865 167.979 113.185C168.298 113.504 168.677 113.758 169.095 113.931C169.512 114.104 169.959 114.193 170.411 114.193H175.481V83.7773Z" fill="#7E58FF"/>
<path d="M206.493 83.7773H172.184C170.284 83.7773 168.744 85.3194 168.744 87.2216V110.742C168.744 112.644 170.284 114.186 172.184 114.186H206.493C208.393 114.186 209.933 112.644 209.933 110.742V87.2216C209.933 85.3194 208.393 83.7773 206.493 83.7773Z" fill="#7E58FF"/>
<path opacity="0.5" d="M206.493 83.7773H172.184C170.284 83.7773 168.744 85.3194 168.744 87.2216V110.742C168.744 112.644 170.284 114.186 172.184 114.186H206.493C208.393 114.186 209.933 112.644 209.933 110.742V87.2216C209.933 85.3194 208.393 83.7773 206.493 83.7773Z" fill="white"/>
<path d="M206.493 85.1978H172.184C171.068 85.1978 170.163 86.1039 170.163 87.2217V110.742C170.163 111.86 171.068 112.766 172.184 112.766H206.493C207.61 112.766 208.514 111.86 208.514 110.742V87.2217C208.514 86.1039 207.61 85.1978 206.493 85.1978Z" fill="#263238"/>
<path d="M181.041 124.718C181.101 122.791 181.907 120.962 183.29 119.62C184.673 118.278 186.523 117.527 188.449 117.527C190.374 117.527 192.225 118.278 193.607 119.62C194.99 120.962 195.796 122.791 195.856 124.718H181.041Z" fill="#7E58FF"/>
<path d="M198.522 122.19H183.708V124.597H213.337V123.61L198.522 122.19Z" fill="#7E58FF"/>
<path opacity="0.8" d="M198.522 122.19H183.708V124.597H213.337V123.61L198.522 122.19Z" fill="white"/>
<path d="M198.522 124.597H183.708V122.19L198.522 123.61V124.597Z" fill="#7E58FF"/>
<path opacity="0.6" d="M198.522 124.597H183.708V122.19L198.522 123.61V124.597Z" fill="white"/>
<path d="M231.186 207.48H200.629C200.019 207.481 199.415 207.362 198.851 207.129C198.288 206.896 197.776 206.554 197.344 206.122C196.913 205.691 196.571 205.179 196.337 204.615C196.104 204.051 195.984 203.446 195.984 202.836V132.473C195.984 131.863 196.104 131.258 196.337 130.694C196.571 130.13 196.913 129.618 197.344 129.186C197.776 128.755 198.288 128.413 198.851 128.18C199.415 127.947 200.019 127.828 200.629 127.829H231.186C231.516 127.829 231.831 127.96 232.064 128.193C232.297 128.426 232.427 128.742 232.427 129.071C232.427 129.401 232.297 129.717 232.064 129.95C231.831 130.183 231.516 130.314 231.186 130.314H200.629C200.346 130.309 200.066 130.361 199.803 130.466C199.541 130.571 199.303 130.727 199.101 130.925C198.9 131.124 198.74 131.36 198.631 131.621C198.522 131.882 198.466 132.162 198.466 132.445V202.807C198.466 203.09 198.522 203.37 198.631 203.631C198.74 203.892 198.9 204.128 199.101 204.326C199.303 204.525 199.541 204.681 199.803 204.786C200.066 204.891 200.346 204.942 200.629 204.938H231.186C231.516 204.938 231.831 205.069 232.064 205.302C232.297 205.535 232.427 205.851 232.427 206.18C232.435 206.348 232.409 206.516 232.35 206.673C232.291 206.831 232.201 206.975 232.085 207.096C231.969 207.218 231.829 207.314 231.675 207.38C231.52 207.446 231.354 207.48 231.186 207.48Z" fill="#263238"/>
<g opacity="0.5">
<path d="M231.186 207.48H200.629C200.019 207.481 199.415 207.362 198.851 207.129C198.288 206.896 197.776 206.554 197.344 206.122C196.913 205.691 196.571 205.179 196.337 204.615C196.104 204.051 195.984 203.446 195.984 202.836V132.473C195.984 131.863 196.104 131.258 196.337 130.694C196.571 130.13 196.913 129.618 197.344 129.186C197.776 128.755 198.288 128.413 198.851 128.18C199.415 127.947 200.019 127.828 200.629 127.829H231.186C231.516 127.829 231.831 127.96 232.064 128.193C232.297 128.426 232.427 128.742 232.427 129.071C232.427 129.401 232.297 129.717 232.064 129.95C231.831 130.183 231.516 130.314 231.186 130.314H200.629C200.346 130.309 200.066 130.361 199.803 130.466C199.541 130.571 199.303 130.727 199.101 130.925C198.9 131.124 198.74 131.36 198.631 131.621C198.522 131.882 198.466 132.162 198.466 132.445V202.807C198.466 203.09 198.522 203.37 198.631 203.631C198.74 203.892 198.9 204.128 199.101 204.326C199.303 204.525 199.541 204.681 199.803 204.786C200.066 204.891 200.346 204.942 200.629 204.938H231.186C231.516 204.938 231.831 205.069 232.064 205.302C232.297 205.535 232.427 205.851 232.427 206.18C232.435 206.348 232.409 206.516 232.35 206.673C232.291 206.831 232.201 206.975 232.085 207.096C231.969 207.218 231.829 207.314 231.675 207.38C231.52 207.446 231.354 207.48 231.186 207.48Z" fill="white"/>
</g>
<path d="M200.508 124.598H157.114V128.241H200.508V124.598Z" fill="#7E58FF"/>
<path opacity="0.2" d="M200.508 124.598H157.114V128.241H200.508V124.598Z" fill="white"/>
<path d="M235.534 124.598H198.522V128.241H235.534V124.598Z" fill="#7E58FF"/>
<path opacity="0.5" d="M235.534 124.598H198.522V128.241H235.534V124.598Z" fill="white"/>
<path d="M222.556 181.666L224.606 202.416H219.698L214.784 182.205L222.556 181.666Z" fill="#EEC1BB"/>
<path d="M219.237 201.032L225.499 201.139C225.613 201.141 225.723 201.183 225.811 201.256C225.899 201.33 225.959 201.431 225.981 201.543L227.031 206.664C227.075 206.881 227.032 207.107 226.911 207.293C226.791 207.479 226.602 207.61 226.385 207.658H226.208C223.946 207.58 221.953 207.423 219.116 207.374C215.805 207.317 216.634 207.729 212.734 207.722C210.387 207.722 210.004 205.03 210.996 204.917C215.571 204.419 216.067 203.049 217.854 201.444C218.249 201.142 218.741 200.995 219.237 201.032Z" fill="#263238"/>
<path opacity="0.1" d="M224.074 196.998L222.556 181.666L214.784 182.205L218.379 196.998H224.074Z" fill="black"/>
<path d="M256.156 133.822L236.03 134.532C236.03 134.532 208.919 144.027 208.21 151.321C207.429 158.834 216.535 193.355 216.535 193.355H224.627C224.627 193.355 222.393 168.024 221.542 160.269C220.691 152.514 249.759 155.077 254.809 148.466C259.425 142.401 256.156 133.822 256.156 133.822Z" fill="#263238"/>
<path opacity="0.2" d="M256.156 133.822L236.03 134.532C236.03 134.532 208.919 144.027 208.21 151.321C207.429 158.834 216.535 193.355 216.535 193.355H224.627C224.627 193.355 222.393 168.024 221.542 160.269C220.691 152.514 249.759 155.077 254.809 148.466C259.425 142.401 256.156 133.822 256.156 133.822Z" fill="black"/>
<path d="M225.974 192.219L226.151 195.081H216.152L215.173 192.219H225.974Z" fill="#7E58FF"/>
<path d="M203.827 182.653L204.366 202.417H199.544L196.686 182.653H203.827Z" fill="#EEC1BB"/>
<path d="M198.877 201.032L205.139 201.138C205.253 201.141 205.363 201.183 205.451 201.256C205.539 201.33 205.599 201.431 205.621 201.543L206.671 206.663C206.715 206.881 206.672 207.107 206.551 207.293C206.431 207.479 206.242 207.61 206.025 207.658H205.848C203.586 207.58 201.593 207.423 198.756 207.374C195.437 207.317 196.274 207.729 192.374 207.722C190.027 207.722 189.644 205.03 190.636 204.916C195.21 204.419 195.707 203.049 197.494 201.444C197.888 201.14 198.381 200.993 198.877 201.032Z" fill="#263238"/>
<path opacity="0.1" d="M204.217 196.984L203.827 182.653H196.686L198.764 196.998C200.317 197.005 202.451 196.991 204.217 196.984Z" fill="black"/>
<path d="M247.405 135.491C247.405 135.491 249.079 150.816 233.513 151.534C217.946 152.251 205.791 154.033 205.437 159.58C205.082 165.126 205.437 193.383 205.437 193.383H196.976C196.976 193.383 193.686 175.516 192.402 164.437C191.154 153.678 188.856 145.874 199.898 142.231C211.621 138.353 232.456 134.774 232.456 134.774L247.462 133.822L247.405 135.491Z" fill="#263238"/>
<path d="M206.685 192.219L206.153 195.081H196.863L195.884 192.219H206.685Z" fill="#7E58FF"/>
<path d="M250.759 91.5255C250.759 91.5255 250.759 88.0742 243.788 88.4718C236.385 88.8979 237.782 92.2073 237.782 92.2073L250.759 91.5255Z" fill="#7E58FF"/>
<path opacity="0.3" d="M250.759 91.5255C250.759 91.5255 250.759 88.0742 243.788 88.4718C236.385 88.8979 237.782 92.2073 237.782 92.2073L250.759 91.5255Z" fill="black"/>
<path d="M257.255 107.007C256.787 113.832 256.95 134.362 256.95 134.362C256.95 134.362 242.058 135.342 230.371 134.959L229.016 95.4669C229.022 94.7687 229.237 94.0882 229.634 93.5143C230.031 92.9404 230.592 92.4998 231.243 92.2499C234.548 90.9645 242.306 89.5087 254.44 91.1065C258.624 91.6676 257.808 98.9396 257.255 107.007Z" fill="#7E58FF"/>
<path d="M231.406 106.744C231.406 106.744 225.619 121.089 219.967 122.637C214.315 124.186 205.784 122.929 205.784 122.929L203.146 123.639L200.564 123.255H200.472L197.551 123.184C197.445 123.193 197.34 123.172 197.247 123.122C197.153 123.073 197.076 122.998 197.024 122.906C196.972 122.814 196.947 122.71 196.952 122.604C196.957 122.499 196.993 122.397 197.054 122.311L198.104 120.89C198.191 120.774 198.313 120.687 198.451 120.642L201.224 119.747C201.336 119.722 201.452 119.722 201.564 119.747L205.819 120.422C205.819 120.422 217.627 118.483 218.825 117.389C220.024 116.296 223.591 104.827 223.591 104.827L231.406 106.744Z" fill="#EEC1BB"/>
<path opacity="0.1" d="M231.257 100.069C231.257 100.069 230.357 101.141 229.265 102.689L229.655 114.123C234.002 112.198 235.725 100.992 235.725 100.992L232.888 98.9893L231.257 100.069Z" fill="black"/>
<path d="M234.895 92.5339C230.697 91.1562 224.783 94.3164 222.52 107.554L231.243 110.103C231.243 110.103 240.895 94.5082 234.895 92.5339Z" fill="#7E58FF"/>
<path d="M240.448 158.969H233.888V178.222H240.448V158.969Z" fill="#263238"/>
<path opacity="0.6" d="M240.448 158.969H233.888V178.222H240.448V158.969Z" fill="white"/>
<path d="M241.462 195.663V171.205H232.867V195.663L213.301 198.383V201.103L237.165 199.065L261.028 201.103V198.383L241.462 195.663Z" fill="#263238"/>
<path d="M213.018 207.771C214.447 207.771 215.606 206.611 215.606 205.179C215.606 203.747 214.447 202.587 213.018 202.587C211.588 202.587 210.429 203.747 210.429 205.179C210.429 206.611 211.588 207.771 213.018 207.771Z" fill="#7E58FF"/>
<path d="M261.028 207.771C262.457 207.771 263.616 206.611 263.616 205.179C263.616 203.747 262.457 202.587 261.028 202.587C259.598 202.587 258.439 203.747 258.439 205.179C258.439 206.611 259.598 207.771 261.028 207.771Z" fill="#7E58FF"/>
<path d="M237.165 207.771C238.594 207.771 239.753 206.611 239.753 205.179C239.753 203.747 238.594 202.587 237.165 202.587C235.735 202.587 234.576 203.747 234.576 205.179C234.576 206.611 235.735 207.771 237.165 207.771Z" fill="#7E58FF"/>
<path opacity="0.3" d="M240.448 158.969H233.888V163.727H240.448V158.969Z" fill="black"/>
<path d="M263.099 115.33H241.725C240.044 115.332 238.425 115.96 237.183 117.094C235.941 118.227 235.166 119.784 235.009 121.459L233.208 140.796C233.008 142.928 232.049 144.915 230.506 146.397C228.963 147.878 226.939 148.754 224.804 148.864L204.174 149.901C202.967 149.962 201.83 150.486 200.997 151.364C200.164 152.241 199.7 153.406 199.7 154.616V155.049C199.7 156.087 200.111 157.082 200.844 157.816C201.577 158.55 202.571 158.962 203.607 158.962H266.432L269.815 122.744C269.906 121.806 269.8 120.859 269.504 119.964C269.208 119.07 268.728 118.247 268.096 117.549C267.463 116.85 266.692 116.292 265.831 115.91C264.971 115.528 264.04 115.331 263.099 115.33Z" fill="#7E58FF"/>
<path opacity="0.3" d="M263.099 115.33H241.725C240.044 115.332 238.425 115.96 237.183 117.094C235.941 118.227 235.166 119.784 235.009 121.459L233.208 140.796C233.008 142.928 232.049 144.915 230.506 146.397C228.963 147.878 226.939 148.754 224.804 148.864L204.174 149.901C202.967 149.962 201.83 150.486 200.997 151.364C200.164 152.241 199.7 153.406 199.7 154.616V155.049C199.7 156.087 200.111 157.082 200.844 157.816C201.577 158.55 202.571 158.962 203.607 158.962H266.432L269.815 122.744C269.906 121.806 269.8 120.859 269.504 119.964C269.208 119.07 268.728 118.247 268.096 117.549C267.463 116.85 266.692 116.292 265.831 115.91C264.971 115.528 264.04 115.331 263.099 115.33Z" fill="white"/>
<path d="M214.039 137.118H216.982V152.535C216.982 152.912 216.832 153.273 216.566 153.54C216.3 153.806 215.94 153.956 215.564 153.956H215.457C215.081 153.956 214.72 153.806 214.454 153.54C214.188 153.273 214.039 152.912 214.039 152.535V137.118Z" fill="#263238"/>
<path opacity="0.2" d="M214.039 137.118H216.982V152.535C216.982 152.912 216.832 153.273 216.566 153.54C216.3 153.806 215.94 153.956 215.564 153.956H215.457C215.081 153.956 214.72 153.806 214.454 153.54C214.188 153.273 214.039 152.912 214.039 152.535V137.118Z" fill="white"/>
<path d="M228.229 132.693H221.684V138.126H228.243C228.611 138.145 228.979 138.089 229.325 137.961C229.67 137.833 229.986 137.636 230.253 137.382C230.52 137.128 230.733 136.822 230.878 136.483C231.023 136.144 231.098 135.779 231.098 135.41C231.098 135.041 231.023 134.676 230.878 134.337C230.733 133.998 230.52 133.692 230.253 133.438C229.986 133.184 229.67 132.987 229.325 132.859C228.979 132.731 228.611 132.675 228.243 132.693H228.229Z" fill="#7E58FF"/>
<path opacity="0.5" d="M228.229 132.693H221.684V138.126H228.243C228.611 138.145 228.979 138.089 229.325 137.961C229.67 137.833 229.986 137.636 230.253 137.382C230.52 137.128 230.733 136.822 230.878 136.483C231.023 136.144 231.098 135.779 231.098 135.41C231.098 135.041 231.023 134.676 230.878 134.337C230.733 133.998 230.52 133.692 230.253 133.438C229.986 133.184 229.67 132.987 229.325 132.859C228.979 132.731 228.611 132.675 228.243 132.693H228.229Z" fill="white"/>
<path d="M225.612 132.693H202.685C201.24 132.693 200.068 133.867 200.068 135.314V135.513C200.068 136.96 201.24 138.133 202.685 138.133H225.612C227.058 138.133 228.229 136.96 228.229 135.513V135.314C228.229 133.867 227.058 132.693 225.612 132.693Z" fill="#7E58FF"/>
<path opacity="0.3" d="M225.612 132.693H202.685C201.24 132.693 200.068 133.867 200.068 135.314V135.513C200.068 136.96 201.24 138.133 202.685 138.133H225.612C227.058 138.133 228.229 136.96 228.229 135.513V135.314C228.229 133.867 227.058 132.693 225.612 132.693Z" fill="white"/>
<path d="M267.907 158.969H236.484L239.987 121.494C240.144 119.819 240.919 118.262 242.161 117.129C243.403 115.996 245.023 115.367 246.703 115.365H268.077C269.016 115.366 269.944 115.563 270.802 115.943C271.661 116.324 272.43 116.879 273.062 117.574C273.694 118.269 274.175 119.088 274.473 119.98C274.771 120.871 274.88 121.815 274.793 122.751L271.736 155.518C271.637 156.465 271.19 157.342 270.483 157.979C269.776 158.616 268.858 158.969 267.907 158.969Z" fill="#7E58FF"/>
<path opacity="0.5" d="M267.907 158.969H236.484L239.987 121.494C240.144 119.819 240.919 118.262 242.161 117.129C243.403 115.996 245.023 115.367 246.703 115.365H268.077C269.016 115.366 269.944 115.563 270.802 115.943C271.661 116.324 272.43 116.879 273.062 117.574C273.694 118.269 274.175 119.088 274.473 119.98C274.771 120.871 274.88 121.815 274.793 122.751L271.736 155.518C271.637 156.465 271.19 157.342 270.483 157.979C269.776 158.616 268.858 158.969 267.907 158.969Z" fill="white"/>
<path d="M194.501 207.48H163.943C163.334 207.481 162.73 207.362 162.166 207.129C161.603 206.896 161.091 206.554 160.659 206.122C160.228 205.691 159.886 205.179 159.652 204.615C159.419 204.051 159.298 203.446 159.298 202.836V132.473C159.298 131.863 159.419 131.258 159.652 130.694C159.886 130.13 160.228 129.618 160.659 129.186C161.091 128.755 161.603 128.413 162.166 128.18C162.73 127.947 163.334 127.828 163.943 127.829H194.501C194.83 127.829 195.146 127.96 195.379 128.193C195.612 128.426 195.742 128.742 195.742 129.071C195.742 129.401 195.612 129.717 195.379 129.95C195.146 130.183 194.83 130.314 194.501 130.314H163.943C163.661 130.309 163.381 130.361 163.118 130.466C162.856 130.571 162.617 130.727 162.416 130.925C162.215 131.124 162.055 131.36 161.946 131.621C161.837 131.882 161.78 132.162 161.78 132.445V202.807C161.78 203.09 161.837 203.37 161.946 203.631C162.055 203.892 162.215 204.128 162.416 204.326C162.617 204.525 162.856 204.681 163.118 204.786C163.381 204.891 163.661 204.942 163.943 204.938H194.501C194.83 204.938 195.146 205.069 195.379 205.302C195.612 205.535 195.742 205.851 195.742 206.18C195.75 206.348 195.724 206.516 195.665 206.673C195.606 206.831 195.516 206.975 195.4 207.096C195.284 207.218 195.144 207.314 194.99 207.38C194.835 207.446 194.669 207.48 194.501 207.48Z" fill="#263238"/>
<g opacity="0.5">
<path d="M194.501 207.48H163.943C163.334 207.481 162.73 207.362 162.166 207.129C161.603 206.896 161.091 206.554 160.659 206.122C160.228 205.691 159.886 205.179 159.652 204.615C159.419 204.051 159.298 203.446 159.298 202.836V132.473C159.298 131.863 159.419 131.258 159.652 130.694C159.886 130.13 160.228 129.618 160.659 129.186C161.091 128.755 161.603 128.413 162.166 128.18C162.73 127.947 163.334 127.828 163.943 127.829H194.501C194.83 127.829 195.146 127.96 195.379 128.193C195.612 128.426 195.742 128.742 195.742 129.071C195.742 129.401 195.612 129.717 195.379 129.95C195.146 130.183 194.83 130.314 194.501 130.314H163.943C163.661 130.309 163.381 130.361 163.118 130.466C162.856 130.571 162.617 130.727 162.416 130.925C162.215 131.124 162.055 131.36 161.946 131.621C161.837 131.882 161.78 132.162 161.78 132.445V202.807C161.78 203.09 161.837 203.37 161.946 203.631C162.055 203.892 162.215 204.128 162.416 204.326C162.617 204.525 162.856 204.681 163.118 204.786C163.381 204.891 163.661 204.942 163.943 204.938H194.501C194.83 204.938 195.146 205.069 195.379 205.302C195.612 205.535 195.742 205.851 195.742 206.18C195.75 206.348 195.724 206.516 195.665 206.673C195.606 206.831 195.516 206.975 195.4 207.096C195.284 207.218 195.144 207.314 194.99 207.38C194.835 207.446 194.669 207.48 194.501 207.48Z" fill="white"/>
</g>
<path d="M174.304 90.8078L172.177 89.3875C172.123 89.3528 172.078 89.305 172.047 89.2486C172.016 89.1921 172 89.1288 172 89.0644C172 89 172.016 88.9367 172.047 88.8802C172.078 88.8237 172.123 88.7759 172.177 88.7413L174.304 87.3209C174.382 87.2696 174.478 87.2512 174.569 87.2698C174.661 87.2884 174.742 87.3425 174.794 87.4204C174.843 87.4981 174.86 87.5918 174.841 87.6819C174.823 87.772 174.77 87.8513 174.694 87.9033L172.929 89.075L174.694 90.2468C174.77 90.2987 174.823 90.3781 174.841 90.4682C174.86 90.5582 174.843 90.652 174.794 90.7297C174.737 90.8026 174.655 90.8513 174.564 90.8659C174.474 90.8804 174.38 90.8596 174.304 90.8078Z" fill="white"/>
<path d="M179.013 90.7087C178.971 90.6308 178.96 90.5397 178.982 90.4539C179.005 90.3681 179.059 90.2941 179.134 90.2471L180.9 89.0753L179.134 87.8822C179.058 87.8304 179.005 87.7504 178.988 87.6599C178.971 87.5693 178.99 87.4756 179.042 87.3993C179.067 87.361 179.099 87.3281 179.137 87.3023C179.175 87.2766 179.217 87.2586 179.262 87.2493C179.307 87.2401 179.353 87.2398 179.398 87.2485C179.443 87.2572 179.486 87.2746 179.524 87.2999L181.651 88.7202C181.706 88.7549 181.75 88.8027 181.781 88.8591C181.812 88.9156 181.828 88.979 181.828 89.0433C181.828 89.1077 181.812 89.1711 181.781 89.2275C181.75 89.284 181.706 89.3318 181.651 89.3665L179.524 90.7868C179.486 90.8167 179.442 90.8384 179.395 90.8507C179.348 90.863 179.3 90.8655 179.252 90.8582C179.204 90.8509 179.158 90.8339 179.117 90.8081C179.076 90.7824 179.041 90.7486 179.013 90.7087Z" fill="white"/>
<path d="M176.098 91.6674C176.054 91.6537 176.014 91.6313 175.978 91.6017C175.943 91.5721 175.914 91.5357 175.893 91.4947C175.872 91.4538 175.859 91.409 175.855 91.3631C175.852 91.3171 175.857 91.2709 175.871 91.2271L177.339 86.5826C177.352 86.5389 177.374 86.4982 177.403 86.4629C177.432 86.4277 177.467 86.3986 177.508 86.3774C177.548 86.3562 177.592 86.3433 177.638 86.3396C177.683 86.3358 177.729 86.3412 177.772 86.3554C177.816 86.3683 177.856 86.3899 177.892 86.4188C177.927 86.4478 177.956 86.4835 177.977 86.5239C177.998 86.5643 178.011 86.6086 178.015 86.654C178.018 86.6995 178.013 86.7452 177.999 86.7886L176.538 91.4401C176.524 91.4841 176.502 91.525 176.472 91.5603C176.443 91.5956 176.407 91.6247 176.366 91.6458C176.325 91.667 176.28 91.6797 176.234 91.6834C176.188 91.6871 176.142 91.6817 176.098 91.6674Z" fill="white"/>
<path d="M188.14 95.2181H172.347C172.299 95.2181 172.251 95.2085 172.207 95.1898C172.163 95.1712 172.123 95.1439 172.089 95.1095C172.055 95.0751 172.029 95.0343 172.011 94.9896C171.993 94.9448 171.985 94.8969 171.986 94.8488C171.985 94.8006 171.993 94.7527 172.011 94.708C172.029 94.6632 172.055 94.6225 172.089 94.5881C172.123 94.5537 172.163 94.5264 172.207 94.5077C172.251 94.4891 172.299 94.4795 172.347 94.4795H188.14C188.238 94.4795 188.332 94.5184 188.401 94.5876C188.47 94.6569 188.509 94.7508 188.509 94.8488C188.509 94.8973 188.5 94.9453 188.481 94.9901C188.462 95.0349 188.435 95.0756 188.401 95.1099C188.367 95.1442 188.326 95.1714 188.281 95.1899C188.237 95.2085 188.189 95.2181 188.14 95.2181Z" fill="white"/>
<path d="M206.281 95.218H190.48C190.432 95.218 190.384 95.2084 190.339 95.1899C190.295 95.1713 190.254 95.1441 190.22 95.1098C190.185 95.0755 190.158 95.0348 190.14 94.99C190.121 94.9452 190.112 94.8972 190.112 94.8487C190.119 94.7558 190.161 94.669 190.229 94.6057C190.298 94.5425 190.387 94.5075 190.48 94.5078H206.266C206.364 94.5078 206.458 94.5467 206.527 94.616C206.596 94.6852 206.635 94.7792 206.635 94.8771C206.628 94.9676 206.588 95.0524 206.523 95.1153C206.458 95.1782 206.371 95.2147 206.281 95.218Z" fill="white"/>
<path d="M181.375 98.4707H172.347C172.299 98.4707 172.251 98.4611 172.207 98.4425C172.163 98.4238 172.123 98.3965 172.089 98.3621C172.055 98.3278 172.029 98.287 172.011 98.2422C171.993 98.1975 171.985 98.1496 171.986 98.1014C171.986 98.0054 172.024 97.9133 172.091 97.8453C172.159 97.7774 172.251 97.7393 172.347 97.7393H181.375C181.471 97.7392 181.564 97.7772 181.633 97.8449C181.702 97.9126 181.742 98.0047 181.744 98.1014C181.744 98.1994 181.705 98.2933 181.636 98.3626C181.566 98.4318 181.473 98.4707 181.375 98.4707Z" fill="white"/>
<path d="M198.508 98.4707H183.722C183.674 98.4707 183.626 98.4611 183.582 98.4425C183.538 98.4238 183.498 98.3965 183.464 98.3621C183.43 98.3278 183.404 98.287 183.386 98.2422C183.368 98.1975 183.359 98.1496 183.36 98.1014C183.36 98.0054 183.399 97.9133 183.466 97.8453C183.534 97.7774 183.626 97.7393 183.722 97.7393H198.508C198.604 97.7393 198.696 97.7774 198.764 97.8453C198.832 97.9133 198.87 98.0054 198.87 98.1014C198.871 98.1496 198.862 98.1975 198.844 98.2422C198.827 98.287 198.8 98.3278 198.766 98.3621C198.733 98.3965 198.693 98.4238 198.648 98.4425C198.604 98.4611 198.556 98.4707 198.508 98.4707Z" fill="white"/>
<path d="M196.402 101.73H172.347C172.251 101.728 172.159 101.689 172.091 101.62C172.023 101.551 171.986 101.458 171.986 101.361C171.985 101.313 171.993 101.265 172.011 101.22C172.029 101.175 172.055 101.135 172.089 101.1C172.123 101.066 172.163 101.039 172.207 101.02C172.251 101.001 172.299 100.992 172.347 100.992H196.402C196.5 100.992 196.594 101.031 196.663 101.1C196.732 101.169 196.771 101.263 196.771 101.361C196.771 101.459 196.732 101.553 196.663 101.622C196.594 101.691 196.5 101.73 196.402 101.73Z" fill="white"/>
<path d="M203.777 101.73H198.756C198.658 101.73 198.565 101.691 198.495 101.622C198.426 101.553 198.387 101.459 198.387 101.361C198.387 101.263 198.426 101.169 198.495 101.1C198.565 101.031 198.658 100.992 198.756 100.992H203.777C203.875 100.992 203.969 101.031 204.038 101.1C204.107 101.169 204.146 101.263 204.146 101.361C204.146 101.459 204.107 101.553 204.038 101.622C203.969 101.691 203.875 101.73 203.777 101.73Z" fill="white"/>
<path d="M183.58 104.983H172.347C172.299 104.983 172.251 104.973 172.207 104.954C172.163 104.936 172.123 104.909 172.089 104.874C172.055 104.84 172.029 104.799 172.011 104.754C171.993 104.709 171.985 104.662 171.986 104.613C171.985 104.565 171.993 104.517 172.011 104.473C172.029 104.428 172.055 104.387 172.089 104.353C172.123 104.318 172.163 104.291 172.207 104.272C172.251 104.254 172.299 104.244 172.347 104.244H183.58C183.678 104.244 183.772 104.283 183.841 104.352C183.91 104.422 183.949 104.515 183.949 104.613C183.949 104.711 183.91 104.805 183.841 104.875C183.772 104.944 183.678 104.983 183.58 104.983Z" fill="white"/>
<path d="M199.912 104.983H185.935C185.837 104.983 185.743 104.944 185.674 104.875C185.605 104.805 185.566 104.711 185.566 104.613C185.566 104.515 185.605 104.422 185.674 104.352C185.743 104.283 185.837 104.244 185.935 104.244H199.912C200.01 104.244 200.104 104.283 200.173 104.352C200.242 104.422 200.281 104.515 200.281 104.613C200.281 104.711 200.242 104.805 200.173 104.875C200.104 104.944 200.01 104.983 199.912 104.983Z" fill="white"/>
<path d="M188.14 108.235H172.347C172.299 108.235 172.251 108.226 172.207 108.207C172.163 108.189 172.123 108.161 172.089 108.127C172.055 108.092 172.029 108.052 172.011 108.007C171.993 107.962 171.985 107.914 171.986 107.866C171.986 107.77 172.024 107.678 172.091 107.61C172.159 107.542 172.251 107.504 172.347 107.504H188.14C188.188 107.503 188.236 107.512 188.281 107.529C188.326 107.547 188.366 107.574 188.401 107.608C188.435 107.641 188.462 107.681 188.481 107.726C188.499 107.77 188.509 107.818 188.509 107.866C188.509 107.964 188.47 108.058 188.401 108.127C188.332 108.197 188.238 108.235 188.14 108.235Z" fill="white"/>
<path d="M201.636 108.235H190.48C190.383 108.235 190.289 108.197 190.22 108.127C190.151 108.058 190.112 107.964 190.112 107.866C190.112 107.818 190.121 107.77 190.14 107.726C190.158 107.681 190.186 107.641 190.22 107.608C190.254 107.574 190.295 107.547 190.34 107.529C190.385 107.512 190.432 107.503 190.48 107.504H201.621C201.717 107.504 201.809 107.542 201.877 107.61C201.945 107.678 201.983 107.77 201.983 107.866C201.985 107.961 201.95 108.053 201.885 108.122C201.82 108.191 201.73 108.232 201.636 108.235Z" fill="white"/>
<path d="M64.5826 44.6689C64.8733 48.0138 64.15 54.0714 61.6324 56.0315C65.7385 57.5157 70.0928 60.0723 72.8727 63.4455C75.6314 59.426 72.4969 57.1322 72.4969 57.1322C68.951 55.8681 69.3269 53.1766 70.2417 50.6982L64.5826 44.6689Z" fill="#B97964"/>
<path d="M78.0068 41.7856C77.9643 42.2046 78.1629 42.5668 78.4394 42.5952C78.716 42.6236 78.9642 42.297 79.0068 41.8851C79.0493 41.4732 78.8508 41.1039 78.5742 41.0755C78.2976 41.0471 78.0565 41.3667 78.0068 41.7856Z" fill="#263238"/>
<path d="M78.4679 41.0826L79.4962 40.8838C79.4962 40.8838 78.9076 41.6437 78.4679 41.0826Z" fill="#263238"/>
<path d="M78.1486 42.2329C78.4382 43.2318 78.8604 44.1872 79.4039 45.0735C79.174 45.2067 78.918 45.2884 78.6535 45.3129C78.3891 45.3374 78.1225 45.3042 77.8721 45.2156L78.1486 42.2329Z" fill="#A24E3F"/>
<path d="M79.1984 39.577C79.264 39.5666 79.3241 39.534 79.3687 39.4847C79.4125 39.4374 79.4369 39.3752 79.4369 39.3107C79.4369 39.2461 79.4125 39.184 79.3687 39.1367C79.0771 38.8701 78.7259 38.6774 78.3446 38.5748C77.9633 38.4723 77.563 38.4628 77.1773 38.5473C77.123 38.5848 77.0848 38.6415 77.0703 38.706C77.0559 38.7705 77.0662 38.838 77.0993 38.8952C77.1211 38.9317 77.1525 38.9616 77.19 38.9816C77.2274 39.0016 77.2696 39.011 77.3121 39.0089C77.6187 38.9502 77.9347 38.9639 78.2351 39.0489C78.5355 39.134 78.8119 39.2881 79.0424 39.4989C79.0837 39.5424 79.1389 39.5701 79.1984 39.577Z" fill="#263238"/>
<path d="M64.2492 39.1154C64.0861 44.3066 63.9088 46.5152 66.2207 49.4127C69.7027 53.766 76.0071 52.8143 77.695 47.758C79.2126 43.2059 79.2268 35.451 74.4541 32.937C69.6814 30.423 64.3981 33.9099 64.2492 39.1154Z" fill="#B97964"/>
<path d="M64.4763 48.923C59.3774 48.0495 60.8383 44.8325 60.8383 44.8325C55.8174 43.817 59.6965 41.3598 59.6965 41.3598C55.5195 39.556 59.6965 37.9369 59.6965 37.9369C55.6685 34.592 61.4127 33.4344 61.4127 33.4344C59.9944 28.2148 64.9585 30.3595 64.9585 30.3595C67.6534 25.8713 69.9794 30.1535 69.9794 30.1535C74.7025 23.7621 75.8513 29.1522 75.8513 29.1522C80.6807 27.881 78.8298 32.9657 78.8298 32.9657C82.8011 34.031 79.6808 36.0478 79.6808 36.0478C81.2126 37.9866 75.674 38.3203 75.674 38.3203C75.674 38.3203 78.3121 42.5813 75.674 43.7531L68.9653 48.9017C68.9653 48.9017 65.8663 47.6376 64.4763 48.923Z" fill="#263238"/>
<path d="M69.49 44.7331C69.49 44.7331 73.0358 36.2112 70.263 28.9392L72.6032 28.1367C72.6032 28.1367 75.6597 38.711 69.49 44.7331Z" fill="#7E58FF"/>
<path d="M73.0287 43.7955C73.6102 45.017 73.8372 45.5496 74.674 45.926C74.9324 46.0745 75.2288 46.1435 75.5261 46.1245C75.8234 46.1055 76.1086 45.9992 76.346 45.819C76.5835 45.6388 76.7627 45.3925 76.8614 45.111C76.96 44.8295 76.9737 44.5251 76.9008 44.2358C76.6809 43.0143 75.7448 41.2176 74.4471 41.1821C74.1436 41.1836 73.8461 41.2667 73.5856 41.4227C73.3251 41.5787 73.1113 41.8019 72.9663 42.0689C72.8214 42.3359 72.7508 42.637 72.7617 42.9408C72.7727 43.2445 72.8649 43.5397 73.0287 43.7955Z" fill="#B97964"/>
<path d="M69.3624 61.5351C69.3624 61.5351 74.1634 65.0859 76.1136 66.5062L90.0061 59.9444C89.9865 59.1731 90.1993 58.4137 90.6167 57.7652C91.0341 57.1167 91.6368 56.609 92.3464 56.3084L93.3392 55.8965L95.4313 54.9591C95.8211 54.7847 96.2501 54.7166 96.6747 54.7615C97.0993 54.8064 97.5046 54.9627 97.8495 55.2147C98.2547 55.5105 98.5587 55.9244 98.7199 56.3999C98.8811 56.8753 98.8917 57.389 98.7501 57.8707C98.4584 58.8693 97.9131 59.7751 97.1673 60.4995C96.4215 61.224 95.5008 61.7423 94.4952 62.0038L92.4669 62.5365C92.4669 62.5365 80.5601 71.5697 76.3051 71.7827C72.0501 71.9958 65.8165 67.8129 65.8165 67.8129L69.3624 61.5351Z" fill="#B97964"/>
<path d="M57.8171 55.5483C61.4834 55.5483 65.5824 57.835 72.0004 62.025C71.0786 65.0454 69.3642 67.7628 67.0362 69.8935C67.0362 69.8935 63.4904 68.9419 58.7815 64.5034C53.1082 59.1275 55.569 55.5554 57.8171 55.5483Z" fill="#263238"/>
<path d="M127.457 66.1869H92.7078C92.4155 66.1916 92.1255 66.134 91.8571 66.018C91.5886 65.902 91.3479 65.7302 91.1508 65.514C90.9536 65.2978 90.8046 65.0421 90.7136 64.7639C90.6226 64.4857 90.5917 64.1913 90.6229 63.9002L93.2397 33.9457C93.3021 33.3263 93.5893 32.7514 94.0467 32.3299C94.5042 31.9085 95.1002 31.6697 95.7218 31.659H130.471C130.763 31.6542 131.053 31.7117 131.321 31.8278C131.589 31.9438 131.829 32.1158 132.026 32.3321C132.222 32.5484 132.371 32.8042 132.461 33.0825C132.551 33.3607 132.581 33.655 132.549 33.9457L129.932 63.9002C129.87 64.5183 129.583 65.0923 129.127 65.5136C128.671 65.9349 128.077 66.1744 127.457 66.1869Z" fill="#7E58FF"/>
<path opacity="0.4" d="M127.457 66.1869H92.7078C92.4155 66.1916 92.1255 66.134 91.8571 66.018C91.5886 65.902 91.3479 65.7302 91.1508 65.514C90.9536 65.2978 90.8046 65.0421 90.7136 64.7639C90.6226 64.4857 90.5917 64.1913 90.6229 63.9002L93.2397 33.9457C93.3021 33.3263 93.5893 32.7514 94.0467 32.3299C94.5042 31.9085 95.1002 31.6697 95.7218 31.659H130.471C130.763 31.6542 131.053 31.7117 131.321 31.8278C131.589 31.9438 131.829 32.1158 132.026 32.3321C132.222 32.5484 132.371 32.8042 132.461 33.0825C132.551 33.3607 132.581 33.655 132.549 33.9457L129.932 63.9002C129.87 64.5183 129.583 65.0923 129.127 65.5136C128.671 65.9349 128.077 66.1744 127.457 66.1869Z" fill="white"/>
<path opacity="0.7" d="M127.585 64.7665C127.82 64.7623 128.045 64.6717 128.218 64.512C128.39 64.3522 128.498 64.1344 128.521 63.9001L131.138 33.9456C131.15 33.8355 131.138 33.724 131.104 33.6187C131.07 33.5134 131.014 33.4165 130.939 33.3346C130.865 33.2526 130.774 33.1875 130.672 33.1435C130.571 33.0994 130.461 33.0775 130.35 33.0792H95.6013C95.3655 33.0831 95.1393 33.1735 94.9655 33.3331C94.7917 33.4928 94.6823 33.7107 94.6581 33.9456L92.0484 63.9001C92.0363 64.0102 92.0477 64.1216 92.0819 64.227C92.1162 64.3323 92.1723 64.4292 92.2468 64.5111C92.3212 64.593 92.4122 64.6582 92.5137 64.7022C92.6152 64.7462 92.7249 64.7681 92.8355 64.7665H127.585Z" fill="white"/>
<path d="M103.438 47.1543L92.091 63.6016V63.8998C92.0789 64.0099 92.0903 64.1214 92.1245 64.2267C92.1588 64.3321 92.2149 64.4289 92.2894 64.5108C92.3638 64.5928 92.4548 64.6579 92.5563 64.702C92.6578 64.746 92.7675 64.7679 92.8781 64.7662H112.565L103.438 47.1543Z" fill="#7E58FF"/>
<path opacity="0.3" d="M103.438 47.1543L92.091 63.6016V63.8998C92.0789 64.0099 92.0903 64.1214 92.1245 64.2267C92.1588 64.3321 92.2149 64.4289 92.2894 64.5108C92.3638 64.5928 92.4548 64.6579 92.5563 64.702C92.6578 64.746 92.7675 64.7679 92.8781 64.7662H112.565L103.438 47.1543Z" fill="white"/>
<path d="M128.62 62.7567L119.11 44.6689L105.026 64.7664H127.585C127.82 64.7623 128.045 64.6717 128.218 64.5119C128.39 64.3521 128.498 64.1343 128.521 63.9L128.62 62.7567Z" fill="#7E58FF"/>
<path d="M115.437 41.4733C115.35 42.3389 114.949 43.1425 114.31 43.7316C113.67 44.3207 112.837 44.6543 111.969 44.669C111.56 44.6765 111.154 44.5967 110.779 44.4349C110.403 44.2731 110.066 44.033 109.79 43.7307C109.515 43.4284 109.306 43.0707 109.179 42.6814C109.052 42.2922 109.01 41.8804 109.054 41.4733C109.139 40.6065 109.54 39.8012 110.179 39.2106C110.818 38.6201 111.652 38.2855 112.522 38.2705C112.931 38.2629 113.338 38.3429 113.714 38.5051C114.09 38.6673 114.427 38.9081 114.703 39.2112C114.979 39.5143 115.187 39.8729 115.314 40.263C115.44 40.6531 115.482 41.0657 115.437 41.4733Z" fill="#7E58FF"/>
<path opacity="0.4" d="M115.437 41.4733C115.35 42.3389 114.949 43.1425 114.31 43.7316C113.67 44.3207 112.837 44.6543 111.969 44.669C111.56 44.6765 111.154 44.5967 110.779 44.4349C110.403 44.2731 110.066 44.033 109.79 43.7307C109.515 43.4284 109.306 43.0707 109.179 42.6814C109.052 42.2922 109.01 41.8804 109.054 41.4733C109.139 40.6065 109.54 39.8012 110.179 39.2106C110.818 38.6201 111.652 38.2855 112.522 38.2705C112.931 38.2629 113.338 38.3429 113.714 38.5051C114.09 38.6673 114.427 38.9081 114.703 39.2112C114.979 39.5143 115.187 39.8729 115.314 40.263C115.44 40.6531 115.482 41.0657 115.437 41.4733Z" fill="white"/>
<path d="M28.72 187.091L25.1884 197.573L30.5993 199.789L34.833 190.117L28.72 187.091Z" fill="#B97964"/>
<path d="M32.5425 199.526C32.5148 199.509 32.4921 199.485 32.4771 199.456C32.4621 199.427 32.4553 199.395 32.4574 199.363C32.4614 199.331 32.4752 199.302 32.4969 199.279C32.5185 199.256 32.5469 199.241 32.578 199.235C32.6914 199.235 35.2444 198.638 36.1947 199.235C36.3744 199.345 36.5041 199.521 36.5564 199.725C36.5961 199.838 36.5997 199.962 36.5667 200.077C36.5337 200.193 36.4657 200.296 36.372 200.371C36.0103 200.627 35.1664 200.52 34.3934 200.279C33.7561 200.081 33.1368 199.829 32.5425 199.526ZM33.0815 199.476C34.1949 199.973 35.7692 200.449 36.1805 200.137C36.2373 200.094 36.3082 200.023 36.2514 199.803C36.2404 199.739 36.2141 199.678 36.1745 199.626C36.135 199.574 36.0835 199.532 36.0245 199.505C35.9409 199.452 35.8501 199.411 35.755 199.384C34.8661 199.245 33.9587 199.276 33.0815 199.476Z" fill="#7E58FF"/>
<path d="M32.4645 199.491C32.4508 199.467 32.4436 199.44 32.4436 199.413C32.4436 199.385 32.4508 199.358 32.4645 199.334C32.4645 199.263 33.1737 197.63 34.1736 197.204C34.3163 197.144 34.4693 197.114 34.6239 197.114C34.7785 197.114 34.9316 197.144 35.0742 197.204C35.4643 197.367 35.5281 197.616 35.4926 197.786C35.4075 198.532 33.4928 199.42 32.656 199.519C32.6461 199.524 32.6351 199.527 32.6241 199.527C32.613 199.527 32.6021 199.524 32.5922 199.519C32.5702 199.526 32.547 199.526 32.5247 199.521C32.5023 199.517 32.4816 199.506 32.4645 199.491ZM34.8686 197.481C34.6854 197.414 34.4844 197.414 34.3012 197.481C33.6699 197.874 33.1747 198.451 32.8829 199.136C33.7977 198.915 35.1026 198.163 35.1948 197.715C35.1948 197.673 35.1948 197.559 34.9537 197.46H34.8686V197.481Z" fill="#7E58FF"/>
<path d="M32.1735 198.454L25.3798 196.323C25.2553 196.285 25.1216 196.29 25.0005 196.338C24.8794 196.386 24.7781 196.473 24.7131 196.586L21.7772 201.742C21.7137 201.85 21.6724 201.97 21.6555 202.095C21.6386 202.219 21.6465 202.346 21.6789 202.468C21.7112 202.589 21.7672 202.703 21.8437 202.803C21.9202 202.902 22.0157 202.986 22.1247 203.048C22.1826 203.084 22.2445 203.113 22.3091 203.134C24.7699 203.844 26.9896 204.384 30.039 205.335C33.6415 206.443 32.592 206.592 36.8044 207.963C39.3432 208.787 40.7048 206.024 39.6411 205.548C34.8826 203.418 34.8329 201.742 33.4713 199.377C33.1633 198.923 32.7027 198.596 32.1735 198.454Z" fill="#263238"/>
<path opacity="0.2" d="M27.0251 192.119L32.6985 194.988L34.833 190.117L28.7201 187.091L27.0251 192.119Z" fill="#263238"/>
<path d="M52.704 90.1406C52.704 90.1406 45.0805 95.971 46.7115 114.236C46.8675 115.926 47.4207 117.695 47.4207 119.626C47.4207 120.912 47.0661 121.814 46.6477 124.704C46.0378 128.908 44.9173 144.589 43.733 146.627C42.5487 148.665 42.0665 148.303 38.7689 153.927C35.2231 159.978 30.6135 170.587 27.0464 188.569C29.4282 190.252 32.1487 191.394 35.0174 191.913C35.0174 191.913 54.4982 161.149 58.6397 149.695C62.3486 139.447 66.7667 106.744 66.7667 106.744L67.1213 92.541L52.704 90.1406Z" fill="#7E58FF"/>
<path opacity="0.1" d="M61.0439 114.236H55.5266C55.5266 114.236 53.7112 131.621 59.7107 146.122C60.3348 143.793 60.9659 141.002 61.5829 137.984L63.9728 122.673C63.6324 120.088 63.37 118.113 63.3274 117.985C63.2069 117.581 61.0439 114.236 61.0439 114.236Z" fill="black"/>
<path d="M60.136 191.31L60.1714 202.452L66.4476 202.033L67.412 191.31H60.136Z" fill="#B97964"/>
<path d="M67.171 201.841C67.1397 201.837 67.1105 201.823 67.0875 201.802C67.0646 201.78 67.0491 201.752 67.0433 201.72C67.036 201.689 67.039 201.656 67.0518 201.627C67.0646 201.598 67.0865 201.573 67.1143 201.557C67.2135 201.5 69.4332 200.137 70.5324 200.378C70.7373 200.424 70.9172 200.546 71.0359 200.719C71.1093 200.815 71.1519 200.931 71.1582 201.051C71.1646 201.171 71.1343 201.291 71.0714 201.394C70.5258 201.803 69.8511 202.003 69.1708 201.955C68.5022 201.977 67.8328 201.939 67.171 201.841ZM67.6674 201.621C68.8801 201.728 70.5041 201.657 70.809 201.223C70.8516 201.167 70.887 201.074 70.7665 200.882C70.7335 200.827 70.6883 200.779 70.6342 200.743C70.5802 200.708 70.5187 200.685 70.4544 200.677C70.358 200.662 70.2601 200.662 70.1637 200.677C69.278 200.825 68.43 201.146 67.6674 201.621Z" fill="#7E58FF"/>
<path d="M67.0859 201.841C67.0622 201.826 67.0426 201.805 67.029 201.78C67.0154 201.755 67.0081 201.728 67.0079 201.699C67.0079 201.621 67.1285 199.853 67.9299 199.143C68.0441 199.038 68.1784 198.957 68.3247 198.906C68.471 198.855 68.6262 198.834 68.7808 198.845C69.2063 198.845 69.3482 199.086 69.3695 199.264C69.5326 199.974 68.022 201.458 67.242 201.834C67.2213 201.841 67.1988 201.841 67.1781 201.834C67.1492 201.847 67.1165 201.85 67.0859 201.841ZM68.6887 199.143C68.4935 199.147 68.3067 199.223 68.1639 199.356C67.6962 199.935 67.4187 200.644 67.3696 201.387C68.1568 200.883 69.1425 199.739 69.0858 199.299C69.0858 199.256 69.0503 199.143 68.7738 199.129H68.6887V199.143Z" fill="#7E58FF"/>
<path d="M66.476 200.954L59.3843 201.209C59.2549 201.215 59.1312 201.264 59.0333 201.349C58.9355 201.435 58.8692 201.55 58.8454 201.678L57.7674 207.515C57.7196 207.763 57.7719 208.02 57.9128 208.229C58.0538 208.438 58.2719 208.582 58.5191 208.63C58.5875 208.637 58.6564 208.637 58.7248 208.63C61.2849 208.488 63.5542 208.268 66.7455 208.162C70.5111 208.027 69.5821 208.51 74.0002 208.417C76.6738 208.353 77.0496 205.3 75.915 205.193C70.7168 204.724 70.1211 203.176 68.0574 201.394C67.603 201.056 67.0394 200.899 66.476 200.954Z" fill="#263238"/>
<path opacity="0.2" d="M60.1573 197.076L66.9085 196.934L67.412 191.31H60.136L60.1573 197.076Z" fill="#263238"/>
<path d="M56.952 88.1167C56.952 88.1167 49.3427 98.2081 54.9805 117.943L61.363 146.769C61.363 146.769 55.3067 159.878 58.5264 194.463C61.647 194.902 64.8181 194.83 67.9157 194.25C67.9157 194.25 75.0074 157.726 76.0782 145.391C77.2625 131.799 76.5533 90.8295 76.5533 90.8295L56.952 88.1167Z" fill="#7E58FF"/>
<path d="M61.5473 55.4063C61.5473 55.4063 60.3701 50.3642 67.9298 52.5657C75.4895 54.7672 74.8513 59.0778 74.8513 59.0778L61.5473 55.4063Z" fill="#263238"/>
<path opacity="0.4" d="M61.5473 55.4063C61.5473 55.4063 60.3701 50.3642 67.9298 52.5657C75.4895 54.7672 74.8513 59.0778 74.8513 59.0778L61.5473 55.4063Z" fill="black"/>
<path d="M80.2977 68.0193C80.2977 69.7876 79.5885 72.3442 78.8793 75.2061C78.5531 76.5625 78.2553 77.9758 78.0567 79.4103C76.9859 87.222 76.6384 95.4528 76.6384 95.4528C72.4651 96.3643 68.1491 96.4054 63.9593 95.5733C59.7695 94.7413 55.7957 93.054 52.2856 90.6166C52.2856 90.6166 55.257 88.0955 54.6472 70.6327C54.3706 62.7642 51.5339 53.4114 64.5187 54.8814C75.4824 56.1242 79.1701 59.5329 80.0565 64.8662C80.0565 64.9301 80.0565 65.0012 80.0565 65.0722L80.1204 65.5693C80.2276 66.3818 80.2868 67.1999 80.2977 68.0193Z" fill="#263238"/>
<path opacity="0.4" d="M80.2975 68.019C80.2975 69.7873 79.5884 72.3439 78.8792 75.2058C75.9149 71.655 72.9435 64.944 72.9435 64.944L75.3901 61.3364L79.7018 63.3462C79.8508 63.8451 79.9692 64.3526 80.0564 64.8659C80.0564 64.9298 80.0564 65.0009 80.0564 65.0719L80.1202 65.569C80.2275 66.3815 80.2867 67.1996 80.2975 68.019Z" fill="black"/>
<path d="M84.8149 64.9368C84.8149 64.9368 89.0699 69.141 90.7506 70.8312L105.459 66.414C105.555 65.6525 105.877 64.9373 106.382 64.3602C106.888 63.7832 107.554 63.3706 108.295 63.1756L109.331 62.9058L111.543 62.295C111.955 62.1833 112.39 62.1816 112.803 62.29C113.216 62.3984 113.593 62.6131 113.898 62.9129C114.254 63.2647 114.493 63.7184 114.582 64.2117C114.671 64.7051 114.606 65.2139 114.394 65.6683C113.956 66.6122 113.282 67.4266 112.437 68.0326C111.592 68.6386 110.605 69.0155 109.572 69.1268L107.487 69.3469C107.487 69.3469 94.3603 76.5266 90.1336 76.1289C85.907 75.7312 80.3542 70.6394 80.3542 70.6394L84.8149 64.9368Z" fill="#B97964"/>
<path d="M74.2486 57.2886C77.8795 57.8212 81.5884 60.7115 87.3468 65.8105C85.9827 68.6625 83.8789 71.0955 81.2551 72.8553C81.2551 72.8553 77.9007 71.3852 73.9011 66.2934C69.0646 60.1292 72.0501 56.9619 74.2486 57.2886Z" fill="#263238"/>
</svg>
