<svg width="201" height="222" viewBox="0 0 201 222" fill="none" xmlns="http://www.w3.org/2000/svg">
<path d="M1 215.514L199.998 215.514" stroke="#263238" stroke-linecap="round" stroke-linejoin="round"/>
<path d="M44.8477 106.634L62.1775 95.1033L84.3515 31.316L77.0227 2.59785C76.7669 1.57444 79.7803 0.693164 80.7525 1.10253L109.67 13.9805V215.701H57.6745V124.219L44.8477 106.634Z" fill="#263238" stroke="#263238" stroke-linecap="round" stroke-linejoin="round"/>
<path d="M46.8434 106.634L64.1732 95.1032L86.3472 31.316L79.0127 2.59779C78.9553 2.37029 78.9617 2.13133 79.0315 1.90728C79.1012 1.68323 79.2315 1.4828 79.4079 1.32811C79.5844 1.17343 79.8002 1.0705 80.0314 1.03068C80.2627 0.99086 80.5004 1.0157 80.7184 1.10247L111.631 13.9805V215.701H59.6702V124.219L46.8434 106.634Z" fill="#7E58FF" stroke="#263238" stroke-linecap="round" stroke-linejoin="round"/>
<path d="M88.6783 29.7808L97.9175 31.7025H152.63L153.136 29.7808H88.6783Z" fill="#9C9C9C" stroke="#263238" stroke-linecap="round" stroke-linejoin="round"/>
<path d="M66.4702 95.4614L97.9175 31.7026H155.564L130.445 95.1032L66.4702 95.4614Z" fill="#263238" stroke="#263238" stroke-linecap="round" stroke-linejoin="round"/>
<path d="M77.796 84.9543L100.573 38.7642H142.328L124.134 84.6871L77.796 84.9543Z" fill="#787878"/>
<path d="M85.5285 69.2734L77.796 84.9544L124.134 84.6872L130.24 69.2734H85.5285Z" fill="#595959"/>
<path d="M137.592 50.7267L142.328 38.7642H100.573L94.6767 50.7267H137.592Z" fill="#969696"/>
<path d="M120.546 59.5679H106.742C106.245 59.5679 105.843 59.9701 105.843 60.4662V60.7505C105.843 61.2466 106.245 61.6488 106.742 61.6488H120.546C121.042 61.6488 121.445 61.2466 121.445 60.7505V60.4662C121.445 59.9701 121.042 59.5679 120.546 59.5679Z" fill="#263238"/>
<path d="M103.245 46.9914L97.1044 59.4998C96.9855 59.7509 96.7745 59.9466 96.515 60.0461C96.2556 60.1456 95.9678 60.1414 95.7115 60.0342C95.5895 59.9741 95.481 59.89 95.3923 59.787C95.3036 59.684 95.2365 59.5642 95.1952 59.4348C95.1538 59.3053 95.1389 59.1688 95.1514 59.0334C95.1639 58.8981 95.2036 58.7666 95.268 58.6469L101.408 46.1385C101.527 45.8874 101.738 45.6917 101.998 45.5922C102.257 45.4927 102.545 45.4969 102.801 45.6041C102.923 45.6648 103.031 45.7492 103.119 45.8523C103.207 45.9554 103.274 46.075 103.315 46.2043C103.357 46.3336 103.372 46.4698 103.36 46.605C103.348 46.7401 103.309 46.8715 103.245 46.9914Z" fill="#263238"/>
<path d="M125.777 39.3669L115.031 60.074C114.915 60.3257 114.705 60.5221 114.446 60.6219C114.187 60.7216 113.899 60.7168 113.644 60.6084C113.523 60.5477 113.415 60.4633 113.326 60.3602C113.238 60.2571 113.171 60.1374 113.13 60.0082C113.089 59.8789 113.074 59.7427 113.086 59.6075C113.098 59.4724 113.137 59.341 113.201 59.2211L123.941 38.514C124.06 38.2629 124.271 38.0672 124.53 37.9677C124.79 37.8682 125.077 37.8724 125.334 37.9796C125.456 38.0397 125.564 38.1238 125.653 38.2268C125.742 38.3298 125.809 38.4496 125.85 38.579C125.891 38.7085 125.906 38.845 125.894 38.9804C125.881 39.1157 125.842 39.2472 125.777 39.3669Z" fill="#263238"/>
<path d="M129.808 59.6929L124.691 72.622C124.594 72.8815 124.4 73.0933 124.149 73.213C123.899 73.3327 123.613 73.3512 123.349 73.2645C123.222 73.2152 123.106 73.1408 123.008 73.0458C122.91 72.9507 122.833 72.8369 122.78 72.7112C122.727 72.5855 122.699 72.4504 122.7 72.314C122.7 72.1776 122.727 72.0426 122.781 71.917L127.898 58.9879C127.995 58.7284 128.19 58.5166 128.44 58.3969C128.69 58.2771 128.976 58.2587 129.24 58.3454C129.367 58.3947 129.483 58.4691 129.581 58.5641C129.679 58.6592 129.756 58.7729 129.81 58.8987C129.863 59.0244 129.89 59.1595 129.89 59.2959C129.889 59.4323 129.862 59.5673 129.808 59.6929Z" fill="#263238"/>
<path d="M111.881 55.0591H98.0767C97.5806 55.0591 97.1784 55.4613 97.1784 55.9574V56.2417C97.1784 56.7378 97.5806 57.14 98.0767 57.14H111.881C112.378 57.14 112.78 56.7378 112.78 56.2417V55.9574C112.78 55.4613 112.378 55.0591 111.881 55.0591Z" fill="#263238"/>
<path d="M126.266 64.9409H112.461C111.965 64.9409 111.563 65.3431 111.563 65.8393V66.1235C111.563 66.6197 111.965 67.0219 112.461 67.0219H126.266C126.762 67.0219 127.164 66.6197 127.164 66.1235V65.8393C127.164 65.3431 126.762 64.9409 126.266 64.9409Z" fill="#263238"/>
<path d="M112.126 56.2534C112.127 56.0167 112.058 55.7851 111.927 55.5879C111.796 55.3907 111.61 55.2368 111.391 55.1457C111.173 55.0546 110.933 55.0305 110.7 55.0764C110.468 55.1223 110.255 55.2361 110.088 55.4034C109.92 55.5707 109.807 55.784 109.761 56.0162C109.715 56.2483 109.739 56.4888 109.83 56.7072C109.921 56.9256 110.075 57.1121 110.272 57.2428C110.469 57.3736 110.701 57.4428 110.938 57.4417C111.252 57.4402 111.554 57.3145 111.776 57.092C111.999 56.8694 112.124 56.5681 112.126 56.2534Z" fill="#7E58FF"/>
<path d="M102.688 87.2858C102.688 87.0496 102.618 86.8188 102.487 86.6224C102.355 86.4261 102.169 86.273 101.951 86.1827C101.733 86.0923 101.492 86.0687 101.261 86.1147C101.029 86.1608 100.816 86.2745 100.649 86.4415C100.483 86.6085 100.369 86.8212 100.323 87.0528C100.277 87.2845 100.3 87.5245 100.391 87.7427C100.481 87.9609 100.634 88.1473 100.83 88.2785C101.027 88.4097 101.258 88.4798 101.494 88.4798C101.81 88.4798 102.114 88.354 102.338 88.1301C102.562 87.9061 102.688 87.6024 102.688 87.2858Z" fill="#7E58FF"/>
<path d="M109.943 87.2858C109.943 87.0496 109.873 86.8188 109.741 86.6224C109.61 86.4261 109.424 86.273 109.206 86.1827C108.987 86.0923 108.747 86.0687 108.516 86.1147C108.284 86.1608 108.071 86.2745 107.904 86.4415C107.737 86.6085 107.624 86.8212 107.578 87.0528C107.532 87.2845 107.555 87.5245 107.646 87.7427C107.736 87.9609 107.889 88.1473 108.085 88.2785C108.282 88.4097 108.513 88.4798 108.749 88.4798C109.065 88.4798 109.369 88.354 109.593 88.1301C109.817 87.9061 109.943 87.6024 109.943 87.2858Z" fill="#7E58FF"/>
<path d="M117.198 87.2858C117.197 87.0494 117.127 86.8183 116.996 86.6218C116.864 86.4254 116.678 86.2723 116.459 86.1821C116.241 86.0919 116 86.0686 115.768 86.1152C115.537 86.1617 115.324 86.276 115.157 86.4435C114.99 86.6111 114.877 86.8243 114.832 87.0563C114.786 87.2883 114.811 87.5286 114.902 87.7466C114.993 87.9647 115.147 88.1508 115.344 88.2813C115.541 88.4118 115.773 88.4809 116.009 88.4798C116.325 88.4783 116.627 88.3518 116.85 88.128C117.072 87.9043 117.198 87.6014 117.198 87.2858Z" fill="#7E58FF"/>
<path d="M128.529 62.86C128.529 62.6239 128.459 62.393 128.328 62.1967C128.197 62.0003 128.01 61.8473 127.792 61.7569C127.574 61.6665 127.334 61.6429 127.102 61.689C126.87 61.735 126.658 61.8487 126.491 62.0157C126.324 62.1827 126.21 62.3955 126.164 62.6271C126.118 62.8587 126.142 63.0987 126.232 63.3169C126.322 63.5351 126.475 63.7216 126.672 63.8528C126.868 63.984 127.099 64.054 127.335 64.054C127.652 64.054 127.955 63.9282 128.179 63.7043C128.403 63.4804 128.529 63.1767 128.529 62.86Z" fill="white"/>
<path d="M90.9469 77.9779C90.5887 77.4833 89.7813 77.4833 89.1389 77.9779L88.7181 78.3077L88.485 77.9779C88.3927 77.8573 88.2727 77.7607 88.1351 77.6963C87.9975 77.632 87.8465 77.6018 87.6947 77.6083C87.3243 77.6177 86.9671 77.7475 86.677 77.9779C86.0345 78.4783 85.7957 79.2913 86.1482 79.7916L86.3813 80.1157L87.6606 81.9238L89.9974 80.1157L90.4181 79.7916C90.7188 79.5634 90.9413 79.2476 91.0549 78.8876C91.1067 78.7377 91.1239 78.5779 91.1051 78.4204C91.0864 78.2629 91.0323 78.1116 90.9469 77.9779Z" fill="#7E58FF"/>
<path d="M97.0135 77.9779C96.6553 77.4833 95.8479 77.4833 95.2054 77.9779L94.7847 78.3077L94.5516 77.9779C94.4593 77.8573 94.3393 77.7607 94.2017 77.6963C94.0641 77.632 93.913 77.6018 93.7613 77.6083C93.3909 77.6177 93.0336 77.7475 92.7435 77.9779C92.1011 78.4783 91.8623 79.2913 92.2148 79.7916L92.4479 80.1157L93.7272 81.9238L96.064 80.1157L96.4847 79.7916C96.7853 79.5634 97.0078 79.2476 97.1215 78.8876C97.1733 78.7377 97.1904 78.5779 97.1717 78.4204C97.153 78.2629 97.0989 78.1116 97.0135 77.9779Z" fill="#7E58FF"/>
<path d="M130.058 35.7793H135.892" stroke="white" stroke-miterlimit="10"/>
<path d="M104.513 35.978H109.744" stroke="white" stroke-miterlimit="10"/>
<path d="M66.4702 95.4612L130.445 95.103L113.11 106.634L48.93 106.997L66.4702 95.4612Z" fill="#7E58FF" stroke="#263238" stroke-linecap="round" stroke-linejoin="round"/>
<path d="M110.881 99.7425C110.881 100.493 109.658 101.101 108.157 101.101C106.656 101.101 105.434 100.493 105.434 99.7425C105.434 98.992 106.651 98.3779 108.157 98.3779C109.664 98.3779 110.881 98.992 110.881 99.7425Z" fill="#7E58FF" stroke="#263238" stroke-linecap="round" stroke-linejoin="round"/>
<path d="M101.096 101.283C101.096 102.034 99.879 102.642 98.3724 102.642C96.8657 102.642 95.6489 102.034 95.6489 101.283C95.6489 100.533 96.8713 99.9189 98.3724 99.9189C99.8734 99.9189 101.096 100.527 101.096 101.283Z" fill="#7E58FF" stroke="#263238" stroke-linecap="round" stroke-linejoin="round"/>
<path d="M119.352 98.3896C119.352 99.1458 118.13 99.7542 116.629 99.7542C115.128 99.7542 113.906 99.1458 113.906 98.3896C113.906 97.6334 115.122 97.0308 116.629 97.0308C118.136 97.0308 119.352 97.6278 119.352 98.3896Z" fill="#263238" stroke="#263238" stroke-linecap="round" stroke-linejoin="round"/>
<path d="M123.946 124.219H59.4598V215.735H123.946V124.219Z" fill="#263238" stroke="#263238" stroke-linecap="round" stroke-linejoin="round"/>
<path d="M103.421 138.417H79.9736V171.695H103.421V138.417Z" fill="#595959"/>
<path d="M111.114 106.634H46.633L59.4541 124.219H123.941L111.114 106.634Z" fill="#263238" stroke="#263238" stroke-linecap="round" stroke-linejoin="round"/>
<path d="M81.4348 3.70654H144.807L153.136 29.7809H88.6783L81.4348 3.70654Z" fill="#7E58FF" stroke="#263238" stroke-linecap="round" stroke-linejoin="round"/>
<path d="M98.6111 10.8306H96.0185L93.784 22.3156H95.9844L96.4279 19.7911H98.2245L98.6339 22.3156H100.806L98.6111 10.8306ZM96.6382 18.3584L97.3205 13.7189L98.0142 18.3584H96.6382Z" fill="white"/>
<path d="M107.191 16.721C107.527 16.5843 107.822 16.3606 108.044 16.0729C108.255 15.7937 108.402 15.4715 108.476 15.1291C108.56 14.7137 108.6 14.2906 108.595 13.8669C108.595 13.7361 108.595 13.611 108.595 13.4916C108.579 13.2007 108.529 12.9126 108.447 12.6331C108.386 12.4162 108.29 12.2107 108.163 12.0247C107.862 11.5739 107.411 11.2453 106.889 11.0979C106.236 10.9058 105.557 10.8156 104.877 10.8307H101.903V22.3157H104.24V17.1134H105.047L106.361 22.3214H108.76L107.191 16.721ZM106.275 14.9812C106.196 15.2205 106.032 15.4227 105.815 15.5498C105.536 15.6871 105.227 15.7498 104.917 15.7317H104.24V12.4227H105.047C105.248 12.3964 105.453 12.4211 105.641 12.4947C105.83 12.5682 105.997 12.6882 106.128 12.8434C106.35 13.2066 106.453 13.6299 106.423 14.0545C106.428 14.3696 106.378 14.6832 106.275 14.9812Z" fill="white"/>
<path d="M116.492 14.9758V14.0092C116.503 13.4145 116.405 12.8229 116.203 12.2637C116.016 11.7786 115.664 11.3755 115.208 11.1266C114.612 10.8187 113.944 10.6754 113.274 10.7115C112.57 10.6785 111.87 10.8398 111.25 11.1777C110.762 11.4893 110.394 11.9588 110.21 12.5082C110.122 12.7693 110.057 13.0375 110.017 13.3099C109.946 13.7211 109.912 14.1378 109.914 14.555V18.6828C109.903 19.3597 110.003 20.0338 110.21 20.6785C110.394 21.2295 110.761 21.7009 111.25 22.0146C111.381 22.0982 111.52 22.1686 111.665 22.2249C112.178 22.4248 112.725 22.5195 113.274 22.5035C113.956 22.541 114.634 22.3853 115.23 22.0544C115.685 21.7687 116.029 21.338 116.208 20.832C116.409 20.2607 116.505 19.6578 116.492 19.0524V18.0858H114.218V19.2229C114.216 19.4834 114.199 19.7434 114.167 20.0019C114.143 20.2112 114.058 20.4088 113.923 20.5704C113.836 20.651 113.734 20.712 113.622 20.7493C113.51 20.7866 113.392 20.7993 113.274 20.7865C113.049 20.7992 112.825 20.7329 112.643 20.5989C112.485 20.4471 112.381 20.2472 112.348 20.0303C112.292 19.7514 112.265 19.4675 112.268 19.1831V13.9808C112.268 13.7125 112.287 13.4447 112.325 13.1791C112.355 12.966 112.451 12.7675 112.598 12.6105C112.688 12.5272 112.795 12.4639 112.912 12.4247C113.028 12.3856 113.152 12.3714 113.274 12.3831C113.394 12.3698 113.515 12.3827 113.629 12.421C113.743 12.4593 113.847 12.522 113.934 12.6048C114.071 12.7645 114.155 12.9635 114.173 13.1734C114.173 13.4065 114.218 13.6567 114.218 13.9182V14.9985L116.492 14.9758Z" fill="white"/>
<path d="M122.184 10.8306H119.585L117.362 22.3156H119.557L119.995 19.7911H121.814L122.224 22.3156H124.378L122.184 10.8306ZM120.211 18.3584L120.893 13.7189L121.587 18.3584H120.211Z" fill="white"/>
<path d="M131.713 12.3885C131.499 11.8649 131.092 11.4436 130.576 11.2116C129.852 10.9304 129.077 10.8026 128.302 10.8364H125.499V22.3214H128.341C129.105 22.356 129.868 22.224 130.576 21.9347C131.095 21.6875 131.501 21.2528 131.713 20.718C131.962 20.0475 132.078 19.3349 132.054 18.62V14.4354C132.077 13.7372 131.961 13.0414 131.713 12.3885ZM129.655 18.8702C129.662 19.2051 129.64 19.5401 129.587 19.8709C129.554 20.1125 129.43 20.3323 129.24 20.4849C128.959 20.6454 128.635 20.7168 128.313 20.6896H127.79V12.4795H128.273C128.583 12.4536 128.893 12.5125 129.171 12.6501C129.36 12.7707 129.492 12.9608 129.541 13.1788C129.61 13.4943 129.64 13.8169 129.632 14.1397L129.655 18.8702Z" fill="white"/>
<path d="M135.943 20.735V17.1303H138.024V15.5042H135.972V12.4453H138.593V10.8306H133.584V22.3156H138.621V20.735H135.943Z" fill="white"/>
<path d="M111.114 106.634L128.449 95.1033L150.623 31.316L143.295 2.59785C143.033 1.57444 146.046 0.693164 147.019 1.10253L173.173 12.8377C173.988 13.1769 174.684 13.75 175.174 14.4847C175.664 15.2193 175.925 16.0826 175.925 16.9655V215.701H123.941V124.219L111.114 106.634Z" fill="#263238" stroke="#263238" stroke-linecap="round" stroke-linejoin="round"/>
<path d="M177.937 16.9654V215.701H125.936V124.219L113.11 106.639L130.445 95.1032L130.616 94.6143L131.957 90.748L152.5 31.6969L152.63 31.316L152.238 29.7809L148.65 15.7316V15.6975L145.296 2.62054C145.25 2.44001 145.244 2.25157 145.278 2.06841C145.312 1.88526 145.386 1.7118 145.494 1.56017C145.603 1.40854 145.743 1.28241 145.905 1.19058C146.067 1.09876 146.247 1.04346 146.433 1.02856C146.524 1.01457 146.616 1.01457 146.706 1.02856C146.757 1.03235 146.807 1.04385 146.854 1.06267C146.903 1.07272 146.95 1.08797 146.996 1.10816L175.157 12.8433C175.977 13.1778 176.678 13.7481 177.173 14.482C177.668 15.2159 177.934 16.0802 177.937 16.9654Z" fill="#7E58FF"/>
<path d="M154.478 108.362C154.16 108.553 153.795 108.651 153.424 108.645C153.054 108.639 152.692 108.529 152.38 108.328L133.197 95.865C132.757 95.58 132.449 95.1321 132.34 94.6198C132.23 94.1074 132.329 93.5727 132.614 93.1331C132.899 92.6935 133.347 92.3852 133.859 92.2759C134.372 92.1666 134.907 92.2653 135.346 92.5503L154.512 105.013C154.73 105.155 154.917 105.339 155.063 105.553C155.209 105.768 155.311 106.009 155.364 106.263C155.417 106.517 155.419 106.779 155.37 107.034C155.322 107.288 155.223 107.531 155.081 107.748C154.926 107.993 154.72 108.202 154.478 108.362Z" fill="#263238"/>
<path d="M178.005 72.3778L177.698 69.0062C177.641 68.4928 177.385 68.0223 176.985 67.6956C176.585 67.3689 176.073 67.2122 175.558 67.2591C175.044 67.306 174.569 67.5528 174.234 67.9464C173.9 68.3401 173.733 68.8492 173.77 69.3644L175.902 92.8234C175.948 93.3374 176.195 93.8127 176.588 94.1466C176.982 94.4806 177.491 94.6465 178.005 94.6086V72.3778Z" fill="#263238"/>
<path d="M178.005 86.6486C174.158 86.3133 170.282 86.7818 166.625 88.0243C162.968 89.2668 159.609 91.2561 156.762 93.866C153.914 96.476 151.641 99.6494 150.086 103.185C148.53 106.72 147.727 110.541 147.727 114.403C147.727 118.266 148.53 122.086 150.086 125.621C151.641 129.157 153.914 132.33 156.762 134.94C159.609 137.55 162.968 139.539 166.625 140.782C170.282 142.024 174.158 142.493 178.005 142.158V86.6486Z" fill="white"/>
<path d="M178.005 97.8667L155.604 111.387C155.092 111.696 154.645 112.103 154.29 112.585C153.935 113.067 153.679 113.614 153.536 114.195C153.393 114.776 153.366 115.379 153.456 115.97C153.547 116.562 153.753 117.13 154.063 117.641L159.527 126.704C159.836 127.217 160.243 127.663 160.725 128.018C161.207 128.373 161.754 128.629 162.335 128.772C162.915 128.916 163.519 128.943 164.11 128.852C164.702 128.762 165.27 128.555 165.781 128.245L178.017 120.854L178.005 97.8667Z" fill="#263238"/>
<path d="M178.005 65.6175C177.368 65.2124 176.635 64.985 175.88 64.9586C175.126 64.9323 174.378 65.1081 173.714 65.4678C173.05 65.8276 172.495 66.3581 172.105 67.0047C171.715 67.6512 171.505 68.3901 171.497 69.145C171.489 69.8999 171.682 70.6433 172.058 71.2983C172.433 71.9533 172.977 72.496 173.632 72.8703C174.288 73.2446 175.032 73.4369 175.787 73.4273C176.541 73.4177 177.28 73.2065 177.926 72.8156L178.005 72.7587V65.6175Z" fill="white"/>
<path d="M138.917 94.87C138.787 95.4189 138.549 95.9364 138.218 96.3923C137.886 96.8482 137.466 97.2334 136.984 97.5252C136.759 97.6594 136.523 97.7735 136.279 97.8663C135.351 98.2126 134.332 98.2236 133.398 97.8976C132.463 97.5715 131.672 96.9289 131.161 96.0811C130.879 95.6333 130.686 95.1352 130.593 94.6142L131.935 90.7479C132.134 90.5668 132.351 90.4067 132.583 90.2703C133.297 89.8395 134.122 89.6289 134.955 89.6651C135.788 89.7013 136.592 89.9826 137.266 90.4738C137.94 90.965 138.454 91.6442 138.744 92.4262C139.033 93.2083 139.086 94.0584 138.894 94.87H138.917Z" fill="white"/>
<path d="M167.857 115.299C168.229 115.914 168.41 116.625 168.378 117.343C168.346 118.061 168.102 118.754 167.676 119.333C167.25 119.912 166.662 120.352 165.987 120.596C165.311 120.841 164.578 120.88 163.88 120.708C163.182 120.536 162.551 120.161 162.066 119.631C161.581 119.1 161.265 118.438 161.157 117.727C161.049 117.016 161.154 116.29 161.459 115.639C161.764 114.988 162.255 114.442 162.87 114.071C163.278 113.824 163.731 113.659 164.202 113.587C164.674 113.515 165.155 113.537 165.618 113.651C166.081 113.765 166.517 113.969 166.902 114.252C167.286 114.535 167.61 114.891 167.857 115.299Z" fill="white"/>
<path d="M178.005 126.852L172.439 130.229C172.153 130.427 171.952 130.726 171.879 131.066C171.806 131.406 171.865 131.762 172.045 132.06C172.225 132.357 172.513 132.575 172.848 132.668C173.183 132.761 173.541 132.723 173.849 132.56L178.005 130.053V126.852Z" fill="#263238"/>
<path d="M143.92 161.113C143.745 161.225 143.542 161.284 143.334 161.284C143.127 161.284 142.924 161.225 142.749 161.113L132.031 154.154C131.91 154.075 131.805 153.973 131.722 153.854C131.64 153.735 131.582 153.6 131.552 153.459C131.521 153.317 131.519 153.171 131.545 153.028C131.572 152.885 131.626 152.749 131.704 152.628C131.783 152.506 131.885 152.401 132.005 152.319C132.124 152.236 132.258 152.178 132.4 152.148C132.542 152.118 132.688 152.116 132.831 152.142C132.973 152.168 133.109 152.222 133.231 152.301L143.948 159.226C144.188 159.391 144.355 159.642 144.415 159.926C144.475 160.21 144.424 160.507 144.273 160.755C144.185 160.901 144.064 161.024 143.92 161.113Z" fill="#263238"/>
<path d="M157.554 153.279C157.412 153.368 157.25 153.421 157.082 153.432C156.939 153.446 156.794 153.43 156.656 153.387C156.518 153.345 156.39 153.275 156.279 153.183C156.168 153.09 156.076 152.977 156.009 152.849C155.942 152.721 155.901 152.581 155.888 152.437L154.694 139.326C154.674 139.178 154.684 139.028 154.723 138.884C154.763 138.74 154.831 138.606 154.924 138.489C155.017 138.373 155.132 138.276 155.263 138.205C155.395 138.134 155.539 138.091 155.687 138.077C155.836 138.064 155.986 138.081 156.128 138.127C156.269 138.173 156.4 138.247 156.513 138.345C156.625 138.443 156.716 138.563 156.781 138.698C156.846 138.832 156.882 138.978 156.889 139.127L158.083 152.204C158.108 152.415 158.072 152.629 157.978 152.82C157.884 153.011 157.737 153.17 157.554 153.279Z" fill="#263238"/>
<path d="M171.092 167.403C172.709 158.965 167.18 150.814 158.742 149.197C150.305 147.58 142.153 153.109 140.536 161.546C138.919 169.984 144.448 178.135 152.886 179.752C161.324 181.37 169.475 175.841 171.092 167.403Z" fill="white"/>
<path d="M157.684 154.882L145.728 162.097C143.873 163.216 143.277 165.628 144.396 167.483L146.021 170.175C147.14 172.03 149.552 172.626 151.407 171.506L163.362 164.292C165.217 163.172 165.814 160.761 164.694 158.906L163.07 156.214C161.95 154.359 159.539 153.762 157.684 154.882Z" fill="#263238"/>
<path d="M157.816 138.007C157.573 137.606 157.217 137.285 156.793 137.085C156.368 136.886 155.894 136.817 155.43 136.888C154.966 136.958 154.534 137.164 154.187 137.481C153.841 137.797 153.596 138.209 153.483 138.664C153.371 139.12 153.397 139.598 153.556 140.039C153.716 140.481 154.003 140.864 154.381 141.142C154.759 141.42 155.211 141.579 155.68 141.6C156.148 141.621 156.613 141.503 157.014 141.26C157.281 141.099 157.513 140.887 157.697 140.637C157.882 140.386 158.015 140.102 158.09 139.8C158.164 139.498 158.178 139.184 158.131 138.876C158.084 138.569 157.977 138.273 157.816 138.007Z" fill="white"/>
<path d="M134.948 151.835C134.706 151.435 134.351 151.115 133.928 150.917C133.505 150.719 133.032 150.65 132.57 150.72C132.108 150.79 131.677 150.995 131.331 151.31C130.986 151.625 130.741 152.035 130.629 152.489C130.516 152.942 130.54 153.419 130.698 153.859C130.857 154.299 131.142 154.682 131.517 154.96C131.893 155.238 132.343 155.398 132.81 155.421C133.277 155.444 133.74 155.327 134.141 155.087C134.408 154.927 134.64 154.716 134.826 154.465C135.011 154.215 135.145 153.931 135.22 153.628C135.295 153.326 135.309 153.012 135.263 152.705C135.216 152.397 135.109 152.101 134.948 151.835Z" fill="white"/>
<path d="M161.381 158.965C161.588 159.308 161.689 159.706 161.671 160.107C161.653 160.508 161.516 160.894 161.278 161.218C161.04 161.541 160.711 161.787 160.334 161.923C159.956 162.06 159.547 162.081 159.157 161.985C158.767 161.889 158.415 161.679 158.144 161.382C157.873 161.086 157.697 160.716 157.637 160.319C157.576 159.922 157.635 159.516 157.806 159.152C157.976 158.789 158.251 158.484 158.595 158.277C159.055 157.999 159.608 157.915 160.13 158.044C160.652 158.173 161.102 158.504 161.381 158.965Z" fill="white"/>
<path d="M151.391 164.991C151.599 165.335 151.7 165.732 151.681 166.133C151.663 166.534 151.526 166.921 151.288 167.244C151.05 167.568 150.722 167.813 150.344 167.95C149.967 168.086 149.557 168.108 149.167 168.012C148.777 167.915 148.425 167.706 148.154 167.409C147.884 167.112 147.707 166.742 147.647 166.345C147.587 165.948 147.646 165.542 147.816 165.179C147.987 164.815 148.261 164.511 148.605 164.303C149.066 164.025 149.618 163.941 150.14 164.07C150.663 164.199 151.113 164.531 151.391 164.991Z" fill="white"/>
<path d="M166.141 166.936L155.354 173.458C155.041 173.648 154.94 174.055 155.13 174.368L155.236 174.545C155.426 174.858 155.833 174.958 156.146 174.769L166.933 168.247C167.246 168.057 167.347 167.65 167.157 167.336L167.051 167.16C166.861 166.847 166.454 166.747 166.141 166.936Z" fill="#263238"/>
<path d="M113.11 106.634L130.445 95.1032L152.619 31.316L145.29 2.59779C145.233 2.37029 145.239 2.13133 145.309 1.90728C145.379 1.68323 145.509 1.4828 145.685 1.32811C145.862 1.17343 146.078 1.0705 146.309 1.03068C146.54 0.99086 146.778 1.0157 146.996 1.10247L175.163 12.8376C175.978 13.1769 176.674 13.75 177.164 14.4846C177.654 15.2192 177.915 16.0825 177.915 16.9654V215.701H125.936V124.219L113.11 106.634Z" stroke="#263238" stroke-linecap="round" stroke-linejoin="round"/>
<path d="M177.937 26.4375V45.1148L175.942 47.5483L157.475 70.0578C157.46 70.0682 157.449 70.0818 157.44 70.0976L153.267 75.1805C152.242 76.2907 150.832 76.9677 149.325 77.0733C147.817 77.1789 146.326 76.7051 145.157 75.7486C143.987 74.7921 143.226 73.4252 143.03 71.9269C142.834 70.4286 143.218 68.912 144.102 67.6868L148.258 62.5698L148.304 62.5186L175.925 28.8596L177.937 26.4375Z" fill="#263238"/>
<path d="M148.679 77.3529C147.559 77.352 146.462 77.0334 145.516 76.4341C144.57 75.8348 143.814 74.9794 143.334 73.9673C142.855 72.9551 142.673 71.8278 142.809 70.7161C142.945 69.6045 143.393 68.5543 144.102 67.6873L148.275 62.5703C149.272 61.3549 150.711 60.5852 152.275 60.4306C153.839 60.276 155.401 60.7491 156.616 61.7459C157.831 62.7426 158.601 64.1813 158.756 65.7455C158.91 67.3097 158.437 68.8713 157.44 70.0867L153.262 75.2038C152.704 75.8789 152.004 76.4218 151.212 76.7935C150.419 77.1651 149.554 77.3562 148.679 77.3529Z" fill="white"/>
<path d="M177.937 178.398V195.154L175.942 197.149L170.58 202.505C170.549 202.546 170.515 202.584 170.478 202.619L163.74 209.351C162.628 210.461 161.12 211.085 159.549 211.083C157.977 211.082 156.47 210.457 155.36 209.345C154.249 208.233 153.626 206.725 153.627 205.153C153.628 203.582 154.253 202.075 155.365 200.964L162.091 194.238C162.165 194.164 162.239 194.09 162.313 194.028L175.959 180.382L177.937 178.398Z" fill="#263238"/>
<path d="M159.556 211.085C158.384 211.084 157.238 210.735 156.264 210.083C155.29 209.432 154.531 208.506 154.082 207.423C153.634 206.34 153.517 205.149 153.745 203.999C153.973 202.85 154.537 201.794 155.365 200.964L162.091 194.238C163.203 193.127 164.71 192.502 166.282 192.502C167.853 192.502 169.361 193.127 170.472 194.238C171.583 195.349 172.208 196.857 172.208 198.428C172.208 200 171.583 201.507 170.472 202.619L163.746 209.345C163.196 209.896 162.543 210.334 161.824 210.633C161.105 210.931 160.334 211.085 159.556 211.085Z" fill="white"/>
<path d="M88.6897 158.635H82.9813V166.975H88.6897V158.635Z" fill="#C7C7C7"/>
<path d="M98.3439 158.635H92.6355V166.975H98.3439V158.635Z" fill="#C7C7C7"/>
<path d="M88.6897 144.37H82.9813V152.71H88.6897V144.37Z" fill="#919191"/>
<path d="M98.3439 144.37H92.6355V152.71H98.3439V144.37Z" fill="#919191"/>
<path d="M98.3439 144.37L96.0697 152.716H90.765L92.6355 144.37H98.3439Z" fill="#7E58FF"/>
<path d="M88.3087 144.37L86.0345 152.716H80.7355L82.606 144.37H88.3087Z" fill="#7E58FF"/>
<path d="M56.0143 207.429C56.0143 207.429 61.9728 211.437 65.009 211.682C68.0451 211.926 69.9953 212.654 69.6257 213.99C69.2561 215.326 66.709 216.907 61.8477 217.402C56.9865 217.896 54.4564 217.038 50.9142 216.913C47.3721 216.788 44.3473 218.374 42.2834 216.549C40.2196 214.724 40.4584 213.388 40.5778 212.176C40.6971 210.965 43.25 211.079 47.4005 209.743C51.551 208.407 56.0143 207.429 56.0143 207.429Z" fill="white" stroke="#263238" stroke-linecap="round" stroke-linejoin="round"/>
<path d="M69.6257 213.99C69.679 213.817 69.6855 213.632 69.6446 213.456C69.6036 213.279 69.5167 213.116 69.3926 212.984C67.6357 214.502 63.3601 216.526 60.5116 216.424C57.1003 216.299 53.9504 215.451 47.5086 215.571L41.4477 215.69C41.7024 215.997 41.9819 216.282 42.2835 216.543C44.3474 218.368 47.4005 216.788 50.9086 216.907C54.4166 217.026 56.9865 217.879 61.8478 217.396C66.709 216.913 69.2618 215.326 69.6257 213.99Z" fill="white" stroke="#263238" stroke-linecap="round" stroke-linejoin="round"/>
<path d="M52.5574 144.734C52.5574 144.734 61.8648 167.385 61.3361 171.069C60.8073 174.754 54.6668 190.207 54.138 192.84C53.6093 195.472 54.4905 200.39 54.4905 200.39C54.9642 200.571 55.3787 200.879 55.6887 201.28C55.9986 201.682 56.1919 202.161 56.2474 202.665C56.4237 204.421 57.123 207.929 57.123 207.929C54.8772 209.555 52.3803 210.801 49.7317 211.619C46.8077 212.382 43.816 212.856 40.7995 213.035C40.1002 213.035 39.3952 210.226 39.0483 208.293C38.7015 206.36 42.0276 202.147 43.2614 199.691C44.4952 197.235 47.6223 185.818 49.7487 181.969C51.8751 178.12 54.8658 166.691 54.4905 162.302C54.1153 157.913 50.8062 149.134 50.8062 146.325C50.8062 143.517 52.5574 142.977 52.5574 144.734Z" fill="#9C9C9C" stroke="#263238" stroke-linecap="round" stroke-linejoin="round"/>
<path d="M40.339 206.457C40.339 206.457 42.5279 207.548 46.6557 206.701C50.7835 205.854 52.6143 203.904 50.4253 204.023C48.7288 204.198 47.0577 204.567 45.4447 205.121" stroke="#263238" stroke-linecap="round" stroke-linejoin="round"/>
<path d="M42.039 210.289C42.039 210.289 48.4808 214.303 50.3059 214.422C52.131 214.542 53.342 216.003 52.7337 217.947C52.1253 219.892 47.5086 220.864 40.5834 220.984C33.6583 221.103 26.1192 220.5 24.1747 220.136C22.2302 219.772 20.4051 219.772 20.2857 218.556C20.2179 217.463 20.2179 216.368 20.2857 215.275C20.2857 215.275 23.3218 214.422 25.9713 213.331C28.6208 212.239 36.3022 210.778 37.644 210.414C38.9858 210.05 42.039 210.289 42.039 210.289Z" fill="white" stroke="#263238" stroke-linecap="round" stroke-linejoin="round"/>
<path d="M39.9751 219.892C32.976 219.994 23.2422 218.152 20.2402 217.749C20.2402 218.039 20.2402 218.317 20.2857 218.556C20.4051 219.773 22.2302 219.773 24.1747 220.137C26.1192 220.5 33.6526 221.109 40.5834 220.984C47.5142 220.859 52.1253 219.892 52.7337 217.948C52.8632 217.588 52.9164 217.206 52.89 216.826C52.8636 216.445 52.758 216.074 52.5801 215.736C52.2624 216.294 51.9071 216.829 51.5169 217.339C50.0614 219.284 48.3614 219.773 39.9751 219.892Z" fill="white" stroke="#263238" stroke-linecap="round" stroke-linejoin="round"/>
<path d="M24.1178 140.588C24.1178 140.588 29.559 153.933 29.7352 157.969C29.9115 162.006 31.1396 167.8 32.3677 168.857L33.5958 169.909C33.5958 169.909 30.0878 172.365 30.2583 175.527C30.4289 178.688 26.7503 187.995 24.6409 192.208C22.5315 196.421 19.7285 208.361 19.376 210.465C19.0235 212.569 19.5523 216.787 19.5523 216.787C19.5523 216.787 23.7653 217.316 26.0453 217.669C28.3252 218.021 31.1623 218.192 31.1623 218.192L32.5667 215.383L34.1473 218.368C34.1473 218.368 38.1841 217.14 40.1172 215.383C41.3095 214.29 42.4247 213.116 43.4547 211.869L40.6403 207.833C40.6403 207.833 55.0136 175.527 55.8949 171.166C56.7762 166.805 56.0711 161.858 56.0711 158.35C56.0711 154.842 51.6818 138.161 51.6818 138.161L24.1178 140.588Z" fill="#9C9C9C" stroke="#263238" stroke-linecap="round" stroke-linejoin="round"/>
<path d="M49.5724 150.948C49.5724 150.948 45.5356 151.823 42.1811 152.881C39.5402 153.603 36.837 154.073 34.1075 154.285L34.9831 158.146C34.9831 158.146 39.9012 158.498 43.4149 157.793C46.9286 157.088 51.841 155.866 51.841 155.866L50.7892 152" stroke="#263238" stroke-linecap="round" stroke-linejoin="round"/>
<path d="M35.8814 159.55C35.8814 159.55 37.8088 165.873 37.9851 166.572C38.1614 167.271 36.5807 169.909 37.462 170.785C38.3433 171.661 44.8534 172.019 47.9918 171.666C51.1303 171.314 53.9618 169.909 54.138 168.153C54.3143 166.396 52.2106 159.021 52.2106 159.021" stroke="#263238" stroke-linecap="round" stroke-linejoin="round"/>
<path d="M39.9182 143.926L41.3226 150.771" stroke="#263238" stroke-linecap="round" stroke-linejoin="round"/>
<path d="M43.0738 173.071L34.4714 198.701C34.4714 198.701 27.9727 204.148 27.6486 205.376C27.3245 206.604 31.8389 211.534 31.8389 211.534" stroke="#263238" stroke-linecap="round" stroke-linejoin="round"/>
<path d="M23.5891 202.215C23.5891 202.215 40.2707 198.355 43.955 192.55" stroke="#263238" stroke-linecap="round" stroke-linejoin="round"/>
<path d="M53.4899 47.2188C53.4899 47.2188 51.4032 48.6744 51.824 50.5506C52.2447 52.4269 55.5708 54.5306 54.32 55.3436C53.0691 56.1567 52.0457 56.5945 52.0457 57.2199C52.0457 57.8453 49.7715 65.7483 47.8838 65.9701C45.9962 66.1918 41.4249 64.7192 41.4249 64.7192C39.7124 66.4236 38.5499 68.602 38.0875 70.9735L23.5038 66.9935C24.0451 65.9346 24.3447 64.7688 24.3811 63.5802C24.4175 62.3915 24.1897 61.2096 23.7142 60.1196C22.7713 58.0828 21.6547 56.1311 20.3767 54.2861C20.3767 54.2861 26.2158 40.9533 37.2574 38.2412C48.2989 35.5292 53.4899 47.2188 53.4899 47.2188Z" fill="white" stroke="#263238" stroke-linecap="round" stroke-linejoin="round"/>
<path d="M50.431 59.1589C50.431 59.1589 46.542 58.5903 46.3089 56.0659" stroke="#263238" stroke-linecap="round" stroke-linejoin="round"/>
<path d="M47.23 55.6167L44.7112 56.9926" stroke="#263238" stroke-linecap="round" stroke-linejoin="round"/>
<path d="M35.5517 59.3975C35.5517 59.3975 38.9005 63.8038 41.4079 64.6908C41.4079 64.6908 39.3269 67.0674 38.9858 67.8691C38.9858 67.8691 35.8928 62.9453 35.5517 59.3975Z" fill="#263238" stroke="#263238" stroke-linecap="round" stroke-linejoin="round"/>
<path d="M19.0974 136.199C19.0974 136.199 18.9098 140.992 20.4392 141.76C21.9687 142.527 24.0837 144.25 36.74 143.102C49.3962 141.953 54.3655 138.883 55.1501 137.541C55.9347 136.199 55.5367 132.555 55.5367 132.555C55.5367 132.555 44.2223 135.813 34.6306 135.813C25.0389 135.813 19.0974 136.199 19.0974 136.199Z" fill="white" stroke="#263238" stroke-linecap="round" stroke-linejoin="round"/>
<path d="M81.105 94.2333L82.7709 98.634C82.2987 99.2914 81.7226 99.8675 81.0652 100.34C79.6723 101.477 77.4492 102.472 75.5786 101.477C74.4528 100.879 73.5747 99.9022 73.0996 98.7193C73.0996 98.7193 75.897 94.7393 77.0796 94.1309C78.2622 93.5226 81.105 94.2333 81.105 94.2333Z" fill="white" stroke="#263238" stroke-linecap="round" stroke-linejoin="round"/>
<path d="M79.9452 96.2407L83.7887 103.746" stroke="#263238" stroke-width="2" stroke-linecap="round" stroke-linejoin="round"/>
<path d="M82.5151 94.2334C82.5151 94.2334 85.1134 95.723 84.7097 96.7692C84.306 97.8153 82.4355 99.3107 80.9174 99.5722C79.3993 99.8338 78.9559 98.3612 79.7064 98.2304C80.4569 98.0996 82.3672 95.6207 82.5151 94.2334Z" fill="white" stroke="#263238" stroke-linecap="round" stroke-linejoin="round"/>
<path d="M84.4596 97.4404C84.4596 97.4404 85.4716 98.6628 85.0281 99.5384C84.5846 100.414 81.7304 101.813 80.7753 101.483C79.8201 101.153 80.9174 99.5725 80.9174 99.5725C80.9174 99.5725 83.7545 97.9635 84.4596 97.4404Z" fill="white" stroke="#263238" stroke-linecap="round" stroke-linejoin="round"/>
<path d="M84.4311 100.141C84.5068 100.454 84.5021 100.781 84.4177 101.092C84.3332 101.403 84.1716 101.688 83.9479 101.92C83.1746 102.654 80.6786 103.194 80.0703 102.603C79.4619 102.011 80.7753 101.465 80.7753 101.465C82.0304 101.132 83.2538 100.689 84.4311 100.141Z" fill="white" stroke="#263238" stroke-linecap="round" stroke-linejoin="round"/>
<path d="M82.5151 94.2333C82.4002 93.5599 82.0881 92.9357 81.6182 92.4398C81.1484 91.9439 80.5419 91.5986 79.8757 91.4476C79.2094 91.2967 78.5133 91.3468 77.8756 91.5918C77.2378 91.8367 76.6872 92.2654 76.2933 92.8236C75.8994 93.3817 75.68 94.0442 75.6629 94.7272C75.6458 95.4101 75.8318 96.0827 76.1973 96.6599C76.5628 97.2371 77.0913 97.6928 77.716 97.9693C78.3407 98.2458 79.0334 98.3307 79.7064 98.2133C80.6058 98.0563 81.4063 97.5494 81.9327 96.8034C82.4591 96.0575 82.6685 95.1333 82.5151 94.2333Z" fill="white" stroke="#263238" stroke-linecap="round" stroke-linejoin="round"/>
<path d="M70.7799 96.1441C70.7799 96.1441 74.4869 91.7434 74.6973 90.7371C74.9077 89.7307 77.1762 89.327 77.7107 89.0314C78.2451 88.7357 81.503 86.2284 81.6906 87.3598C81.8783 88.4912 81.7759 90.0719 80.5819 91.0612C79.388 92.0505 77.0966 92.2551 77.0966 92.2551C77.0966 92.2551 78.1257 94.8023 77.5686 96.0645C77.0114 97.3267 73.4976 99.5043 73.4976 99.5043L70.7799 96.1441Z" fill="white" stroke="#263238" stroke-linecap="round" stroke-linejoin="round"/>
<path d="M65.0146 102.512C65.0146 102.512 58.3454 104.883 55.6959 105.144C53.0464 105.406 45.7574 103.694 45.7574 103.694L46.2748 97.5141V94.6201C48.7752 96.0084 51.3863 97.1875 54.0812 98.1452C58.425 99.6747 65.0146 102.512 65.0146 102.512Z" fill="white" stroke="#263238" stroke-linecap="round" stroke-linejoin="round"/>
<path d="M12.9399 86.1487C12.9399 86.1487 17.3519 103.024 17.9262 107.817C18.5004 112.61 15.4302 134.664 17.3576 136.393C19.285 138.121 27.3302 140.611 38.258 139.076C49.1858 137.541 55.315 135.051 55.5196 132.555C55.7243 130.059 52.6427 118.557 51.1076 112.61C49.5725 106.662 49.1915 95.7346 48.424 88.4456C47.6564 81.1567 47.8554 77.7112 45.547 75.2152C43.2387 72.7192 41.5216 72.1506 39.2189 71.9573C36.9162 71.764 30.7814 72.5258 26.176 76.176C21.5707 79.8262 18.5061 84.2269 16.59 85.1878C15.4548 85.7621 14.2108 86.0896 12.9399 86.1487Z" fill="#7E58FF" stroke="#263238" stroke-linecap="round" stroke-linejoin="round"/>
<path d="M42.5052 71.3831C42.5052 71.3831 39.8216 70.2459 38.0931 69.4613C36.3647 68.6767 24.4817 66.0101 22.56 65.6292C20.6382 65.2483 16.0442 64.8616 14.89 66.3968C13.7358 67.9319 13.3549 71.1898 13.3549 71.1898C13.3549 71.1898 7.79435 77.8988 10.2903 83.2718C12.7863 88.6447 14.6967 91.7093 17.386 90.7484C20.0753 89.7875 23.5208 86.1487 29.2747 79.6273C35.0286 73.1058 41.55 73.1058 41.55 73.1058C41.55 73.1058 44.4099 73.1058 42.5052 71.3831Z" fill="white" stroke="#263238" stroke-linecap="round" stroke-linejoin="round"/>
<path d="M38.349 73.5437C38.349 73.5437 43.5513 72.0199 47.2186 75.9487C50.8858 79.8775 58.732 87.2688 59.8123 88.0819C60.8926 88.8949 64.2926 90.9247 64.2926 90.9247C64.2926 90.9247 68.1986 92.4939 71.4849 93.7675C74.7712 95.0411 86.5178 101.29 87.7118 101.506C88.9057 101.722 89.3663 102.233 91.9419 101.284C94.5175 100.334 98.0141 99.0552 98.6339 99.3508C99.2536 99.6465 103.222 101.597 103.819 101.705C104.416 101.813 108.754 102.353 108.459 102.973C108.244 103.31 107.958 103.597 107.622 103.813C107.285 104.029 106.905 104.169 106.508 104.223C105.747 104.331 103.006 104.15 101.136 104.61C99.265 105.071 98.0198 107.191 94.2275 107.737C90.4352 108.283 83.7545 106.35 83.7545 106.35C83.7545 106.35 70.1943 105.008 63.8207 103.791C57.4471 102.575 40.049 93.4605 38.639 93.0796C37.2289 92.6986 33.4309 91.8913 33.4309 91.8913" fill="#7E58FF"/>
<path d="M38.349 73.5437C38.349 73.5437 43.5513 72.0199 47.2186 75.9487C50.8858 79.8775 58.732 87.2688 59.8123 88.0819C60.8926 88.8949 64.2926 90.9247 64.2926 90.9247C64.2926 90.9247 68.1986 92.4939 71.4849 93.7675C74.7712 95.0411 86.5178 101.29 87.7118 101.506C88.9057 101.722 89.3663 102.233 91.9419 101.284C94.5175 100.334 98.0141 99.0552 98.6339 99.3508C99.2536 99.6465 103.222 101.597 103.819 101.705C104.416 101.813 108.754 102.353 108.459 102.973C108.244 103.31 107.958 103.597 107.622 103.813C107.285 104.029 106.905 104.169 106.508 104.223C105.747 104.331 103.006 104.15 101.136 104.61C99.265 105.071 98.0198 107.191 94.2275 107.737C90.4352 108.283 83.7545 106.35 83.7545 106.35C83.7545 106.35 70.1943 105.008 63.8207 103.791C57.4471 102.575 40.049 93.4605 38.639 93.0796C37.2289 92.6986 33.4309 91.8913 33.4309 91.8913" stroke="#263238" stroke-linecap="round" stroke-linejoin="round"/>
<path d="M31.1339 97.4458C35.9838 97.5198 43.1704 94.9385 43.1704 94.9385C43.1704 94.9385 40.6517 98.981 36.9162 101.073" stroke="#263238" stroke-linecap="round" stroke-linejoin="round"/>
<path d="M108.459 102.972C108.754 102.353 104.416 101.835 103.819 101.704C103.222 101.574 99.2707 99.6462 98.6339 99.3505C97.9971 99.0549 94.5175 100.334 91.9419 101.284C89.3663 102.233 88.9 101.721 87.7117 101.505C86.6997 101.323 78.1655 96.8375 73.5545 94.6826C74.0321 96.3428 74.3391 98.3669 73.7421 100.033C72.9977 101.903 71.7669 103.54 70.1772 104.775C76.5508 105.627 83.7545 106.344 83.7545 106.344C83.7545 106.344 90.4295 108.288 94.2275 107.743C98.0255 107.197 99.265 105.076 101.136 104.615C103.006 104.155 105.747 104.337 106.508 104.229C106.905 104.174 107.286 104.033 107.622 103.816C107.959 103.599 108.245 103.311 108.459 102.972Z" fill="white" stroke="#263238" stroke-linecap="round" stroke-linejoin="round"/>
<path d="M31.9981 55.3323L34.2098 62.6838C34.2098 62.6838 30.7985 63.0818 22.7305 60.3015C14.6626 57.5212 12.178 47.7931 13.787 41.4081C15.396 35.0232 22.5315 25.1301 33.4025 24.3512C44.2734 23.5723 51.5283 33.0957 53.74 37.269C55.9517 41.4422 55.9574 46.4115 55.1501 47.5998C54.2364 48.7453 53.2264 49.8106 52.131 50.7838L49.7146 47.2018C49.7146 47.2018 48.9072 50.9771 47.9009 51.3751C47.1167 51.6522 46.3074 51.8521 45.4845 51.9721L42.6416 47.7988L42.8463 52.1711C41.5979 52.6848 40.3859 53.2832 39.2189 53.962C38.4172 54.5306 34.9945 56.5433 34.9945 56.5433C34.4321 56.6341 33.8555 56.5692 33.3274 56.3558C32.7992 56.1423 32.3395 55.7883 31.9981 55.3323Z" fill="#263238" stroke="#263238" stroke-linecap="round" stroke-linejoin="round"/>
</svg>
