<svg width="251" height="220" viewBox="0 0 251 220" fill="none" xmlns="http://www.w3.org/2000/svg">
<path d="M250.63 210.194C250.63 214.762 196.41 218.465 129.527 218.465C62.6441 218.465 8.42468 214.762 8.42468 210.194C8.42468 205.626 62.6441 201.922 129.527 201.922C196.41 201.922 250.63 205.626 250.63 210.194Z" fill="#7B7AFF"/>
<path d="M234.636 114.375H222.611C219.798 114.375 217.517 116.66 217.517 119.479V131.529C217.517 134.347 219.798 136.632 222.611 136.632H234.636C237.449 136.632 239.729 134.347 239.729 131.529V119.479C239.729 116.66 237.449 114.375 234.636 114.375Z" fill="#7E58FF"/>
<path opacity="0.5" d="M234.636 114.375H222.611C219.798 114.375 217.517 116.66 217.517 119.479V131.529C217.517 134.347 219.798 136.632 222.611 136.632H234.636C237.449 136.632 239.729 134.347 239.729 131.529V119.479C239.729 116.66 237.449 114.375 234.636 114.375Z" fill="white"/>
<path d="M226.662 127.341H223.473L222.91 128.807H220.033L223.701 120.398H226.482L230.15 128.807H227.225L226.662 127.341ZM225.883 125.299L225.067 123.185L224.252 125.299H225.883Z" fill="#7E58FF"/>
<path d="M237.009 125.275V128.807H234.491V127.942C234.179 128.603 233.556 128.927 232.633 128.927C231.027 128.927 230.199 128.014 230.199 126.885C230.199 125.612 231.159 124.903 233.196 124.903H234.287C234.203 124.399 233.82 124.134 233.053 124.134C232.465 124.134 231.806 124.327 231.374 124.651L230.511 122.861C231.278 122.381 232.441 122.116 233.46 122.116C235.714 122.116 237.009 123.089 237.009 125.275ZM234.299 126.669V126.212H233.628C233.053 126.212 232.801 126.405 232.801 126.765C232.801 127.065 233.041 127.293 233.448 127.293C233.82 127.293 234.156 127.101 234.299 126.669Z" fill="#7E58FF"/>
<path d="M219.412 89.2925H199.196C197.579 89.2925 196.268 90.6061 196.268 92.2265V109.14C196.268 110.76 197.579 112.074 199.196 112.074H219.412C221.029 112.074 222.34 110.76 222.34 109.14V92.2265C222.34 90.6061 221.029 89.2925 219.412 89.2925Z" fill="#7E58FF"/>
<path opacity="0.6" d="M219.412 89.2925H199.196C197.579 89.2925 196.268 90.6061 196.268 92.2265V109.14C196.268 110.76 197.579 112.074 199.196 112.074H219.412C221.029 112.074 222.34 110.76 222.34 109.14V92.2265C222.34 90.6061 221.029 89.2925 219.412 89.2925Z" fill="white"/>
<path d="M216.232 99.9221L210.095 104.736L206.297 102.478C205.593 102.059 204.703 102.124 204.066 102.64L196.296 108.938C196.266 110.661 197.65 112.076 199.37 112.078L219.254 112.109C220.964 112.089 222.34 110.695 222.34 108.981V101.952L218.459 99.7545C217.751 99.3539 216.872 99.42 216.232 99.9221Z" fill="#7E58FF"/>
<path d="M213.314 96.2682C213.314 97.8274 212.082 99.0915 210.562 99.0915C209.042 99.0915 207.809 97.8274 207.809 96.2682C207.809 94.7088 209.042 93.4448 210.562 93.4448C212.082 93.4448 213.314 94.7088 213.314 96.2682Z" fill="#7E58FF"/>
<path d="M212.091 116.439H205.112V123.432H212.091V116.439Z" fill="#7E58FF"/>
<path d="M212.091 125.053H205.112V132.046H212.091V125.053Z" fill="#263238"/>
<path d="M233.138 94.772H226.159V101.765H233.138V94.772Z" fill="#7E58FF"/>
<path opacity="0.8" d="M233.138 94.772H226.159V101.765H233.138V94.772Z" fill="white"/>
<path d="M43.3208 3.84306C47.5984 -0.921248 54.9204 -1.30887 59.675 2.97736C64.4297 7.2636 64.8165 14.6005 60.5389 19.3648C57.2366 23.0429 52.1233 24.1002 47.774 22.4244L44.6806 24.0178L44.3338 20.3518C44.2851 20.3094 44.2329 20.2738 44.1846 20.2304C39.4301 15.9443 39.0433 8.60731 43.3208 3.84306Z" fill="#7E58FF"/>
<g opacity="0.3">
<path d="M43.3208 3.84306C47.5984 -0.921248 54.9204 -1.30887 59.675 2.97736C64.4297 7.2636 64.8165 14.6005 60.5389 19.3648C57.2366 23.0429 52.1233 24.1002 47.774 22.4244L44.6806 24.0178L44.3338 20.3518C44.2851 20.3094 44.2329 20.2738 44.1846 20.2304C39.4301 15.9443 39.0433 8.60731 43.3208 3.84306Z" fill="white"/>
</g>
<path d="M44.4704 0.754395C41.1827 2.59291 38.9369 6.17827 38.7141 9.94436" stroke="#7E58FF" stroke-width="0.5" stroke-linecap="round" stroke-linejoin="round"/>
<path d="M38.6728 11.6753C38.5962 12.2457 38.6391 12.8316 38.7976 13.3848" stroke="#7E58FF" stroke-width="0.5" stroke-linecap="round" stroke-linejoin="round"/>
<path d="M51.4985 16.2642L46.6104 11.7944L48.167 10.0853L51.4448 13.0825L56.8912 7.75342L58.5043 9.40882L51.4985 16.2642Z" fill="white"/>
<path d="M82.4008 63.2673C82.4008 63.2673 81.6718 61.8254 82.1016 60.5602C82.5313 59.295 82.5385 58.1701 82.9229 57.2516C83.3072 56.3332 83.7234 57.6111 83.8075 58.3359C83.8915 59.0606 83.9942 59.8813 84.5272 59.7298C85.0603 59.5786 88.3912 56.1645 89.1541 56.0391C89.917 55.9135 89.5506 56.6346 89.5506 56.6346C89.5506 56.6346 90.3818 55.8273 90.7907 56.0701C90.8969 56.1332 91.0418 56.4525 90.7205 56.8799C89.9977 57.8414 88.3771 59.7811 88.3771 59.7811C88.4678 59.668 90.6389 57.4169 91.0079 57.1223C91.4904 56.7372 91.9138 56.8021 92.1274 57.0897C92.4315 57.4989 89.8347 60.3819 89.81 60.5802C89.81 60.5802 91.2496 58.8703 91.8935 59.0011C92.5373 59.132 91.6897 60.2578 90.7541 61.1084C89.8965 61.888 88.4177 63.6425 87.4691 64.3503C86.3002 65.2225 85.3198 65.545 84.1234 64.8832C82.9269 64.2213 82.4008 63.2673 82.4008 63.2673Z" fill="#E9B376"/>
<path opacity="0.3" d="M89.4208 56.7197C88.7708 57.3835 88.1511 58.077 87.564 58.7972" stroke="black" stroke-width="0.25" stroke-linecap="round" stroke-linejoin="round"/>
<path opacity="0.3" d="M89.2738 61.2633C88.6685 60.2264 87.7524 59.3744 86.6753 58.8467" stroke="black" stroke-width="0.25" stroke-linecap="round" stroke-linejoin="round"/>
<path opacity="0.3" d="M84.6246 60.3213C84.9187 60.7122 85.0716 61.2075 85.0491 61.6965C85.0266 62.1855 84.8288 62.6645 84.5 63.0266" stroke="black" stroke-width="0.25" stroke-linecap="round" stroke-linejoin="round"/>
<path d="M55.8978 55.8497C55.8978 55.8497 58.3847 55.42 62.5426 59.9707C67.7981 65.7226 72.0474 70.0325 72.0474 70.0325L83.1991 62.1407L85.9624 64.8761C85.9624 64.8761 75.5578 77.8265 72.9516 78.5177C70.3455 79.209 69.2113 78.3277 67.525 76.9451C65.8386 75.5626 55.3374 64.9632 55.5673 65.04C55.7973 65.1168 55.8978 55.8497 55.8978 55.8497Z" fill="#EBB373"/>
<path d="M59.33 198.603C59.2922 198.263 58.0743 191.158 58.0743 191.158L51.2808 192.708L53.1983 199.979L57.8478 200.765L59.33 198.603Z" fill="#EBB373"/>
<path d="M4.332 62.6538C4.67419 62.8637 16.75 73.3553 16.8896 73.2854C17.0292 73.2154 29.5238 63.3533 30.2917 63.0036C31.0595 62.6538 35.0597 69.6483 34.7 69.6483C34.3402 69.6483 22.4078 80.1738 17.4311 80.4538C12.4544 80.7337 1.89221 64.4724 1.89221 64.4724L4.332 62.6538Z" fill="#EBB373"/>
<path d="M109.026 184.598L104.897 188.199L95.4506 179.971L99.5798 176.364L109.026 184.598Z" fill="#EBB373"/>
<path d="M101.165 186.787L102.697 185.24C103.044 184.89 103.541 184.741 104.028 184.815C106.127 185.131 106.332 184.004 106.149 181.897C106.688 181.208 107.559 181.745 107.799 181.883L113.144 184.901C113.594 185.149 113.758 185.716 113.51 186.167C113.466 186.247 113.411 186.32 113.345 186.384C111.485 188.263 110.605 189.152 108.289 191.491L101.208 198.644C99.2774 200.593 96.9164 199.048 97.5301 198.065C100.309 193.661 101.781 190.049 101.837 187.891C101.859 187.501 101.511 187.577 101.165 186.787Z" fill="#263238"/>
<path d="M99.6726 189.702C100.351 189.597 101.017 189.42 101.659 189.176C101.719 189.146 101.742 189.073 101.711 189.013C101.695 188.981 101.665 188.958 101.63 188.95C101.308 188.842 98.4461 187.933 97.8328 188.501C97.7168 188.6 97.6678 188.757 97.7065 188.905C97.7465 189.185 97.9165 189.429 98.1648 189.563C98.6397 189.769 99.1681 189.818 99.6726 189.702ZM101.216 189.069C100.439 189.322 98.9865 189.713 98.3141 189.335C98.1389 189.231 98.017 189.056 97.9792 188.855C97.9584 188.793 97.978 188.725 98.0285 188.684C98.3675 188.374 100.032 188.722 101.216 189.069Z" fill="#7E58FF"/>
<path d="M101.632 189.187C101.66 189.191 101.69 189.187 101.716 189.176C101.748 189.139 101.755 189.088 101.735 189.044C101.72 188.931 100.739 186.354 99.2825 186.718C98.9229 186.815 98.8403 187.005 98.8456 187.155C98.8461 187.873 100.717 188.984 101.571 189.216L101.632 189.187ZM99.4581 186.91C100.394 186.787 101.139 188.268 101.404 188.865C100.463 188.515 99.0858 187.569 99.107 187.128C99.1024 187.093 99.0895 186.994 99.3604 186.93L99.4581 186.91Z" fill="#7E58FF"/>
<path d="M101.293 189.046C101.894 188.585 102.701 188.406 103.439 188.571" stroke="#7E58FF" stroke-width="0.5" stroke-linecap="round" stroke-linejoin="round"/>
<path d="M101.064 190.725C101.664 190.264 102.471 190.086 103.209 190.251" stroke="#7E58FF" stroke-width="0.5" stroke-linecap="round" stroke-linejoin="round"/>
<path d="M100.487 192.526C101.087 192.065 101.894 191.886 102.632 192.051" stroke="#7E58FF" stroke-width="0.5" stroke-linecap="round" stroke-linejoin="round"/>
<path d="M29.7164 205.294C34.2607 204.712 37.3977 199.952 36.7231 194.662C36.0484 189.373 31.8177 185.557 27.2734 186.138C22.7291 186.72 19.5921 191.48 20.2667 196.77C20.9413 202.059 25.1721 205.876 29.7164 205.294Z" fill="#7E58FF"/>
<path d="M1.76123 51.8056L7.27272 33.8916L18.2057 49.7L36.6069 193.991L20.1624 196.096L1.76123 51.8056Z" fill="#7E58FF"/>
<path d="M10.1653 38.062C8.85618 39.3725 7.40845 39.5697 5.81248 38.6312L1.76123 51.8059C1.76123 51.8059 3.6529 55.3359 5.85527 51.535C5.85527 51.535 8.36974 54.6876 10.5444 50.9345C10.5444 50.9345 12.9032 53.3994 14.6349 50.4107C14.6349 50.4107 16.6689 52.3526 18.2057 49.7003L10.1653 38.062Z" fill="#B97964"/>
<path opacity="0.3" d="M10.6031 50.9457L29.9365 195.045L33.7647 194.555C34.3511 194.299 14.6936 50.4219 14.6936 50.4219C12.962 53.4105 10.6031 50.9457 10.6031 50.9457Z" fill="white"/>
<path opacity="0.3" d="M5.8743 51.5835C4.65994 53.6794 3.54078 53.5453 2.7804 53.0041L21.9786 196.097L25.8069 195.607C26.3651 195.362 8.5714 64.9189 6.86684 52.433C6.26357 52.0697 5.8743 51.5835 5.8743 51.5835Z" fill="white"/>
<path d="M19.9656 197.952L37.3833 195.722L37.0241 192.906L19.6065 195.136L19.9656 197.952Z" fill="#263238"/>
<path d="M3.91382 64.4528C3.91382 64.4528 7.12908 62.7884 7.38755 61.8229C7.64596 60.8573 6.25725 61.172 6.25725 61.172C6.25725 61.172 7.764 60.7317 7.66387 60.0654C7.54385 59.2657 6.09039 59.6019 6.09039 59.6019C6.09039 59.6019 7.30597 59.1918 7.17731 58.6052C7.04379 57.9966 5.37645 58.2592 5.37645 58.2592C5.37645 58.2592 6.17788 57.8084 5.85813 57.4512C5.53826 57.0941 1.98882 57.5829 1.06609 58.4268C0.143364 59.2708 0.909956 63.8227 1.31059 64.768C1.42567 65.0394 1.70241 65.4669 3.04009 65.6569C3.32041 65.6968 3.58955 65.5144 3.65234 65.2378L3.81903 64.5034L3.91382 64.4528Z" fill="#EBB373"/>
<path opacity="0.2" d="M6.24095 61.0977L6.23469 61.0995L3.64462 61.993C3.60994 62.0051 3.59186 62.0471 3.6045 62.0868C3.61725 62.1265 3.65708 62.1493 3.69036 62.1372L6.28038 61.2435C6.31505 61.2315 6.33314 61.1894 6.32055 61.1499C6.30861 61.1123 6.27382 61.0901 6.24095 61.0977Z" fill="black"/>
<path opacity="0.2" d="M5.99805 59.5449L5.99637 59.5453L3.4405 60.2054C3.4049 60.2147 3.38432 60.2549 3.39441 60.2952C3.40461 60.336 3.43494 60.3558 3.47732 60.3521L6.03318 59.6921C6.06878 59.6828 6.08931 59.6426 6.07934 59.6021C6.06925 59.5622 6.03318 59.537 5.99805 59.5449Z" fill="black"/>
<path opacity="0.2" d="M5.27187 58.2051L3.3587 58.6411C3.32281 58.6493 3.30136 58.689 3.31063 58.7297C3.31979 58.7702 3.35626 58.7968 3.39215 58.7887L5.30544 58.3526C5.34133 58.3445 5.36272 58.3048 5.35351 58.2641C5.34434 58.2235 5.30776 58.1969 5.27187 58.2051Z" fill="black"/>
<path d="M52.353 197.996H54.5282C55.0204 197.996 55.4757 198.246 55.7665 198.644C57.0209 200.36 57.9636 199.711 59.328 198.098C60.1953 197.996 60.4288 198.994 60.4996 199.262L62.1256 205.189C62.2669 205.684 61.981 206.2 61.4871 206.341C61.3992 206.366 61.3082 206.379 61.2168 206.377H43.9831C41.2421 206.377 40.6742 203.609 41.8031 203.353C46.8803 202.229 50.4753 200.732 52.0446 199.252C52.3356 198.993 52.0367 198.799 52.353 197.996Z" fill="#263238"/>
<path d="M49.2362 198.988C49.789 199.396 50.3829 199.746 51.0081 200.03C51.0715 200.051 51.1396 200.016 51.1602 199.953C51.1714 199.919 51.1666 199.881 51.1473 199.85C50.9972 199.545 49.6259 196.869 48.7913 196.833C48.6393 196.821 48.4936 196.896 48.4162 197.028C48.2462 197.253 48.1931 197.546 48.2731 197.817C48.4614 198.3 48.7989 198.71 49.2362 198.988ZM50.7713 199.64C50.0458 199.265 48.7452 198.508 48.5395 197.763C48.4901 197.565 48.5281 197.355 48.6437 197.187C48.6729 197.128 48.7351 197.094 48.8 197.101C49.2583 197.124 50.1833 198.553 50.7713 199.64Z" fill="#7E58FF"/>
<path d="M50.9812 200.019C50.9982 200.042 51.0216 200.061 51.0486 200.071C51.0967 200.068 51.1385 200.037 51.1549 199.992C51.2245 199.902 52.359 197.389 51.0758 196.609C50.7535 196.422 50.5606 196.497 50.4581 196.606C49.9501 197.112 50.4809 199.225 50.9177 199.996L50.9812 200.019ZM51.0633 196.869C51.8098 197.449 51.2852 199.022 51.0484 199.63C50.6338 198.714 50.3344 197.068 50.6614 196.773C50.6832 196.745 50.744 196.666 50.9804 196.814L51.0633 196.869Z" fill="#7E58FF"/>
<path d="M50.843 199.678C51.5922 199.781 52.2873 200.229 52.6903 200.871" stroke="#7E58FF" stroke-width="0.5" stroke-linecap="round" stroke-linejoin="round"/>
<path d="M49.4911 200.698C50.2404 200.801 50.9353 201.249 51.3383 201.891" stroke="#7E58FF" stroke-width="0.5" stroke-linecap="round" stroke-linejoin="round"/>
<path d="M47.8092 201.555C48.5585 201.658 49.2534 202.106 49.6565 202.747" stroke="#7E58FF" stroke-width="0.5" stroke-linecap="round" stroke-linejoin="round"/>
<path d="M35.9643 60.0754C35.9643 60.0754 32.1189 68.6789 32.5963 72.0527C33.2341 76.5594 37.1042 82.1954 40.8578 90.7646L61.9283 87.4928C59.3695 78.9523 57.4306 74.1799 55.9141 55.2442C52.7949 55.2417 51.3538 55.3858 48.27 56.0478C44.9834 56.7112 41.748 57.6074 38.588 58.7297C34.5234 60.2327 35.9643 60.0754 35.9643 60.0754Z" fill="#263238"/>
<path d="M54.6572 55.5383C54.6572 55.5383 56.0155 54.7248 58.1574 55.7923C60.2994 56.8599 66.5644 63.0642 66.5644 63.0642C66.5644 63.0642 59.0903 72.389 58.9805 72.389C58.8705 72.389 54.877 66.9556 54.877 66.9556L54.6572 55.5383Z" fill="#263238"/>
<path d="M32.9423 70.268L27.8356 64.282C27.8356 64.282 34.0985 60.0822 35.881 59.4064C37.6635 58.7305 38.588 58.7295 38.588 58.7295L32.9423 70.268Z" fill="#263238"/>
<path d="M40.8579 90.7648C37.2361 103.179 38.1778 131.793 41.4586 152.434C43.8128 171.081 49.4557 194.637 49.4557 194.637L60.7932 192.856C60.7932 192.856 56.9992 162.318 56.0875 149.298C54.8522 131.357 54.7788 88.6032 54.7788 88.6032L39.7466 88.2183L40.8579 90.7648Z" fill="#7E58FF"/>
<path d="M39.8552 88.2181C39.8552 88.2181 47.3506 96.337 52.8755 108.064C58.6292 120.277 62.5028 136.306 66.7458 146.174C73.4632 161.8 98.0329 183.631 98.0329 183.631L103.838 178.804C103.838 178.804 86.2863 153.919 81.6393 143.322C66.7576 109.395 71.1751 95.0255 61.9284 87.4456L61.056 84.52L39.8552 88.2181Z" fill="#7E58FF"/>
<path d="M32.4152 38.0717C32.4508 38.0601 32.4817 38.0372 32.5032 38.0065C32.5448 37.9297 32.5173 37.8337 32.4416 37.7905C30.8195 36.6153 30.3307 34.4102 31.304 32.6574C32.9311 29.4886 37.0275 30.6113 37.0697 30.6192C37.15 30.6563 37.2451 30.6211 37.2821 30.5406C37.319 30.4601 37.2839 30.3649 37.2036 30.3278C37.1884 30.3209 37.1724 30.3162 37.1559 30.3143C37.119 30.3249 32.763 29.1096 31.0163 32.5128C29.997 34.4107 30.5254 36.7708 32.256 38.0506C32.3028 38.0824 32.3618 38.0902 32.4152 38.0717Z" fill="#263238"/>
<path d="M32.7204 38.1853C32.7718 38.1701 32.8127 38.131 32.8304 38.0804C32.8547 37.9976 32.8092 37.9103 32.7275 37.8829C32.7275 37.8829 30.8072 37.2449 30.2117 35.8339C29.928 35.0959 29.9906 34.2693 30.3821 33.5828C30.4265 33.5061 30.4004 33.4079 30.324 33.3636L30.3188 33.3607C30.2399 33.3189 30.1422 33.3469 30.0972 33.4242C29.663 34.1949 29.5969 35.1201 29.917 35.945C30.5715 37.4927 32.5419 38.143 32.6298 38.1712C32.6578 38.1854 32.6895 38.1903 32.7204 38.1853Z" fill="#263238"/>
<path d="M50.9385 49.178C52.1299 48.9441 53.1408 48.1597 53.6651 47.0625C53.7068 46.9858 53.6793 46.8897 53.6036 46.8466C53.5307 46.8029 53.4364 46.8267 53.3928 46.8997L53.3881 46.9082C52.3019 49.6618 46.8536 49.1465 46.799 49.1421C46.7113 49.1315 46.6315 49.1942 46.621 49.2822L46.6205 49.2867C46.61 49.371 46.6697 49.448 46.7539 49.4586L46.763 49.4594C48.1608 49.5999 49.5721 49.5048 50.9385 49.178Z" fill="#263238"/>
<path d="M72.8522 40.0613C71.7782 40.6124 70.5567 40.8716 69.3518 40.8042C70.9713 39.3686 71.5978 36.9114 70.8639 34.8734C68.0713 36.9756 63.9936 37.1839 61.0021 35.3771C58.7907 34.0414 57.1653 31.7417 54.7245 30.8975C52.6069 30.1651 48.2092 30.3122 47.6356 33.4494L48.5846 35.7639C50.2092 35.0439 52.7358 37.5297 53.6276 39.0691C54.5195 40.6085 54.6372 42.4586 54.8159 44.2296C54.9945 46.0005 55.3016 47.8695 56.4618 49.2175C57.4685 50.3871 59.0097 51.0003 60.545 51.1364C62.0804 51.2725 63.6221 50.9743 65.1096 50.5694C65.7221 50.4028 66.359 50.2002 66.7961 49.7392C67.233 49.2782 67.3787 48.4783 66.9419 48.017C65.8725 48.185 64.7481 47.9785 63.8077 47.4411C66.0596 47.6249 68.4315 47.2425 70.2757 45.9347C72.1198 44.6269 73.3137 42.2774 72.8522 40.0613Z" fill="#263238"/>
<path d="M32.2014 39.2948C30.9755 36.327 32.1419 32.9087 34.9247 31.3143C36.7652 30.1278 39.2263 29.9706 41.5812 30.2364C46.7177 30.8163 50.7012 35.0573 51.0366 40.2259C51.3123 44.4754 50.1195 49.0785 44.1512 50.2807C32.3708 52.6535 32.2014 39.2948 32.2014 39.2948Z" fill="#263238"/>
<path d="M49.1068 55.9265C49.1068 55.9265 47.269 57.7085 44.9301 60.2443C44.4427 60.7726 43.8938 61.244 43.302 61.6512C41.7054 62.7498 40.215 63.4443 39.702 62.6711C39.5882 62.5012 39.4942 62.3139 39.4178 62.1149C38.9051 60.7807 38.8314 58.8311 39.84 57.82C40.9771 56.6798 41.4829 55.7575 41.1039 54.4331C40.8986 53.6812 40.5323 52.9226 40.1218 52.192L41.4672 51.1583L46.0221 45.3657C45.7963 48.6243 46.1813 54.3495 49.1068 55.9265Z" fill="#EBB373"/>
<path opacity="0.2" d="M41.1794 54.7245C42.4992 53.7209 43.8862 52.0831 43.5103 50.4357C43.3473 49.7426 43.1205 49.0941 42.9039 48.6865L40.4625 52.8291C40.7685 53.417 40.901 53.8136 41.1794 54.7245Z" fill="black"/>
<path d="M46.3516 39.3842C46.4698 44.7385 46.632 46.9964 44.2191 50.0865C40.5897 54.7347 34.1147 54.0499 32.4301 48.9216C30.9139 44.3059 30.9754 36.3253 35.9137 33.5054C40.7789 30.7273 46.2334 34.0299 46.3516 39.3842Z" fill="#EBB373"/>
<path d="M39.4219 41.9353C39.4597 42.4989 39.209 42.9938 38.862 43.0407C38.5151 43.0877 38.2033 42.6688 38.1657 42.1052C38.1277 41.5416 38.3784 41.0466 38.7254 40.9997C39.0723 40.9527 39.3841 41.3716 39.4219 41.9353Z" fill="#263238"/>
<path d="M34.0468 42.5208C34.0823 43.0671 33.8307 43.548 33.4849 43.5948C33.1389 43.6416 32.8297 43.2367 32.7942 42.6904C32.7588 42.1442 33.0105 41.6633 33.3564 41.6165C33.7022 41.5696 34.0114 41.9745 34.0468 42.5208Z" fill="#263238"/>
<path d="M40.5797 39.8126C40.5131 39.8279 40.4425 39.816 40.3847 39.7737C39.4842 39.1108 38.597 39.4809 38.5867 39.4853C38.4553 39.5405 38.309 39.4791 38.262 39.3436C38.2154 39.2084 38.2852 39.0526 38.4181 38.9951C38.4644 38.9755 39.5777 38.5097 40.6953 39.3327C40.8066 39.4147 40.8276 39.5801 40.742 39.7019C40.7005 39.7604 40.6419 39.7984 40.5797 39.8126Z" fill="#263238"/>
<path d="M32.4249 40.0122C32.3696 40.0005 32.3207 39.9658 32.2908 39.9103C32.2291 39.7958 32.2706 39.6366 32.3833 39.555C33.5146 38.7361 34.4695 39.1514 34.5098 39.17C34.6234 39.2212 34.6661 39.3686 34.6051 39.4997C34.5446 39.6305 34.4034 39.695 34.29 39.6445C34.2528 39.6277 33.5069 39.318 32.6074 39.9695C32.5492 40.0115 32.4834 40.0248 32.4249 40.0122Z" fill="#263238"/>
<path d="M35.8706 42.0508C35.8706 42.0508 35.2689 44.1288 34.4762 45.4718C34.3376 45.7065 34.4744 46.0105 34.7388 46.0751C35.4192 46.2413 36.1587 45.9362 36.1587 45.9362L35.8706 42.0508Z" fill="#E4873E"/>
<path d="M38.9273 40.9998L37.6809 40.8511C37.6809 40.8511 38.4478 41.6822 38.9273 40.9998Z" fill="#263238"/>
<path d="M33.5414 41.6151L32.2949 41.4663C32.2949 41.4663 33.0618 42.2975 33.5414 41.6151Z" fill="#263238"/>
<path d="M42.8773 40.5422C42.8773 40.5422 40.4182 37.0756 41.9276 34.1099C41.9276 34.1099 31.8851 32.4553 31.5897 42.1177C31.5897 42.1177 29.575 33.2878 38.4485 31.411C47.3221 29.5342 49.7231 42.6017 45.845 47.3493C45.8425 47.3629 44.8493 42.9438 42.8773 40.5422Z" fill="#263238"/>
<path d="M48.4427 43.5204C47.9418 44.6785 47.0043 45.4769 46.1002 45.817C44.7405 46.3286 43.7612 44.156 44.0792 42.6962C44.3655 41.3821 45.6457 40.3876 47.0394 40.5079C48.4124 40.6264 49.0156 42.1963 48.4427 43.5204Z" fill="#EBB373"/>
<path opacity="0.2" d="M45.4526 43.5754C45.4289 43.0698 45.6127 42.5575 45.9523 42.1827C46.2918 41.8078 46.783 41.575 47.2875 41.5498" stroke="black" stroke-width="0.5" stroke-linecap="round" stroke-linejoin="round"/>
<path d="M35.9878 47.6802C36.3845 48.1963 36.7444 48.7401 37.0645 49.3072L37.397 49.212C38.8562 48.654 39.3443 47.9136 39.4587 47.2869C39.5038 46.9681 39.4706 46.6432 39.3618 46.3402C39.3065 46.1659 39.2277 45.9998 39.1278 45.8467C38.3809 46.5925 37.4812 47.1666 36.4909 47.5294C36.1812 47.6114 35.9878 47.6802 35.9878 47.6802Z" fill="#263238"/>
<path d="M36.4768 47.4801L36.8111 47.9516C38.1798 47.4263 39.0796 46.8683 39.3478 46.291C39.2925 46.1166 39.2137 45.9506 39.1138 45.7974C38.3668 46.5431 37.4671 47.1173 36.4768 47.4801Z" fill="white"/>
<path d="M37.39 49.1872C38.8492 48.6293 39.3374 47.8889 39.4517 47.2622C38.9006 47.4838 38.3939 47.803 37.9555 48.2045C37.6702 48.4657 37.4726 48.809 37.39 49.1872Z" fill="#C15854"/>
<path d="M91.4982 4.63525H156.281C165.309 4.63525 172.638 11.9791 172.638 21.0248V190.382C172.638 197.274 167.053 202.87 160.175 202.87H85.7596C79.8996 202.87 75.142 198.103 75.142 192.231V21.0248C75.142 11.9791 82.471 4.63525 91.4982 4.63525Z" fill="#7E58FF"/>
<path d="M156.712 9.29736H91.0675C84.4467 9.29736 79.0795 14.6755 79.0795 21.3097V186.195C79.0795 192.83 84.4467 198.208 91.0675 198.208H156.712C163.333 198.208 168.7 192.83 168.7 186.195V21.3097C168.7 14.6755 163.333 9.29736 156.712 9.29736Z" fill="white"/>
<path d="M140.919 18.1069H104.047V20.4166H140.919V18.1069Z" stroke="#7E58FF" stroke-miterlimit="10"/>
<path d="M154.836 16.7389C154.836 17.2323 154.441 17.6322 153.953 17.6322C153.466 17.6322 153.071 17.2323 153.071 16.7389C153.071 16.2456 153.466 15.8457 153.953 15.8457C154.441 15.8457 154.836 16.2456 154.836 16.7389Z" fill="#7E58FF"/>
<path d="M154.836 19.0119C154.836 19.5052 154.441 19.9052 153.953 19.9052C153.466 19.9052 153.071 19.5052 153.071 19.0119C153.071 18.5186 153.466 18.1187 153.953 18.1187C154.441 18.1187 154.836 18.5186 154.836 19.0119Z" fill="#7E58FF"/>
<path d="M154.836 21.2843C154.836 21.7777 154.441 22.1776 153.953 22.1776C153.466 22.1776 153.071 21.7777 153.071 21.2843C153.071 20.791 153.466 20.3911 153.953 20.3911C154.441 20.3911 154.836 20.791 154.836 21.2843Z" fill="#7E58FF"/>
<path d="M93.8309 17.3647L92.141 18.9911L93.8309 20.6587" stroke="#7E58FF" stroke-linecap="round" stroke-linejoin="round"/>
<path d="M161.481 34.73H86.573V47.9953H161.481V34.73Z" stroke="#7E58FF" stroke-miterlimit="10"/>
<path d="M79.0519 28.0376H169.104" stroke="#7E58FF" stroke-miterlimit="10"/>
<path d="M161.481 54.3628H86.573V92.3075H161.481V54.3628Z" stroke="#7E58FF" stroke-miterlimit="10"/>
<path d="M86.573 92.3076L110.16 73.2477C111.002 72.5675 112.174 72.4925 113.093 73.06L125.372 80.637L141.415 68.2173C142.352 67.492 143.635 67.4319 144.634 68.0667L161.481 78.7717" stroke="#7E58FF" stroke-miterlimit="10"/>
<path d="M124.904 70.2672C127.495 70.2672 129.596 68.1408 129.596 65.5179C129.596 62.8949 127.495 60.7686 124.904 60.7686C122.313 60.7686 120.212 62.8949 120.212 65.5179C120.212 68.1408 122.313 70.2672 124.904 70.2672Z" stroke="#7E58FF" stroke-miterlimit="10"/>
<path d="M103.226 98.0264H86.573V101.884H103.226V98.0264Z" stroke="#7E58FF" stroke-miterlimit="10"/>
<path d="M161.481 106.386H86.573V108.958H161.481V106.386Z" stroke="#7E58FF" stroke-miterlimit="10"/>
<path d="M161.481 112.173H86.573V114.745H161.481V112.173Z" stroke="#7E58FF" stroke-miterlimit="10"/>
<path d="M119.965 117.96H86.573V120.532H119.965V117.96Z" stroke="#7E58FF" stroke-miterlimit="10"/>
<path d="M161.481 165.061H86.573V167.633H161.481V165.061Z" stroke="#7E58FF" stroke-miterlimit="10"/>
<path d="M161.481 170.849H86.573V173.421H161.481V170.849Z" stroke="#7E58FF" stroke-miterlimit="10"/>
<path d="M119.965 176.635H86.573V179.208H119.965V176.635Z" stroke="#7E58FF" stroke-miterlimit="10"/>
<path d="M118.196 126.389H86.5574V158.417H118.196V126.389Z" stroke="#7E58FF" stroke-miterlimit="10"/>
<path d="M86.5574 158.417L118.196 126.389" stroke="#7E58FF" stroke-miterlimit="10"/>
<path d="M118.092 158.417L86.4532 126.389" stroke="#7E58FF" stroke-miterlimit="10"/>
<path d="M159.975 126.68H128.336V158.708H159.975V126.68Z" stroke="#7E58FF" stroke-miterlimit="10"/>
<path d="M128.336 158.708L159.975 126.68" stroke="#7E58FF" stroke-miterlimit="10"/>
<path d="M159.871 158.708L128.232 126.68" stroke="#7E58FF" stroke-miterlimit="10"/>
<path opacity="0.2" d="M217.574 184.422L192.847 199.162L195.95 203.871C195.95 203.871 194.17 206.354 191.15 198.475L206.46 188.972C206.46 188.972 201.774 188.36 201.913 187.627C202.149 186.424 212.542 184.428 217.282 183.531C217.528 183.45 217.792 183.584 217.873 183.831C217.953 184.077 217.819 184.342 217.574 184.422Z" fill="black"/>
<path opacity="0.2" d="M192.018 197.395L196.027 204.356C190.808 205.111 185.522 205.371 180.247 205.133C178.513 205.071 176.803 204.708 175.202 204.062L173.803 201.308L177.177 194.983L192.018 197.395Z" fill="black"/>
<path d="M200.134 194.914L189.136 201.455L190.916 206.763L203.759 201.429L200.134 194.914Z" fill="#895555"/>
<path d="M183.142 203.038L184.09 206.845C184.09 206.845 184.881 207.037 185.106 207.839C185.232 208.289 184.868 209.51 184.868 209.51L187.399 220C187.414 219.996 188.116 219.828 188.399 219.636C188.743 219.402 189.024 219.161 189.251 218.914C190.043 218.049 190.166 216.765 190.222 215.813C190.317 214.218 191.37 209.581 191.37 209.581C191.37 209.581 191.755 208.376 193.067 207.344C193.799 206.768 194.151 206.024 194.098 205.556C193.992 204.6 193.32 204.222 192.429 204.303L191.393 204.399C190.672 203.827 190.473 202.89 190.966 202.007C190.966 202.007 191.643 199.758 190.684 200.111C190.136 200.313 187.721 201.308 185.79 202.037C185.34 202.207 184.914 202.368 184.541 202.508L184.541 202.509C183.711 202.822 183.142 203.038 183.142 203.038Z" fill="#263238"/>
<path d="M190.898 212.057C190.929 211.999 190.916 211.926 190.869 211.88C190.652 211.668 190.381 211.512 190.072 211.438C189.909 211.399 189.826 211.66 189.991 211.7C190.266 211.766 190.504 211.902 190.694 212.087C190.758 212.148 190.856 212.137 190.897 212.059L190.898 212.057Z" fill="#7E58FF"/>
<path d="M191.138 211.142C191.169 211.085 191.155 211.011 191.108 210.965C190.891 210.753 190.62 210.597 190.311 210.523C190.148 210.484 190.066 210.746 190.23 210.785C190.505 210.851 190.744 210.987 190.934 211.172C190.997 211.233 191.095 211.222 191.136 211.145L191.138 211.142Z" fill="#7E58FF"/>
<path d="M191.341 210.209C191.372 210.152 191.359 210.078 191.312 210.032C191.095 209.82 190.824 209.665 190.515 209.59C190.352 209.551 190.269 209.813 190.434 209.852C190.709 209.918 190.947 210.054 191.137 210.239C191.201 210.301 191.299 210.289 191.34 210.212L191.341 210.209Z" fill="#7E58FF"/>
<path opacity="0.2" d="M184.541 202.509L184.541 202.51C183.711 202.822 183.142 203.038 183.142 203.038L184.09 206.846C184.09 206.846 184.881 207.037 185.106 207.839C185.232 208.289 184.868 209.51 184.868 209.51L187.399 220C187.414 219.996 188.116 219.828 188.399 219.637C188.557 219.529 188.698 219.42 188.831 219.309L184.749 202.43C184.681 202.456 184.606 202.484 184.541 202.509Z" fill="white"/>
<path d="M191.197 210.141C191.552 210.022 191.91 209.901 192.281 209.846C192.652 209.79 193.04 209.802 193.389 209.941C193.551 210.006 193.717 210.118 193.748 210.29C193.78 210.471 193.646 210.642 193.494 210.744C193.201 210.941 192.822 210.98 192.478 210.904C192.133 210.827 191.477 210.355 191.197 210.141Z" stroke="#7E58FF" stroke-width="0.25" stroke-miterlimit="10"/>
<path d="M191.186 210.097C191.487 209.872 191.789 209.646 192.046 209.372C192.302 209.099 192.514 208.772 192.598 208.406C192.637 208.235 192.64 208.034 192.516 207.911C192.386 207.782 192.17 207.795 191.999 207.862C191.671 207.991 191.423 208.281 191.29 208.608C191.156 208.935 191.17 209.744 191.186 210.097Z" stroke="#7E58FF" stroke-width="0.25" stroke-miterlimit="10"/>
<path d="M202.771 149.021C202.771 149.021 204.163 165.915 204.641 166.833C206.257 169.938 217.403 175.51 217.403 175.51L223.201 174.471L227.228 178.048L224.443 180.104L221.284 178.801C219.532 179.061 217.76 179.164 215.99 179.108C213.013 179.021 198.182 175.304 195.905 171.223C193.627 167.143 193.659 148.191 193.659 148.191L202.771 149.021Z" fill="#895555"/>
<path d="M193.203 155.363C193.203 155.363 189.211 140.444 194.848 136.502C200.486 132.56 204.275 153.021 204.275 153.021L193.203 155.363Z" fill="#7E58FF"/>
<path opacity="0.5" d="M193.203 155.363C193.203 155.363 189.211 140.444 194.848 136.502C200.486 132.56 204.275 153.021 204.275 153.021L193.203 155.363Z" fill="white"/>
<path d="M195.902 182.514L196.436 162.913L196.805 136.064L185.321 133.21L177.279 133.134L163.678 137.378L163.217 143.955C163.217 143.955 163.636 174.231 163.536 175.141C163.413 176.256 159.961 183.173 159.961 183.173C174.322 186.902 196.1 183.52 195.902 182.514Z" fill="#7E58FF"/>
<path opacity="0.2" d="M196.516 154.662L196.71 142.97L198.762 154.187L196.516 154.662Z" fill="black"/>
<path opacity="0.2" d="M171.995 155.781C172.353 155.721 173.813 155.289 173.813 155.289L170.495 143.897L175.632 156.414L172.287 157.635L171.995 155.781Z" fill="black"/>
<path d="M170.719 146.474C170.719 146.474 172.973 165.25 174.541 167.046C177.19 170.079 190.516 178.315 190.516 178.315L197.351 176.138C197.83 175.996 198.352 176.097 198.731 176.405L203.252 180.079L202.8 180.44C202.604 180.595 202.327 180.62 202.105 180.501L201.397 180.121L202.178 180.935L201.917 181.142C201.657 181.349 201.304 181.415 200.981 181.318L198.929 180.701L200.8 182.031C200.364 182.378 199.767 182.486 199.227 182.314L196.226 181.36C194.148 181.772 192.037 182.012 189.916 182.076C186.346 182.191 169.692 175.803 166.683 171.397C163.674 166.99 160.966 148.984 160.966 148.984L170.719 146.474Z" fill="#895555"/>
<path d="M161.399 158.645C161.399 158.645 157.704 141.579 163.342 137.637C168.98 133.694 173.814 155.29 173.814 155.29L161.399 158.645Z" fill="#7E58FF"/>
<path opacity="0.5" d="M161.399 158.645C161.399 158.645 157.704 141.579 163.342 137.637C168.98 133.694 173.814 155.29 173.814 155.29L161.399 158.645Z" fill="white"/>
<path d="M205.922 181.514L195.515 181.207L184.473 180.88L184.473 180.887C184.454 181.708 185.349 182.397 186.472 182.427L197.505 182.753L203.816 182.939L203.845 182.94L203.847 182.94L221.411 183.459C222.525 183.484 223.44 182.846 223.459 182.032L205.922 181.514Z" fill="#263238"/>
<path d="M221.735 183.384L202.14 182.805C201.802 182.793 201.536 182.563 201.547 182.291C201.549 182.24 201.561 182.189 201.583 182.141L210.889 162.374C211.126 161.808 211.793 161.437 212.538 161.456L232.145 162.035C232.476 162.045 232.739 162.27 232.731 162.536C232.729 162.592 232.715 162.647 232.69 162.699L223.384 182.467C223.144 183.03 222.478 183.4 221.735 183.384Z" fill="#263238"/>
<path opacity="0.7" d="M232.145 162.035L212.538 161.456C211.793 161.437 211.126 161.808 210.889 162.374L201.934 181.396L195.515 181.206L184.473 180.88L184.473 180.887C184.454 181.708 185.349 182.397 186.472 182.426L197.505 182.752L203.816 182.939L203.845 182.94L203.847 182.94L221.411 183.459C221.764 183.467 222.093 183.402 222.384 183.292C222.844 183.152 223.218 182.858 223.384 182.467L232.69 162.699C232.715 162.647 232.729 162.592 232.731 162.536C232.739 162.27 232.476 162.045 232.145 162.035Z" fill="white"/>
<path d="M220.056 172.349C219.604 173.297 218.727 173.932 218.091 173.778C217.455 173.625 217.31 172.744 217.749 171.793C218.188 170.841 219.076 170.222 219.711 170.376C220.347 170.529 220.514 171.375 220.056 172.349Z" fill="white"/>
<g opacity="0.3">
<path d="M210.889 162.374L201.934 181.396L202.842 181.423L212.538 161.456C211.793 161.437 211.126 161.808 210.889 162.374Z" fill="black"/>
</g>
<path d="M210.68 203.885L223.242 206.293L225.421 201.137L212.277 196.598L210.68 203.885Z" fill="#895555"/>
<path d="M228.777 209.09L230.586 205.609C230.586 205.609 230.12 204.941 230.483 204.191C230.686 203.77 231.767 203.098 231.767 203.098L236.812 193.563C236.798 193.556 236.161 193.215 235.823 193.171C235.41 193.118 235.04 193.112 234.707 193.146C233.541 193.267 232.601 194.147 231.928 194.822C230.802 195.953 226.946 198.725 226.946 198.725C226.946 198.725 225.86 199.372 224.195 199.273C223.266 199.218 222.51 199.541 222.24 199.927C221.687 200.713 221.94 201.442 222.661 201.973L223.5 202.59C223.661 203.497 223.19 204.33 222.237 204.664C222.237 204.664 220.242 205.898 221.194 206.271C221.738 206.483 224.204 207.343 226.132 208.08C226.581 208.251 227.006 208.414 227.379 208.557L227.38 208.556C228.208 208.873 228.777 209.09 228.777 209.09Z" fill="#263238"/>
<path d="M228.937 197.185C228.875 197.208 228.837 197.272 228.842 197.338C228.864 197.64 228.964 197.937 229.146 198.198C229.242 198.335 229.477 198.194 229.38 198.055C229.218 197.823 229.129 197.563 229.109 197.299C229.102 197.21 229.021 197.154 228.939 197.184L228.937 197.185Z" fill="#7E58FF"/>
<path d="M228.152 197.711C228.091 197.734 228.052 197.798 228.057 197.864C228.08 198.166 228.179 198.463 228.361 198.724C228.457 198.861 228.692 198.72 228.596 198.581C228.434 198.349 228.344 198.089 228.325 197.824C228.318 197.736 228.237 197.68 228.155 197.71L228.152 197.711Z" fill="#7E58FF"/>
<path d="M227.383 198.274C227.321 198.297 227.283 198.361 227.288 198.427C227.31 198.729 227.409 199.026 227.592 199.287C227.688 199.424 227.923 199.283 227.826 199.144C227.664 198.912 227.575 198.652 227.555 198.387C227.548 198.299 227.467 198.243 227.385 198.273L227.383 198.274Z" fill="#7E58FF"/>
<path opacity="0.2" d="M230.483 204.191C230.686 203.77 231.767 203.098 231.767 203.098L236.812 193.563C236.798 193.556 236.161 193.215 235.823 193.171C235.633 193.146 235.455 193.134 235.283 193.129L227.171 208.477C227.24 208.503 227.314 208.532 227.379 208.557L227.38 208.556C228.208 208.873 228.777 209.09 228.777 209.09L230.586 205.609C230.586 205.609 230.12 204.94 230.483 204.191Z" fill="white"/>
<path d="M227.446 198.421C227.101 198.274 226.753 198.127 226.439 197.922C226.124 197.717 225.841 197.45 225.672 197.115C225.594 196.959 225.543 196.764 225.634 196.615C225.73 196.458 225.943 196.419 226.125 196.444C226.474 196.491 226.784 196.714 226.991 196.999C227.199 197.285 227.378 198.074 227.446 198.421Z" stroke="#7E58FF" stroke-width="0.25" stroke-miterlimit="10"/>
<path d="M227.425 198.461C227.051 198.429 226.675 198.398 226.302 198.433C225.928 198.467 225.554 198.571 225.248 198.789C225.106 198.891 224.971 199.04 224.983 199.214C224.994 199.397 225.165 199.531 225.337 199.594C225.668 199.716 226.046 199.663 226.362 199.507C226.678 199.351 227.203 198.736 227.425 198.461Z" stroke="#7E58FF" stroke-width="0.25" stroke-miterlimit="10"/>
<path d="M163.422 196.717C160.827 192.293 155.021 180.339 167.574 178.414C180.127 176.49 221.258 197.586 221.258 197.586L218.38 205.485L179.734 198.205C179.734 198.205 184.837 205.469 178.403 204.955C169.057 203.749 166.873 201.435 163.422 196.717Z" fill="#263238"/>
<path opacity="0.2" d="M180.649 198.446L170.096 194.774C170.096 194.774 178.871 200.516 182.129 201.264L180.649 198.446Z" fill="black"/>
<path d="M175.013 135.051C177.852 132.327 177.284 124.932 176.527 121.114L185.465 128.015C185.284 128.462 185.135 128.922 185.018 129.389C184.776 130.226 184.754 131.112 184.954 131.96C185.147 132.658 186.048 134.583 186.048 134.583C186.048 134.583 186.602 136.761 180.805 136.991C178.273 137.367 175.013 135.051 175.013 135.051Z" fill="#895555"/>
<path opacity="0.2" d="M178.278 124.942C178.026 129.464 182.645 131.381 184.958 131.968C184.759 131.119 184.781 130.234 185.022 129.397L178.278 124.942Z" fill="black"/>
<path d="M174.875 117.842C176.231 123.089 176.888 126.076 180.168 128.258C185.102 131.541 191.235 127.931 191.517 122.369C191.772 117.363 189.511 109.623 183.763 108.565C178.099 107.522 173.519 112.595 174.875 117.842Z" fill="#895555"/>
<path d="M172.587 110.7C172.786 107.423 180.831 105.876 183.387 107.051C183.769 107.227 179.449 110.454 179.718 110.297L177.618 111.475C177.258 111.465 176.654 111.986 176.504 113.098C176.504 113.098 178.432 121.749 176.384 124.743C174.163 124.159 173.381 120.733 172.344 118.801C170.8 115.922 168.787 111.659 172.587 110.7Z" fill="#263238"/>
<path d="M173.572 122.673C174.271 123.959 175.517 124.8 176.7 125.119C178.48 125.601 178.754 123.754 178.278 122.11C177.849 120.63 177.045 118.88 175.25 119.124C173.481 119.364 172.772 121.204 173.572 122.673Z" fill="#895555"/>
<path d="M182.285 117.682C182.39 118.225 182.77 118.607 183.135 118.535C183.5 118.463 183.711 117.964 183.606 117.421C183.502 116.877 183.121 116.495 182.757 116.567C182.392 116.639 182.181 117.138 182.285 117.682Z" fill="#263238"/>
<path d="M187.798 117.043C187.902 117.587 188.283 117.969 188.648 117.897C189.012 117.824 189.224 117.326 189.119 116.782C189.015 116.239 188.634 115.856 188.269 115.929C187.905 116.001 187.693 116.5 187.798 117.043Z" fill="#263238"/>
<path d="M186.636 117.018C186.636 117.018 188.923 119.386 189.701 120.379C189.055 121.208 187.656 121.145 187.656 121.145L186.636 117.018Z" fill="#6D3939"/>
<path d="M181.122 115.603C181.213 115.62 181.311 115.591 181.377 115.518C182.166 114.644 183.137 114.759 183.147 114.76C183.292 114.779 183.428 114.68 183.449 114.538C183.471 114.397 183.37 114.267 183.225 114.248C183.174 114.241 181.957 114.096 180.979 115.181C180.882 115.289 180.892 115.452 181.002 115.545C181.037 115.576 181.079 115.594 181.122 115.603Z" fill="#263238"/>
<path opacity="0.2" d="M174.535 120.971C174.694 120.612 175.12 120.411 175.519 120.431C175.918 120.451 176.286 120.657 176.578 120.921C176.929 121.238 177.192 121.647 177.333 122.093" stroke="black" stroke-width="0.5" stroke-linecap="round" stroke-linejoin="round"/>
<path d="M190.451 114.237C190.497 114.218 190.539 114.186 190.569 114.141C190.651 114.021 190.619 113.86 190.498 113.781C189.282 112.989 188.158 113.464 188.105 113.479C187.97 113.536 187.907 113.69 187.964 113.821C188.021 113.952 188.175 114.012 188.309 113.956C188.355 113.935 189.225 113.58 190.202 114.215C190.278 114.265 190.372 114.27 190.451 114.237Z" fill="#263238"/>
<path d="M187.558 122.974C187.135 123.59 186.758 124.236 186.429 124.906C186.304 124.868 186.175 124.833 186.052 124.789C184.35 124.249 183.735 123.438 183.579 122.698C183.509 122.334 183.525 121.96 183.626 121.603C183.679 121.402 183.758 121.208 183.864 121.028C184.596 121.855 186.14 122.48 186.981 122.778C187.35 122.89 187.558 122.974 187.558 122.974Z" fill="#263238"/>
<path d="M187.001 122.767L186.652 123.329C185.054 122.818 183.997 122.248 183.646 121.593C183.698 121.391 183.778 121.197 183.883 121.017C184.62 121.852 186.159 122.469 187.001 122.767Z" fill="white"/>
<path d="M186.072 124.778C184.37 124.239 183.755 123.428 183.599 122.687C184.242 122.904 184.842 123.233 185.37 123.659C185.715 123.95 185.96 124.341 186.072 124.778Z" fill="#C15854"/>
<path d="M175.181 109.793C175.181 109.793 177.648 101.698 185.046 101.889C184.379 102.167 183.771 102.57 183.255 103.076C183.255 103.076 189.369 101.385 192.111 105.402L190.79 104.927C190.79 104.927 193.036 108.253 191.621 110.986L191.057 109.85C191.057 109.85 189.094 113.478 185.127 113.284L186.316 112.368C186.316 112.368 179.74 113.375 177.844 112.011C176.876 111.374 175.982 110.63 175.181 109.793Z" fill="#263238"/>
</svg>
