<svg width="301" height="145" viewBox="0 0 301 145" fill="none" xmlns="http://www.w3.org/2000/svg">
<path d="M103.011 96.3683L102.423 96.2925C102.437 96.1872 102.785 93.6936 105.246 92.1386C107.421 90.7646 106.678 86.4703 106.67 86.4271L107.253 86.3223C107.262 86.3699 107.462 87.503 107.368 88.8406C107.24 90.6601 106.615 91.9735 105.563 92.6386C103.335 94.0463 103.014 96.3453 103.011 96.3683Z" fill="#283689"/>
<path d="M106.8 96.4724C106.785 96.4455 105.357 93.7666 107.934 92.1385C110.062 90.7939 108.173 86.6191 108.153 86.577L108.692 86.3301C108.713 86.3769 109.221 87.4905 109.439 88.8111C109.739 90.6336 109.329 91.9572 108.25 92.6384C106.138 93.9731 107.27 96.0985 107.319 96.1883L106.8 96.4724Z" fill="#283689"/>
<path d="M294.843 134.029C294.793 134.14 294.744 134.25 294.695 134.36C294.595 134.58 294.497 134.796 294.397 135.009C293.732 136.444 293.068 137.734 292.441 138.871C292.419 138.91 292.398 138.948 292.377 138.987C290.29 142.749 286.791 145 283.049 145C275.095 145 259.405 144.999 242.021 144.998H239.652C230.178 144.996 220.289 144.996 210.94 144.994H208.147C193.109 144.993 179.758 144.991 172.222 144.987C172.222 144.987 134.326 144.857 95.5345 144.721C94.8782 144.719 94.2208 144.716 93.5646 144.714C82.2723 144.673 70.9574 144.633 60.5321 144.595C59.183 144.591 57.8493 144.586 56.532 144.581C43.1443 144.534 31.4978 144.49 23.661 144.459C18.1742 144.438 13.1091 141.318 9.84551 136.21C9.67375 135.942 9.50682 135.667 9.34572 135.387C8.70132 134.272 8.13981 133.073 7.67312 131.799C4.48554 123.092 1.03016 110.547 0.629883 96.3306H299.909C302.209 112.648 298.593 125.601 294.843 134.029Z" fill="#7B7AFF"/>
<path d="M230.035 126.21H61.7482L78.7097 108.954H215.254L230.035 126.21Z" fill="#505ABA"/>
<path d="M230.035 126.21H61.7483V128.415H230.035V126.21Z" fill="white"/>
<path d="M213.809 112.573H79.6801V113.162H213.809V112.573Z" fill="white"/>
<path d="M217.406 116.178H75.1332V116.768H217.406V116.178Z" fill="white"/>
<path d="M221.195 120.162H71.3442V120.751H221.195V120.162Z" fill="white"/>
<path d="M86.4242 109.916H80.36V111.732H86.4242V109.916Z" fill="white"/>
<path d="M132.875 109.916H126.811V111.732H132.875V109.916Z" fill="white"/>
<path d="M142.628 109.916H136.564V111.732H142.628V109.916Z" fill="white"/>
<path d="M168.555 109.916H162.491V111.732H168.555V109.916Z" fill="white"/>
<path d="M177.573 109.916H171.508V111.732H177.573V109.916Z" fill="white"/>
<path d="M187.326 109.916H181.261V111.732H187.326V109.916Z" fill="white"/>
<path d="M292.591 96.3301H291.4C288.712 92.4049 286.382 92.2234 281.867 91.8732C280.478 91.7663 278.902 91.6437 277.058 91.3958C272.945 90.844 271.593 88.6395 270.028 86.0864C269.319 84.93 268.588 83.7349 267.518 82.5271C264.235 78.8175 256.856 79.9011 256.782 79.9119L256.63 78.9323C256.954 78.8828 264.619 77.7527 268.262 81.8698C269.389 83.1442 270.179 84.4323 270.876 85.5686C272.425 88.097 273.545 89.9231 277.192 90.413C279.008 90.6565 280.567 90.7772 281.943 90.8843C286.854 91.2656 289.483 91.4686 292.591 96.3301Z" fill="white"/>
<path d="M252.979 103.146H230.707C228.691 103.146 227.056 101.514 227.056 99.5V77.2563C227.056 75.2426 228.691 73.6104 230.707 73.6104H252.979C254.995 73.6104 256.63 75.2426 256.63 77.2563V99.5C256.63 101.514 254.995 103.146 252.979 103.146Z" fill="#778DE8"/>
<path d="M251.981 87.7141C251.981 88.2444 251.94 88.7652 251.861 89.2737C251.842 89.3977 251.821 89.5203 251.796 89.6427C251.628 90.5169 251.347 91.351 250.97 92.1292C250.934 92.2036 250.897 92.278 250.858 92.3508C250.199 93.6314 249.272 94.7535 248.153 95.6449C248.092 95.6932 248.032 95.7411 247.97 95.7876C246.83 96.6541 245.5 97.285 244.053 97.6074H244.052L243.791 97.6633H243.789C243.423 97.7346 243.051 97.7873 242.67 97.8167C242.546 97.8276 242.424 97.8368 242.299 97.84H242.298C242.143 97.8493 241.986 97.8525 241.829 97.8525C240.749 97.8525 239.707 97.6836 238.729 97.3703C238.577 97.3222 238.427 97.271 238.278 97.2137C237.928 97.085 237.588 96.9361 237.259 96.7687C237.185 96.7314 237.112 96.6943 237.039 96.6556C235.628 95.8991 234.417 94.8201 233.506 93.5179C233.461 93.4543 233.416 93.3909 233.373 93.3258C232.747 92.3863 232.274 91.3368 231.988 90.2114C231.949 90.0579 231.914 89.9028 231.883 89.7463C231.805 89.3665 231.749 88.9804 231.715 88.5867C231.707 88.489 231.699 88.3915 231.695 88.2937V88.2923C231.684 88.0999 231.677 87.9078 231.677 87.7139C231.677 86.6597 231.839 85.6444 232.137 84.688C232.164 84.6042 232.191 84.5192 232.221 84.4354C232.696 83.0433 233.467 81.7875 234.458 80.7427C234.512 80.687 234.565 80.6312 234.621 80.5769C235.622 79.5662 236.836 78.7663 238.191 78.247C238.268 78.2159 238.346 78.1881 238.425 78.1601C239.49 77.7819 240.635 77.5757 241.829 77.5757C242.4 77.5757 242.961 77.6222 243.505 77.7137C243.602 77.7292 243.698 77.7462 243.794 77.7664C243.862 77.7788 243.931 77.7928 243.999 77.8082C244.132 77.8376 244.266 77.8686 244.398 77.9043C245.863 78.284 247.201 78.9864 248.33 79.9273C248.39 79.9768 248.449 80.0266 248.508 80.0793C249.702 81.1211 250.647 82.4372 251.247 83.9286C251.28 84.0044 251.31 84.0804 251.338 84.158C251.586 84.8167 251.766 85.5098 251.872 86.226C251.892 86.3593 251.909 86.4942 251.921 86.6291V86.6307C251.96 86.9872 251.981 87.3483 251.981 87.7141Z" fill="#E27227"/>
<path d="M248.153 95.6442C248.092 95.6925 248.032 95.7404 247.97 95.7869L246.618 94.2817L246.462 94.1095L243.684 91.0137L243.529 90.8416L240.392 87.349L240.237 87.1769L237.14 83.7277L236.985 83.5541L234.458 80.742C234.512 80.6863 234.565 80.6305 234.621 80.5762L237.157 83.4006L237.312 83.5728L240.409 87.0219L240.564 87.194L243.701 90.6867L243.856 90.8587L246.636 93.9546L246.79 94.1266L248.153 95.6442Z" fill="#1C3870"/>
<path d="M250.97 92.1293C250.934 92.2037 250.897 92.278 250.858 92.3508L249.929 91.3154L249.773 91.1432L246.995 88.0491L246.84 87.877L243.703 84.3844L243.548 84.2121L240.449 80.7614L240.296 80.5894L238.191 78.247C238.269 78.216 238.346 78.1881 238.425 78.1602L240.468 80.4359L240.623 80.608L243.72 84.0572L243.875 84.2292L247.012 87.7219L247.167 87.8941L249.946 90.9898L250.101 91.162L250.97 92.1293Z" fill="#1C3870"/>
<path d="M251.872 86.2256C251.892 86.3589 251.909 86.4938 251.921 86.6287L250.431 84.9699L250.278 84.7979L247.139 81.3039L246.986 81.1317L243.999 77.8081C244.133 77.8374 244.266 77.8685 244.398 77.9041L247.158 80.9766L247.313 81.1488L250.45 84.6428L250.604 84.8149L251.872 86.2256Z" fill="#1C3870"/>
<path d="M244.052 97.607L243.791 97.6628H243.79L243.367 97.1915L243.214 97.0194L240.434 93.9251L240.279 93.7531L237.143 90.2606L236.988 90.0868L233.89 86.6393L233.735 86.4658L232.137 84.6877C232.164 84.6039 232.192 84.5188 232.221 84.4351L233.907 86.3123L234.062 86.4844L237.16 89.9336L237.314 90.1057L240.453 93.5983L240.606 93.7704L243.386 96.8662L243.541 97.0383L244.052 97.607Z" fill="#1C3870"/>
<path d="M243.794 77.7665L240.623 80.6079L240.449 80.7613L237.312 83.5735L237.14 83.7285L234.062 86.4847L233.89 86.6398L231.715 88.5867C231.707 88.4891 231.7 88.3916 231.695 88.2938V88.2923L233.734 86.4662L233.907 86.3127L236.985 83.5548L237.157 83.4015L240.296 80.5894L240.468 80.436L243.506 77.7139C243.602 77.7293 243.698 77.7463 243.794 77.7665Z" fill="#1C3870"/>
<path d="M248.508 80.0791L247.313 81.1488L247.139 81.3039L243.875 84.2289L243.703 84.3841L240.564 87.1946L240.392 87.3496L237.314 90.1059L237.143 90.261L234.483 92.642L234.31 92.7971L233.506 93.5178C233.461 93.4541 233.416 93.3908 233.373 93.3257L234.157 92.6249L234.329 92.4699L236.988 90.0871L237.16 89.9338L240.237 87.1775L240.409 87.0225L243.547 84.2119L243.72 84.0569L246.986 81.1317L247.158 80.9767L248.33 79.9272C248.39 79.9768 248.449 80.0264 248.508 80.0791Z" fill="#1C3870"/>
<path d="M251.338 84.1581L250.604 84.8154L250.431 84.9703L247.167 87.8941L246.995 88.0491L243.856 90.8596L243.684 91.0145L240.606 93.7709L240.434 93.9258L237.775 96.307L237.603 96.4619L237.26 96.7688C237.185 96.7316 237.112 96.6945 237.039 96.6557L237.447 96.2899L237.62 96.1349L240.279 93.7538L240.452 93.5987L243.529 90.8425L243.701 90.6875L246.84 87.8769L247.012 87.7219L250.278 84.7983L250.45 84.6432L251.248 83.9287C251.281 84.0046 251.31 84.0805 251.338 84.1581Z" fill="#1C3870"/>
<path d="M251.861 89.2734C251.842 89.3975 251.821 89.52 251.796 89.6424L250.101 91.1616L249.928 91.3149L246.79 94.127L246.618 94.2821L243.541 97.0383L243.367 97.1918L242.67 97.8166C242.546 97.8275 242.424 97.8366 242.299 97.8398L243.214 97.0198L243.386 96.8663L246.462 94.1101L246.636 93.9551L249.773 91.1429L249.946 90.9894L251.861 89.2734Z" fill="#1C3870"/>
<path d="M238.73 97.3697C238.577 97.3215 238.427 97.2704 238.278 97.2131L237.603 96.4611L237.447 96.2891L234.31 92.7965L234.157 92.6244L231.988 90.2107C231.95 90.0572 231.914 89.9022 231.883 89.7456L234.329 92.4693L234.483 92.6415L237.62 96.1341L237.775 96.3061L238.73 97.3697Z" fill="#1C3870"/>
<path d="M252.979 73.7051H230.707C228.691 73.7051 227.056 72.0728 227.056 70.0591V47.8153C227.056 45.8019 228.691 44.1694 230.707 44.1694H252.979C254.995 44.1694 256.63 45.8019 256.63 47.8153V70.0591C256.63 72.0726 254.995 73.7051 252.979 73.7051Z" fill="#8C9DF4"/>
<path d="M251.981 58.2732C251.981 58.8034 251.94 59.3242 251.861 59.8328C251.842 59.9568 251.821 60.0793 251.796 60.2017C251.628 61.0761 251.347 61.9101 250.97 62.6883C250.934 62.7627 250.897 62.8371 250.858 62.9098C250.199 64.1904 249.272 65.3127 248.153 66.2041C248.092 66.2522 248.032 66.3001 247.97 66.3467C246.83 67.2133 245.5 67.8442 244.053 68.1666H244.052L243.791 68.2223H243.789C243.423 68.2936 243.051 68.3463 242.67 68.3758C242.546 68.3867 242.424 68.396 242.299 68.3991H242.298C242.143 68.4084 241.986 68.4116 241.829 68.4116C240.749 68.4116 239.707 68.2426 238.729 67.9294C238.577 67.8814 238.427 67.8301 238.278 67.7728C237.928 67.6441 237.588 67.4953 237.259 67.3279C237.185 67.2906 237.112 67.2534 237.039 67.2146C235.628 66.4583 234.417 65.3793 233.506 64.0771C233.461 64.0133 233.416 63.95 233.373 63.8847C232.747 62.9454 232.274 61.896 231.988 60.7704C231.949 60.617 231.914 60.462 231.883 60.3053C231.805 59.9255 231.749 59.5395 231.715 59.1458C231.707 59.0482 231.699 58.9506 231.695 58.8528V58.8512C231.684 58.6591 231.677 58.4668 231.677 58.273C231.677 57.219 231.839 56.2035 232.137 55.2471C232.164 55.1634 232.191 55.0781 232.221 54.9944C232.696 53.6023 233.467 52.3467 234.458 51.3019C234.512 51.2461 234.565 51.1903 234.621 51.1359C235.622 50.1252 236.836 49.3254 238.191 48.8059C238.268 48.7751 238.346 48.7472 238.425 48.7193C239.49 48.341 240.635 48.1348 241.829 48.1348C242.4 48.1348 242.961 48.1813 243.505 48.2728C243.602 48.2882 243.698 48.3054 243.794 48.3254C243.862 48.3379 243.931 48.3518 243.999 48.3673C244.132 48.3968 244.266 48.4278 244.398 48.4635C245.863 48.8432 247.201 49.5453 248.33 50.4864C248.39 50.5359 248.449 50.5857 248.508 50.6384C249.702 51.6803 250.647 52.9964 251.247 54.4875C251.28 54.5634 251.31 54.6395 251.338 54.717C251.586 55.3758 251.766 56.0687 251.872 56.785C251.892 56.9181 251.909 57.0532 251.921 57.1879V57.1895C251.96 57.5462 251.981 57.9075 251.981 58.2732Z" fill="#E27227"/>
<path d="M248.153 66.2039C248.092 66.252 248.032 66.2999 247.97 66.3465L246.618 64.8412L246.462 64.6691L243.684 61.5733L243.529 61.4013L240.392 57.9085L240.237 57.7365L237.14 54.2873L236.985 54.1138L234.458 51.3017C234.512 51.2459 234.565 51.1901 234.621 51.1357L237.157 53.9602L237.312 54.1322L240.409 57.5816L240.564 57.7536L243.701 61.2461L243.856 61.4183L246.636 64.514L246.79 64.6862L248.153 66.2039Z" fill="#1C3870"/>
<path d="M250.97 62.6882C250.934 62.7626 250.897 62.837 250.858 62.9098L249.929 61.8745L249.773 61.7022L246.995 58.608L246.84 58.4359L243.703 54.9434L243.548 54.7712L240.449 51.3204L240.296 51.1484L238.191 48.8059C238.269 48.7751 238.346 48.7471 238.425 48.7192L240.468 50.995L240.623 51.1671L243.72 54.6161L243.875 54.7883L247.012 58.281L247.167 58.453L249.946 61.5489L250.101 61.7209L250.97 62.6882Z" fill="#1C3870"/>
<path d="M251.872 56.7852C251.892 56.9184 251.909 57.0534 251.921 57.1882L250.431 55.5296L250.278 55.3574L247.139 51.8633L246.986 51.6913L243.999 48.3677C244.133 48.3971 244.266 48.4282 244.398 48.4638L247.158 51.5362L247.313 51.7083L250.45 55.2025L250.604 55.3745L251.872 56.7852Z" fill="#1C3870"/>
<path d="M244.052 68.1667L243.791 68.2224H243.79L243.367 67.7511L243.214 67.5789L240.434 64.4848L240.279 64.3127L237.143 60.8201L236.988 60.6465L233.89 57.1989L233.735 57.0252L232.137 55.2472C232.164 55.1636 232.192 55.0783 232.221 54.9946L233.907 56.8719L234.062 57.0441L237.16 60.4931L237.314 60.6652L240.453 64.1579L240.606 64.33L243.386 67.4258L243.541 67.5979L244.052 68.1667Z" fill="#1C3870"/>
<path d="M243.794 48.3255L240.623 51.1672L240.449 51.3205L237.312 54.1326L237.14 54.2877L234.062 57.0439L233.89 57.1989L231.715 59.1458C231.707 59.0483 231.7 58.9507 231.695 58.8529V58.8513L233.734 57.0251L233.907 56.8718L236.985 54.114L237.157 53.9606L240.296 51.1485L240.468 50.9952L243.506 48.2729C243.602 48.2885 243.698 48.3056 243.794 48.3255Z" fill="#1C3870"/>
<path d="M248.508 50.6387L247.313 51.7084L247.139 51.8633L243.875 54.7886L243.703 54.9437L240.564 57.7542L240.392 57.9091L237.314 60.6653L237.143 60.8205L234.483 63.2015L234.31 63.3564L233.506 64.0773C233.461 64.0136 233.416 63.9502 233.373 63.885L234.157 63.1844L234.329 63.0294L236.988 60.6467L237.16 60.4932L240.237 57.7371L240.409 57.5822L243.547 54.7716L243.72 54.6165L246.986 51.6913L247.158 51.5362L248.33 50.4868C248.39 50.5363 248.449 50.586 248.508 50.6387Z" fill="#1C3870"/>
<path d="M251.338 54.7174L250.604 55.3746L250.431 55.5297L247.167 58.4532L246.995 58.6082L243.856 61.4188L243.684 61.5738L240.606 64.33L240.434 64.485L237.775 66.866L237.603 67.0211L237.26 67.3282C237.185 67.2909 237.112 67.2537 237.039 67.2149L237.447 66.8492L237.62 66.6941L240.279 64.313L240.452 64.1581L243.529 61.4018L243.701 61.2466L246.84 58.4362L247.012 58.2812L250.278 55.3575L250.45 55.2025L251.248 54.4878C251.281 54.5639 251.31 54.6399 251.338 54.7174Z" fill="#1C3870"/>
<path d="M251.861 59.8325C251.842 59.9565 251.821 60.0791 251.796 60.2015L250.101 61.7206L249.928 61.8741L246.79 64.6861L246.618 64.8412L243.541 67.5974L243.367 67.7509L242.67 68.3757C242.546 68.3865 242.424 68.3958 242.299 68.3989L243.214 67.5789L243.386 67.4255L246.462 64.6693L246.636 64.5142L249.773 61.7021L249.946 61.5488L251.861 59.8325Z" fill="#1C3870"/>
<path d="M238.73 67.9292C238.577 67.8812 238.427 67.83 238.278 67.7727L237.603 67.0208L237.447 66.8488L234.31 63.356L234.157 63.184L231.988 60.7703C231.95 60.6168 231.914 60.4619 231.883 60.3052L234.329 63.029L234.483 63.201L237.62 66.6937L237.775 66.8657L238.73 67.9292Z" fill="#1C3870"/>
<path d="M245.827 121.988L261.515 107.891C262.154 107.316 263.9 106.922 265.413 107.009L285.539 108.172C287.053 108.26 287.761 108.796 287.122 109.371L271.434 123.468C270.795 124.042 269.049 124.437 267.536 124.35L247.41 123.186C245.896 123.099 245.188 122.562 245.827 121.988Z" fill="#1B376D"/>
<path d="M287.357 108.707V106.997L245.981 120.289L245.624 120.659L245.591 122.469L263.872 123.066L287.357 108.707Z" fill="#1B376D"/>
<path d="M265.126 105.241L284.91 106.384C286.498 106.476 287.241 107.039 286.571 107.642L271.824 120.893C270.858 121.76 268.222 122.357 265.937 122.225L248.21 121.2C246.527 121.103 245.739 120.506 246.45 119.867L261.921 105.966C262.447 105.494 263.882 105.169 265.126 105.241Z" fill="#505ABA"/>
<path d="M287.351 107C287.283 106.629 286.614 106.343 285.539 106.28L265.413 105.117C263.899 105.029 262.155 105.425 261.516 105.999L245.828 120.094C245.607 120.292 245.546 120.486 245.624 120.658V120.659C245.733 120.898 246.108 121.096 246.693 121.209H246.695C246.907 121.249 247.146 121.279 247.409 121.294L265.097 122.316H265.098L267.536 122.457C269.05 122.545 270.796 122.15 271.433 121.576L282.338 111.775L282.339 111.774L286.254 108.257L287.121 107.479C287.281 107.334 287.357 107.194 287.357 107.061C287.357 107.04 287.354 107.02 287.351 107ZM286.427 107.437L285.605 108.176L285.603 108.177L280.037 113.182L280.029 113.189L270.948 121.346L270.947 121.347L270.775 121.502L270.774 121.504L270.739 121.536C270.261 121.965 268.958 122.259 267.829 122.193L267.747 122.19H267.742L265.517 122.06L247.703 121.031C247.435 121.014 247.199 120.98 247.004 120.93C246.377 120.774 246.157 120.464 246.52 120.135L246.556 120.105L246.558 120.103L246.73 119.948L262.209 106.038C262.686 105.611 263.99 105.316 265.12 105.381L285.245 106.543C286.205 106.599 286.731 106.897 286.575 107.248C286.549 107.311 286.5 107.372 286.427 107.437Z" fill="white"/>
<path d="M247.098 121.136L267.583 122.32C268.96 122.4 270.547 122.04 271.128 121.518L271.295 121.368L246.383 119.928L245.981 120.29C245.529 120.695 246.029 121.074 247.098 121.136Z" fill="white"/>
<path d="M294.843 134.029C294.793 134.14 294.744 134.25 294.695 134.36C294.595 134.58 294.497 134.797 294.398 135.01C290.613 134.978 285.8 135.305 280.795 135.647C267.851 136.53 254.468 137.442 250.195 133.297C248.782 131.923 248.276 130.47 248.688 128.974C249.334 126.637 252.102 124.727 254.194 123.579C254.194 123.578 254.195 123.578 254.195 123.578C254.78 123.256 255.315 122.995 255.734 122.801H255.735C256.247 122.563 256.59 122.425 256.65 122.402L256.939 122.84L257.228 123.279C257.212 123.285 256.845 123.432 256.282 123.7C254.471 124.555 250.633 126.636 249.93 129.181C249.597 130.39 250.004 131.534 251.183 132.678C255.033 136.413 268.662 135.484 280.685 134.664C285.902 134.308 290.914 133.967 294.843 134.029Z" fill="#1B376D"/>
<path d="M220.131 0H71.6525V87.0535H220.131V0Z" fill="#F99746"/>
<path d="M220.131 0H71.6525V73.1465H220.131V0Z" fill="#283689"/>
<path d="M165.324 101.236V103.35H121.727V101.236C124.807 101.236 127.331 98.8608 127.564 95.8452C127.575 95.6946 127.581 95.5416 127.581 95.3887V87.0537H159.469V95.3887C159.469 95.5416 159.475 95.6948 159.487 95.8452C159.598 97.2771 160.225 98.5658 161.183 99.5238C162.243 100.581 163.707 101.236 165.324 101.236Z" fill="#F99746"/>
<g opacity="0.7">
<path d="M159.469 87.0537H127.581V88.7953H159.469V87.0537Z" fill="#D86713"/>
</g>
<g opacity="0.7">
<path d="M165.324 101.235H121.727C124.807 101.235 127.331 98.8603 127.564 95.8447H159.487C159.598 97.2766 160.225 98.5653 161.183 99.5233C162.243 100.581 163.707 101.235 165.324 101.235Z" fill="#D86713"/>
</g>
<path d="M217.914 1.92627H73.5773V70.3879H217.914V1.92627Z" fill="#505ABA"/>
<g opacity="0.1">
<path d="M107.926 5.08545H76.978V35.9937H107.926V5.08545Z" fill="#DDE7FE"/>
</g>
<g opacity="0.1">
<path d="M107.926 39.396H76.978V67.5549H107.926V39.396Z" fill="#DDE7FE"/>
</g>
<g opacity="0.1">
<path d="M213.594 42.9404H113.921V67.5553H213.594V42.9404Z" fill="#DDE7FE"/>
</g>
<path d="M177.632 5.08447H113.922V39.9058H177.632V5.08447Z" fill="#EBF2F9"/>
<path d="M174.603 14.5859V39.9062H113.922V20.999H116.188V22.1724H118.05V21.491H119.776V18.7879H120.636V17.5268H120.766V18.7879H122.83V16.4243H123.033V18.7879H124.397V18.7548H124.395V18.4554H124.397V18.1716H124.395V17.6983H124.397V17.3966H124.395V16.9247H124.397V16.6229H124.395V16.1509H124.397V15.8241H124.395V15.3511H124.397V14.9371H124.395V14.4638H124.397V14.1516H124.803V13.7979H124.868V14.1516H127.882V13.7979H127.946V14.1516H128.497V16.6229L128.883 16.6242V16.6229H128.881V16.1509H128.883V15.8241H128.881V15.3511H128.883V15.027H128.881V14.5551H128.883V14.5527H132.536V14.5551H133.165C133.197 14.5669 133.229 14.5798 133.262 14.5916V17.289H135.932V20.8309H138.089V14.2804H138.559V13.8226H138.644V14.2804H140.347V13.8226H140.431V14.2804H142.844V13.8226H142.928V14.2804H144.447V13.8226H144.531V14.2804H145.155V20.3943H147.54V19.4064L150.352 19.4146V17.8117H150.918V17.4958H150.993V17.8117H153.164V17.8129H153.599V17.4958H153.673V17.8129H154.197V20.9988H157.546V22.1722H159.407V21.4907H161.132V18.7879H161.994V17.5268H162.123V18.7879H164.186V16.4243H164.389V18.7879H165.753V18.7548H165.751V18.4554H165.753V18.1716H165.751V17.6983H165.753V17.3966H165.751V16.9247H165.753V16.6229H165.751V16.1509H165.753V15.8241H165.751V15.3511H165.753V14.9371H165.751V14.4638H165.753V14.1516H166.161V13.7979H166.226V14.1516H169.238V13.7979H169.303V14.1516H169.853V16.6229L170.235 16.6242H170.24V16.6229H170.237V16.1509H170.24V15.8241H170.237V15.3511H170.24V15.027H170.237V14.5551H170.24V14.5527H173.894V14.5551H174.521C174.548 14.5646 174.574 14.5763 174.603 14.5859Z" fill="#D5E5FB"/>
<path d="M145.155 14.2808H139.765V15.3169H145.155V14.2808Z" fill="#E2EEFD"/>
<path d="M168.275 14.1519H165.76V14.782H168.275V14.1519Z" fill="#E2EEFD"/>
<path d="M168.275 15.1201H165.76V15.7503H168.275V15.1201Z" fill="#E2EEFD"/>
<path d="M168.275 16.1094H165.76V16.7397H168.275V16.1094Z" fill="#E2EEFD"/>
<path d="M168.275 17.1143H165.76V17.7444H168.275V17.1143Z" fill="#E2EEFD"/>
<path d="M168.275 18.0835H165.76V18.7137H168.275V18.0835Z" fill="#E2EEFD"/>
<path d="M168.275 19.1504H165.76V19.7805H168.275V19.1504Z" fill="#E2EEFD"/>
<path d="M168.275 20.1191H165.76V20.7493H168.275V20.1191Z" fill="#E2EEFD"/>
<path d="M168.275 21.1079H165.76V21.7381H168.275V21.1079Z" fill="#E2EEFD"/>
<path d="M168.275 22.1128H165.76V22.743H168.275V22.1128Z" fill="#E2EEFD"/>
<path d="M168.275 23.082H165.76V23.7122H168.275V23.082Z" fill="#E2EEFD"/>
<path d="M127.067 14.1519H124.372V14.782H127.067V14.1519Z" fill="#E2EEFD"/>
<path d="M127.067 15.1201H124.372V15.7503H127.067V15.1201Z" fill="#E2EEFD"/>
<path d="M127.067 16.1094H124.372V16.7397H127.067V16.1094Z" fill="#E2EEFD"/>
<path d="M127.067 17.1143H124.372V17.7444H127.067V17.1143Z" fill="#E2EEFD"/>
<path d="M127.067 18.0835H124.372V18.7137H127.067V18.0835Z" fill="#E2EEFD"/>
<path d="M127.067 19.1504H124.372V19.7805H127.067V19.1504Z" fill="#E2EEFD"/>
<path d="M127.067 20.1191H124.372V20.7493H127.067V20.1191Z" fill="#E2EEFD"/>
<path d="M127.067 21.1079H124.372V21.7381H127.067V21.1079Z" fill="#E2EEFD"/>
<path d="M127.067 22.1128H124.372V22.743H127.067V22.1128Z" fill="#E2EEFD"/>
<path d="M127.067 23.082H124.372V23.7122H127.067V23.082Z" fill="#E2EEFD"/>
<path d="M131.998 14.5645H128.935V15.1946H131.998V14.5645Z" fill="#E2EEFD"/>
<path d="M131.999 15.5332H128.936V16.1634H131.999V15.5332Z" fill="#E2EEFD"/>
<path d="M131.999 16.5225H128.936V17.1526H131.999V16.5225Z" fill="#E2EEFD"/>
<path d="M131.999 17.5269H128.936V18.157H131.999V17.5269Z" fill="#E2EEFD"/>
<path d="M131.999 18.4966H128.936V19.1267H131.999V18.4966Z" fill="#E2EEFD"/>
<path d="M131.998 19.5068H128.935V20.1371H131.998V19.5068Z" fill="#E2EEFD"/>
<path d="M131.999 20.4756H128.936V21.1057H131.999V20.4756Z" fill="#E2EEFD"/>
<path d="M131.999 21.4639H128.936V22.094H131.999V21.4639Z" fill="#E2EEFD"/>
<path d="M131.999 22.4692H128.936V23.0994H131.999V22.4692Z" fill="#E2EEFD"/>
<path d="M131.999 23.438H128.936V24.0683H131.999V23.438Z" fill="#E2EEFD"/>
<path d="M169.164 11.9738H168.927L168.93 11.9553L169.001 11.3238C169.003 11.3034 169.021 11.2881 169.041 11.2881C169.044 11.2881 169.046 11.2883 169.049 11.2886C169.062 11.2903 169.074 11.296 169.084 11.3046C169.095 11.3149 169.102 11.3291 169.104 11.3453L169.164 11.9738Z" fill="#9DB0F4"/>
<path d="M168.95 11.8305L168.942 11.8308L169.001 11.3238C169.003 11.3035 169.02 11.2881 169.041 11.2881C169.044 11.2881 169.046 11.2883 169.049 11.2886C169.051 11.2906 169.053 11.2924 169.055 11.2945C169.065 11.3057 169.072 11.3206 169.072 11.3369L169.075 11.7012C169.076 11.7713 169.02 11.8289 168.95 11.8305Z" fill="#AFCDFB"/>
<path d="M169.315 14.7793H168.859V34.9088H169.315V14.7793Z" fill="#9DB0F4"/>
<path d="M169.069 14.7793H168.859V34.9088H169.069V14.7793Z" fill="#AEC3FF"/>
<path d="M169.814 31.6968H168.36V37.0228H169.814V31.6968Z" fill="#9DB0F4"/>
<path d="M169.226 31.6968H168.36V37.0228H169.226V31.6968Z" fill="#AEC3FF"/>
<path d="M169.881 12.2767C169.881 12.5254 169.507 12.7269 169.046 12.7269C169.011 12.7269 168.976 12.7258 168.942 12.7235C168.53 12.696 168.21 12.5064 168.21 12.2768C168.21 12.0471 168.53 11.8576 168.942 11.8301C168.976 11.8278 169.011 11.8267 169.046 11.8267C169.507 11.8264 169.881 12.028 169.881 12.2767Z" fill="#9DB0F4"/>
<path d="M169.449 12.2767C169.449 12.4772 169.24 12.6494 168.942 12.7234C168.53 12.6959 168.21 12.5063 168.21 12.2767C168.21 12.047 168.53 11.8576 168.942 11.8301C169.24 11.9041 169.449 12.0762 169.449 12.2767Z" fill="#AEC3FF"/>
<path d="M169.812 15.176H168.358L167.845 12.7109H170.246L169.812 15.176Z" fill="#AEC3FF"/>
<path d="M170.376 12.5254H167.716V12.7621H170.376V12.5254Z" fill="#9DB0F4"/>
<path d="M169.388 12.5254H167.716V12.7621H169.388V12.5254Z" fill="#AEC3FF"/>
<path d="M168.598 31.6971H169.527L169.391 31.2849C169.379 31.2483 169.345 31.2236 169.306 31.2236H168.871C168.824 31.2236 168.781 31.252 168.763 31.2958L168.598 31.6971Z" fill="#819DEA"/>
<path d="M168.017 12.8306H170.068L169.667 15.0462H168.49L168.017 12.8306Z" fill="#C5D7FF"/>
<path d="M170.206 12.5255H167.886L168.076 12.2549H170.025L170.206 12.5255Z" fill="#9DB0F4"/>
<path d="M169.634 12.5255H167.886L168.076 12.2549H169.454L169.634 12.5255Z" fill="#AEC3FF"/>
<path d="M128.579 37.0441L113.922 37.0393V33.4653C113.97 33.4879 114.017 33.5103 114.064 33.534C116.064 34.5515 115.802 35.906 118.278 35.4091C120.753 34.9134 122.796 34.7051 123.904 35.4091C125.013 36.1143 125.827 35.8338 127.206 35.8291C128.349 35.8255 128.544 36.7341 128.579 37.0441Z" fill="#A8D29F"/>
<path d="M131.62 32.9496H117.654L117.009 29.6714H130.949L131.62 32.9496Z" fill="#D36D1A"/>
<path d="M131.859 32.9496H117.893L117.247 29.6714H131.188L131.859 32.9496Z" fill="#F49540"/>
<path d="M121.776 33.3516H117.96C117.791 33.3516 117.654 33.2147 117.654 33.0459V32.9497H121.776V33.3516Z" fill="#D36D1A"/>
<path d="M134.429 32.9497H121.745V33.3516H134.429V32.9497Z" fill="#FFA255"/>
<path d="M118.488 33.3506L118.249 34.2896C118.249 34.2901 118.249 34.2901 118.249 34.2907L117.541 37.0723C117.531 37.1088 117.499 37.1341 117.462 37.1341C117.39 37.1341 117.335 37.0685 117.35 36.9983L117.981 33.7537L118.06 33.3506H118.488Z" fill="#FFA255"/>
<path d="M118.249 34.2896C118.272 33.8091 117.981 33.7537 117.981 33.7537L118.06 33.3506H118.488L118.249 34.2896Z" fill="#D36D1A"/>
<path d="M121.517 33.3506L121.278 34.2896C121.278 34.2901 121.278 34.2901 121.278 34.2907L120.57 37.0723C120.561 37.1088 120.528 37.1341 120.491 37.1341C120.419 37.1341 120.365 37.0685 120.379 36.9983L121.01 33.7537L121.089 33.3506H121.517Z" fill="#FFA255"/>
<path d="M121.278 34.2896C121.301 33.8091 121.011 33.7537 121.011 33.7537L121.089 33.3506H121.517L121.278 34.2896Z" fill="#D36D1A"/>
<path d="M133.272 33.3506L133.511 34.2896C133.511 34.2901 133.511 34.2901 133.511 34.2907L134.219 37.0723C134.228 37.1088 134.261 37.1341 134.298 37.1341C134.37 37.1341 134.424 37.0685 134.41 36.9983L133.779 33.7537L133.7 33.3506H133.272Z" fill="#FFA255"/>
<path d="M133.511 34.2896C133.488 33.8091 133.779 33.7537 133.779 33.7537L133.7 33.3506H133.272L133.511 34.2896Z" fill="#D36D1A"/>
<path d="M130.242 33.3506L130.481 34.2896C130.481 34.2901 130.481 34.2901 130.481 34.2907L131.189 37.0723C131.199 37.1088 131.232 37.1341 131.269 37.1341C131.34 37.1341 131.395 37.0685 131.381 36.9983L130.749 33.7537L130.671 33.3506H130.242Z" fill="#FFA255"/>
<path d="M130.481 34.2896C130.458 33.8091 130.749 33.7537 130.749 33.7537L130.671 33.3506H130.242L130.481 34.2896Z" fill="#D36D1A"/>
<path d="M122.629 14.0548C122.269 14.2629 121.844 14.3955 121.384 14.4262C119.362 14.5528 118.66 15.3039 117.025 16.8941C116.146 17.7458 114.934 17.9303 113.922 17.9599V7.15771C114.208 7.36131 114.5 7.57059 114.8 7.76936C115.912 8.51455 117.119 9.11915 118.439 8.79847C119.766 8.47557 120.79 8.49562 121.592 8.75367C122.616 9.07546 123.286 9.77572 123.766 10.6345C124.429 11.8141 123.855 13.3544 122.629 14.0548Z" fill="#A8D29F"/>
<path d="M139.143 10.2363C139.143 9.73639 139.549 9.33105 140.049 9.33105C140.55 9.33105 140.955 9.73639 140.955 10.2363C140.955 10.7359 140.55 11.1411 140.049 11.1411C139.549 11.1411 139.143 10.7359 139.143 10.2363Z" fill="#F8FCFF"/>
<path d="M154.062 9.43033C154.062 9.43033 154.849 8.16657 156.732 8.30704C156.732 8.30704 159.465 6.20068 162.38 8.02609C162.38 8.02609 165.478 7.57373 167.773 8.41769C169.303 8.98032 169.808 9.57056 169.808 9.57056L154.062 9.43033Z" fill="#F8FCFF"/>
<g opacity="0.5">
<path d="M163.468 12.6773C163.468 12.6773 163.983 11.8506 165.215 11.9425C165.215 11.9425 167.003 10.565 168.909 11.7588C168.909 11.7588 170.936 11.463 172.436 12.015C173.437 12.3831 173.767 12.7691 173.767 12.7691L163.468 12.6773Z" fill="#F8FCFF"/>
</g>
<g opacity="0.5">
<path d="M125.012 12.105C125.012 12.105 125.527 11.2785 126.759 11.3703C126.759 11.3703 128.547 9.99256 130.453 11.1866C130.453 11.1866 132.48 10.8907 133.98 11.4427C134.981 11.8107 135.311 12.1968 135.311 12.1968L125.012 12.105Z" fill="#F8FCFF"/>
</g>
<path d="M177.632 37.0225H113.922V39.9063H177.632V37.0225Z" fill="#9DB0F4"/>
<path d="M154.063 36.1404C154.063 36.1404 153.75 35.0093 154.602 33.909C155.453 32.8087 156.897 33.1045 156.897 33.1045C156.897 33.1045 157.098 33.4143 156.699 33.6591C156.301 33.9042 154.911 33.4136 154.561 35.8234C154.561 35.8234 154.394 36.3218 154.063 36.1404Z" fill="#F99746"/>
<path d="M143.259 19.8629C143.259 19.5797 143.489 19.3501 143.773 19.3501C144.056 19.3501 144.286 19.5798 144.286 19.8629C144.286 20.146 144.056 20.3756 143.773 20.3756C143.489 20.3755 143.259 20.146 143.259 19.8629Z" fill="#ED7D2B"/>
<path d="M155.69 35.4686C155.69 35.0712 156.012 34.749 156.41 34.749C156.808 34.749 157.13 35.0712 157.13 35.4686C157.13 35.8659 156.808 36.188 156.41 36.188C156.012 36.188 155.69 35.8658 155.69 35.4686Z" fill="#9DB0F4"/>
<path d="M139.722 34.9191C139.722 34.311 140.216 33.8179 140.825 33.8179C141.434 33.8179 141.927 34.311 141.927 34.9191C141.927 35.5274 141.434 36.0205 140.825 36.0205C140.216 36.0205 139.722 35.5274 139.722 34.9191Z" fill="#9DB0F4"/>
<path d="M142.553 20.3459L140.802 33.0928L141.238 33.1525L142.989 20.4057L142.553 20.3459Z" fill="#131375"/>
<path d="M141.475 20.7792V20.2866L143.718 19.7964L143.866 20.2105L141.475 20.7792Z" fill="#ED7D2B"/>
<path d="M140.861 37.0099C139.728 37.0099 138.807 36.0899 138.807 34.9594C138.807 33.8284 139.729 32.9087 140.861 32.9087C141.993 32.9087 142.914 33.8285 142.914 34.9594C142.914 36.0899 141.993 37.0099 140.861 37.0099ZM140.861 33.3233C139.958 33.3233 139.223 34.0572 139.223 34.9594C139.223 35.8614 139.958 36.5953 140.861 36.5953C141.764 36.5953 142.499 35.8614 142.499 34.9594C142.499 34.0571 141.764 33.3233 140.861 33.3233Z" fill="#060633"/>
<path d="M156.41 36.9674C155.583 36.9674 154.91 36.2951 154.91 35.4689C154.91 34.6425 155.583 33.9702 156.41 33.9702C157.237 33.9702 157.911 34.6426 157.911 35.4689C157.911 36.2951 157.237 36.9674 156.41 36.9674ZM156.41 34.2997C155.765 34.2997 155.24 34.8241 155.24 35.4688C155.24 36.1132 155.765 36.6376 156.41 36.6376C157.056 36.6376 157.581 36.1132 157.581 35.4688C157.581 34.8241 157.056 34.2997 156.41 34.2997Z" fill="#060633"/>
<path d="M154.195 36.3278H144.003C143.821 36.3278 143.672 36.179 143.672 35.997V35.839C143.672 35.6571 143.821 35.5083 144.003 35.5083H154.195C154.377 35.5083 154.526 35.6571 154.526 35.839V35.997C154.526 36.179 154.377 36.3278 154.195 36.3278Z" fill="#131375"/>
<path d="M154.314 36.3317C154.245 36.3317 154.181 36.2879 154.158 36.219C154.129 36.1327 154.175 36.0393 154.262 36.0104L156.358 35.3118C156.444 35.2828 156.538 35.3296 156.567 35.4159C156.596 35.5022 156.549 35.5955 156.462 35.6244L154.366 36.323C154.349 36.3289 154.331 36.3317 154.314 36.3317Z" fill="#131375"/>
<path d="M141.428 29.9127L144.941 35.5255H145.833L141.615 28.8696L141.428 29.9127Z" fill="#131375"/>
<path d="M141.629 33.1586L141.307 33.0605L140.97 34.1632C140.859 34.5285 140.507 34.7665 140.126 34.7343L139.06 34.6445L139.031 34.9799L140.101 35.0699C140.544 35.1071 140.945 35.3486 141.184 35.7227L141.75 36.6078L142.034 36.4266L141.487 35.5717C141.232 35.1725 141.164 34.6816 141.303 34.2284L141.629 33.1586Z" fill="#060633"/>
<path d="M156.893 34.3206L156.684 34.2568L156.465 34.9733C156.393 35.2108 156.164 35.3655 155.917 35.3446L155.223 35.2862L155.205 35.5041L155.9 35.5627C156.188 35.5868 156.448 35.7438 156.604 35.9869L156.972 36.5621L157.156 36.4443L156.801 35.8891C156.635 35.6295 156.591 35.3106 156.681 35.0161L156.893 34.3206Z" fill="#060633"/>
<path d="M156.215 35.4423C156.215 35.3512 156.289 35.2773 156.38 35.2773C156.471 35.2773 156.545 35.3512 156.545 35.4423C156.545 35.5335 156.471 35.6075 156.38 35.6075C156.289 35.6075 156.215 35.5335 156.215 35.4423Z" fill="#F99746"/>
<path d="M140.66 34.9195C140.66 34.8284 140.734 34.7544 140.825 34.7544C140.916 34.7544 140.99 34.8284 140.99 34.9195C140.99 35.0107 140.916 35.0847 140.825 35.0847C140.734 35.0847 140.66 35.0107 140.66 34.9195Z" fill="#F99746"/>
<path d="M139.567 32.794C139.567 32.794 140.529 32.1211 141.852 32.5538C143.176 32.9863 143.38 34.4438 143.38 34.4438C143.38 34.4438 143.155 34.7369 142.791 34.4438C142.426 34.1506 142.423 32.6788 140.032 33.1569C140.032 33.1569 139.506 33.1664 139.567 32.794Z" fill="#F99746"/>
<path d="M148.715 7.61084C148.715 7.61084 147.053 10.2798 147.053 11.0041C147.053 11.7285 147.582 12.5616 147.582 12.5616L149.264 11.1672L150.1 9.66794L148.715 7.61084Z" fill="#829CE8"/>
<path d="M150.028 11.5254C150.028 11.5254 149.467 12.5352 148.464 12.3554C148.464 12.3554 148.169 11.9107 148.096 11.5545C148.087 11.5108 148.078 11.4684 148.07 11.428C147.985 11.0274 147.928 10.8046 147.928 10.8046C147.928 10.8046 147.928 10.8045 147.929 10.8042C147.967 10.7782 149.237 9.94109 149.245 9.98825C149.435 11.0794 150.028 11.5254 150.028 11.5254Z" fill="#ED975D"/>
<path d="M147.491 10.8659C147.491 10.8659 149.033 11.3814 149.34 10.4175C149.647 9.45346 150.052 8.87078 149.08 8.50085C148.109 8.13091 147.8 8.43785 147.619 8.73476C147.438 9.03155 147.098 10.707 147.491 10.8659Z" fill="#FFB27D"/>
<path d="M145.742 35.5252H148.283C148.308 35.5204 148.326 35.5151 148.337 35.5095C148.507 35.4247 148.454 34.7761 148.433 34.5757C148.429 34.5386 148.426 34.5167 148.426 34.5167C148.426 34.5167 147.533 33.8032 147.41 34.3495C147.406 34.3666 147.402 34.3833 147.397 34.3997V34.4C147.242 34.9112 146.549 35.1434 146.148 35.2082C145.842 35.258 145.763 35.4361 145.742 35.5252Z" fill="#A9453D"/>
<path d="M150.716 35.5252H153.257C153.281 35.5204 153.3 35.5151 153.311 35.5095C153.48 35.4247 153.427 34.7761 153.407 34.5757C153.403 34.5386 153.4 34.5167 153.4 34.5167C153.4 34.5167 152.507 33.8032 152.384 34.3495C152.38 34.3666 152.375 34.3833 152.371 34.3997V34.4C152.216 34.9112 151.522 35.1434 151.122 35.2082C150.816 35.258 150.736 35.4361 150.716 35.5252Z" fill="#A9453D"/>
<path d="M146.255 20.892C146.255 20.892 146.39 22.5826 146.55 24.615C146.766 27.3757 147.027 30.7667 147.053 31.4092C147.097 32.5247 147.397 34.3996 147.397 34.3996C147.397 34.3996 147.578 34.6953 148.427 34.5164C148.427 34.5164 149.306 32.0071 149.522 29.312C149.525 29.2677 149.529 29.2231 149.532 29.1787C149.733 26.4351 150.046 20.6577 150.046 20.6577L146.255 20.892Z" fill="#F99746"/>
<path d="M146.255 20.892C146.255 20.892 146.39 22.5826 146.55 24.615L149.522 29.312C149.525 29.2677 149.529 29.2231 149.532 29.1787C149.733 26.4351 150.046 20.6577 150.046 20.6577L146.255 20.892Z" fill="#ED7D2B"/>
<path d="M146.874 21.0928C146.874 21.0928 148.541 27.466 150.149 30.3435C151.757 33.2209 152.331 34.502 152.331 34.502C152.331 34.502 153.316 34.7674 153.4 34.5164C153.4 34.5164 152.558 27.6678 151.905 26.0663C151.567 25.2365 151.409 22.6878 151.376 21.8849C151.342 21.082 150.777 19.9888 150.777 19.9888L146.874 21.0928Z" fill="#F99746"/>
<path d="M146.325 23.5758C149.417 25.1037 152.802 24.6091 152.795 24.5039C152.79 24.3889 151.507 17.5759 151.063 15.5887C150.649 13.7384 150.09 12.1171 149.573 11.7468C149.505 11.7003 149.097 11.9093 148.723 12.1031C148.377 12.282 148.028 12.308 147.697 12.2482C147.697 12.2482 147.529 12.4713 147.43 12.713C147.222 13.2199 146.136 16.6806 146.122 17.2795C146.122 17.3151 146.121 17.3508 146.12 17.3863C146.116 17.5596 146.113 17.7335 146.11 17.9061C146.107 18.1033 146.291 23.5587 146.325 23.5758Z" fill="#9DB0F4"/>
<path d="M146.21 20.9778C149.251 19.2745 148.95 15.3535 148.95 15.3535L146.11 17.9069C146.107 18.1042 146.105 18.3002 146.105 18.4939C146.105 18.6394 146.105 18.7838 146.107 18.9254L146.107 18.9443C146.104 18.997 146.105 19.0546 146.106 19.1072C146.108 19.3446 146.207 20.7616 146.21 20.9778Z" fill="#7A96E5"/>
<path d="M143.143 19.8079C142.992 19.5464 143.11 19.433 143.11 19.433C143.11 19.433 145.622 17.5907 145.82 17.403C146.018 17.2152 147.004 14.1578 147.004 14.1578C147.004 14.1578 147.349 12.9188 148.071 12.8033C148.698 12.7028 149.119 13.0242 149.39 13.3942C149.713 13.835 149.728 14.4297 149.434 14.8906C148.776 15.925 147.448 17.9779 147.068 18.3237C146.223 19.0939 143.498 20.0202 143.498 20.0202C143.498 20.0202 143.262 20.0134 143.143 19.8079Z" fill="#FFB27D"/>
<path d="M149.261 10.6802C149.281 10.6961 149.611 10.8313 150.372 9.61262C150.491 9.42141 150.6 8.99367 150.4 8.58871C150.201 8.18363 149.395 7.80516 148.715 7.6101C148.034 7.41505 147.832 7.78882 147.633 8.16482C147.424 8.55951 146.898 8.85183 146.898 8.85183C147.464 9.24009 148.228 8.82993 148.47 8.9313C148.711 9.03266 148.763 9.43304 148.77 9.56052C148.777 9.68787 148.796 9.79493 149.12 9.71163C149.444 9.62834 149.221 10.1682 149.161 10.2697C149.161 10.2696 149.092 10.5488 149.261 10.6802Z" fill="#233862"/>
<path d="M148.715 7.61084C148.715 7.61084 149.565 9.06248 149.592 9.68242C149.619 10.3027 147.697 12.2487 147.697 12.2487C147.697 12.2487 149.345 12.6807 150.023 12.2487C150.023 12.2487 151.592 10.0661 151.592 9.66782C151.592 9.26942 150.673 7.63436 148.715 7.61084Z" fill="#9DB0F4"/>
<path d="M147.214 20.8325C147.214 20.8325 148.707 21.0758 149.644 20.9396L149.623 22.4374L148.429 22.894L147.214 22.221V20.8325H147.214Z" fill="#7A96E5"/>
<path d="M143.105 19.4336C143.105 19.4336 142.143 19.4824 141.95 19.6624C141.758 19.8429 141.379 20.1853 141.665 20.2459L142.356 20.095C142.708 20.1782 142.836 20.3693 143.061 20.2502C143.285 20.1311 143.531 20.0003 143.531 20.0003L143.105 19.4336Z" fill="#FFB27D"/>
<path d="M140.8 20.4639C140.8 20.1808 141.03 19.9512 141.314 19.9512C141.597 19.9512 141.827 20.1808 141.827 20.4639C141.827 20.747 141.597 20.9766 141.314 20.9766C141.03 20.9766 140.8 20.747 140.8 20.4639Z" fill="#F99746"/>
<path d="M154.714 16.8552C154.709 16.9302 154.7 16.996 154.685 17.0502C154.484 17.8201 151.875 18.4011 151.583 18.1227C151.529 18.0705 151.472 17.995 151.414 17.9C150.672 16.6807 149.73 12.2406 150.101 12.5036C150.101 12.5036 150.794 12.2875 151.363 12.2334L151.463 12.2255L151.467 12.2253C151.647 12.2146 151.809 12.2238 151.923 12.2662C152.408 12.4459 152.795 13.7109 152.795 13.7109C152.795 13.7109 153.195 13.6542 153.551 13.6978C153.595 13.7031 153.638 13.7101 153.68 13.7187C153.68 13.7187 153.68 13.7187 153.68 13.7187C153.789 13.7415 153.888 13.7766 153.962 13.8294C154.267 14.0467 154.766 16.0221 154.714 16.8552Z" fill="#F99746"/>
<path d="M150.429 12.4405C150.429 12.4405 149.534 11.587 148.037 11.8912L147.697 12.2485C147.697 12.2485 149.199 11.8876 150.028 12.6771L150.429 12.4405Z" fill="#F99746"/>
<path d="M147.828 16.5059C147.828 16.5059 148.723 18.0918 151.164 17.3043L151.414 17.9002C151.414 17.9002 148.511 18.7246 147.531 17.1283L147.828 16.5059Z" fill="#F99746"/>
<path d="M148.15 12.5608C148.15 12.5608 147.531 12.4903 147.302 13.067C147.139 13.4788 146.774 15.4147 145.95 16.8261C145.62 17.3916 144.362 18.4959 143.839 18.897C143.839 18.897 144.029 19.51 144.439 19.6731C144.439 19.6731 146.423 19.8742 147.727 18.3923C148.099 17.9717 150.317 14.3631 149.86 13.6183C149.403 12.8731 148.15 12.5608 148.15 12.5608Z" fill="#9DB0F4"/>
<path d="M151.467 12.2251C151.378 12.3104 151.205 12.5374 151.263 12.9698C151.34 13.5499 151.527 13.9646 151.529 13.9688L151.464 13.9989C151.462 13.9947 151.271 13.5708 151.192 12.9794C151.141 12.5937 151.263 12.3572 151.363 12.2333L151.467 12.2251Z" fill="#ED7D2B"/>
<path d="M153.99 16.8737L153.922 16.8952C153.892 16.8004 153.199 14.5682 153.247 14.1565C153.277 13.8973 153.432 13.7636 153.551 13.6982C153.595 13.7036 153.638 13.7105 153.68 13.7192C153.597 13.7451 153.355 13.8473 153.318 14.1651C153.272 14.5614 153.983 16.8504 153.99 16.8737Z" fill="#ED7D2B"/>
<path d="M150.88 15.8897L151.496 17.6348C151.496 17.6348 152.35 17.6603 152.871 17.3038L152.302 15.5107C152.302 15.5107 151.828 15.874 150.88 15.8897Z" fill="#ED7D2B"/>
<path d="M154.714 16.8555C154.709 16.9305 154.7 16.9963 154.685 17.0505C154.484 17.8203 151.875 18.4014 151.583 18.1229C151.529 18.0708 151.472 17.9953 151.414 17.9003C151.438 17.8995 152.919 17.8482 154.714 16.8555Z" fill="#ED7D2B"/>
<path d="M150.88 15.8897L151.061 16.4023L151.875 16.458L152.461 16.0106L152.302 15.5107C152.302 15.5107 151.383 15.7003 150.88 15.8897Z" fill="#EF873A"/>
<path d="M151.753 16.3042C151.753 16.2759 151.776 16.2529 151.804 16.2529C151.833 16.2529 151.856 16.2759 151.856 16.3042C151.856 16.3326 151.833 16.3555 151.804 16.3555C151.776 16.3555 151.753 16.3326 151.753 16.3042Z" fill="#131375"/>
<path d="M194.886 45.9814H118.47V47.9005H194.886V45.9814Z" fill="#9DB0F4"/>
<path d="M194.886 49.856H118.47V51.7749H194.886V49.856Z" fill="#9DB0F4"/>
<path d="M194.886 53.7295H152.514V55.6485H194.886V53.7295Z" fill="#9DB0F4"/>
<path d="M176.711 57.6025H143.85V59.5216H176.711V57.6025Z" fill="#9DB0F4"/>
<path d="M194.886 61.4756H152.514V63.3947H194.886V61.4756Z" fill="#9DB0F4"/>
<path d="M99.4415 30.4272H79.2046V31.3858H99.4415V30.4272Z" fill="#9DB0F4"/>
<path d="M103.62 30.4272H101.393V32.6509H103.62V30.4272Z" fill="#9DB0F4"/>
<path d="M96.0564 30.4272H86.772V31.3858H96.0564V30.4272Z" fill="#F77D48"/>
<path d="M99.4415 25.168H79.2046V26.1264H99.4415V25.168Z" fill="#9DB0F4"/>
<path d="M103.62 25.168H101.393V27.3917H103.62V25.168Z" fill="#9DB0F4"/>
<path d="M88.3201 25.168H81.8535V26.1264H88.3201V25.168Z" fill="#F77D48"/>
<path d="M99.4415 19.9072H79.2046V20.8655H99.4415V19.9072Z" fill="#9DB0F4"/>
<path d="M103.62 19.9072H101.393V22.1308H103.62V19.9072Z" fill="#7A96E5"/>
<path d="M95.6854 19.9072H89.2188V20.8655H95.6854V19.9072Z" fill="#7A96E5"/>
<path d="M99.4415 14.6475H79.2046V15.6059H99.4415V14.6475Z" fill="#9DB0F4"/>
<path d="M103.62 14.6475H101.393V16.871H103.62V14.6475Z" fill="#7A96E5"/>
<path d="M91.6905 14.6475H81.8535V15.6059H91.6905V14.6475Z" fill="#7A96E5"/>
<path d="M99.4415 9.38672H79.2046V10.3452H99.4415V9.38672Z" fill="#9DB0F4"/>
<path d="M103.62 9.38672H101.393V11.6104H103.62V9.38672Z" fill="#F77D48"/>
<path d="M97.3761 9.38672H88.7509V10.3452H97.3761V9.38672Z" fill="#F77D48"/>
<path d="M90.2853 42.3853H88.3201V44.3479H90.2853V42.3853Z" fill="#9DB0F4"/>
<path d="M93.7977 42.3853H91.8325V44.3479H93.7977V42.3853Z" fill="#9DB0F4"/>
<path d="M105.405 42.6387H95.155V43.3681H105.405V42.6387Z" fill="#9DB0F4"/>
<path d="M85.3851 42.1401L86.9975 43.367L85.3851 44.3063V42.1401Z" fill="#9DB0F4"/>
<path d="M90.2851 46.1416H88.3199V48.1043H90.2851V46.1416Z" fill="#7A96E5"/>
<path d="M93.7976 46.1416H91.8324V48.1043H93.7976V46.1416Z" fill="#9DB0F4"/>
<path d="M105.405 46.3945H95.155V47.1238H105.405V46.3945Z" fill="#9DB0F4"/>
<path d="M85.3851 45.8955L86.9975 47.1225L85.3851 48.0619V45.8955Z" fill="#9DB0F4"/>
<path d="M90.2851 49.897H88.3199V51.8596H90.2851V49.897Z" fill="#F77D48"/>
<path d="M93.7976 49.897H91.8324V51.8596H93.7976V49.897Z" fill="#9DB0F4"/>
<path d="M105.405 50.1504H95.155V50.8797H105.405V50.1504Z" fill="#9DB0F4"/>
<path d="M85.3851 49.6514L86.9975 50.8781L85.3851 51.8176V49.6514Z" fill="#9DB0F4"/>
<path d="M90.2851 53.6528H88.3199V55.6155H90.2851V53.6528Z" fill="#F77D48"/>
<path d="M93.7976 53.6528H91.8324V55.6155H93.7976V53.6528Z" fill="#9DB0F4"/>
<path d="M105.405 53.9053H95.155V54.6348H105.405V53.9053Z" fill="#9DB0F4"/>
<path d="M85.3851 53.4072L86.9975 54.6341L85.3851 55.5734V53.4072Z" fill="#9DB0F4"/>
<path d="M90.2851 57.4092H88.3199V59.3719H90.2851V57.4092Z" fill="#7A96E5"/>
<path d="M93.7976 57.4092H91.8324V59.3719H93.7976V57.4092Z" fill="#9DB0F4"/>
<path d="M105.405 57.6621H95.155V58.3915H105.405V57.6621Z" fill="#9DB0F4"/>
<path d="M85.3851 57.1636L86.9975 58.3905L85.3851 59.3297V57.1636Z" fill="#9DB0F4"/>
<path d="M90.2851 61.165H88.3199V63.1277H90.2851V61.165Z" fill="#7A96E5"/>
<path d="M93.7976 61.165H91.8324V63.1277H93.7976V61.165Z" fill="#9DB0F4"/>
<path d="M105.405 61.4175H95.155V62.1468H105.405V61.4175Z" fill="#9DB0F4"/>
<path d="M85.3851 60.9199L86.9975 62.1467L85.3851 63.0861V60.9199Z" fill="#9DB0F4"/>
<g opacity="0.5">
<path d="M78.8983 43.223C78.8983 43.223 79.4173 42.5542 80.1196 42.5542C80.837 42.5542 81.2799 43.223 81.2799 43.223C81.2799 43.223 80.9058 43.892 80.1196 43.892C79.2914 43.892 78.8983 43.223 78.8983 43.223Z" fill="#DDE7FE"/>
<path d="M79.6254 43.2233C79.6254 42.9676 79.8332 42.7603 80.0892 42.7603C80.3452 42.7603 80.5529 42.9676 80.5529 43.2233C80.5529 43.479 80.3452 43.6864 80.0892 43.6864C79.8332 43.6864 79.6254 43.479 79.6254 43.2233Z" fill="white"/>
<path d="M79.806 43.2236C79.806 43.0672 79.9328 42.9404 80.0893 42.9404C80.2457 42.9404 80.3725 43.0672 80.3725 43.2236C80.3725 43.3801 80.2457 43.5069 80.0893 43.5069C79.9328 43.5069 79.806 43.38 79.806 43.2236Z" fill="#DDE7FE"/>
</g>
<g opacity="0.5">
<path d="M78.8983 46.979C78.8983 46.979 79.4173 46.3101 80.1196 46.3101C80.837 46.3101 81.2799 46.979 81.2799 46.979C81.2799 46.979 80.9058 47.648 80.1196 47.648C79.2914 47.6481 78.8983 46.979 78.8983 46.979Z" fill="#DDE7FE"/>
<path d="M79.6254 46.9789C79.6254 46.7231 79.8332 46.5156 80.0892 46.5156C80.3452 46.5156 80.5529 46.7231 80.5529 46.9789C80.5529 47.2346 80.3452 47.442 80.0892 47.442C79.8332 47.442 79.6254 47.2347 79.6254 46.9789Z" fill="white"/>
<path d="M79.806 46.979C79.806 46.8225 79.9328 46.6958 80.0893 46.6958C80.2457 46.6958 80.3725 46.8226 80.3725 46.979C80.3725 47.1354 80.2457 47.2621 80.0893 47.2621C79.9328 47.2623 79.806 47.1354 79.806 46.979Z" fill="#DDE7FE"/>
</g>
<g opacity="0.5">
<path d="M78.8983 50.7349C78.8983 50.7349 79.4173 50.0659 80.1196 50.0659C80.837 50.0659 81.2799 50.7349 81.2799 50.7349C81.2799 50.7349 80.9058 51.4039 80.1196 51.4039C79.2914 51.4039 78.8983 50.7349 78.8983 50.7349Z" fill="#DDE7FE"/>
<path d="M79.6254 50.7356C79.6254 50.4798 79.8332 50.2725 80.0892 50.2725C80.3452 50.2725 80.5529 50.4798 80.5529 50.7356C80.5529 50.9914 80.3452 51.1987 80.0892 51.1987C79.8332 51.1987 79.6254 50.9915 79.6254 50.7356Z" fill="white"/>
<path d="M79.806 50.7353C79.806 50.5788 79.9328 50.4521 80.0893 50.4521C80.2457 50.4521 80.3725 50.5788 80.3725 50.7353C80.3725 50.8917 80.2457 51.0184 80.0893 51.0184C79.9328 51.0184 79.806 50.8917 79.806 50.7353Z" fill="#DDE7FE"/>
</g>
<g opacity="0.5">
<path d="M78.8983 54.4907C78.8983 54.4907 79.4173 53.8218 80.1196 53.8218C80.837 53.8218 81.2799 54.4907 81.2799 54.4907C81.2799 54.4907 80.9058 55.1597 80.1196 55.1597C79.2914 55.1597 78.8983 54.4907 78.8983 54.4907Z" fill="#DDE7FE"/>
<path d="M79.6254 54.4908C79.6254 54.235 79.8332 54.0278 80.0892 54.0278C80.3452 54.0278 80.5529 54.2351 80.5529 54.4908C80.5529 54.7467 80.3452 54.954 80.0892 54.954C79.8332 54.954 79.6254 54.7467 79.6254 54.4908Z" fill="white"/>
<path d="M79.806 54.4912C79.806 54.3348 79.9328 54.208 80.0893 54.208C80.2457 54.208 80.3725 54.3348 80.3725 54.4912C80.3725 54.6477 80.2457 54.7743 80.0893 54.7743C79.9328 54.7743 79.806 54.6476 79.806 54.4912Z" fill="#DDE7FE"/>
</g>
<g opacity="0.5">
<path d="M78.8983 58.246C78.8983 58.246 79.4173 57.5771 80.1196 57.5771C80.837 57.5771 81.2799 58.246 81.2799 58.246C81.2799 58.246 80.9058 58.9149 80.1196 58.9149C79.2914 58.9151 78.8983 58.246 78.8983 58.246Z" fill="#DDE7FE"/>
<path d="M79.6254 58.2467C79.6254 57.991 79.8332 57.7837 80.0892 57.7837C80.3452 57.7837 80.5529 57.991 80.5529 58.2467C80.5529 58.5024 80.3452 58.7098 80.0892 58.7098C79.8332 58.7098 79.6254 58.5025 79.6254 58.2467Z" fill="white"/>
<path d="M79.806 58.247C79.806 58.0906 79.9328 57.9639 80.0893 57.9639C80.2457 57.9639 80.3725 58.0906 80.3725 58.247C80.3725 58.4035 80.2457 58.5303 80.0893 58.5303C79.9328 58.5304 79.806 58.4035 79.806 58.247Z" fill="#DDE7FE"/>
</g>
<g opacity="0.5">
<path d="M78.8983 62.0025C78.8983 62.0025 79.4173 61.3335 80.1196 61.3335C80.837 61.3335 81.2799 62.0025 81.2799 62.0025C81.2799 62.0025 80.9058 62.6714 80.1196 62.6714C79.2914 62.6715 78.8983 62.0025 78.8983 62.0025Z" fill="#DDE7FE"/>
<path d="M79.6254 62.0027C79.6254 61.7469 79.8332 61.5396 80.0892 61.5396C80.3452 61.5396 80.5529 61.7469 80.5529 62.0027C80.5529 62.2584 80.3452 62.4658 80.0892 62.4658C79.8332 62.4658 79.6254 62.2585 79.6254 62.0027Z" fill="white"/>
<path d="M79.806 62.0034C79.806 61.847 79.9328 61.7202 80.0893 61.7202C80.2457 61.7202 80.3725 61.8471 80.3725 62.0034C80.3725 62.1598 80.2457 62.2865 80.0893 62.2865C79.9328 62.2865 79.806 62.1598 79.806 62.0034Z" fill="#DDE7FE"/>
</g>
<path d="M194.886 57.6025H165.77V59.5216H194.886V57.6025Z" fill="#F99746"/>
<path d="M187.832 53.7295H170.915V55.6485H187.832V53.7295Z" fill="#F99746"/>
<path d="M188.624 45.9814H169.046V47.9005H188.624V45.9814Z" fill="#F99746"/>
<path d="M191.916 49.856H174.999V51.7749H191.916V49.856Z" fill="#7A96E5"/>
<path d="M128.561 17.592C124.561 12.4878 120.109 12.3085 120.065 12.3074L120.068 12.1924C120.113 12.1935 124.619 12.3748 128.652 17.5211L128.561 17.592Z" fill="white"/>
<path d="M119.547 12.2492C119.547 11.9873 119.76 11.7749 120.022 11.7749C120.285 11.7749 120.497 11.9873 120.497 12.2492C120.497 12.5112 120.285 12.7237 120.022 12.7237C119.76 12.7237 119.547 12.5112 119.547 12.2492Z" fill="#F77D48"/>
<path d="M128.132 17.5086C128.132 17.2466 128.344 17.0342 128.607 17.0342C128.869 17.0342 129.082 17.2466 129.082 17.5086C129.082 17.7705 128.869 17.983 128.607 17.983C128.344 17.983 128.132 17.7705 128.132 17.5086Z" fill="#F77D48"/>
<path d="M129.758 11.2631L129.67 11.1885C129.699 11.1542 132.674 7.76241 139.21 7.85387L139.208 7.96885C132.72 7.88097 129.787 11.2293 129.758 11.2631Z" fill="white"/>
<path d="M129.389 11.6296C129.184 11.4653 129.152 11.1666 129.317 10.9625C129.481 10.7584 129.78 10.7263 129.985 10.8905C130.189 11.0549 130.221 11.3535 130.057 11.5576C129.892 11.7618 129.593 11.794 129.389 11.6296Z" fill="#F77D48"/>
<path d="M138.874 8.25115C138.67 8.08679 138.637 7.78815 138.802 7.58406C138.967 7.38009 139.266 7.34779 139.47 7.51215C139.674 7.67651 139.707 7.97515 139.542 8.17936C139.377 8.38333 139.078 8.41551 138.874 8.25115Z" fill="#F77D48"/>
<path d="M160.061 11.2502L159.957 11.1614C159.99 11.1231 163.351 7.31755 171.216 7.82251L171.208 7.95865C163.409 7.45876 160.094 11.2122 160.061 11.2502Z" fill="white"/>
<path d="M159.643 11.6603C159.388 11.4549 159.331 11.1021 159.516 10.8724C159.701 10.6429 160.059 10.6232 160.314 10.8286C160.569 11.0341 160.626 11.3868 160.441 11.6165C160.256 11.8462 159.898 11.8659 159.643 11.6603Z" fill="#F77D48"/>
<path d="M170.83 8.26926C170.574 8.06381 170.518 7.71096 170.703 7.48137C170.888 7.25179 171.245 7.23199 171.501 7.43756C171.756 7.64301 171.813 7.99586 171.628 8.22545C171.443 8.45503 171.085 8.47459 170.83 8.26926Z" fill="#F77D48"/>
<path d="M154.537 13.0293H146.552V13.1444H154.537V13.0293Z" fill="white"/>
<path d="M146.077 13.0866C146.077 12.8247 146.29 12.6123 146.552 12.6123C146.814 12.6123 147.027 12.8247 147.027 13.0866C147.027 13.3487 146.814 13.5612 146.552 13.5612C146.29 13.5612 146.077 13.3487 146.077 13.0866Z" fill="#FA7267"/>
<path d="M154.062 13.0866C154.062 12.8247 154.274 12.6123 154.537 12.6123C154.799 12.6123 155.012 12.8247 155.012 13.0866C155.012 13.3487 154.799 13.5612 154.537 13.5612C154.274 13.5612 154.062 13.3487 154.062 13.0866Z" fill="#FA7267"/>
<path d="M163.846 44.2581L163.031 43.4443L162.216 44.2582L163.031 45.072L163.846 44.2581Z" fill="#F77D48"/>
<path d="M142.058 27.5165C137.512 27.5165 132.717 26.7194 128.829 25.8462C121.778 24.2628 116.11 22.0959 116.054 22.0742L116.095 21.9668C116.151 21.9886 121.813 24.1527 128.855 25.7342C135.351 27.1929 144.383 28.4401 150.524 26.0983C156.691 23.7468 163.219 24.0865 167.61 24.7858C172.366 25.5429 175.71 26.8736 175.743 26.887L175.7 26.9936C175.667 26.9804 172.333 25.6538 167.589 24.8987C163.213 24.2024 156.707 23.864 150.565 26.2058C148.08 27.1535 145.126 27.5165 142.058 27.5165Z" fill="white"/>
<path d="M151.368 25.7307C151.368 25.4687 151.581 25.2563 151.843 25.2563C152.106 25.2563 152.318 25.4687 152.318 25.7307C152.318 25.9926 152.106 26.2051 151.843 26.2051C151.581 26.2051 151.368 25.9926 151.368 25.7307Z" fill="#17152B"/>
<path d="M138.193 27.3983C138.193 27.1363 138.406 26.9238 138.668 26.9238C138.93 26.9238 139.143 27.1363 139.143 27.3983C139.143 27.6604 138.93 27.8727 138.668 27.8727C138.406 27.8727 138.193 27.6605 138.193 27.3983Z" fill="#17152B"/>
<path d="M141.247 39.0146C140.267 39.0146 139.171 38.8458 138.077 38.3438L138.126 38.2392C141.401 39.743 144.698 38.2133 144.731 38.1978L144.781 38.3016C144.758 38.3122 143.244 39.0146 141.247 39.0146Z" fill="white"/>
<path d="M145.054 38.6194C144.85 38.7841 144.551 38.7523 144.386 38.5486C144.221 38.3447 144.253 38.046 144.457 37.8814C144.661 37.7166 144.96 37.7483 145.125 37.9522C145.29 38.156 145.259 38.4548 145.054 38.6194Z" fill="#F77D48"/>
<path d="M138.4 38.6605C138.196 38.825 137.897 38.7934 137.732 38.5896C137.567 38.3859 137.599 38.087 137.803 37.9224C138.007 37.7576 138.306 37.7893 138.471 37.9932C138.636 38.197 138.604 38.4958 138.4 38.6605Z" fill="#F77D48"/>
<path d="M156.949 39.0146C155.969 39.0146 154.873 38.8458 153.779 38.3438L153.828 38.2392C157.103 39.7428 160.4 38.2132 160.433 38.1978L160.483 38.3016C160.46 38.3122 158.946 39.0146 156.949 39.0146Z" fill="white"/>
<path d="M160.757 38.6194C160.553 38.7841 160.253 38.7523 160.088 38.5486C159.923 38.3447 159.955 38.046 160.159 37.8814C160.363 37.7166 160.662 37.7483 160.827 37.9522C160.992 38.156 160.961 38.4548 160.757 38.6194Z" fill="#F77D48"/>
<path d="M154.102 38.6605C153.898 38.825 153.599 38.7934 153.434 38.5896C153.269 38.3859 153.301 38.087 153.505 37.9224C153.709 37.7576 154.008 37.7893 154.173 37.9932C154.338 38.197 154.306 38.4958 154.102 38.6605Z" fill="#F77D48"/>
<g opacity="0.3">
<path d="M177.632 21.5273V37.775L171.816 37.0215C171.816 37.0215 171.297 33.5965 173.768 32.5094C176.066 31.4991 174.52 22.6867 177.632 21.5273Z" fill="#9DB0F4"/>
</g>
<path d="M174.965 26.9408C174.965 26.6788 175.178 26.4663 175.44 26.4663C175.703 26.4663 175.915 26.6788 175.915 26.9408C175.915 27.2027 175.703 27.4152 175.44 27.4152C175.178 27.4152 174.965 27.2027 174.965 26.9408Z" fill="#F77D48"/>
<path d="M115.717 22.0203C115.717 21.7583 115.929 21.5459 116.192 21.5459C116.454 21.5459 116.667 21.7583 116.667 22.0203C116.667 22.2824 116.454 22.4948 116.192 22.4948C115.929 22.4948 115.717 22.2824 115.717 22.0203Z" fill="#F77D48"/>
<g opacity="0.1">
<path d="M213.594 5.11572H182.916V39.9057H213.594V5.11572Z" fill="#DDE7FE"/>
</g>
<path d="M200.561 7.21045H185.586V7.63786H200.561V7.21045Z" fill="#9DB0F4"/>
<path d="M197.172 8.27246H185.586V8.7H197.172V8.27246Z" fill="#9DB0F4"/>
<path d="M209.258 7.45752H208.447V8.26756H209.258V7.45752Z" fill="#9DB0F4"/>
<path d="M200.561 11.9292H185.586V12.3566H200.561V11.9292Z" fill="#9DB0F4"/>
<path d="M197.172 12.9912H185.586V13.4186H197.172V12.9912Z" fill="#9DB0F4"/>
<path d="M209.258 12.1772H208.447V12.9872H209.258V12.1772Z" fill="#9DB0F4"/>
<path d="M200.561 16.6484H185.586V17.0758H200.561V16.6484Z" fill="#9DB0F4"/>
<path d="M197.172 17.7104H185.586V18.1379H197.172V17.7104Z" fill="#9DB0F4"/>
<path d="M209.258 16.897H208.447V17.7069H209.258V16.897Z" fill="#9DB0F4"/>
<path d="M200.561 21.3682H185.586V21.7957H200.561V21.3682Z" fill="#9DB0F4"/>
<path d="M197.172 22.4297H185.586V22.8572H197.172V22.4297Z" fill="#9DB0F4"/>
<path d="M209.258 21.6157H208.447V22.4255H209.258V21.6157Z" fill="#9DB0F4"/>
<path d="M200.561 26.0869H185.586V26.5143H200.561V26.0869Z" fill="#9DB0F4"/>
<path d="M197.172 27.1494H185.586V27.5767H197.172V27.1494Z" fill="#9DB0F4"/>
<path d="M209.258 26.335H208.447V27.145H209.258V26.335Z" fill="#9DB0F4"/>
<path d="M209.258 30.6147H208.447V31.4247H209.258V30.6147Z" fill="#9DB0F4"/>
<path d="M200.561 30.8066H185.586V31.2342H200.561V30.8066Z" fill="#9DB0F4"/>
<path d="M197.172 31.8687H185.586V32.2962H197.172V31.8687Z" fill="#9DB0F4"/>
<path d="M200.561 35.5254H185.586V35.9528H200.561V35.5254Z" fill="#9DB0F4"/>
<path d="M197.172 36.5874H185.586V37.0148H197.172V36.5874Z" fill="#9DB0F4"/>
<path d="M209.258 35.7734H208.447V36.5834H209.258V35.7734Z" fill="#9DB0F4"/>
<path d="M195.898 109.346C195.898 109.346 193.757 114.63 194.511 115.182C195.266 115.734 197.856 113.49 198.543 111.12C199.23 108.751 195.898 109.346 195.898 109.346Z" fill="#EA9963"/>
<path d="M239.652 144.998C230.178 144.997 220.288 144.997 210.94 144.994C210.58 144.126 210.196 143.214 209.797 142.285C207.204 136.254 203.951 129.465 202.141 128.657C198.81 127.17 196.805 128.471 192.66 123.639C188.515 118.808 185.879 117.165 187.507 116.049C189.136 114.935 194.512 119.125 196.003 118.944C197.201 118.798 197.824 115.9 197.725 112.84C197.7 112.039 197.625 111.228 197.497 110.452V110.451C197.434 110.059 197.356 109.677 197.266 109.311C197.124 108.737 196.948 108.2 196.739 107.722C196.331 106.793 196.368 106.157 196.678 105.731C197.608 104.452 201.005 105.068 202.288 105.372C202.86 105.508 204.631 104.436 205.872 105.047C207.796 105.993 208.917 104.901 210.195 105.722C211.099 106.303 212.96 106.575 213.601 107.413C214.821 109.006 215.123 112.38 216.312 115.498C217.413 118.383 217.795 121.41 221.57 126.52C223.252 128.796 228.46 134.078 233.718 139.238C235.756 141.237 237.802 143.218 239.652 144.998Z" fill="#FFB27D"/>
<path d="M196.655 105.722C196.655 105.722 188.751 112.184 189.778 113.052C190.804 113.92 193.41 113.067 197.675 110.338C201.939 107.61 196.655 105.722 196.655 105.722Z" fill="#FFB27D"/>
<path d="M242.021 144.998H239.652C230.178 144.996 220.288 144.996 210.94 144.994H208.147L207.822 144.323C207.822 144.323 208.481 143.434 209.797 142.285C213.251 139.268 221.232 134.46 233.718 139.237C234.273 139.45 234.837 139.681 235.411 139.933L242.021 144.998Z" fill="white"/>
<path d="M112.843 112.646C112.843 112.646 114.215 118.179 113.39 118.619C112.564 119.059 110.318 116.472 109.973 114.029C109.628 111.587 112.843 112.646 112.843 112.646Z" fill="#EA9963"/>
<path d="M114.026 127.254C109.24 131.451 107.438 129.881 103.93 130.882C102.025 131.426 97.8431 137.689 94.4231 143.294C94.1307 143.773 93.844 144.248 93.5645 144.714C82.2721 144.674 70.9572 144.633 60.532 144.595C63.3572 142.582 67.271 139.77 71.1705 136.902C77.1062 132.537 83.0112 128.041 84.999 126.024C89.4587 121.499 90.2655 118.557 91.764 115.855C93.3607 112.975 93.3134 109.586 95.5178 109.62C96.6041 109.637 97.5623 108.221 98.5644 107.762C99.9455 107.13 101.265 108.536 103.305 107.871C104.62 107.442 106.421 108.602 107.007 108.547C108.133 108.445 110.859 108.028 112.093 108.664C112.779 109.015 113.004 109.689 112.241 110.921C111.966 111.364 111.717 111.872 111.495 112.42C111.369 112.731 111.252 113.054 111.144 113.387C110.89 114.175 110.686 115.014 110.539 115.847C110.008 118.862 110.217 121.82 111.381 122.133C112.831 122.524 118.833 118.501 120.288 119.835C121.743 121.168 118.813 123.056 114.026 127.254Z" fill="#FFB27D"/>
<path d="M111.966 108.625C111.966 108.625 123.903 112.177 123.283 113.369C122.662 114.56 116.415 114.356 111.433 113.446C106.452 112.536 111.966 108.625 111.966 108.625Z" fill="#FFB27D"/>
<path d="M95.5344 144.721C94.8781 144.719 94.2207 144.716 93.5645 144.714C82.2722 144.673 70.9573 144.633 60.532 144.595C59.1828 144.591 57.8492 144.586 56.5319 144.581L69.3984 137.351C70.0013 137.183 70.5912 137.033 71.1705 136.902C84.2112 133.933 91.4321 139.821 94.4232 143.294C94.8983 143.845 95.2667 144.336 95.5344 144.721Z" fill="white"/>
<path d="M156.672 135.812C156.672 135.889 156.677 135.965 156.686 136.039C156.715 136.278 156.789 136.502 156.899 136.704C156.985 136.861 157.093 137.005 157.219 137.13C157.557 137.467 158.023 137.676 158.539 137.676H184.787C185.818 137.676 186.654 136.841 186.654 135.812C186.654 135.297 186.445 134.831 186.107 134.494C185.769 134.156 185.303 133.948 184.787 133.948H158.539C157.508 133.948 156.672 134.782 156.672 135.812Z" fill="white"/>
<path d="M158.674 133.611H167.674C167.832 133.611 167.961 133.482 167.961 133.325C167.961 133.167 167.832 133.038 167.674 133.038H158.674C158.517 133.038 158.388 133.167 158.388 133.325C158.388 133.482 158.517 133.611 158.674 133.611Z" fill="white"/>
<path d="M159.172 133.948H160.147V133.61H159.172V133.948Z" fill="#233862"/>
<path d="M156.899 136.703C156.985 136.861 157.093 137.004 157.219 137.13C157.557 137.467 158.023 137.675 158.539 137.675H164.099V136.703H156.899Z" fill="#233862"/>
<path d="M190.129 135.266V136.358C190.129 136.477 190.113 136.593 190.083 136.703C189.931 137.264 189.418 137.676 188.809 137.676H161.467C160.857 137.676 160.345 137.264 160.193 136.703C160.163 136.593 160.147 136.477 160.147 136.358V135.266C160.147 134.537 160.738 133.948 161.467 133.948H188.809C189.538 133.948 190.129 134.538 190.129 135.266Z" fill="#F99746"/>
<path d="M190.083 136.703C189.931 137.264 189.419 137.675 188.809 137.675H161.467C160.857 137.675 160.345 137.264 160.193 136.703H190.083Z" fill="#EF873A"/>
<path d="M187.413 135.818C187.413 136.397 187.624 136.915 187.956 137.258C187.964 137.265 187.971 137.273 187.978 137.28C188.235 137.536 188.561 137.689 188.915 137.689C189.468 137.689 190.84 136.855 191.691 136.301C192.114 136.025 192.408 135.818 192.408 135.818C192.408 135.818 192.114 135.612 191.691 135.336C190.84 134.781 189.468 133.948 188.915 133.948C188.755 133.948 188.601 133.979 188.455 134.036C188.211 134.134 187.994 134.308 187.823 134.535C187.634 134.785 187.499 135.099 187.442 135.447C187.442 135.451 187.441 135.455 187.441 135.46C187.423 135.575 187.413 135.695 187.413 135.818Z" fill="#8C9DF4"/>
<path d="M187.413 135.819C187.413 136.398 187.624 136.915 187.956 137.258L192.164 135.812L187.441 135.46C187.423 135.576 187.413 135.696 187.413 135.819Z" fill="#6980E2"/>
<path d="M187.822 134.536L192.021 135.681L188.455 134.037C188.211 134.135 187.994 134.308 187.822 134.536Z" fill="#9FB1FF"/>
<path d="M191.417 135.818C191.417 136.041 191.531 136.231 191.69 136.301C192.114 136.025 192.408 135.818 192.408 135.818C192.408 135.818 192.114 135.612 191.69 135.335C191.531 135.405 191.417 135.595 191.417 135.818Z" fill="#182D4C"/>
<path d="M45.9636 81.9046L44.1235 82.2002L47.6033 103.862L49.4434 103.567L45.9636 81.9046Z" fill="#B5453C"/>
<path d="M44.4371 78.2417L44.1302 82.2031L45.9704 81.9079L44.4371 78.2417Z" fill="#EFCBAB"/>
<path d="M65.9162 84.0762L64.0836 83.7358L60.0772 105.308L61.9097 105.649L65.9162 84.0762Z" fill="#B5453C"/>
<path d="M65.6988 80.1094L64.0759 83.7369L65.9085 84.077L65.6988 80.1094Z" fill="#EFCBAB"/>
<path d="M63.5822 77.757L61.7498 77.4165L57.7411 98.9889L59.5736 99.3294L63.5822 77.757Z" fill="#B5453C"/>
<path d="M63.3756 73.7827L61.7527 77.4101L63.5853 77.7501L63.3756 73.7827Z" fill="#EFCBAB"/>
<path d="M65.7112 91.0542H51.0302V112.185H65.7112V91.0542Z" fill="#ED7D2B"/>
<path d="M58.3709 91.0542H43.6898V112.185H58.3709V91.0542Z" fill="#F99746"/>
</svg>
