<?xml version="1.0" encoding="utf-8"?>
<!-- Generator: Adobe Illustrator 26.0.1, SVG Export Plug-In . SVG Version: 6.00 Build 0)  -->
<svg version="1.1" id="Layer_1" xmlns="http://www.w3.org/2000/svg" xmlns:xlink="http://www.w3.org/1999/xlink" x="0px" y="0px"
	 viewBox="0 0 200 200" style="enable-background:new 0 0 200 200;" xml:space="preserve">
<style type="text/css">
	.st0{fill:url(#SVGID_1_);}
	.st1{fill:url(#SVGID_00000080894791511021727470000014823818638752861579_);}
	.st2{fill:url(#SVGID_00000088119119196564915060000009600077076234731160_);}
</style>
<g>
	
		<linearGradient id="SVGID_1_" gradientUnits="userSpaceOnUse" x1="115.918" y1="278.4464" x2="92.9909" y2="255.3188" gradientTransform="matrix(0.9282 0.3722 -0.3722 0.9282 101.3884 -183.2934)">
		<stop  offset="0" style="stop-color:#64FFFF"/>
		<stop  offset="1" style="stop-color:#8155FF"/>
	</linearGradient>
	<path class="st0" d="M98.8,118.1c-1.5,0.1-19.9-15.3-19.4-17.4c0.6-2.1,11.3-11.5,11.3-11.5c0.1-0.1,0.2-0.1,0.4-0.2
		c2.3-0.4,13.3,0.6,16.5,1.3c3.5,0.7,13.3,20.2,13.5,21.2C121.3,112.4,100.2,118,98.8,118.1z"/>
	
		<linearGradient id="SVGID_00000168837265429470173020000000186303696102300835_" gradientUnits="userSpaceOnUse" x1="91.7845" y1="258.0287" x2="120.3961" y2="258.0287" gradientTransform="matrix(0.9282 0.3722 -0.3722 0.9282 101.3884 -183.2934)">
		<stop  offset="0" style="stop-color:#64FFFF"/>
		<stop  offset="1" style="stop-color:#F7C1FF"/>
	</linearGradient>
	<path style="fill:url(#SVGID_00000168837265429470173020000000186303696102300835_);" d="M115.4,105.1c-0.6,0.8-15.6-3.9-16.4-4.5
		c-0.7-0.5-5.7-8.3-7.9-11.6c2.3-0.4,13.3,0.6,16.5,1.3C113,94.4,116.1,104.3,115.4,105.1z"/>
	
		<linearGradient id="SVGID_00000077306680193668131230000000322038470999096974_" gradientUnits="userSpaceOnUse" x1="108.2368" y1="282.1703" x2="87.2739" y2="261.0241" gradientTransform="matrix(0.9282 0.3722 -0.3722 0.9282 101.3884 -183.2934)">
		<stop  offset="0" style="stop-color:#459FFF"/>
		<stop  offset="1" style="stop-color:#8155FF"/>
	</linearGradient>
	<path style="fill:url(#SVGID_00000077306680193668131230000000322038470999096974_);" d="M98.8,118.1c-1.5,0.1-19.9-15.3-19.4-17.4
		c0.6-2.1,11.3-11.5,11.3-11.5l8.3,11.4L98.8,118.1z"/>
</g>
</svg>
