<?xml version="1.0" encoding="utf-8"?>
<!-- Generator: Adobe Illustrator 26.0.1, SVG Export Plug-In . SVG Version: 6.00 Build 0)  -->
<svg version="1.1" id="Layer_1" xmlns="http://www.w3.org/2000/svg" xmlns:xlink="http://www.w3.org/1999/xlink" x="0px" y="0px"
	 viewBox="0 0 200 200" style="enable-background:new 0 0 200 200;" xml:space="preserve">
<style type="text/css">
	.st0{fill:url(#SVGID_1_);}
	.st1{fill:url(#SVGID_00000094585578695601618860000016738575849972892350_);}
	.st2{opacity:0.7;fill:url(#SVGID_00000119811259859137978940000004285930477219072908_);}
	.st3{fill:url(#SVGID_00000030487795932412534750000008898480079184058811_);}
</style>
<g>
	<linearGradient id="SVGID_1_" gradientUnits="userSpaceOnUse" x1="155.8836" y1="166.8703" x2="69.628" y2="79.8602">
		<stop  offset="0" style="stop-color:#64FFFF"/>
		<stop  offset="1" style="stop-color:#8155FF"/>
	</linearGradient>
	<path class="st0" d="M41.2,167.2c0,0,18.2-72.6,21.6-80c3.4-7.3,69.1-53.2,71.8-54.3c2.7-1.1,21.1,18.4,23,19.8
		c1.9,1.4,1,76.5,0.7,77.8c-0.3,1.3-2.7,36.7-2.7,36.7H41.2z"/>
	
		<linearGradient id="SVGID_00000177466489430241425460000017276806436868647068_" gradientUnits="userSpaceOnUse" x1="131.271" y1="191.2669" x2="45.2896" y2="104.5333">
		<stop  offset="0" style="stop-color:#459FFF"/>
		<stop  offset="1" style="stop-color:#8155FF"/>
	</linearGradient>
	<path style="fill:url(#SVGID_00000177466489430241425460000017276806436868647068_);" d="M155.6,167.2H41.2c0,0,17.6-75.6,21.6-80
		c0,0,34.5,4.9,37.2,5.8c2.7,0.9,4.1,51.5,4.8,55c0.7,3.4,46.2,17.7,50.5,19L155.6,167.2z"/>
	
		<linearGradient id="SVGID_00000060749030679028305880000013914609823183656074_" gradientUnits="userSpaceOnUse" x1="126.7461" y1="195.7525" x2="70.0458" y2="138.5563">
		<stop  offset="0" style="stop-color:#CCEDFF"/>
		<stop  offset="1" style="stop-color:#9D68C2"/>
	</linearGradient>
	<path style="opacity:0.7;fill:url(#SVGID_00000060749030679028305880000013914609823183656074_);" d="M155.6,167.2H41.2l63.6-19.1
		c0.7,3.4,46.2,17.7,50.5,19L155.6,167.2z"/>
	
		<linearGradient id="SVGID_00000169538000555399201400000013668451365841657498_" gradientUnits="userSpaceOnUse" x1="62.7705" y1="62.9987" x2="148.8037" y2="62.9987">
		<stop  offset="0" style="stop-color:#64FFFF"/>
		<stop  offset="1" style="stop-color:#EF82FF"/>
	</linearGradient>
	<path style="fill:url(#SVGID_00000169538000555399201400000013668451365841657498_);" d="M62.8,87.2c0,0,31.1,6.7,37.2,5.8
		c6.1-0.9,46.4-39.7,48.6-43.3c2.2-3.6-14-16.8-14-16.8S66.9,76.1,62.8,87.2z"/>
</g>
</svg>
