<?xml version="1.0" encoding="utf-8"?>
<!-- Generator: Adobe Illustrator 26.0.1, SVG Export Plug-In . SVG Version: 6.00 Build 0)  -->
<svg version="1.1" id="Layer_1" xmlns="http://www.w3.org/2000/svg" xmlns:xlink="http://www.w3.org/1999/xlink" x="0px" y="0px"
	 viewBox="0 0 200 200" style="enable-background:new 0 0 200 200;" xml:space="preserve">
<style type="text/css">
	.st0{fill:url(#SVGID_1_);}
	.st1{fill:url(#SVGID_00000019660984349858218160000000806223208799879082_);}
	.st2{fill:url(#SVGID_00000031189815624049508560000016359340467504903308_);}
	.st3{opacity:0.7;fill:url(#SVGID_00000110455697001708955370000004387072569981935512_);}
</style>
<g>
	
		<linearGradient id="SVGID_1_" gradientUnits="userSpaceOnUse" x1="743.2797" y1="461.6433" x2="674.6008" y2="392.3636" gradientTransform="matrix(-0.7699 -0.6382 -0.6382 0.7699 918.4846 228.5706)">
		<stop  offset="0" style="stop-color:#64FFFF"/>
		<stop  offset="1" style="stop-color:#8155FF"/>
	</linearGradient>
	<path class="st0" d="M49.6,88.1c-1.4,4.3,41.7,55.6,47.9,59.9c6.2,4.3,29.5,14.7,29.5,14.7s2.1-2.4,5.1-5.8
		c0.2-0.2,0.4-0.5,0.6-0.7c6.5-7.5,16.4-19.1,17.2-21.1c1.3-3-0.7-40.3-2.4-41.6c-1.7-1.3-50.5-47.1-52.9-48.5
		c-1.9-1.1-28.9,24.6-40.2,37C51.6,85,49.8,87.3,49.6,88.1z"/>
	
		<linearGradient id="SVGID_00000141450877861246738820000017450919339126735025_" gradientUnits="userSpaceOnUse" x1="729.5891" y1="475.2151" x2="662.5134" y2="407.5526" gradientTransform="matrix(-0.7699 -0.6382 -0.6382 0.7699 918.4846 228.5706)">
		<stop  offset="0" style="stop-color:#459FFF"/>
		<stop  offset="1" style="stop-color:#8155FF"/>
	</linearGradient>
	<path style="fill:url(#SVGID_00000141450877861246738820000017450919339126735025_);" d="M49.6,88.1c-1.4,4.3,41.7,55.6,47.9,59.9
		c6.2,4.3,29.5,14.7,29.5,14.7c0.7-0.6,2.6-2.9,5.1-5.8c0.2-0.2,0.4-0.5,0.6-0.7c6.9-8.2,17.2-21.1,17.2-21.1s-13.1-16.4-14.6-15.8
		c-1.4,0.6-35,5.2-36.2,4.6C97.9,123.3,49.6,88.1,49.6,88.1z"/>
	
		<linearGradient id="SVGID_00000011015907648594274600000012539017117413936012_" gradientUnits="userSpaceOnUse" x1="651.412" y1="401.5199" x2="751.4383" y2="401.5199" gradientTransform="matrix(-0.7699 -0.6382 -0.6382 0.7699 918.4846 228.5706)">
		<stop  offset="0" style="stop-color:#64FFFF"/>
		<stop  offset="1" style="stop-color:#EF82FF"/>
	</linearGradient>
	<path style="fill:url(#SVGID_00000011015907648594274600000012539017117413936012_);" d="M149.8,135.1l-14.6-15.8l-14.6-45L94.6,45
		c0,0,48.8,44.9,52.9,48.5C151.4,97.1,150.6,132.2,149.8,135.1z"/>
	
		<linearGradient id="SVGID_00000176025093085360422220000017507495089233030327_" gradientUnits="userSpaceOnUse" x1="729.5891" y1="475.2151" x2="680.4514" y2="425.6475" gradientTransform="matrix(-0.7699 -0.6382 -0.6382 0.7699 918.4846 228.5706)">
		<stop  offset="0" style="stop-color:#CCEDFF"/>
		<stop  offset="1" style="stop-color:#9D68C2"/>
	</linearGradient>
	<path style="opacity:0.7;fill:url(#SVGID_00000176025093085360422220000017507495089233030327_);" d="M49.6,88.1
		c-1.4,4.3,41.7,55.6,47.9,59.9c6.2,4.3,29.5,14.7,29.5,14.7s-24.2-21.3-27.8-38.8C97.9,123.3,49.6,88.1,49.6,88.1z"/>
</g>
</svg>
