<?xml version="1.0" encoding="utf-8"?>
<!-- Generator: Adobe Illustrator 26.0.1, SVG Export Plug-In . SVG Version: 6.00 Build 0)  -->
<svg version="1.1" id="Layer_1" xmlns="http://www.w3.org/2000/svg" xmlns:xlink="http://www.w3.org/1999/xlink" x="0px" y="0px"
	 viewBox="0 0 144 144" style="enable-background:new 0 0 144 144;" xml:space="preserve">
<style type="text/css">
	.st0{fill:#40B9BB;}
	.st1{fill:url(#SVGID_1_);}
	.st2{fill:url(#SVGID_00000107587495363816672810000014018360978694512768_);}
	.st3{fill:url(#SVGID_00000135680084534012293610000003640506495272000188_);}
	.st4{fill:url(#SVGID_00000142867960922165819870000011486178535317651329_);}
	.st5{fill:url(#SVGID_00000000215430062245273090000009534206071299648953_);}
	.st6{fill:url(#SVGID_00000138565275691255390800000004623873240588732818_);}
	.st7{fill:url(#SVGID_00000089542082719347949230000000582906145199775369_);}
	.st8{fill:#058183;}
	.st9{fill:url(#SVGID_00000133495987074379753790000010556969762091667114_);}
	.st10{fill:url(#SVGID_00000166637868211723534490000007156566166052702397_);}
</style>
<g>
	<path class="st0" d="M114.7,44.2c0-4.8-0.9-9.5-2.6-14c-1.6-4.1-4-7.8-6.8-11.2C97.6,10.3,85.9,4.6,72.7,4.5
		c-5.2,0-10.2,0.8-14.9,2.4c-9.9,3.4-18.1,10.1-23,18.8c0,0-5.5,10.3-5.5,14.9s4.2,5,4.2,5l20.2,1.8l1,0.1c0-0.8,0.1-1.6,0.3-2.3
		c0.2-0.8,0.6-1.6,1-2.4c0.8-1.3,1.8-2.5,3.1-3.5c2.7-2.1,6.4-3.4,10.5-3.4c7.8,0,14.2,4.6,14.8,10.5c0,0.4,0.1,0.8,0.1,1.2v0
		c-0.5,0.5-1.1,1-1.7,1.4h0c-2.4,1.9-4.8,3.7-7.4,5.4c-2.5,1.6-5.2,3.1-7.9,4.4c-5,2.5-10.3,4.3-15.7,5.7v13.8
		c0.6,0.3,1.2,0.6,1.9,0.9c5.5,2.5,11.7,4,18.3,4h0c2.9,0,5.9-0.2,8.7-0.8c0.7,0.4,2.9,1.8,4.2,5c0.2,0.6,0.5,1.2,0.6,1.9v0
		c0,0.1,0,0.1,0,0.2v0c0.3,3.9-2.3,15-15.3,15c-12.9,0-16.6-12.5-16.6-12.5l-0.5,0.1l-3.3,0.4c-0.6,0.1-1.2,0.2-1.8,0.2
		c-5.9,0.7-14.4,1.8-15,1.9c-0.5,0.1-1.8,0.6-2.8,2.2v0c-0.9,1.4-1.5,3.5-1.5,6.9c0,7.2,8.2,18.1,8.9,19l0,0l0,0l0,0
		c7.5,10,20,16.6,34,16.6c23,0,41.6-17.5,41.6-39.1c0-10.6-4.5-20.2-11.8-27.2c-0.2-0.2-0.3-0.3-0.5-0.5
		C109.5,65.6,114.6,55.5,114.7,44.2L114.7,44.2z"/>
	
		<linearGradient id="SVGID_1_" gradientUnits="userSpaceOnUse" x1="-791.4254" y1="-671.3223" x2="-758.1105" y2="-636.2048" gradientTransform="matrix(1 0 0 1 855.6786 758.0255)">
		<stop  offset="0" style="stop-color:#215F6C"/>
		<stop  offset="1" style="stop-color:#1ED7DD"/>
	</linearGradient>
	<path class="st1" d="M103.5,97.5l0-0.1c0-0.1,0-0.2,0-0.3c0-0.2,0-0.3,0-0.5c0-7.8-2.8-14.8-7.3-20.1c-4.5,2.9-9.7,4.9-15.3,6
		c0.7,0.4,2.9,1.8,4.2,5c0.2,0.6,0.5,1.2,0.6,1.9v0v0l0,0.2v0c0.1,0.5,0.2,1.1,0.3,1.6c0.3,2.4-0.1,4.5-0.6,6.4
		c-2.1,3.3-7.1,9.4-15.6,9.4c-11.5,0-15.8-9.1-15.9-9.4c0,0,0,0,0,0v0h0c0,0-2.5,0.7-4.1,3.5c-0.3,0.5-0.5,1-0.7,1.6v0
		c-0.4,1.1-0.6,2.4-0.6,3.9c0,7.6,6.7,20.7,24.2,20.7c4.2,0,8-0.9,11.3-2.4l0,0C85.5,124.3,102.9,116.4,103.5,97.5L103.5,97.5z"/>
	
		<linearGradient id="SVGID_00000120517954486906860240000003601861474866141840_" gradientUnits="userSpaceOnUse" x1="-797.819" y1="-679.5046" x2="-760.3998" y2="-621.1913" gradientTransform="matrix(1 0 0 1 855.6786 758.0255)">
		<stop  offset="0.382" style="stop-color:#5CAFB7"/>
		<stop  offset="0.886" style="stop-color:#3A7E7D"/>
	</linearGradient>
	<path style="fill:url(#SVGID_00000120517954486906860240000003601861474866141840_);" d="M101.8,73.2c-0.2-0.2-0.3-0.3-0.5-0.5
		c-1.6,1.4-3.3,2.7-5.2,3.8c4.5,5.3,7.3,12.3,7.3,20.1c0,0.1,0,0.2,0,0.2l0,0.2c0,0.1,0,0.2,0,0.3l0,0.1
		c-0.6,18.9-18,26.7-19.4,27.4l0,0c-3.3,1.4-7.1,2.4-11.3,2.4c-17.5,0-24.2-13.1-24.2-20.7c0-1.5,0.2-2.8,0.6-3.9v0
		c0.2-0.6,0.4-1.1,0.7-1.6c1.6-2.8,4-3.4,4.1-3.5h0v-5.5l-0.5,0.1l-3.3,0.4l-1.4,0.2l-0.4,0.1c-5,0.6-10,1.3-15,1.9
		c-0.5,0.1-1.8,0.6-2.8,2.2c-0.9,1.4-1.5,3.5-1.5,6.9c0,7.1,8.2,18.1,8.9,19l0,0l0,0l0,0l0,0c7.5,10,20,16.6,34,16.6
		c23,0,41.6-17.5,41.6-39.1C113.6,89.8,109.1,80.2,101.8,73.2L101.8,73.2z"/>
	
		<linearGradient id="SVGID_00000153687925806389331670000013359462463347299992_" gradientUnits="userSpaceOnUse" x1="-801.8" y1="-659.7197" x2="-769.614" y2="-659.7197" gradientTransform="matrix(1 0 0 1 855.6786 758.0255)">
		<stop  offset="0" style="stop-color:#23969B"/>
		<stop  offset="1" style="stop-color:#367E7B"/>
	</linearGradient>
	<path style="fill:url(#SVGID_00000153687925806389331670000013359462463347299992_);" d="M85.4,97.6c-2.1,3.3-7.1,9.4-15.6,9.4
		c-11.7,0-15.9-9.4-15.9-9.4v-5.5c0,0,3.6,12.5,16.6,12.5c12.9,0,15.6-11.1,15.3-15c0.1,0.5,0.2,1.1,0.3,1.6
		C86.2,93.6,85.9,95.8,85.4,97.6L85.4,97.6z"/>
	
		<linearGradient id="SVGID_00000116212233908501232640000008145416841735873209_" gradientUnits="userSpaceOnUse" x1="-786.0329" y1="-660.4191" x2="-786.0329" y2="-650.8665" gradientTransform="matrix(1 0 0 1 855.6786 758.0255)">
		<stop  offset="0" style="stop-color:#38818C"/>
		<stop  offset="1" style="stop-color:#6DC7D0"/>
	</linearGradient>
	<path style="fill:url(#SVGID_00000116212233908501232640000008145416841735873209_);" d="M85.4,97.6c-0.2,0.3-0.4,0.7-0.7,1
		c-0.1,0.2-0.2,0.3-0.3,0.5l-0.2,0.2l-0.2,0.2c-0.5,0.6-1,1.3-1.6,1.8c-1.1,1.2-2.3,2.2-3.7,3.1c-0.7,0.4-1.4,0.8-2.1,1.2
		c-0.7,0.3-1.5,0.6-2.3,0.8c-0.8,0.2-1.6,0.4-2.4,0.5l-0.6,0.1c-0.2,0-0.4,0-0.6,0c-0.2,0-0.4,0-0.6,0c-0.2,0-0.4,0-0.6,0l-0.6,0
		c-0.1,0-0.2,0-0.3,0l-0.3,0l-0.6,0c-0.2,0-0.4,0-0.6-0.1l-0.3,0c0,0-0.1,0-0.1,0l-0.1,0l-0.6-0.1c-0.2,0-0.4-0.1-0.6-0.1l-0.3-0.1
		c-0.1,0-0.2,0-0.3-0.1c-0.4-0.1-0.8-0.2-1.2-0.4l-0.3-0.1l-0.1,0l-0.1-0.1l-0.6-0.2c-0.7-0.3-1.5-0.7-2.2-1.1
		c-1.4-0.8-2.6-1.9-3.7-3.1c-0.5-0.6-1.1-1.2-1.5-1.9c-0.2-0.3-0.5-0.7-0.7-1c-0.2-0.3-0.4-0.7-0.6-1.1c0.2,0.4,0.4,0.7,0.6,1
		c0.2,0.3,0.4,0.7,0.7,1c0.5,0.6,1,1.3,1.6,1.8c1.1,1.1,2.4,2.1,3.8,3l0.5,0.3c0,0,0.1,0,0.1,0.1l0.1,0.1l0.3,0.1l0.3,0.1
		c0.1,0,0.2,0.1,0.3,0.1l0.3,0.1l0.1,0.1l0.1,0l0.1,0l0.6,0.2l0.1,0.1l0.1,0l0.3,0.1c0.4,0.1,0.8,0.2,1.1,0.3c0.1,0,0.2,0,0.3,0.1
		l0.3,0.1c0.2,0,0.4,0.1,0.6,0.1l0.6,0.1l0.1,0c0,0,0.1,0,0.1,0l0.3,0c0.2,0,0.4,0.1,0.6,0.1l0.6,0l0.3,0c0.1,0,0.2,0,0.3,0l0.6,0
		c0.2,0,0.4,0,0.6,0c0.2,0,0.4,0,0.6,0c0.2,0,0.4,0,0.6,0l0.6-0.1c0.8-0.1,1.6-0.3,2.3-0.5c1.5-0.4,3-1.1,4.4-1.9
		c1.4-0.8,2.6-1.9,3.7-3C83.5,100.2,84.5,98.9,85.4,97.6L85.4,97.6z"/>
	
		<linearGradient id="SVGID_00000052087249971597748450000007651046209932465810_" gradientUnits="userSpaceOnUse" x1="-788.8033" y1="-673.9422" x2="-767.3348" y2="-637.1201" gradientTransform="matrix(1 0 0 1 855.6786 758.0255)">
		<stop  offset="0.524" style="stop-color:#206E78"/>
		<stop  offset="1" style="stop-color:#76CBD0"/>
	</linearGradient>
	<path style="fill:url(#SVGID_00000052087249971597748450000007651046209932465810_);" d="M53.9,97.6L53.9,97.6L53.9,97.6
		c-0.3,0.1-0.6,0.2-0.8,0.3c-0.3,0.1-0.5,0.3-0.8,0.5c-0.7,0.5-1.4,1.1-1.9,1.9c-0.2,0.2-0.3,0.5-0.5,0.8c-0.3,0.5-0.5,1.1-0.7,1.6
		l0,0v0l0,0c-0.3,1.1-0.5,2.2-0.5,3.3c0,0.6,0,1.1,0,1.7c0,0.6,0.1,1.1,0.2,1.7c0.2,1.1,0.5,2.2,0.9,3.3c0.4,1.1,0.9,2.1,1.4,3.1
		c1.1,2,2.5,3.8,4.2,5.3c0.1,0.1,0.2,0.2,0.3,0.3l0.3,0.3c0.2,0.2,0.4,0.4,0.7,0.5c0.2,0.2,0.4,0.3,0.7,0.5c0.1,0.1,0.2,0.2,0.3,0.2
		c0.1,0,0.1,0.1,0.2,0.1l0.2,0.1c0.9,0.6,1.9,1.2,3,1.7c2,1,4.2,1.6,6.5,2c1.1,0.2,2.2,0.3,3.4,0.4c1.1,0.1,2.3,0.1,3.4,0
		c1.1-0.1,2.3-0.2,3.4-0.4c1.1-0.2,2.2-0.5,3.3-0.8c1.1-0.3,2.1-0.7,3.2-1.2c1-0.5,2-1,3-1.6c2-1.2,3.8-2.5,5.5-3.9
		c1.7-1.5,3.3-3.1,4.7-4.9c0.7-0.9,1.3-1.8,1.9-2.8c0.6-1,1.1-2,1.6-3c0.9-2.1,1.6-4.2,2-6.5c0.2-1.1,0.3-2.2,0.4-3.4l0-0.2l0-0.2
		l0-0.4c0-0.1,0-0.3,0-0.4c0-0.1,0-0.3,0-0.4l0-0.2c0-0.1,0-0.1,0-0.2l0-0.4l0-0.9c-0.1-2.3-0.4-4.5-1-6.7c-0.1-0.3-0.1-0.5-0.2-0.8
		c-0.1-0.3-0.2-0.5-0.2-0.8l-0.3-0.8l-0.1-0.4c0-0.1-0.1-0.3-0.2-0.4l-0.3-0.8l0-0.1l0-0.1l-0.1-0.2l-0.2-0.4l-0.2-0.4
		c0-0.1-0.1-0.1-0.1-0.2l-0.1-0.2l-0.4-0.8L99.8,82l-0.1-0.2l-0.2-0.4l-0.2-0.4c-0.1-0.1-0.1-0.2-0.2-0.4L98.7,80l-0.1-0.2l-0.1-0.1
		l-0.1-0.1l-0.2-0.4c-0.2-0.2-0.3-0.5-0.5-0.7l-0.5-0.7c-0.1-0.1-0.2-0.2-0.3-0.3l-0.3-0.3l-0.5-0.7l0.5,0.7l0.3,0.3
		c0.1,0.1,0.2,0.2,0.3,0.3l0.5,0.7c0.2,0.2,0.3,0.5,0.5,0.7l0.2,0.4l0.1,0.1l0.1,0.1l0.1,0.2l0.5,0.7c0.1,0.1,0.1,0.2,0.2,0.4
		l0.2,0.4l0.2,0.4l0.1,0.2l0.1,0.2l0.4,0.8l0.1,0.2c0,0.1,0.1,0.1,0.1,0.2l0.2,0.4l0.2,0.4l0.1,0.2l0,0.1l0,0.1l0.3,0.8
		c0.1,0.1,0.1,0.3,0.2,0.4l0.1,0.4l0.3,0.8c0.1,0.3,0.2,0.5,0.2,0.8c0.1,0.3,0.2,0.5,0.2,0.8l0.2,0.8l0.1,0.2c0,0.1,0,0.1,0,0.2
		l0.1,0.4c0.1,0.3,0.1,0.6,0.2,0.8l0.1,0.8l0.1,0.4c0,0.1,0,0.1,0,0.2l0,0.2l0.1,0.8l0,0.2l0,0.2l0,0.4c0,0.3,0,0.6,0.1,0.9l0,0.9
		l0,0.4c0,0.1,0,0.1,0,0.2l0,0.2c0,0.1,0,0.3,0,0.4c0,0.1,0,0.3,0,0.4l0,0.4l0,0.2l0,0.2c-0.1,1.1-0.2,2.3-0.4,3.4
		c-0.2,1.1-0.5,2.2-0.8,3.3c-0.3,1.1-0.7,2.2-1.2,3.2c-0.5,1-1,2.1-1.6,3c-0.6,1-1.2,1.9-1.9,2.8c-1.4,1.8-3,3.5-4.7,5
		c-0.9,0.7-1.8,1.5-2.7,2.1c-0.9,0.7-1.9,1.3-2.9,1.9c-1,0.6-2,1.1-3,1.6c-1,0.5-2.1,0.9-3.2,1.2c-2.2,0.7-4.4,1.1-6.7,1.2
		c-0.3,0-0.6,0-0.9,0c-0.3,0-0.6,0-0.9,0l-0.4,0c-0.1,0-0.3,0-0.4,0l-0.4,0l-0.2,0l-0.2,0c-1.1-0.1-2.3-0.2-3.4-0.4
		c-2.2-0.4-4.5-1-6.5-2c-2.1-1-4-2.3-5.7-3.8c-0.8-0.8-1.6-1.6-2.3-2.5c-0.7-0.9-1.3-1.8-1.9-2.8c-0.6-1-1-2-1.4-3.1
		c-0.4-1.1-0.7-2.2-0.9-3.3c-0.1-0.6-0.2-1.1-0.2-1.7c0-0.6-0.1-1.1,0-1.7c0-1.1,0.2-2.3,0.6-3.4l0,0v0l0,0c0.2-0.6,0.4-1.1,0.7-1.6
		c0.1-0.3,0.3-0.5,0.5-0.8s0.4-0.5,0.6-0.7c0.4-0.4,0.9-0.8,1.4-1.2c0.3-0.2,0.5-0.3,0.8-0.4C53.3,97.8,53.6,97.7,53.9,97.6
		L53.9,97.6L53.9,97.6z"/>
	
		<linearGradient id="SVGID_00000161598943399261419930000006427044628490162839_" gradientUnits="userSpaceOnUse" x1="-819.7128" y1="-689.0685" x2="-756.5834" y2="-758.1313" gradientTransform="matrix(1 0 0 1 855.6786 758.0255)">
		<stop  offset="0" style="stop-color:#206270"/>
		<stop  offset="1" style="stop-color:#0CA19F"/>
	</linearGradient>
	<path style="fill:url(#SVGID_00000161598943399261419930000006427044628490162839_);" d="M99.7,33.9c0,11.9-7.9,21.5-17.2,28.6
		c-2.1,1.6-4.3,3.1-6.5,4.5c-3.1,1.9-6.2,3.6-9,5c-3.8,1.9-7.7,3.6-11.6,5c-2.1,0.8-3.4,1.2-3.4,1.2h0V64.5c2.2-0.5,4.3-1.1,6.4-1.8
		c3.2-1.1,6.3-2.3,9.4-3.8c3.6-1.7,7-3.7,10.2-6c1.7-1.2,3.4-2.5,5.1-3.8h0c0.6-0.5,1.1-0.9,1.7-1.4c0-0.1,0-0.1,0-0.2
		c0-0.4,0-0.7-0.1-1.1c-0.7-5.9-7.1-10.5-14.8-10.5c-4.1,0-7.8,1.3-10.5,3.4c-1.3,1-2.3,2.2-3.1,3.5c-0.4,0.7-0.8,1.5-1,2.4
		c-0.2,0.8-0.3,1.5-0.3,2.3l-1-0.1l-20.2-1.8c0,0-4.2-0.5-4.2-5s5.5-14.9,5.5-14.9c4.8-8.6,13-15.4,23-18.8
		c11.8-2.5,24.7,1.2,33.1,8.7c4.5,4,7.6,9,8.5,14.8C99.6,31.5,99.7,32.7,99.7,33.9L99.7,33.9z"/>
	
		<linearGradient id="SVGID_00000167361568037295865030000011168532583951300248_" gradientUnits="userSpaceOnUse" x1="-772.3583" y1="-753.5322" x2="-772.3583" y2="-674.7428" gradientTransform="matrix(1 0 0 1 855.6786 758.0255)">
		<stop  offset="0" style="stop-color:#8ED4D6"/>
		<stop  offset="1" style="stop-color:#0FA9AB"/>
	</linearGradient>
	<path style="fill:url(#SVGID_00000167361568037295865030000011168532583951300248_);" d="M114.7,44.2c-0.1,11.2-5.2,21.4-13.4,28.5
		c-1.6,1.4-3.3,2.7-5.2,3.8c-4.5,2.9-9.7,4.9-15.3,6C78,83,75,83.3,72.1,83.3h0c-6.6-0.1-12.8-1.5-18.3-4c-0.6-0.3-1.3-0.6-1.9-0.9
		c0,0,1.3-0.4,3.4-1.2c4-1.5,7.8-3.2,11.6-5c2.9-1.4,6-3.1,9-5c2.2-1.4,4.4-2.9,6.5-4.5c9.3-7.1,17.2-16.7,17.2-28.6
		c0-1.2-0.1-2.4-0.3-3.6c-0.9-5.7-4.1-10.8-8.5-14.8C82.5,8.1,69.6,4.4,57.8,6.9c4.6-1.6,9.7-2.4,14.9-2.4
		c13.1,0.1,24.8,5.8,32.5,14.6c2.9,3.3,5.2,7.1,6.8,11.2C113.9,34.7,114.8,39.4,114.7,44.2L114.7,44.2z"/>
	<path class="st8" d="M98.3,75.1c-0.7,0.5-1.4,1-2.1,1.4c-4.5,2.9-9.7,4.9-15.3,6C78,83,75,83.3,72.1,83.3h0
		c-6.6-0.1-12.8-1.5-18.3-4c-0.6-0.3-1.3-0.6-1.9-0.9c0,0,1.3-0.4,3.4-1.2c4-1.5,7.8-3.2,11.6-5c5.3,3.8,11.7,5.9,18.2,5.8
		c3.7,0,7.3-0.6,10.6-1.8C96.6,75.8,97.4,75.5,98.3,75.1L98.3,75.1z"/>
	
		<linearGradient id="SVGID_00000127031738730068165860000012232002009333814436_" gradientUnits="userSpaceOnUse" x1="-800.856" y1="-718.7635" x2="-769.191" y2="-718.7635" gradientTransform="matrix(1 0 0 1 855.6786 758.0255)">
		<stop  offset="0" style="stop-color:#1D636F"/>
		<stop  offset="1" style="stop-color:#0F9D9E"/>
	</linearGradient>
	<path style="fill:url(#SVGID_00000127031738730068165860000012232002009333814436_);" d="M72.5,30.9h-2.4
		c-8.4,0-15.2,5.3-15.2,11.8v4.7c0-0.8,0.1-1.6,0.3-2.3c0.2-0.8,0.6-1.6,1-2.4c0.8-1.3,1.8-2.5,3.1-3.5c2.7-2.1,6.4-3.4,10.5-3.4
		c7.8,0,14.2,4.6,14.8,10.5c0,0.4,0.1,0.8,0.1,1.2C90.8,37.6,80.7,30.9,72.5,30.9L72.5,30.9z"/>
	
		<linearGradient id="SVGID_00000118362466574934151370000011242729077965892493_" gradientUnits="userSpaceOnUse" x1="-776.8376" y1="-751.9719" x2="-776.8376" y2="-685.9337" gradientTransform="matrix(1 0 0 1 855.6786 758.0255)">
		<stop  offset="0" style="stop-color:#1F6472"/>
		<stop  offset="1" style="stop-color:#63C0C8"/>
	</linearGradient>
	<path style="fill:url(#SVGID_00000118362466574934151370000011242729077965892493_);" d="M57.8,6.9c1.1-0.2,2.2-0.4,3.4-0.6
		c1.1-0.1,2.3-0.2,3.4-0.2c1.1,0,2.3,0,3.4,0.1l0.9,0.1c0.1,0,0.3,0,0.4,0l0.4,0l0.4,0l0.4,0.1L71,6.4c0.1,0,0.3,0,0.4,0.1
		c4.5,0.7,8.9,2.2,12.9,4.3c0.5,0.3,1,0.6,1.5,0.8l0.7,0.5l0.2,0.1l0.2,0.1l0.4,0.2l0.4,0.2l0.3,0.2l0.3,0.2l0.2,0.1l0.2,0.1
		l0.7,0.5l0.7,0.5l0.2,0.1l0.2,0.1l0.3,0.3c0.1,0.1,0.2,0.2,0.3,0.3l0.3,0.3l0.3,0.3l0.2,0.1c0.1,0,0.1,0.1,0.2,0.2l0.6,0.6
		c0.8,0.8,1.5,1.7,2.2,2.6c0.7,0.9,1.3,1.9,1.9,2.9l0.4,0.7l0.4,0.8l0.1,0.2l0.1,0.2l0.2,0.4l0.2,0.4l0.2,0.4l0.2,0.4l0.1,0.2
		l0.1,0.2l0.3,0.8l0.2,0.8l0.1,0.2c0,0.1,0,0.1,0.1,0.2l0.1,0.4l0.1,0.4c0,0.1,0.1,0.3,0.1,0.4l0.1,0.4c0,0.1,0.1,0.3,0.1,0.4
		c0.2,1.1,0.3,2.3,0.3,3.4c0,0.3,0,0.6,0,0.9l0,0.2l0,0.1l0,0.1l0,0.4c0,0.3,0,0.6-0.1,0.9c0,0.3-0.1,0.6-0.1,0.9l-0.1,0.9
		c0,0.1,0,0.1,0,0.2l0,0.2L99.4,39c0,0.1-0.1,0.3-0.1,0.4l-0.1,0.4l-0.1,0.4c0,0.1,0,0.1,0,0.2L99,40.7c-0.1,0.3-0.1,0.6-0.2,0.8
		l-0.3,0.8c-0.4,1.1-0.8,2.2-1.2,3.2c-0.5,1-1,2.1-1.6,3c-0.6,1-1.2,1.9-1.9,2.9c-0.3,0.5-0.7,0.9-1,1.4l-0.5,0.7
		c-0.1,0.1-0.2,0.2-0.3,0.3l-0.3,0.3l-0.3,0.3l-0.3,0.3l-0.3,0.3l-0.1,0.2l-0.1,0.2L90,56.1l-0.6,0.6c-0.8,0.8-1.6,1.6-2.5,2.4
		c-0.8,0.8-1.7,1.5-2.6,2.2c-0.4,0.4-0.9,0.7-1.3,1.1c-0.5,0.3-0.9,0.7-1.4,1c-0.9,0.7-1.9,1.3-2.8,2c-1.9,1.3-3.8,2.5-5.8,3.6
		c-1,0.6-2,1.1-3,1.6c-1,0.5-2,1-3,1.5c1-0.5,2-1,3-1.6c1-0.5,2-1.1,3-1.7c2-1.1,3.9-2.4,5.8-3.6c0.9-0.6,1.9-1.3,2.8-2
		c0.5-0.3,0.9-0.7,1.4-1c0.4-0.3,0.9-0.7,1.3-1.1c0.9-0.7,1.7-1.5,2.6-2.2c0.8-0.8,1.7-1.6,2.4-2.4l0.6-0.6l0.6-0.6l0.1-0.2l0.1-0.2
		l0.3-0.3l0.3-0.3l0.3-0.3l0.3-0.3c0.1-0.1,0.2-0.2,0.3-0.3l0.5-0.7c0.3-0.5,0.7-0.9,1-1.4c0.7-0.9,1.3-1.9,1.9-2.9
		c0.6-1,1.1-2,1.6-3c0.5-1,0.9-2.1,1.2-3.2l0.3-0.8c0.1-0.3,0.1-0.5,0.2-0.8l0.1-0.2c0-0.1,0-0.1,0-0.2l0.1-0.4l0.1-0.4
		c0-0.1,0.1-0.3,0.1-0.4l0.1-0.4l0-0.2c0-0.1,0-0.1,0-0.2l0.1-0.8c0-0.3,0.1-0.6,0.1-0.8c0-0.3,0-0.6,0.1-0.8l0-0.4l0-0.1l0-0.1
		l0-0.2c0-0.3,0-0.6,0-0.8c0-1.1-0.1-2.3-0.3-3.4c0-0.1,0-0.3-0.1-0.4l-0.1-0.4c0-0.1-0.1-0.3-0.1-0.4L99,28.8l-0.1-0.4
		c0-0.1,0-0.1-0.1-0.2L98.8,28l-0.2-0.8l-0.3-0.8c0-0.1,0-0.1-0.1-0.2L98.1,26l-0.2-0.4l-0.2-0.4l-0.2-0.4l-0.2-0.4l-0.1-0.2
		l-0.1-0.2l-0.4-0.8l-0.4-0.7c-0.6-1-1.2-1.9-1.9-2.8c-0.7-0.9-1.4-1.8-2.2-2.6l-0.6-0.6c0,0-0.1-0.1-0.2-0.1l-0.2-0.1L91.1,16
		l-0.3-0.3c-0.1-0.1-0.2-0.2-0.3-0.3l-0.3-0.3L90,15l-0.2-0.1l-0.7-0.5l-0.7-0.5l-0.2-0.1l-0.2-0.1l-0.3-0.2l-0.3-0.2l-0.4-0.2
		l-0.4-0.2l-0.2-0.1l-0.2-0.1l-0.7-0.5c-0.5-0.3-1-0.6-1.5-0.8l-0.4-0.2c-0.1-0.1-0.3-0.1-0.4-0.2l-0.4-0.2
		c-0.1-0.1-0.3-0.1-0.4-0.2l-0.8-0.4c-0.1-0.1-0.3-0.1-0.4-0.2l-0.4-0.2c-0.1-0.1-0.3-0.1-0.4-0.2l-0.4-0.2L80,9
		C79.9,9,79.9,9,79.8,9l-0.2-0.1l-0.8-0.3L78,8.3c-0.3-0.1-0.5-0.2-0.8-0.3c-0.3-0.1-0.5-0.2-0.8-0.3c-0.3-0.1-0.5-0.2-0.8-0.2
		l-0.8-0.2l-0.2-0.1l-0.2,0l-0.4-0.1L73.5,7C73.3,7,73.2,7,73.1,7l-0.4-0.1c-0.1,0-0.3-0.1-0.4-0.1l-0.8-0.1c-0.1,0-0.3,0-0.4-0.1
		l-0.4-0.1l-0.4-0.1l-0.4,0l-0.4,0c-0.1,0-0.3,0-0.4,0L68,6.2c-1.1-0.1-2.3-0.1-3.4-0.1c-1.1,0-2.3,0.1-3.4,0.2
		C60.1,6.5,58.9,6.7,57.8,6.9L57.8,6.9z"/>
</g>
</svg>
