<?xml version="1.0" encoding="utf-8"?>
<!-- Generator: Adobe Illustrator 26.0.1, SVG Export Plug-In . SVG Version: 6.00 Build 0)  -->
<svg version="1.1" id="Layer_1" xmlns="http://www.w3.org/2000/svg" xmlns:xlink="http://www.w3.org/1999/xlink" x="0px" y="0px"
	 viewBox="0 0 144 144" style="enable-background:new 0 0 144 144;" xml:space="preserve">
<style type="text/css">
	.st0{fill:#00005B;}
	.st1{fill:#9999FF;}
</style>
<g id="vlpa_00000020365407572960674200000004223400279651393691_">
	<g id="vlpb_00000136378281102274033600000014741805819337851814_">
		<g id="vlpc_00000004512917555803395990000004879396281364359298_">
			<g id="vlpd_00000093876395355852921810000008212767105475778223_">
				<path class="st0" d="M26.8,3.8h90.4c13.7,0,24.8,11.1,24.8,24.8v86.9c0,13.7-11.1,24.8-24.8,24.8H26.8
					C13.1,140.2,2,129.2,2,115.5V28.5C2,14.8,13.1,3.8,26.8,3.8z"/>
			</g>
		</g>
	</g>
	<g id="vlpe_00000111179807594605379190000007043454869296753538_">
		<g id="vlpf_00000064314525504523859770000002842932296951020203_">
			<path class="st1" d="M58.2,85.4H36.5l-4.4,13.8c-0.1,0.5-0.6,0.9-1.1,0.8H20c-0.6,0-0.8-0.4-0.6-1.1l18.8-53.8
				c0.2-0.6,0.3-1.1,0.6-1.8c0.2-1.2,0.3-2.5,0.3-3.8c-0.1-0.3,0.2-0.6,0.5-0.6h0.2h14.9c0.4,0,0.7,0.2,0.8,0.5l21.3,59.5
				c0.2,0.6,0,0.9-0.6,0.9H64c-0.4,0.1-0.8-0.2-0.9-0.6l-4.8-14L58.2,85.4z M39.9,73.8h14.8c-0.3-1.2-0.8-2.7-1.3-4.2
				c-0.5-1.6-1.1-3.3-1.6-5c-0.6-1.8-1.1-3.6-1.7-5.4c-0.6-1.8-1.1-3.5-1.6-5.2c-0.5-1.6-0.9-3.2-1.3-4.6h-0.1c-0.5,2.5-1.2,5-2,7.5
				c-0.9,2.8-1.8,5.7-2.7,8.6C41.7,68.6,40.8,71.4,39.9,73.8z"/>
			<path class="st1" d="M111.1,80.2H92.6c0.2,1.8,0.8,3.6,1.8,5.2c1,1.6,2.5,2.8,4.3,3.5c2.3,1,4.9,1.5,7.5,1.5
				c2-0.1,4.1-0.2,6.1-0.6c1.8-0.2,3.6-0.7,5.2-1.3c0.3-0.2,0.5-0.1,0.5,0.5v8.9c0,0.2-0.1,0.5-0.1,0.7c-0.1,0.2-0.2,0.3-0.4,0.4
				c-1.9,0.8-3.8,1.4-5.8,1.8c-2.7,0.5-5.5,0.8-8.3,0.7c-4.4,0-8.2-0.7-11.2-2c-2.9-1.2-5.4-3.1-7.4-5.5c-1.9-2.3-3.2-4.8-4-7.6
				c-0.8-2.7-1.2-5.6-1.2-8.5c0-3.2,0.5-6.2,1.5-9.3c0.9-2.9,2.4-5.6,4.4-8c1.9-2.3,4.3-4.2,7.1-5.5c2.7-1.3,6-1.8,9.7-1.8
				c3.1-0.1,6.2,0.5,9,1.8c2.4,1,4.5,2.6,6.1,4.7c1.5,2,2.7,4.2,3.5,6.7c0.8,2.3,1.1,4.7,1.1,7.1c0,1.4-0.1,2.6-0.1,3.7
				c-0.1,1.1-0.2,1.9-0.2,2.4c-0.1,0.4-0.4,0.8-0.8,0.8c-0.4,0-1,0.1-1.9,0.1c-0.9,0.1-2,0.2-3.4,0.2
				C114,80.4,112.6,80.2,111.1,80.2L111.1,80.2z M92.6,71.7h12.3c1.5,0,2.6,0,3.3-0.1c0.5-0.1,0.9-0.2,1.3-0.5v-0.6
				c0-0.8-0.1-1.5-0.4-2.2c-1.1-3.3-4.1-5.5-7.6-5.4c-3.2-0.2-6.2,1.5-7.8,4.4C93.2,68.8,92.8,70.2,92.6,71.7z"/>
		</g>
	</g>
</g>
</svg>
