<?xml version="1.0" encoding="utf-8"?>
<!-- Generator: Adobe Illustrator 26.0.1, SVG Export Plug-In . SVG Version: 6.00 Build 0)  -->
<svg version="1.1" id="Layer_1" xmlns="http://www.w3.org/2000/svg" xmlns:xlink="http://www.w3.org/1999/xlink" x="0px" y="0px"
	 viewBox="0 0 144 144" style="enable-background:new 0 0 144 144;" xml:space="preserve">
<style type="text/css">
	.st0{fill:#330000;}
	.st1{fill:#FF9A00;}
</style>
<g>
	<path class="st0" d="M26.8,3.8h90.4c13.7,0,24.8,11.1,24.8,24.8v86.9c0,13.7-11.1,24.8-24.8,24.8H26.8C13.1,140.2,2,129.2,2,115.5
		V28.5C2,14.8,13.1,3.8,26.8,3.8z"/>
	<path class="st1" d="M69.7,85.4H48l-4.4,13.7c-0.1,0.5-0.6,0.9-1.1,0.8h-11c-0.6,0-0.8-0.4-0.6-1.1l18.8-54.1
		c0.2-0.6,0.4-1.2,0.6-1.9c0.2-1.2,0.3-2.5,0.3-3.8c-0.1-0.3,0.2-0.6,0.5-0.6h15.1c0.5,0,0.7,0.2,0.8,0.5L88.2,99
		c0.2,0.6,0,0.9-0.6,0.9H75.4c-0.4,0.1-0.8-0.2-0.9-0.6L69.7,85.4z M51.3,73.6h14.8c-0.3-1.2-0.8-2.7-1.3-4.2c-0.5-1.6-1-3.3-1.6-5
		c-0.6-1.8-1.1-3.6-1.7-5.4c-0.6-1.8-1.1-3.5-1.6-5.2c-0.5-1.6-0.9-3.2-1.3-4.6h-0.1c-0.5,2.5-1.2,5-2,7.5c-0.9,2.8-1.8,5.7-2.7,8.6
		C53.1,68.4,52.2,71.1,51.3,73.6z M101.2,48.7c-1.9,0.1-3.8-0.7-5.2-2c-1.3-1.5-2-3.4-2-5.4c-0.1-2,0.7-3.8,2.1-5.2
		c1.4-1.3,3.3-2,5.2-2c2.3,0,4,0.7,5.3,2c1.3,1.4,2,3.3,1.9,5.2c0.1,2-0.6,3.9-2,5.4C105.1,48,103.2,48.8,101.2,48.7L101.2,48.7z
		 M94.6,99.3V54.4c0-0.6,0.2-0.8,0.8-0.8h11.6c0.5,0,0.8,0.3,0.8,0.8v44.9c0,0.6-0.2,0.9-0.8,0.9H95.5
		C94.9,100.2,94.6,99.9,94.6,99.3z"/>
</g>
</svg>
