<svg width="144" height="144" viewBox="0 0 144 144" fill="none" xmlns="http://www.w3.org/2000/svg">
<path d="M13.5358 23.8227C19.5445 19.9197 25.4803 15.8692 31.5114 12.0215C31.5675 44.7267 31.5114 77.4319 31.5114 110.143C28.5631 112.11 25.5924 114.034 22.6497 116.013C19.0961 118.324 15.5873 120.734 12 122.995V25.095C12.4387 24.5739 12.9588 24.143 13.5358 23.8227Z" fill="#679AE7"/>
<path d="M31.5114 12.0215C59.8695 11.9928 88.2296 11.9928 116.591 12.0215C119.955 11.8371 123.177 15.0947 123.161 18.7826C123.161 23.8657 123.161 28.9549 123.161 34.038C123.161 59.3982 123.161 84.7605 123.161 110.125C92.624 110.125 62.0854 110.125 31.545 110.125C31.5114 77.4319 31.5674 44.7267 31.5114 12.0215ZM59.4585 88.3726C63.6287 88.4156 67.8045 88.3726 71.9803 88.3726C71.9803 81.8164 71.9803 75.2806 71.9803 68.7654C73.7347 68.7654 75.4891 68.7654 77.2435 68.7347C79.1156 72.65 80.8308 76.6636 82.6469 80.6158C84.0145 84.0455 86.0099 87.6289 89.4571 88.8643C92.5011 89.9143 95.7861 89.7466 98.728 88.391C98.728 85.662 98.728 82.933 98.728 80.2101C97.7022 80.0687 96.5924 80.0872 95.6956 79.4418C94.9642 78.8857 94.3832 78.1233 94.0141 77.2352C92.1868 73.4367 90.352 69.6444 88.5098 65.8582C91.3124 64.2109 94.0084 61.8999 95.3481 58.6238C96.6989 55.5506 96.3065 52.0041 96.3402 48.6789C96.3565 46.8488 96.0239 45.0352 95.3636 43.3544C94.7034 41.6736 93.7302 40.1626 92.5063 38.9183C88.9863 35.421 84.0986 34.1179 79.4744 33.9458C72.8155 33.9458 66.151 33.9458 59.4921 33.9458C59.4417 52.084 59.4809 70.2344 59.4585 88.3726Z" fill="#186BFF"/>
<path d="M71.9804 43.3806C74.4747 43.4851 77.025 43.1409 79.4688 43.6019C81.5203 44.0506 83.3924 45.7716 83.7063 48.1072C83.8473 50.0434 83.881 51.9872 83.8072 53.9279C83.7817 55.1086 83.4269 56.2524 82.7905 57.2052C82.1541 58.158 81.2668 58.874 80.2479 59.2569C77.5855 60.2096 74.7381 59.6687 71.986 59.8162C71.9785 54.3418 71.9767 48.8633 71.9804 43.3806Z" fill="#186BFF"/>
<path d="M59.4585 88.3726C59.4585 70.2283 59.4585 52.1086 59.4585 33.9459C66.1174 33.9459 72.7819 33.9459 79.4408 33.9459C84.0818 34.1241 88.9695 35.4272 92.4727 38.9183C93.6965 40.1626 94.6698 41.6736 95.33 43.3544C95.9903 45.0353 96.3229 46.8488 96.3066 48.6789C96.2785 52.0041 96.6653 55.526 95.3144 58.6238C93.9748 61.8999 91.3012 64.2109 88.4762 65.8582C90.3147 69.6444 92.1494 73.4367 93.9804 77.2352C94.3496 78.1233 94.9306 78.8857 95.662 79.4418C96.5588 80.0564 97.6742 80.0564 98.6943 80.2101C98.6943 82.9391 98.6943 85.6682 98.6943 88.391C95.7524 89.7466 92.4675 89.9143 89.4235 88.8643C86.0044 87.635 83.9865 84.0393 82.6133 80.6158C80.7972 76.6636 79.082 72.6254 77.2099 68.7347C75.4555 68.7962 73.7011 68.7347 71.9467 68.7654C71.9467 75.3216 71.9467 81.8574 71.9467 88.3726C67.8045 88.3787 63.6175 88.4156 59.4585 88.3726ZM71.9803 43.3806C71.9803 48.8592 71.9803 54.3377 71.9803 59.8162C74.7269 59.6749 77.5855 60.2096 80.2423 59.2569C81.2611 58.874 82.1485 58.158 82.7849 57.2052C83.4212 56.2524 83.7761 55.1086 83.8015 53.9279C83.8753 51.9873 83.8416 50.0435 83.7006 48.1073C83.3699 45.7716 81.5146 44.0506 79.4632 43.6019C77.0025 43.1102 74.4746 43.4913 71.9803 43.3806Z" fill="white"/>
<path d="M123.161 34.0504H132C132 66.7002 132 99.3501 132 132H28.6751C27.6589 131.885 26.6789 131.523 25.8063 130.94C24.9337 130.357 24.1905 129.569 23.6305 128.632C22.9197 127.415 22.5801 125.981 22.6608 124.538C22.6608 121.699 22.6608 118.853 22.6608 116.013C25.6035 114.04 28.5742 112.11 31.5225 110.143C62.063 110.143 92.6015 110.143 123.138 110.143C123.168 84.779 123.176 59.4147 123.161 34.0504Z" fill="#0C3D91"/>
</svg>
