<?xml version="1.0" encoding="utf-8"?>
<!-- Generator: Adobe Illustrator 26.0.1, SVG Export Plug-In . SVG Version: 6.00 Build 0)  -->
<svg version="1.1" id="Layer_1" xmlns="http://www.w3.org/2000/svg" xmlns:xlink="http://www.w3.org/1999/xlink" x="0px" y="0px"
	 viewBox="0 0 144 144" style="enable-background:new 0 0 144 144;" xml:space="preserve">
<style type="text/css">
	.st0{fill:#E85984;}
	.st1{fill:#E51050;}
	.st2{fill:#231F20;}
	.st3{fill:#FFFFFF;}
	.st4{fill:#770829;}
</style>
<g>
	<g id="_x23_e85984ff">
		<path class="st0" d="M2.1,21.6c7.6-4.9,15.2-9.9,22.8-14.8c0,35.1,0,70.2,0,105.3c-3,2-6,3.9-9,5.9c-3.8,2.4-7.6,4.9-11.4,7.4
			c-0.7,0.5-1.5,0.9-2.4,1.3C2.1,91.6,2.2,56.6,2.1,21.6z"/>
	</g>
	<g id="_x23_e51050ff">
		<path class="st1" d="M24.9,6.8c33.6,0,67.1,0,100.7,0c3.5,0,6.9,2.8,7.2,6.4c0.1,6.3-0.1,12.6,0.1,18.9c0.1,24.1,0,48.1,0,72.2
			c0,2.6,0.1,5.3-0.1,7.9c-11.2,0.1-22.5,0-33.7,0c-23.4,0-46.8,0-70.2,0c-1.3,0-2.7,0-4-0.1C25,77,24.9,41.9,24.9,6.8 M71,28.7
			c-2.2,6.4-4,13-6.1,19.5c-3.9,12.7-7.7,25.3-11.6,38c-0.4,1-0.7,2-0.8,3.1c3.7,0.1,7.3,0.1,11,0c1.4-4.9,2.8-9.7,4.2-14.6
			c0.1-0.4,0.3-0.8,0.5-1.3c7,0,13.9-0.1,20.9,0.1c1.7,5.3,3.3,10.6,5,15.9c3.7,0,7.5,0,11.2,0c-2.2-7.5-4.8-14.8-7.1-22.2
			c-4.2-12.8-8.2-25.6-12.4-38.4C80.9,28.6,76,28.6,71,28.7z"/>
		<path class="st1" d="M78.3,36.6c0.7,1.7,1,3.6,1.6,5.3c2.1,7.5,4.4,15.1,6.4,22.6c-5.2,0.1-10.4,0.1-15.6,0
			C73,55.2,75.9,45.9,78.3,36.6z"/>
	</g>
	<path class="st2" d="M2,26.6c0-1.7-0.1-3.4,0.1-5c0.1,35,0,70,0,105l0,0.4c-0.3-1.1-0.1-2.2-0.1-3.3C2,91.4,2,59,2,26.6z"/>
	<g id="_x23_ffffffff">
		<path class="st3" d="M71,28.7c4.9-0.1,9.9-0.1,14.8,0c4.2,12.8,8.2,25.6,12.4,38.4c2.3,7.4,4.8,14.8,7.1,22.2
			c-3.7,0.1-7.5,0-11.2,0c-1.8-5.3-3.4-10.6-5-15.9c-7-0.1-13.9,0-20.9-0.1c-0.2,0.4-0.3,0.8-0.5,1.3c-1.4,4.9-2.8,9.8-4.2,14.6
			c-3.7,0.1-7.3,0.1-11,0c0.2-1.1,0.5-2.1,0.8-3.1c3.9-12.7,7.7-25.3,11.6-38C67,41.7,68.8,35.1,71,28.7 M78.3,36.6
			c-2.5,9.3-5.3,18.6-7.7,28c5.2,0.1,10.4,0.1,15.6,0c-2-7.6-4.3-15.1-6.4-22.6C79.3,40.1,79,38.3,78.3,36.6z"/>
	</g>
	<g id="_x23_770829ff">
		<path class="st4" d="M132.9,32c3-0.4,6-0.2,9-0.1c0.2,7.9,0,15.8,0.1,23.8c0,25.3,0,50.6,0,75.8c0,1.9,0.1,3.8-0.1,5.6
			c-39,0.1-78,0-117,0c-2.3,0-4.9-0.2-6.7-1.8c-1.3-1.3-2.4-3-2.3-4.9c0-4.2,0-8.3,0-12.5c3-2,6-3.9,9-5.9c1.3,0.1,2.7,0.1,4,0.1
			c23.4,0,46.8,0,70.2,0c11.2,0,22.5,0.1,33.7,0c0.2-2.6,0-5.3,0.1-7.9C132.9,80.2,133,56.1,132.9,32z"/>
	</g>
</g>
</svg>
