<?xml version="1.0" encoding="utf-8"?>
<!-- Generator: Adobe Illustrator 26.0.1, SVG Export Plug-In . SVG Version: 6.00 Build 0)  -->
<svg version="1.1" id="Layer_1" xmlns="http://www.w3.org/2000/svg" xmlns:xlink="http://www.w3.org/1999/xlink" x="0px" y="0px"
	 viewBox="0 0 144 144" style="enable-background:new 0 0 144 144;" xml:space="preserve">
<style type="text/css">
	.st0{fill:#265787;}
	.st1{fill:#E87D0D;}
</style>
<g>
	<g transform="matrix(2.66418,0,0,2.66418,-519.788,688.754)">
		<path class="st0" d="M223.2-228.8c0.1-1.8,1-3.3,2.3-4.4c1.3-1.1,3-1.7,4.8-1.7c1.9,0,3.6,0.7,4.8,1.7c1.3,1.1,2.2,2.6,2.3,4.4
			c0.1,1.8-0.6,3.5-1.9,4.7c-1.3,1.3-3.1,2.1-5.2,2.1c-2.1,0-3.9-0.8-5.2-2.1C223.9-225.4,223.1-227,223.2-228.8z"/>
	</g>
	<g transform="matrix(2.66418,0,0,2.66418,-519.788,688.754)">
		<path class="st1" d="M211.9-225.3c0,0.7,0.2,2,0.6,3.1c0.7,2.2,1.9,4.2,3.5,6c1.7,1.8,3.7,3.3,6.1,4.4c2.5,1.1,5.2,1.7,8,1.7
			c2.8,0,5.5-0.6,8-1.7c2.4-1.1,4.4-2.6,6.1-4.4c1.6-1.8,2.8-3.8,3.5-6c0.3-1.1,0.6-2.2,0.7-3.4c0.1-1.1,0.1-2.2-0.1-3.4
			c-0.3-2.2-1.1-4.2-2.2-6.1c-1.1-1.7-2.4-3.2-4.1-4.5l0,0l-16.4-12.6c0,0,0,0,0,0c-1.1-0.8-2.9-0.8-4.1,0c-1.2,0.8-1.3,2.2-0.3,3.1
			l0,0l6.8,5.6l-20.9,0c0,0,0,0,0,0c-1.7,0-3.4,1.1-3.7,2.6c-0.3,1.5,0.8,2.7,2.6,2.7l0,0l10.6,0l-18.9,14.5c0,0-0.1,0-0.1,0.1
			c-1.8,1.4-2.4,3.6-1.2,5.1c1.1,1.5,3.6,1.5,5.4,0l10.3-8.4C212.1-227.1,211.9-226,211.9-225.3z M238.4-221.5
			c-2.1,2.2-5.1,3.4-8.3,3.4c-3.2,0-6.2-1.2-8.3-3.4c-1-1.1-1.8-2.3-2.3-3.6c-0.5-1.3-0.6-2.6-0.5-4c0.1-1.3,0.5-2.6,1.1-3.7
			c0.6-1.1,1.5-2.1,2.5-3c2.1-1.7,4.7-2.6,7.4-2.6c2.8,0,5.4,0.9,7.4,2.6c1.1,0.9,1.9,1.9,2.5,3c0.6,1.1,1,2.4,1.1,3.7
			c0.1,1.4-0.1,2.7-0.5,4C240.2-223.8,239.5-222.5,238.4-221.5z"/>
	</g>
</g>
</svg>
