<svg width="144" height="144" viewBox="0 0 144 144" fill="none" xmlns="http://www.w3.org/2000/svg">
<g clip-path="url(#clip0_40_163)">
<path d="M71.5 114C94.9721 114 114 94.9721 114 71.5C114 48.0279 94.9721 29 71.5 29C48.0279 29 29 48.0279 29 71.5C29 94.9721 48.0279 114 71.5 114Z" fill="#24BECA"/>
<path d="M89.5627 86.2422C87.3049 89.2969 84.383 92.4844 80.5314 94.875C76.8127 97.2656 72.5627 99.125 67.5158 99.125C62.8674 99.125 59.0158 96.7344 56.8908 94.7422C53.7033 91.6875 51.9767 87.3047 51.4455 83.1875C49.8517 70.4375 57.6877 53.5703 69.7736 46.2656C72.5627 44.5391 75.6174 43.7422 78.5392 43.7422C84.383 43.7422 88.7658 47.8594 89.2971 52.9062C89.8283 57.4219 88.1017 61.2734 83.0549 63.7969C80.5314 65.125 79.2033 64.9922 78.8049 64.4609C78.5392 64.0625 78.6721 63.3984 79.2033 63C83.8517 59.1484 83.9846 55.9609 83.4533 51.4453C83.0549 48.5234 81.1955 46.6641 79.0705 46.6641C69.9064 46.6641 56.6252 67.25 58.4846 82.125C59.1486 87.9687 62.7346 94.7422 70.1721 94.7422C72.5627 94.7422 75.2189 94.0781 77.4767 92.8828C82.6564 90.2266 84.9142 88.3672 87.9689 84.1172C88.3674 83.5859 88.7658 82.9219 89.1642 82.3906C89.4299 81.8594 89.9611 81.7266 90.3596 81.7266C90.758 81.7266 91.2892 82.125 91.2892 82.7891C91.2892 83.1875 91.1564 83.9844 90.6252 84.6484C90.4924 84.9141 90.0939 85.7109 89.5627 86.2422Z" fill="white"/>
</g>
<defs>
<clipPath id="clip0_40_163">
<rect width="85" height="85" fill="white" transform="translate(29 29)"/>
</clipPath>
</defs>
</svg>
