<svg width="144" height="144" viewBox="0 0 144 144" fill="none" xmlns="http://www.w3.org/2000/svg">
<path fill-rule="evenodd" clip-rule="evenodd" d="M19.251 105.719C20.4654 105.719 21.599 106.065 22.5595 106.662C22.7672 106.791 22.8352 107.062 22.7129 107.274L22.1868 108.185C21.8371 108.791 21.1166 109.078 20.4463 108.878C20.1514 108.79 19.839 108.743 19.5155 108.743C17.7204 108.743 16.2651 110.198 16.2651 111.993C16.2651 113.788 17.7204 115.244 19.5155 115.244C19.839 115.244 20.1514 115.196 20.4463 115.108C21.1178 114.908 21.8365 115.195 22.1868 115.802L22.7129 116.713C22.8353 116.925 22.7673 117.195 22.5595 117.325C21.599 117.922 20.4654 118.267 19.251 118.267C15.7858 118.267 12.9769 115.458 12.9769 111.993C12.9769 108.528 15.7858 105.719 19.251 105.719ZM56.3963 112.498C54.8433 111.451 54.2413 110.361 54.2413 108.97C54.2413 106.997 55.9176 105.795 58.3231 105.795C59.3532 105.795 60.3201 106.066 61.1561 106.541C61.3747 106.665 61.4507 106.944 61.325 107.162L60.9604 107.794C60.614 108.394 59.9035 108.682 59.2373 108.492C58.9468 108.409 58.6402 108.365 58.3231 108.365C57.2041 108.365 57.0859 109.386 57.805 109.871L60.3315 111.576C61.3971 112.294 62.027 113.396 62.027 114.639C62.027 116.643 60.4263 118.192 57.9452 118.192C56.9294 118.192 55.9625 117.983 55.0848 117.606C54.2548 117.25 53.9186 116.243 54.3705 115.46L54.7425 114.816C54.8719 114.592 55.1618 114.521 55.3797 114.66C56.1114 115.128 57.1387 115.47 58.0207 115.47C59.1456 115.47 59.229 114.408 58.4226 113.864L56.3963 112.498ZM86.414 106.4C86.414 106.149 86.617 105.946 86.8676 105.946H87.9259C88.7608 105.946 89.4377 106.623 89.4377 107.458V113.581C89.4377 114.499 90.1822 115.244 91.1007 115.244C92.0191 115.244 92.7637 114.499 92.7637 113.581V107.458C92.7637 106.623 93.4406 105.946 94.2755 105.946H95.3337C95.5842 105.946 95.7872 106.149 95.7872 106.4V113.581C95.7872 116.169 93.689 118.267 91.1007 118.267C88.5123 118.267 86.414 116.169 86.414 113.581V106.4ZM31.186 105.719C34.6511 105.719 37.4601 108.528 37.4601 111.993C37.4601 115.458 34.6511 118.267 31.186 118.267C27.7209 118.267 24.912 115.458 24.912 111.993C24.912 108.528 27.7209 105.719 31.186 105.719ZM31.186 108.856C29.4535 108.856 28.049 110.261 28.049 111.993C28.049 113.726 29.4535 115.13 31.186 115.13C32.9185 115.13 34.323 113.726 34.323 111.993C34.323 110.261 32.9185 108.856 31.186 108.856ZM40.7716 118.04C40.5211 118.04 40.318 117.838 40.318 117.587V107.458C40.318 106.623 40.9948 105.946 41.8298 105.946H42.2521C42.7454 105.946 43.2077 106.187 43.4906 106.591L47.877 112.857V107.458C47.877 106.623 48.5539 105.946 49.3888 105.946H50.4471C50.6976 105.946 50.9007 106.149 50.9007 106.4V116.529C50.9007 117.364 50.2238 118.04 49.3888 118.04H48.9665C48.4732 118.04 48.0109 117.8 47.728 117.396L43.3416 111.129V116.529C43.3416 117.364 42.6647 118.04 41.8298 118.04H40.7716ZM110.989 107.458C110.989 106.623 111.666 105.946 112.501 105.946H117.868C118.118 105.946 118.321 106.149 118.321 106.4V107.004C118.321 107.839 117.644 108.516 116.809 108.516H116.167V116.529C116.167 117.364 115.49 118.04 114.655 118.04H113.597C113.346 118.04 113.143 117.838 113.143 117.587V108.516H111.442C111.192 108.516 110.989 108.313 110.989 108.063V107.458ZM64.208 107.458C64.208 106.623 64.8848 105.946 65.7198 105.946H71.0867C71.3373 105.946 71.5403 106.149 71.5403 106.4V107.004C71.5403 107.839 70.8634 108.516 70.0286 108.516H69.3859V116.529C69.3859 117.364 68.709 118.04 67.8741 118.04H66.8159C66.5653 118.04 66.3623 117.838 66.3623 117.587V108.516H64.6615C64.4111 108.516 64.208 108.313 64.208 108.063V107.458ZM80.5445 113.869L83.4201 117.295C83.6669 117.59 83.4567 118.04 83.0727 118.04H80.9708C80.5239 118.04 80.0998 117.843 79.8127 117.501L77.3933 114.617V117.587C77.3933 117.838 77.1903 118.04 76.9397 118.04H75.8815C75.0466 118.04 74.3697 117.364 74.3697 116.529V107.458C74.3697 106.623 75.0466 105.946 75.8815 105.946H79.0563C81.4777 105.946 83.4406 107.774 83.4406 110.028C83.4406 111.796 82.2333 113.301 80.5445 113.869ZM77.3933 108.516V111.993H78.3004C79.4693 111.993 80.4169 111.215 80.4169 110.255C80.4169 109.295 79.4693 108.516 78.3004 108.516H77.3933ZM104.945 105.719C106.159 105.719 107.293 106.065 108.254 106.662C108.461 106.791 108.529 107.062 108.407 107.274L107.881 108.185C107.531 108.791 106.811 109.078 106.14 108.878C105.845 108.79 105.533 108.743 105.21 108.743C103.415 108.743 101.959 110.198 101.959 111.993C101.959 113.788 103.415 115.244 105.21 115.244C105.533 115.244 105.845 115.196 106.14 115.108C106.812 114.908 107.531 115.195 107.881 115.802L108.407 116.713C108.529 116.925 108.461 117.195 108.254 117.325C107.293 117.922 106.159 118.267 104.945 118.267C101.48 118.267 98.671 115.458 98.671 111.993C98.671 108.528 101.48 105.719 104.945 105.719Z" fill="white"/>
<path fill-rule="evenodd" clip-rule="evenodd" d="M121.994 106.83C121.994 105.995 122.671 105.318 123.506 105.318C125.71 105.318 127.913 105.318 130.116 105.318C130.482 105.318 130.698 105.732 130.488 106.032L128.429 108.972C130.087 109.865 131.214 111.617 131.214 113.633C131.214 116.555 128.845 118.924 125.923 118.924C124.143 118.924 122.568 118.045 121.609 116.697C121.454 116.48 121.52 116.175 121.751 116.041L122.922 115.365C123.443 115.065 124.093 115.101 124.577 115.458C124.953 115.736 125.419 115.901 125.923 115.901C127.175 115.901 128.19 114.885 128.19 113.633C128.19 112.38 127.175 111.365 125.923 111.365H124.3C123.934 111.365 123.718 110.951 123.928 110.652L125.862 107.888H122.448C122.197 107.888 121.994 107.685 121.994 107.434V106.83Z" fill="#00E1C8"/>
<path fill-rule="evenodd" clip-rule="evenodd" d="M72.0956 69.663C66.7242 69.663 62.0342 66.745 59.5246 62.4075L50.9881 67.3359C50.4915 67.6228 50.334 68.2659 50.6415 68.7499C55.1468 75.8417 63.0717 80.548 72.0956 80.548C81.4957 80.548 89.7032 75.4413 94.0948 67.8508L85.5095 62.894C85.0494 62.6284 84.464 62.7655 84.1687 63.2071C81.5655 67.0999 77.1298 69.663 72.0956 69.663ZM102.637 37.5164C103.129 37.2324 103.289 36.597 102.99 36.1136C96.5994 25.7637 85.1531 18.8662 72.0956 18.8662C58.6669 18.8662 46.9421 26.1614 40.668 37.0049L49.2415 41.9549C49.7106 42.2257 50.3084 42.0775 50.5973 41.6193C55.0948 34.4885 63.042 29.7512 72.0956 29.7512C81.4957 29.7512 89.7032 34.858 94.0948 42.4484L102.637 37.5164Z" fill="#D2E1F0"/>
<path fill-rule="evenodd" clip-rule="evenodd" d="M72.0956 80.5477C63.0717 80.5477 55.1468 75.8415 50.6415 68.7496C50.3346 68.2664 50.4922 67.6221 50.9881 67.3357L59.5246 62.4072C58.2893 60.2721 57.5822 57.7934 57.5822 55.1494C57.5822 47.1723 64.0417 40.6361 72.0956 40.6361C77.1298 40.6361 81.5655 43.1992 84.1687 47.0918C84.4636 47.5327 85.0502 47.6701 85.5095 47.4049L94.0948 42.4482C89.7032 34.8577 81.4957 29.751 72.0956 29.751C63.042 29.751 55.0948 34.4883 50.5973 41.6191C50.3087 42.0768 49.7101 42.2251 49.2415 41.9546L40.668 37.0046C37.5797 42.3422 35.8121 48.5395 35.8121 55.1494C35.8121 75.0922 51.9609 91.4329 72.0956 91.4329C85.1531 91.4329 96.5994 84.5354 102.99 74.1854C103.288 73.7025 103.128 73.0664 102.637 72.7825L94.0948 67.8506C89.7032 75.4411 81.4957 80.5477 72.0956 80.5477Z" fill="#96AAB9"/>
<path fill-rule="evenodd" clip-rule="evenodd" d="M102.687 59.0517V51.2472L95.9276 55.1494L102.687 59.0517ZM90.8882 53.4038L103.694 46.0101C105.035 45.2361 106.718 46.2077 106.718 47.7558V62.5431C106.718 64.0911 105.035 65.0628 103.694 64.2888L90.8882 56.8951C89.5498 56.1223 89.5498 54.1766 90.8882 53.4038Z" fill="#00E1C8"/>
</svg>
