<svg width="144" height="144" viewBox="0 0 144 144" fill="none" xmlns="http://www.w3.org/2000/svg">
<mask id="mask0_33_82" style="mask-type:alpha" maskUnits="userSpaceOnUse" x="0" y="0" width="144" height="144">
<rect width="144" height="144" fill="#D9D9D9"/>
</mask>
<g mask="url(#mask0_33_82)">
<path d="M39.856 68.3682C40.7608 65.6433 40.4474 62.6606 38.997 60.1837C36.8154 56.3862 32.4311 54.4325 28.1498 55.3504C24.4178 51.1988 18.0285 50.859 13.8772 54.5912C12.5598 55.7758 11.5768 57.2852 11.0275 58.9698C8.21462 59.5471 5.78725 61.3083 4.36615 63.8031C2.16124 67.5947 2.66175 72.3777 5.6039 75.631C4.69608 78.3544 5.00646 81.3378 6.45536 83.8154C8.63923 87.6145 13.0265 89.5681 17.3101 88.6488C19.2159 90.7949 21.9529 92.0164 24.8229 91.9998C29.2117 92.0036 33.0999 89.1697 34.4399 84.9903C37.252 84.4123 39.6794 82.651 41.1012 80.1569C43.2798 76.3722 42.7771 71.6147 39.856 68.3689V68.3682ZM24.8229 89.3825C23.0711 89.3855 21.3742 88.7713 20.0298 87.6475L20.2665 87.5137L28.2287 82.9164C28.6315 82.6796 28.8803 82.2481 28.8833 81.7806V70.5518L32.2493 72.4995C32.2831 72.5167 32.3064 72.5491 32.3124 72.5859V81.8903C32.3033 86.0239 28.9554 89.3727 24.8229 89.3817V89.3825ZM8.72565 82.5067C7.84714 80.9898 7.5315 79.2113 7.83511 77.4839L8.07183 77.626L16.0416 82.2226C16.4429 82.4586 16.9411 82.4586 17.3424 82.2226L27.0781 76.609V80.4967C27.0759 80.5373 27.0556 80.5749 27.0233 80.5989L18.9589 85.2511C15.375 87.316 10.7968 86.0885 8.72638 82.5067H8.72565ZM6.62896 65.1592C7.51348 63.6317 8.90975 62.4674 10.5706 61.8713V71.3336C10.5646 71.7989 10.8118 72.2311 11.2169 72.4611L20.9053 78.0515L17.5393 79.9991C17.5025 80.0186 17.4581 80.0186 17.4213 79.9991L9.37268 75.3544C5.79627 73.2812 4.56984 68.7049 6.62896 65.1193V65.1592ZM34.2828 71.5854L24.5628 65.9394L27.9206 64.0001C27.9574 63.9805 28.0017 63.9805 28.0385 64.0001L36.0872 68.6523C39.6696 70.7202 40.8976 75.3018 38.8302 78.8843C37.9599 80.393 36.5914 81.5506 34.9599 82.1594V72.6971C34.9456 72.2326 34.6879 71.8101 34.2821 71.5854H34.2828ZM37.633 66.5468L37.3963 66.4047L29.4424 61.7683C29.0381 61.5315 28.5376 61.5315 28.134 61.7683L18.4065 67.3819V63.4942C18.4028 63.4543 18.4208 63.4145 18.4539 63.392L26.5025 58.7473C30.0902 56.6801 34.6744 57.9129 36.741 61.5014C37.6142 63.0169 37.9299 64.7901 37.6338 66.5137V66.5453L37.633 66.5468ZM16.5698 73.4383L13.2039 71.4989C13.17 71.4787 13.1468 71.4433 13.1407 71.4042V62.1231C13.146 57.9813 16.5075 54.6287 20.6475 54.634C22.3948 54.6362 24.0872 55.2489 25.4309 56.3666L25.1941 56.5004L17.2319 61.0978C16.8291 61.3346 16.5804 61.766 16.5774 62.2336L16.5698 73.4383ZM18.3983 69.4957L22.7337 66.9963L27.0774 69.4957V74.4944L22.7495 76.9946L18.4065 74.4944L18.399 69.4957H18.3983Z" fill="white"/>
<path d="M47.5179 60.9863C48.3709 60.8915 49.1861 60.7588 50.0012 60.7019C52.0864 60.5312 54.1716 60.4364 56.2758 60.6829C57.9819 60.8915 59.6311 61.2708 61.1286 62.1241C63.593 63.5464 65.0905 65.6892 65.6782 68.4578C66.2279 71.0558 66.0952 73.6348 65.2422 76.138C63.9911 79.7979 61.3561 81.9217 57.6596 82.8509C55.5175 83.3819 53.3186 83.4578 51.1386 83.363C50.077 83.325 49.0154 83.2302 47.9349 83.1733C47.6695 83.1544 47.5179 83.0975 47.5179 82.7561C47.5368 75.588 47.5179 68.4389 47.5179 61.2708C47.4989 61.2139 47.4989 61.138 47.5179 60.9863ZM50.4182 63.1671C50.4182 63.3567 50.4182 63.5274 50.4182 63.6791C50.4182 67.1683 50.4182 70.6765 50.4182 74.1658C50.4182 76.2707 50.4182 78.3756 50.4182 80.4805C50.4182 80.6891 50.3993 80.8788 50.7215 80.9167C52.5793 81.0874 54.418 81.1443 56.2568 80.7271C59.3088 80.0444 61.4319 78.2808 62.3798 75.2656C63.0432 73.1418 63.1191 70.961 62.6262 68.7802C62.1333 66.5994 60.9012 64.9307 58.8918 63.9067C57.7165 63.2998 56.4464 63.0154 55.1384 62.9206C53.546 62.8068 51.9916 62.8637 50.4182 63.1671Z" fill="white"/>
<path d="M86.3598 83.1923C85.3551 83.1923 84.4262 83.1733 83.4784 83.1923C83.1941 83.1923 83.1751 83.0027 83.1183 82.813C82.4169 80.7461 81.6965 78.6791 81.0141 76.5931C80.8814 76.1949 80.7108 76.1001 80.3127 76.1001C77.981 76.119 75.6494 76.119 73.3177 76.1001C72.9955 76.1001 72.8628 76.1949 72.749 76.4983C72.0856 78.5653 71.4031 80.6323 70.7207 82.6803C70.6638 82.832 70.607 83.0027 70.5501 83.1354C69.5454 83.1354 68.5597 83.1354 67.536 83.1354C67.8014 82.3579 68.0478 81.5994 68.3132 80.8409C70.5501 74.2796 72.787 67.6993 75.0049 61.1381C75.1376 60.7588 75.2892 60.645 75.6873 60.664C76.5783 60.7019 77.4503 60.6829 78.3412 60.664C78.6066 60.664 78.7203 60.7588 78.8151 61.0053C80.6539 66.3909 82.4927 71.7764 84.3315 77.162C84.976 79.0394 85.6205 80.8978 86.2461 82.7751C86.284 82.9079 86.3219 83.0216 86.3598 83.1923ZM73.5642 73.8055C75.7631 73.8055 77.981 73.8055 80.18 73.8055C79.0426 70.3163 77.9052 66.846 76.8437 63.6033C75.801 66.865 74.6826 70.3352 73.5642 73.8055Z" fill="white"/>
<path d="M128.254 60.7209C132.291 60.7209 136.329 60.7209 140.367 60.7209C140.367 61.5363 140.367 62.3138 140.367 63.1482C140.215 63.1482 140.044 63.1671 139.893 63.1671C137.144 63.1671 134.376 63.1671 131.628 63.1671C131.249 63.1671 131.135 63.262 131.135 63.6602C131.154 65.6893 131.135 67.7373 131.154 69.7664C131.154 69.8991 131.173 70.0318 131.173 70.2215C134.073 70.2215 136.955 70.2215 139.855 70.2215C139.855 71.0369 139.855 71.8144 139.855 72.6488C136.992 72.6488 134.092 72.6488 131.173 72.6488C131.173 75.3605 131.173 78.0343 131.173 80.765C134.395 80.765 137.618 80.765 140.879 80.765C140.879 81.5994 140.879 82.3769 140.879 83.1734C136.67 83.1734 132.481 83.1734 128.254 83.1734C128.254 75.7019 128.254 68.2114 128.254 60.7209Z" fill="white"/>
<path d="M105.43 60.7209C106.397 60.7209 107.345 60.7209 108.33 60.7209C108.33 67.396 108.33 74.0331 108.33 80.7271C111.534 80.7271 114.719 80.7271 117.903 80.7271C117.903 81.5615 117.903 82.358 117.903 83.1734C113.733 83.1734 109.6 83.1734 105.43 83.1734C105.43 75.6829 105.43 68.2114 105.43 60.7209Z" fill="white"/>
<path d="M89.696 60.7209C90.6439 60.7209 91.5917 60.7209 92.5585 60.7209C92.5585 67.377 92.5585 74.0331 92.5585 80.7271C95.7811 80.7271 98.9658 80.7271 102.169 80.7271C102.169 81.5615 102.169 82.358 102.169 83.1734C98.0179 83.1734 93.8665 83.1734 89.696 83.1734C89.696 75.7019 89.696 68.2114 89.696 60.7209Z" fill="white"/>
<path d="M121.335 72.3264C121.789 72.3264 122.225 72.3264 122.68 72.3264C123.022 72.3264 123.211 72.497 123.211 72.8384C123.211 73.7676 123.211 74.6968 123.211 75.607C123.211 75.9294 123.022 76.1 122.718 76.119C121.789 76.138 120.861 76.119 119.932 76.119C119.591 76.119 119.42 75.9104 119.42 75.588C119.42 74.6778 119.42 73.7676 119.42 72.8573C119.42 72.516 119.591 72.3453 119.951 72.3453C120.406 72.3264 120.88 72.3264 121.335 72.3264Z" fill="white"/>
</g>
</svg>
