<?xml version="1.0" encoding="utf-8"?>
<!-- Generator: Adobe Illustrator 26.0.1, SVG Export Plug-In . SVG Version: 6.00 Build 0)  -->
<svg version="1.1" id="Layer_1" xmlns="http://www.w3.org/2000/svg" xmlns:xlink="http://www.w3.org/1999/xlink" x="0px" y="0px"
	 viewBox="0 0 144 144" style="enable-background:new 0 0 144 144;" xml:space="preserve">
<style type="text/css">
	.st0{clip-path:url(#SVGID_00000055699144901566798610000000602093215523745437_);}
	.st1{fill:#383838;}
	.st2{fill:url(#path37_00000168799696224403045520000009597326686254760076_);}
	.st3{fill:url(#path39_00000007407042976421662160000016882950189000427174_);}
	.st4{fill:url(#path33_00000087413684426450525210000010961581536124230070_);}
</style>
<g>
	<g>
		<g>
			<defs>
				<circle id="SVGID_1_" cx="72" cy="72" r="67"/>
			</defs>
			<clipPath id="SVGID_00000171682902881970229870000004543864027442695845_">
				<use xlink:href="#SVGID_1_"  style="overflow:visible;"/>
			</clipPath>
			<g style="clip-path:url(#SVGID_00000171682902881970229870000004543864027442695845_);">
			</g>
		</g>
	</g>
	<g id="g7572_00000008136375721775814940000009700505043124826759_" transform="translate(-0.0232537,-44.297248)">
		
			<g id="g6236_00000094619336766342151780000005868874363705910666_" transform="matrix(1.0324977,0,0,1.0324977,-1.0437923,44.339431)">
			<path id="path27_00000173149403164413217280000004907167680122699921_" class="st1" d="M72.7,131.5H69c-0.2-0.1-0.3-0.1-0.5-0.1
				c-2-0.1-3.9-0.3-5.8-0.5c-3.6-0.5-7.1-1.3-10.6-2.4c-5.9-1.9-11.4-4.6-16.5-8.1c-4.7-3.3-8.9-7.2-12.6-11.6
				c-4.3-5.2-7.6-11-10-17.4c-2.1-5.6-3.4-11.5-3.8-17.5c0-0.3-0.1-0.7-0.2-1v-6.4c0.1-0.3,0.2-0.6,0.2-0.9c0.1-1.4,0.2-2.9,0.4-4.3
				c0.9-6.9,3-13.4,6.1-19.6c2.2-4.3,4.8-8.2,7.9-11.9c3.1-3.6,6.5-6.9,10.3-9.7c6.2-4.6,13.1-8,20.5-10c3.6-1,7.3-1.6,11.1-2
				c0.7-0.1,1.4,0,2-0.2h6.3c0.5,0.1,1,0.1,1.5,0.1c2.5,0.2,5,0.5,7.4,1c7.7,1.5,14.9,4.4,21.5,8.7c5.1,3.3,9.7,7.3,13.6,11.9
				c3.2,3.7,5.9,7.8,8.1,12.1c2.6,5.2,4.5,10.6,5.5,16.3c0.6,3,1,6,1,9.1c0,0.2,0,0.4,0.1,0.6v3.7c-0.1,0.2-0.1,0.5-0.1,0.7
				c0,0.6,0,1.2,0,1.8c-0.3,3.8-0.9,7.5-1.8,11.1c-1.8,6.9-4.7,13.2-8.6,19.1c-3,4.4-6.4,8.3-10.4,11.8c-4,3.5-8.3,6.4-13,8.8
				c-5.4,2.7-11.1,4.6-17.1,5.7c-2.3,0.4-4.6,0.7-6.9,0.8C73.9,131.3,73.3,131.3,72.7,131.5L72.7,131.5z"/>
			<g id="g6228_00000027598007710752629700000001382400159865160330_">
				
					<radialGradient id="path37_00000128453759524873147980000001742599286705070774_" cx="69.6671" cy="96.2496" r="15.4395" gradientTransform="matrix(1.0929 9.220360e-02 0.1704 -2.0202 -22.1047 253.4462)" gradientUnits="userSpaceOnUse">
					<stop  offset="0" style="stop-color:#FFFFFF"/>
					<stop  offset="1" style="stop-color:#009BD8"/>
				</radialGradient>
				
					<path id="path37_00000086680396248040446620000014016267058860531900_" style="fill:url(#path37_00000128453759524873147980000001742599286705070774_);" d="
					M54.7,44.1c0,1.1,0.2,2.4,0.5,3.6c0.6,2.4,1.7,4.5,2.9,6.6c2.8,4.6,6.4,8.6,10.3,12.3c0.3,0.3,0.7,0.6,1.1,0.8
					c0.4,0.2,0.8,0.2,1.2,0c0.4-0.2,0.8-0.4,1.1-0.8c1.3-1.4,2.7-2.8,4-4.2c1.8-2,3.5-4.1,5.1-6.4c1.4-2,2.7-4.2,3.6-6.5
					c0.9-2.3,1.4-4.7,1.1-7.2c-0.5-4.1-2.2-7.7-5.2-10.4c-3.6-3.3-7.7-4.6-12.4-3.8C60.2,29.2,54.7,36.2,54.7,44.1L54.7,44.1z"/>
				
					<radialGradient id="path39_00000159451349902469717680000007883209739890616967_" cx="58.9721" cy="86.9113" r="17.6452" gradientTransform="matrix(1.9652 0.7851 0.4195 -1.0502 -77.6343 119.791)" gradientUnits="userSpaceOnUse">
					<stop  offset="0" style="stop-color:#FFFFFF"/>
					<stop  offset="1" style="stop-color:#FF3044"/>
				</radialGradient>
				
					<path id="path39_00000012472406393387482640000014766520224762752900_" style="fill:url(#path39_00000159451349902469717680000007883209739890616967_);" d="
					M94.2,100.6c-1,0-2-0.1-3.1-0.3c-3.2-0.7-5.9-2.1-8-4.7c-1.3-1.6-2.3-3.3-3.2-5.1c-1.1-2.1-2-4.3-2.8-6.5
					c-1-2.7-1.8-5.4-2.4-8.2c-0.3-1.6,0-2.5,1.8-3.1c2.2-0.7,4.4-1.3,6.6-1.8c3.7-0.8,7.5-1.3,11.3-1.2c1.1,0,2.2,0.2,3.2,0.3
					c3.1,0.5,5.7,2,7.8,4.2c3.7,3.8,5.1,8.4,4.2,13.6C108.3,95.3,101.7,100.6,94.2,100.6z"/>
				
					<radialGradient id="path33_00000032632959171211001480000014724535504921852046_" cx="26.2511" cy="159.2065" r="17.6452" gradientTransform="matrix(-1.7797 1.1859 0.5391 0.8089 26.2576 -86.4154)" gradientUnits="userSpaceOnUse">
					<stop  offset="0" style="stop-color:#FFFFFF"/>
					<stop  offset="1" style="stop-color:#FCFF7C"/>
				</radialGradient>
				
					<path id="path33_00000178190779255624977810000006398963513670207914_" style="fill:url(#path33_00000032632959171211001480000014724535504921852046_);" d="
					M46.1,100.6c1,0,2-0.1,3.1-0.3c3.2-0.7,5.9-2.1,8-4.7c1.3-1.6,2.3-3.3,3.2-5.1c1.1-2.1,2-4.3,2.8-6.5c1-2.7,1.8-5.4,2.4-8.2
					c0.3-1.6,0-2.5-1.8-3.1c-2.2-0.7-4.4-1.3-6.6-1.8c-3.7-0.8-7.5-1.3-11.3-1.2c-1.1,0-2.2,0.2-3.2,0.3c-3.1,0.5-5.7,2-7.8,4.2
					c-3.7,3.8-5.1,8.4-4.2,13.6C32,95.3,38.6,100.6,46.1,100.6z"/>
			</g>
		</g>
	</g>
</g>
</svg>
