<?xml version="1.0" encoding="utf-8"?>
<!-- Generator: Adobe Illustrator 26.0.1, SVG Export Plug-In . SVG Version: 6.00 Build 0)  -->
<svg version="1.1" id="Layer_1" xmlns="http://www.w3.org/2000/svg" xmlns:xlink="http://www.w3.org/1999/xlink" x="0px" y="0px"
	 viewBox="0 0 144 144" style="enable-background:new 0 0 144 144;" xml:space="preserve">
<style type="text/css">
	.st0{fill:none;}
	.st1{fill:#1ABCFE;}
	.st2{fill:#0ACF83;}
	.st3{fill:#FF7262;}
	.st4{fill:#F24E1E;}
	.st5{fill:#A259FF;}
</style>
<g>
	<path class="st0" d="M25.3,2h93.3v140H25.3V2z"/>
	<path class="st1" d="M72,72c0-12.9,10.4-23.3,23.3-23.3c12.9,0,23.3,10.4,23.3,23.3c0,12.9-10.4,23.3-23.3,23.3
		C82.4,95.3,72,84.9,72,72z"/>
	<path class="st2" d="M25.3,118.7c0-12.9,10.4-23.3,23.3-23.3H72v23.3c0,12.9-10.4,23.3-23.3,23.3S25.3,131.6,25.3,118.7z"/>
	<path class="st3" d="M72,2v46.7h23.3c12.9,0,23.3-10.4,23.3-23.3S108.2,2,95.3,2H72z"/>
	<path class="st4" d="M25.3,25.3c0,12.9,10.4,23.3,23.3,23.3H72V2H48.7C35.8,2,25.3,12.4,25.3,25.3L25.3,25.3z"/>
	<path class="st5" d="M25.3,72c0,12.9,10.4,23.3,23.3,23.3H72V48.7H48.7C35.8,48.7,25.3,59.1,25.3,72L25.3,72z"/>
</g>
</svg>
