<svg width="144" height="144" viewBox="0 0 144 144" fill="none" xmlns="http://www.w3.org/2000/svg">
<g clip-path="url(#clip0_40_183)">
<path d="M92.085 71.5C92.0883 76.3444 90.3817 81.0346 87.2661 84.7442C84.1504 88.4538 79.8255 90.9448 75.0534 91.7785C70.2812 92.6121 65.3679 91.7348 61.1791 89.3012C56.9904 86.8675 53.7948 83.0337 52.1555 78.475L40.3809 87.8946C44.0421 94.8544 49.9297 100.387 57.1036 103.608C64.2775 106.83 72.324 107.555 79.9582 105.667C87.5924 103.78 94.3741 99.3891 99.2203 93.1958C104.067 87.0025 106.698 79.364 106.694 71.5" fill="#00AC47"/>
<path d="M92.0863 71.5C92.0836 74.7752 91.2984 78.0023 89.796 80.9125C88.2936 83.8228 86.1176 86.3319 83.4492 88.2309L95.09 97.5435C98.7402 94.2571 101.659 90.2406 103.659 85.7543C105.658 81.2679 106.693 76.4117 106.696 71.5" fill="#4285F4"/>
<path d="M50.9141 71.5001C50.9192 69.1205 51.3396 66.7601 52.1564 64.5251L40.3818 55.1055C37.7045 60.1555 36.3047 65.7843 36.3047 71.5001C36.3047 77.2159 37.7045 82.8447 40.3818 87.8947L52.1564 78.4752C51.3396 76.2401 50.9192 73.8797 50.9141 71.5001Z" fill="#FFBA00"/>
<path d="M71.4991 50.9141C75.855 50.9153 80.0967 52.3073 83.6063 54.8873L94.3907 44.822C90.3873 41.3703 85.6562 38.8674 80.5503 37.4998C75.4444 36.1323 70.0956 35.9355 64.903 36.9242C59.7105 37.9128 54.8082 40.0614 50.5621 43.2095C46.316 46.3577 42.8357 50.4241 40.3809 55.1054L52.1555 64.525C53.5915 60.5442 56.2185 57.1023 59.6795 54.6671C63.1404 52.2318 67.2673 50.9215 71.4991 50.9141Z" fill="#EA4435"/>
<path d="M106.695 68.8438V71.5L100.719 80.7969H72.8281V66.1875H104.039C104.744 66.1875 105.419 66.4674 105.917 66.9655C106.415 67.4636 106.695 68.1393 106.695 68.8438Z" fill="#4285F4"/>
</g>
<defs>
<clipPath id="clip0_40_183">
<rect width="85" height="85" fill="white" transform="translate(29 29)"/>
</clipPath>
</defs>
</svg>
