<svg width="144" height="144" viewBox="0 0 144 144" fill="none" xmlns="http://www.w3.org/2000/svg">
<g clip-path="url(#clip0_40_164)">
<path d="M110.783 103.362C110.815 109.198 106.108 113.95 100.276 113.982C99.8421 113.985 99.405 113.961 98.9749 113.908C93.5621 113.108 89.5969 108.398 89.7298 102.929V40.0521C89.6004 34.5764 93.5761 29.8664 98.9924 29.0727C104.786 28.3943 110.035 32.5413 110.713 38.3353C110.762 38.7619 110.787 39.1885 110.783 39.6186V103.362Z" fill="#F9AB00"/>
<path d="M44.5284 92.9417C50.3433 92.9417 55.0568 97.6551 55.0568 103.47C55.0568 109.285 50.3433 113.998 44.5284 113.998C38.7135 113.998 34 109.285 34 103.47C34 97.6551 38.7135 92.9417 44.5284 92.9417ZM72.2289 61.0347C66.386 61.3564 61.8543 66.2552 61.9907 72.1051V100.383C61.9907 108.058 65.3684 112.715 70.3162 113.708C76.0262 114.866 81.5894 111.177 82.7468 105.467C82.8901 104.767 82.9601 104.057 82.9566 103.344V71.6156C82.9671 65.7797 78.2466 61.0417 72.4107 61.0312C72.3512 61.0312 72.2883 61.0313 72.2289 61.0347Z" fill="#E37400"/>
</g>
<defs>
<clipPath id="clip0_40_164">
<rect width="76.7829" height="85" fill="white" transform="translate(34 29)"/>
</clipPath>
</defs>
</svg>
