<svg width="144" height="144" viewBox="0 0 144 144" fill="none" xmlns="http://www.w3.org/2000/svg">
<g clip-path="url(#clip0_40_55)">
<mask id="mask0_40_55" style="mask-type:luminance" maskUnits="userSpaceOnUse" x="40" y="31" width="65" height="81">
<path d="M40.1113 31.9922H104.287V112.001H40.1113V31.9922Z" fill="white"/>
</mask>
<g mask="url(#mask0_40_55)">
<path d="M62.0829 39.3069C62.6968 37.6955 63.5409 36.212 64.7942 35.0098C69.8075 30.1244 78.0949 31.3521 81.4967 37.4909C84.0546 42.1461 86.7658 46.699 89.4004 51.3031L102.599 74.2723C106.256 80.6924 102.292 88.8007 95.0276 89.9005C90.577 90.5656 86.4077 88.5193 84.1057 84.5291L72.4932 64.3735C72.4165 64.2201 72.3142 64.0922 72.2119 63.9643C71.8026 63.6318 71.6236 63.1458 71.3678 62.7109L62.8247 47.9012C61.8271 46.1619 61.3667 44.2691 61.4179 42.274C61.4946 41.2509 61.6225 40.2277 62.0829 39.3069Z" fill="#3C8BD9"/>
</g>
<mask id="mask1_40_55" style="mask-type:luminance" maskUnits="userSpaceOnUse" x="40" y="31" width="65" height="81">
<path d="M40.1113 31.9922H104.287V112.001H40.1113V31.9922Z" fill="white"/>
</mask>
<g mask="url(#mask1_40_55)">
<path d="M62.0831 39.3066C61.8529 40.2275 61.6482 41.1483 61.5971 42.1202C61.5203 44.2688 62.0575 46.2639 63.1318 48.1311L71.547 62.6851C71.8028 63.1199 72.0074 63.5547 72.2632 63.964L67.6335 71.9188L61.1623 83.0709C61.0599 83.0709 61.0344 83.0197 61.0088 82.943C60.9832 82.7383 61.0599 82.5593 61.1111 82.3547C62.1598 78.518 61.2901 75.1161 58.6556 72.2001C57.0442 70.4353 54.9979 69.4377 52.6447 69.1052C49.5754 68.6704 46.8641 69.4633 44.4341 71.3816C43.9993 71.7142 43.718 72.2001 43.2064 72.4559C43.1041 72.4559 43.0529 72.4048 43.0273 72.328L46.685 65.9591L61.904 39.588C61.9552 39.4857 62.0319 39.409 62.0831 39.3066Z" fill="#FABC04"/>
</g>
<mask id="mask2_40_55" style="mask-type:luminance" maskUnits="userSpaceOnUse" x="40" y="31" width="65" height="81">
<path d="M40.1113 31.9922H104.287V112.001H40.1113V31.9922Z" fill="white"/>
</mask>
<g mask="url(#mask2_40_55)">
<path d="M43.1303 72.4055L44.5882 71.101C50.8037 66.19 60.1397 69.7454 61.4954 77.5212C61.8279 79.3884 61.6488 81.1788 61.0861 82.9693C61.0606 83.1228 61.035 83.2507 60.9838 83.4041C60.7536 83.8134 60.549 84.2482 60.2932 84.6575C58.0168 88.4175 54.666 90.2847 50.2666 90.0033C45.2277 89.6452 41.2631 85.8596 40.5724 80.8463C40.2399 78.4164 40.7259 76.1399 41.9792 74.0425C42.235 73.5821 42.542 73.1729 42.8233 72.7125C42.9512 72.6102 42.9001 72.4055 43.1303 72.4055Z" fill="#34A852"/>
</g>
<mask id="mask3_40_55" style="mask-type:luminance" maskUnits="userSpaceOnUse" x="40" y="31" width="65" height="81">
<path d="M40.1113 31.9922H104.287V112.001H40.1113V31.9922Z" fill="white"/>
</mask>
<g mask="url(#mask3_40_55)">
<path d="M43.1291 72.405C43.0268 72.5074 43.0268 72.6864 42.8477 72.712C42.8221 72.5329 42.9245 72.4306 43.0268 72.3027L43.1291 72.405Z" fill="#FABC04"/>
</g>
<mask id="mask4_40_55" style="mask-type:luminance" maskUnits="userSpaceOnUse" x="40" y="31" width="65" height="81">
<path d="M40.1113 31.9922H104.287V112.001H40.1113V31.9922Z" fill="white"/>
</mask>
<g mask="url(#mask4_40_55)">
<path d="M60.9838 83.4036C60.8815 83.2245 60.9838 83.0966 61.0861 82.9688L61.1884 83.0711L60.9838 83.4036Z" fill="#E1C025"/>
</g>
<mask id="mask5_40_55" style="mask-type:luminance" maskUnits="userSpaceOnUse" x="40" y="31" width="65" height="81">
<path d="M40.1113 31.9922H104.287V112.001H40.1113V31.9922Z" fill="white"/>
</mask>
<g mask="url(#mask5_40_55)">
<path d="M45.406 98.5977C42.5157 98.5977 40.1113 100.925 40.1113 103.79C40.1113 106.655 42.5157 108.957 45.406 108.957C46.9663 108.957 48.1173 108.445 49.0381 107.499C49.9845 106.552 50.2659 105.248 50.2659 104.199C50.2659 103.867 50.2403 103.56 50.1891 103.304H45.406V104.711H48.8079C48.7056 105.504 48.4498 106.092 48.0406 106.501C47.5546 106.987 46.7616 107.55 45.406 107.55C43.3086 107.55 41.6716 105.862 41.6716 103.79C41.6716 101.718 43.3086 100.03 45.406 100.03C46.5314 100.03 47.3755 100.465 47.9638 101.053L48.9614 100.056C48.1173 99.2371 46.9919 98.5977 45.406 98.5977ZM54.077 102.306C52.2609 102.306 50.7518 103.713 50.7518 105.683C50.7518 107.627 52.2354 109.059 54.077 109.059C55.9186 109.059 57.4022 107.627 57.4022 105.683C57.4022 103.739 55.893 102.306 54.077 102.306ZM54.077 107.729C53.0794 107.729 52.2098 106.885 52.2098 105.683C52.2098 104.481 53.0794 103.637 54.077 103.637C55.0745 103.637 55.9442 104.455 55.9442 105.683C55.9442 106.885 55.0745 107.729 54.077 107.729ZM61.29 102.306C59.4484 102.306 57.9649 103.713 57.9649 105.683C57.9649 107.627 59.4484 109.059 61.29 109.059C63.1061 109.059 64.6152 107.627 64.6152 105.683C64.6152 103.739 63.1317 102.306 61.29 102.306ZM61.29 107.729C60.2925 107.729 59.4228 106.885 59.4228 105.683C59.4228 104.481 60.2925 103.637 61.29 103.637C62.2876 103.637 63.1572 104.455 63.1572 105.683C63.1572 106.885 62.3132 107.729 61.29 107.729ZM68.4775 102.306C66.8149 102.306 65.3058 103.764 65.3058 105.657C65.3058 107.524 66.8149 108.982 68.4775 108.982C69.2704 108.982 69.8843 108.624 70.2168 108.215H70.268V108.701C70.268 109.98 69.6029 110.671 68.5031 110.671C67.6078 110.671 67.0707 110.031 66.8405 109.494L65.5616 110.031C65.9197 110.926 66.8917 112.001 68.5031 112.001C70.2168 112.001 71.6492 110.977 71.6492 108.522V102.537H70.268V103.074H70.2168C69.8843 102.665 69.2704 102.306 68.4775 102.306ZM68.6054 107.678C67.6078 107.678 66.7638 106.834 66.7638 105.657C66.7638 104.481 67.6078 103.611 68.6054 103.611C69.6029 103.611 70.3703 104.481 70.3703 105.657C70.3703 106.834 69.6029 107.678 68.6054 107.678ZM72.7235 99.0069H74.1814V108.88H72.7235V99.0069ZM78.0949 102.306C76.3556 102.306 74.8976 103.662 74.8976 105.683C74.8976 107.576 76.33 109.059 78.2484 109.059C79.8086 109.059 80.7039 108.113 81.0619 107.576L79.9109 106.808C79.5273 107.371 78.9901 107.729 78.2484 107.729C77.481 107.729 76.9439 107.397 76.6113 106.706L81.1387 104.839L80.9852 104.455C80.7039 103.713 79.8342 102.306 78.0949 102.306ZM76.3556 105.58C76.3044 104.276 77.3787 103.611 78.1205 103.611C78.7088 103.611 79.2203 103.892 79.3738 104.327L76.3556 105.58ZM83.6965 108.727L87.0728 99.7487H88.3773L91.7536 108.727H90.4747L89.605 106.297H85.8451L84.9754 108.727H83.6965ZM86.2287 105.222H89.2214L87.7634 101.181H87.7123L86.2287 105.222ZM92.9302 107.985C92.3675 107.345 92.0861 106.578 92.0861 105.657C92.0861 104.762 92.3675 103.995 92.9302 103.33C93.5185 102.69 94.1835 102.383 95.002 102.383C95.4624 102.383 95.8717 102.486 96.2298 102.665C96.6135 102.869 96.8948 103.099 97.0994 103.432H97.1506L97.0994 102.588V99.7487H98.2505V108.727H97.1506V107.883H97.0994C96.8948 108.189 96.6135 108.445 96.2298 108.65C95.8461 108.855 95.4369 108.931 95.002 108.931C94.1835 108.931 93.4929 108.624 92.9302 107.985ZM96.5623 107.269C96.946 106.859 97.125 106.322 97.125 105.657C97.125 105.018 96.946 104.481 96.5623 104.071C96.2042 103.662 95.7438 103.458 95.1811 103.458C94.6184 103.458 94.158 103.662 93.7999 104.071C93.4162 104.481 93.2371 105.018 93.2371 105.657C93.2371 106.297 93.4162 106.834 93.7999 107.243C94.1835 107.652 94.6439 107.857 95.1811 107.857C95.7438 107.883 96.2042 107.678 96.5623 107.269ZM103.571 108.369C103.11 108.727 102.522 108.931 101.806 108.931C101.192 108.931 100.655 108.778 100.169 108.445C99.7084 108.113 99.3759 107.703 99.1713 107.166L100.194 106.732C100.348 107.09 100.552 107.397 100.859 107.601C101.141 107.806 101.473 107.908 101.806 107.908C102.164 107.908 102.471 107.831 102.727 107.678C102.982 107.524 103.085 107.32 103.085 107.115C103.085 106.732 102.778 106.425 102.189 106.246L101.141 105.99C99.9386 105.683 99.3503 105.12 99.3503 104.25C99.3503 103.688 99.5805 103.253 100.041 102.895C100.501 102.562 101.09 102.383 101.78 102.383C102.3 102.38 102.811 102.512 103.264 102.767C103.699 103.023 104.006 103.381 104.185 103.816L103.161 104.25C103.034 103.995 102.855 103.79 102.599 103.637C102.343 103.483 102.036 103.406 101.704 103.406C101.397 103.406 101.141 103.483 100.885 103.637C100.655 103.79 100.527 103.969 100.527 104.199C100.527 104.557 100.859 104.813 101.524 104.941L102.445 105.171C103.673 105.478 104.261 106.092 104.261 107.013C104.287 107.55 104.031 108.01 103.571 108.369Z" fill="white"/>
</g>
</g>
<defs>
<clipPath id="clip0_40_55">
<rect width="64.375" height="80" fill="white" transform="translate(40 32)"/>
</clipPath>
</defs>
</svg>
