<svg width="144" height="144" viewBox="0 0 144 144" fill="none" xmlns="http://www.w3.org/2000/svg">
<g clip-path="url(#clip0_40_166)">
<path fill-rule="evenodd" clip-rule="evenodd" d="M29 49.377H113.959V106.902C113.959 110.812 110.79 113.981 106.879 113.981H36.0792C32.1694 113.981 29 110.81 29 106.902V49.377Z" fill="#518FF5"/>
<path fill-rule="evenodd" clip-rule="evenodd" d="M58.9746 90.0064L81.0379 69.832L114 102.745L113.985 106.901C113.97 110.811 110.789 113.981 106.878 113.981H83.0548L58.9746 90.0064Z" fill="url(#paint0_linear_40_166)"/>
<path fill-rule="evenodd" clip-rule="evenodd" d="M29 36.1013C29 32.1912 32.1689 29.0215 36.0792 29.0215H106.879C110.789 29.0215 113.959 32.1908 113.959 36.1013V49.3761H29V36.1013Z" fill="#4758B8"/>
<path fill-rule="evenodd" clip-rule="evenodd" d="M67.9402 38.7569H59.5317C57.8215 38.7569 56.4355 40.1437 56.4355 41.8545C56.4355 43.5655 57.8217 44.9518 59.5317 44.9518H83.4288C85.1389 44.9518 86.5249 43.565 86.5249 41.8545C86.5249 40.1433 85.1387 38.7569 83.4288 38.7569H75.02V37.872C75.02 35.9161 73.4353 34.332 71.4802 34.332C69.5247 34.332 67.9402 35.9169 67.9402 37.872V38.7569Z" fill="white"/>
<g filter="url(#filter0_d_40_166)">
<path d="M57.479 70.6705C55.7035 70.6705 54.264 69.2311 54.264 67.4556C54.264 65.6801 55.7035 64.2406 57.479 64.2406C59.2545 64.2406 60.694 65.6801 60.694 67.4556C60.694 69.2311 59.2545 70.6705 57.479 70.6705ZM91.7785 80.5503L72.3642 61.1359C71.5876 60.3594 70.509 59.8848 69.3226 59.8848H54.2225C53.6554 59.8828 53.0935 59.9931 52.5692 60.2092C52.0449 60.4253 51.5685 60.743 51.1675 61.144C50.7664 61.545 50.4487 62.0214 50.2326 62.5458C50.0165 63.0701 49.9063 63.632 49.9082 64.1991V79.2991C49.9082 80.4856 50.3828 81.5641 51.1809 82.3407L70.5737 101.755C71.3719 102.532 72.4504 103.028 73.6369 103.028C74.8233 103.028 75.9019 102.532 76.6785 101.755L91.7785 86.655C92.5767 85.8784 93.0512 84.7999 93.0512 83.6134C93.0512 82.4054 92.5551 81.3269 91.7785 80.5503V80.5503Z" fill="black"/>
</g>
<path d="M57.479 70.6705C55.7035 70.6705 54.264 69.2311 54.264 67.4556C54.264 65.6801 55.7035 64.2406 57.479 64.2406C59.2545 64.2406 60.694 65.6801 60.694 67.4556C60.694 69.2311 59.2545 70.6705 57.479 70.6705ZM91.7785 80.5503L72.3642 61.1359C71.5876 60.3594 70.509 59.8848 69.3226 59.8848H54.2225C53.6554 59.8828 53.0935 59.9931 52.5692 60.2092C52.0449 60.4253 51.5685 60.743 51.1675 61.144C50.7664 61.545 50.4487 62.0214 50.2326 62.5458C50.0165 63.0701 49.9063 63.632 49.9082 64.1991V79.2991C49.9082 80.4856 50.3828 81.5641 51.1809 82.3407L70.5737 101.755C71.3719 102.532 72.4504 103.028 73.6369 103.028C74.8233 103.028 75.9019 102.532 76.6785 101.755L91.7785 86.655C92.5767 85.8784 93.0512 84.7999 93.0512 83.6134C93.0512 82.4054 92.5551 81.3269 91.7785 80.5503V80.5503Z" fill="white"/>
</g>
<defs>
<filter id="filter0_d_40_166" x="-4.99663" y="4.97994" width="201.757" height="201.757" filterUnits="userSpaceOnUse" color-interpolation-filters="sRGB">
<feFlood flood-opacity="0" result="BackgroundImageFix"/>
<feColorMatrix in="SourceAlpha" type="matrix" values="0 0 0 0 0 0 0 0 0 0 0 0 0 0 0 0 0 0 127 0" result="hardAlpha"/>
<feOffset dx="24.4021" dy="24.4021"/>
<feGaussianBlur stdDeviation="39.6535"/>
<feColorMatrix type="matrix" values="0 0 0 0 0 0 0 0 0 0 0 0 0 0 0 0 0 0 0.16 0"/>
<feBlend mode="normal" in2="BackgroundImageFix" result="effect1_dropShadow_40_166"/>
<feBlend mode="normal" in="SourceGraphic" in2="effect1_dropShadow_40_166" result="shape"/>
</filter>
<linearGradient id="paint0_linear_40_166" x1="5561.51" y1="4484.73" x2="1251.55" y2="-887.017" gradientUnits="userSpaceOnUse">
<stop stop-color="#4385F5"/>
<stop offset="1" stop-color="#3569D3"/>
</linearGradient>
<clipPath id="clip0_40_166">
<rect width="85" height="85" fill="white" transform="translate(29 29)"/>
</clipPath>
</defs>
</svg>
