<svg width="144" height="144" viewBox="0 0 144 144" fill="none" xmlns="http://www.w3.org/2000/svg">
<g clip-path="url(#clip0_40_174)">
<path fill-rule="evenodd" clip-rule="evenodd" d="M50.7207 36.0883L57.8032 29.0059V42.5269H50.7207V36.0883ZM92.5717 36.0883L85.4892 29.0059V42.5269H92.5717V36.0883Z" fill="#7B7B7B"/>
<path d="M57.8027 29.0059H85.4888V35.7664H57.8027V29.0059Z" fill="#5A5A5A"/>
<path fill-rule="evenodd" clip-rule="evenodd" d="M111.565 113.994H31.7263C29.6772 113.994 27.712 113.18 26.263 111.731C24.814 110.282 24 108.317 24 106.268V55.8012L37.2758 42.5254H106.016L119.291 55.8012V106.268C119.291 108.317 118.477 110.282 117.028 111.731C115.58 113.18 113.614 113.994 111.565 113.994Z" fill="#E6E7E8"/>
<path fill-rule="evenodd" clip-rule="evenodd" d="M24 69.8895V55.8012L37.2758 42.5254H106.016L119.291 55.8012V69.8895H24Z" fill="#D0D1D2"/>
<path fill-rule="evenodd" clip-rule="evenodd" d="M34.9453 113.994V59.2662C34.9453 58.4124 35.2845 57.5935 35.8882 56.9898C36.492 56.3861 37.3108 56.0469 38.1646 56.0469H105.126C105.98 56.0469 106.799 56.3861 107.403 56.9898C108.006 57.5935 108.346 58.4124 108.346 59.2662V113.994H34.9453Z" fill="#458CF5"/>
<path d="M34.9453 69.8906H108.346V113.995H34.9453V69.8906Z" fill="white"/>
<path fill-rule="evenodd" clip-rule="evenodd" d="M86.4538 113.995V100.796L80.0152 94.3572L75.8301 82.7677L78.7275 75.3633L95.1459 91.7817L98.0433 79.5484L108.345 89.8502V113.995H86.4538Z" fill="#D2D3D4"/>
<path d="M39.7754 75.041H64.2421V102.405H39.7754V75.041ZM39.7754 108.522H71.3246V113.995H39.7754V108.522Z" fill="#D2D3D4"/>
<path fill-rule="evenodd" clip-rule="evenodd" d="M92.5718 103.726V113.996H79.0507V103.872C76.2941 102.617 73.9521 100.603 72.2988 98.0656C70.6456 95.528 69.7496 92.5719 69.7158 89.5434C69.6821 86.515 70.5119 83.5396 72.1081 80.9658C73.7043 78.3919 76.0009 76.3261 78.7288 75.0104V90.1727L85.4893 94.3578L92.5718 90.1727V75.0098C95.2729 76.3127 97.5516 78.3512 99.1463 80.891C100.741 83.4308 101.587 86.3689 101.587 89.3679C101.587 92.3668 100.741 95.3049 99.1463 97.8447C97.5516 100.385 95.2729 102.423 92.5718 103.726Z" fill="#505050"/>
<path fill-rule="evenodd" clip-rule="evenodd" d="M42.5118 59.5879C43.053 59.5879 43.5821 59.7484 44.0321 60.0491C44.4821 60.3497 44.8328 60.7771 45.0399 61.2771C45.247 61.7771 45.3012 62.3273 45.1956 62.8581C45.09 63.389 44.8294 63.8765 44.4467 64.2592C44.064 64.6419 43.5765 64.9025 43.0456 65.0081C42.5148 65.1137 41.9646 65.0595 41.4646 64.8524C40.9646 64.6453 40.5372 64.2946 40.2366 63.8446C39.9359 63.3946 39.7754 62.8655 39.7754 62.3243C39.7754 61.5986 40.0637 60.9025 40.5769 60.3894C41.09 59.8762 41.7861 59.5879 42.5118 59.5879ZM50.5601 59.5879C51.1013 59.5879 51.6303 59.7484 52.0803 60.0491C52.5303 60.3497 52.8811 60.7771 53.0882 61.2771C53.2953 61.7771 53.3495 62.3273 53.2439 62.8581C53.1383 63.389 52.8777 63.8765 52.495 64.2592C52.1123 64.6419 51.6247 64.9025 51.0939 65.0081C50.5631 65.1137 50.0129 65.0595 49.5129 64.8524C49.0129 64.6453 48.5855 64.2946 48.2848 63.8446C47.9841 63.3946 47.8237 62.8655 47.8237 62.3243C47.8237 61.5986 48.112 60.9025 48.6251 60.3894C49.1383 59.8762 49.8343 59.5879 50.5601 59.5879Z" fill="#E6E7E8"/>
</g>
<defs>
<clipPath id="clip0_40_174">
<rect width="95.2915" height="85" fill="white" transform="translate(24 29)"/>
</clipPath>
</defs>
</svg>
