<?xml version="1.0" encoding="utf-8"?>
<!-- Generator: Adobe Illustrator 26.0.1, SVG Export Plug-In . SVG Version: 6.00 Build 0)  -->
<svg version="1.1" id="Layer_1" xmlns="http://www.w3.org/2000/svg" xmlns:xlink="http://www.w3.org/1999/xlink" x="0px" y="0px"
	 viewBox="0 0 144 144" style="enable-background:new 0 0 144 144;" xml:space="preserve">
<style type="text/css">
	.st0{fill:#010101;}
	.st1{fill:#8AC640;}
	.st2{fill:#F0EFEF;}
	.st3{fill:#0A1825;}
	.st4{opacity:0.3;fill:#010101;enable-background:new    ;}
	.st5{fill:none;}
	.st6{opacity:0.4;fill:#010101;enable-background:new    ;}
</style>
<g>
	<path class="st0" d="M30.6,63.2c-4.1,1.9-14.9,10.6-17,13.1c-2.2,2.6-2.8-1.4-0.6-8.1c1.8-5.4,6.3-12.7,13.8-18.9
		c4.4-3.6,14.1-8.8,20-11.9C48,36.8,63.6,30.3,77.4,27c1.2-0.3-1.4,2-1.8,3.3c-2.1,6.1-43.7,32.2-43.7,32.2L30.6,63.2z M89.1,136.7
		c0.7,4.3,0.1,4.6-4.4,5.2c-4.5,0.6-7.8-1.1-9-2.2c-1.2-1.1-1.4-3.6-0.2-5.8c0.7-1.4,1.4-1.9,1.8-3.7c0.4-1.7,0.7-2.1,1-2.7
		c0.3-0.6,0.4-1.1,0.5-5c0.1-3.9,0-11.3,0.4-14.4c0.4-3.2,14.3,1.4,14.3,1.4s-3.3,8.2-4.2,10.2c-0.9,2-0.8,5.8-0.8,6.7
		c0,0.8-0.3,2.4-0.6,2.5c-0.2,0.1,0.8,2.2,0.3,3.4C88,133.2,89.1,136,89.1,136.7L89.1,136.7z M94.4,14.2c-0.5-3,0-9.1,0.6-10
		c2-2.7,12.6-3,14.8,0.2c1,1.4,0.9,4.8,0.7,7c-0.2,2.2-0.7,6.8-0.8,8.3c-0.1,1.1-11.7,2.9-14.3-0.2C94.8,18.6,94.4,14.2,94.4,14.2
		L94.4,14.2z M118,128.9c4.9,3.5,8.7,4.2,11.1,5.4c2.5,1.3,1.8,3.8-2.3,4.5c-3.4,0.6-8.7-0.6-12.2-0.6c-3.5,0-11.4,0.4-13.5-1
		c-2.4-1.7-1.4-4.8-1.4-4.8c0.6-1.8,2.2-5.7,1.8-8.9c-0.5-3.2-1.1-5-2.3-7.9c-1.2-3-2.1-10.3-1-10.7c1.1-0.4,0.8,0,2.2,0.3
		c1.4,0.3,3,0.8,6.2,0.8s6.6-0.5,7.8-0.7c1.2-0.2,2.2-0.5,1.8,2c-0.4,2.5-1.6,7.1-1.7,10.7c-0.1,3.6-0.1,7.8,0.2,8.5
		C114.9,127.2,116.7,128,118,128.9L118,128.9z"/>
	<path class="st1" d="M100.8,22.2C92,29.8,75,31.9,49.6,41.6c-6.5,2.5-23.8,9.9-28,17.7c14-8.1,19.2,3,20.4,14.5
		c1,10.7,6.4,16.3,20.2,16c14.2-0.3,18.5,7.9,22.4,17.6c7.6-37.1,19.8-44.3,27.6-50.6C129,43.3,108.4,19.4,100.8,22.2L100.8,22.2z"
		/>
	<path class="st1" d="M100.8,22.2c-21.2,7.4-42.1,9.2-66.7,24.4C28.3,50.1,16,58.3,13.6,73.9c9-9.9,29.7-22.4,55.1-30.4
		c12.8-4,22.2-6.7,33.6-11.1C101.5,27.4,101.5,25.4,100.8,22.2L100.8,22.2z"/>
	<path class="st0" d="M127.8,66.1c0,0-1.5,5.2-4.6,6.9c0,0-2.2,0.8-6.7-1.7c-1.3-0.7-2.2-3.2-2.2-4c0.1-1.9,1.3-2.8,1.3-2.8
		s1.3-2.2,2.8-2.1c1.5,0.1,4.1,0.3,4.9-0.4C124.1,61.2,128,63.4,127.8,66.1L127.8,66.1z M95.1,15.7c0,0-0.3,4.1-0.9,6.7
		c-0.1,0.5-2.5,0.7-4.2,1.4c3.4,9.6,23.6,9.5,26.3,4.8c-1.3-0.9-3.8-2.2-5-2.7c-1.2-0.5-1.1-0.4-1.2-2.6c-0.1-2.2-0.2-6.4-0.4-7.5
		C109.5,14.6,97.1,14.6,95.1,15.7L95.1,15.7z"/>
	<path class="st2" d="M95.9,15.7c0,0,0,2.3-0.2,4.6c-0.1,1-0.2,1.7-0.3,2.5c-0.1,0.5,2.7,2.4,3.5,6.7c3.8,8.6,12.7,4.3,16.4,0.2
		c-1.3-0.9-3.4-2.1-5.8-3c-1.2-0.5-0.6-1.5-0.7-3.8c-0.1-2.2-0.4-5.5-0.6-6.7C108.1,14.9,97.9,14.6,95.9,15.7L95.9,15.7z"/>
	<g>
		<path class="st0" d="M95.1,15.7c0,0-0.1,1.4-0.3,3.1c1,1,2.4,2.5,3.4,3.4c0.7,0.6,2.5,0.6,4.1,0.6c1.4,0,2.7,0.2,3.3-0.2
			c1.3-0.6,3.1-2.2,4.2-3.4c-0.1-1.4-0.2-2.8-0.2-3.4C109.5,14.6,97.1,14.6,95.1,15.7z"/>
		<path class="st0" d="M102.4,21.8c-1,0-2.1-0.1-3-0.2c-0.4-0.1-0.8-0.3-1.1-0.5c-0.6-0.4-1.1-0.9-1.8-1.4c-1.3-1-1.4-1.5-1.4-1.8
			c0.6-5-0.2-9.3-0.2-9.3s-0.6-2.2,2.5-2.7s4.9-0.6,4.9-0.6s1.9,0,4.9,0.6c3,0.6,2.5,2.7,2.5,2.7s-0.7,4.2-0.2,9.3
			c0,0.2-0.1,0.8-1.4,1.8c-1.1,0.8-2,1.7-2.9,1.8C104.5,21.7,103.4,21.8,102.4,21.8z"/>
		<path class="st0" d="M102.4,3.2c-5.3,0-6.3,1.4-7.9,3c-0.3,0.4-0.1,2.8,0.5,7.9h0.7c0,0-0.5-1.4-0.4-3.1c0.1-1.7,0.4-1.6,0.2-2
			c-0.3-0.5-1-1.3,0.5-2.1c1.4-0.8,3.7,0.6,6.4,0.7c2.7-0.1,5-1.5,6.5-0.7c1.4,0.8,0.8,1.6,0.5,2.1c-0.3,0.5,0.1,0.3,0.2,2
			c0.1,1.7-0.4,3.1-0.4,3.1h0.7c0.5-5.1,0.8-7.4,0.6-7.8C109.1,4.6,107.7,3.3,102.4,3.2z M127.8,66.3c0,0-1.5,4.9-4.5,6.6
			c-0.6-0.3-0.6-0.8-1.1-1.5c-0.2-0.2-0.7-0.4-1-0.6c-0.2-0.2-0.2-0.6-0.6-1c-0.3-0.3-0.6-0.1-0.9-0.3c-0.3-0.3-0.4-0.7-0.6-1
			c-0.2-0.2-0.8-0.2-1-0.4c-0.4-0.4-3.9-1.1-3.8-1.9c0.3-1.2,1-2.1,1-2.1s1.5-2.2,3-2.2c1.5,0.1,3,0.4,3.8-0.3
			C123.1,60.8,128.1,63.8,127.8,66.3L127.8,66.3z"/>
		<path class="st0" d="M117.4,30.9c0,0,5-1.2,8.5,2.1c3.4,3.4,3.2,7.5,2.2,10.1c0.9,1,2.5,3.9,1.3,7.4c5.3,4.5,3,11.4-1.8,15.9
			c0,0-1.1-4.2-5.6-4.4c0.2-1.6-4.2-2.9-2.2-7.1c-3-0.7-3-2.8-3.4-5.4C116,47,117.4,30.9,117.4,30.9L117.4,30.9z"/>
	</g>
	<path class="st2" d="M115.6,33.2c0,0,5.8-3,9.3,0.4c3.4,3.4,2.5,7.1,1.4,9.6c0.9,1,3,4,1.7,7.5c-0.2,0.8-2,0.8-3.3,2.9
		c3.2-1.8,5.2-1.4,5.9,1c1.1,3.6-1.4,7.9-3.5,10.3c0-0.1-0.1-0.2-0.1-0.2c-0.3,1.2-0.7,3.5-3.1,6.1c-1.2,1.3-2.2,1.1-3.5,0.8
		c-1.6-0.4-2.2-1.1-4.4-2.3c-1.3-0.7-0.6-1.6-0.6-2.3c0-0.2,0.2-0.4,0.4-0.7c0.2-0.4,0.6-1,1.4-1.8c0,0,1-1.4,2.6-1.4
		c1.5,0.1,3.1-0.2,3.5-0.6c0-2.8-3.2-2.9-2.1-7.7c0.1-0.2,0.5-0.6,1.8-0.8c-1.9-0.4-2.8-0.5-4.2-1.8c-1-0.9-1.7-2-1.9-3.4
		C116.4,46.2,115.6,33.2,115.6,33.2L115.6,33.2z"/>
	<path class="st0" d="M98.7,28.1c-0.5-0.6-3-3.8-7.7-5.1c-1.4-0.4-2.2,0.7-3.6,1.5c-0.4-0.2-2.2-1-3.1-0.5c-1,0.6-1.6,1.1-2.6,1.5
		c-0.5-0.2-1.8-0.2-2.8,0.2c-1,0.3-2.6,1-4.2,3.1c-1,3.4,17,0.9,17,0.9L98.7,28.1z"/>
	<path class="st1" d="M98.8,28.1c-2.6-0.9-2.2-3.8-7.9-4.3c-1.1-0.1-1.8,0.8-2.6,1.4c0.4,0.4,0.8,1,1,1.7c-0.7-0.8-2-1.8-3.3-2.1
		c-1.2-0.2-2,0.6-3.3,1.3c0.2,0.2,0.5,0.6,0.8,1.1c-1.1-0.7-1.9-1-3.4-0.4c-1,0.3-3,1.2-4.6,3.4c-1,3.4,16.2-0.4,16.2-0.4L98.8,28.1
		z"/>
	<path class="st0" d="M113.9,29.4c0,0,0-0.9-0.1-1.7c0-0.2-0.6-0.6-0.6-0.7l-0.2-0.2c0,0,1.3-0.7,2.2-0.3c1,0.3,1.6,1.7,1.6,1.7
		c1.8-0.6,2,0.1,2.9,1c1.9-0.4,2.2,0.3,3.4,2.1c0,0-1.4-0.2-4.2,0.2C116.1,31.9,113.9,29.3,113.9,29.4L113.9,29.4z"/>
	<path class="st1" d="M113.6,29c0,0,0.5-0.4,0.3-0.5c0.9-0.5,2.1-1,2.6,0.5c1.8-0.6,2.1,0.2,3,1.2c2.2-1,2.4,0.2,2.6,0.8
		c-0.7,0-1.8,0.1-3.2,0.2C116.1,31.6,113.5,28.9,113.6,29z"/>
	<path class="st0" d="M86.3,27c0,0,4.6,1.6,8.4,1.4c3.8-0.3,10.4-0.6,13.9,1.4c0,0,3.6-1.3,7-0.4c3.4,0.9,9.5,6.7,7.7,12.7
		c-0.2,0.4-1.2,1-2.4,1.4c0,0,0.6,2.7-0.5,5c-1.1,2.2-3.6,6.3-3.7,12.1c-0.1,1-0.2,3-0.4,3.9c-6.3-0.2-15.9-2.6-25.3-2.4
		c0.1-1,0.2-1.7,0.2-2.7h0.2c-0.5-2.6-0.6-4-1.1-6c-3-1.9-6.3-4.2-9-8.4C78.8,40.8,86.3,27,86.3,27L86.3,27z M117.3,70.3
		c0,0,5,17.8-0.9,25.2c0,0,0.9,3.4-1.1,7.1c-0.3,1.6-0.7,3-1,4.6c-1,6.7-2.8,9.5-3.3,20.1l-4.8-0.1c0,0-0.6-7.7-2.2-11.8
		c-1-2.3-4.7-5.4-4.6-8.6c0.2-2.4,0.6-4.4,4.7-7.6c0.3-4.6-4.3-9.1-3.6-26.4L117.3,70.3z"/>
	<path class="st2" d="M115.8,69.5c1.3,8.2,4.2,20.3-1.1,26.2c0.3,1.5,0.3,3.1,0.1,4.6c-0.2,1-0.5,2-0.9,3.1
		c-0.8,1.9-1.1,4.7-1.4,6.4c-1,6.7-1,7-1.5,17.6l-4.8-0.1c0,0-0.6-7.7-2.2-11.8c-1-2.3-3-4.3-3.1-7.5c-0.2-2.4,1.5-7.2,5.5-7.1
		c-0.2-9.7-4.7-7.8-5.9-28L115.8,69.5z M86.3,27c0,0,1.8,0.6,3.7,0.7c1.9,0.2,4,0,5.8-0.1c3.8-0.3,9.3-0.7,12.9,1.4
		c0,0,2-0.6,4.2-0.5c1,0.1,1.9,0.9,3,1.2c3.5,0.9,6.9,6.7,5.4,12c-0.2,0.4-1.3,0-2.6,0.4c0.2,1.1,0.4,3.7-0.9,6.4
		c-1.4,2.7-3.1,6.3-2.8,13c-8.4-0.4-12.2-1-20.5-1.4c-0.7-3-1.2-5.9-1.3-7.5c1.1-0.6,1.8-1,2.6-2c-2.4,0.4-3.4,0.2-4.8-0.6
		c-1.4-0.8-4-3.4-5.3-5c-0.2-0.2-1,2.5-3,2.6c-0.7-1,2.3-4,1.8-5.1C82.6,38.4,86.3,27,86.3,27L86.3,27z"/>
	<path class="st0" d="M116.5,62.9c0,0,0.2,2.9,0.2,3.6c0,0.8,0.6,3.2,0.7,4.3c-0.9,1.5-4.7,5-11.7,6.3c-6.9,1.4-16-9.4-16-9.4
		c0.2-1,1-4.1,1.6-5.7c0.1-0.2,0.2-0.6,0.2-0.7C92.2,60.2,116.5,62.9,116.5,62.9z"/>
	<path class="st2" d="M114.7,63.1c0,2,0.3,3.4,0.6,4.7c0.4,2.3,1,3.8,1,5.4c0,4.6-6.1,3.8-11.2,4c-6.9,1.4-12.7-9.4-12.7-9.4
		c0.5-1.8,0.8-3.9,1.5-5.7c0.1-1,0.2-2.2,0.3-2.7c9.8,0,16.7,0.6,20.7,1C115,61.3,114.9,62.8,114.7,63.1L114.7,63.1z"/>
	<path class="st0" d="M107,73.5c0,0-4.2-9.5-17-6.7c-3,8.6-7.1,18.4-4.5,29.1c-2.6,3.6-5.7,5.6-5.7,12.3c0,6.7,0.3,7.8,0.3,7.8
		l9.4,0.5c0,0,3-3.9,4.2-8.2c0.3-1.2,0.6-3.4,0.4-5.8c0.3-0.5,1.7-1.6,1.8-3.8c0,0,4.6-2.4,7.2-8.3C105.7,85.1,105.1,80.5,107,73.5
		L107,73.5z"/>
	<path class="st2" d="M107,73.5c-0.2-0.9-3.4-9.5-15.3-7c-7,18.6-4.4,26.3-3.4,29.6c-4.7,6-6.9,7.3-5.9,19.5h6.3
		c2.9-4.6,3.5-6.3,3.7-12.3c0-0.2-0.9,0.5-1.5,1.3c0.5-2.5,1.8-3,2.9-4.5c0.5-0.6,0.9-1.6,0.9-2.9c5.6-3.8,7.7-8.5,8.9-13.4
		C104.4,80.5,105.6,75,107,73.5L107,73.5z"/>
	<g>
		<path class="st0" d="M87.2,60.6c0,0,2.2,0.1,4.1,0.7c1.8,0.6,1.8,1,2.6,1.8c0.7,0.8,2.5,2,2.2,3.2c-0.2,0.6-0.6,0.8-1.1,1.4
			c-0.2,0.2-2,2.2-2.4,2.4c-0.2,0.2-0.6,0.4-0.8,0.6l-1.2,0.8c-0.8,0.4-1.4,0.6-2.2,0.6c0,0-2-0.1-3.3-1.4c0,0-0.2-0.6,0.2-1
			c0,0-1.7-1.4-2.2-2.4c-0.5-1-0.5-2.3-0.2-3C83,63.4,86.1,61.4,87.2,60.6L87.2,60.6z M89.2,138.5l-0.2,2c0,0-0.7,0.9-6.1,0.8
			c-5.4-0.1-6.9-1.8-7.4-2.6l-0.3-2.1c0,0,1-1.5,1.3-1.5c1.8,0.2,7.8,2.6,11.9,3.2C88.8,138.3,88.9,138.4,89.2,138.5L89.2,138.5z
			 M100.8,134.4c0,0.9-0.1,0.9-0.1,1.8c1,0.7,3.4,1.1,7.9,1c6.7-0.2,12.8,2,20.4,0.7l0.1-1.4l-0.7-0.1l-26.7-2.2L100.8,134.4z"/>
		<path class="st0" d="M106.7,137.2h2c4.3-0.2,8.4,0.8,12.8,1c2.3-0.1,5.2-0.6,5-2.3l-22.8-1.9C102.4,135.6,103.4,136.8,106.7,137.2
			L106.7,137.2z M80.6,103.5c0.7,0.5,5.6,3.4,13.5,3c-0.2,1.5-0.1,4.5-3.6,9.7c-1.8,2.6-3.3,7.1-3.6,12.7c0.1,1.3,0.8,2.4-0.2,4.1
			c0.3,1,1.6,3.1,2.2,4.4c0.6,1.3,1,2.7-3.3,2.8c-4.3,0.1-11.3-0.4-10.3-3.8c0.5-1.8,1.8-3.6,2-4.3c0.2-0.7,0.2-2.9,1.5-4.3
			c1.2-4,0.8-7.9,0.6-11.5C79,112.6,79,106.6,80.6,103.5L80.6,103.5z M88,38.2c5.7-7.6,0.9-13.7-8.3-11.9c-3.7,0.7-7.4,3.3-7.6,7.9
			c-1.2,0.2-3.9,0.3-5.3,5.3c-1,3.8-1.6,4.6-3.4,6.5c-1.2,1.4,0.1,4.2,1,6.2c3,6.9,12.1,7.5,18.3,12.7c2.1-0.6,4.2-2.9,4.9-4.4
			c-5.2-6.2-4.1-8.6-6.2-11.8C83.6,48,88.7,44.9,88,38.2L88,38.2z"/>
	</g>
	<path class="st2" d="M86.9,37.7c0.3-0.5,0.9-1.5,1.1-1.9c0.1-0.1,1,1.4,1,1.4c2.2-3.5,2.7-8.7,0.2-9.1c-0.6-0.1-1.6-0.3-2.5-0.6
		c-1.6-0.6-3-0.6-5.6-0.1c-3.5,0.6-7.1,3.2-7.1,6.9c0,0.2,2.5,1,3.2,3.9c-1.2-1.7-3.3-3.5-5.8-1.9c-2.6,1.7-1.3,5.5-4.8,9.5
		c-1.2,1.4-1,3,0.2,6.2c2.1,5,11.9,7.8,17.3,12.6c1.3-0.6,2.2-1.8,2.8-2.8c-3.6-3.8-5-7.3-6.1-9.9c-1.3-3-2.7-4.6-5.5-6.9
		c1.4,0.6,2.6,1.1,3.2,1.6c0.7,0.5,1.8,0.6,2.7,0.2C84.9,45.6,86.7,40.8,86.9,37.7L86.9,37.7z"/>
	<path class="st0" d="M121.8,39c-0.2,3-2.5,1.5-3.7,1c-2.4-1-4.8-1.8-7.6-1.8c-2.8,0-6.4,0.2-9.5,1c-4.3,1.2-5.6,1.1-7.5,0.2
		c-1.9-1-5.3-3.6-5.3-3.6s-0.1,0.8,0.7,1.8c1,1.3,3.4,2.9,6.5,3.9c1.5,0.5,2.7,0.2,4.1-0.2c7.1-1.8,14.7-2.1,21,1.8
		c0.3,0.2,1.4-0.3,1.9-1C123,41.1,121.8,39,121.8,39z"/>
	<path class="st3" d="M85.3,69.5c0.6,0.4,1.4,0.6,2.3,1.4c0,0-0.7,0-1-0.3C86.2,70.3,85.4,69.6,85.3,69.5z"/>
	<path class="st2" d="M108.4,6c-0.2-0.7-2-2-6.1-2c-4.4,0-5.7,1.4-5.8,2.1c0,0.2-0.3,2.8-0.4,3.8c0,0,0,1.3,0.1,3.2
		c0.1,1.3,0.4,2,0.6,3.7c0.2,1.8,0.6,2.9,1.5,4.3c0.4,0.2,0.7,0.5,1.1,0.6c1.6,0.3,4.4,0.4,5.9,0c0.9-0.2,2-1.8,2.2-3.1
		c0.3-1.7,0.6-2.9,0.7-3.9c0.2-1,0.2-3.4,0.3-4C108.9,8.9,108.5,6.1,108.4,6L108.4,6z"/>
	<path class="st0" d="M100,105c0,0,4.2,1.8,14.7,0.2c0,0-3,14.9-1.6,22.4c0,0,1.4,1.9,11.5,5.6c0,0,4.5,1.1,4.3,3.4
		c0,0,0.2,0.5-5.3,0.3c-5.4-0.2-10.6-1.1-14.2-1.1s-7.5,0.2-8.1-0.9c-0.7-1,0.2-3.4,1.2-4.9c1.1-1.5,0.8-2.6,0.7-5.4
		C103.1,117.5,97.6,110.2,100,105L100,105z"/>
	<path class="st1" d="M99.2,106.4c-0.6,0.8,0.1,3.8,0.9,6.8c0.8,3,2.6,4.7,3,9.6c0.4,4.8,0.5,5.4-0.9,8.3c-1.4,2.8-1.8,5.4,3,5.4
		c4.7,0.1,7.3-0.1,12.1,0.6c4.8,0.7,6.5,1,9.1,0.6s3.2-1.3,2.1-2.1c-1.1-0.8-5.8-1.7-7.8-3.3c-1.9-1.4-7.4-3.8-7.5-4.5
		c-0.2-2.2-0.3-10,0.1-12.6c0.4-2.6,1-6.3,1.1-7.2c0.2-1,1-1.9-0.4-1.6c-1.4,0.3-6.5,1-10.3,0.8C99.8,107,99.4,106.2,99.2,106.4
		L99.2,106.4z"/>
	<path class="st4" d="M101.9,131.2c1.4,0.6,3.4,1.1,4.9,1.1c0,0-0.6,2.6,0.3,4.2c0.9,1.6-6.4,0.6-6.4,0.6l-0.3-5.7L101.9,131.2z
		 M123.1,138c1.3-0.4,2.2-1.8,1.1-3.2c-1.1-1.4-2.1-1.6-0.6-1.7c1.4-0.1,6.7,3.1,6.7,3.1l-2.7,2.5L123.1,138z M98.9,109.5
		c1.8,0.6,4.6,0.8,7.1,0.7c2.4-0.1,6-0.4,8.3-1.2c2.3-0.8,1.4,0.9,1.4,0.9l-1.3,1.2c0,0-3,1.2-8,1.1c-5.8-0.1-7.6-0.7-7.6-0.7
		L98.9,109.5z M99.1,113.5c1.8,0.6,4.6,0.8,7.1,0.7c2.4-0.1,5.6-0.1,7.9-1c1-0.3,0.4,1,0.4,1l-0.4,0.7c0,0-3.1,1.1-8,1
		c-5.8-0.1-6.9-0.6-6.9-0.6L99.1,113.5z"/>
	<path class="st5" d="M100,105c0,0,7,2.5,14.8,0.8c0,0-3,14.3-1.7,21.7c0,0,1.4,1.9,11.5,5.6c0,0,4.5,1.1,4.3,3.4
		c0,0,0.2,0.5-5.3,0.3c-5.4-0.2-10.6-1.1-14.2-1.1s-7.5,0.2-8.1-0.9c-0.7-1,0.2-3.4,1.2-4.9c1.1-1.5,0.8-2.6,0.7-5.4
		C103.1,117.5,97.6,110.2,100,105L100,105z"/>
	<path class="st5" d="M100,105c0,0,7,2.4,14.8,0.7c0,0-3,14.4-1.7,21.8c0,0,1.4,1.9,11.5,5.6c0,0,4.5,1.1,4.3,3.4
		c0,0,0.2,0.5-5.3,0.3c-5.4-0.2-10.7-1.7-14.2-1.1c-3.8,0.6-7.5,0.4-8.1-0.9c-0.6-1,0.2-3.4,1.2-4.9c1.1-1.5,0.8-2.6,0.7-5.4
		C103.1,117.5,97.6,110.2,100,105L100,105z"/>
	<path class="st0" d="M93.8,57.4c0,0.6,6.3,3.7,9.7,4.3c3.4,0.6,10.7,0,11.8-0.2l-0.2,1.1c0,0-8.6,1.3-15.1-0.5
		c-6.6-1.8-5.8-2.2-5.8-2.2L93.8,57.4z"/>
	<path class="st2" d="M80.4,125.7c1,0.5,4.4,1.4,6.7,0.9c0.3-0.1,0-5.5,0.9-8c1.3-3.4,3.4-6.3,4.3-12.3c-3.4-0.3-7.2-1.2-9.2-1.8
		C80.5,112.2,81.4,119,80.4,125.7L80.4,125.7z M85.8,130.8c0.6,0.2,1,0.8,1.1,0.4c0.3-0.7-0.6-2.1-0.6-3V128
		c-0.7-0.6-5.6-0.7-5.3-0.4c-0.6,1-1.4,0.9-1.8,3c-0.2,1,1.1,0.2,2.3,0.1c-2.2,1.4-4.6,3.3-5,4.9c-0.5,2.2,0.3,2.9,2.7,4.1
		c2.1,0.5,4.6,0.6,6.5,0.5c2.2-0.4,2.6-1.4,1.9-2.9C86.7,135.1,86,132.3,85.8,130.8L85.8,130.8z"/>
	<path class="st0" d="M86.7,26.7c2.6,1.5,6.3,1.1,7.7,1c0.3,0,3.5-0.6,3.7-0.5c0.3,0.1,0.3,0.3,0.3,0.3s-1.2,0.6-3.9,0.8
		c-2.6,0.2-5.6,0-7.3-0.8C85.1,26.7,86.7,26.7,86.7,26.7L86.7,26.7z M113.9,28.2c0.5,0.3,3.6,1.5,5,3c1.2,1.3,0.6,1.2,0.3,0.9
		c-0.3-0.4-2.8-2.1-3.8-2.5s-2.2-1.1-2.2-1.3S113.9,28.2,113.9,28.2L113.9,28.2z"/>
	<path class="st2" d="M86.3,61.4c2.3-0.2,4.7,0.4,6.3,2c0.8,0.8,2.1,1.7,1.9,2.5c0,0.2-0.5,0.9-0.9,1.4c-0.2,0.3-1,1-1.2,1.3
		c-0.3,0.2-1.4,1.1-1.7,1.3c-0.2,0.2-0.6,0.6-0.8,0.6c-0.8,0.4-1.7,0.1-2.5-0.3c-0.8-0.4,0.2-0.5-0.7-1.1c-2.2-1.5-3.4-2.6-2.5-5.5
		C84.2,63,85.1,62.3,86.3,61.4L86.3,61.4z"/>
	<path class="st6" d="M65.8,43.1C58.6,46,40.3,55.1,35,57.9c4.3,2.7,6.3,9.3,7,15.9c0.1,0.6,0.2,1.2,0.2,1.8c0.1,0.6,0.2,1,0.2,1.2
		c0,0.1,0,0.2,0.1,0.3c4.7-12.9,21.6-26.5,22.3-27.6c0.3-0.5-0.4-2.6,0.7-4.6C67,42.5,69.8,41.4,65.8,43.1L65.8,43.1z M83,103.6
		c3.7-7.4,3.8-14.4,3.7-22.7c0-3.4,2.5-8.3,1.2-7C83,79.3,70.9,89.4,62.2,90C74.5,89.6,79.3,95.7,83,103.6z"/>
	<path class="st0" d="M28,64.7c4.6-3.3,28.2-15.9,33.9-17.6c5.7-1.8,3.9-4,3.9-4S42.7,53,29,61.6"/>
	<path class="st6" d="M95.3,41.6c-1.8-0.7-3.3,1.4-2.8,3.5c0.5,2.1,4.8,4.4,4.6,12c-0.2,6.3-1.5,8.8-1.5,8.8l-3-3.8
		c0,0-0.5-8.7-1.5-9.9c-1-1.3-4.3-3.6-5.6-4.8c-1.3-1.2,1.4-2.8,1.3-5c-0.2-2.2,1.4-6.5,1.4-6.5L95.3,41.6z M106.4,75.7
		c-0.2,6,1.2,14.9,1.8,19.2c0.6,4.2,1.3,4.6,0,6.5c-1.3,1.8-3,4.9-3,4.9l-5.5-0.5c0,0,4.4-5.6,4.6-6.7c0.2-1-2.2-9-2.2-9L106.4,75.7
		z M95.8,19.6c1.1,2.5,2.5,3.6,4.6,4.3c1.3,0.5,6.3,1.1,8.3-1.1c0.9-1,0.3-3.8,0.3-3.8l-4.6,3.7l-6.2-1.1l-0.7-1.8L95.8,19.6z"/>
	<g>
		<path class="st1" d="M96.3,25.1c2.1,1.4,7.3,2.6,8.7,2.9c1.4,0.3,3.8-1.5,4.9-2c1.2-0.6,3.3-0.9,5.7,1.3c0.2,0.2-0.6,1.3-0.6,1.3
			c-0.1-0.1-0.6-0.1-1.2-0.4c-0.6-0.3-1.2-0.6-2.2-0.5c-4,0.5-4.6,1.8-8.2,1c-3.5-0.8-4.4-1.4-7.9-1.3"/>
		<path class="st0" d="M105.4,29.3c-0.6,0-1.2-0.1-2-0.3c-1-0.2-1.7-0.4-2.4-0.6c-1.8-0.5-2.9-0.8-5.4-0.7l0-0.6
			c2.6-0.1,3.8,0.2,5.6,0.7c0.7,0.2,1.4,0.4,2.4,0.6c2.1,0.5,3.1,0.2,4.5-0.3c0.9-0.3,2-0.6,3.5-0.8c0,0,0,0,0,0
			c1-0.1,1.6,0.2,2.3,0.5c0.4,0.2,0.7,0.3,0.9,0.3c0,0,0,0,0.1,0c0.2-0.3,0.4-0.6,0.4-0.7c-2.3-2.1-4.3-1.6-5.3-1.2c0,0,0,0,0,0
			c-0.3,0.1-0.7,0.4-1.2,0.6c-1.2,0.7-2.8,1.6-3.9,1.4c-1.6-0.3-6.8-1.6-8.8-2.9l0.3-0.5c2,1.3,7,2.6,8.6,2.8c0,0,0,0,0,0
			c0.9,0.2,2.4-0.7,3.5-1.3c0.5-0.3,0.9-0.5,1.2-0.7c1.1-0.5,3.4-1,6,1.3c0,0,0,0,0,0c0.3,0.3,0.1,0.9-0.5,1.7
			c-0.1,0.1-0.1,0.1-0.2,0.1c-0.1,0-0.1,0-0.2-0.1c0,0-0.1,0-0.1,0c-0.2,0-0.6-0.1-1-0.3c-0.6-0.3-1.1-0.5-2-0.4
			c-1.5,0.2-2.5,0.5-3.4,0.8C107.3,29.1,106.5,29.3,105.4,29.3z M114.8,28.8C114.8,28.8,114.8,28.8,114.8,28.8
			C114.8,28.8,114.8,28.8,114.8,28.8z"/>
	</g>
	<path class="st1" d="M95.5,25.4c2.6,1.1,7.8,2.3,9.2,2.6c1.4,0.3,3.8-1.1,4.9-1.8c2-1.3,4.6-0.2,5.8,1.1c0.8,0.9,1.1,1.4,1.1,1.7
		c0,0.3-1,0-1,0c-0.6-0.2-1.2-0.3-1.7-0.6c-0.6-0.3-1.3-0.8-2.2-0.7c-4,0.5-4.8,1.8-8.3,1s-4.3-1.5-8-1.3"/>
	<path class="st0" d="M83.1,100.2c-0.2-0.2,0.2-0.3,0-0.3c-1,0-2.5-0.8-3.3-1.9c-3.4-5-8.5-8.3-17.6-8c-13.7,0.3-19.2-5.3-20.2-16
		c-0.6-5.8-2.2-11.5-5.4-14.7l-1.9,1.2c3.7,3.2,4.9,8.4,5.7,15.5c1.3,10.7,9.9,15.7,20,15.9c10.5,0.2,14.3,2.3,18.2,7.6
		c1.3,1.7,2.7,2.2,3.8,2.5L83.1,100.2z"/>
	<path class="st6" d="M120.3,48.7c0.2,1.2,0.9,3.5,2.2,4.6c0.6,0.6,0.6,0.7,0.2,0.7c-0.5,0-4-0.2-4-0.2l-1-1.7L120.3,48.7z"/>
</g>
</svg>
