<?xml version="1.0" encoding="utf-8"?>
<!-- Generator: Adobe Illustrator 26.0.1, SVG Export Plug-In . SVG Version: 6.00 Build 0)  -->
<svg version="1.1" id="Layer_1" xmlns="http://www.w3.org/2000/svg" xmlns:xlink="http://www.w3.org/1999/xlink" x="0px" y="0px"
	 viewBox="0 0 144 144" style="enable-background:new 0 0 144 144;" xml:space="preserve">
<style type="text/css">
	.st0{fill:#49021F;}
	.st1{fill:#FF3366;}
</style>
<g>
	<path class="st0" d="M26.8,3.8h90.4c13.7,0,24.8,11.1,24.8,24.8v86.9c0,13.7-11.1,24.8-24.8,24.8H26.8C13.1,140.2,2,129.2,2,115.5
		V28.5C2,14.8,13.1,3.8,26.8,3.8z"/>
	<g id="vlpa">
		<g id="vlpb">
			<path class="st1" d="M52.9,39.5v60.1c0,0.6-0.3,0.9-0.8,0.9H40.6c-0.5,0-0.8-0.3-0.8-0.9V39.4c0-0.5,0.3-0.8,0.8-0.8H52
				c0.4-0.1,0.7,0.2,0.8,0.6C52.9,39.3,52.9,39.4,52.9,39.5z"/>
			<path class="st1" d="M86.6,101.2c-4.3,0.1-8.6-0.8-12.5-2.6c-3.7-1.7-6.7-4.5-8.8-7.9c-2.2-3.6-3.2-8-3.2-13.3
				C62,73,63.1,68.7,65.2,65c2.2-3.8,5.4-6.9,9.3-9c4.1-2.3,9-3.4,14.8-3.4c0.3,0,0.7,0,1.2,0.1c0.5,0.1,1.1,0.1,1.8,0.1V34.3
				c0-0.4,0.2-0.6,0.6-0.6h11.8c0.3-0.1,0.5,0.2,0.6,0.4v0.1v55.5c0,1.1,0.1,2.2,0.1,3.5c0.1,1.2,0.2,2.4,0.2,3.4
				c0,0.4-0.2,0.8-0.6,0.9c-3,1.3-6.2,2.2-9.5,2.8C92.7,100.9,89.6,101.2,86.6,101.2L86.6,101.2z M92.3,89.5V63.8
				c-0.5-0.1-1.1-0.2-1.6-0.3c-0.6-0.1-1.3-0.1-1.9-0.1c-2.3,0-4.6,0.5-6.6,1.5c-2,1-3.7,2.4-5,4.3c-1.3,1.9-1.9,4.4-1.9,7.4
				c-0.1,2,0.3,4.1,1,6c0.6,1.6,1.5,3,2.6,4.1c1.1,1.1,2.4,1.9,4,2.3c1.6,0.5,3.2,0.8,4.8,0.8c0.9,0,1.7-0.1,2.4-0.1
				C91,89.9,91.7,89.7,92.3,89.5L92.3,89.5z"/>
		</g>
	</g>
</g>
</svg>
