<svg width="144" height="144" viewBox="0 0 144 144" fill="none" xmlns="http://www.w3.org/2000/svg">
<path fill-rule="evenodd" clip-rule="evenodd" d="M114 71.5001C114 94.972 94.972 114 71.5001 114C48.028 114 29 94.972 29 71.5001C29 48.028 48.028 29 71.5001 29C94.972 29 114 48.028 114 71.5001ZM48.3234 77.6426H59.6081C59.9438 77.6426 60.19 77.9575 60.1101 78.2823L54.2783 101.943C54.1541 102.447 54.765 102.799 55.1385 102.44L94.4571 64.5967C94.7929 64.2742 94.5647 63.7077 94.0991 63.7077H80.2972C79.8681 63.7077 79.6265 63.2155 79.8881 62.8752L92.8122 46.1124C93.0749 45.7721 92.832 45.2799 92.4031 45.2799H65.9508L47.8744 76.8689C47.6772 77.2137 47.9267 77.6426 48.3234 77.6426Z" fill="#017EF7"/>
</svg>
