<?xml version="1.0" encoding="utf-8"?>
<!-- Generator: Adobe Illustrator 26.0.1, SVG Export Plug-In . SVG Version: 6.00 Build 0)  -->
<svg version="1.1" id="Layer_1" xmlns="http://www.w3.org/2000/svg" xmlns:xlink="http://www.w3.org/1999/xlink" x="0px" y="0px"
	 viewBox="0 0 144 144" style="enable-background:new 0 0 144 144;" xml:space="preserve">
<style type="text/css">
	.st0{fill:#7AC143;}
	.st1{fill:#F9A541;}
	.st2{fill:#F44321;}
	.st3{fill:#5091CD;}
</style>
<g transform="translate(-35 -35)">
	<path class="st0" d="M62,107.5l-2.6-2.6c-8.4-8.4-10.8-20.2-7.9-30.8c-8.4-1.9-14.6-9.3-14.6-18.3c0-10.3,8.4-18.7,18.7-18.7
		c9.3,0,17,6.7,18.5,15.7c10.1-2.4,21.1,0.4,29,8.2l1.1,1.1L90.4,75.9l-1.1-1.1c-4.5-4.5-11.8-4.5-16.3,0c-4.5,4.5-4.5,11.8,0,16.3
		l31,31l-13.8,13.8l-14.6-14.6L62,107.5z"/>
	<path class="st1" d="M77.5,92.1l31-31c8.2-8.2,20.2-10.8,30.7-7.9c1.3-9.2,9.2-16.1,18.5-16.1c10.3,0,18.7,8.4,18.7,18.7
		c0,9.5-7.1,17.4-16.3,18.5c3,10.5,0.4,22.2-7.9,30.5l-1.1,1.1l-13.5-13.8l1.1-1.1c4.5-4.5,4.5-11.8,0-16.3
		c-4.5-4.5-11.8-4.5-16.3,0l-31,31L77.5,92.1z"/>
	<path class="st2" d="M139.7,161.9c-10.7,3.2-22.6,0.7-31-7.7l-1.1-1.1l13.8-13.8l1.1,1.1c4.5,4.5,11.8,4.5,16.3,0
		c4.5-4.5,4.5-11.8,0-16.3l-31-31l13.8-13.8l31.2,31.2c7.9,7.9,10.7,19.1,8.2,29.3c9.2,1.3,16.1,9.2,16.1,18.5
		c0,10.3-8.4,18.7-18.7,18.7C149.1,176.8,141.4,170.3,139.7,161.9z"/>
	<path class="st3" d="M134.3,123l-31,31c-8,8-19.3,10.7-29.3,8.2c-1.9,8.4-9.3,14.6-18.3,14.6c-10.3,0-18.7-8.4-18.7-18.7
		c0-8.8,6.2-16.3,14.4-18.1c-2.6-10.5,0-21.7,8-29.7l1.1-1.1L74.3,123l-1.1,1.1c-4.5,4.5-4.5,11.8,0,16.3c4.5,4.5,11.8,4.5,16.3,0
		l31-31L134.3,123z"/>
</g>
</svg>
