<svg width="144" height="144" viewBox="0 0 144 144" fill="none" xmlns="http://www.w3.org/2000/svg">
<path d="M120.43 44.5832C120.466 44.7163 120.485 44.8535 120.485 44.9913V66.4186C120.485 66.9784 120.185 67.4955 119.7 67.774L101.715 78.1283V98.6514C101.715 99.2099 101.419 99.7255 100.934 100.007L63.3935 121.618C63.3076 121.666 63.2139 121.698 63.1201 121.731C63.085 121.743 63.0518 121.764 63.0147 121.774C62.7522 121.843 62.4764 121.843 62.214 121.774C62.171 121.762 62.1319 121.739 62.0909 121.723C62.005 121.692 61.9152 121.664 61.8331 121.618L24.3002 100.007C23.8149 99.7279 23.5151 99.2111 23.5151 98.6514V34.3695C23.5151 34.2289 23.5347 34.0922 23.5698 33.9594C23.5815 33.9144 23.6089 33.8734 23.6245 33.8285C23.6538 33.7465 23.6811 33.6625 23.7241 33.5864C23.7534 33.5356 23.7964 33.4946 23.8315 33.4477C23.8764 33.3852 23.9174 33.3208 23.9702 33.2661C24.0151 33.2212 24.0737 33.188 24.1244 33.1489C24.1811 33.102 24.2319 33.0513 24.2963 33.0142H24.2983L43.0657 22.2087C43.5493 21.9304 44.1444 21.9304 44.628 22.2087L63.3955 33.0142H63.3994C63.4619 33.0532 63.5146 33.102 63.5712 33.1469C63.622 33.186 63.6786 33.2212 63.7236 33.2641C63.7782 33.3208 63.8173 33.3852 63.8642 33.4477C63.8974 33.4946 63.9423 33.5356 63.9696 33.5864C64.0145 33.6645 64.0399 33.7465 64.0712 33.8285C64.0868 33.8734 64.1141 33.9144 64.1259 33.9613C64.1618 34.0944 64.1802 34.2316 64.1805 34.3695V74.5193L79.8194 65.5144V44.9894C79.8194 44.8527 79.839 44.714 79.8741 44.5832C79.8878 44.5363 79.9132 44.4953 79.9288 44.4504C79.96 44.3684 79.9874 44.2844 80.0303 44.2082C80.0596 44.1574 80.1026 44.1164 80.1358 44.0696C80.1827 44.0071 80.2217 43.9426 80.2764 43.8879C80.3213 43.843 80.378 43.8098 80.4287 43.7708C80.4873 43.7239 80.5381 43.6731 80.6006 43.636H80.6025L99.3719 32.8306C99.8554 32.5519 100.451 32.5519 100.934 32.8306L119.702 43.636C119.768 43.6751 119.819 43.7239 119.877 43.7688C119.926 43.8079 119.983 43.843 120.028 43.886C120.083 43.9426 120.122 44.0071 120.168 44.0696C120.204 44.1164 120.247 44.1574 120.274 44.2082C120.319 44.2844 120.344 44.3684 120.375 44.4504C120.393 44.4953 120.418 44.5363 120.43 44.5832ZM117.356 65.5144V47.6961L110.789 51.4769L101.715 56.701V74.5193L117.358 65.5144H117.356ZM98.5888 97.7472V79.9171L89.664 85.0142L64.1786 99.5595V117.558L98.5888 97.7472ZM26.6437 37.0742V97.7472L61.05 117.556V99.5615L43.0755 89.3888L43.0696 89.3848L43.0618 89.3809C43.0013 89.3458 42.9505 89.295 42.8938 89.252C42.845 89.213 42.7884 89.1817 42.7454 89.1388L42.7415 89.1329C42.6907 89.0841 42.6556 89.0236 42.6126 88.9689C42.5736 88.9161 42.5267 88.8712 42.4955 88.8166L42.4935 88.8107C42.4583 88.7521 42.4369 88.6818 42.4115 88.6154C42.3861 88.5568 42.3529 88.5021 42.3373 88.4396V88.4377C42.3177 88.3635 42.3138 88.2854 42.306 88.2092C42.2982 88.1506 42.2826 88.092 42.2826 88.0334V88.0295V46.0791L33.2113 40.8531L26.6437 37.0762V37.0742ZM43.8488 25.3685L28.2119 34.3695L43.8449 43.3704L59.4799 34.3675L43.8449 25.3685H43.8488ZM51.9807 81.542L61.052 76.3199V37.0742L54.4844 40.8551L45.4111 46.0791V85.3248L51.9807 81.542ZM100.153 35.9904L84.5181 44.9913L100.153 53.9923L115.786 44.9894L100.153 35.9904ZM98.5888 56.701L89.5156 51.4769L82.948 47.6961V65.5144L92.0192 70.7365L98.5888 74.5193V56.701ZM62.6124 96.8547L85.5454 83.7624L97.0089 77.2202L81.3857 68.2251L63.3974 78.5814L47.0028 88.0198L62.6124 96.8547Z" fill="#FF2D20"/>
</svg>
