<svg width="144" height="144" viewBox="0 0 144 144" fill="none" xmlns="http://www.w3.org/2000/svg">
<path d="M110.75 12H33.25C21.5139 12 12 21.7579 12 33.7949V110.205C12 122.242 21.5139 132 33.25 132H110.75C122.486 132 132 122.242 132 110.205V33.7949C132 21.7579 122.486 12 110.75 12Z" fill="#001E36"/>
<path d="M75.02 96.8119H43.303C42.7661 96.8119 42.4978 96.5092 42.4981 95.9037V43.4755C42.484 43.3745 42.4931 43.2716 42.5245 43.1749C42.556 43.0781 42.6089 42.9902 42.6792 42.9181C42.7496 42.846 42.8353 42.7917 42.9296 42.7595C43.0239 42.7272 43.1243 42.718 43.2227 42.7324H53.0437C53.1202 42.7213 53.1982 42.7287 53.2715 42.7538C53.3448 42.7789 53.4114 42.8212 53.466 42.8773C53.5207 42.9333 53.5619 43.0016 53.5864 43.0768C53.6109 43.152 53.618 43.232 53.6072 43.3104V86.4089H76.7107C77.1936 86.4089 77.3814 86.6566 77.2742 87.152L75.8252 96.0689C75.8218 96.1906 75.791 96.3098 75.7351 96.4173C75.6792 96.5247 75.5999 96.6174 75.5032 96.6881C75.3538 96.7677 75.1883 96.8101 75.02 96.8119Z" fill="#31A8FF"/>
<path d="M82.989 55.7777H91.7634C92.0016 55.7798 92.2327 55.8616 92.4216 56.0106C92.6104 56.1596 92.7467 56.3678 92.8098 56.6034C93.0013 56.9651 93.1371 57.355 93.2124 57.7593C93.3247 58.2904 93.4054 58.8281 93.4538 59.3693C93.5068 59.9473 93.5337 60.5665 93.5344 61.2269C95.0392 59.4299 96.8539 57.9326 98.8877 56.8099C101.172 55.543 103.737 54.903 106.334 54.9522C106.432 54.9377 106.533 54.947 106.627 54.9793C106.721 55.0115 106.807 55.0658 106.877 55.1379C106.948 55.21 107.001 55.2979 107.032 55.3947C107.063 55.4914 107.072 55.5943 107.058 55.6952V65.6855C107.058 66.0712 106.79 66.2639 106.253 66.2634C103.011 66.0577 99.7671 66.6523 96.7947 67.9973C95.7845 68.4455 94.8686 69.0904 94.0979 69.8963V96.0691C94.0979 96.5645 93.8832 96.8122 93.4538 96.8122H83.7133C83.604 96.8283 83.4925 96.818 83.3876 96.7822C83.2828 96.7464 83.1876 96.6861 83.1094 96.6059C83.0313 96.5258 82.9725 96.4281 82.9376 96.3206C82.9027 96.213 82.8927 96.0987 82.9084 95.9865V67.5845C82.9084 66.3743 82.895 65.0945 82.8681 63.7452C82.8405 62.3971 82.8003 61.0623 82.7473 59.7408C82.7117 58.6065 82.6042 57.4758 82.4255 56.3558C82.4053 56.2758 82.4059 56.1919 82.427 56.1122C82.4482 56.0326 82.4893 55.96 82.5462 55.9016C82.6031 55.8432 82.6739 55.8011 82.7516 55.7793C82.8292 55.7576 82.9111 55.7571 82.989 55.7777H82.989Z" fill="#31A8FF"/>
</svg>
