<?xml version="1.0" encoding="utf-8"?>
<!-- Generator: Adobe Illustrator 26.0.1, SVG Export Plug-In . SVG Version: 6.00 Build 0)  -->
<svg version="1.1" id="Layer_1" xmlns="http://www.w3.org/2000/svg" xmlns:xlink="http://www.w3.org/1999/xlink" x="0px" y="0px"
	 viewBox="0 0 144 144" style="enable-background:new 0 0 144 144;" xml:space="preserve">
<style type="text/css">
	.st0{fill:#427488;}
	.st1{fill:#FFFFFF;}
	.st2{fill:#859EAD;}
</style>
<g>
	<rect x="17.5" y="2" class="st0" width="108.7" height="116"/>
	<path class="st1" d="M52.7,118.2L52.7,118.2L52.7,118.2L52.7,118.2z M117.8,111.9l-0.4-0.5l-0.4-0.5c-0.3-0.4-0.5-0.7-0.8-1
		l-0.2-0.2c0.3-2.7,0.6-5.4,0.8-8.2c0.1-1.5,0.1-2.9,0.1-4.4c0-0.7,0-1.5-0.1-2.2c0-0.4-0.1-0.8-0.1-1.1v0v-0.1v0v-0.1l0-0.1
		l-0.1-0.3c0-0.2-0.1-0.4-0.1-0.6c-0.3-1.6-0.9-3.1-1.7-4.5l-0.3-0.4c0.7-0.6,1.5-1.1,2.2-1.6c0.4-0.3,1-0.4,1.5-0.5
		c0.5-0.1,1.1-0.1,1.6-0.3c-0.5,0.1-1.1,0.1-1.7,0.1c-0.6,0-1.1,0.1-1.7,0.4c-0.8,0.4-1.7,0.8-2.4,1.4c-0.6-1-1.3-1.9-2.1-2.7
		c-1-1.1-2-2.1-3.1-3.1l-1.6-1.4l-0.8-0.7l-0.2-0.2l0,0l0,0l0,0l-0.1-0.1l-0.1-0.1l-0.4-0.4c-2-1.9-3.8-3.9-5.5-6.1
		c-0.8-1.1-1.6-2.2-2.3-3.3c0.3-0.3,0.6-0.5,1-0.8c0.5-0.4,1-0.9,1.4-1.4c0.7-1.1,1.3-2.2,1.8-3.4l0,0v0c0.2-0.9,0.4-1.7,0.5-2.6
		l0,0l0,0c0-1.2-0.6-2.4-0.6-3.6c-0.1,1.2,0.4,2.4,0.4,3.6c-0.1,0.8-0.4,1.7-0.6,2.5c-0.5,1.1-1.1,2.2-1.9,3.2
		c-0.4,0.5-0.8,0.9-1.3,1.2c-0.3,0.2-0.6,0.4-1,0.6c-0.6-1-1.1-2-1.6-3.1c-1.1-2.5-1.8-5.2-1.9-8c-0.1-2.8,0.3-5.6,1.2-8.2
		c-1.1,2.6-1.8,5.4-1.8,8.2c-0.1,2.9,0.4,5.7,1.3,8.5c0.9,2.7,2.2,5.2,3.6,7.5l-0.1,0c-0.4-0.3-1-0.4-1.5-0.5c-0.5-0.1-1,0-1.5,0.1
		c-1,0.3-1.9,0.5-2.9,0.4c-1-0.1-1.9-0.4-2.8-0.8c0.9,0.5,1.8,0.9,2.8,1c1,0.1,2,0,3-0.2c0.4-0.1,1-0.1,1.4,0
		c0.5,0.1,0.9,0.3,1.3,0.5c0.4,0.2,0.8,0.5,1.1,0.8c1.4,2,2.9,4,4.5,5.8l0.4,0.4l0.1,0.1l0.1,0.1l0.1,0.1l0.2,0.2l0.7,0.8l1.4,1.5
		c0.9,1,1.8,2,2.6,3.1c0.8,1.1,1.5,2.2,2,3.3c0.5,1.1,0.8,2.3,1,3.5l0.1,0.4l0,0.2v0.1v0.1v0v-0.1v0c0,0.3,0,0.7,0,1
		c0,0.7,0,1.3-0.1,2c-0.1,1.3-0.3,2.7-0.4,4c-0.2,1.3-0.4,2.7-0.7,4.1c-2.2-1.9-4.6-3.4-7.1-4.8c-0.8-0.4-1.5-0.8-2.3-1.3
		c0.1-0.8,0.2-1.6,0.2-2.4c0.1-1.2,0.1-2.4,0-3.7c-0.1-1-0.3-1.9-0.5-2.9l0.1,0c0.1-0.3,0.4-0.5,0.7-0.7c0.3-0.2,0.6-0.4,1-0.5
		c0.7-0.3,1.4-0.6,2.2-0.8c-0.8,0.1-1.5,0.2-2.3,0.4c-0.4,0.1-0.8,0.2-1.1,0.4c-0.2,0.1-0.4,0.2-0.5,0.3l-0.1,0.1l0-0.1
		c-0.4-1.2-1-2.3-1.5-3.3c-0.1-0.3-0.3-0.5-0.4-0.8c-0.2-0.3-0.3-0.5-0.5-0.8c-0.4-0.5-0.8-1-1.1-1.4c-0.8-0.9-1.6-1.7-2.4-2.6
		c-0.8-0.9-1.5-1.8-2.2-2.7s-1.1-2.1-1.2-3.3c0,1.2,0.4,2.4,1,3.4c0.6,1.1,1.3,2,2,3c0.7,0.9,1.5,1.8,2.2,2.8l0.1,0.1
		c-0.2,0-0.4,0.1-0.6,0.1c-0.3,0.1-0.6,0.3-0.9,0.4c-0.3,0.2-0.6,0.4-0.8,0.7s-0.3,0.6-0.1,1c-0.1-0.3,0.1-0.6,0.3-0.8
		c0.2-0.2,0.5-0.4,0.8-0.5c0.3-0.1,0.6-0.2,0.9-0.2c0.3,0,0.6-0.1,0.9,0l0-0.2c0.2,0.3,0.4,0.6,0.6,0.8c0.1,0.3,0.3,0.5,0.4,0.7
		c0.1,0.3,0.3,0.5,0.4,0.8c0.5,1,0.9,2.1,1.2,3.2c0.3,1.1,0.4,2.2,0.4,3.3c0,1.1-0.1,2.2-0.3,3.4c-0.1,0.5-0.2,1.1-0.3,1.6l-0.1-0.1
		c-1.4-0.7-2.8-1.5-4.1-2.2c-2.6-1.6-5-3.4-6.8-5.7c-1.8-2.3-3.2-5-4.2-8l-0.2-0.6l-0.1-0.3L84.6,81l-0.3-1.1
		c-0.2-0.8-0.4-1.5-0.6-2.3c-0.4-1.5-0.8-3.1-1.1-4.6c-0.6-3.1-1-6.2-1-9.3c0-3.1,0.4-6.2,1.3-9.3c0.1-0.4,0.2-0.8,0.3-1.1l0.2-0.6
		l0.2-0.6c0.2-0.8,0.5-1.5,0.7-2.3c0.2-0.6,0.4-1.1,0.6-1.7c0.4-0.6,0.9-1.1,1.4-1.6c0.6-0.6,1.2-1.1,1.8-1.6c0.3-0.3,0.6-0.5,1-0.7
		l0.5-0.4l0.1-0.1l0,0l0,0h0l0.1-0.1l0.3-0.1c0.4-0.2,0.7-0.3,1.1-0.4c0.4-0.1,0.8-0.1,1.2-0.4c0.4-0.2,0.7-0.5,1-0.8l0.4-0.5
		c0.1-0.2,0.2-0.4,0.3-0.5c0.3-0.8,0.5-1.6,0.6-2.4c0.1-0.8,0.2-1.6,0.4-2.4c-0.2,0.8-0.3,1.6-0.5,2.4c-0.2,0.8-0.4,1.6-0.7,2.3
		c-0.1,0.2-0.2,0.3-0.3,0.5l-0.4,0.4c-0.3,0.3-0.6,0.6-0.9,0.7c-0.3,0.2-0.7,0.2-1.1,0.3c-0.4,0.1-0.8,0.2-1.2,0.3l-0.3,0.1
		l-0.1,0.1h0l0,0h0l0,0l-0.1,0.1l-0.5,0.3c-0.3,0.2-0.7,0.4-1,0.7c-0.7,0.5-1.3,1-1.9,1.5c-0.2,0.2-0.4,0.3-0.5,0.5
		c0.2-0.4,0.3-0.9,0.5-1.3c1.1-3,2.2-6,3.2-9.1c0.5-1.5,1-3.1,1.2-4.7l0-0.2l0.8-0.1l0.1,0.1c0.4,0.6,1.3,0.6,2.9-0.6
		c1.7-1.2,2.4-3.2,2.4-3.2s-2.2,0.1-3.8,1.3c-1.3,1-1.7,1.7-1.6,2.2L90.3,31c0.2-1.4,0.2-2.9,0.1-4.3c-0.2-1.6-0.6-3.2-1-4.7
		s-0.9-3.1-1.3-4.6c0.3,1.6,0.7,3.1,1,4.7c0.3,1.6,0.6,3.1,0.8,4.7c0.1,1.6,0,3.2-0.3,4.7c-0.3,1.3-0.6,2.5-1.1,3.8l-1-0.4
		c0.2-0.5,0-1.3-1-2.6c-1.3-1.6-3.4-2.2-3.4-2.2s0.2,2.2,1.5,3.8s2.1,1.8,2.7,1.3l0.1,0l1.1,0.4L88.2,36c-1.5,3.8-3.2,7.6-4.7,11.4
		c-0.1-0.2-0.2-0.4-0.3-0.6c-0.6-0.9-1.3-1.5-2.1-2.1c-0.8-0.6-1.6-1.1-2.2-1.9c-0.3-0.4-0.6-0.8-0.7-1.2c-0.1-0.5,0-1,0.2-1.4
		c-0.3,0.4-0.4,0.9-0.3,1.4c0.1,0.5,0.3,1,0.6,1.3c0.6,0.8,1.4,1.4,2.1,2c0.7,0.6,1.4,1.3,1.9,2.1c0.2,0.4,0.4,0.8,0.4,1.2
		c-0.7,1.8-1.4,3.7-2,5.6c-0.2,0.6-0.3,1.2-0.5,1.8l0-0.3c-0.9,0.1-1.8,0-2.7-0.2c-0.9-0.3-1.7-0.6-2.5-1.1c-1.6-1-2.9-2.4-3.9-4
		c-1-1.6-1.8-3.4-2.2-5.2c-0.4-1.8-0.3-3.8,0.4-5.5c0.3-0.9,0.9-1.7,1.6-2.2c0.7-0.6,1.5-1.1,2.4-1.5c0.8-0.4,1.7-0.9,2.5-1.5
		c0.4-0.3,0.8-0.6,1.1-0.9c0.3-0.3,0.7-0.7,1-1c0.6-0.7,1.1-1.6,1.5-2.5c0.3-0.9,0.5-1.8,0.6-2.8c0.1-1.9-0.2-3.8-0.5-5.7
		c0.3,1.9,0.6,3.8,0.4,5.7c-0.1,1-0.3,1.9-0.6,2.8c-0.4,0.9-0.9,1.7-1.5,2.4c-0.3,0.4-0.6,0.7-1,1c-0.3,0.3-0.7,0.6-1.1,0.9
		c-0.8,0.5-1.6,1-2.5,1.4c-0.8,0.4-1.7,0.9-2.5,1.5c-0.4,0.3-0.7,0.7-1,1.1c-0.3,0.4-0.5,0.8-0.7,1.3C68.9,40,68.7,41,68.6,42
		c-0.1,1,0,2,0.2,2.9c0.4,1.9,1.1,3.8,2.1,5.4c1,1.7,2.4,3.1,4,4.3c0.8,0.6,1.7,1,2.7,1.3c0.9,0.3,1.9,0.4,2.8,0.3
		c-0.6,2.4-1,5-1.1,7.5c-0.1,1-0.1,2.1-0.1,3.1c-1.2-0.5-2.4-1-3.6-1.7c-1.6-0.9-3-2-4.4-3.2c-2.7-2.4-5-5.4-6.9-8.5
		c-2-3.1-3.7-6.4-5.5-9.7c-0.4-0.7-0.7-1.4-1.1-2.1c0.4-0.3,0.8-0.8,1.1-1.2c0.3-0.5,0.6-1,0.8-1.5c0.4-1.1,0.5-2.1,0.6-3.2
		s0.3-2.1,0.6-3.1c0.2-0.5,0.4-1,0.7-1.4c0.3-0.4,0.7-0.8,1.1-1.1c-0.4,0.3-0.9,0.6-1.2,1.1c-0.3,0.4-0.6,0.9-0.8,1.4
		c-0.4,1-0.6,2.1-0.8,3.1c-0.2,1.1-0.4,2.1-0.8,3.1c-0.4,0.9-0.9,1.7-1.6,2.2c-1.3-2.4-2.6-4.8-4-7.1c3.4,6.1,5.9,12.7,9.3,18.8
		c-0.6,0.6-1.4,1.1-2.3,1.4c-1,0.4-2,0.6-3.1,0.7c-1.1,0.1-2.1,0-3.2-0.3c-0.5-0.1-1-0.3-1.5-0.6c-0.4-0.3-0.9-0.6-1.3-0.9
		s-0.9-0.6-1.4-0.9c-0.3-0.1-0.5-0.2-0.8-0.3l-0.8-0.3c-1-0.4-2.1-0.7-3.1-1c-2.1-0.6-4.2-1.3-6.2-2.1c2,0.9,4.1,1.6,6.1,2.3
		c1,0.3,2.1,0.7,3.1,1.1l0.8,0.3c0.3,0.1,0.5,0.2,0.7,0.3c0.5,0.3,0.9,0.6,1.3,0.9c0.4,0.3,0.9,0.7,1.3,1c0.5,0.3,1,0.5,1.5,0.7
		c1.1,0.3,2.2,0.4,3.3,0.4c1.1-0.1,2.2-0.3,3.3-0.6c0.9-0.3,1.7-0.8,2.4-1.4c0.1,0.2,0.2,0.4,0.4,0.6c1.9,3.3,4,6.4,6.7,9.2
		c1.4,1.3,2.9,2.6,4.5,3.6c1.5,1,3.1,1.8,4.7,2.4c0.1,1.5,0.3,3,0.5,4.4c0.1,0.3,0.1,0.7,0.2,1c-1.5-0.3-3-0.7-4.5-1.3
		c-1.8-0.7-3.6-1.6-5.3-2.4c-1.8-0.8-3.6-1.7-5.5-2.3c-1.9-0.6-4-1-6-1c-0.3,0-0.5,0-0.8,0c-0.2,0-0.5,0-0.7,0c-0.5,0-1,0-1.4-0.1
		c-1-0.1-1.9-0.3-2.8-0.5c-1.9-0.5-3.7-1.2-5.4-2.2c-1.7-1-3.2-2.2-4.6-3.6c-1.3-1.4-2.4-3.1-3-5c0.5,1.9,1.5,3.7,2.8,5.2
		s2.8,2.8,4.5,3.9c1.7,1.1,3.5,1.9,5.4,2.5c1,0.3,1.9,0.5,2.9,0.7c0.5,0.1,1,0.1,1.5,0.1c0.3,0,0.5,0,0.8,0c0.3,0,0.5,0,0.7,0
		c1.9,0.1,3.8,0.5,5.6,1.1c1.8,0.7,3.5,1.5,5.3,2.5c1.7,0.9,3.5,1.9,5.3,2.7c1.8,0.8,3.6,1.4,5.6,1.8c0.1,0.5,0.2,1,0.3,1.5
		c0.2,0.8,0.4,1.6,0.6,2.4l0.3,1.2l0.1,0.3l0.1,0.3l0.2,0.6c0.5,1.6,1,3.2,1.8,4.7c0.7,1.5,1.6,3.1,2.6,4.5c0.4,0.6,0.8,1.1,1.3,1.6
		l-0.5,0.1c-1.4,0.3-2.9,0.6-4.2,1c-1.6,0.4-3.2,1-4.8,1.5c-2-1.3-4.1-2.4-6.1-3.5c-2.1-1.2-4.2-2.5-5.9-4.2l-2.7-2.5
		c-0.9-0.8-1.9-1.7-2.9-2.4c-1-0.8-2.2-1.4-3.4-1.8c-1.2-0.4-2.5-0.7-3.8-0.8c-0.3,0-0.6-0.1-1-0.1s-0.6,0-1,0c-0.4,0-0.9,0-1.3,0
		l0-0.8l0.1-0.1c0.6-0.3,0.7-1.2-0.3-3c-1-1.8-3-2.7-3-2.7s-0.2,2.2,0.9,3.9c0.8,1.4,1.5,1.9,2,1.8l0,0.7h-0.2c-1.3,0-2.5,0.1-3.7,0
		s-2.4-0.3-3.5-0.8c-0.3-0.1-0.5-0.3-0.8-0.4l-0.4-0.3l-0.4-0.3c-0.5-0.3-1-0.7-1.5-1c-2-1.5-3.9-3.1-5.6-4.9
		c-1.7-1.8-3.3-3.7-4.6-5.9c1.2,2.2,2.7,4.2,4.4,6s3.5,3.6,5.5,5.1c0.5,0.4,1,0.8,1.5,1.1l0.4,0.3l0.4,0.3c0.3,0.2,0.6,0.3,0.8,0.5
		c1.1,0.6,2.4,0.9,3.7,1c1.3,0.1,2.5,0.1,3.8,0.1c0.6,0,1.2,0,1.8,0.1c0.3,0,0.6,0,0.9,0.1c0.3,0,0.6,0.1,0.9,0.1
		c0.5,0.1,1,0.1,1.5,0.3l-0.2,0.6c-0.5-0.3-1.3-0.2-2.7,0.9c-1.6,1.3-2.2,3.3-2.2,3.3s2.2-0.1,3.8-1.4c1.6-1.2,1.8-2,1.4-2.6
		l0.3-0.8c0.6,0.1,1.1,0.3,1.7,0.5c1.1,0.4,2.1,1.1,3.1,1.8c1,0.7,1.8,1.6,2.7,2.4l2.6,2.6c1.8,1.8,3.9,3.3,6.1,4.6
		c1.5,0.9,3,1.8,4.5,2.7c-0.3,0.1-0.5,0.1-0.7,0.2c-2.7,0.8-5.3,1.5-8.1,1.8c-1.3,0.2-2.7,0.3-4.1,0.2c-0.7,0-1.4-0.1-2-0.1
		l-0.5-0.1l-0.5-0.1c-0.3-0.1-0.7-0.1-1-0.2c-1.3-0.2-2.5-0.5-3.9-0.8c-0.4-0.2-0.8-0.3-1.1-0.5c-1.3-0.6-2.5-1.4-3.7-2.2
		c-2.4-1.7-4.7-3.5-7.2-5c-2.5-1.5-5-2.9-7.6-4.4c-2.5-1.5-5-3.1-7.2-4.9c2.2,1.9,4.7,3.5,7.1,5.1c2.5,1.5,5,3,7.4,4.6
		c2.5,1.5,4.7,3.4,7.1,5.1c0.9,0.6,1.8,1.3,2.8,1.8c-0.7-0.1-1.5-0.2-2.2-0.3c-1.5-0.1-3,0.1-4.4,0.5c-0.7,0.2-1.4,0.4-2,0.7
		c-0.3,0.1-0.7,0.3-1,0.4c-0.3,0.1-0.6,0.3-1,0.4c-2.5,1.1-5.3,1.8-8.1,2.3s-5.6,1-8.3,1.8c2.7-0.7,5.5-1,8.4-1.3
		c2.8-0.4,5.6-0.9,8.3-1.9c0.3-0.1,0.7-0.3,1-0.4c0.3-0.1,0.6-0.3,1-0.4c0.6-0.2,1.3-0.4,2-0.6c1.3-0.3,2.7-0.4,4-0.3
		c1.3,0.1,2.7,0.5,4,0.8c1.3,0.4,2.7,0.8,4.1,1.1c0.4,0.1,0.7,0.1,1.1,0.2l0.5,0.1l0.6,0.1c0.7,0.1,1.5,0.2,2.2,0.3
		c1.5,0.1,2.9,0.1,4.4,0c2.9-0.2,5.8-0.8,8.5-1.5c2.8-0.7,5.5-1.5,8.2-2.1c2.4-0.5,4.8-1,7.1-1.1c1,0.8,2,1.5,3,2.2
		c1.4,0.9,2.8,1.8,4.2,2.6c1.4,0.8,2.7,1.6,4,2.4c2.6,1.7,5.1,3.5,7.2,5.6c0.5,0.5,1,1,1.4,1.5c-0.3-0.1-0.5-0.2-0.7-0.3
		c-2.4-1.1-5-1.8-7.6-2.3c-2.6-0.4-5.2-0.6-7.8-0.3c-5.1,0.6-10,2-15,2.4c-0.6,0.1-1.3,0.1-1.9,0.1s-1.2-0.1-1.8-0.1
		c-1.2-0.1-2.5-0.3-3.8-0.5c-1.3-0.2-2.5-0.3-3.8-0.2c-0.6,0.1-1.3,0.1-1.9,0.3c-0.6,0.2-1.2,0.5-1.7,0.9c0.5-0.4,1.1-0.6,1.7-0.8
		c0.6-0.1,1.2-0.2,1.8-0.2c1.3,0,2.5,0.2,3.7,0.4c1.2,0.2,2.5,0.5,3.7,0.7c0.6,0.1,1.3,0.2,1.9,0.2c0.6,0,1.3,0,1.9,0
		c2.5-0.1,5.1-0.3,7.6-0.7c2.5-0.3,5-0.7,7.5-0.8c2.4-0.2,4.9,0.1,7.3,0.6c0.4,0.1,0.8,0.2,1.2,0.3c-0.6,0-1.3,0.1-1.9,0.3
		c-0.8,0.3-1.6,0.6-2.3,1.1c-0.7,0.5-1.3,1-1.8,1.7c-0.5,0.7-0.9,1.4-1.1,2.2c-0.2,0.6-0.3,1.3-0.3,1.9h0.7c0.1-0.6,0.2-1.1,0.4-1.6
		c0.3-0.7,0.6-1.3,1.1-1.9c0.5-0.6,1-1,1.7-1.4c0.6-0.4,1.3-0.6,2-0.8s1.4-0.2,2.1-0.1c1.4,0.1,2.9,0.7,4.2,1.3
		c1.4,0.6,2.7,1.4,4.1,2.2c0.7,0.4,1.4,0.8,2.1,1.1l0.4,0.4c0.3,0.3,0.5,0.5,0.7,0.8h6.3c-0.7-1.4-1.4-2.8-2.2-4.2
		C118.7,113.4,118.3,112.6,117.8,111.9 M125.2,37.9c0,0.9,0.1,1.8,0.2,2.7c-0.6-1.4-1.3-2.7-1.9-4.1c-1-2.2-1.9-4.4-2.5-6.6
		s-1.1-4.6-1-7c-0.2,2.4,0.1,4.8,0.8,7.1c0.6,2.3,1.4,4.6,2.3,6.8s1.8,4.4,2.7,6.6c0.3,0.6,0.5,1.2,0.7,1.8v-2.6
		c-0.1-0.4-0.2-0.8-0.3-1.1c-0.3-1.1-0.4-2.2-0.4-3.4c0-1.1,0-2.3,0.3-3.4c0.1-0.5,0.3-1,0.4-1.5V32c-0.4,0.7-0.7,1.5-0.9,2.3
		C125.3,35.5,125.2,36.7,125.2,37.9 M123.1,73.2c-0.1,0.2-0.2,0.4-0.2,0.7c-1.4-1.4-2.7-2.7-3.8-4.3l-0.5-0.6
		c-0.1-0.2-0.3-0.4-0.4-0.6c-0.3-0.4-0.6-0.8-0.8-1.2c-0.5-0.8-1.1-1.7-1.5-2.6c-1.9-3.5-3.1-7.4-3.2-11.4c0-1,0-2,0.1-3
		c0.1-0.5,0.1-1,0.2-1.5l0.3-1.5c0.4-2,1-4,1.5-6.1c0.5-2,1-4.2,1.2-6.3c0.1-1.1,0.1-2.2-0.1-3.3c-0.1-1.1-0.4-2.2-0.7-3.2
		c-0.1-0.2-0.1-0.3-0.2-0.5c0.4-0.4,0.8-0.8,1.1-1.3c0.4-0.6,0.6-1.2,0.9-1.8c0.4-1.3,0.6-2.5,0.9-3.8c0.3-1.3,0.5-2.5,1-3.7
		c0.3-0.6,0.6-1.1,1.1-1.5c0.5-0.4,1-0.8,1.7-0.9c-0.6,0.1-1.2,0.4-1.7,0.8c-0.5,0.4-0.9,1-1.2,1.5c-0.6,1.2-0.9,2.4-1.2,3.7
		s-0.6,2.5-1.1,3.7c-0.4,1-1,1.9-1.7,2.5c-0.3-0.6-0.5-1.2-0.8-1.8c-0.5-1-1-1.9-1.5-2.8c-1-1.8-2.2-3.6-3.5-5.3
		c1.2,1.7,2.2,3.6,3.1,5.5c0.4,1,0.9,1.9,1.3,2.9c0.4,1,0.8,1.9,1,2.9c0.5,2,0.6,4.1,0.3,6c-0.1,0.3-0.1,0.6-0.1,0.8
		c-0.4-1.8-1.1-3.6-2-5.2c-1.3-2.3-3-4.4-5.2-6c-1-0.8-2.1-1.6-3-2.5c-0.9-0.9-1.7-2-2.2-3.2c-0.5-1.2-0.7-2.5-0.8-3.8
		c-0.1-1.3,0-2.6,0.2-3.9c-0.2,1.3-0.3,2.6-0.3,3.9c0,1.3,0.2,2.6,0.7,3.9c0.5,1.2,1.3,2.3,2.2,3.3c0.9,1,1.9,1.8,3,2.6
		c2,1.6,3.7,3.6,4.9,5.9c1.1,2.1,1.7,4.3,2.1,6.6c-0.3,1.1-0.7,2.3-1.1,3.4c-0.6,1.8-1.2,3.5-1.7,5.4c-0.2,0.1-0.4,0.1-0.5,0.2
		c-0.7,0.2-1.4,0.4-2.1,0.4c-1.5,0-2.9-0.3-4.3-0.8c-1.4-0.5-2.7-1.3-3.7-2.4c-1.1-1-1.9-2.4-2.2-3.8c0.2,1.5,1,2.9,2,3.9
		c1,1.1,2.3,2,3.7,2.5c1.4,0.6,2.9,1,4.4,1c0.8,0,1.6-0.1,2.3-0.3l0.2-0.1l-0.4,1.5c-0.1,0.5-0.3,1.1-0.3,1.6
		c-0.2,1.1-0.3,2.2-0.4,3.3c-0.1,2.2,0.1,4.5,0.6,6.6c0.4,2,1,3.9,1.8,5.7c-1.1,0.7-2.1,1.3-3.3,1.8c-0.7,0.3-1.3,0.5-2,0.6
		s-1.5,0-2.1-0.4c0.3,0.2,0.6,0.4,1,0.5c0.4,0.1,0.7,0.1,1.1,0.1c0.7,0,1.5-0.2,2.2-0.4c1.2-0.4,2.3-0.9,3.4-1.5
		c0.4,1,0.9,2,1.5,2.9c0.3,0.5,0.6,1,0.8,1.4c0.1,0.2,0.3,0.5,0.4,0.7l0.1,0.2l0.1,0.1l0,0v0l0,0l0.2,0.4c1.2,1.9,2.6,3.6,4.1,5.3
		c1.4,1.6,2.9,3.2,4.3,4.7c0.8,1,1.7,1.9,2.4,2.9v-7.3c-0.6-0.6-1.2-1.1-1.8-1.7c0.2-1.6,0.9-3.2,1.8-4.8l0.1-0.1v-3.8
		c-0.5,1-1.1,2-1.7,3.1C124.1,70.9,123.5,72,123.1,73.2 M54.3,117.4l-0.5-0.2l-0.3-0.1l-0.3-0.1c-0.4-0.1-0.8-0.2-1.2-0.3
		c-0.4-0.4-0.7-0.7-1.1-1c-0.7-0.6-1.5-1.2-2.2-1.9c-0.3-0.3-0.6-0.7-0.9-1.1c-0.3-0.4-0.5-0.8-0.6-1.3c-0.3-0.9-0.3-1.9-0.3-2.8
		c-0.1,1-0.1,1.9,0.1,2.9c0.1,0.5,0.3,0.9,0.6,1.4c0.3,0.4,0.6,0.8,0.9,1.2c0.6,0.7,1.4,1.4,2.1,2l0.3,0.3c-1.2-0.3-2.4-0.7-3.6-1
		c-1.3-0.3-2.7-0.6-4.1-0.7c-1.4-0.1-2.8-0.1-4.2,0.1c-0.3,0.1-0.7,0.1-1,0.2c-0.3,0.1-0.7,0.2-1,0.3c-0.7,0.2-1.3,0.5-1.9,0.9
		c-1,0.6-2,1.3-2.9,2h0.6c0.8-0.6,1.6-1.1,2.5-1.5c0.6-0.3,1.2-0.6,1.8-0.8c0.3-0.1,0.6-0.2,1-0.3c0.3-0.1,0.7-0.1,1-0.2
		c1.3-0.2,2.7-0.1,4,0.1c1.3,0.2,2.7,0.5,3.9,0.9c1.3,0.4,2.6,0.8,3.9,1.3c0.5,0.2,1,0.3,1.5,0.5l0.1,0.1h0.1l0,0l0.1,0H57
		c-0.5-0.2-1.1-0.3-1.6-0.5L54.3,117.4z"/>
	<path class="st0" d="M25.8,141.6c-1.8,0-3.2-0.1-4.1-0.4c-0.9-0.3-1.7-0.8-2.4-1.6c-0.6-0.7-1.1-1.4-1.4-2.3
		c-0.3-0.8-0.4-2-0.4-3.6v-11.6h4.1v11.4c0,1.1,0.1,1.9,0.1,2.4c0.1,0.5,0.3,0.8,0.5,1.1c0.4,0.4,0.9,0.8,1.4,1
		c0.6,0.2,1.3,0.3,2.4,0.3H31v3.2H25.8z M32.7,122v11.8c0,1.4,0.1,2.5,0.3,3.4c0.2,0.8,0.4,1.4,0.8,1.9c0.8,0.9,1.8,1.6,2.9,2
		c1.2,0.4,2.7,0.6,4.4,0.6c1.8,0,3.2-0.2,4.4-0.6c1.2-0.4,2.2-1.1,2.9-2c0.4-0.5,0.7-1.1,0.9-2c0.2-0.8,0.3-1.9,0.3-3.3V122h-4.1
		v11.7c0,1.8-0.3,3.1-1,3.8c-0.6,0.7-1.8,1.1-3.4,1.1s-2.7-0.4-3.4-1.1c-0.7-0.7-1-2-1-3.8V122L32.7,122L32.7,122z M53.6,141.6h4.2
		l-0.4-15.3l5.2,15.3h4.3l5-15.2l-0.3,15.2h4V122h-6l-5,15l-5-15h-6C53.6,122,53.6,141.6,53.6,141.6z M83.9,122h-4.3v19.5h4.3V122z"
		/>
	<path class="st2" d="M96.4,138.6c-1.8,0-3.1-0.6-4-1.7c-0.8-1.1-1.3-2.9-1.3-5.3c0-2.2,0.4-3.9,1.3-5c0.9-1.1,2.2-1.7,3.9-1.7
		c1.8,0,3.1,0.6,4,1.7c0.9,1.1,1.3,2.8,1.3,5.1c0,2.3-0.4,4-1.3,5.1C99.5,138,98.2,138.6,96.4,138.6 M96.4,121.7
		c-3.3,0-5.7,0.8-7.3,2.5c-1.6,1.6-2.4,4.1-2.4,7.5c0,3.6,0.8,6.2,2.4,7.9c1.6,1.7,4,2.5,7.4,2.5c3.3,0,5.7-0.8,7.3-2.5
		c1.6-1.7,2.4-4.2,2.4-7.7s-0.8-6-2.4-7.6C102.2,122.5,99.7,121.7,96.4,121.7 M126.1,122h-4.2l0.2,14l-8-14H109v19.5h4.2l-0.2-14.8
		l8.4,14.8h4.8L126.1,122L126.1,122z"/>
</g>
</svg>
