<svg width="144" height="144" viewBox="0 0 144 144" fill="none" xmlns="http://www.w3.org/2000/svg">
<g clip-path="url(#clip0_40_165)">
<path d="M111.744 86.5934C111.71 86.4576 111.676 86.3217 111.676 86.1859C111.642 86.118 111.642 86.0161 111.608 85.9482C111.54 85.7784 111.472 85.5747 111.405 85.4049C111.235 85.0654 110.997 84.7258 110.691 84.4541C110.386 84.1825 110.046 83.9788 109.707 83.8769C109.367 83.7411 109.028 83.6732 108.722 83.6732H108.484C108.654 82.0093 108.043 80.8208 107.669 80.2775C107.703 80.2436 107.703 80.2096 107.737 80.2096C108.077 79.7682 108.382 79.3607 108.62 78.9533L108.654 78.8853C108.858 78.5118 108.96 78.1723 109.028 77.8327C109.062 77.5611 109.096 77.2894 109.096 77.0857V76.8819V76.7461C109.096 76.6443 109.062 76.5424 109.062 76.4405C108.994 75.9312 108.79 75.286 108.382 74.6408C108.179 74.3013 107.907 73.9617 107.568 73.6901C107.228 73.3845 106.82 73.1468 106.345 72.943C106.311 72.943 106.277 72.9091 106.243 72.9091C105.191 71.6867 104.036 70.8038 103.017 70.1247C102.508 69.7851 101.999 69.5135 101.591 69.2758C101.184 69.0381 100.844 68.8683 100.64 68.7664C100.199 68.5288 99.8934 68.3929 99.7237 68.325C99.3841 68.1552 99.1124 68.0534 98.9427 67.9515C98.8068 67.8836 98.7389 67.8157 98.7389 67.8157C98.7389 67.8157 98.705 67.7817 98.705 67.7138C98.671 67.6119 98.6371 67.4761 98.6031 67.2724C98.5352 66.9328 98.5012 66.4235 98.4673 65.7444C98.3994 64.6578 98.3315 63.1977 98.1956 61.1942C98.1617 60.5491 98.0938 59.9718 97.9919 59.3946C97.8561 58.5117 97.6184 57.6968 97.3467 56.9837C97.2788 56.8139 97.2109 56.6441 97.143 56.5083C97.0751 56.4064 97.0411 56.3046 97.0072 56.2367C96.9393 56.1348 96.9053 56.0329 96.8374 55.9311C96.8034 55.8971 96.7695 55.8292 96.7355 55.7273C96.6336 55.5915 96.5318 55.4217 96.4299 55.2519L96.396 55.218L96.328 55.1501L96.2941 55.0822C96.0904 54.8105 95.8527 54.5728 95.615 54.3351C95.4452 53.8937 95.2075 53.2485 94.8 52.5015C94.4605 51.8563 94.019 51.1433 93.4418 50.4641C93.238 50.2264 93.0004 49.9887 92.7627 49.785L92.8306 49.7171C92.9324 49.6152 94.9698 46.8308 96.4299 43.3673C99.1464 36.9157 97.5505 33.3842 95.7168 31.5506L95.6489 31.4827L95.581 31.4487C93.8153 29.7509 91.6082 29.0039 89.0275 29.0039C83.6624 29.0039 77.9918 32.3656 76.4977 33.2824L73.2379 30.498C72.9663 30.2603 72.6267 30.0226 72.3211 29.8528C71.9816 29.683 71.642 29.5132 71.2685 29.4114C70.5554 29.1737 69.7744 29.0718 68.9595 29.0718C67.3296 29.0718 65.5639 29.4793 63.6623 30.2263C60.844 31.3469 57.754 33.2145 54.5621 35.6932C51.3702 38.172 48.1444 41.296 45.0544 44.8953C41.2853 49.3096 38.2971 53.8258 36.2258 58.0363C35.2071 60.1416 34.3922 62.145 33.8489 64.0466C33.3056 65.9141 33 67.6799 33 69.2758C33 70.4303 33.1698 71.5169 33.5093 72.4677C33.6791 72.8751 33.8489 73.2826 34.0866 73.6561C34.3922 74.1315 34.7657 74.5729 35.1732 74.9464L38.5688 77.6969L38.9423 78.0025V78.0364C38.9084 78.1044 38.8744 78.1723 38.8744 78.2402L38.7725 78.5458C38.7386 78.6137 38.7386 78.6816 38.7046 78.7495L38.6027 79.0551C38.5688 79.123 38.5688 79.191 38.5348 79.2589L38.433 79.5645C38.399 79.6324 38.399 79.7003 38.3651 79.7682C38.3311 79.8701 38.3311 79.9719 38.2971 80.1078C38.2971 80.1757 38.2632 80.2436 38.2632 80.3115C38.2292 80.4134 38.2292 80.5492 38.1953 80.6511V80.7529C38.1953 80.7869 38.1953 80.8208 38.1613 80.8888C38.1613 80.9906 38.1274 81.1264 38.1274 81.2283C38.1274 81.2962 38.0934 81.3641 38.0934 81.4321V82.8582C38.0934 82.994 38.0934 83.1638 38.1274 83.2996V83.6732C38.1274 83.775 38.1613 83.8769 38.1613 83.9788C38.1613 84.0467 38.1613 84.1146 38.1953 84.1825V84.2844C38.1953 84.3523 38.2292 84.4202 38.2292 84.4881C38.2292 84.556 38.2632 84.6239 38.2632 84.6918C38.2632 84.7597 38.2971 84.7937 38.2971 84.8616C38.2971 84.8956 38.3311 84.9295 38.3311 84.9635C38.3311 85.0314 38.3651 85.0993 38.3651 85.1672C38.3651 85.2351 38.399 85.337 38.433 85.4389C38.433 85.4728 38.433 85.5068 38.4669 85.5407C38.5009 85.6086 38.5009 85.7105 38.5348 85.7784C38.5688 85.8463 38.5688 85.9143 38.6027 86.0161C38.6027 86.0501 38.6367 86.084 38.6367 86.118C38.6367 86.1519 38.6707 86.2199 38.6707 86.2538L38.7046 86.3217C38.7386 86.3896 38.7386 86.4575 38.8065 86.5594C38.8065 86.5934 38.8404 86.5934 38.8404 86.6273C38.8744 86.6952 38.8744 86.7632 38.9084 86.7971L38.9423 86.865C38.9423 86.899 38.9763 86.899 38.9763 86.9329L39.0102 87.0008L39.0442 87.0688L39.0781 87.1027C39.0781 87.1367 39.1121 87.1367 39.1121 87.1706L39.146 87.2385C39.18 87.3065 39.18 87.3404 39.214 87.3744C39.2479 87.4423 39.2819 87.5102 39.3158 87.6121V87.646C39.3158 87.68 39.3498 87.68 39.3498 87.7139C39.3837 87.8158 39.4177 87.8837 39.4517 87.9177C39.4856 87.9856 39.5196 88.0535 39.5875 88.1554L39.6214 88.1893C39.6554 88.2572 39.6893 88.2912 39.7233 88.3591L39.7573 88.393C39.7573 88.427 39.7912 88.461 39.8252 88.4949C39.8591 88.5289 39.8591 88.5628 39.8931 88.6307L39.927 88.6647C39.961 88.6986 39.9949 88.7666 39.9949 88.8005C40.0289 88.8345 40.0289 88.8684 40.0629 88.9024C40.0968 88.9703 40.1308 89.0382 40.1987 89.1061L40.2326 89.1401C40.2666 89.174 40.2666 89.208 40.3006 89.2419C40.3345 89.2759 40.3685 89.3099 40.3685 89.3438C40.4024 89.3778 40.4364 89.4457 40.5043 89.5476L40.5382 89.5815C40.5722 89.6155 40.5722 89.6494 40.6062 89.6834C40.6401 89.7173 40.6741 89.7852 40.708 89.8192C40.742 89.8532 40.7759 89.9211 40.8438 89.989L40.8778 90.0229L40.9797 90.1248C41.0136 90.1588 41.0476 90.2267 41.0815 90.2606C41.1155 90.2946 41.1495 90.3625 41.2174 90.4304L41.3192 90.5323L41.4551 90.6681L41.5909 90.8039L41.6928 90.9058L41.8286 91.0416L41.9304 91.1435L41.9644 91.1774C42.0323 91.2454 42.1002 91.2793 42.1681 91.3472L42.236 91.4151L42.3379 91.517C42.4058 91.5849 42.4737 91.6528 42.5417 91.6868C42.5756 91.7207 42.6096 91.7207 42.6435 91.7547C42.6435 91.7547 42.6775 91.7886 42.7454 91.8226L42.7793 91.8566C42.8812 91.9245 42.9491 91.9924 43.051 92.0603H43.0849C43.1189 92.0603 43.1529 92.0943 43.1868 92.1282C43.2887 92.1961 43.4245 92.298 43.5264 92.3659L43.5943 92.3999L43.6282 92.4338L43.6962 92.4678C43.798 92.5357 43.8999 92.5696 43.9678 92.6375H44.0018C44.0357 92.6715 44.0697 92.6715 44.0697 92.6715H44.1036C44.1376 92.6715 44.1715 92.7055 44.1715 92.7055C44.2395 92.7394 44.3413 92.8073 44.4092 92.8413L44.4771 92.8752L44.5451 92.9092L44.579 92.9432C44.6469 92.9771 44.7488 93.0111 44.8167 93.079C44.8507 93.1129 44.8846 93.1129 44.9525 93.1469L45.0204 93.1808L45.0544 93.2148H45.0884C45.2242 93.2827 45.326 93.3167 45.4619 93.3846L45.5298 93.4185C45.6996 93.4865 45.8354 93.5204 45.9712 93.5883H46.0052L46.0731 93.6223C46.141 93.6562 46.2089 93.6562 46.2768 93.6902C46.3108 93.6902 46.3447 93.7241 46.3787 93.7241C46.4126 93.7241 46.4806 93.7581 46.5145 93.7581H46.5824C46.6503 93.7921 46.7182 93.7921 46.7862 93.826H46.8201C46.888 93.86 46.9899 93.86 47.0578 93.8939H47.1597C47.1936 93.8939 47.2276 93.8939 47.2615 93.9279H47.2955C47.3974 93.9618 47.5332 93.9618 47.6351 93.9958H47.669C47.8388 94.0297 48.0086 94.0637 48.1784 94.0637H48.2123C48.3821 94.0977 48.5179 94.0977 48.6537 94.0977H48.7896C48.9254 94.0977 49.0612 94.1316 49.231 94.1316H49.6385C49.6724 94.1656 49.6724 94.1995 49.6724 94.2335C49.978 94.8447 50.3176 95.4219 50.6571 96.0332C56.0222 106.56 68.1106 113.758 80.878 113.758C93.6455 113.758 106.039 103.741 110.08 91.7547C110.25 91.2793 110.42 90.8379 110.556 90.3965C111.031 89.7852 111.371 89.1401 111.574 88.4949C111.846 87.9856 111.88 87.2046 111.744 86.5934ZM106.549 106.695C106.277 106.967 105.938 107.103 105.53 107.103C105.123 107.103 104.783 106.967 104.511 106.695C104.24 106.424 104.104 106.084 104.104 105.677C104.104 105.269 104.24 104.896 104.545 104.624C104.817 104.352 105.157 104.251 105.53 104.251C105.938 104.251 106.277 104.386 106.549 104.658C106.82 104.93 106.956 105.269 106.956 105.677C106.99 106.084 106.854 106.424 106.549 106.695ZM104.715 104.828C104.477 105.065 104.376 105.337 104.376 105.643C104.376 105.982 104.477 106.254 104.715 106.492C104.953 106.729 105.225 106.831 105.564 106.831C105.904 106.831 106.175 106.729 106.413 106.492C106.651 106.254 106.753 105.982 106.753 105.643C106.753 105.337 106.651 105.032 106.413 104.828C106.175 104.59 105.904 104.454 105.564 104.454C105.225 104.488 104.953 104.59 104.715 104.828ZM106.006 106.39C105.87 106.492 105.734 106.526 105.598 106.526C105.394 106.526 105.191 106.458 105.021 106.288C104.851 106.118 104.783 105.914 104.783 105.677C104.783 105.439 104.851 105.235 104.987 105.065C105.123 104.896 105.326 104.828 105.564 104.828C105.7 104.828 105.836 104.862 105.972 104.93C106.141 105.032 106.277 105.201 106.311 105.473H105.938C105.904 105.371 105.87 105.269 105.802 105.235C105.734 105.201 105.666 105.167 105.598 105.167C105.496 105.167 105.394 105.201 105.326 105.303C105.258 105.405 105.225 105.541 105.225 105.711C105.225 105.88 105.258 106.016 105.326 106.084C105.394 106.152 105.496 106.22 105.598 106.22C105.7 106.22 105.768 106.186 105.836 106.152L105.938 105.948H106.277C106.243 106.152 106.141 106.288 106.006 106.39Z" fill="#664F44"/>
<path d="M109.775 87.0694C109.775 87.0694 109.775 86.5601 109.47 86.1186L109.402 86.0507L109.368 86.0168L109.266 85.9149C109.198 85.847 109.096 85.813 108.994 85.7451C108.926 85.7112 108.892 85.7112 108.824 85.6772C108.655 85.6093 108.485 85.5753 108.247 85.5753C108.077 85.5753 107.908 85.5753 107.704 85.6093C107.636 85.6093 107.534 85.6432 107.466 85.6432H107.432C107.432 85.6432 107.432 85.6772 107.466 85.7112C107.466 85.7451 107.5 85.7791 107.534 85.847C107.534 85.8809 107.568 85.8809 107.568 85.9149C107.602 86.0168 107.67 86.1526 107.704 86.3224C107.704 86.3224 107.704 86.3563 107.67 86.4242V86.4582C107.602 86.6959 107.398 87.2731 106.889 88.0541C106.787 88.1899 106.719 88.3258 106.583 88.4616C105.123 90.3971 101.762 93.3513 94.2573 95.6942C91.7106 96.3734 89.2997 96.7129 87.2284 96.7129C84.1384 96.7129 81.7615 96.0338 80.539 94.8453L80.2334 94.5397C80.1655 94.4718 80.0976 94.3699 80.0297 94.302C79.9957 94.2681 79.9957 94.2341 79.9618 94.2002C79.4185 93.4531 79.1129 92.6042 79.011 91.7553C78.9091 90.7366 79.0789 89.684 79.5543 88.8691C79.9278 88.1899 80.4372 87.6806 81.1163 87.375C81.4558 87.2392 81.7954 87.1373 82.1689 87.1034H83.663C85.1231 87.1034 87.4321 87.0354 90.1826 86.5261C95.1741 85.5753 101.626 83.1644 106.991 76.9844V76.9505C106.957 76.5091 106.787 75.6941 106.142 75.1169C106.04 75.015 105.904 74.9131 105.734 74.8452C105.667 74.8113 105.565 74.7433 105.463 74.7094C105.361 74.6754 105.293 74.6415 105.191 74.6075C105.089 74.5396 104.953 74.5057 104.886 74.4377V74.4038C104.852 74.3359 104.784 74.3019 104.75 74.234C102.882 72.0608 100.573 70.9403 99.6223 70.4309C99.1809 70.1932 98.9093 70.0914 98.9093 70.0914C96.9059 69.1746 96.6003 68.835 96.3626 65.745C96.2947 64.6244 96.2267 63.1643 96.0909 61.1609C96.0909 60.8893 96.057 60.6516 96.023 60.4139C96.023 60.346 96.023 60.312 95.989 60.2441C95.9551 60.0064 95.9211 59.8027 95.8872 59.5989V59.4631C95.8532 59.2933 95.8193 59.1236 95.7853 58.9877C95.7853 58.9198 95.7514 58.8519 95.7514 58.784C95.7174 58.6142 95.6834 58.4444 95.6155 58.3086C95.5816 58.2407 95.5816 58.1388 95.5476 58.0709C95.5137 57.9691 95.4797 57.9011 95.4457 57.8332C95.4118 57.7653 95.3778 57.6635 95.3439 57.5955C95.3099 57.4937 95.276 57.4258 95.242 57.3239C95.242 57.2899 95.2081 57.256 95.2081 57.222C95.2081 57.1881 95.1741 57.1541 95.1741 57.1202V57.0862L95.1401 56.9843L95.0383 56.7806V56.7466L95.0043 56.6787L94.9704 56.6108C94.9025 56.475 94.8345 56.3731 94.7327 56.2713L94.6648 56.2033C94.5629 56.1015 94.495 55.9996 94.3931 55.8977L94.3592 55.8638L94.3252 55.8298C94.2573 55.7619 94.1894 55.694 94.1554 55.6261L94.0875 55.5582C94.0196 55.4903 93.9177 55.4224 93.8498 55.3544V55.1847L93.8159 55.1167V55.0828C93.7819 54.947 93.714 54.8111 93.6461 54.6074C93.6121 54.5735 93.6121 54.5055 93.5782 54.4716V54.4376C93.5442 54.3697 93.5442 54.3358 93.5103 54.2678C93.4423 54.132 93.4084 53.9962 93.3405 53.8604C93.3065 53.8264 93.3065 53.7585 93.2726 53.7246C93.2386 53.6227 93.1707 53.5208 93.1367 53.4189C93.1028 53.351 93.0688 53.3171 93.0349 53.2492C93.0009 53.1473 92.933 53.0454 92.8651 52.9775L92.7632 52.7738C92.6953 52.6719 92.6614 52.57 92.5934 52.5021C92.5595 52.4342 92.5255 52.3663 92.4576 52.2984C92.3897 52.1965 92.3218 52.0947 92.2539 52.0267C92.2199 51.9588 92.152 51.8909 92.1181 51.857C92.0501 51.7551 91.9483 51.6532 91.8804 51.5514L91.7445 51.4155C91.7106 51.3816 91.6766 51.3476 91.6087 51.3137C91.5068 51.2118 91.405 51.1099 91.3031 51.042L91.2352 51.0081C91.0994 50.9062 90.9635 50.7704 90.7938 50.7025L90.7598 50.6685C90.6919 50.6345 90.624 50.6006 90.5561 50.5327H90.5221C90.4542 50.4987 90.3863 50.4648 90.3523 50.4308H90.3184C90.2505 50.3969 90.1486 50.3629 89.9788 50.295C89.9109 50.295 89.877 50.261 89.809 50.261C89.5034 50.1931 89.096 50.0913 88.6206 50.0233H88.5187C88.1112 49.9554 87.6698 49.9215 87.2284 49.9215H86.4134C86.0399 49.9215 85.7004 49.9554 85.3268 49.9894H85.2929C84.8175 50.0573 84.3421 50.1592 83.9346 50.295C84.0026 50.0913 84.2742 49.8875 84.5459 49.6838C84.8854 49.4461 85.225 49.2424 85.225 49.2424C85.0212 49.2763 84.8175 49.3442 84.6138 49.4121C84.5459 49.4461 84.4779 49.4461 84.41 49.48C84.3761 49.48 84.3082 49.514 84.2742 49.514H84.2402C84.2063 49.514 84.1723 49.548 84.1384 49.548C83.1197 49.8875 82.1689 50.3969 81.6256 50.7025L81.4219 50.8043L81.3879 50.8383C81.32 50.8383 81.2861 50.8722 81.2182 50.8722C81.5238 50.0573 82.101 49.5819 82.5424 49.2763C82.6104 49.2424 82.6783 49.1744 82.7462 49.1405C82.7801 49.1405 82.7801 49.1065 82.8141 49.1065C82.882 49.0726 82.916 49.0386 82.9839 49.0386C83.0857 49.0047 83.1537 48.9707 83.1537 48.9707C83.1197 48.9707 83.0518 49.0047 83.0178 49.0047C82.9839 49.0047 82.9499 49.0047 82.882 49.0386C82.8141 49.0386 82.7462 49.0726 82.7122 49.0726C82.6783 49.0726 82.6443 49.0726 82.6104 49.1065C81.4559 49.3782 80.4711 49.8875 79.6562 50.4987C79.0789 50.9062 78.6035 51.3476 78.1961 51.7891C78.0942 51.823 77.9584 51.857 77.8226 51.9249C76.6001 52.3663 75.174 52.8757 73.7139 53.5548C73.1706 53.7925 72.6273 54.0641 72.084 54.3358C71.6425 54.5395 71.2351 54.7772 70.7936 55.0149C70.488 55.1847 70.1824 55.3544 69.8768 55.5582C67.6697 56.8825 65.5305 58.5803 63.8327 60.6516C63.7647 60.7195 63.6968 60.7874 63.6629 60.8893C63.5271 61.093 63.3912 61.2628 63.2214 61.4665C63.1535 61.5344 63.1196 61.6363 63.0517 61.7042L62.8479 62.0098C62.5423 62.4852 62.2367 62.9606 61.999 63.4699C61.7953 63.8435 61.6255 64.217 61.4557 64.6244L61.4218 64.6584C61.0822 65.4733 60.7766 66.3562 60.5729 67.273C60.471 67.7484 60.3691 68.2238 60.3012 68.6992C60.2673 68.835 60.2673 68.9708 60.2333 69.0727V69.1406C60.1654 69.6839 60.1314 70.2272 60.1314 70.7705V71.11C60.1314 71.3817 60.1314 71.6533 60.1654 71.959C60.1654 72.2306 60.1994 72.4683 60.1994 72.7399V72.8079C60.1994 72.9437 60.2333 73.0795 60.2333 73.2153C60.2333 73.3511 60.2673 73.5209 60.3012 73.6568V73.7586C60.3352 74.0642 60.3691 74.3698 60.4371 74.6754V74.7094C60.505 75.015 60.5389 75.3206 60.6068 75.6262C60.6408 75.762 60.6747 75.8979 60.6747 75.9997C60.6747 76.0337 60.6747 76.0676 60.7087 76.1016C60.7087 76.1695 60.7427 76.2374 60.7766 76.3053C60.8445 76.6449 60.9464 76.9844 61.0483 77.358C61.0822 77.4598 61.1162 77.5617 61.1162 77.6636C61.218 77.9692 61.286 78.2748 61.3878 78.5804C61.3878 78.5804 61.286 78.1729 61.252 77.5617V77.1203C61.252 76.7807 61.286 76.3732 61.3539 75.9658C61.3878 75.8639 61.3878 75.762 61.4218 75.6602C61.4218 75.6262 61.4557 75.5583 61.4557 75.5243C61.5236 75.3206 61.5576 75.1508 61.6595 74.9471C61.6934 75.0829 61.7274 75.1848 61.7953 75.3206V75.4225C61.7953 75.4904 61.8292 75.5922 61.8292 75.6602C61.8632 75.8639 61.8632 76.0676 61.8972 76.3053C61.9311 76.543 61.9651 76.8147 61.999 77.0863C62.1688 78.2408 62.4405 79.5991 62.8479 80.7536C62.8479 80.7536 62.6442 78.6143 62.9498 78.3087C62.9498 78.3087 64.0703 82.1797 64.8513 83.6059C64.9532 83.7757 65.0551 83.9454 65.123 84.0133L65.0551 83.6059L64.6816 81.3987V81.161C65.2249 82.0099 65.8361 82.8588 66.5491 83.7417C66.7529 83.9794 66.9227 84.2171 67.1264 84.4887C66.1417 85.5753 65.3267 87.0694 64.7834 88.7672C64.7155 89.0388 64.6136 89.3105 64.5457 89.6161C64.5118 89.7859 64.4778 89.9557 64.4439 90.0915C64.4439 90.1594 64.4099 90.1933 64.4099 90.2613C64.376 90.3631 64.376 90.499 64.342 90.6008C64.342 90.6687 64.308 90.7366 64.308 90.7706C64.308 90.8725 64.2741 91.0083 64.2741 91.1102C64.2741 91.1781 64.2741 91.212 64.2401 91.2799C64.2401 91.4497 64.2062 91.6195 64.2062 91.7893C64.2062 91.9591 64.2062 92.1288 64.1722 92.2986V93.0457C64.1722 93.1815 64.1722 93.2834 64.2062 93.4192V93.589C64.2062 93.7587 64.2401 93.9625 64.2741 94.1323V94.1662C64.308 94.302 64.308 94.4379 64.342 94.5737C64.376 94.7095 64.376 94.8453 64.4099 95.0151V95.117C64.4439 95.2868 64.4778 95.4565 64.5457 95.6263C64.5457 95.6942 64.5797 95.7282 64.5797 95.7961C64.6136 95.898 64.6476 96.0338 64.6816 96.1696C64.7155 96.2375 64.7155 96.3054 64.7495 96.3734C64.7834 96.4752 64.8174 96.5771 64.8513 96.7129C64.8853 96.7808 64.8853 96.8487 64.9193 96.9167C64.9532 97.0185 64.9872 97.1204 65.0551 97.2223C65.089 97.2902 65.123 97.3581 65.123 97.426C65.1569 97.5279 65.2249 97.6297 65.2588 97.7316L65.3607 97.9353C65.3946 98.0372 65.4625 98.1391 65.5305 98.2749L65.6323 98.4786C65.7002 98.6145 65.7682 98.7163 65.8361 98.8521C65.87 98.9201 65.904 98.954 65.9379 99.0219C66.1417 99.3615 66.3454 99.701 66.5831 100.075C66.6171 100.142 66.651 100.176 66.685 100.244C66.7868 100.38 66.8547 100.482 66.9566 100.618C66.9906 100.686 67.0585 100.754 67.0924 100.822C67.1604 100.923 67.2622 101.025 67.3641 101.161C67.432 101.229 67.466 101.297 67.5339 101.365C67.6357 101.467 67.7036 101.569 67.8055 101.67C67.8734 101.738 67.9413 101.806 67.9753 101.874C68.0772 101.976 68.179 102.078 68.2469 102.18L68.4507 102.384L68.7563 102.689L68.96 102.893C69.0619 102.995 69.1977 103.131 69.3335 103.232L69.5033 103.402C69.6731 103.572 69.8768 103.708 70.0806 103.878C70.0806 103.878 69.9447 103.742 69.775 103.504C69.741 103.47 69.7071 103.402 69.6731 103.368C69.6391 103.3 69.6052 103.266 69.5712 103.199C69.5373 103.131 69.5033 103.063 69.4354 102.995C69.0958 102.418 68.7563 101.569 68.6544 100.618C68.7563 100.754 68.8921 100.856 68.994 100.957C69.1298 101.195 69.3335 101.467 69.5373 101.772C69.6052 101.874 69.6731 101.976 69.775 102.078C70.0806 102.519 70.4541 102.995 70.8276 103.504C71.303 104.081 71.8123 104.659 72.3217 105.168C72.3217 105.168 71.6765 104.149 71.4049 103.47C71.3369 103.266 71.303 103.097 71.303 102.995C71.3369 103.029 71.4049 103.063 71.4388 103.097C71.4728 103.131 71.5407 103.165 71.5746 103.199C71.6765 103.3 71.7784 103.436 71.9142 103.572L71.9821 103.64L72.1858 103.844L72.4575 104.115C73.3064 104.964 74.393 106.017 75.174 106.594C75.4456 106.798 75.6494 106.9 75.7852 106.968L74.5628 105.338C77.0076 106.866 86.5153 108.054 95.276 104.319C96.3286 103.878 97.3812 103.334 98.3999 102.757C99.0111 102.384 99.6223 102.01 100.234 101.569L100.335 101.501C100.743 101.195 101.15 100.89 101.558 100.55C101.863 100.312 102.169 100.041 102.475 99.769C102.984 99.3275 103.459 98.8521 103.935 98.3428C103.969 98.3088 104.003 98.2749 104.003 98.2409C104.478 97.7316 104.886 97.1883 105.293 96.679C105.802 95.9659 106.278 95.2868 106.685 94.5737L106.719 94.5397C106.821 94.3699 106.923 94.2002 106.991 94.0304L107.025 93.9964C107.059 93.9285 107.093 93.8946 107.127 93.8266C107.262 93.589 107.398 93.3513 107.5 93.0796C107.534 93.0117 107.568 92.9777 107.568 92.9098C107.636 92.774 107.67 92.6382 107.738 92.5363C107.772 92.4345 107.84 92.3326 107.874 92.2307C107.908 92.1288 107.976 92.027 108.009 91.9251C108.077 91.7214 108.179 91.5516 108.247 91.3479C108.281 91.2799 108.315 91.212 108.315 91.1102C108.383 90.9743 108.417 90.8046 108.485 90.6687C108.519 90.6008 108.519 90.5329 108.553 90.465L108.587 90.3971C108.655 90.2273 108.723 90.0236 108.757 89.8538V89.8198C109.028 89.5142 109.198 89.2086 109.368 88.937C109.402 88.903 109.402 88.8691 109.436 88.8351C109.741 88.0881 109.809 87.5448 109.775 87.0694ZM54.7324 87.2731C54.7324 87.2392 54.6985 87.2052 54.6985 87.1373C54.5287 86.5601 54.3589 85.9828 54.2231 85.3716C54.2231 85.3376 54.1891 85.3037 54.1891 85.2358C54.0873 85.2697 53.9854 85.4395 53.9175 85.6093C53.8835 85.6772 53.8496 85.7791 53.8156 85.847C53.5779 86.4582 53.4081 87.3071 53.4081 87.3071C53.4081 87.0354 53.4081 86.7638 53.3742 86.4582V86.3563V85.4735V85.3716C53.3742 85.032 53.4081 84.7264 53.4081 84.4208V84.251V84.1492V83.9794C53.4081 83.7417 53.4421 83.504 53.4421 83.2663C53.4421 83.0626 53.4761 82.8588 53.4761 82.6891V82.6211V82.5532V82.4853V82.3495V82.2137V81.976V81.8402C53.4761 81.7723 53.4761 81.7043 53.51 81.6704V81.5685V81.5006V81.2629L53.4421 81.3308C53.4081 81.3987 53.3402 81.4327 53.3063 81.5006L53.2723 81.5685C53.2044 81.6364 53.1705 81.7383 53.1365 81.8062L53.1025 81.8402C53.0346 81.942 53.0007 82.0439 52.9328 82.1458L52.8988 82.1797C52.8988 82.2137 52.8648 82.2476 52.8648 82.2476C52.8309 82.3155 52.7969 82.3835 52.7969 82.4514V82.5193L52.6951 82.8249C52.6272 83.1305 52.5592 83.4021 52.5253 83.6059C52.5253 83.6738 52.4913 83.7757 52.4913 83.8436C52.4574 83.9794 52.4574 84.1152 52.4574 84.1492V83.8775C52.4574 83.7077 52.4234 83.504 52.4234 83.3342V82.8928V82.757V82.5532V82.2476V82.0099V81.8402V81.7722V81.6704C52.4234 81.5685 52.4574 81.4327 52.4574 81.3308V81.2969C52.4574 81.229 52.4574 81.1271 52.4913 81.0592V81.0252C52.5253 80.8554 52.5253 80.6857 52.5592 80.5159V80.448V80.3461C52.5932 80.0744 52.6611 79.8028 52.729 79.5312V79.4972C52.763 79.2595 52.8309 79.0558 52.8988 78.8181V78.7841C52.9328 78.6823 52.9667 78.5804 52.9667 78.5125C53.0007 78.3766 53.0346 78.2408 53.0686 78.071V78.0371C53.0686 78.0031 53.1025 77.9013 53.1365 77.7994C53.1365 77.7654 53.1705 77.6975 53.1705 77.6636C53.2044 77.5957 53.2044 77.4938 53.2384 77.4259L53.2723 77.358L53.7138 76.2374C53.7477 76.2035 53.7477 76.1355 53.7817 76.1016V76.0676L53.8156 75.9997C53.8496 75.8639 53.9175 75.762 53.9514 75.6262L54.1552 75.1169C54.291 74.7773 54.3929 74.5057 54.4608 74.3359C54.4947 74.234 54.5287 74.1661 54.5287 74.1661C54.4947 74.1661 54.325 74.0642 54.0194 73.9284C53.6798 73.7586 53.1705 73.5549 52.5592 73.3512C52.3555 73.2832 52.1518 73.2153 51.948 73.1814L51.1331 72.9776C51.0652 72.9776 50.9973 72.9437 50.9294 72.9437L50.2163 72.8418C50.0465 72.8079 49.8767 72.8079 49.7069 72.8079C49.5711 72.8079 49.4353 72.8078 49.2995 72.7739H48.892C48.7222 72.7739 48.5185 72.8079 48.3487 72.8079C48.2468 72.8079 48.1789 72.8079 48.077 72.8418C47.7035 72.9097 47.2961 72.9776 46.9565 73.0795L46.8886 73.1135C46.2095 73.2832 45.5983 73.5549 44.987 73.8605C44.7833 73.9624 44.5796 74.0642 44.4098 74.2001C44.3419 74.234 44.3079 74.268 44.24 74.3019C44.1721 74.3359 44.1042 74.3698 44.0363 74.4377C43.459 74.8452 42.9157 75.2866 42.4403 75.796L42.4064 75.8299C41.9989 76.2714 41.6254 76.7468 41.3198 77.2561C41.2179 77.3919 41.15 77.5617 41.0481 77.6975C40.9463 77.8673 40.8444 78.0371 40.7765 78.2408C40.6067 78.5804 40.4709 78.9539 40.3351 79.2935C40.3011 79.4293 40.2332 79.5651 40.1992 79.667C40.1992 79.7009 40.1992 79.7009 40.1653 79.7349C39.9276 80.5838 39.7918 81.4666 39.7578 82.3835V82.9947C39.7578 83.1305 39.7918 83.2663 39.7918 83.4361C39.7918 83.6059 39.8257 83.7757 39.8597 83.9794V84.0473C39.8936 84.1831 39.8936 84.319 39.9276 84.4548V84.5227C39.9276 84.5566 39.9276 84.5906 39.9615 84.6246C39.9955 84.7264 39.9955 84.8283 40.0295 84.9302V84.9641C40.0295 85.032 40.0634 85.066 40.0634 85.1339C40.0974 85.2358 40.0974 85.3376 40.1313 85.4055C40.1653 85.4735 40.1653 85.5414 40.1992 85.6093C40.2332 85.7112 40.2672 85.7791 40.3011 85.8809C40.3351 85.9488 40.369 86.0168 40.369 86.0847L40.403 86.1186L40.4369 86.1865L40.4709 86.2545L40.5048 86.3224L40.6067 86.5261C40.6407 86.594 40.6746 86.6619 40.7086 86.7638L40.8105 86.9675L41.15 87.0694C41.184 87.1373 41.2179 87.1713 41.2179 87.2052C41.2519 87.2731 41.2858 87.341 41.3537 87.409L41.4556 87.6127C41.4896 87.6466 41.4896 87.6806 41.5235 87.7146C41.5575 87.7485 41.5575 87.7825 41.5914 87.8164C41.6254 87.8843 41.6594 87.9523 41.6933 87.9862C41.7273 88.0541 41.7952 88.122 41.8291 88.1899C41.8631 88.2579 41.897 88.2918 41.931 88.3597C41.9989 88.4276 42.0329 88.4955 42.1008 88.5635C42.1347 88.5974 42.1687 88.6653 42.2366 88.6993C42.3045 88.7672 42.3724 88.8351 42.4064 88.903C42.4403 88.937 42.4743 89.0049 42.5422 89.0388L42.7459 89.2426C42.7799 89.2765 42.8139 89.3105 42.8478 89.3784L43.0516 89.5821L43.1534 89.684C43.2213 89.7519 43.3232 89.8198 43.3911 89.8877L43.493 89.9896C43.5609 90.0575 43.6628 90.1254 43.7307 90.1934C43.7646 90.2273 43.7986 90.2613 43.8325 90.2613C43.9344 90.3292 44.0023 90.3971 44.1042 90.465C44.1381 90.499 44.1721 90.499 44.2061 90.5329C44.3079 90.6008 44.4098 90.6687 44.4777 90.7366C44.5117 90.7706 44.5456 90.7706 44.5796 90.8046C44.6814 90.8725 44.7833 90.9404 44.8852 90.9743C44.9191 90.9743 44.9531 91.0083 44.987 91.0083C45.0889 91.0762 45.1908 91.1102 45.2927 91.1781L45.3606 91.212C45.4624 91.2799 45.5983 91.3139 45.7001 91.3818L45.768 91.4158C45.8699 91.4837 46.0057 91.5176 46.1416 91.5516L46.2095 91.5856C46.3453 91.6195 46.4472 91.6874 46.583 91.7214L46.6509 91.7553C46.7867 91.7893 46.9225 91.8232 47.0584 91.8912H47.0923L47.4998 91.993H47.5337L47.9412 92.0949H47.9752C48.0431 92.0949 48.111 92.1288 48.1789 92.1288C48.2468 92.1288 48.3147 92.1628 48.4166 92.1628H48.4506C48.5864 92.1968 48.7562 92.1968 48.892 92.1968C49.0278 92.1968 49.1976 92.2307 49.3674 92.2307C49.8428 92.2307 50.3181 92.2307 50.7935 92.1628C50.8954 92.1628 51.0312 92.1288 51.1331 92.1288C51.3029 92.0949 51.4387 92.0609 51.6085 92.027C51.8122 91.993 52.0499 91.9251 52.2536 91.8572C52.4574 91.7893 52.6272 91.7553 52.8309 91.6874C53.1365 91.5856 53.4081 91.4837 53.6798 91.3479C54.5287 90.9743 55.2418 90.5669 55.6492 90.1594C55.6492 90.1594 55.1739 88.8691 54.7664 87.5448C54.8003 87.5448 54.7664 87.409 54.7324 87.2731Z" fill="#90694C"/>
<path d="M109.774 87.0688C109.774 87.0688 109.774 86.5595 109.468 86.118L109.4 86.0501L109.366 86.0162L109.264 85.9143C109.196 85.8464 109.095 85.8124 108.993 85.7445C108.925 85.7106 108.891 85.7106 108.823 85.6766C108.653 85.6087 108.483 85.5747 108.246 85.5747C108.076 85.5747 107.906 85.5747 107.702 85.6087C107.634 85.6087 107.533 85.6426 107.465 85.6426H107.431C107.431 85.6426 107.431 85.6766 107.465 85.7106C107.465 85.7445 107.499 85.7785 107.533 85.8464C107.533 85.8803 107.567 85.8803 107.567 85.9143C107.601 86.0162 107.668 86.152 107.702 86.3218C107.702 86.3218 107.702 86.3557 107.668 86.4236V86.4576C107.6 86.6953 107.397 87.2725 106.887 88.0535C106.786 88.1893 106.718 88.3252 106.582 88.461C105.122 90.3965 101.76 93.3507 94.2558 95.6936C91.7091 96.3728 89.2982 96.7123 87.2269 96.7123C84.1369 96.7123 81.7599 96.0332 80.5375 94.8447L80.2319 94.5391C80.164 94.4712 80.0961 94.3694 80.0282 94.3014C79.9942 94.2675 79.9942 94.2335 79.9603 94.1996C79.417 93.4525 79.1114 92.6036 79.0095 91.7547C78.9076 90.7361 79.0774 89.6834 79.5528 88.8685C79.9263 88.1893 80.4357 87.68 81.1148 87.3744C81.4543 87.2386 81.7939 87.1367 82.1674 87.1028H83.6615C85.1216 87.1028 87.4306 87.0348 90.181 86.5255C95.1726 85.5747 101.624 83.1639 106.989 76.9839V76.9499C106.955 76.5085 106.786 75.6935 106.14 75.1163C106.039 75.0144 105.903 74.9125 105.733 74.8446C105.665 74.8107 105.563 74.7428 105.461 74.7088C105.359 74.6748 105.291 74.6409 105.19 74.6069C105.088 74.539 104.952 74.5051 104.884 74.4371V74.4032C104.85 74.3353 104.782 74.3013 104.748 74.2334C102.881 72.0602 100.572 70.9397 99.6208 70.4303C99.1794 70.1926 98.9078 70.0908 98.9078 70.0908C96.9043 69.174 96.5987 68.8344 96.361 65.7444C96.2931 64.6238 96.2252 63.1637 96.0894 61.1603C96.0894 60.8887 96.0554 60.651 96.0215 60.4133C96.0215 60.3454 96.0215 60.3114 95.9875 60.2435C95.9536 60.0058 95.9196 59.8021 95.8857 59.5983V59.4625C95.8517 59.2927 95.8177 59.123 95.7838 58.9871C95.7838 58.9192 95.7498 58.8513 95.7498 58.7834C95.7159 58.6136 95.6819 58.4438 95.614 58.308C95.5801 58.2401 95.5801 58.1382 95.5461 58.0703C95.5121 57.9685 95.4782 57.9005 95.4442 57.8326C95.4103 57.7647 95.3763 57.6629 95.3424 57.5949C95.3084 57.4931 95.2745 57.4252 95.2405 57.3233C95.2405 57.2893 95.2065 57.2554 95.2065 57.2214C95.2065 57.1875 95.1726 57.1535 95.1726 57.1196V57.0856L95.1386 56.9837L95.0368 56.78V56.746L95.0028 56.6781L94.9688 56.6102C94.9009 56.4744 94.833 56.3725 94.7312 56.2707L94.6632 56.2027C94.5614 56.1009 94.4935 55.999 94.3916 55.8971L94.3576 55.8632L94.3237 55.8292C94.2558 55.7613 94.1879 55.6934 94.1539 55.6255L94.086 55.5576C94.0181 55.4897 93.9162 55.4218 93.8483 55.3538C93.7464 55.2859 93.6446 55.1841 93.5427 55.1162C93.4408 55.0482 93.339 55.0143 93.2031 54.9803C93.1692 54.9803 93.1352 54.9464 93.1013 54.9464C93.0334 54.9124 92.9654 54.9124 92.8975 54.8785C92.8636 54.8785 92.8296 54.8785 92.7617 54.8445C92.6938 54.8445 92.6259 54.8105 92.558 54.8105H91.8449C91.777 54.8105 91.743 54.8445 91.6751 54.8445C91.6412 54.8445 91.6072 54.8445 91.5732 54.8785L91.5053 54.9124C91.4714 54.9124 91.4374 54.9464 91.4035 54.9464C91.3695 54.9464 91.3355 54.9803 91.3016 54.9803C91.2337 55.0143 91.1658 55.0482 91.0979 55.0482L91.0299 55.0822C90.8602 55.1501 90.6564 55.252 90.4866 55.3538L90.4187 55.3878C90.3508 55.4218 90.2829 55.4897 90.215 55.5236L90.1471 55.5915C90.0792 55.6255 90.0113 55.6934 89.9433 55.7274L89.8754 55.7953C89.8075 55.8292 89.7396 55.8971 89.7057 55.9311L89.6377 55.999C89.5698 56.0669 89.5019 56.1009 89.434 56.1688L89.3661 56.2367C89.2982 56.3046 89.2303 56.3725 89.1624 56.4065L89.1284 56.4404C89.0605 56.5084 88.9586 56.5763 88.8907 56.6442C88.7549 56.78 88.5851 56.9158 88.4493 57.0516C88.3135 57.1535 88.1776 57.2893 88.0758 57.3912L88.0079 57.4591C87.872 57.561 87.7362 57.6968 87.6004 57.7987L87.5325 57.8666L87.125 58.1722L87.0571 58.2401C86.9213 58.342 86.7854 58.4438 86.6157 58.5457L86.5477 58.5797C86.4119 58.6815 86.2421 58.7494 86.1063 58.8513L86.0384 58.8853C85.8686 58.9532 85.7328 59.0551 85.563 59.123H85.5291C85.3593 59.1909 85.1895 59.2588 84.9858 59.2927C84.6802 59.3607 84.3746 59.4286 84.0689 59.4625C83.5596 59.5304 83.0503 59.5644 82.507 59.5304C82.3372 59.5304 82.1674 59.5304 81.9637 59.4965H81.7599C81.2846 59.4625 80.8431 59.4286 80.3677 59.3607C80.164 59.3267 79.9603 59.3267 79.7905 59.2927C79.4849 59.2588 79.1453 59.2248 78.8397 59.1909C78.7718 59.1909 78.7039 59.1909 78.636 59.1569H78.5002C78.4322 59.1569 78.3643 59.1569 78.2964 59.123H77.855C77.7192 59.123 77.5494 59.123 77.4136 59.089H75.9195C75.8176 59.089 75.7158 59.123 75.6139 59.123H75.4441C75.3083 59.123 75.2064 59.1569 75.0706 59.1909H74.9687C74.8329 59.2248 74.6631 59.2588 74.5273 59.2927C74.4933 59.2927 74.4594 59.3267 74.3915 59.3267C74.2896 59.3607 74.1877 59.3607 74.0859 59.3946H74.0519C73.984 59.3946 73.95 59.4286 73.8821 59.4286L73.5765 59.5304C73.5086 59.5644 73.4747 59.5644 73.4067 59.5983C73.3049 59.6323 73.203 59.6663 73.1011 59.7342C73.0332 59.7681 72.9993 59.7681 72.9314 59.8021C72.8295 59.836 72.7276 59.904 72.6258 59.9379C72.5918 59.9719 72.5239 59.9719 72.4899 60.0058C72.3202 60.0737 72.1843 60.1756 72.0146 60.2775C70.8261 61.1603 69.8414 62.3148 69.1283 63.6052C68.8906 64.0466 68.6869 64.488 68.4831 64.9295C68.2794 65.4048 68.1096 65.9142 68.0077 66.3896C67.9738 66.5254 67.9398 66.6952 67.9059 66.831C67.838 67.0687 67.804 67.3403 67.77 67.578V67.6459C67.7361 67.9176 67.7021 68.2232 67.6682 68.4948C67.6342 68.8004 67.6342 69.106 67.6342 69.3777V69.8531C67.6682 70.2945 67.7021 70.702 67.804 71.1434C67.804 71.1774 67.804 71.2113 67.838 71.2453C67.8719 71.3471 67.8719 71.449 67.9059 71.5848C67.9738 71.8904 68.0417 72.196 68.1436 72.4677C68.1775 72.5696 68.2115 72.6714 68.2794 72.7733L68.3813 73.0789C68.6869 73.8259 69.0943 74.4711 69.5358 75.0823C71.2336 77.3234 73.7124 78.4779 75.4441 79.0212C76.1232 79.225 76.8363 79.3947 77.5494 79.5306L77.4815 79.5985C77.3457 79.6324 77.2098 79.7003 77.074 79.7682C76.8363 79.8701 76.5647 79.972 76.2591 80.1418C75.9195 80.3115 75.546 80.4813 75.1725 80.719C74.1538 81.2963 72.9993 82.0773 72.0485 83.0959C71.9127 83.2318 71.8108 83.3676 71.675 83.4695C71.4713 83.7071 71.3015 83.9448 71.1317 84.1825C71.0977 84.2165 71.0977 84.2504 71.0638 84.2504C71.0298 84.2844 70.9959 84.3184 70.9959 84.3523L70.7921 84.6579C70.7582 84.6919 70.7582 84.7258 70.7242 84.7937C70.6563 84.9296 70.5544 85.0654 70.4865 85.2352C70.4186 85.371 70.3507 85.5408 70.2828 85.6766C69.7735 86.8651 69.5697 88.2573 69.9093 89.8532V89.7853V89.6495V89.4797C69.9093 89.4457 69.9093 89.3778 69.9432 89.3099C69.9432 89.242 69.9772 89.1741 69.9772 89.1401V89.1062C69.9772 89.0382 70.0111 88.9703 70.0111 88.9024V88.8685C70.0111 88.8006 70.0451 88.7326 70.0791 88.6647V88.6308C70.113 88.5629 70.113 88.461 70.147 88.3931V88.3252C70.1809 88.2573 70.2149 88.1554 70.2488 88.0535C70.2828 87.9177 70.3507 87.7819 70.4186 87.646C70.4526 87.6121 70.4526 87.5442 70.4865 87.5102L70.5205 87.4763C70.5884 87.3744 70.6224 87.2725 70.6903 87.1707C70.7242 87.0688 70.7921 87.0009 70.86 86.899C70.894 86.8651 70.894 86.8311 70.928 86.8311C70.9619 86.7632 71.0298 86.6953 71.0638 86.6274C71.0977 86.5934 71.0977 86.5595 71.1317 86.5595C71.1996 86.4576 71.2675 86.3897 71.3354 86.3218C71.3354 86.3218 70.2828 89.7853 71.2336 92.332V92.298V92.2301V92.1282V91.9924V91.8226V91.6189V91.4152V91.3812V91.0756C71.2336 90.9737 71.2336 90.8719 71.2675 90.804V90.77C71.2675 90.6681 71.3015 90.5663 71.3015 90.4644C71.3015 90.4304 71.3015 90.3965 71.3354 90.3625V90.2946C71.3694 90.2267 71.3694 90.1248 71.4033 90.0569C71.4373 89.9551 71.4713 89.8192 71.5052 89.7174C71.5052 89.6834 71.5392 89.6495 71.5392 89.6155C71.5731 89.5136 71.641 89.4118 71.7089 89.3099C71.7089 89.3099 71.7089 90.1248 71.8787 91.1096C71.9127 91.2454 71.9127 91.4152 71.9466 91.585C71.9806 91.6868 71.9806 91.7887 72.0146 91.8906C72.0485 92.5697 72.1504 93.2488 72.3202 93.9619C72.5918 95.1503 73.0332 96.3728 73.6784 97.6291C73.6784 97.6291 73.0332 96.169 73.5086 94.5731C73.5765 94.7089 73.6784 94.8447 73.7463 94.9806C73.8482 95.422 74.018 96.0672 74.2557 96.7463C74.5273 97.9008 75.546 101.364 78.2285 103.537C78.2285 103.537 77.1759 102.485 77.1419 100.923C77.2777 101.127 77.3796 101.296 77.4815 101.432C77.9908 102.145 78.9755 103.47 79.9942 104.352C79.9942 104.352 79.1114 103.062 79.2132 102.723C79.2132 102.723 81.9297 105.371 82.7107 105.541L81.5222 104.047L81.4883 104.013C85.2235 106.084 90.0113 106.39 95.614 104.081C96.5648 103.673 97.5495 103.198 98.5682 102.621C99.1794 102.247 99.7906 101.874 100.402 101.432L100.504 101.364C100.911 101.059 101.319 100.753 101.726 100.414C102.032 100.176 102.337 99.9042 102.643 99.6325C103.152 99.1911 103.628 98.7157 104.103 98.2064C104.137 98.1724 104.171 98.1385 104.171 98.1045C104.646 97.5952 105.054 97.0519 105.461 96.5425C105.971 95.8295 106.446 95.1503 106.853 94.4373L106.887 94.4033C106.989 94.2335 107.091 94.0637 107.159 93.894L107.193 93.86C107.227 93.7921 107.261 93.7581 107.295 93.6902C107.431 93.4525 107.567 93.2148 107.668 92.9432C107.702 92.8753 107.736 92.8413 107.736 92.7734C107.804 92.6376 107.838 92.5018 107.906 92.3999C107.94 92.298 108.008 92.1962 108.042 92.0943C108.076 91.9924 108.144 91.8906 108.178 91.7887C108.246 91.585 108.348 91.4152 108.415 91.2114C108.449 91.1435 108.483 91.0756 108.483 90.9737C108.551 90.8379 108.585 90.6681 108.653 90.5323C108.687 90.4644 108.687 90.3965 108.721 90.3286L108.755 90.2607C108.823 90.0909 108.891 89.8872 108.925 89.7174V89.6834C109.196 89.3778 109.366 89.0722 109.536 88.8006C109.57 88.7666 109.57 88.7326 109.604 88.6987C109.74 88.0875 109.808 87.5442 109.774 87.0688ZM54.1876 85.2352C54.0858 85.2691 53.9839 85.4389 53.916 85.6087C53.882 85.6766 53.8481 85.7785 53.8141 85.8464C53.5764 86.4576 53.4066 87.3065 53.4066 87.3065C53.4066 87.0348 53.4066 86.7632 53.3727 86.4576V86.3557V85.4729V85.371C53.3727 85.0314 53.4066 84.7258 53.4066 84.4202V84.2504V84.1486V83.9788C53.4066 83.7411 53.4406 83.5034 53.4406 83.2657C53.4406 83.062 53.4745 82.8582 53.4745 82.6885V82.6206V82.5526V82.4847V82.3489V82.2131V81.9754V81.8396C53.4745 81.7717 53.4745 81.7037 53.5085 81.6698V81.5679V81.5V81.2623L53.4406 81.3302C53.4066 81.3981 53.3387 81.4321 53.3048 81.5L53.2708 81.5679C53.2029 81.6358 53.1689 81.7377 53.135 81.8056L53.101 81.8396C53.0331 81.9414 52.9992 82.0433 52.9312 82.1452L52.8973 82.1791C52.8973 82.2131 52.8633 82.247 52.8633 82.247C52.8294 82.315 52.7954 82.3829 52.7954 82.4508V82.5187L52.6936 82.8243C52.6256 83.1299 52.5577 83.4015 52.5238 83.6053C52.5238 83.6732 52.4898 83.7751 52.4898 83.843C52.4559 83.9788 52.4559 84.1146 52.4559 84.1486V83.8769C52.4559 83.7072 52.4219 83.5034 52.4219 83.3336V82.8922V82.7564V82.5526V82.247V82.0093V81.8396V81.7717V81.6698C52.4219 81.5679 52.4559 81.4321 52.4559 81.3302V81.2963C52.4559 81.2284 52.4559 81.1265 52.4898 81.0586V81.0246C52.5238 80.8548 52.5238 80.6851 52.5577 80.5153V80.4474V80.3455C52.5917 80.0738 52.6596 79.8022 52.7275 79.5306V79.4966C52.7615 79.2589 52.8294 79.0552 52.8973 78.8175V78.7835C52.9312 78.6817 52.9652 78.5798 52.9652 78.5119C52.9992 78.376 53.0331 78.2402 53.0671 78.0704V78.0365C53.0671 78.0025 53.101 77.9007 53.135 77.7988C53.135 77.7648 53.1689 77.6969 53.1689 77.663C53.2029 77.5951 53.2029 77.4932 53.2369 77.4253L53.2708 77.3574C53.2369 77.3234 53.1689 77.3234 53.101 77.2895H53.0671L52.9992 77.2555C52.6596 77.1536 52.32 77.0518 51.9805 77.0178H51.9126C51.6749 76.9838 51.4711 76.9839 51.2334 76.9839C51.0976 76.9839 50.9618 76.9838 50.826 77.0178C50.7241 77.0178 50.5883 77.0518 50.4864 77.0518L49.9771 77.1536C49.9092 77.1536 49.8752 77.1876 49.8412 77.1876C49.7733 77.2215 49.6715 77.2215 49.6036 77.2555C49.5696 77.2555 49.5356 77.2895 49.5017 77.2895C49.4338 77.3234 49.3998 77.3234 49.3319 77.3574C49.23 77.3913 49.1282 77.4592 49.0263 77.4932C48.9923 77.5271 48.9244 77.5271 48.8905 77.5611C48.7547 77.629 48.6188 77.6969 48.483 77.7988C48.4151 77.8328 48.3811 77.8667 48.3472 77.9007C48.2793 77.9346 48.2114 77.9686 48.1774 78.0365L48.1095 78.0704C48.0416 78.1044 47.9737 78.1723 47.9058 78.2063C47.8378 78.2402 47.8039 78.3081 47.736 78.3421C47.6681 78.41 47.6001 78.444 47.5322 78.5119L47.4304 78.6137C47.3285 78.7156 47.2266 78.8175 47.1248 78.9533C47.0908 79.0212 47.0229 79.0552 46.9889 79.1231C46.921 79.225 46.8192 79.3268 46.7512 79.4287L46.7173 79.4966C46.6833 79.5645 46.6494 79.6324 46.6154 79.6664C46.5815 79.7003 46.5815 79.7343 46.5475 79.8022C46.4117 80.0739 46.2759 80.3455 46.174 80.6171C46.174 80.6511 46.14 80.6851 46.14 80.753L46.0382 81.1604C46.0382 81.2284 46.0042 81.2623 46.0042 81.3302C45.9703 81.4661 45.9363 81.6358 45.9363 81.7717V81.9075C45.9363 82.0093 45.9023 82.1112 45.9023 82.247V82.7224C45.9023 82.8922 45.9363 83.062 45.9363 83.2318C45.9703 83.3676 45.9703 83.5034 46.0042 83.6392V83.7072C46.0042 83.7751 46.0382 83.843 46.0721 83.9109C46.14 84.1825 46.2419 84.4202 46.3438 84.6579C46.4117 84.8277 46.5136 85.0314 46.6154 85.2012C46.7852 85.5068 47.0229 85.8124 47.2266 86.0841C47.702 86.6613 48.3132 87.1028 48.9923 87.4423C49.3659 87.6121 49.7733 87.7479 50.2148 87.8498C50.6222 87.9517 51.0297 87.9856 51.4711 87.9856H51.7767C51.9126 87.9856 52.0823 87.9517 52.2182 87.9517C52.354 87.9177 52.4898 87.8837 52.6256 87.8837C52.6936 87.8837 52.7615 87.8498 52.8633 87.8498C53.0671 87.8158 53.2369 87.7479 53.4066 87.68H53.4406L53.6443 87.5781C53.882 87.4763 54.0858 87.3744 54.2895 87.2386L54.3234 87.2046C54.3914 87.1707 54.4253 87.1367 54.4932 87.1028C54.3234 86.5255 54.1537 85.9482 54.0178 85.337C54.2216 85.337 54.1876 85.2691 54.1876 85.2352Z" fill="#FCE9CD"/>
<path d="M79.8935 62.825C79.6218 62.7232 79.3502 62.6552 79.0785 62.6213C78.9087 62.5873 78.705 62.5873 78.5352 62.5873H78.3315C77.4147 62.6213 76.6676 62.859 76.6676 62.859C76.4979 62.9269 76.362 62.9948 76.1923 63.0627C75.0038 63.5721 74.2568 64.3191 73.7474 65.134C73.3399 65.7792 73.1023 66.4923 73.0004 67.1374C73.0004 67.2054 72.9664 67.2393 72.9664 67.3072C72.9325 67.477 72.9325 67.6468 72.8985 67.8166C72.8646 68.3599 72.8646 68.8692 72.8985 69.2427C72.9325 69.786 73.0343 70.1256 73.0343 70.1256C73.2041 69.6502 73.3739 69.1748 73.5437 68.7673C73.9851 67.7147 74.4944 66.8318 75.0377 66.1188C76.0904 64.7266 77.2449 63.9116 78.1617 63.4362C79.1804 62.9269 79.8935 62.825 79.8935 62.825ZM94.2569 59.2936L94.2229 59.2596C94.0531 59.0899 93.8834 58.954 93.6796 58.8522C93.1703 58.5805 92.5251 58.5126 91.6423 58.7843C91.6423 58.7843 90.6236 59.1578 90.0803 59.9388C90.0803 59.9388 91.812 58.9201 93.9173 60.0746C94.121 60.1765 94.2908 60.3123 94.4946 60.4481C94.6983 60.5839 94.902 60.7537 95.1058 60.9574C95.1058 60.9574 94.936 60.1085 94.3587 59.4634C94.3248 59.3615 94.2908 59.3276 94.2569 59.2936ZM77.2109 71.4838C77.2788 71.4159 77.3468 71.348 77.4147 71.314C77.4486 71.2801 77.4826 71.2461 77.5165 71.2461C77.5845 71.1782 77.6524 71.1443 77.7203 71.0764C77.7542 71.0424 77.7882 71.0084 77.8561 70.9745C77.924 70.9405 77.9919 70.8726 78.0598 70.8387C78.0938 70.8047 78.1617 70.7707 78.1957 70.7368C78.2636 70.7028 78.3315 70.6349 78.3994 70.601C78.4673 70.567 78.5013 70.5331 78.5692 70.4991C78.6371 70.4651 78.705 70.4312 78.8069 70.3972L79.0106 70.2954C79.0785 70.2614 79.1804 70.2275 79.2483 70.1935C79.3162 70.1595 79.4181 70.1256 79.486 70.1256C79.5539 70.0916 79.6218 70.0577 79.7237 70.0577H79.7576C79.8595 70.0237 79.9614 69.9898 80.0972 69.9898C80.1312 69.9898 80.1651 69.9898 80.1991 69.9558C80.267 69.9558 80.3349 69.9218 80.4028 69.9218H80.5047C80.5726 69.9218 80.6405 69.9218 80.7084 69.8879H81.0819C81.2178 69.8879 81.3536 69.8879 81.4894 69.9218H81.5573C81.6931 69.9218 81.795 69.9558 81.9308 69.9898H81.9987C82.1346 70.0237 82.2364 70.0237 82.3383 70.0577H82.3723C82.4741 70.0916 82.6099 70.1256 82.7118 70.1595C82.8476 70.1935 82.9495 70.2614 83.0514 70.2954C83.1532 70.3293 83.2551 70.3972 83.357 70.4651C83.1872 69.8539 82.6779 68.5296 81.2517 68.1901C81.048 68.1561 80.8442 68.1222 80.6065 68.1222H80.4368C80.233 68.1222 79.9953 68.1561 79.7576 68.224C77.0751 68.8013 76.9393 71.0424 76.9732 71.7894C77.0412 71.7215 77.1091 71.6196 77.177 71.5517L77.2109 71.4838Z" fill="#E9B784"/>
<path d="M107.499 85.948C107.499 85.914 107.465 85.8801 107.465 85.8801C107.431 85.8122 107.431 85.7782 107.397 85.7443C107.159 85.2349 106.887 84.8275 106.684 84.5558C106.412 84.2162 106.174 84.0465 106.174 84.0465C106.208 83.9106 106.208 83.7748 106.208 83.639C106.208 83.4692 106.242 83.2994 106.242 83.1297C106.242 81.8733 105.801 80.9904 105.461 80.4811C105.393 80.4132 105.359 80.3453 105.325 80.2773C105.156 80.4471 104.986 80.5829 104.816 80.7527C101.488 83.639 97.6174 85.7443 93.271 86.9667C90.2829 87.8156 87.091 88.257 83.6954 88.257H83.7633C83.7633 88.257 81.7939 88.7664 81.4883 90.7698H81.5222V92.0941C81.7939 93.8258 82.7447 94.8445 83.7294 95.2859C84.7141 95.5236 85.9026 95.6594 87.1929 95.6594C89.434 95.6594 91.9467 95.2859 94.4935 94.5389C97.8891 93.656 102.507 91.2112 105.665 88.4268C106.378 87.7816 107.023 87.1365 107.567 86.4573L107.6 86.4234L107.634 86.3894C107.6 86.2197 107.567 86.0499 107.499 85.948Z" fill="white"/>
<path d="M79.6557 70.0586C79.5877 70.0925 79.5198 70.0925 79.418 70.1265C79.5198 70.1265 79.5877 70.0925 79.6557 70.0586Z" fill="#F2D2AC"/>
<path d="M80.2339 77.3244C80.3358 77.2565 80.4716 77.1546 80.5735 77.0867C80.6075 77.0528 80.6754 77.0188 80.7093 76.9848C80.8112 76.9169 80.947 76.849 81.0489 76.7472C81.1168 76.7132 81.1508 76.6792 81.2187 76.6453C81.3205 76.5774 81.4564 76.5095 81.5582 76.4415C81.6261 76.4076 81.6941 76.3736 81.728 76.3397C81.8299 76.2718 81.9657 76.2039 82.0676 76.1359C82.1355 76.102 82.2034 76.068 82.2713 76.0001C82.3732 75.9322 82.509 75.8643 82.6109 75.7964C82.6788 75.7624 82.7807 75.6945 82.8486 75.6606C82.9504 75.5926 83.0863 75.5247 83.1881 75.4908C83.29 75.4568 83.3579 75.3889 83.4598 75.355C83.5616 75.287 83.6975 75.2531 83.7993 75.1852C83.9012 75.1512 84.0031 75.0833 84.1049 75.0493C84.2068 74.9814 84.3426 74.9475 84.4445 74.8796C84.5464 74.8117 84.6482 74.7777 84.7841 74.7098C84.8859 74.6758 84.9878 74.6079 85.1236 74.574C85.2594 74.506 85.3613 74.4721 85.4971 74.4042C85.599 74.3702 85.7009 74.3023 85.8027 74.2684C85.9386 74.2004 86.0744 74.1665 86.2102 74.0986L86.4139 73.9967C86.7875 72.5366 88.0099 68.9033 90.7603 68.1902C91.0659 68.1223 91.3376 68.0544 91.5753 68.0204C91.6432 68.0204 91.7111 67.9865 91.779 67.9865C91.7111 67.7828 91.6771 67.579 91.6432 67.3753C91.3715 65.9152 91.6771 64.6248 92.3223 64.489C92.8316 64.3871 93.307 65.0663 93.4089 65.304C93.6466 65.7454 93.8503 66.2887 93.9861 66.9338C94.088 67.5111 94.122 68.0544 94.0541 68.5298L94.2238 68.6996C94.9709 69.4126 95.2086 70.4992 95.2765 71.2802C95.5142 71.2123 95.7858 71.1784 96.0235 71.1104C96.0914 71.1104 96.1593 71.0765 96.2272 71.0765H96.2612C96.2952 71.0765 96.3291 71.0765 96.3631 71.0425C96.6687 70.9746 97.0082 70.9067 97.3138 70.8388C98.0269 70.703 98.8079 70.5671 99.5549 70.4313C99.1135 70.1936 98.8419 70.0918 98.8419 70.0918C96.8385 69.1749 96.5328 68.8354 96.2952 65.7454C96.2272 64.6248 96.1593 63.1647 96.0235 61.1613C96.0235 60.8897 95.9896 60.652 95.9556 60.4143C95.9556 60.3464 95.9556 60.3124 95.9216 60.2445C95.8877 60.0068 95.8537 59.8031 95.8198 59.5993V59.4635C95.7858 59.2937 95.7519 59.124 95.7179 58.9881C95.7179 58.9202 95.684 58.8523 95.684 58.7844C95.65 58.6146 95.616 58.4448 95.5481 58.309C95.5142 58.2411 95.5142 58.1392 95.4802 58.0713C95.4463 57.9695 95.4123 57.9015 95.3783 57.8336C95.3444 57.7657 95.3104 57.6638 95.2765 57.5959C94.9709 57.2224 94.5974 56.9168 94.1899 56.6791L94.122 56.6452L94.0541 56.6112H94.0201C93.9522 56.5773 93.8843 56.5433 93.8503 56.5093L93.6466 56.4075C93.0693 56.1358 92.4242 56 91.745 56C91.3715 56 90.998 56.034 90.6245 56.0679C90.4547 56.1019 90.251 56.1358 90.0812 56.1698C89.6058 56.2716 89.1304 56.4414 88.655 56.6452C88.5192 56.781 88.3494 56.9168 88.2136 57.0526C88.0778 57.1545 87.942 57.2903 87.8401 57.3922L87.7722 57.4601C87.6364 57.562 87.5005 57.6978 87.3647 57.7997L87.2968 57.8676L86.8893 58.1732L86.8214 58.2411C86.6856 58.343 86.5498 58.4448 86.38 58.5467L86.3121 58.5807C86.1763 58.6825 86.0065 58.7504 85.8706 58.8523L85.8027 58.8863C85.633 58.9542 85.4971 59.056 85.3274 59.124H85.2934C85.1236 59.1919 84.9538 59.2598 84.7501 59.2937C84.4445 59.3616 84.1389 59.4296 83.8333 59.4635C83.3239 59.5314 82.8146 59.5654 82.2713 59.5314C82.1015 59.5314 81.9317 59.5314 81.728 59.4975H81.5243C81.0489 59.4635 80.6075 59.4296 80.1321 59.3616C79.9283 59.3277 79.7246 59.3277 79.5548 59.2937C79.2492 59.2598 78.9097 59.2258 78.6041 59.1919C78.5361 59.1919 78.4682 59.1919 78.4003 59.1579C78.1287 59.1919 77.891 59.2598 77.6193 59.3277H77.5514C76.8044 59.5314 76.0573 59.8031 75.3443 60.1426C75.3103 60.1766 75.2764 60.1766 75.2085 60.2106C75.1066 60.2785 74.9708 60.3124 74.8689 60.3803C74.7331 60.4482 74.5633 60.5501 74.4275 60.652C73.3748 61.2632 72.3901 62.0781 71.5072 63.0289C71.1337 63.4024 70.8281 63.8099 70.5225 64.2513C70.0471 64.8965 69.6397 65.5756 69.3001 66.2547C69.2661 66.2887 69.2661 66.3226 69.2322 66.3566C69.0624 66.7301 68.8926 67.1036 68.7568 67.4771C68.7228 67.613 68.6549 67.7488 68.621 67.8846V67.9186C68.4852 68.36 68.3493 68.8014 68.2475 69.2768V69.3447C68.2475 69.4126 68.2135 69.4806 68.2135 69.5485L68.1116 70.1597C68.0777 70.3634 68.0437 70.6011 68.0437 70.8048V70.9407C68.0437 71.0765 68.0437 71.2123 68.0098 71.3481C68.0098 71.8235 68.0098 72.2989 68.0777 72.7743C68.0777 72.8762 68.1116 73.012 68.1116 73.1138C68.4172 73.8609 68.8247 74.5061 69.2661 75.1173C70.9639 77.3584 73.4427 78.5129 75.1745 79.0562C75.8536 79.2599 76.5667 79.4297 77.2798 79.5655L77.3137 79.5995L77.3477 79.5655L77.5854 79.3278L77.6872 79.2259C77.7891 79.158 77.857 79.0562 77.9589 78.9882C77.9928 78.9543 78.0268 78.9203 78.0608 78.9203C78.1626 78.8524 78.2305 78.7506 78.3324 78.6826C78.3664 78.6487 78.4003 78.6147 78.4343 78.6147C78.5361 78.5468 78.638 78.4449 78.7399 78.377C78.7738 78.3431 78.8078 78.3091 78.8417 78.3091C78.9436 78.2412 79.0455 78.1393 79.1473 78.0714C79.1813 78.0375 79.2153 78.0035 79.2492 78.0035C79.3511 77.9356 79.453 77.8337 79.5548 77.7658L79.6567 77.664C79.7586 77.5961 79.8604 77.4942 79.9963 77.4263C80.166 77.3923 80.2 77.3584 80.2339 77.3244ZM91.6092 58.7844C92.4581 58.4788 93.1372 58.5807 93.6466 58.8523C93.8503 58.9542 94.0541 59.09 94.1899 59.2598L94.2238 59.2937C94.2578 59.3277 94.2918 59.3616 94.3257 59.4296C94.903 60.1087 95.0727 60.9236 95.0727 60.9236C94.869 60.7199 94.6653 60.5841 94.4615 60.4143C94.2578 60.2785 94.0541 60.1426 93.8843 60.0408C91.779 58.8863 90.0472 59.9049 90.0472 59.9049C90.5905 59.1579 91.6092 58.7844 91.6092 58.7844ZM75.0726 66.1189C74.5293 66.832 74.02 67.7148 73.5786 68.7675C73.4088 69.2089 73.239 69.6503 73.0692 70.1257C73.0692 70.1257 73.0013 69.7862 72.9334 69.2429C72.8994 68.8354 72.8655 68.36 72.9334 67.8167C72.9334 67.6469 72.9674 67.4771 73.0013 67.3074C73.0013 67.2395 73.0353 67.2055 73.0353 67.1376C73.1711 66.4924 73.3748 65.7793 73.7823 65.1342C74.2916 64.3192 75.0726 63.5722 76.2271 63.0629C76.363 62.9949 76.5327 62.927 76.7025 62.8591C76.7025 62.8591 77.4496 62.6214 78.3664 62.5875H78.5701C78.7399 62.5875 78.9436 62.5875 79.1134 62.6214C79.385 62.6554 79.6567 62.7233 79.9283 62.8252C79.9283 62.8252 79.2153 62.927 78.2305 63.4364C77.2798 63.9118 76.1253 64.7267 75.0726 66.1189ZM76.5667 72.8422C76.4988 72.8762 76.4309 72.8762 76.3969 72.8422C76.295 72.7743 76.4309 72.3329 76.9063 71.7896C76.8723 71.0425 77.0081 68.8014 79.6906 68.2242C79.9283 68.1902 80.166 68.1563 80.3698 68.1223H80.5396C80.7772 68.1223 80.981 68.1563 81.1847 68.1902C82.6109 68.4958 83.1202 69.8201 83.29 70.4653C83.7654 70.7369 83.9691 71.0086 83.9012 71.0425C83.8672 71.1104 83.7993 71.1104 83.6975 71.1104C83.5956 71.1784 83.3239 71.2123 82.9844 71.2463C82.3053 71.3142 81.2526 71.3821 80.0981 71.6877C80.0302 71.7217 79.9283 71.7217 79.8604 71.7556C78.1626 72.231 76.8723 72.978 76.5667 72.8422ZM108.519 89.99C107.433 91.2464 106.244 92.2651 105.056 93.114C104.479 93.5554 103.867 93.9289 103.29 94.2685C101.966 95.0495 100.709 95.6267 99.5889 96.0681C97.0762 97.0189 95.2765 97.2566 95.2765 97.2566C96.7705 97.8678 98.5702 97.6301 99.7926 97.3585C100.608 97.1547 101.185 96.951 101.185 96.951C101.219 97.4603 101.219 97.9697 101.185 98.4111C101.151 98.9204 101.049 99.3958 100.947 99.8033V99.8373C100.811 100.381 100.608 100.856 100.37 101.263C100.336 101.297 100.336 101.365 100.302 101.399L100.404 101.331C100.811 101.026 101.219 100.72 101.626 100.381C101.932 100.143 102.237 99.8712 102.543 99.5996C103.052 99.1581 103.528 98.6828 104.003 98.1734C104.037 98.1395 104.071 98.1055 104.071 98.0715C104.546 97.5622 104.954 97.0189 105.361 96.5096C105.871 95.7965 106.346 95.1174 106.754 94.4043L106.788 94.3703C106.889 94.2006 106.991 94.0308 107.059 93.861L107.093 93.827C107.127 93.7591 107.161 93.7252 107.195 93.6573C107.331 93.4196 107.467 93.1819 107.569 92.9102C107.603 92.8423 107.636 92.8084 107.636 92.7404C107.704 92.6046 107.738 92.4688 107.806 92.3669C107.84 92.2651 107.908 92.1632 107.942 92.0613C107.976 91.9595 108.044 91.8576 108.078 91.7557C108.146 91.552 108.248 91.3822 108.316 91.1785C108.35 91.1106 108.384 91.0426 108.384 90.9408C108.451 90.805 108.485 90.6352 108.553 90.4994C108.587 90.4314 108.587 90.3635 108.621 90.2956L108.655 90.2277C108.723 90.0579 108.791 89.8542 108.825 89.6844C108.655 89.8202 108.587 89.8881 108.519 89.99ZM76.0913 80.2446C75.7517 80.4144 75.3782 80.5842 75.0047 80.8219C73.986 81.3991 72.8315 82.1801 71.8808 83.1988C71.7449 83.3346 71.6431 83.4704 71.5072 83.5723C71.3035 83.81 71.1337 84.0477 70.9639 84.2854C70.93 84.3193 70.93 84.3533 70.896 84.3533C70.8621 84.3873 70.8281 84.4212 70.8281 84.4552L70.6244 84.7608C70.5904 84.7947 70.5904 84.8287 70.5565 84.8966C70.4886 85.0324 70.3867 85.1682 70.3188 85.338C70.2509 85.4739 70.183 85.6436 70.115 85.7795C69.6057 86.9679 69.402 88.3601 69.7415 89.9561V89.8881V89.7523V89.5825C69.7415 89.5486 69.7415 89.4807 69.7755 89.4128C69.7755 89.3448 69.8094 89.2769 69.8094 89.243V89.209C69.8094 89.1411 69.8434 89.0732 69.8434 89.0053V88.9713C69.8434 88.9034 69.8773 88.8355 69.9113 88.7676V88.7336C69.9453 88.6657 69.9453 88.5639 69.9792 88.4959V88.428C70.0132 88.3601 70.0471 88.2583 70.0811 88.1564C70.115 88.0206 70.183 87.8847 70.2509 87.7489C70.2848 87.715 70.2848 87.647 70.3188 87.6131L70.3527 87.5791C70.4206 87.4773 70.4546 87.3754 70.5225 87.2735C70.5565 87.1717 70.6244 87.1037 70.6923 87.0019C70.7263 86.9679 70.7262 86.934 70.7602 86.934C70.7942 86.8661 70.8621 86.7981 70.896 86.7302C70.93 86.6963 70.93 86.6623 70.9639 86.6623C71.0319 86.5604 71.0998 86.4925 71.1677 86.4246C71.1677 86.4246 70.115 89.8881 71.0658 92.4348V92.4009V92.333V92.2311V92.0953V91.9255V91.7218V91.518V91.4841V91.1785C71.0658 91.0766 71.0658 90.9747 71.0998 90.9068V90.8729C71.0998 90.771 71.1337 90.6691 71.1337 90.5673C71.1337 90.5333 71.1337 90.4994 71.1677 90.4654V90.3975C71.2016 90.3296 71.2016 90.2277 71.2356 90.1598C71.2695 90.0579 71.3035 89.9221 71.3375 89.8202C71.3375 89.7863 71.3714 89.7523 71.3714 89.7184C71.4054 89.6165 71.4733 89.5146 71.5412 89.4128C71.5412 89.4128 71.5412 90.2277 71.711 91.2124C71.7449 91.3483 71.7449 91.518 71.7789 91.6878C71.8128 91.7897 71.8128 91.8915 71.8468 91.9934C71.7789 90.9408 71.8468 89.9561 72.0166 89.0053C72.0505 88.7336 72.1184 88.4959 72.1864 88.2243C72.1864 88.1903 72.1864 88.1564 72.2203 88.1224L72.4241 87.4093C72.4241 87.3754 72.458 87.3075 72.458 87.2735C72.5259 87.0358 72.5938 86.8321 72.6957 86.5944C72.6957 86.5605 72.7297 86.5265 72.7297 86.4925C72.8994 86.0172 73.1032 85.6097 73.3069 85.1682C73.3069 85.1343 73.3409 85.1003 73.3409 85.0664C73.4088 84.8966 73.5106 84.7608 73.5786 84.591C73.6125 84.557 73.6125 84.5231 73.6465 84.4552C73.6804 84.4212 73.6804 84.3873 73.7144 84.3533C73.8163 84.1835 73.9181 83.9798 74.02 83.81C74.02 83.776 74.0539 83.7421 74.0539 83.7421C74.1558 83.5723 74.2916 83.3686 74.3935 83.1988L74.801 82.5876L75.1066 82.1801C75.1405 82.1462 75.1745 82.0782 75.2085 82.0443C75.4461 81.7387 75.6838 81.4331 75.9215 81.1954C76.6006 80.4144 77.1439 79.939 77.3137 79.7692C77.1779 79.8032 77.0421 79.8711 76.9063 79.939C76.6686 79.973 76.3969 80.0748 76.0913 80.2446Z" fill="#F2D2AC"/>
<path d="M94.5971 70.5331C94.5971 70.5331 94.5632 70.4652 94.5292 70.3293C94.3594 69.854 93.7482 68.7674 91.8806 69.2088C89.9451 69.6502 89.4698 71.3141 89.3679 71.8574C89.3339 71.9592 89.3339 72.0611 89.3339 72.0611L89.4018 72.0951C89.6395 71.8574 90.1149 71.8234 90.5563 72.0271C90.7601 72.129 90.9299 72.2648 91.0657 72.4346C91.2694 72.6723 91.3373 72.944 91.2355 73.1477C91.2015 73.1817 91.2015 73.2496 91.1676 73.2835C91.1676 73.2835 91.2355 73.3175 91.3713 73.3175C91.9485 73.4193 93.4766 73.5552 94.1896 72.3667C94.2236 72.2988 94.2576 72.2648 94.2915 72.1969C94.1217 72.129 93.9859 71.9253 93.952 71.6197C93.918 71.4839 93.918 71.348 93.952 71.1782C94.0538 70.7368 94.3255 70.4312 94.5971 70.5331ZM86.6514 86.1529C85.429 86.5603 84.3424 86.8999 83.4935 87.1376H83.6293C85.0894 87.1376 87.3984 87.0697 90.1489 86.5603C95.1404 85.6096 101.592 83.1987 106.957 77.0187V76.9847C106.923 76.5433 106.753 75.7284 106.108 75.1511C106.006 75.0492 105.871 74.9474 105.701 74.8795C105.667 74.8795 105.667 74.8455 105.633 74.8455C105.463 74.7776 105.327 74.7097 105.191 74.6418C105.09 74.5739 104.954 74.5399 104.886 74.472V74.438C104.58 75.0153 104.207 75.5925 103.799 76.1358C103.663 76.3396 103.494 76.5093 103.324 76.7131C101.864 78.4109 99.8603 79.9389 97.6532 81.2632C93.9859 83.4024 89.8433 85.0663 86.6514 86.1529ZM53.6122 81.3311C53.5782 81.399 53.5103 81.433 53.4763 81.5009L53.4424 81.5688C53.3745 81.6367 53.3405 81.7386 53.3066 81.8065L53.2726 81.8405C53.2047 81.9423 53.1707 82.0442 53.1028 82.1461L53.0689 82.18C53.0689 82.214 53.0349 82.2479 53.0349 82.2479C53.0009 82.3158 52.967 82.3837 52.967 82.4517V82.5196L52.8651 82.8252C52.7972 83.1308 52.7293 83.4024 52.6953 83.6062C52.6953 83.6741 52.6614 83.7759 52.6614 83.8439C52.6274 83.9797 52.6274 84.1155 52.6274 84.1495V83.8778C52.6274 83.708 52.5935 83.5043 52.5935 83.3345V82.8931V82.7573V82.5535V82.2479V82.0102V81.8405V81.7725V81.6707C52.5935 81.5688 52.6274 81.433 52.6274 81.3311V81.2972C52.6274 81.2292 52.6274 81.1274 52.6614 81.0595V81.0255C52.6953 80.8557 52.6953 80.6859 52.7293 80.5162V80.4483V80.3464C52.7633 80.0747 52.8312 79.8031 52.8991 79.5314V79.4975C52.933 79.2598 53.0009 79.0561 53.0689 78.8184V78.7844C53.1028 78.6825 53.1368 78.5807 53.1368 78.5128C53.1707 78.3769 53.2047 78.2411 53.2386 78.0713V78.0374C53.2386 78.0034 53.2726 77.9015 53.3066 77.7997C53.3066 77.7657 53.3405 77.6978 53.3405 77.6639C53.3745 77.5959 53.3745 77.4941 53.4084 77.4262L53.4424 77.3582C53.4084 77.3243 53.3405 77.3243 53.2726 77.2903H53.2386L53.1707 77.2564C52.8312 77.1545 52.4916 77.0526 52.152 77.0187H52.0841C51.8464 76.9847 51.6427 76.9847 51.405 76.9847C51.2692 76.9847 51.1334 76.9847 50.9975 77.0187C50.8957 77.0187 50.7598 77.0526 50.658 77.0526L50.1486 77.1545C50.0807 77.1545 50.0468 77.1885 50.0128 77.1885C49.9449 77.2224 49.843 77.2224 49.7751 77.2564C49.7412 77.2564 49.7072 77.2903 49.6733 77.2903C49.6053 77.3243 49.5714 77.3243 49.5035 77.3582C49.4016 77.3922 49.2997 77.4601 49.1979 77.4941C49.1639 77.528 49.096 77.528 49.062 77.562C48.9262 77.6299 48.7904 77.6978 48.6546 77.7997C48.5867 77.8336 48.5527 77.8676 48.5187 77.9015C48.4508 77.9355 48.3829 77.9695 48.349 78.0374L48.2811 78.0713C48.2131 78.1053 48.1452 78.1732 48.0773 78.2072C48.0094 78.2411 47.9755 78.309 47.9075 78.343C47.8396 78.4109 47.7717 78.4448 47.7038 78.5128L47.6019 78.6146C47.5001 78.7165 47.3982 78.8184 47.2963 78.9542C47.2624 79.0221 47.1945 79.0561 47.1605 79.124C47.0926 79.2258 46.9907 79.3277 46.9228 79.4296L46.8889 79.4975C46.8549 79.5654 46.8209 79.6333 46.787 79.6673C46.753 79.7012 46.753 79.7352 46.7191 79.8031C46.5833 80.0747 46.4474 80.3464 46.3456 80.618C46.3456 80.652 46.3116 80.6859 46.3116 80.7539L46.2097 81.1613C46.2097 81.2292 46.1758 81.2632 46.1758 81.3311C46.1758 81.3651 46.2097 81.399 46.2097 81.433C46.2777 81.5348 46.3116 81.6707 46.3795 81.7725L46.4135 81.8065L46.4474 81.8405C46.5153 81.9423 46.5493 82.0442 46.6172 82.18C46.787 82.4856 46.9907 82.7912 47.1605 83.0289C47.1945 83.0629 47.2284 83.0968 47.2284 83.1308L47.2624 83.3345L47.2963 83.3685C47.4322 83.5383 47.568 83.708 47.6698 83.8439C47.8396 84.0476 48.0094 84.2174 48.1113 84.3192L48.1792 84.3872L48.2131 84.4211L48.2811 84.489C48.2471 84.4211 48.2471 84.3872 48.2131 84.3192C48.0773 83.9118 47.9755 83.4703 47.9075 83.0629V82.995C47.8736 82.7233 47.8396 82.4517 47.8396 82.214C47.8736 82.3158 47.9075 82.4177 47.9755 82.4856L48.1792 82.8931L48.2131 82.927C48.4848 83.4703 48.7904 83.9118 49.062 84.2853C49.4016 84.7267 49.6733 84.9984 49.843 85.1681C49.877 85.2021 49.9109 85.2361 49.9449 85.2361L50.0128 85.304C49.843 84.8625 49.7412 84.4211 49.6733 83.9797C49.6393 83.8439 49.6393 83.6741 49.6053 83.5383C49.5714 83.3345 49.5714 83.1647 49.5714 82.995C49.7072 83.3006 49.8091 83.5722 49.9449 83.8439V83.8778C50.4203 84.7946 50.9636 85.4737 51.3031 85.8473L51.3371 85.8812C51.405 85.9491 51.439 86.017 51.5069 86.051L51.6088 86.1529L51.6767 86.2208L51.7106 86.2547L51.6767 86.1868C51.6427 86.1189 51.6427 86.051 51.6088 86.017C51.5408 85.7794 51.4729 85.5756 51.439 85.3379C51.405 85.2021 51.3711 85.0323 51.3371 84.8965C51.3031 84.7607 51.3031 84.6248 51.2692 84.489V84.4211C51.2692 84.3532 51.2692 84.2853 51.2352 84.2174V84.1495C51.2352 83.9797 51.2013 83.7759 51.2013 83.6062C51.2352 83.708 51.3031 83.8439 51.3371 83.9457C51.3711 84.0136 51.405 84.1155 51.439 84.1834V84.2174L51.4729 84.2513C51.5069 84.3532 51.5748 84.4211 51.6088 84.523C51.7106 84.6928 51.7785 84.8286 51.8804 84.9644C51.9823 85.1342 52.1181 85.304 52.22 85.4398C52.2879 85.5077 52.3558 85.6096 52.3897 85.6775C52.4577 85.7794 52.5256 85.8473 52.5935 85.9491C52.6614 86.017 52.7293 86.085 52.7633 86.1529L52.7972 86.1868L52.933 86.3227L53.0349 86.4245L53.1707 86.5603L53.2047 86.5943V86.4924V85.6096V85.5077C53.2047 85.1681 53.2386 84.8625 53.2386 84.5569V84.3872V84.2853V84.1155C53.2386 83.8778 53.2726 83.6401 53.2726 83.4024C53.2726 83.1987 53.3066 82.995 53.3066 82.8252V82.7573V82.6894V82.6214V82.4856V82.3498V82.1121V81.9763C53.3066 81.9084 53.3066 81.8405 53.3405 81.8065V81.7046V81.6367V81.399L53.6122 81.3311ZM96.1931 90.3295C96.6345 90.0918 97.042 89.922 97.3476 89.7522C97.9588 89.4126 98.2983 89.175 98.2644 89.107C98.2304 89.0391 97.8569 89.141 97.1778 89.3787C96.8382 89.5145 96.4307 89.6164 95.9893 89.7862C95.7516 89.888 95.5139 89.922 95.2423 90.0239C94.9706 90.0918 94.699 90.1936 94.3934 90.2616C93.8161 90.4313 93.137 90.5672 92.4239 90.7709C92.0844 90.8388 91.7109 90.9067 91.3373 91.0086C90.9638 91.0765 90.5563 91.1444 90.1489 91.2123C88.519 91.45 86.7533 91.6198 84.8857 91.5179C83.901 91.484 82.5767 91.1784 81.5919 90.7709H81.558C81.8636 88.7675 83.833 88.2581 83.833 88.2581H82.2371C81.0147 88.3261 80.4714 89.4466 80.3016 89.888C80.2677 89.9559 80.2677 90.0239 80.2337 90.0918C80.0979 90.4992 80.0639 90.9746 80.0639 91.484C80.1318 92.4008 80.4714 93.3516 81.2863 94.1325C81.8296 94.6419 82.6785 95.0494 83.7651 95.321C82.7804 94.8456 81.8636 93.8609 81.558 92.1291C82.6446 92.4347 83.867 92.5706 84.7838 92.6045C86.7533 92.7064 88.6209 92.5366 90.2847 92.231C90.6922 92.1291 91.0996 92.0612 91.5071 91.9594C91.8806 91.8575 92.2881 91.7556 92.6277 91.6538C93.3407 91.45 93.9859 91.2463 94.5971 91.0086C94.9027 90.9067 95.1744 90.8049 95.446 90.669C95.7177 90.5332 95.9893 90.4653 96.1931 90.3295Z" fill="#F2D2AC"/>
<path d="M91.8111 68.0195C92.8298 67.9177 93.5429 68.1554 94.0522 68.5628C94.1201 68.0874 94.0862 67.5441 93.9843 66.9669C93.8825 66.3217 93.6448 65.7784 93.4071 65.337C93.3052 65.0993 92.8298 64.4202 92.3205 64.5221C91.6753 64.6579 91.3697 65.9143 91.6414 67.4083C91.7093 67.6121 91.7432 67.8158 91.8111 68.0195ZM79.9944 71.0756C81.1489 70.736 82.2355 70.9058 82.9486 71.0077C83.2882 71.0756 83.5598 71.1095 83.6956 71.1095C83.7975 71.1095 83.8654 71.0756 83.8994 71.0416C83.9673 70.9737 83.7296 70.7021 83.2882 70.4644C83.1863 70.3965 83.0844 70.3625 82.9826 70.2946C82.8807 70.2606 82.7449 70.1927 82.643 70.1588C82.5411 70.1248 82.4393 70.0908 82.3034 70.0569H82.2695C82.1676 70.0229 82.0318 69.989 81.9299 69.989H81.862C81.7601 69.955 81.6243 69.955 81.4885 69.9211H81.4206C81.2848 69.9211 81.1489 69.8871 81.0131 69.8871H80.6396C80.5717 69.8871 80.5038 69.8871 80.4359 69.9211H80.334C80.2661 69.9211 80.1982 69.955 80.1303 69.955C80.0963 69.955 80.0623 69.955 80.0284 69.989C79.9265 70.0229 79.8246 70.0229 79.7228 70.0569H79.6888C79.6209 70.0908 79.553 70.0908 79.4511 70.1248C79.3832 70.1588 79.2814 70.1588 79.2134 70.1927C79.1455 70.2267 79.0437 70.2606 78.9757 70.2946L78.772 70.3965C78.7041 70.4304 78.6362 70.4644 78.5343 70.4983C78.4664 70.5323 78.3985 70.5662 78.3645 70.6002C78.2966 70.6341 78.2287 70.7021 78.1608 70.736C78.1268 70.77 78.0589 70.8039 78.025 70.8379C77.9571 70.8718 77.8892 70.9397 77.8212 70.9737C77.7873 71.0077 77.7533 71.0416 77.6854 71.0756C77.6175 71.1435 77.5496 71.1774 77.4817 71.2454C77.4477 71.2793 77.4138 71.3133 77.3798 71.3133C77.3119 71.3812 77.244 71.4491 77.1761 71.483L77.1082 71.551C77.0402 71.6189 76.9723 71.7207 76.9044 71.7886C76.429 72.3319 76.2932 72.8073 76.3951 72.8413C76.429 72.8752 76.497 72.8752 76.5649 72.8413C77.0063 72.6715 78.0929 71.6528 79.7228 71.1435C79.8586 71.1435 79.9265 71.1095 79.9944 71.0756ZM93.9843 71.6189C94.0183 71.8905 94.1541 72.1282 94.3239 72.1961C94.5955 72.298 94.8332 71.9924 94.9351 71.517V71.3812C94.969 70.9737 94.8332 70.6002 94.5955 70.4983C94.3578 70.3964 94.0862 70.7021 93.9843 71.1774C93.9843 71.3472 93.9504 71.483 93.9843 71.6189ZM89.5021 72.9092C89.6379 73.079 89.8077 73.2148 90.0454 73.3167C90.5208 73.5544 90.9962 73.4865 91.2339 73.2488C91.2678 73.2148 91.3018 73.1808 91.3018 73.1129C91.4037 72.9092 91.3018 72.6376 91.132 72.3999C90.9962 72.264 90.8264 72.0943 90.6227 71.9924C90.1473 71.7886 89.6719 71.8226 89.4682 72.0603C89.4342 72.0943 89.4003 72.1282 89.3663 72.1961C89.2305 72.4338 89.2984 72.6715 89.5021 72.9092ZM107.635 86.4237C107.057 87.1028 106.412 87.782 105.699 88.3932C102.541 91.1776 97.8893 93.6224 94.5276 94.5052C91.9809 95.2523 89.4682 95.6258 87.2271 95.6258C85.9367 95.6258 84.7483 95.49 83.7635 95.2523C82.677 94.9806 81.7941 94.5732 81.2848 94.0638C80.4698 93.3168 80.1303 92.3321 80.0623 91.4153C80.0284 90.9399 80.0963 90.4645 80.2321 90.0231C80.2661 89.9551 80.2661 89.8872 80.3 89.8193C80.4698 89.3439 81.0131 88.2573 82.2355 88.1894H83.7635C87.1252 88.1894 90.351 87.748 93.3392 86.8991C97.6855 85.6767 101.557 83.6054 104.884 80.6851C105.054 80.5154 105.224 80.3795 105.394 80.2098L107.023 76.9839C101.658 83.1639 95.2407 85.5748 90.2152 86.4916C87.4648 87.001 85.1557 87.0689 83.6956 87.0689H82.2016C81.8281 87.1028 81.4545 87.1707 81.1489 87.3405C80.5038 87.6461 79.9605 88.1894 79.587 88.8346C79.1455 89.6495 78.9418 90.6682 79.0437 91.7209C79.1455 92.5698 79.4511 93.4187 79.9944 94.1657C80.0284 94.1996 80.0284 94.2336 80.0623 94.2676C80.1303 94.3355 80.1982 94.4373 80.2661 94.5052L80.5717 94.8109C81.7941 95.9654 84.171 96.6784 87.261 96.6784C89.3323 96.6784 91.7432 96.3728 94.2899 95.6598C101.794 93.3168 105.122 90.3966 106.616 88.4271L106.922 88.0196C107.431 87.2387 107.635 86.6954 107.703 86.4237V86.3898C107.737 86.3218 107.737 86.2879 107.737 86.2879L107.635 86.4237Z" fill="#664F44"/>
<path d="M94.2562 33.0105C93.577 32.3993 92.7961 31.9918 91.9811 31.6862C91.8453 31.6522 91.6755 31.6183 91.5397 31.5843C91.4718 31.5504 91.3699 31.5164 91.302 31.4824C90.5889 31.3127 89.8419 31.2108 89.0948 31.2108C85.3936 31.1768 81.3868 33.0105 79.1118 34.2329C78.9759 34.3008 78.8741 34.3687 78.7382 34.4366C78.5345 34.5385 78.3647 34.6404 78.161 34.7762C77.8214 34.9799 77.5158 35.1837 77.1763 35.3874C77.1423 35.4213 77.0744 35.4553 77.0404 35.4893L76.2934 34.8101L75.9539 34.5045L75.6482 34.2329L75.5124 34.0971L72.728 31.5504L72.4903 31.3127L72.2187 31.041H72.1847L71.5056 31.2787L70.7246 31.5504C70.2492 31.3806 69.7059 31.3127 69.0947 31.3127C67.8723 31.3127 66.3103 31.6183 64.6125 32.2974C62.9147 32.9765 61.0132 33.9612 59.0437 35.2516C55.0709 37.8662 50.7924 41.6353 46.7856 46.2533C45.3934 47.8832 44.1031 49.5131 42.9146 51.143C41.7941 52.705 40.7414 54.3009 39.8586 55.8289C38.0249 58.9529 36.6667 61.9071 35.9197 64.5217C35.4103 66.2534 35.1387 67.8154 35.1387 69.1397C35.1387 70.0905 35.2745 70.9054 35.5122 71.5845C35.5801 71.7883 35.682 71.992 35.7838 72.1618C35.9876 72.5353 36.2253 72.8749 36.5309 73.1465L39.5869 75.6593L39.9265 75.9309V75.897C39.9944 75.7951 40.0623 75.6932 40.1642 75.5914L40.1981 75.5574C40.2321 75.5234 40.266 75.4895 40.266 75.4555C40.3339 75.3537 40.4019 75.2518 40.4698 75.1839C40.5037 75.116 40.5716 75.082 40.6056 75.0141C40.6396 74.9462 40.7075 74.9122 40.7414 74.8443L40.8093 74.7764C40.8433 74.7085 40.9112 74.6745 40.9452 74.6066C41.0131 74.5387 41.081 74.4369 41.1489 74.3689L41.2847 74.2331L41.3187 74.1992L41.5564 73.9615L41.6922 73.8256C41.7601 73.7577 41.862 73.6898 41.9299 73.588C41.9638 73.554 42.0318 73.4861 42.0997 73.4521C42.2015 73.3842 42.2694 73.3163 42.3713 73.2484C42.4392 73.2144 42.4732 73.1805 42.5411 73.1126C42.643 73.0447 42.7448 72.9767 42.8127 72.9088C42.8807 72.8749 42.9146 72.8409 42.9825 72.807L43.0504 72.773C43.1183 72.7051 43.2202 72.6711 43.2881 72.6032C43.3221 72.5693 43.39 72.5353 43.424 72.5014C43.4919 72.4674 43.5598 72.3995 43.6277 72.3655L43.8314 72.2637L43.8993 72.2297C44.0691 72.1278 44.2049 72.0599 44.3747 71.992C44.4426 71.9581 44.4766 71.9581 44.5445 71.9241C44.6124 71.8901 44.6464 71.8562 44.7143 71.8562L44.7822 71.8222C44.8161 71.8222 44.8501 71.7883 44.8841 71.7883L45.0878 71.6864L45.1557 71.6525C45.2236 71.6185 45.3255 71.5845 45.3934 71.5506C45.4613 71.5166 45.5632 71.4827 45.6311 71.4487L45.9367 71.3469C45.9707 71.3469 46.0046 71.3129 46.0725 71.3129C46.1065 71.3129 46.1404 71.2789 46.2083 71.2789C46.3102 71.245 46.4121 71.211 46.514 71.211C46.6158 71.1771 46.6837 71.1771 46.7856 71.1431C46.8535 71.1431 46.9214 71.1092 46.9893 71.0752C47.0233 71.0752 47.0572 71.0752 47.0572 71.0412C47.0912 71.0412 47.1252 71.0412 47.1591 71.0073H47.227C47.5666 70.9394 47.9401 70.9054 48.3815 70.9054H48.4494C48.8909 70.9054 49.3323 70.9054 49.8416 70.9394C49.9435 70.9394 50.0793 70.9733 50.1812 70.9733C50.2152 70.9394 50.2152 70.8715 50.2491 70.8375L50.8603 69.4114C52.0827 66.6949 53.441 64.284 54.8671 62.1448C55.3425 61.4317 55.8519 60.7186 56.3612 60.0395C58.4325 57.2551 60.6057 55.0479 62.6091 53.3162C63.0505 52.9427 63.492 52.5692 63.9334 52.2296C64.5107 51.7542 65.0879 51.3467 65.6312 50.9393C66.0726 50.6337 66.4801 50.3281 66.8876 50.0564C67.5667 49.615 68.1779 49.2415 68.7212 48.9359C68.891 48.834 69.0608 48.7321 69.1966 48.6642C69.4343 48.5284 69.638 48.4265 69.8418 48.3246C69.672 48.3246 69.4682 48.3246 69.2985 48.3586C69.1287 48.3586 68.9589 48.3926 68.7552 48.3926H68.6193C68.4496 48.4265 68.2458 48.4265 68.076 48.4605C67.7365 48.5284 67.363 48.5963 67.0234 48.6982C66.8876 48.7321 66.7857 48.7661 66.6499 48.8C67.4988 48.2228 68.3477 47.7474 69.1966 47.4078C69.7399 47.1701 70.2832 46.9664 70.8265 46.7966C71.5396 46.5589 72.2526 46.3892 72.8978 46.2873C73.3392 46.2194 73.7467 46.1515 74.1202 46.1175C74.4937 46.0835 74.8673 46.0496 75.1729 46.0496C76.2934 46.0156 76.9725 46.0835 76.9725 46.0835C76.8028 45.8798 76.5651 45.71 76.3274 45.5742C75.8859 45.3026 75.4106 45.1667 75.0031 45.0309C74.8333 44.997 74.6975 44.963 74.5617 44.929C74.4598 44.8951 74.3579 44.8951 74.256 44.8951C74.4258 44.8272 74.6296 44.7932 74.7993 44.7593C75.0031 44.7253 75.1729 44.6574 75.3766 44.6234C76.9386 44.2839 78.3647 44.2499 79.4174 44.3178C80.7077 44.3857 81.4887 44.6234 81.4887 44.6234C81.251 44.2839 80.9793 44.0122 80.6398 43.8085C80.4021 43.6387 80.1644 43.5029 79.9267 43.401C80.3681 43.435 80.7756 43.5029 81.1831 43.5708C82.2357 43.7745 83.1186 44.0122 83.8317 44.2499C84.0693 44.3178 84.2731 44.4197 84.4768 44.4876C84.5447 44.5216 84.5787 44.5216 84.6466 44.5555C85.2918 44.8272 85.6653 45.0309 85.6653 45.0309C85.5295 44.6913 85.2578 44.3518 84.9862 44.0801L84.7824 43.8764H84.8164C84.8503 43.8764 84.8843 43.8764 84.9522 43.9104C85.0201 43.9104 85.0541 43.9443 85.1559 43.9443C85.4276 44.0122 85.869 44.1141 86.3784 44.3178C86.4123 44.3178 86.4123 44.3518 86.4463 44.3518C86.5142 44.3857 86.5821 44.4197 86.65 44.4197C86.8198 44.4876 87.0235 44.5555 87.1933 44.6574C87.3631 44.7253 87.5329 44.8272 87.7366 44.929C87.8385 44.963 87.9403 45.0309 88.0083 45.0649C88.212 45.1667 88.4157 45.3026 88.6195 45.4384C88.8232 45.5742 89.0269 45.71 89.2307 45.8798L89.3325 45.9817C89.4684 46.0835 89.6042 46.2194 89.74 46.3552C90.0117 46.5929 90.2494 46.8645 90.487 47.1701C90.7587 47.5097 90.9964 47.9172 91.2001 48.3586C91.2001 48.3926 91.2341 48.3926 91.2341 48.4265C91.3359 48.2907 91.4718 48.087 91.6755 47.7813C93.3733 45.2346 98.3309 37.1191 94.2562 33.0105Z" fill="#132134"/>
<path d="M70.2492 34.5735L69.9776 33.2492L70.4869 31.6872L70.7586 31.5853C70.2832 31.4156 69.7399 31.3477 69.1287 31.3477C67.9063 31.3477 66.3443 31.6533 64.6465 32.3324C62.9487 33.0115 61.0471 33.9962 59.0777 35.2866C55.0709 37.8672 50.7924 41.6363 46.7856 46.2544C45.3934 47.8843 44.1031 49.5141 42.9146 51.144C41.7941 52.706 40.7414 54.3019 39.8586 55.83C38.0249 58.9539 36.6667 61.9081 35.9197 64.5227C35.4103 66.2545 35.1387 67.8165 35.1387 69.1407C35.1387 70.0915 35.2745 70.9065 35.5122 71.5856C35.5801 71.7893 35.682 71.9931 35.7838 72.1628C35.9876 72.5363 36.2253 72.8759 36.5309 73.1476L39.5869 75.6603L39.9265 75.932V75.898C39.9944 75.7961 40.0623 75.6943 40.1642 75.5924L40.1981 75.5584C40.2321 75.5245 40.266 75.4905 40.266 75.4566C40.3339 75.3547 40.4019 75.2528 40.4698 75.1849C40.5037 75.117 40.5716 75.0831 40.6056 75.0151C40.6396 74.9472 40.7075 74.9133 40.7414 74.8454L40.8093 74.7774C40.8433 74.7095 40.9112 74.6756 40.9452 74.6077C41.0131 74.5398 41.081 74.4379 41.1489 74.37L41.2847 74.2342L41.3187 74.2002L41.5564 73.9625L41.6922 73.8267C41.7601 73.7588 41.862 73.6909 41.9299 73.589C41.9638 73.555 42.0318 73.4871 42.0997 73.4532C42.2015 73.3852 42.2694 73.3173 42.3713 73.2494C42.4392 73.2155 42.4732 73.1815 42.5411 73.1136C42.643 73.0457 42.7448 72.9778 42.8127 72.9099C42.8807 72.8759 42.9146 72.842 42.9825 72.808L43.0504 72.774C43.4919 70.9065 44.2389 68.8351 45.2576 66.628C46.5139 63.9455 48.1778 61.0592 50.2491 58.1729C51.5394 56.3393 52.9656 54.5057 54.5276 52.706C56.5649 50.363 58.6702 48.2238 60.7415 46.3562C62.1677 45.0999 63.5599 43.9454 64.9521 42.9267L65.3596 42.6211C65.7331 42.3494 66.1066 42.1117 66.4801 41.8401C67.2611 41.2968 68.076 40.7874 68.8231 40.346L68.3816 39.9046L68.3137 39.8367L67.7365 39.2934L64.5107 36.2373L64.239 33.9283L64.2051 33.8944L66.1066 33.0794L70.2492 34.5735Z" fill="#2F83C1"/>
<path d="M72.2187 31.041L70.453 31.6522L71.234 34.912L66.1066 33.0444L64.2051 33.8594L64.239 33.8933L70.8944 39.8696L70.9623 39.8356L71.0302 39.7677L71.5396 39.3602C71.6075 39.3263 71.6415 39.2584 71.7094 39.2244C71.9471 39.0207 72.2187 38.8509 72.4564 38.6472L69.638 36.1005L73.9165 37.5945C74.0184 37.5266 74.1542 37.4248 74.2561 37.3568L73.543 34.5385L75.6143 36.44H75.6483C75.7841 36.3382 75.9199 36.2363 76.0897 36.1684L76.1237 36.1344L76.1916 36.1005C76.2255 36.1005 76.2255 36.0665 76.2595 36.0665C76.3274 36.0326 76.3953 35.9986 76.4293 35.9307C76.4293 35.9307 76.4632 35.9307 76.4632 35.8967C76.667 35.7609 76.8707 35.6251 77.0744 35.5232L72.2187 31.041Z" fill="#FFD250"/>
<path d="M70.4544 31.6521L70.726 31.5502C70.2506 31.3804 69.7073 31.3125 69.0961 31.3125C67.8737 31.3125 66.3117 31.6181 64.6139 32.2972C62.9161 32.9763 61.0146 33.9611 59.0451 35.2514C55.0723 37.866 50.7938 41.6351 46.787 46.2532C45.3948 47.8831 44.1045 49.5129 42.916 51.1428L49.1639 57.187C50.4543 55.3873 51.8804 53.5877 53.4084 51.788C55.4798 49.4111 57.619 47.2379 59.7582 45.3024C61.8295 43.4348 63.9009 41.8389 65.9382 40.4806L64.4781 36.304L64.2404 33.9271L64.2065 33.8932L66.108 33.0782L70.2167 34.6062L69.945 33.282L70.4544 31.6521Z" fill="#4D9ED7"/>
<path d="M70.4544 31.6523L69.979 33.2483L70.2506 34.5726L71.2354 34.9461L70.4544 31.6523ZM69.6055 36.1006L73.8839 37.5947L72.4578 38.6812L69.6055 36.1006ZM73.5104 34.5386L74.2235 37.357L75.6157 36.4062L73.5104 34.5386Z" fill="#132134"/>
<path d="M88.6198 31.6528L89.3329 31.551C90.012 31.4831 90.6572 31.4831 91.2684 31.5849H91.54C91.4721 31.551 91.3702 31.517 91.3023 31.4831C90.5893 31.3133 89.8422 31.2114 89.0952 31.2114C85.394 31.1774 81.3872 33.0111 79.1121 34.2335C78.9763 34.3014 78.8744 34.3693 78.7386 34.4372C78.5349 34.5391 78.3651 34.641 78.1613 34.7768C77.8218 34.9805 77.5162 35.1843 77.1766 35.388C77.1427 35.422 77.0747 35.4559 77.0408 35.4899C76.8371 35.6257 76.6333 35.7276 76.4296 35.8634C76.4296 35.8634 76.3956 35.8634 76.3956 35.8973C76.3277 35.9313 76.2598 35.9653 76.2258 36.0332C76.1919 36.0332 76.1919 36.0671 76.1579 36.0671L76.09 36.1011L76.0561 36.135C75.9202 36.2369 75.7844 36.3048 75.6146 36.4067H75.5807C75.5467 36.4406 75.5128 36.4406 75.4788 36.4746H75.4449C75.4109 36.5085 75.3769 36.5085 75.3769 36.5425C75.1393 36.6783 74.9355 36.8481 74.6978 36.9839C74.528 37.0858 74.3922 37.1877 74.2224 37.2895L74.1885 37.3235C74.0866 37.3914 73.9508 37.4933 73.8489 37.5612C73.4754 37.8328 73.1019 38.1045 72.7623 38.3761C72.7284 38.4101 72.6944 38.444 72.6605 38.444C72.6265 38.478 72.5925 38.478 72.5586 38.512C72.5246 38.5459 72.4907 38.5459 72.4567 38.5799L72.4228 38.6138C72.1851 38.8176 71.9134 38.9873 71.6757 39.1911C71.6078 39.225 71.5399 39.2929 71.506 39.3269L70.9966 39.7344L70.9287 39.8023L70.8608 39.8362C70.3854 40.2098 69.944 40.6172 69.4686 41.0247C68.7216 41.6699 67.9745 42.349 67.2275 43.0621C67.1256 43.1639 67.0238 43.2318 66.9558 43.3337C65.0203 45.1673 63.1867 47.1368 61.455 49.1402C59.6213 51.2455 57.8896 53.4526 56.2597 55.6258C55.3768 56.7464 54.6298 57.765 53.9846 58.6139C52.7622 60.3117 52.0831 61.3304 52.117 61.3644C52.117 61.3644 52.2529 61.2625 52.4227 60.9909C52.2529 61.2286 52.117 61.4662 51.9473 61.7039C54.6298 58.0367 57.6858 54.2676 60.9796 50.6682C62.983 48.4611 65.0883 46.3558 67.2954 44.3524C68.2462 43.4695 69.2309 42.6206 70.2496 41.8057C70.5552 41.534 70.8947 41.2964 71.2004 41.0247C71.3701 40.8889 71.5399 40.787 71.6757 40.6512C71.7776 40.5833 71.8455 40.5154 71.9474 40.4474L72.4567 40.04C72.6265 39.9042 72.7963 39.7683 72.9661 39.6665C73.0679 39.5985 73.1358 39.5306 73.2377 39.4627C73.4414 39.2929 73.6791 39.1571 73.8829 38.9873C74.0187 38.8855 74.1545 38.7836 74.2904 38.7157C74.6978 38.4101 75.1393 38.1384 75.5467 37.8668C75.5807 37.8328 75.6146 37.8328 75.6486 37.7989C75.7165 37.7649 75.7844 37.697 75.8523 37.6631C75.9542 37.5951 76.0221 37.5612 76.124 37.4933C76.1579 37.4593 76.1919 37.4593 76.2258 37.4254C76.2938 37.3914 76.3277 37.3574 76.3956 37.3235C76.3956 37.3235 76.4296 37.3235 76.4296 37.2895H76.4635C76.6333 37.1877 76.8371 37.0518 77.0068 36.95C77.0408 36.916 77.0747 36.916 77.1087 36.8821C77.1766 36.8481 77.2106 36.8142 77.2785 36.7802C77.4822 36.6444 77.686 36.5085 77.9236 36.3727C77.9916 36.3388 78.0255 36.3048 78.0934 36.2709C78.1274 36.2369 78.1613 36.2369 78.1953 36.2029C78.2632 36.169 78.2972 36.135 78.3651 36.1011C78.6028 35.9652 78.8405 35.7955 79.0782 35.6596C79.2819 35.5238 79.5196 35.422 79.7233 35.2861C80.9457 34.607 82.0663 33.9958 83.1529 33.5204C85.2242 32.5017 87.0239 31.9245 88.6198 31.6528Z" fill="white"/>
</g>
<defs>
<clipPath id="clip0_40_165">
<rect width="78.812" height="85" fill="white" transform="translate(33 29)"/>
</clipPath>
</defs>
</svg>
