<svg width="144" height="144" viewBox="0 0 144 144" fill="none" xmlns="http://www.w3.org/2000/svg">
<g clip-path="url(#clip0_40_61)">
<path d="M32.0127 82.6852C32.0127 86.5805 32.8673 89.5708 33.9852 91.38C35.4504 93.7499 37.6357 94.7558 39.8637 94.7558C42.7369 94.7558 45.3657 94.0426 50.4314 87.036C54.4908 81.4203 59.272 73.5378 62.4896 68.5959L67.9387 60.2237C71.7238 54.4093 76.105 47.9458 81.1284 43.5647C85.2306 39.9885 89.6532 38.002 94.1053 38.002C101.58 38.002 108.7 42.3336 114.149 50.4576C120.113 59.3545 123.007 70.5616 123.007 82.1262C123.007 89.0016 121.652 94.0533 119.346 98.0443C117.118 101.904 112.776 105.76 105.472 105.76V94.754C111.726 94.754 113.287 89.0068 113.287 82.4296C113.287 73.057 111.102 62.6559 106.287 55.2238C102.872 49.9521 98.4442 46.731 93.5733 46.731C88.305 46.731 84.0657 50.705 79.3012 57.7885C76.7681 61.5526 74.168 66.1394 71.2482 71.3153L68.034 77.0092C61.5782 88.4589 59.9424 91.0655 56.7141 95.3677C51.0561 102.902 46.2241 105.759 39.8637 105.759C32.3178 105.759 27.5465 102.491 24.5912 97.567C22.1791 93.555 20.9941 88.2902 20.9941 82.2916L32.0127 82.6852Z" fill="#0081FB"/>
<path d="M29.6816 51.2325C34.7333 43.4456 42.0236 38 50.3852 38C55.2274 38 60.0423 39.4332 65.0683 43.5379C70.5669 48.0247 76.4275 55.4171 83.7391 67.5954L86.3607 71.9646C92.6895 82.508 96.29 87.9323 98.3975 90.4901C101.108 93.7748 103.006 94.7542 105.471 94.7542C111.726 94.7542 113.286 89.0069 113.286 82.4298L123.007 82.1247C123.007 89.0001 121.652 94.0517 119.345 98.0428C117.118 101.902 112.776 105.759 105.471 105.759C100.93 105.759 96.9075 104.772 92.4588 100.575C89.0403 97.3544 85.0407 91.6323 81.965 86.4884L72.8159 71.2057C68.2257 63.5359 64.0133 57.8173 61.5777 55.2274C58.9557 52.4422 55.5855 49.0792 50.2074 49.0792C45.8548 49.0792 42.1582 52.1336 39.0649 56.8058L29.6816 51.2325Z" fill="url(#paint0_linear_40_61)"/>
<path d="M50.2079 49.0793C45.8554 49.0793 42.1587 52.1337 39.0654 56.8058C34.6911 63.4078 32.0148 73.2414 32.0148 82.6849C32.0148 86.5803 32.8695 89.5706 33.9873 91.3798L24.5912 97.5668C22.1791 93.5548 20.9941 88.2899 20.9941 82.2914C20.9941 71.3826 23.9883 60.0128 29.6822 51.2325C34.7338 43.4456 42.0241 38 50.3857 38L50.2079 49.0793Z" fill="url(#paint1_linear_40_61)"/>
</g>
<defs>
<linearGradient id="paint0_linear_40_61" x1="43.1077" y1="70.1233" x2="113.349" y2="73.6708" gradientUnits="userSpaceOnUse">
<stop stop-color="#0064E1"/>
<stop offset="0.4" stop-color="#0064E1"/>
<stop offset="0.83" stop-color="#0073EE"/>
<stop offset="1" stop-color="#0082FB"/>
</linearGradient>
<linearGradient id="paint1_linear_40_61" x1="35.6897" y1="87.311" x2="35.6897" y2="61.4139" gradientUnits="userSpaceOnUse">
<stop stop-color="#0082FB"/>
<stop offset="1" stop-color="#0064E0"/>
</linearGradient>
<clipPath id="clip0_40_61">
<rect width="140" height="67.76" fill="white" transform="translate(2 38)"/>
</clipPath>
</defs>
</svg>
