<svg width="144" height="144" viewBox="0 0 144 144" fill="none" xmlns="http://www.w3.org/2000/svg">
<path d="M59.2803 43.2973C60.8785 44.7189 62.507 46.3468 64.1005 48.0604L42.089 63.5901V55.4229L59.2803 43.2973Z" fill="#E50204"/>
<path d="M64.7906 88.3672L55.3486 87.7613L53.5125 88.1626L79.4561 69.8637L82.4611 75.9036L64.7906 88.3672Z" fill="#750886"/>
<path d="M53.5126 88.1628L43.9076 90.2619L32.3906 94.9596L32.4369 94.8687L76.4514 63.8239L79.4563 69.8638L53.5126 88.1628Z" fill="#004DFF"/>
<path d="M32.4368 94.869L38.0731 83.8218L38.4508 82.4676L72.6637 58.3362C74.0374 60.149 75.1937 61.7594 76.0337 62.9852L76.4511 63.8242L32.4368 94.869Z" fill="#018126"/>
<path d="M38.4509 82.4673L41.2844 72.3093L68.5151 53.1026C70.0251 54.9221 71.4317 56.7104 72.6636 58.336L38.4509 82.4673Z" fill="#FDEF03"/>
<path d="M42.0889 63.5825V69.4255L41.2845 72.3094L68.5153 53.1026C67.1131 51.413 65.6218 49.6965 64.0985 48.0585L42.0889 63.5825Z" fill="#FF8B01"/>
<path d="M89.6768 93.4589C88.9915 88.7714 87.6057 84.2153 85.965 79.7831C83.4924 73.3114 80.3086 67.121 76.5326 61.3174C72.8421 55.6254 68.6372 50.259 63.9027 45.4033C59.0323 40.3656 53.637 35.8478 47.9028 31.8284C42.6158 28.1668 37.054 24.8674 31.1626 22.2699C30.7078 22.0513 30.1736 21.88 29.6867 22.1078C28.8396 22.3784 28.3161 23.4013 28.6534 24.2375C28.8839 24.8262 29.2578 25.3445 29.5509 25.9056C32.3592 31.0594 34.7753 36.4364 36.6831 41.9924C38.5727 47.5514 39.9677 53.3229 40.2607 59.2044C40.4286 63.3829 40.0745 67.5659 39.519 71.7045C39 74.8219 38.3071 77.9148 37.3425 80.9267C35.5659 86.264 33.0827 91.4591 29.4013 95.7507C28.89 96.3928 28.0353 96.9417 28.1116 97.8666C28.1238 99.0378 29.5356 99.9138 30.5613 99.2916C34.2442 96.9065 38.2415 95.0398 42.3517 93.5262C47.3823 91.7527 52.6495 90.5403 57.9914 90.3308C61.0043 90.2009 64.0263 90.3262 67.0285 90.6228C74.0371 91.4454 80.9527 93.1654 87.4821 95.8592C88.2711 96.2308 89.2648 95.7858 89.625 95.0168C89.8402 94.5199 89.7455 93.9711 89.6799 93.4543L89.6768 93.4589ZM77.7399 89.1765C75.4718 88.5543 73.1473 88.1751 70.8381 87.7455C66.8118 87.1798 62.7412 86.8068 58.6676 86.9413C51.8009 87.1554 45.0181 88.7591 38.6688 91.3567C37.6783 91.6824 36.793 92.2633 35.7903 92.5584C39.7342 85.8757 42.0541 78.3093 43.0294 70.6313C43.3728 68.1484 43.5926 65.6471 43.5972 63.1382C43.7071 61.9427 43.7147 60.741 43.5987 59.5454C43.6033 56.613 43.0798 53.7158 42.5807 50.8354C41.088 43.5686 38.5025 36.5664 35.3431 29.8699C34.96 29.0932 34.5571 28.3258 34.2274 27.5262C34.5601 27.65 34.8898 27.7861 35.2042 27.9573C48.3774 35.0773 60.2152 44.83 69.2691 56.8057C75.5924 65.161 80.7604 74.4565 84.0419 84.4324C84.7958 86.7991 85.4796 89.1918 85.9359 91.6349C83.2314 90.7299 80.5238 89.808 77.7383 89.1781L77.7399 89.1765Z" fill="white"/>
<path d="M112.752 92.1201C110.358 85.6163 107.471 79.2929 104.126 73.2248C100.931 67.4946 97.3035 61.9646 92.8956 57.0875C90.4993 54.4165 87.9703 51.8694 85.4184 49.3499C81.0838 45.199 76.5187 41.2315 71.4163 38.0515C69.0018 36.5792 66.4743 35.2139 63.7209 34.5091C62.9913 34.3608 62.219 34.1039 61.4803 34.3164C60.2318 34.6482 59.9082 36.492 60.9614 37.232C63.4477 38.8557 65.8042 40.6766 68.0234 42.6473C72.7015 46.7278 76.8041 51.4765 80.0673 56.7649C86.6241 67.2209 91.583 78.637 95.1636 90.4384C95.4613 91.3343 95.4551 92.4473 96.2625 93.0772C96.7174 93.4594 97.3493 93.3891 97.8941 93.2989C99.4891 92.9748 101.113 92.7363 102.746 92.7791C103.981 92.8081 105.152 93.2546 106.325 93.597C107.455 93.9961 108.575 94.418 109.682 94.8767C110.37 95.1519 111.041 95.6182 111.815 95.5464C112.549 95.4745 113.174 94.8461 113.264 94.1153C113.349 93.409 112.98 92.7653 112.757 92.1201H112.752ZM104.712 89.6372C102.645 89.2321 100.516 89.4523 98.4527 89.758C95.2476 79.0162 90.855 68.6213 85.2764 58.8961C83.8707 56.5111 82.4254 54.1459 80.8518 51.8648C79.0645 49.3147 77.0712 46.9144 74.9466 44.6409C80.1665 48.7031 84.875 53.3815 89.3775 58.2173C93.7091 62.7933 97.2867 68.0312 100.419 73.4847C103.239 78.4184 105.696 83.5539 107.867 88.8025C108.145 89.4523 108.412 90.1112 108.621 90.7885C107.307 90.4414 106.041 89.9277 104.712 89.6357V89.6372Z" fill="white"/>
<path d="M131.541 119.338C130.94 118.635 129.952 118.841 129.157 118.618C127.446 118.177 126.132 116.919 124.832 115.796C123.174 114.317 121.44 112.791 119.285 112.108C117.174 111.348 114.786 111.408 112.707 112.253C110.32 113.152 108.47 114.965 106.504 116.52C105.172 117.586 103.63 118.52 101.893 118.65C100.349 118.749 98.7034 118.395 97.4854 117.398C99.1841 116.618 100.852 115.782 102.498 114.901C106.44 112.744 110.418 110.626 114.12 108.069C117.492 105.783 120.738 103.315 123.936 100.791C124.351 100.458 124.827 100.12 124.972 99.5757C125.309 98.5238 124.358 97.3038 123.249 97.4353C118.348 97.6967 113.452 98.1125 108.552 98.3786C103.198 98.6859 97.8487 99.1063 92.496 99.4228C87.1968 99.6965 81.9067 100.155 76.609 100.438C71.3144 100.744 66.0243 101.167 60.7312 101.459C55.4885 101.76 50.2534 102.195 45.0076 102.467C39.8961 102.803 34.7831 103.146 29.6731 103.483C27.0418 103.636 24.4044 103.765 21.7792 103.997C20.7643 104.04 20.0164 105.194 20.3613 106.141C20.5674 106.697 20.8833 107.203 21.1519 107.732C22.0006 109.273 22.7866 110.85 23.6321 112.394C21.9013 113.499 20.2209 114.678 18.5374 115.854C17.173 116.737 15.8436 117.733 14.2914 118.259C13.6656 118.367 12.9421 118.327 12.4888 118.861C11.6158 119.645 11.9699 121.255 13.0932 121.593C14.1692 121.891 15.2895 121.484 16.2923 121.101C19.615 119.518 22.3989 117.045 25.5568 115.182C26.4115 114.722 27.2738 114.169 28.2659 114.094C29.3206 114.193 30.1539 114.927 30.9888 115.507C33.3087 117.312 35.4897 119.361 38.1684 120.631C40.4746 121.764 43.1883 122.18 45.6868 121.474C48.6508 120.729 50.9417 118.595 53.3319 116.82C54.4613 115.991 55.6976 115.189 57.1201 115.023C58.4189 114.831 59.7575 115.179 60.8564 115.878C63.0435 117.236 64.7514 119.242 67.0073 120.497C69.2707 121.857 72.1066 122.345 74.6554 121.564C76.9769 120.952 78.8664 119.375 80.6415 117.832C82.0212 116.716 83.4239 115.459 85.2172 115.103C87.0503 114.715 89.0039 115.17 90.5134 116.274C93.0439 118.028 95.1288 120.544 98.1447 121.507C100.756 122.46 103.735 122.133 106.152 120.789C108.075 119.781 109.628 118.233 111.339 116.925C112.444 116.091 113.65 115.283 115.047 115.065C116.636 114.77 118.33 115.108 119.688 115.984C121.724 117.262 123.275 119.164 125.286 120.474C126.833 121.527 128.696 122.244 130.59 122.124C131.834 121.983 132.507 120.211 131.54 119.341L131.541 119.338ZM94.3978 114.933C93.862 114.647 93.4286 114.207 92.9356 113.861C91.0873 112.495 88.8406 111.542 86.5146 111.591C84.6281 111.585 82.7599 112.198 81.1818 113.221C79.0496 114.513 77.4103 116.477 75.24 117.714C73.7107 118.645 71.7723 118.766 70.0827 118.255C67.3079 117.219 65.4261 114.788 62.9688 113.239C61.2074 112.08 59.0752 111.386 56.9552 111.631C54.8352 111.877 52.8954 112.907 51.2256 114.201C49.1575 115.695 47.2527 117.6 44.7191 118.274C42.4129 118.875 40.0258 118.031 38.1119 116.748C35.766 115.271 33.8307 113.241 31.4833 111.765C30.0806 110.886 28.3224 110.402 26.7091 110.966C25.9689 109.743 25.3431 108.452 24.6868 107.183C30.0867 106.774 35.4897 106.443 40.8943 106.131C46.308 105.731 51.7232 105.405 57.1384 105.08C61.4623 104.765 65.7878 104.482 70.1148 104.245C76.548 103.78 82.9843 103.402 89.4221 102.991C95.2906 102.54 101.168 102.288 107.038 101.837C109.711 101.693 112.373 101.435 115.048 101.351C115.94 101.268 116.835 101.176 117.731 101.221C117.484 101.496 117.209 101.747 116.912 101.967C114.293 103.876 111.666 105.783 108.89 107.459C104.894 109.787 100.872 112.083 96.6933 114.065C95.9393 114.381 95.1945 114.748 94.3993 114.936L94.3978 114.933Z" fill="white"/>
</svg>
