<svg width="144" height="144" viewBox="0 0 144 144" fill="none" xmlns="http://www.w3.org/2000/svg">
<mask id="mask0_40_171" style="mask-type:luminance" maskUnits="userSpaceOnUse" x="7" y="53" width="130" height="38">
<path d="M7 53H137V90.903H7V53Z" fill="white"/>
</mask>
<g mask="url(#mask0_40_171)">
<path fill-rule="evenodd" clip-rule="evenodd" d="M7 86.9907H14.9444C15.7649 86.9907 16.4358 86.3198 16.4358 85.4993V71.7345L31.2648 88.2501L46.0946 71.7345V85.4993C46.0946 86.3198 46.7656 86.9907 47.586 86.9907H55.5297V57.4961H48.7843C46.8348 57.4961 45.3817 58.4351 44.5966 59.3086L31.2648 74.156L17.9331 59.3086C17.1487 58.4351 15.6949 57.4961 13.7462 57.4961H7V86.9907ZM96.207 86.9907H135.509C136.329 86.9907 137 86.3198 137 85.4993V77.644H117.891L136.945 57.5233H97.6675C96.8478 57.5233 96.1761 58.195 96.1761 59.0147V66.87H115.261L96.207 86.9907Z" fill="#24ABE2"/>
<path fill-rule="evenodd" clip-rule="evenodd" d="M77.0135 53C89.0071 53 98.7301 61.3834 98.7301 71.9519C98.7301 82.5196 89.0071 90.903 77.0135 90.903C65.0192 90.903 55.2969 82.5196 55.2969 71.9519C55.2969 61.3834 65.0192 53 77.0135 53ZM77.0135 62.4704C82.8619 62.4704 87.8773 66.7155 87.8773 71.9519C87.8773 77.1875 83.0136 81.4326 77.0135 81.4326C71.0134 81.4326 66.1489 77.1875 66.1489 71.9519C66.1489 66.7155 71.1651 62.4704 77.0135 62.4704Z" fill="#24ABE2"/>
</g>
</svg>
