<?xml version="1.0" encoding="utf-8"?>
<!-- Generator: Adobe Illustrator 26.0.1, SVG Export Plug-In . SVG Version: 6.00 Build 0)  -->
<svg version="1.1" id="Layer_1" xmlns="http://www.w3.org/2000/svg" xmlns:xlink="http://www.w3.org/1999/xlink" x="0px" y="0px"
	 viewBox="0 0 144 144" style="enable-background:new 0 0 144 144;" xml:space="preserve">
<style type="text/css">
	.st0{fill:#00005B;}
	.st1{fill:#9999FF;}
</style>
<g id="vlpa">
	<g id="vlpb">
		<g id="vlpc">
			<g id="vlpd">
				<path class="st0" d="M26.8,3.8h90.4c13.7,0,24.8,11.1,24.8,24.8v86.9c0,13.7-11.1,24.8-24.8,24.8H26.8
					C13.1,140.2,2,129.2,2,115.5V28.5C2,14.8,13.1,3.8,26.8,3.8z"/>
			</g>
		</g>
	</g>
	<g id="vlpe">
		<g id="vlpf">
			<path class="st1" d="M35.2,99.4V39.3c0-0.4,0.2-0.6,0.6-0.6c1,0,1.9,0,3.3-0.1c1.4-0.1,2.9-0.1,4.4-0.1c1.6-0.1,3.3-0.1,5.1-0.1
				s3.6-0.1,5.3-0.1c4.8,0,8.8,0.6,12,1.8c2.9,1,5.6,2.6,7.8,4.8c1.9,1.9,3.3,4.1,4.3,6.6c0.9,2.5,1.3,5,1.3,7.6
				c0,5-1.2,9.2-3.5,12.4c-2.3,3.3-5.6,5.7-9.4,7.1c-4,1.5-8.3,2-13.1,2c-1.4,0-2.3,0-2.9-0.1c-0.6-0.1-1.4-0.1-2.5-0.1v18.7
				c0.1,0.4-0.2,0.8-0.6,0.8H47H35.9C35.5,100.1,35.2,99.9,35.2,99.4L35.2,99.4z M48,50v19.6c0.8,0.1,1.6,0.1,2.3,0.1h3.1
				c2.3,0,4.6-0.3,6.7-1.1c1.9-0.5,3.5-1.6,4.8-3.1c1.2-1.5,1.8-3.4,1.8-6c0.1-1.8-0.4-3.6-1.3-5.2c-1-1.5-2.4-2.7-4.1-3.3
				c-2.2-0.9-4.5-1.2-6.9-1.2c-1.5,0-2.9,0-4,0.1C49.2,49.9,48.4,49.9,48,50L48,50z"/>
			<path class="st1" d="M87.8,53.4H98c0.6,0,1,0.4,1.2,0.9c0.2,0.5,0.3,0.9,0.4,1.5c0.1,0.6,0.2,1.2,0.3,1.8
				c0.1,0.6,0.1,1.3,0.1,2.1c1.8-2,3.8-3.7,6.2-5c2.7-1.5,5.8-2.3,8.9-2.3c0.4-0.1,0.8,0.2,0.8,0.6v0.2v11.4c0,0.5-0.3,0.6-0.9,0.6
				c-2.1-0.1-4.3,0.1-6.3,0.6c-1.7,0.3-3.3,0.9-4.9,1.6c-1.1,0.5-2.2,1.2-3,2.2v29.8c0,0.6-0.2,0.8-0.8,0.8H88.5
				c-0.5,0.1-0.9-0.2-0.9-0.7v-0.2V67c0-1.4,0-2.9-0.1-4.4c-0.1-1.5-0.1-3-0.1-4.6c0-1.3-0.1-2.6-0.2-4c-0.1-0.3,0.1-0.6,0.4-0.6
				C87.6,53.4,87.7,53.4,87.8,53.4L87.8,53.4z"/>
		</g>
	</g>
</g>
</svg>
