<?xml version="1.0" encoding="utf-8"?>
<!-- Generator: Adobe Illustrator 26.0.1, SVG Export Plug-In . SVG Version: 6.00 Build 0)  -->
<svg version="1.1" id="Layer_1" xmlns="http://www.w3.org/2000/svg" xmlns:xlink="http://www.w3.org/1999/xlink" x="0px" y="0px"
	 viewBox="0 0 144 144" style="enable-background:new 0 0 144 144;" xml:space="preserve">
<style type="text/css">
	.st0{fill:#001E36;}
	.st1{fill:#31A8FF;}
</style>
<g id="Layer_2_1_">
	<g id="Surfaces">
		<g id="Photo_Surface">
			<g id="Outline_no_shadow">
				<path class="st0" d="M26.8,3.8h90.4c13.7,0,24.8,11.1,24.8,24.8v86.9c0,13.7-11.1,24.8-24.8,24.8H26.8
					C13.1,140.2,2,129.2,2,115.5V28.5C2,14.8,13.1,3.8,26.8,3.8z"/>
			</g>
		</g>
	</g>
	<g id="Outlined_Mnemonics_Logos">
		<g id="Ps">
			<path class="st1" d="M33.5,99.5v-60c0-0.4,0.2-0.6,0.6-0.6c1,0,1.9,0,3.3-0.1c1.4-0.1,2.9-0.1,4.4-0.1c1.6-0.1,3.3-0.1,5.1-0.1
				c1.8-0.1,3.6-0.1,5.3-0.1c4.8,0,8.7,0.6,12,1.8c2.9,1,5.6,2.6,7.8,4.8c1.9,1.9,3.3,4.1,4.3,6.7c0.9,2.4,1.3,5,1.3,7.6
				c0,5-1.2,9.2-3.5,12.4c-2.3,3.3-5.6,5.7-9.4,7.1c-4,1.5-8.3,2-13.1,2c-1.4,0-2.3,0-2.9-0.1c-0.6-0.1-1.4-0.1-2.5-0.1v18.7
				c0.1,0.4-0.2,0.8-0.6,0.8c-0.1,0-0.1,0-0.2,0H34.2C33.7,100.2,33.5,100,33.5,99.5z M46.2,50.1v19.6c0.8,0.1,1.6,0.1,2.3,0.1h3.1
				c2.3,0,4.6-0.3,6.7-1.1c1.9-0.5,3.5-1.6,4.8-3.1c1.2-1.5,1.8-3.4,1.8-6c0.1-1.8-0.4-3.6-1.3-5.2c-1-1.5-2.4-2.7-4.1-3.3
				c-2.2-0.9-4.5-1.2-6.9-1.2c-1.5,0-2.9,0-4,0.1C47.4,49.9,46.6,50,46.2,50.1L46.2,50.1z"/>
			<path class="st1" d="M114,66.1c-1.8-0.9-3.6-1.6-5.6-2c-2.2-0.5-4.3-0.8-6.5-0.8c-1.2-0.1-2.4,0.1-3.5,0.4
				c-0.8,0.2-1.4,0.6-1.8,1.2c-0.3,0.5-0.5,1.1-0.5,1.6c0,0.5,0.2,1.1,0.6,1.5c0.5,0.6,1.2,1.2,2,1.6c1.3,0.7,2.7,1.3,4.1,1.9
				c3.1,1.1,6.2,2.5,9,4.3c1.9,1.2,3.5,2.9,4.6,4.8c0.9,1.9,1.4,3.9,1.3,6c0.1,2.7-0.8,5.5-2.3,7.8c-1.6,2.3-3.9,4.1-6.5,5.2
				c-2.9,1.2-6.4,1.9-10.6,1.9c-2.7,0-5.3-0.2-7.9-0.8c-2-0.4-4.1-1-5.9-1.9c-0.4-0.2-0.7-0.6-0.6-1.1V87.6c0-0.2,0.1-0.4,0.2-0.5
				c0.2-0.1,0.4-0.1,0.5,0.1c2.3,1.3,4.7,2.3,7.2,2.9c2.2,0.6,4.6,0.9,6.9,0.9c2.2,0,3.8-0.3,4.8-0.8c0.9-0.4,1.6-1.4,1.6-2.5
				c0-0.8-0.5-1.6-1.4-2.3c-0.9-0.8-2.9-1.6-5.7-2.7c-3-1.1-5.7-2.4-8.3-4.2c-1.8-1.3-3.3-3-4.4-5c-0.9-1.9-1.4-3.9-1.3-5.9
				c0-2.5,0.7-4.9,2-7.1c1.5-2.3,3.6-4.2,6.1-5.4c2.7-1.4,6.2-2,10.3-2c2.4,0,4.8,0.2,7.2,0.5c1.8,0.2,3.4,0.7,5,1.3
				c0.2,0.1,0.5,0.3,0.6,0.5c0.1,0.2,0.1,0.5,0.1,0.7v9.5c0,0.2-0.1,0.5-0.3,0.6C114.5,66.2,114.2,66.2,114,66.1z"/>
		</g>
	</g>
</g>
</svg>
