<svg width="144" height="144" viewBox="0 0 144 144" fill="none" xmlns="http://www.w3.org/2000/svg">
<path d="M115.498 71.5421C115.498 73.7635 114.365 74.1262 111.554 74.1262C108.562 74.1262 108.018 73.6275 107.701 71.3608C107.111 65.6033 103.213 60.7072 96.6845 60.1632C94.5992 59.9819 94.1005 59.2112 94.1005 56.6271C94.1005 54.2244 94.4632 53.091 96.3219 53.091C107.655 53.1364 115.498 62.2486 115.498 71.5421ZM132 71.5421C132 54.2697 120.304 36 93.2845 36H39.6086C38.5206 36 37.8406 36.544 37.8406 37.5414C37.8406 38.0854 38.2486 38.5841 38.6113 38.8561C40.5606 40.3974 43.462 42.1201 47.2701 44.0242C50.9875 45.8829 53.8889 47.1069 56.7903 48.2856C58.0144 48.7843 58.4677 49.3283 58.4677 50.0083C58.4677 50.9603 57.7877 51.5497 56.473 51.5497H13.8587C12.5893 51.5497 12 52.3657 12 53.1817C12 53.8617 12.2267 54.4511 12.816 55.0404C16.2614 58.6672 21.7922 63.0193 29.8164 68.0514C36.8432 72.4488 45.5474 77.2089 52.4836 80.5183C53.6623 81.0623 54.0249 81.697 54.0249 82.377C53.9796 83.1477 53.3902 83.7824 52.0302 83.7824H32.4911C31.4031 83.7824 30.7684 84.3717 30.7684 85.2784C30.7684 85.7771 31.1764 86.4118 31.7204 86.9105C36.1632 90.9452 43.2807 95.3426 52.7556 99.3774C65.4039 104.772 78.2335 107.991 92.6498 107.991C119.986 107.991 132 87.5451 132 71.5421ZM96.3219 96.068C82.9029 96.068 71.7053 85.1424 71.7053 71.5421C71.7053 58.1232 82.9029 47.3789 96.3219 47.3789C110.104 47.3789 120.848 58.1232 120.848 71.5421C120.802 85.1424 110.058 96.068 96.3219 96.068Z" fill="#FF642D"/>
</svg>
