<?xml version="1.0" encoding="utf-8"?>
<!-- Generator: Adobe Illustrator 26.0.1, SVG Export Plug-In . SVG Version: 6.00 Build 0)  -->
<svg version="1.1" id="Layer_1" xmlns="http://www.w3.org/2000/svg" xmlns:xlink="http://www.w3.org/1999/xlink" x="0px" y="0px"
	 viewBox="0 0 144 144" style="enable-background:new 0 0 144 144;" xml:space="preserve">
<style type="text/css">
	.st0{fill:#8DB849;}
	.st1{fill:#5A863E;}
	.st2{fill:#FFFFFE;}
</style>
<g>
	<path class="st0" d="M67.2,6.5c1,0,1.5,0.5,2.5,1c-6,2.5-12.1,9.1-15.1,23.2l-11.1,3C47.1,23.7,54.1,6.5,67.2,6.5z M72.8,11.6
		c1,3,2,6.5,2,12.1c0,0.5,0,0.5,0,1l-14.6,4C63.2,18.1,68.2,13.6,72.8,11.6z M85.8,20.6l-6.5,2c0-0.5,0-1,0-1.5
		c0-4.5-0.5-8.1-1.5-11.1C81.3,11.1,84.3,15.6,85.8,20.6z M118.6,28.7c0-0.5-0.5-1-1-1c-1,0-11.6-1-11.6-1s-7.6-7.6-8.6-8.1
		c-1-1-2.5-0.5-3-0.5c0,0-1.5,0.5-4,1.5c-2.5-7-7-13.6-14.6-13.6h-0.5c-2-3-5-4-7.6-4C49.6,1.5,41,24.2,38,35.7c-4,1-8.1,2.5-12.6,4
		c-4,1-4,1.5-4.5,5c-0.5,2.5-10.6,82.1-10.6,82.1L90.4,142l43.3-9.6C133.7,132.4,118.6,29.7,118.6,28.7z"/>
	<path class="st1" d="M117.1,27.7c-0.5,0-11.1-1-11.1-1s-7.6-7.6-8.6-8.1c-0.5-0.5-0.5-0.5-1-0.5l-6,123.9l43.3-9.6
		c0,0-15.1-102.7-15.1-103.7C118.6,28.2,117.6,27.7,117.1,27.7"/>
	<path class="st2" d="M75.8,51.9L70.2,68c0,0-4.5-2.5-10.6-2.5c-8.6,0-9.1,5-9.1,6.5c0,7,19.1,10.1,19.1,27.2
		c0,13.6-8.6,22.2-20.1,22.2c-13.6,0-20.6-8.6-20.6-8.6l3.5-12.1c0,0,7,6,13.1,6c4,0,5.5-3,5.5-5.5c0-9.6-15.6-10.1-15.6-25.7
		c0-13.1,9.6-25.7,28.2-25.7C72.3,49.3,75.8,51.9,75.8,51.9"/>
</g>
</svg>
