<?xml version="1.0" encoding="utf-8"?>
<!-- Generator: Adobe Illustrator 26.0.1, SVG Export Plug-In . SVG Version: 6.00 Build 0)  -->
<svg version="1.1" id="Layer_1" xmlns="http://www.w3.org/2000/svg" xmlns:xlink="http://www.w3.org/1999/xlink" x="0px" y="0px"
	 viewBox="0 0 144 144" style="enable-background:new 0 0 144 144;" xml:space="preserve">
<style type="text/css">
	.st0{fill:#005F9E;}
</style>
<g>
	<path class="st0" d="M136.4,32.5L90.8,6.2c0,0-7.2-4.2-18.7-4.2c-12,0-18.9,4.3-18.9,4.3L10.9,30.5l64.2,36.9V142l42.3-24.1
		c0,0,7.6-4.2,13.3-14.1c5.1-8.7,5.7-17.2,5.7-17.2L136.4,32.5L136.4,32.5z M67.6,44.6c0,0,9.4-1.7,17.4,2.9s12.7,7.3,12.7,7.3
		s0,6.4,0,16c0,7.7-6.5,15.6-6.5,15.6l0-28.1L67.6,44.6z M105,106.3l-13.8,7.9v-7.4l10.7-6.1c10.2-7.3,11.9-18.2,11.9-21.9l0-33.3
		L84.6,28.6c0,0-4.4-2.9-12.4-2.9s-12.3,2.7-12.3,2.7l-10.3,5.9l-6.5-3.7l14.2-8.1c0,0,5.5-3.1,14.8-3.1c8.5,0,15.2,3.3,15.2,3.3
		l33,19l0,36.3C120.4,83.6,117.8,97.3,105,106.3z"/>
	<path class="st0" d="M7.6,54.7l45,25.8l0,7.7L27,73.5l-16.1,9.2l41.7,24l0,7.4L8,88.4c0.1,3,2.8,12.3,8.1,19.5
		c5.3,7.3,11.4,10.4,11.4,10.4L68.7,142V71.1l-61-35L7.6,54.7z"/>
</g>
</svg>
