<?xml version="1.0" encoding="utf-8"?>
<!-- Generator: Adobe Illustrator 26.0.1, SVG Export Plug-In . SVG Version: 6.00 Build 0)  -->
<svg version="1.1" id="Layer_1" xmlns="http://www.w3.org/2000/svg" xmlns:xlink="http://www.w3.org/1999/xlink" x="0px" y="0px"
	 viewBox="0 0 800 800" style="enable-background:new 0 0 800 800;" xml:space="preserve">
<style type="text/css">
	.st0{fill:none;stroke:#91EA62;stroke-width:5.0986;stroke-miterlimit:6.25;}
</style>
<g id="SVGRepo_bgCarrier">
</g>
<g id="SVGRepo_tracerCarrier">
</g>
<g id="SVGRepo_iconCarrier">
	<path class="st0" d="M749.5,518.2L544.7,400l204.8-118.2c11.5-6.7,15.5-21.4,8.8-32.9l-48.2-83.5c-6.7-11.5-21.4-15.5-33-8.8
		L472.4,274.7V38.4c0-13.3-10.8-24.1-24.1-24.1h-96.5c-13.3,0-24.1,10.8-24.1,24.1v236.3L122.8,156.6c-11.5-6.7-26.3-2.7-33,8.8
		l-48.2,83.5c-6.7,11.5-2.7,26.3,8.8,32.9L255.3,400L50.5,518.2c-11.5,6.7-15.5,21.4-8.8,32.9l48.2,83.5c6.7,11.5,21.4,15.5,33,8.8
		l204.8-118.2v236.3c0,13.3,10.8,24.1,24.1,24.1h96.5c13.3,0,24.1-10.8,24.1-24.1V525.3l204.8,118.2c11.5,6.7,26.3,2.7,33-8.8
		l48.2-83.5C765,539.6,761.1,524.8,749.5,518.2L749.5,518.2z"/>
</g>
</svg>
