<svg width="144" height="144" viewBox="0 0 144 144" fill="none" xmlns="http://www.w3.org/2000/svg">
<g clip-path="url(#clip0_40_168)">
<path d="M89.3044 34.1043C95.549 38.9831 99.6414 45.2496 101.136 53.1105C101.418 55.9219 101.455 58.6743 101.424 61.4968C101.421 62.0143 101.418 62.5318 101.414 63.0649C101.407 64.3269 101.395 65.5889 101.382 66.8509C101.899 67.0358 102.416 67.2207 102.949 67.4112C105.497 68.5268 106.796 70.3736 108.023 72.8274C108.42 76.5695 108.773 80.276 106.57 83.4939C105.369 84.9275 104.639 85.4755 102.918 86.3162C100.71 87.927 100.891 89.5499 100.479 92.1604C98.8184 99.6446 94.1311 105.673 87.8933 109.89C80.0154 114.547 71.4821 115.172 62.5292 113.587C55.1193 111.41 49.0013 106.588 44.9367 100.054C42.5623 95.5375 41.5178 91.8997 41.6164 86.7727C41.0617 86.7111 41.0617 86.7111 40.4958 86.6482C37.6207 85.638 35.9565 83.2634 34.3117 80.7962C33.852 77.0913 33.8157 73.8371 35.4738 70.4617C36.7959 69.0294 37.9546 67.8526 39.6242 66.8509C40.0625 66.8509 40.5008 66.8509 40.9524 66.8509C40.9369 66.2242 40.9215 65.5976 40.9057 64.952C40.7575 54.4124 41.9604 44.8775 49.5592 36.8435C60.6707 26.9667 76.9524 25.7303 89.3044 34.1043Z" fill="#ECB999"/>
<path d="M89.3044 34.1043C95.549 38.9831 99.6414 45.2496 101.136 53.1105C101.418 55.9219 101.455 58.6743 101.424 61.4968C101.421 62.0143 101.418 62.5318 101.414 63.0649C101.407 64.3269 101.395 65.5889 101.382 66.8509C101.899 67.0358 102.416 67.2207 102.949 67.4112C105.497 68.5268 106.796 70.3736 108.023 72.8274C108.42 76.5695 108.773 80.276 106.57 83.4939C105.369 84.9275 104.639 85.4755 102.918 86.3162C100.71 87.927 100.891 89.5499 100.479 92.1604C98.8184 99.6446 94.1311 105.673 87.8933 109.89C80.0154 114.547 71.4821 115.172 62.5292 113.587C55.1193 111.41 49.0013 106.588 44.9367 100.054C42.5623 95.5375 41.5178 91.8997 41.6164 86.7727C41.0617 86.7111 41.0617 86.7111 40.4958 86.6482C37.6207 85.638 35.9565 83.2634 34.3117 80.7962C33.852 77.0913 33.8157 73.8371 35.4738 70.4617C36.7959 69.0294 37.9546 67.8526 39.6242 66.8509C40.0625 66.8509 40.5008 66.8509 40.9524 66.8509C40.9369 66.2242 40.9215 65.5976 40.9057 64.952C40.7575 54.4124 41.9604 44.8775 49.5592 36.8435C60.6707 26.9667 76.9524 25.7303 89.3044 34.1043ZM51.1208 42.0315C46.352 47.8733 45.0935 54.1665 45.1598 61.5384C45.1566 62.3336 45.1535 63.1288 45.1502 63.9482C45.1479 65.6178 45.154 67.2876 45.1679 68.9572C45.1857 71.493 45.168 74.027 45.1468 76.5628C45.149 78.1953 45.1533 79.8277 45.1598 81.4602C45.1497 82.5812 45.1497 82.5812 45.1394 83.7248C45.2527 91.4977 47.8704 97.6658 53.2609 103.245C59.2663 108.593 65.2041 110.322 73.1594 110.178C80.483 109.663 86.0043 106.451 90.9646 101.133C97.9871 92.7955 96.9146 83.5361 96.9661 73.1509C96.9771 71.53 96.9952 69.9091 97.0206 68.2884C97.0572 65.9319 97.0715 63.5761 97.0812 61.2193C97.1038 60.1481 97.1038 60.1481 97.1268 59.0552C97.1055 51.3006 94.3434 45.239 88.9802 39.7073C86.8375 37.7483 84.7413 36.2308 82.1242 34.9759C81.4758 34.66 81.4758 34.66 80.8143 34.3377C69.8547 29.872 58.8998 33.9681 51.1208 42.0315Z" fill="#2D2D2A"/>
<path d="M45.6022 52.9062C45.8214 52.9062 46.0405 52.9062 46.2663 52.9062C46.2657 53.3564 46.2652 53.8066 46.2647 54.2705C46.2631 58.9567 46.2891 63.6423 46.3311 68.3284C46.3432 70.0771 46.3482 71.8259 46.346 73.5747C46.3441 76.089 46.3676 78.6019 46.396 81.1159C46.3899 81.8977 46.3839 82.6795 46.3777 83.4849C46.3391 87.283 46.3391 87.283 47.7944 90.6653C49.2761 91.9479 50.6898 92.6881 52.5749 93.2065C54.7694 92.603 55.7072 91.4242 57.1403 89.7021C60.3081 86.9531 66.2039 87.9532 70.1193 87.942C71.4966 87.9356 72.8732 87.9149 74.2503 87.894C75.1234 87.8906 75.9966 87.8872 76.8962 87.8837C77.6923 87.8775 78.4884 87.8713 79.3086 87.8649C82.3529 88.1996 84.0596 89.2783 86.0685 91.5464C87.388 92.9332 87.388 92.9332 89.4303 92.999C92.4356 92.6234 94.05 91.6528 96.071 89.4297C95.8152 95.3125 92.4003 100.333 88.1852 104.304C81.382 109.431 74.5214 110.65 66.1882 110.016C58.9211 108.402 53.1945 104.082 48.9225 98.0625C45.8704 92.4373 45.1376 87.508 45.278 81.1808C45.2827 80.3666 45.2874 79.5525 45.2922 78.7137C45.3106 76.1427 45.3523 73.5727 45.3947 71.002C45.4114 69.2467 45.4265 67.4914 45.4401 65.7361C45.4765 61.4592 45.5319 57.1828 45.6022 52.9062Z" fill="#D2A88B"/>
<path d="M59.5469 92.0859C67.2168 92.0859 74.8867 92.0859 82.7891 92.0859C82.0365 97.3538 82.0365 97.3538 80.2988 99.2661C79.9735 99.6402 79.6483 100.014 79.3131 100.4C76.2814 102.942 73.0654 102.961 69.2769 102.874C65.8421 102.556 64.0839 101.259 61.6636 98.8926C60.2109 96.7344 60.2109 96.7344 59.5469 92.0859Z" fill="#373430"/>
<path d="M84.7812 36.3054C87.2173 38.098 89.4863 39.9489 91.4219 42.282C91.4219 42.9394 91.4219 43.5968 91.4219 44.2742C91.0538 43.9463 90.6857 43.6185 90.3065 43.2807C89.8254 42.8552 89.3443 42.4298 88.8486 41.9915C88.371 41.5677 87.8933 41.144 87.4012 40.7074C84.7582 38.4943 82.1376 38.8316 78.8358 38.8034C78.2428 38.7981 77.6498 38.7927 77.0389 38.7872C75.7818 38.778 74.5246 38.7709 73.2675 38.7657C71.3507 38.7543 69.4348 38.7251 67.5182 38.6958C66.2965 38.6891 65.0747 38.6834 63.8529 38.6789C63.2821 38.6673 62.7113 38.6557 62.1232 38.6437C58.4806 38.6568 56.4835 39.2373 53.5703 41.6179C52.6253 42.3575 52.6253 42.3575 51.6611 43.1121C51.1955 43.4956 50.7298 43.8791 50.25 44.2742C52.3847 39.2671 57.2884 36.0931 62.1746 34.1083C69.7464 31.5458 77.8493 32.4196 84.7812 36.3054Z" fill="#C69F85"/>
<path d="M57.5962 56.6839C58.0657 56.6817 58.5352 56.6796 59.019 56.6774C61.5048 56.7031 63.4143 56.8445 65.5234 58.2195C65.5518 59.3259 65.5504 60.4334 65.5234 61.5398C64.8594 62.2039 64.8594 62.2039 62.4418 62.2221C60.9084 62.1967 59.3757 62.1623 57.8426 62.1196C54.9094 62.0765 52.9904 62.4169 50.25 63.532C49.5926 63.0937 48.9352 62.6555 48.2578 62.2039C48.3823 60.6683 48.3823 60.6683 48.9219 58.8836C51.6504 56.6862 54.2278 56.6067 57.5962 56.6839Z" fill="#37342F"/>
<path d="M86.7734 58.2196C89.1382 59.1013 90.3296 59.7835 92.0859 61.5399C91.8369 62.951 91.8369 62.951 91.4219 64.1961C90.2598 64.6112 90.2598 64.6112 88.7656 64.8602C88.4095 64.6479 88.0534 64.4356 87.6865 64.2169C85.3768 63.214 83.101 63.3923 80.6309 63.449C80.1361 63.455 79.6413 63.461 79.1315 63.4672C77.9157 63.4828 76.7 63.5066 75.4844 63.5321C75.2652 62.4364 75.0461 61.3407 74.8203 60.2117C78.6282 57.5313 82.2691 57.7895 86.7734 58.2196Z" fill="#32302C"/>
<path d="M64.1951 78.8047C64.8525 78.8047 65.5099 78.8047 66.1873 78.8047C66.4064 79.4621 66.6255 80.1195 66.8513 80.7969C68.078 81.2561 68.078 81.2561 69.5076 81.4609C69.9732 81.6116 70.4389 81.7623 70.9187 81.9175C71.3296 81.986 71.7405 82.0544 72.1638 82.125C72.6021 81.6867 73.0404 81.2484 73.4919 80.7969C74.1494 80.7969 74.8068 80.7969 75.4841 80.7969C75.9224 80.1395 76.3607 79.482 76.8123 78.8047C77.4697 79.0238 78.1271 79.243 78.8044 79.4688C78.8875 81.0459 78.8875 81.0459 78.8044 82.7891C76.9602 84.6333 75.3653 84.9045 72.8279 85.4453C65.6861 84.9441 65.6861 84.9441 63.531 82.7891C63.448 81.1289 63.448 81.1289 63.531 79.4688C63.7501 79.2496 63.9693 79.0305 64.1951 78.8047Z" fill="#37342F"/>
<path d="M64.1953 95.4062C68.7973 95.4062 73.3992 95.4062 78.1406 95.4062C76.8125 98.0625 76.8125 98.0625 75.4014 98.8926C72.1219 99.7481 69.3579 99.917 66.229 98.519C64.8594 97.3984 64.8594 97.3984 64.1953 95.4062Z" fill="#E4E4E3"/>
<path d="M40.9538 70.1719C41.1729 71.0484 41.3921 71.925 41.6179 72.8281C40.9604 73.1568 40.9604 73.1568 40.2897 73.4922C40.0706 74.1496 39.8515 74.807 39.6257 75.4844C40.2831 75.2652 40.9405 75.0461 41.6179 74.8203C41.6179 77.45 41.6179 80.0797 41.6179 82.7891C38.9616 81.4609 38.9616 81.4609 38.1315 80.3403C37.4096 78.1145 37.3522 76.4867 37.6335 74.1562C38.6041 72.6106 39.6668 71.491 40.9538 70.1719Z" fill="#DDAD8D"/>
<path d="M100.719 70.1719C103.956 72.6621 103.956 72.6621 104.703 74.1562C104.952 77.4517 104.797 79.4981 102.711 82.125C102.054 82.3441 101.396 82.5633 100.719 82.7891C100.719 80.1594 100.719 77.5297 100.719 74.8203C101.595 75.0395 102.472 75.2586 103.375 75.4844C102.937 75.1009 102.498 74.7174 102.047 74.3223C100.719 72.8281 100.719 72.8281 100.719 70.1719Z" fill="#DCAC8D"/>
<path d="M82.1246 66.8516C84.4726 67.2073 84.4726 67.2073 85.4449 68.1797C85.528 69.8398 85.528 69.8398 85.4449 71.5C84.7809 72.1641 84.7809 72.1641 83.1207 72.2471C81.4606 72.1641 81.4606 72.1641 80.7965 71.5C80.672 69.8813 80.672 69.8813 80.7965 68.1797C81.2348 67.7414 81.6731 67.3031 82.1246 66.8516Z" fill="#33312D"/>
<path d="M57.5543 66.8516C59.9023 67.2073 59.9023 67.2073 60.8746 68.1797C60.9576 69.8398 60.9576 69.8398 60.8746 71.5C60.2106 72.1641 60.2106 72.1641 58.5504 72.2471C56.8903 72.1641 56.8903 72.1641 56.2262 71.5C56.1017 69.8813 56.1017 69.8813 56.2262 68.1797C56.6645 67.7414 57.1028 67.3031 57.5543 66.8516Z" fill="#33312D"/>
<path d="M40.9531 70.1719C41.1723 71.0484 41.3914 71.925 41.6172 72.8281C40.9598 73.1568 40.9598 73.1568 40.2891 73.4922C39.8508 74.1496 39.4125 74.807 38.9609 75.4844C38.4629 74.3223 38.4629 74.3223 38.2969 72.8281C39.5835 71.334 39.5835 71.334 40.9531 70.1719Z" fill="#C99E81"/>
</g>
<defs>
<clipPath id="clip0_40_168">
<rect width="85" height="85" fill="white" transform="translate(29 29)"/>
</clipPath>
</defs>
</svg>
