<?xml version="1.0" encoding="utf-8"?>
<!-- Generator: Adobe Illustrator 26.0.1, SVG Export Plug-In . SVG Version: 6.00 Build 0)  -->
<svg version="1.1" id="Layer_1" xmlns="http://www.w3.org/2000/svg" xmlns:xlink="http://www.w3.org/1999/xlink" x="0px" y="0px"
	 viewBox="0 0 144 144" style="enable-background:new 0 0 144 144;" xml:space="preserve">
<style type="text/css">
	.st0{fill:#221E1F;}
</style>
<path class="st0" d="M122.1,95.4H119c-0.2,0-0.4-0.1-0.6-0.2c-0.1-0.1-0.1-0.3-0.1-0.5l4.7-11.9L114,55.9c-0.1-0.2-0.1-0.7,0.7-0.7
	h3.3c0.2,0,0.6,0.1,0.7,0.7c0,0,5.8,17.6,6,18.2c0.2,0.6,0.4,1.3,0.7,1.3c0.2,0,0.5-0.5,0.7-1c0.3-0.7,7.1-18.3,7.1-18.3
	c0.1-0.2,0.2-0.4,0.2-0.5c0.1-0.1,0.2-0.1,0.4-0.1h3.4c0.8,0,0.8,0.4,0.7,0.7l-12.1,31.4l-3,7.3c-0.1,0.2-0.2,0.4-0.3,0.5
	C122.4,95.4,122.3,95.4,122.1,95.4L122.1,95.4z M26.3,48.6C15.1,48.6,6,57.7,6,68.9s9.1,20.3,20.3,20.3s20.3-9.1,20.3-20.3
	C46.7,57.7,37.6,48.6,26.3,48.6z M26.3,86.1C16.3,86.1,8.2,78,8.2,68c0-5.8,2.8-11,7.1-14.3c-7.2,8.2,0.8,25.8,5.5,26.3
	c5.8,0.4,8-18,14.9-20.4c5.1-1.9,9,5.8,6.7,14.4C40,81.3,33.9,86,26.3,86.1z M51,56.8l-0.2-0.7c-0.1-0.2-0.3-0.9,0.6-0.9h3.1
	c0.5,0,0.6,0.4,0.7,0.7l5.1,14.7c0,0,0.4,1.3,0.7,1.3c0.4,0,0.8-1.3,0.8-1.3l5-14.7c0.1-0.2,0.2-0.7,0.9-0.7h2.9
	c0.8,0,0.8,0.4,0.7,0.7L71,56.7l-8.8,25.4c-0.2,0.8-2.3,0.8-2.4,0L51,56.8z M81.6,82.6h-2.8c-0.4,0-0.7-0.2-0.7-0.7V65.5
	c0-0.6,0-1.3,0.1-1.9c0.1-0.7,0.4-1.4,0.7-2.1c0.6-1.3,1.3-2.4,2.2-3.3c0.9-0.9,2-1.7,3.2-2.2c0.7-0.3,1.4-0.5,2.1-0.6
	c0.4-0.1,0.8-0.1,1.2-0.2h0.7c5.5-0.1,8.1,3.3,8.8,4c0.3,0.3,0.4,0.9-0.1,1.1L94.7,61c-0.7,0.3-1.1,0.1-1.6-0.3
	c-0.2-0.2-3.3-2.4-7.1-0.9c-0.6,0.2-1.1,0.6-1.5,1c-0.1,0.1-0.3,0.2-0.4,0.3l-0.3,0.3c-0.4,0.5-0.7,1-1,1.7
	c-0.3,0.7-0.5,1.5-0.5,2.4v16.5C82.3,82.3,82.1,82.6,81.6,82.6L81.6,82.6z M108.5,66.2c0.4,0,0.6-0.2,0.7-0.5v-0.2
	c0-0.9-0.5-6.4-6.6-6.1c-0.3,0-0.7,0.1-1.5-0.5c-0.4-0.3-1.5-1.6-1.8-1.8c-0.7-0.7-0.8-1.1-0.1-1.3c6.8-1.1,10.2,1.6,11.1,2.5
	c0.9,0.9,1.7,2,2.2,3.3c0.6,1.2,0.8,2.6,0.8,4v16.4c0,0.4-0.2,0.7-0.7,0.7h-10.7c-1.1,0-2.1-0.2-3.2-0.7c-1-0.4-1.9-1-2.6-1.8
	c-0.8-0.7-1.4-1.6-1.8-2.6c-0.4-1-0.7-2.1-0.7-3.2c0-1.1,0.2-2.2,0.7-3.2c0.4-1,1-1.9,1.8-2.6c0.7-0.7,1.6-1.3,2.6-1.8
	c1-0.4,2.1-0.7,3.2-0.7L108.5,66.2z M101.9,70.3c0,0-1.5-0.1-2.9,1.1c-0.7,0.6-1.2,1.8-1.2,3c0,3.4,3,4.1,4.1,4.1h7.3v-7.7
	c-0.1-0.4-0.3-0.6-0.7-0.6L101.9,70.3z M18,53c1.4-1.5,3.7-2.8,6.8-3c0.5,0,1-0.1,1.5-0.1c5.1,0,9.7,2.1,13,5.5
	c-0.5-0.1-1.1-0.4-2.3-0.4c-10,0-13.4,19.8-16.4,19.7C18.6,74.9,11.8,60,18,53z M69.8,71.1c0-0.6,0.2-1.2,0.7-1.7
	c0.5-0.5,1.1-0.7,1.7-0.7c0.6,0,1.2,0.3,1.7,0.7c0.5,0.5,0.7,1,0.7,1.7c0,0.7-0.2,1.2-0.7,1.7c-0.5,0.4-1,0.7-1.7,0.7
	c-0.7,0-1.2-0.2-1.7-0.7C70,72.4,69.8,71.8,69.8,71.1z M26.8,54.8c2.9,0,5.2-0.7,5.2-1.6c0-0.9-2.3-1.6-5.1-1.6s-5.2,0.7-5.2,1.6
	C21.6,54.1,23.9,54.8,26.8,54.8z"/>
</svg>
