<svg width="144" height="144" viewBox="0 0 144 144" fill="none" xmlns="http://www.w3.org/2000/svg">
<path d="M12 48.0543C12 48.0543 16.7567 47.4543 19.9279 50.2635C21.8852 51.9966 22.4557 54.7585 22.4557 54.7585L28.9318 79.9723L34.318 59.3362C34.8413 57.1428 35.7875 54.43 37.2826 52.5966C39.1908 50.2615 43.0643 50.1139 43.4774 50.1139C43.8905 50.1139 47.762 50.2615 49.6682 52.5966C51.1633 54.43 52.1095 57.1408 52.6348 59.3362L58.021 79.9723L64.4951 54.7585C64.4951 54.7585 65.0675 51.9966 67.0249 50.2635C70.1961 47.4543 74.9508 48.0543 74.9508 48.0543L62.5495 95.1749C62.5495 95.1749 58.4597 95.472 56.4118 94.4235C53.7226 93.0464 52.4459 91.9841 50.8171 85.571C49.9938 82.2909 49.1807 79.0082 48.3777 75.7231L48.0728 74.4857C47.2131 70.9802 46.3554 67.4884 45.7515 65.0589L45.4564 63.8785C45.1849 62.8084 44.998 62.0884 44.9311 61.872C44.7482 61.2798 44.5298 59.8694 43.4754 59.8694C42.4446 59.8694 42.2066 61.2818 42.0197 61.872C41.9508 62.0884 41.7639 62.8064 41.4944 63.8785L41.1993 65.0589C40.5712 67.5835 39.9483 70.1094 39.3305 72.6366L39.0275 73.868C38.0749 77.7725 37.111 81.6741 36.1357 85.573C34.5069 91.9841 33.2282 93.0484 30.539 94.4235C28.4911 95.472 24.4013 95.1749 24.4013 95.1749L12 48.0543ZM86.7502 55.87V57.5716H86.7541V86.0156C86.7325 91.8523 86.1679 93.1487 83.7128 94.4923C81.8046 95.5369 78.8852 95.1415 78.8852 95.1415V63.2785C78.8852 61.6792 79.381 60.6307 81.2085 59.6903C82.3003 59.1277 83.3174 58.6969 84.3757 58.0595C85.8216 57.1939 86.5554 56.1651 86.7167 55.9212L86.7502 55.87ZM90.6885 48.2116C90.6885 48.2116 97.0957 47.0766 100.269 50.0805C102.053 51.7703 104.026 54.6503 104.473 55.3153L104.557 55.4412L104.567 55.4569L110.154 63.8294C110.424 64.2641 110.778 64.7382 111.344 64.7382C111.909 64.7382 112.265 64.2661 112.536 63.8294L118.121 55.4569L118.131 55.4412L118.216 55.3153C118.662 54.6503 120.635 51.7703 122.422 50.0785C125.593 47.0766 132 48.2097 132 48.2097L116.819 71.6903L131.959 95.0943C131.959 95.0943 125.404 95.9716 122.231 92.9677C120.201 91.0477 118.121 87.9218 118.121 87.9218L112.534 79.5513C112.265 79.1146 111.909 78.6405 111.344 78.6405C110.778 78.6405 110.424 79.1126 110.152 79.5513L104.567 87.9218C104.567 87.9218 102.602 91.0477 100.574 92.9677C97.4007 95.9716 90.7279 95.0943 90.7279 95.0943L105.868 71.6903L90.6885 48.2116ZM86.7344 48.0012H86.7541C86.7541 51.129 86.459 52.988 84.5705 54.432C83.6938 55.1058 82.727 55.6534 81.6984 56.0589C80.6553 56.4658 79.7002 57.0695 78.8852 57.8372C78.8852 52.1402 79.7174 50.0766 81.9541 48.8549C83.3449 48.0956 85.6289 48.009 86.4492 48.0012H86.7344Z" fill="white"/>
</svg>
