<?xml version="1.0" encoding="utf-8"?>
<!-- Generator: Adobe Illustrator 26.0.1, SVG Export Plug-In . SVG Version: 6.00 Build 0)  -->
<svg version="1.1" id="Layer_1" xmlns="http://www.w3.org/2000/svg" xmlns:xlink="http://www.w3.org/1999/xlink" x="0px" y="0px"
	 viewBox="0 0 144 144" style="enable-background:new 0 0 144 144;" xml:space="preserve">
<style type="text/css">
	.st0{fill:#FBBD71;}
</style>
<g>
	<path class="st0" d="M82.1,45.8c-2.7,1.4-3.9,3.9-3.9,10.7c0,0,1.4-1.4,3.5-2.2c1.6-0.6,2.7-1.4,3.5-1.9c2.3-1.8,2.7-3.9,2.7-7.6
		C87.9,44.9,84.2,44.7,82.1,45.8z"/>
	<path d="M65.6,47.4c-2.3,1.9-2.9,5.3-2.9,5.3l-7.6,29l-6.2-23.7c-0.6-2.5-1.8-5.6-3.5-7.8c-2.2-2.7-6.7-2.9-7.2-2.9
		c-0.4,0-4.9,0.2-7.2,2.9c-1.8,2.2-2.9,5.3-3.5,7.8l-5.9,23.7l-7.6-29c0,0-0.6-3.1-2.9-5.3C7.4,44.1,2,44.9,2,44.9l14.4,54.2
		c0,0,4.7,0.4,7-0.8c3.1-1.6,4.7-2.7,6.4-10.1c1.8-6.6,6.4-25.9,6.8-27.2c0.2-0.6,0.6-2.3,1.8-2.3s1.6,1.6,1.8,2.3
		c0.4,1.4,5,20.6,6.8,27.2c1.9,7.4,3.3,8.6,6.4,10.1c2.3,1.2,7,0.8,7,0.8l14.3-54.2C74.7,44.9,69.3,44.1,65.6,47.4z"/>
	<path d="M87.9,53.6c0,0-1,1.4-2.9,2.5c-1.4,0.8-2.5,1.2-3.9,1.9c-2.3,1.2-2.9,2.3-2.9,4.1v0.6v2.9l0,0v0.6v32.7c0,0,3.7,0.4,6-0.8
		c3.1-1.6,3.7-3.1,3.7-9.7V55.8l0,0L87.9,53.6L87.9,53.6z"/>
	<path d="M123.7,72.1L142,45.1c0,0-7.6-1.4-11.5,2.2c-2.5,2.2-5,6.2-5,6.2l-6.6,9.7c-0.4,0.6-0.8,1-1.4,1c-0.6,0-1.2-0.6-1.4-1
		l-6.6-9.7c0,0-2.7-3.9-5-6.2c-3.9-3.5-11.5-2.2-11.5-2.2l17.7,27l-18.1,27c0,0,8,1,11.9-2.5c2.5-2.2,4.9-5.9,4.9-5.9L116,81
		c0.4-0.6,0.8-1,1.4-1s1.2,0.6,1.4,1l6.6,9.7c0,0,2.5,3.7,4.9,5.9c3.9,3.5,11.7,2.5,11.7,2.5L123.7,72.1z"/>
</g>
</svg>
