<?xml version="1.0" encoding="utf-8"?>
<!-- Generator: Adobe Illustrator 26.0.1, SVG Export Plug-In . SVG Version: 6.00 Build 0)  -->
<svg version="1.1" id="Layer_1" xmlns="http://www.w3.org/2000/svg" xmlns:xlink="http://www.w3.org/1999/xlink" x="0px" y="0px"
	 viewBox="0 0 144 144" style="enable-background:new 0 0 144 144;" xml:space="preserve">
<style type="text/css">
	.st0{fill:#7F54B3;}
	.st1{fill:#FFFFFF;}
</style>
<g>
	<path class="st0" d="M15,30.3h114c7.2,0,13.1,5.8,13.1,13.1v43.5c0,7.2-5.8,13.1-13.1,13.1H88.1l5.6,13.7L69,99.9h-54
		C7.8,99.9,2,94.1,2,86.9V43.4C1.9,36.2,7.8,30.3,15,30.3L15,30.3z"/>
	<path class="st1" d="M10,48.6c0.8-1.1,2-1.7,3.6-1.8c2.9-0.2,4.6,1.1,5,4.1c1.8,11.9,3.7,22,5.7,30.2l12.5-23.7
		c1.1-2.2,2.6-3.3,4.3-3.4c2.5-0.2,4,1.4,4.7,4.8c1.4,7.6,3.2,14,5.4,19.5c1.5-14.5,4-24.9,7.5-31.3c0.9-1.6,2.1-2.4,3.8-2.5
		c1.3-0.1,2.5,0.3,3.6,1.1c1.1,0.9,1.7,1.9,1.8,3.2c0.1,1-0.1,1.9-0.6,2.7c-2.2,4.1-4,11-5.5,20.5c-1.4,9.3-1.9,16.5-1.6,21.7
		c0.1,1.4-0.1,2.7-0.7,3.8c-0.7,1.3-1.7,1.9-3,2c-1.5,0.1-3-0.6-4.5-2.1c-5.3-5.4-9.5-13.5-12.6-24.2C35.5,80.5,32.8,86,31,89.6
		c-3.4,6.4-6.2,9.7-8.6,9.9c-1.5,0.1-2.8-1.2-4-3.9c-2.9-7.5-6-21.9-9.4-43.2C8.8,50.9,9.2,49.6,10,48.6L10,48.6z M132.3,57.5
		c-2-3.6-5.1-5.7-9.1-6.6c-1.1-0.2-2.1-0.3-3.1-0.3c-5.5,0-9.9,2.8-13.4,8.5c-3,4.8-4.4,10.2-4.4,16c0,4.4,0.9,8.1,2.7,11.3
		c2,3.6,5.1,5.7,9.1,6.6c1.1,0.2,2.1,0.3,3.1,0.3c5.5,0,10-2.8,13.4-8.5c3-4.9,4.4-10.2,4.4-16.1C135.1,64.3,134.1,60.6,132.3,57.5z
		 M125.1,73.3c-0.8,3.8-2.2,6.5-4.3,8.4c-1.7,1.5-3.2,2.1-4.6,1.8c-1.4-0.3-2.5-1.5-3.4-3.7c-0.7-1.8-1-3.5-1-5.2
		c0-1.4,0.1-2.8,0.4-4.2c0.5-2.3,1.5-4.6,3-6.8c1.9-2.8,3.9-3.9,5.9-3.5c1.4,0.3,2.5,1.5,3.4,3.7c0.7,1.8,1,3.5,1,5.2
		C125.5,70.6,125.4,72,125.1,73.3L125.1,73.3z M96.6,57.5c-2-3.6-5.1-5.7-9.1-6.6c-1.1-0.2-2.1-0.3-3.1-0.3c-5.5,0-9.9,2.8-13.4,8.5
		c-3,4.8-4.4,10.2-4.4,16c0,4.4,0.9,8.1,2.7,11.3c2,3.6,5.1,5.7,9.1,6.6c1.1,0.2,2.1,0.3,3.1,0.3c5.5,0,10-2.8,13.4-8.5
		c3-4.9,4.4-10.2,4.4-16.1C99.4,64.3,98.5,60.6,96.6,57.5z M89.4,73.3c-0.8,3.8-2.2,6.5-4.3,8.4c-1.7,1.5-3.2,2.1-4.6,1.8
		c-1.4-0.3-2.5-1.5-3.4-3.7c-0.7-1.8-1-3.5-1-5.2c0-1.4,0.1-2.8,0.4-4.2c0.5-2.3,1.5-4.6,3-6.8c1.9-2.8,3.9-3.9,5.9-3.5
		c1.4,0.3,2.5,1.5,3.4,3.7c0.7,1.8,1,3.5,1,5.2C89.9,70.6,89.7,72,89.4,73.3L89.4,73.3z"/>
</g>
</svg>
