<?xml version="1.0" encoding="utf-8"?>
<!-- Generator: Adobe Illustrator 26.0.1, SVG Export Plug-In . SVG Version: 6.00 Build 0)  -->
<svg version="1.1" id="Layer_1" xmlns="http://www.w3.org/2000/svg" xmlns:xlink="http://www.w3.org/1999/xlink" x="0px" y="0px"
	 viewBox="0 0 144 144" style="enable-background:new 0 0 144 144;" xml:space="preserve">
<style type="text/css">
	.st0{fill:#470137;}
	.st1{fill:#FF61F6;}
</style>
<g id="Layer_2_1_">
	<g id="Surfaces">
		<g id="UI_UX_Surface">
			<g id="Outline_no_shadow">
				<path class="st0" d="M26.8,3.8h90.4c13.7,0,24.8,11.1,24.8,24.8v86.9c0,13.7-11.1,24.8-24.8,24.8H26.8
					C13.1,140.2,2,129.2,2,115.5V28.5C2,14.8,13.1,3.8,26.8,3.8z"/>
			</g>
		</g>
	</g>
	<g id="Outlined_Mnemonics_Logos">
		<g id="Xd">
			<path class="st1" d="M75.6,39.6L58.1,68.5l18.7,30.6c0.1,0.2,0.2,0.5,0.1,0.7c-0.1,0.2-0.3,0.1-0.6,0.1H62.9
				c-0.9,0-1.6-0.1-2-0.6c-1.2-2.5-2.5-4.8-3.7-7.3c-1.2-2.4-2.6-4.8-4-7.3c-1.4-2.5-2.8-5-4.2-7.6h-0.1c-1.2,2.5-2.6,5-3.9,7.5
				c-1.3,2.5-2.7,5-4,7.5c-1.3,2.5-2.7,5-4,7.4c-0.2,0.6-0.7,0.6-1.3,0.6H22.8c-0.2,0-0.4,0.1-0.4-0.2c-0.1-0.2,0-0.5,0.1-0.6
				l18.1-29.8L23,39.6c-0.2-0.2-0.2-0.5-0.1-0.6c0.1-0.2,0.3-0.2,0.6-0.2h13.2c0.3,0,0.6,0.1,0.8,0.1c0.2,0.1,0.4,0.3,0.6,0.5
				c1.1,2.5,2.4,5,3.7,7.5c1.4,2.5,2.7,5,4.2,7.4c1.4,2.5,2.7,4.9,3.9,7.4h0.1c1.2-2.6,2.5-5.1,3.8-7.5c1.3-2.4,2.6-4.9,4-7.3
				c1.3-2.4,2.6-5,3.9-7.3c0.1-0.2,0.2-0.5,0.3-0.6c0.2-0.1,0.5-0.2,0.8-0.1h12.3c0.3-0.1,0.6,0.1,0.6,0.4
				C75.8,39.3,75.7,39.5,75.6,39.6L75.6,39.6z"/>
			<path class="st1" d="M102.6,101.2c-4.3,0.1-8.6-0.8-12.5-2.6c-3.7-1.7-6.7-4.5-8.8-7.9c-2.2-3.6-3.2-8-3.2-13.3
				c-0.1-4.3,1.1-8.6,3.2-12.3c2.2-3.8,5.4-6.9,9.3-9c4.1-2.3,9-3.4,14.8-3.4c0.3,0,0.7,0,1.2,0.1c0.5,0.1,1.1,0.1,1.8,0.1V34.3
				c0-0.4,0.2-0.6,0.6-0.6h11.8c0.3-0.1,0.5,0.2,0.6,0.4c0,0.1,0,0.1,0,0.1v55.5c0,1.1,0.1,2.2,0.1,3.5c0.1,1.2,0.2,2.4,0.2,3.4
				c0,0.4-0.2,0.8-0.6,0.9c-3,1.3-6.2,2.2-9.5,2.8C108.6,100.9,105.6,101.2,102.6,101.2z M108.3,89.5V63.8c-0.5-0.1-1.1-0.2-1.6-0.3
				c-0.6-0.1-1.3-0.1-1.9-0.1c-2.3,0-4.6,0.5-6.6,1.5c-2,1-3.7,2.4-5,4.3s-1.9,4.4-1.9,7.4c-0.1,2,0.3,4.1,1,6
				c0.6,1.6,1.5,3,2.6,4.1c1.1,1.1,2.4,1.9,4,2.3c1.6,0.5,3.2,0.8,4.8,0.8c0.9,0,1.7-0.1,2.4-0.1C106.9,89.9,107.6,89.7,108.3,89.5z
				"/>
		</g>
	</g>
</g>
</svg>
