<svg width="144" height="144" viewBox="0 0 144 144" fill="none" xmlns="http://www.w3.org/2000/svg">
<g clip-path="url(#clip0_40_189)">
<path d="M101.25 29H41.75C34.7084 29 29 34.7084 29 41.75V101.25C29 108.292 34.7084 114 41.75 114H101.25C108.292 114 114 108.292 114 101.25V41.75C114 34.7084 108.292 29 101.25 29Z" fill="#5F01D1"/>
<path d="M62.7012 96.0703H52.4082L56.5586 86.2754L45.1035 58.8828H55.5625L61.7051 74.6543L67.8477 58.8828H78.1406M87.7695 71.5H76.3145L86.6074 46.9297H98.0625" fill="white"/>
<path d="M79.3027 86.4414C82.7869 86.4414 85.6113 83.617 85.6113 80.1328C85.6113 76.6487 82.7869 73.8242 79.3027 73.8242C75.8186 73.8242 72.9941 76.6487 72.9941 80.1328C72.9941 83.617 75.8186 86.4414 79.3027 86.4414Z" fill="white"/>
</g>
<defs>
<clipPath id="clip0_40_189">
<rect width="85" height="85" fill="white" transform="translate(29 29)"/>
</clipPath>
</defs>
</svg>
