<svg width="144" height="144" viewBox="0 0 144 144" fill="none" xmlns="http://www.w3.org/2000/svg">
<g clip-path="url(#clip0_40_60)">
<path d="M91.9354 70.9155C80.9328 65.0357 70.3977 59.6301 59.6289 53.9863V87.7488C70.961 81.5886 82.9053 75.947 91.9822 70.9155H91.9354Z" fill="white"/>
<path d="M91.9354 70.9155C80.9328 65.0357 59.6289 53.9863 59.6289 53.9863L88.0326 73.0772C88.0326 73.0772 82.8586 75.947 91.9354 70.9155Z" fill="#E8E0E0"/>
<path d="M61.6985 114.178C38.845 113.757 31.0395 113.378 26.2417 112.39C22.9957 111.733 20.1749 110.275 18.1066 108.16C16.5081 106.559 15.2369 104.117 14.2506 100.728C13.4046 97.9052 13.0751 95.5564 12.6053 89.8191C11.8862 76.8707 11.7148 66.2844 12.6053 54.4559C13.34 47.9238 13.6962 40.1694 18.5764 35.6455C20.8806 33.5282 23.5612 32.1657 26.5712 31.6024C31.2732 30.7097 51.3059 30.0039 72.0443 30.0039C92.7359 30.0039 112.813 30.7097 117.52 31.6024C121.28 32.3082 124.806 34.4232 126.877 37.1505C131.33 44.1546 131.408 52.864 131.86 59.6766C132.047 62.9226 132.047 81.3546 131.86 84.6006C131.156 95.3672 130.59 99.1764 128.992 103.126C128.003 105.619 127.16 106.935 125.699 108.394C123.409 110.638 120.489 112.13 117.328 112.673C97.5515 114.16 80.7582 114.483 61.6985 114.178ZM91.9834 70.9152C80.9808 65.0354 70.4458 59.5831 59.6769 53.9393V87.7041C71.009 81.5438 82.9556 75.9 92.0302 70.8685L91.9834 70.9152Z" fill="#CD201F"/>
</g>
<defs>
<clipPath id="clip0_40_60">
<rect width="120" height="84.288" fill="white" transform="translate(12 30)"/>
</clipPath>
</defs>
</svg>
