<svg width="300" height="248" viewBox="0 0 300 248" fill="none" xmlns="http://www.w3.org/2000/svg">
<path d="M150 247.478C232.843 247.478 300 243.557 300 238.72C300 233.884 232.843 229.963 150 229.963C67.1573 229.963 0 233.884 0 238.72C0 243.557 67.1573 247.478 150 247.478Z" fill="#33315D"/>
<path d="M280.946 110.955H18.1035V120.385H280.946V110.955Z" fill="#908EF7"/>
<path opacity="0.3" d="M88.4501 110.955H18.1035V120.385H88.4501V110.955Z" fill="white"/>
<path d="M89.5716 120.385H83.4521L86.655 238.581H89.5716H92.4882L95.6988 120.385H89.5716Z" fill="#908EF7"/>
<path opacity="0.3" d="M86.655 238.581H89.5716V122.923L83.5527 124.021L86.655 238.581Z" fill="white"/>
<path d="M31.5726 120.385H25.4531L28.656 238.581H31.5726H34.4892L37.692 120.385H31.5726Z" fill="#908EF7"/>
<path opacity="0.3" d="M28.6559 238.581H31.5725V122.923L25.5459 124.021L28.6559 238.581Z" fill="white"/>
<path d="M267.477 120.385H261.357L264.56 238.581H267.477H270.393L273.604 120.385H267.477Z" fill="#908EF7"/>
<path opacity="0.3" d="M264.56 238.581H267.477V122.923L261.458 124.021L264.56 238.581Z" fill="white"/>
<path d="M209.478 120.385H203.358L206.561 238.581H209.478H212.394L215.597 120.385H209.478Z" fill="#908EF7"/>
<path opacity="0.3" d="M206.561 238.581H209.478V122.923L203.459 124.021L206.561 238.581Z" fill="white"/>
<path d="M142.867 60.4674H80.3729C79.8658 60.4473 79.3611 60.5475 78.9 60.7597C78.4389 60.9719 78.0346 61.2902 77.72 61.6885C77.4054 62.0868 77.1895 62.5539 77.0899 63.0516C76.9903 63.5492 77.0098 64.0634 77.1469 64.5522L85.4712 104.278C85.7391 105.402 86.3658 106.408 87.2564 107.143C88.147 107.879 89.253 108.304 90.407 108.355H152.948C153.454 108.375 153.958 108.275 154.418 108.063C154.878 107.851 155.282 107.534 155.596 107.136C155.911 106.739 156.127 106.273 156.227 105.776C156.328 105.28 156.309 104.766 156.174 104.278L147.842 64.5522C147.573 63.4209 146.942 62.4089 146.043 61.6711C145.145 60.9333 144.029 60.5104 142.867 60.4674Z" fill="#263238"/>
<path d="M90.9494 106.089C90.1699 106.036 89.4269 105.738 88.8266 105.238C88.2264 104.738 87.7996 104.061 87.6073 103.303L79.283 63.5774C79.2118 63.3145 79.2005 63.0389 79.2501 62.7711C79.2996 62.5033 79.4087 62.2501 79.5693 62.0301C79.7358 61.8417 79.9425 61.6932 80.1742 61.5954C80.4058 61.4977 80.6565 61.4532 80.9076 61.4653H143.448C144.228 61.5179 144.971 61.8156 145.571 62.3158C146.171 62.816 146.598 63.4931 146.79 64.2504L155.115 103.977C155.186 104.239 155.197 104.515 155.148 104.783C155.098 105.051 154.989 105.304 154.828 105.524C154.663 105.714 154.456 105.863 154.224 105.961C153.993 106.059 153.741 106.102 153.49 106.089H90.9494Z" fill="white"/>
<path opacity="0.4" d="M138.133 102.909L130.242 65.2406C130.197 65.0176 130.203 64.7875 130.257 64.5668C130.312 64.3461 130.415 64.1402 130.558 63.9636C130.701 63.7871 130.882 63.6443 131.086 63.5455C131.291 63.4466 131.515 63.3941 131.742 63.3916H141.893C142.244 63.3943 142.585 63.5169 142.858 63.7391C143.131 63.9613 143.32 64.2699 143.393 64.6139L151.284 102.251C151.329 102.474 151.323 102.704 151.269 102.925C151.214 103.146 151.112 103.352 150.968 103.528C150.825 103.705 150.645 103.848 150.44 103.946C150.235 104.045 150.011 104.098 149.784 104.1H139.634C139.286 104.099 138.949 103.981 138.677 103.765C138.404 103.549 138.213 103.247 138.133 102.909Z" fill="#908EF7"/>
<path d="M84.4888 66.6871L84.1484 65.0547H96.6813L97.0217 66.6871H84.4888Z" fill="#908EF7"/>
<path d="M90.2759 70.7413L89.9355 69.1089H111.899L112.247 70.7413H90.2759Z" fill="#EBEBEB"/>
<path d="M91.436 74.7872L91.0879 73.1548H115.713L116.053 74.7872H91.436Z" fill="#EBEBEB"/>
<path d="M92.5894 78.8414L92.249 77.209H112.07L112.418 78.8414H92.5894Z" fill="#EBEBEB"/>
<path d="M88.3032 85.4092L87.9551 83.7769H95.8848L96.2252 85.4092H88.3032Z" fill="#908EF7"/>
<path d="M94.0826 89.4556L93.7422 87.8232H103.397L103.745 89.4556H94.0826Z" fill="#EBEBEB"/>
<path d="M106.058 89.4556L105.71 87.8232H115.373L115.713 89.4556H106.058Z" fill="#EBEBEB"/>
<path d="M95.2427 93.5093L94.9023 91.877H127.55L127.89 93.5093H95.2427Z" fill="#EBEBEB"/>
<path d="M96.3951 97.5552L96.0547 95.9229H120.95L121.291 97.5552H96.3951Z" fill="#EBEBEB"/>
<path d="M172.065 108.115H89.7808C87.5373 108.115 86.0828 109.392 86.5547 110.954H177C176.536 109.392 174.308 108.115 172.065 108.115Z" fill="#263238"/>
<path opacity="0.1" d="M62.7424 50.4253L54.8436 12.7802C54.8006 12.5578 54.8069 12.3286 54.8621 12.1088C54.9174 11.8891 55.0202 11.6842 55.1634 11.5085C55.3065 11.3329 55.4865 11.1909 55.6906 11.0924C55.8947 10.994 56.1179 10.9416 56.3445 10.939H120.247C120.597 10.9413 120.937 11.0628 121.21 11.2835C121.483 11.5041 121.672 11.811 121.748 12.1536L129.646 49.7677C129.691 49.9907 129.685 50.2207 129.631 50.4414C129.576 50.6621 129.473 50.8681 129.33 51.0446C129.187 51.2212 129.006 51.3639 128.802 51.4628C128.597 51.5617 128.373 51.6142 128.145 51.6167H64.2433C63.8956 51.6156 63.5585 51.4974 63.2862 51.2813C63.014 51.0651 62.8224 50.7636 62.7424 50.4253Z" fill="#908EF7"/>
<path d="M85.4558 12.1772H72.041L71.7393 10.7305H85.1541L85.4558 12.1772Z" fill="#908EF7"/>
<path opacity="0.4" d="M83.2741 14.4823H77.8896L77.5879 13.0356H82.9724L83.2741 14.4823Z" fill="#908EF7"/>
<path opacity="0.4" d="M92.2328 14.4823H83.9394L83.6377 13.0356H91.9311L92.2328 14.4823Z" fill="#908EF7"/>
<path opacity="0.4" d="M95.8465 16.7802H78.3701L78.0684 15.3335H95.5525L95.8465 16.7802Z" fill="#908EF7"/>
<path opacity="0.4" d="M93.626 19.0854H78.8496L78.5479 17.6387H93.3243L93.626 19.0854Z" fill="#908EF7"/>
<path opacity="0.4" d="M103.428 43.54H94.0205L94.3222 44.979H103.73L103.428 43.54Z" fill="#908EF7"/>
<path d="M91.6993 40.3837H77.9209L77.6191 38.937H91.3976L91.6993 40.3837Z" fill="#908EF7"/>
<path opacity="0.4" d="M97.2381 45.8379H84.4268L84.7285 47.2846H97.5399L97.2381 45.8379Z" fill="#908EF7"/>
<path opacity="0.4" d="M93.3547 43.54H83.9473L84.249 44.979H93.6564L93.3547 43.54Z" fill="#908EF7"/>
<path opacity="0.4" d="M102.283 41.2349H83.4678L83.7695 42.6816H102.584L102.283 41.2349Z" fill="#908EF7"/>
<path d="M84.9843 1.43896H69.8056L69.5039 0H84.6826L84.9843 1.43896Z" fill="#908EF7"/>
<path opacity="0.4" d="M92.4807 6.90088H75.7393L76.041 8.34758H92.7747L92.4807 6.90088Z" fill="#908EF7"/>
<path opacity="0.4" d="M89.131 4.60303H75.2598L75.5615 6.04199H89.4328L89.131 4.60303Z" fill="#908EF7"/>
<path opacity="0.4" d="M90.0518 2.29785H74.7803L75.082 3.74455H90.3535L90.0518 2.29785Z" fill="#908EF7"/>
<path d="M84.8141 22.83H74.2617L73.96 21.3833H84.5123L84.8141 22.83Z" fill="#908EF7"/>
<path opacity="0.4" d="M101.385 28.2842H80.7676L81.0693 29.7309H101.679L101.385 28.2842Z" fill="#908EF7"/>
<path opacity="0.4" d="M88.829 25.9863H80.2881L80.5898 27.433H89.1307L88.829 25.9863Z" fill="#908EF7"/>
<path opacity="0.4" d="M98.0976 25.9863H89.5566L89.8584 27.433H98.3993L98.0976 25.9863Z" fill="#908EF7"/>
<path opacity="0.4" d="M98.6234 23.6812H79.8086L80.1103 25.1278H98.9174L98.6234 23.6812Z" fill="#908EF7"/>
<path opacity="0.4" d="M98.5849 35.1924H82.207L82.5087 36.6313H98.8866L98.5849 35.1924Z" fill="#908EF7"/>
<path opacity="0.4" d="M86.4931 32.8872H81.7275L82.0293 34.3339H86.7871L86.4931 32.8872Z" fill="#908EF7"/>
<path opacity="0.4" d="M93.9428 32.8872H87.1426L87.4443 34.3339H94.2445L93.9428 32.8872Z" fill="#908EF7"/>
<path opacity="0.4" d="M100.063 30.5894H81.248L81.5498 32.0283H100.365L100.063 30.5894Z" fill="#908EF7"/>
<path opacity="0.4" d="M114.877 30.2026H108.139L107.837 28.7559H114.583L114.877 30.2026Z" fill="#908EF7"/>
<path opacity="0.4" d="M126.095 30.2026H115.713L115.411 28.7559H125.793L126.095 30.2026Z" fill="#908EF7"/>
<path opacity="0.4" d="M130.505 32.5082H108.619L108.317 31.0615H130.204L130.505 32.5082Z" fill="#908EF7"/>
<path opacity="0.4" d="M127.596 34.8056H109.099L108.797 33.3589H127.294L127.596 34.8056Z" fill="#908EF7"/>
<path opacity="0.4" d="M135.882 21.0508H114.924L115.226 22.4897H136.183L135.882 21.0508Z" fill="#908EF7"/>
<path opacity="0.4" d="M131.812 18.7451H114.444L114.746 20.1918H132.106L131.812 18.7451Z" fill="#908EF7"/>
<path d="M128.671 16.4473H109.547L109.849 17.8862H128.973L128.671 16.4473Z" fill="#908EF7"/>
<path opacity="0.4" d="M136.825 44.0122H111.017L111.318 45.4589H137.127L136.825 44.0122Z" fill="#908EF7"/>
<path opacity="0.4" d="M121.229 41.7144H110.537L110.839 43.1533H121.53L121.229 41.7144Z" fill="#908EF7"/>
<path opacity="0.4" d="M132.833 41.7144H122.142L122.443 43.1533H133.135L132.833 41.7144Z" fill="#908EF7"/>
<path opacity="0.4" d="M133.607 39.4087H110.058L110.359 40.8554H133.909L133.607 39.4087Z" fill="#908EF7"/>
<path opacity="0.4" d="M132.957 50.9131H112.456L112.758 52.3598H133.259L132.957 50.9131Z" fill="#908EF7"/>
<path opacity="0.4" d="M117.941 48.6152H111.977L112.278 50.0619H118.243L117.941 48.6152Z" fill="#908EF7"/>
<path opacity="0.4" d="M127.271 48.6152H118.761L119.062 50.0619H127.572L127.271 48.6152Z" fill="#908EF7"/>
<path opacity="0.4" d="M135.054 46.3096H111.497L111.799 47.7563H135.348L135.054 46.3096Z" fill="#908EF7"/>
<path opacity="0.4" d="M72.3274 52.7002H56.2822L56.5839 54.1469H72.6291L72.3274 52.7002Z" fill="#908EF7"/>
<path opacity="0.4" d="M67.5852 50.4023H55.8027L56.1045 51.8413H67.8792L67.5852 50.4023Z" fill="#908EF7"/>
<path opacity="0.4" d="M80.1878 50.4023H68.4131L68.7148 51.8413H80.4973L80.1878 50.4023Z" fill="#908EF7"/>
<path opacity="0.4" d="M78.8804 48.0967H55.3232L55.625 49.5434H79.1744L78.8804 48.0967Z" fill="#908EF7"/>
<path d="M259.044 95.9229H249.11L250.271 110.955H257.883L259.044 95.9229Z" fill="#908EF7"/>
<path opacity="0.4" d="M259.044 95.9229H249.11L250.271 110.955H257.883L259.044 95.9229Z" fill="white"/>
<path d="M42.5663 85.4868H56.8476L51.9737 110.955H37.6924L42.5663 85.4868Z" fill="#263238"/>
<path d="M60.7536 78.6631H40.585L46.2325 110.955H66.4011L60.7536 78.6631Z" fill="#908EF7"/>
<path d="M39.3936 78.6631H40.585L46.2325 110.955H45.0411L39.3936 78.6631Z" fill="#908EF7"/>
<path opacity="0.3" d="M39.3936 78.6631H40.585L46.2325 110.955H45.0411L39.3936 78.6631Z" fill="black"/>
<path d="M49.134 107.497L44.6934 82.1138H57.8606L62.2936 107.497H49.134Z" fill="white"/>
<path opacity="0.6" d="M61.6673 107.497L57.2344 82.1138H57.861L62.294 107.497H61.6673Z" fill="#908EF7"/>
<path d="M160.653 37.3899C160.939 38.0088 160.846 38.6664 160.436 38.8521C160.026 39.0378 159.469 38.6896 159.183 38.0784C158.897 37.4673 158.997 36.8019 159.4 36.6163C159.802 36.4306 160.367 36.7401 160.653 37.3899Z" fill="#263238"/>
<path d="M160.9 38.6123C160.9 38.6123 161.148 42.8363 160.39 45.281C161.937 45.7994 163.608 44.5074 163.608 44.5074L160.9 38.6123Z" fill="#FF5652"/>
<path d="M160.731 32.2758C160.665 32.3302 160.584 32.3626 160.499 32.3687C159.995 32.382 159.502 32.5144 159.06 32.7551C158.617 32.9958 158.238 33.338 157.953 33.7535C157.928 33.8011 157.893 33.8431 157.851 33.877C157.809 33.9108 157.761 33.9359 157.709 33.9508C157.657 33.9656 157.603 33.9698 157.549 33.9632C157.496 33.9566 157.444 33.9393 157.397 33.9123C157.351 33.8853 157.31 33.8491 157.277 33.8061C157.245 33.763 157.221 33.7138 157.208 33.6614C157.195 33.6091 157.193 33.5547 157.201 33.5014C157.21 33.4481 157.229 33.397 157.257 33.3512C157.608 32.8191 158.081 32.3791 158.637 32.0681C159.193 31.7571 159.815 31.5842 160.452 31.5641C160.537 31.5594 160.621 31.5816 160.692 31.6274C160.763 31.6732 160.818 31.7403 160.849 31.8192C160.88 31.898 160.885 31.9847 160.864 32.0667C160.843 32.1487 160.796 32.2219 160.731 32.2758Z" fill="#263238"/>
<path d="M183.436 36.4307C185.827 44.7086 188.496 51.1297 191.753 54.7968C191.753 54.7968 191.815 61.303 180.729 64.3976C168.536 67.8015 173.209 59.9724 173.209 59.9724C179.398 56.5297 178.81 51.3309 174.153 49.3504L183.436 36.4307Z" fill="#FF8B7B"/>
<path d="M194.337 53.2105C194.12 50.1855 193.834 46.7351 191.97 46.6423C189.912 46.5495 177.998 51.8721 175.452 55.6242C172.907 59.3763 177.882 63.0511 177.882 63.0511L194.337 53.2105Z" fill="#263238"/>
<path d="M169.952 100.054L159.663 99.7139L159.849 108.332C159.849 108.332 168.823 107.404 169.217 105.044L169.952 100.054Z" fill="#FF8B7B"/>
<path d="M154.225 103.946L153.142 108.355L159.849 108.34L159.663 99.7217L154.225 103.946Z" fill="#FF8B7B"/>
<path d="M211.249 64.2427L211.032 66.4553C210.962 67.1671 210.869 67.8633 210.777 68.5673C210.599 69.9676 210.374 71.3679 210.134 72.7604C209.67 75.5533 209.067 78.3306 208.371 81.1234C207.663 83.9698 206.806 86.7768 205.802 89.5328C205.268 90.9486 204.711 92.3643 204.046 93.8033C203.375 95.3127 202.6 96.7733 201.725 98.1743C201.516 98.5379 201.253 98.948 200.998 99.2884C200.743 99.6288 200.495 100.062 200.224 100.418C199.953 100.774 199.667 101.192 199.311 101.555L198.808 102.128C198.629 102.339 198.437 102.54 198.236 102.731C196.685 104.25 194.868 105.469 192.875 106.328C189.817 107.64 186.572 108.462 183.258 108.765C181.75 108.943 180.257 109.013 178.795 109.052C177.332 109.09 175.87 109.052 174.431 108.974C172.992 108.897 171.569 108.773 170.153 108.603C168.737 108.433 167.36 108.208 165.859 107.907L166.107 99.8222C171.047 98.9584 175.93 97.7958 180.729 96.3408C181.796 95.9938 182.844 95.5909 183.87 95.1339C184.742 94.7656 185.577 94.3121 186.361 93.7801C186.817 93.5055 187.203 93.1296 187.49 92.6815L187.715 92.3256C187.818 92.1737 187.914 92.0161 188.001 91.8537C188.111 91.6762 188.212 91.4928 188.303 91.3045C188.403 91.1033 188.511 90.9176 188.612 90.6933C189.521 88.709 190.268 86.6548 190.848 84.5506C191.482 82.2761 192.078 79.9088 192.558 77.4564C193.037 75.004 193.501 72.5283 193.927 70.0295L194.515 66.2696L195.049 62.6104L211.249 64.2427Z" fill="#33325E"/>
<path opacity="0.2" d="M211.249 64.2427L211.032 66.4553C210.962 67.1671 210.869 67.8633 210.777 68.5673C210.599 69.9676 210.374 71.3679 210.134 72.7604C209.67 75.5533 209.067 78.3306 208.371 81.1234C207.663 83.9698 206.806 86.7768 205.802 89.5328C205.268 90.9486 204.711 92.3643 204.046 93.8033C203.375 95.3127 202.6 96.7733 201.725 98.1743C201.516 98.5379 201.253 98.948 200.998 99.2884C200.743 99.6288 200.495 100.062 200.224 100.418C199.953 100.774 199.667 101.192 199.311 101.555L198.808 102.128C198.629 102.339 198.437 102.54 198.236 102.731C196.685 104.25 194.868 105.469 192.875 106.328C189.817 107.64 186.572 108.462 183.258 108.765C181.75 108.943 180.257 109.013 178.795 109.052C177.332 109.09 175.87 109.052 174.431 108.974C172.992 108.897 171.569 108.773 170.153 108.603C168.737 108.433 167.36 108.208 165.859 107.907L166.107 99.8222C171.047 98.9584 175.93 97.7958 180.729 96.3408C181.796 95.9938 182.844 95.5909 183.87 95.1339C184.742 94.7656 185.577 94.3121 186.361 93.7801C186.817 93.5055 187.203 93.1296 187.49 92.6815L187.715 92.3256C187.818 92.1737 187.914 92.0161 188.001 91.8537C188.111 91.6762 188.212 91.4928 188.303 91.3045C188.403 91.1033 188.511 90.9176 188.612 90.6933C189.521 88.709 190.268 86.6548 190.848 84.5506C191.482 82.2761 192.078 79.9088 192.558 77.4564C193.037 75.004 193.501 72.5283 193.927 70.0295L194.515 66.2696L195.049 62.6104L211.249 64.2427Z" fill="black"/>
<path d="M165.565 74.5242C169.401 91.0632 171.56 107.947 172.01 124.919H217.306C217.554 119.325 216.61 87.7843 212.053 65.0008C211.649 62.9371 210.836 60.9751 209.662 59.23C208.489 57.4849 206.978 55.992 205.22 54.8388C203.461 53.6857 201.49 52.8956 199.422 52.515C197.354 52.1344 195.23 52.171 193.176 52.6226L192.96 52.6768C187.304 53.961 179.189 56.0343 174.393 57.8524L174.199 57.9298C170.991 59.177 168.347 61.5483 166.758 64.6015C165.17 67.6547 164.746 71.1815 165.565 74.5242Z" fill="#33325E"/>
<path opacity="0.2" d="M168.513 88.9912C168.869 91.1651 169.232 93.4706 169.565 95.8843C173.271 92.0161 174.446 80.1641 174.446 80.1641L168.513 88.9912Z" fill="black"/>
<path d="M130.884 100.619L120.602 99.6597L120.262 108.27C121.961 108.739 123.756 108.734 125.453 108.256C127.149 107.777 128.682 106.843 129.886 105.555L130.884 100.619Z" fill="#FF8B7B"/>
<path d="M115.713 102.197L112.417 108.115L120.293 108.27L120.633 99.6597L115.713 102.197Z" fill="#FF8B7B"/>
<path d="M182.562 70.5557C181.85 71.9095 181.216 73.1087 180.504 74.3465C179.792 75.5843 179.112 76.7912 178.377 77.9903C176.922 80.404 175.414 82.7714 173.82 85.1155C170.62 89.9158 167.075 94.4769 163.213 98.7624C161.145 101.07 158.897 103.209 156.49 105.16C156.189 105.416 155.833 105.663 155.5 105.934C155.168 106.205 154.874 106.421 154.378 106.708C153.883 106.994 153.466 107.28 153.017 107.528C152.568 107.775 152.104 108 151.648 108.201C149.941 108.942 148.155 109.484 146.325 109.818C143.124 110.357 139.861 110.43 136.639 110.034C135.13 109.861 133.632 109.603 132.152 109.261C131.414 109.09 130.687 108.897 129.97 108.68C129.197 108.464 128.57 108.224 127.742 107.907L129.019 99.9229C133.877 99.2653 139.13 98.422 142.751 96.7819C143.554 96.4516 144.311 96.0173 145.002 95.4899C145.28 95.2986 145.539 95.081 145.776 94.8401C145.83 94.7704 146.07 94.5616 146.248 94.3914C146.425 94.2212 146.634 94.0587 146.828 93.8576C148.484 92.2166 150.034 90.4725 151.47 88.6355C154.584 84.6174 157.494 80.4448 160.188 76.1336C161.581 73.9442 162.935 71.7161 164.289 69.4803L166.285 66.1228L168.211 62.8193L182.562 70.5557Z" fill="#33325E"/>
<path d="M170.131 232.036H161.667L157.404 212.425H165.876L170.131 232.036Z" fill="#FF8B7B"/>
<path d="M161.195 230.226H170.71C170.876 230.232 171.035 230.291 171.164 230.394C171.294 230.497 171.387 230.639 171.43 230.799L173.101 238.334C173.141 238.517 173.139 238.707 173.094 238.889C173.05 239.071 172.966 239.24 172.846 239.385C172.727 239.529 172.577 239.645 172.406 239.723C172.236 239.801 172.05 239.839 171.863 239.835C168.544 239.781 166.927 239.587 162.742 239.587C160.166 239.587 156.862 239.85 153.311 239.85C149.76 239.85 149.288 236.338 150.743 236.021C157.272 234.589 157.706 232.624 159.818 230.744C160.196 230.407 160.687 230.222 161.195 230.226Z" fill="#263238"/>
<g opacity="0.2">
<path d="M165.883 212.432H157.404L159.772 223.294L168.08 222.544L165.883 212.432Z" fill="black"/>
</g>
<path d="M180.721 26.4817C183.816 34.3109 185.967 38.7438 183.924 44.43C180.83 52.9787 169.852 53.8451 164.514 47.0836C159.717 40.9951 155.524 29.2126 161.582 22.7373C162.908 21.3018 164.58 20.2294 166.438 19.6223C168.296 19.0153 170.278 18.8935 172.196 19.2688C174.115 19.6441 175.905 20.5039 177.397 21.7664C178.889 23.0289 180.034 24.6521 180.721 26.4817Z" fill="#FF8B7B"/>
<path d="M165.852 38.2099C164.583 39.9118 163.609 41.2038 163.609 41.2038C163.609 41.2038 161.001 34.7285 161.999 31.7577C160.731 29.2434 158.17 32.9491 157.203 28.052C156.236 23.1549 160.421 17.8942 161.999 16.8034C162.162 17.374 162.235 17.9665 162.216 18.5595C166.481 15.0987 171.901 13.387 177.379 13.7707C176.921 14.4518 176.63 15.2309 176.528 16.0452C176.528 16.0452 185.711 17.5925 187.8 22.7913C187.061 22.4387 186.282 22.1789 185.479 22.0177C187.163 24.4313 187.83 27.41 187.336 30.311C186.67 34.5417 186.323 38.8165 186.299 43.0992C186.384 45.2963 180.358 49.4972 176.683 45.0101C173.008 40.523 165.852 38.2099 165.852 38.2099Z" fill="#263238"/>
<path d="M169.682 36.5234C170.161 38.347 170.025 40.2778 169.295 42.0162C168.312 44.3371 166.293 43.7801 165.295 41.7532C164.39 39.9351 163.81 36.5621 165.411 34.9452C167.013 33.3283 169.078 34.334 169.682 36.5234Z" fill="#FF8B7B"/>
<path d="M185.588 124.888C185.588 124.888 146.256 139.154 145.103 158.022C142.968 192.782 157.18 220.3 157.18 220.3L170.208 218.907C170.208 218.907 167.887 207.721 166.162 176.234C163.988 136.662 231.147 177.162 217.314 124.888H185.588Z" fill="#33325E"/>
<path opacity="0.5" d="M185.588 124.888C185.588 124.888 146.256 139.154 145.103 158.022C142.968 192.782 157.18 220.3 157.18 220.3L170.208 218.907C170.208 218.907 167.887 207.721 166.162 176.234C163.988 136.662 231.147 177.162 217.314 124.888H185.588Z" fill="white"/>
<path d="M153.575 215.504C153.513 215.504 155.648 221.29 155.648 221.29L171.894 219.697L171.082 214.436L153.575 215.504Z" fill="#33325E"/>
<path d="M133.545 233.003H125.073L122.598 213.384H131.069L133.545 233.003Z" fill="#FF8B7B"/>
<path d="M125.012 230.218H134.295C134.463 230.216 134.626 230.272 134.757 230.376C134.888 230.481 134.979 230.627 135.015 230.791L136.701 238.318C136.751 238.503 136.756 238.696 136.718 238.883C136.68 239.07 136.598 239.245 136.481 239.395C136.363 239.545 136.212 239.666 136.039 239.748C135.867 239.829 135.678 239.87 135.487 239.866C132.152 239.811 127.325 239.626 123.109 239.633C118.204 239.633 117.268 239.904 111.504 239.912C108.023 239.912 107.056 236.407 108.51 236.044C115.132 234.589 117.252 234.427 122.969 230.891C123.573 230.478 124.281 230.245 125.012 230.218Z" fill="#263238"/>
<path opacity="0.2" d="M122.605 213.392L123.952 224.075L132.353 223.503L131.077 213.392H122.605Z" fill="black"/>
<path d="M172.01 124.888C172.01 124.888 107.566 130.605 108.262 162.974C108.982 196.642 121.561 219.348 121.561 219.348H134.141C134.141 219.348 131.758 201.88 132.183 168.737C132.307 158.812 152.375 155.531 171.964 154.371C188.891 153.365 204.735 143.718 211.311 128.067L212.664 124.888H172.01Z" fill="#33325E"/>
<path opacity="0.5" d="M172.01 124.888C172.01 124.888 107.566 130.605 108.262 162.974C108.982 196.642 121.561 219.348 121.561 219.348H134.141C134.141 219.348 131.758 201.88 132.183 168.737C132.307 158.812 152.375 155.531 171.964 154.371C188.891 153.365 204.735 143.718 211.311 128.067L212.664 124.888H172.01Z" fill="white"/>
<path d="M118.614 215.968C118.56 215.968 120.773 221.786 120.773 221.786L135.967 220.695L135.077 215.434L118.614 215.968Z" fill="#33325E"/>
<path d="M188.93 88.5113L180.752 120.021C178.661 128.094 177.606 136.4 177.611 144.739V159.384C177.611 163.082 180.335 166.084 183.7 166.084H225.615C228.981 166.084 231.704 163.082 231.704 159.384V144.739C231.701 136.4 232.759 128.094 234.853 120.021L242.071 92.1706C243.185 87.8924 240.26 83.6606 236.214 83.6606H194.778C193.403 83.7039 192.081 84.2043 191.022 85.0828C189.963 85.9613 189.227 87.1677 188.93 88.5113Z" fill="#D1D0FF"/>
<path d="M136.794 150.828L138.163 158.641C138.89 162.749 142.503 166.084 146.24 166.084H192.836C196.573 166.084 199.025 162.749 198.298 158.641L196.928 150.828C196.101 146.147 191.993 142.356 187.738 142.356H143.037C138.751 142.356 135.974 146.147 136.794 150.828Z" fill="#D1D0FF"/>
<path d="M197.323 173.929H172.915L170.532 166.084H199.706L197.323 173.929Z" fill="#33325E"/>
<path d="M189.479 173.929H180.76V232.268H189.479V173.929Z" fill="#33325E"/>
<path opacity="0.7" d="M189.479 232.268H180.76V175.329L189.479 176.218V232.268Z" fill="#D1D0FF"/>
<path opacity="0.7" d="M187.352 232.268H185.271V175.785L187.352 176.002V232.268Z" fill="#D1D0FF"/>
<path d="M205.168 241.289H165.063C164.829 241.287 164.602 241.211 164.413 241.072C164.225 240.934 164.085 240.74 164.013 240.517C163.941 240.295 163.941 240.055 164.013 239.833C164.085 239.61 164.225 239.416 164.413 239.277L170.772 234.635C173.829 232.396 177.52 231.188 181.309 231.185H188.929C192.716 231.189 196.404 232.397 199.459 234.635L205.826 239.277C206.015 239.416 206.155 239.611 206.226 239.834C206.298 240.058 206.297 240.298 206.224 240.521C206.152 240.744 206.01 240.938 205.821 241.076C205.631 241.214 205.403 241.288 205.168 241.289Z" fill="#D1D0FF"/>
</svg>
