<svg width="300" height="241" viewBox="0 0 300 241" fill="none" xmlns="http://www.w3.org/2000/svg">
<path d="M79.0364 29.0322H293.92C294.719 29.0322 295.509 29.1895 296.247 29.495C296.984 29.8006 297.655 30.2484 298.219 30.8129C298.784 31.3775 299.232 32.0477 299.537 32.7853C299.843 33.523 300 34.3136 300 35.112V176.933C300 178.989 299.183 180.961 297.729 182.415C296.275 183.869 294.303 184.686 292.247 184.686H78.6979C77.1769 184.686 75.7182 184.082 74.6426 183.006C73.5671 181.93 72.9629 180.472 72.9629 178.951V35.112C72.9629 33.5006 73.6026 31.9551 74.7414 30.8151C75.8802 29.6752 77.425 29.0339 79.0364 29.0322Z" fill="#263238"/>
<path d="M117.959 51.3579H101.945V54.8491H117.959V51.3579Z" fill="#455A64"/>
<path d="M109.949 66.9961H101.945V70.4872H109.949V66.9961Z" fill="#3B356D"/>
<path d="M119.244 74.8623H107.969V78.3535H119.244V74.8623Z" fill="#455A64"/>
<path d="M127.606 74.8623H121.037V78.3535H127.606V74.8623Z" fill="#455A64"/>
<path d="M186.497 74.8623H172.99V78.3535H186.497V74.8623Z" fill="#455A64"/>
<path d="M225.984 82.5273H203.163V86.0185H225.984V82.5273Z" fill="#455A64"/>
<path d="M261.197 74.8623H250.234V78.3535H261.197V74.8623Z" fill="#455A64"/>
<path d="M286.593 74.8623H264.556V78.3535H286.593V74.8623Z" fill="#455A64"/>
<path d="M119.244 82.5273H107.969V86.0185H119.244V82.5273Z" fill="#455A64"/>
<path d="M112.319 90.1743H101.043V93.6655H112.319V90.1743Z" fill="#3B356D"/>
<path d="M112.312 97.8271H107.047V101.318H112.312V97.8271Z" fill="#455A64"/>
<path d="M131.648 113.936H126.383V117.427H131.648V113.936Z" fill="#455A64"/>
<path d="M209.131 143.049H198.839V146.54H209.131V143.049Z" fill="#455A64"/>
<path d="M266.63 143.049H241.415V146.54H266.63V143.049Z" fill="#455A64"/>
<path d="M170.382 135.409H160.091V138.9H170.382V135.409Z" fill="#E0E0E0"/>
<path d="M133.095 128.846H122.804V132.337H133.095V128.846Z" fill="#455A64"/>
<path d="M196.708 143.049H180.48V146.54H196.708V143.049Z" fill="#455A64"/>
<path d="M115.596 105.618H107.047V109.109H115.596V105.618Z" fill="#455A64"/>
<path d="M122.904 114.067H107.047V117.558H122.904V114.067Z" fill="#455A64"/>
<path d="M130.244 120.542H107.047V124.033H130.244V120.542Z" fill="#455A64"/>
<path d="M172.275 120.542H149.078V124.033H172.275V120.542Z" fill="#455A64"/>
<path d="M155.171 135.409H122.598V138.9H155.171V135.409Z" fill="#455A64"/>
<path d="M177.691 143.049H122.598V146.54H177.691V143.049Z" fill="#455A64"/>
<path d="M161.025 150.689H105.932V154.181H161.025V150.689Z" fill="#455A64"/>
<path d="M146.61 120.542H132.695V124.033H146.61V120.542Z" fill="#455A64"/>
<path d="M128.752 97.8271H114.393V101.318H128.752V97.8271Z" fill="#455A64"/>
<path d="M131.918 105.618H117.559V109.109H131.918V105.618Z" fill="#455A64"/>
<path d="M187.557 105.618H149.53V109.109H187.557V105.618Z" fill="#455A64"/>
<path d="M232.509 105.618H188.591V109.109H232.509V105.618Z" fill="#455A64"/>
<path d="M146.164 105.618H134.28V109.109H146.164V105.618Z" fill="#455A64"/>
<path d="M149.543 97.8271H130.721V101.318H149.543V97.8271Z" fill="#455A64"/>
<path d="M162.104 97.8271H151.624V101.318H162.104V97.8271Z" fill="#E0E0E0"/>
<path d="M132.789 82.5273H121.037V86.0185H132.789V82.5273Z" fill="#455A64"/>
<path d="M198.807 82.5273H140.773V86.0185H198.807V82.5273Z" fill="#455A64"/>
<path d="M263.954 105.618H236.514V109.109H263.954V105.618Z" fill="#455A64"/>
<path d="M239.247 143.049H211.807V146.54H239.247V143.049Z" fill="#455A64"/>
<path d="M245.966 74.8623H188.798V78.3535H245.966V74.8623Z" fill="#455A64"/>
<path d="M169.437 74.8623H129.655V78.3535H169.437V74.8623Z" fill="#455A64"/>
<path d="M128.727 58.7603H101.945V62.2514H128.727V58.7603Z" fill="#455A64"/>
<path d="M168.07 58.7603H131.397V62.2514H168.07V58.7603Z" fill="#455A64"/>
<path d="M132.244 51.3579H120.454V54.8491H132.244V51.3579Z" fill="#E0E0E0"/>
<path d="M89.7235 51.3579H86.3389V54.8491H89.7235V51.3579Z" fill="#455A64"/>
<path d="M89.7235 58.9985H86.3389V62.4897H89.7235V58.9985Z" fill="#455A64"/>
<path d="M89.7235 66.6387H86.3389V70.1298H89.7235V66.6387Z" fill="#455A64"/>
<path d="M89.7235 74.2793H86.3389V77.7704H89.7235V74.2793Z" fill="#455A64"/>
<path d="M89.7235 81.9194H86.3389V85.4106H89.7235V81.9194Z" fill="#455A64"/>
<path d="M89.7235 89.5601H86.3389V93.0512H89.7235V89.5601Z" fill="#455A64"/>
<path d="M89.7235 97.2002H86.3389V100.691H89.7235V97.2002Z" fill="#455A64"/>
<path d="M89.7235 104.841H86.3389V108.332H89.7235V104.841Z" fill="#455A64"/>
<path d="M89.7235 112.481H86.3389V115.972H89.7235V112.481Z" fill="#455A64"/>
<path d="M130.357 167.192H125.092V170.684H130.357V167.192Z" fill="#E0E0E0"/>
<path d="M121.889 167.192H106.031V170.684H121.889V167.192Z" fill="#3B356D"/>
<path d="M89.7235 166.804H86.3389V170.295H89.7235V166.804Z" fill="#455A64"/>
<path d="M89.7235 120.122H86.3389V123.613H89.7235V120.122Z" fill="#455A64"/>
<path d="M89.7235 127.762H86.3389V131.253H89.7235V127.762Z" fill="#455A64"/>
<path d="M89.7235 135.409H86.3389V138.9H89.7235V135.409Z" fill="#455A64"/>
<path d="M89.7235 143.049H86.3389V146.54H89.7235V143.049Z" fill="#455A64"/>
<path d="M89.7235 150.689H86.3389V154.181H89.7235V150.689Z" fill="#455A64"/>
<path d="M121.996 158.731H105.932V162.222H121.996V158.731Z" fill="#455A64"/>
<path d="M161.426 158.731H125.092V162.222H161.426V158.731Z" fill="#455A64"/>
<path d="M89.7235 158.731H86.3389V162.222H89.7235V158.731Z" fill="#455A64"/>
<path d="M184.341 58.7354H172.552V62.2265H184.341V58.7354Z" fill="#E0E0E0"/>
<path d="M85.63 41.4989C86.9558 41.4989 88.0306 40.4241 88.0306 39.0983C88.0306 37.7725 86.9558 36.6978 85.63 36.6978C84.3042 36.6978 83.2295 37.7725 83.2295 39.0983C83.2295 40.4241 84.3042 41.4989 85.63 41.4989Z" fill="#455A64"/>
<path d="M92.2863 41.4989C93.6121 41.4989 94.6868 40.4241 94.6868 39.0983C94.6868 37.7725 93.6121 36.6978 92.2863 36.6978C90.9605 36.6978 89.8857 37.7725 89.8857 39.0983C89.8857 40.4241 90.9605 41.4989 92.2863 41.4989Z" fill="#455A64"/>
<path d="M98.9435 41.4989C100.269 41.4989 101.344 40.4241 101.344 39.0983C101.344 37.7725 100.269 36.6978 98.9435 36.6978C97.6177 36.6978 96.543 37.7725 96.543 39.0983C96.543 40.4241 97.6177 41.4989 98.9435 41.4989Z" fill="#455A64"/>
<g opacity="0.3">
<path d="M280.05 122.284H194.57C192.064 122.284 190.032 124.315 190.032 126.822V171.937C190.032 174.443 192.064 176.475 194.57 176.475H280.05C282.556 176.475 284.588 174.443 284.588 171.937V126.822C284.588 124.315 282.556 122.284 280.05 122.284Z" fill="black"/>
</g>
<path d="M288.48 116.493H199.49C197.953 116.493 196.707 117.739 196.707 119.276V167.901C196.707 169.438 197.953 170.684 199.49 170.684H288.48C290.016 170.684 291.262 169.438 291.262 167.901V119.276C291.262 117.739 290.016 116.493 288.48 116.493Z" fill="#3B356D"/>
<path d="M233.756 150.213H225.119L223.515 154.181H217.623L226.636 133.76H232.327L241.365 154.181H235.361L233.756 150.213ZM232.064 145.957L229.438 139.451L226.812 145.989L232.064 145.957Z" fill="white"/>
<path d="M257.148 134.682C258.426 135.233 259.515 136.146 260.281 137.308C261.034 138.508 261.417 139.903 261.385 141.319C261.432 142.723 261.051 144.108 260.29 145.288C259.529 146.469 258.427 147.389 257.129 147.926C255.607 148.567 253.966 148.878 252.315 148.841H248.755V154.181H242.982V133.76H252.315C253.973 133.719 255.621 134.033 257.148 134.682ZM254.64 143.519C254.948 143.245 255.189 142.904 255.346 142.523C255.504 142.142 255.573 141.731 255.549 141.319C255.572 140.905 255.502 140.491 255.345 140.108C255.188 139.724 254.947 139.38 254.64 139.101C253.871 138.521 252.918 138.24 251.958 138.311H248.749V144.29H251.958C252.928 144.369 253.894 144.095 254.678 143.519H254.64Z" fill="white"/>
<path d="M264.205 133.76H269.984V154.181H264.205V133.76Z" fill="white"/>
<path d="M95.6962 50.3613C95.7839 50.3613 95.8591 80.4152 95.8591 117.489C95.8591 154.563 95.7839 184.623 95.6962 184.623C95.6084 184.623 95.5332 154.569 95.5332 117.489C95.5332 80.409 95.6022 50.3613 95.6962 50.3613Z" fill="#455A64"/>
<path d="M186.291 0H140.348C137.447 0 135.096 2.35157 135.096 5.25238V32.0721C135.096 34.9729 137.447 37.3245 140.348 37.3245H186.291C189.192 37.3245 191.543 34.9729 191.543 32.0721V5.25238C191.543 2.35157 189.192 0 186.291 0Z" fill="#3B356D"/>
<g opacity="0.3">
<path d="M186.291 0H140.348C137.447 0 135.096 2.35157 135.096 5.25238V32.0721C135.096 34.9729 137.447 37.3245 140.348 37.3245H186.291C189.192 37.3245 191.543 34.9729 191.543 32.0721V5.25238C191.543 2.35157 189.192 0 186.291 0Z" fill="black"/>
</g>
<path d="M182.499 0H136.556C133.655 0 131.304 2.35157 131.304 5.25238V32.0721C131.304 34.9729 133.655 37.3245 136.556 37.3245H182.499C185.4 37.3245 187.751 34.9729 187.751 32.0721V5.25238C187.751 2.35157 185.4 0 182.499 0Z" fill="#3B356D"/>
<path d="M153.429 16.5656L145.739 19.2921L153.429 22.0186V25.541L141.521 21.1536V17.4431L153.429 13.0557V16.5656Z" fill="white"/>
<path d="M161.915 7.42725H165.989L158.029 30.1416H153.955L161.915 7.42725Z" fill="white"/>
<path d="M178.124 17.4371V21.1476L166.215 25.535V22.0125L173.912 19.2861L166.215 16.5596V13.0371L178.124 17.4371Z" fill="white"/>
<path d="M242.199 13.3255C244.071 12.1955 246.086 11.3208 248.191 10.7243L249.444 4.78878L259.473 4.61328L260.914 10.4987C263.039 11.0201 265.084 11.8254 266.994 12.893L269.777 9.57108H272.058L279.273 16.5346L276.139 21.7117C277.271 23.5832 278.146 25.5986 278.74 27.7037L284.669 28.9573L284.851 38.9857L278.934 40.421C278.41 42.543 277.605 44.5855 276.54 46.4944L279.862 51.5651L272.898 58.773H270.617L267.721 55.6391C265.85 56.7713 263.834 57.6462 261.729 58.2402L260.476 64.1758L250.447 64.3513L249.006 58.4659C246.881 57.9434 244.836 57.1382 242.926 56.0716L237.861 59.3935H235.58L230.654 52.43L233.787 47.2528C232.653 45.3816 231.776 43.3662 231.18 41.2609L225.251 40.0073L225.075 29.9789L230.961 28.531C231.481 26.4068 232.284 24.3619 233.349 22.4513L230.033 17.387L234.709 10.179H236.99L242.167 13.3129L242.199 13.3255ZM247.545 26.6758C246.069 28.2055 245.079 30.1387 244.701 32.2309C244.324 34.323 244.575 36.4802 245.423 38.4296C246.271 40.3791 247.679 42.0332 249.467 43.1828C251.255 44.3324 253.344 44.9259 255.47 44.8882C257.596 44.8505 259.663 44.1833 261.409 42.971C263.155 41.7587 264.503 40.0558 265.282 38.0775C266.061 36.0992 266.235 33.9345 265.783 31.857C265.332 29.7796 264.274 27.8827 262.744 26.4063C261.729 25.426 260.53 24.6553 259.216 24.1383C257.903 23.6213 256.5 23.3681 255.089 23.3931C253.678 23.4182 252.285 23.7209 250.991 24.2842C249.696 24.8474 248.525 25.6601 247.545 26.6758Z" fill="#E0E0E0"/>
<g opacity="0.3">
<path d="M242.199 13.3255C244.071 12.1955 246.086 11.3208 248.191 10.7243L249.444 4.78878L259.473 4.61328L260.914 10.4987C263.039 11.0201 265.084 11.8254 266.994 12.893L269.777 9.57108H272.058L279.273 16.5346L276.139 21.7117C277.271 23.5832 278.146 25.5986 278.74 27.7037L284.669 28.9573L284.851 38.9857L278.934 40.421C278.41 42.543 277.605 44.5855 276.54 46.4944L279.862 51.5651L272.898 58.773H270.617L267.721 55.6391C265.85 56.7713 263.834 57.6462 261.729 58.2402L260.476 64.1758L250.447 64.3513L249.006 58.4659C246.881 57.9434 244.836 57.1382 242.926 56.0716L237.861 59.3935H235.58L230.654 52.43L233.787 47.2528C232.653 45.3816 231.776 43.3662 231.18 41.2609L225.251 40.0073L225.075 29.9789L230.961 28.531C231.481 26.4068 232.284 24.3619 233.349 22.4513L230.033 17.387L234.709 10.179H236.99L242.167 13.3129L242.199 13.3255ZM247.545 26.6758C246.069 28.2055 245.079 30.1387 244.701 32.2309C244.324 34.323 244.575 36.4802 245.423 38.4296C246.271 40.3791 247.679 42.0332 249.467 43.1828C251.255 44.3324 253.344 44.9259 255.47 44.8882C257.596 44.8505 259.663 44.1833 261.409 42.971C263.155 41.7587 264.503 40.0558 265.282 38.0775C266.061 36.0992 266.235 33.9345 265.783 31.857C265.332 29.7796 264.274 27.8827 262.744 26.4063C261.729 25.426 260.53 24.6553 259.216 24.1383C257.903 23.6213 256.5 23.3681 255.089 23.3931C253.678 23.4182 252.285 23.7209 250.991 24.2842C249.696 24.8474 248.525 25.6601 247.545 26.6758Z" fill="black"/>
</g>
<path d="M239.917 13.3255C241.787 12.1938 243.8 11.3189 245.903 10.7243L247.157 4.78878L257.185 4.61328L258.627 10.4987C260.751 11.0211 262.796 11.8264 264.706 12.893L269.771 9.57108L276.979 16.5346L273.845 21.7117C274.979 23.583 275.856 25.5984 276.452 27.7037L282.382 28.9573L282.557 38.9857L276.647 40.421C276.127 42.5436 275.324 44.5865 274.259 46.4944L277.574 51.5651L270.617 58.773L265.44 55.6391C263.568 56.7703 261.552 57.6452 259.448 58.2402L258.194 64.1758L248.166 64.3513L246.724 58.4659C244.599 57.9445 242.554 57.1391 240.645 56.0716L235.58 59.3935L228.366 52.43L231.5 47.2528C230.37 45.38 229.496 43.365 228.899 41.2609L222.969 40.0073L222.794 29.9789L228.673 28.531C229.198 26.4074 230.004 24.3629 231.067 22.4513L227.745 17.387L234.709 10.179L239.886 13.3129L239.917 13.3255ZM245.258 26.6758C243.782 28.2058 242.793 30.139 242.416 32.2309C242.039 34.3228 242.291 36.4796 243.139 38.4285C243.988 40.3774 245.395 42.031 247.183 43.1802C248.971 44.3294 251.06 44.9227 253.186 44.885C255.311 44.8474 257.377 44.1804 259.123 42.9686C260.87 41.7567 262.218 40.0543 262.997 38.0765C263.775 36.0987 263.951 33.9344 263.5 31.8572C263.049 29.78 261.992 27.8831 260.463 26.4063C258.413 24.4288 255.662 23.3463 252.814 23.3968C249.966 23.4474 247.255 24.6268 245.276 26.6758H245.258Z" fill="#E0E0E0"/>
<path d="M82.3019 159.025H2.42562C1.08599 159.025 0 160.111 0 161.451V237.598C0 238.938 1.08599 240.024 2.42562 240.024H82.3019C83.6416 240.024 84.7276 238.938 84.7276 237.598V161.451C84.7276 160.111 83.6416 159.025 82.3019 159.025Z" fill="#E0E0E0"/>
<path d="M84.878 184.88C84.878 184.968 65.9494 185.043 42.6145 185.043C19.2796 185.043 0.344727 184.968 0.344727 184.88C0.344727 184.792 19.2671 184.717 42.6145 184.717C65.9619 184.717 84.878 184.786 84.878 184.88Z" fill="#263238"/>
<path d="M84.878 210.904C84.878 210.991 65.9494 211.067 42.6145 211.067C19.2796 211.067 0.344727 210.991 0.344727 210.904C0.344727 210.816 19.2671 210.741 42.6145 210.741C65.9619 210.741 84.878 210.791 84.878 210.904Z" fill="#263238"/>
<path d="M15.4062 174.538C16.4239 174.538 17.2489 173.713 17.2489 172.695C17.2489 171.678 16.4239 170.853 15.4062 170.853C14.3885 170.853 13.5635 171.678 13.5635 172.695C13.5635 173.713 14.3885 174.538 15.4062 174.538Z" fill="white"/>
<path d="M22.0126 174.538C23.0304 174.538 23.8554 173.713 23.8554 172.695C23.8554 171.678 23.0304 170.853 22.0126 170.853C20.9949 170.853 20.1699 171.678 20.1699 172.695C20.1699 173.713 20.9949 174.538 22.0126 174.538Z" fill="white"/>
<path d="M63.7372 169.856H63.4176C63.0403 169.856 62.7344 170.162 62.7344 170.539V175.447C62.7344 175.824 63.0403 176.13 63.4176 176.13H63.7372C64.1145 176.13 64.4204 175.824 64.4204 175.447V170.539C64.4204 170.162 64.1145 169.856 63.7372 169.856Z" fill="#263238"/>
<path d="M67.9862 169.856H67.6666C67.2893 169.856 66.9834 170.162 66.9834 170.539V175.447C66.9834 175.824 67.2893 176.13 67.6666 176.13H67.9862C68.3636 176.13 68.6694 175.824 68.6694 175.447V170.539C68.6694 170.162 68.3636 169.856 67.9862 169.856Z" fill="#263238"/>
<path d="M71.9042 169.856H71.5846C71.2072 169.856 70.9014 170.162 70.9014 170.539V175.447C70.9014 175.824 71.2072 176.13 71.5846 176.13H71.9042C72.2815 176.13 72.5874 175.824 72.5874 175.447V170.539C72.5874 170.162 72.2815 169.856 71.9042 169.856Z" fill="white"/>
<path d="M59.4374 169.856H59.1178C58.7405 169.856 58.4346 170.162 58.4346 170.539V175.447C58.4346 175.824 58.7405 176.13 59.1178 176.13H59.4374C59.8147 176.13 60.1206 175.824 60.1206 175.447V170.539C60.1206 170.162 59.8147 169.856 59.4374 169.856Z" fill="#3B356D"/>
<path d="M15.4062 199.797C16.4239 199.797 17.2489 198.972 17.2489 197.955C17.2489 196.937 16.4239 196.112 15.4062 196.112C14.3885 196.112 13.5635 196.937 13.5635 197.955C13.5635 198.972 14.3885 199.797 15.4062 199.797Z" fill="white"/>
<path d="M21.6552 199.797C22.6729 199.797 23.4979 198.972 23.4979 197.955C23.4979 196.937 22.6729 196.112 21.6552 196.112C20.6375 196.112 19.8125 196.937 19.8125 197.955C19.8125 198.972 20.6375 199.797 21.6552 199.797Z" fill="white"/>
<path d="M63.7372 195.122H63.4176C63.0403 195.122 62.7344 195.427 62.7344 195.805V200.712C62.7344 201.09 63.0403 201.396 63.4176 201.396H63.7372C64.1145 201.396 64.4204 201.09 64.4204 200.712V195.805C64.4204 195.427 64.1145 195.122 63.7372 195.122Z" fill="#263238"/>
<path d="M67.9862 195.122H67.6666C67.2893 195.122 66.9834 195.427 66.9834 195.805V200.712C66.9834 201.09 67.2893 201.396 67.6666 201.396H67.9862C68.3636 201.396 68.6694 201.09 68.6694 200.712V195.805C68.6694 195.427 68.3636 195.122 67.9862 195.122Z" fill="#263238"/>
<path d="M71.9042 195.122H71.5846C71.2072 195.122 70.9014 195.427 70.9014 195.805V200.712C70.9014 201.09 71.2072 201.396 71.5846 201.396H71.9042C72.2815 201.396 72.5874 201.09 72.5874 200.712V195.805C72.5874 195.427 72.2815 195.122 71.9042 195.122Z" fill="white"/>
<path d="M59.4374 195.122H59.1178C58.7405 195.122 58.4346 195.427 58.4346 195.805V200.712C58.4346 201.09 58.7405 201.396 59.1178 201.396H59.4374C59.8147 201.396 60.1206 201.09 60.1206 200.712V195.805C60.1206 195.427 59.8147 195.122 59.4374 195.122Z" fill="#3B356D"/>
<path d="M15.4062 226.993C16.4239 226.993 17.2489 226.168 17.2489 225.15C17.2489 224.133 16.4239 223.308 15.4062 223.308C14.3885 223.308 13.5635 224.133 13.5635 225.15C13.5635 226.168 14.3885 226.993 15.4062 226.993Z" fill="white"/>
<path d="M22.1874 226.993C23.2052 226.993 24.0302 226.168 24.0302 225.15C24.0302 224.133 23.2052 223.308 22.1874 223.308C21.1697 223.308 20.3447 224.133 20.3447 225.15C20.3447 226.168 21.1697 226.993 22.1874 226.993Z" fill="white"/>
<path d="M63.7372 222.317H63.4176C63.0403 222.317 62.7344 222.623 62.7344 223.001V227.908C62.7344 228.286 63.0403 228.591 63.4176 228.591H63.7372C64.1145 228.591 64.4204 228.286 64.4204 227.908V223.001C64.4204 222.623 64.1145 222.317 63.7372 222.317Z" fill="#263238"/>
<path d="M67.9862 222.317H67.6666C67.2893 222.317 66.9834 222.623 66.9834 223.001V227.908C66.9834 228.286 67.2893 228.591 67.6666 228.591H67.9862C68.3636 228.591 68.6694 228.286 68.6694 227.908V223.001C68.6694 222.623 68.3636 222.317 67.9862 222.317Z" fill="#263238"/>
<path d="M71.9042 222.317H71.5846C71.2072 222.317 70.9014 222.623 70.9014 223.001V227.908C70.9014 228.286 71.2072 228.591 71.5846 228.591H71.9042C72.2815 228.591 72.5874 228.286 72.5874 227.908V223.001C72.5874 222.623 72.2815 222.317 71.9042 222.317Z" fill="white"/>
<path d="M59.4374 222.317H59.1178C58.7405 222.317 58.4346 222.623 58.4346 223.001V227.908C58.4346 228.286 58.7405 228.591 59.1178 228.591H59.4374C59.8147 228.591 60.1206 228.286 60.1206 227.908V223.001C60.1206 222.623 59.8147 222.317 59.4374 222.317Z" fill="#3B356D"/>
<path d="M42.2384 43.2664C42.1917 42.904 42.0729 42.5547 41.8891 42.2389C41.7053 41.9231 41.4602 41.6473 41.1681 41.4277C40.8761 41.2081 40.5431 41.0491 40.1887 40.9602C39.8343 40.8712 39.4657 40.8541 39.1046 40.9098C38.6621 40.1207 37.9325 39.5325 37.0675 39.2675C36.2025 39.0025 35.2687 39.0811 34.4602 39.487C33.708 39.9069 33.1439 40.5964 32.4106 41.0414C31.6693 41.4057 30.9099 41.732 30.1354 42.0192C29.7496 42.1672 29.4064 42.4084 29.1363 42.7211C28.8662 43.0338 28.6776 43.4085 28.5873 43.8117C28.5789 44.2718 28.7172 44.7226 28.9819 45.0989C29.2467 45.4753 29.6243 45.7576 30.0602 45.9052C30.9366 46.1813 31.8624 46.2647 32.7741 46.1496C32.5814 46.2875 32.4465 46.492 32.3956 46.7234C32.3447 46.9549 32.3813 47.1971 32.4984 47.4032C32.7324 47.8059 33.1076 48.1074 33.5513 48.2493C34.2693 48.5255 35.0497 48.5979 35.8062 48.4585C36.5627 48.3192 37.266 47.9734 37.8385 47.4596L39.5558 46.1433C39.9227 46.1363 40.2843 46.0555 40.6194 45.906C40.9544 45.7565 41.256 45.5411 41.5062 45.2728C41.7564 45.0044 41.9501 44.6886 42.0759 44.3439C42.2017 43.9993 42.257 43.6329 42.2384 43.2664Z" fill="#263238"/>
<path d="M37.9514 48.9947C37.7849 49.1432 37.5696 49.2252 37.3465 49.2252C37.1234 49.2252 36.9082 49.1432 36.7417 48.9947C36.5849 48.8313 36.4752 48.6285 36.4245 48.4078C36.3737 48.187 36.3837 47.9567 36.4534 47.7412C36.5957 47.3132 36.8871 46.9506 37.2744 46.7195C37.6649 46.4863 38.0871 46.3111 38.528 46.1993C39.1857 45.9938 39.8651 45.8655 40.5525 45.817C40.7963 45.7923 41.0425 45.8223 41.2733 45.9047C41.3869 45.9488 41.4871 46.0216 41.564 46.1161C41.641 46.2107 41.692 46.3236 41.712 46.4438C41.712 46.7885 41.4362 47.0705 41.1604 47.2648C40.1312 48.0232 39.0362 48.6881 37.8887 49.2517" fill="#3B356D"/>
<path d="M36.948 48.8196C35.3247 47.0082 31.2757 47.2527 30.3104 48.431C29.5962 48.089 28.778 48.0341 28.0245 48.2779C27.2711 48.5217 26.64 49.0454 26.2615 49.741L21.9555 50.6561C21.2062 50.7478 20.4924 51.0282 19.8809 51.4709C19.5857 51.7028 19.3848 52.034 19.3156 52.403C19.2465 52.772 19.3137 53.1535 19.5048 53.4766C19.1396 53.5995 18.8104 53.8108 18.5465 54.0916C18.2827 54.3725 18.0923 54.7143 17.9924 55.0865C17.8926 55.4587 17.8863 55.8498 17.9741 56.225C18.0619 56.6003 18.2411 56.948 18.4957 57.2372C18.3481 57.4039 18.2364 57.5991 18.1675 57.8108C18.0986 58.0225 18.0739 58.2461 18.0951 58.4677C18.1162 58.6893 18.1828 58.9042 18.2905 59.0991C18.3982 59.2939 18.5449 59.4645 18.7214 59.6002C17.5186 61.0172 16.5688 62.6307 15.9134 64.3699C15.5717 65.0732 15.4896 65.8746 15.6815 66.6326C15.9447 67.3659 16.9351 67.8862 17.5618 67.4223C17.3458 67.7188 17.2212 68.072 17.2034 68.4384C17.1855 68.8048 17.2753 69.1684 17.4615 69.4844C16.7345 69.4844 16.5088 70.6189 17.004 71.1517C17.2852 71.3836 17.6113 71.5551 17.9617 71.6554C18.3122 71.7557 18.6796 71.7827 19.041 71.7346C19.7671 71.636 20.5058 71.7675 21.1533 72.1106C21.1453 72.1994 21.1195 72.2856 21.0775 72.3642C21.0355 72.4428 20.9782 72.5122 20.9088 72.5682C20.2919 73.028 19.8755 73.7075 19.746 74.466C19.6164 75.2245 19.7837 76.0037 20.2131 76.6422C20.3008 76.7613 20.3823 76.8741 20.4513 76.9807C21.0466 77.6152 21.7626 78.1244 22.5572 78.4787C24.1931 79.3499 25.1772 79.1932 27.0136 79.469C26.4996 80.6536 29.4643 83.2986 32.899 80.7225C38.9923 82.5155 45.3131 83.417 51.6647 83.3989C52.6675 83.3989 53.8772 83.286 54.3348 82.3835C54.7494 82.464 55.1777 82.4384 55.5799 82.3091C55.982 82.1798 56.345 81.951 56.635 81.6439C57.2111 81.0232 57.6736 80.3061 58.0014 79.5254C58.8719 79.2794 59.645 78.7703 60.215 78.068C60.7849 77.3656 61.1239 76.5042 61.1854 75.6018C61.7784 75.1399 62.269 74.5599 62.6261 73.8985C62.9833 73.2371 63.1991 72.5088 63.2601 71.7596C63.6751 71.6163 64.0561 71.3887 64.379 71.0912C64.7019 70.7936 64.9597 70.4324 65.1363 70.0304C65.3129 69.6283 65.4044 69.1941 65.4051 68.755C65.4058 68.3159 65.3157 67.8813 65.1404 67.4787C64.7886 65.394 64.094 63.382 63.0846 61.5244C64.2441 61.2799 64.6891 59.7255 64.219 58.6412C63.7489 57.5569 62.7085 56.8549 61.7119 56.2156C62.5706 56.4538 63.329 55.3757 63.1347 54.5045C62.9861 54.0821 62.7557 53.6931 62.4567 53.3597C62.1578 53.0263 61.7961 52.7551 61.3923 52.5615C60.2746 51.8776 59.0768 51.3344 57.8259 50.9444C57.431 49.4213 55.5006 47.6789 54.0652 46.9957C48.3428 44.2379 44.3314 43.5234 36.9793 48.8259" fill="#263238"/>
<path d="M32.5298 58.0268C32.4545 56.8171 32.254 55.6262 33.4449 55.4444L45.6419 51.7653C49.5718 51.1698 52.4174 55.9145 52.8498 59.8695C53.3262 64.2569 53.7336 69.6409 53.3638 72.9503C53.1688 74.8384 52.444 76.633 51.2728 78.1268C50.1017 79.6207 48.5321 80.7529 46.745 81.393L46.9017 85.4294C46.394 88.5633 45.6043 92.0293 44.3445 93.2766C40.0323 92.4681 32.9748 82.985 32.9748 82.985L32.5298 58.0268Z" fill="#CE9E8F"/>
<path d="M46.4626 69.9105C46.9379 69.7393 47.4327 69.6277 47.9355 69.5783C48.1674 69.5469 48.3868 69.4905 48.4181 69.3276C48.4246 69.0862 48.3592 68.8484 48.2301 68.6444L47.4591 66.9019C46.3936 64.3948 45.5788 62.3766 45.7042 62.3327C45.8295 62.2889 46.7571 64.2695 47.8227 66.7202C48.0859 67.347 48.3303 67.911 48.5623 68.4751C48.724 68.7487 48.7818 69.0713 48.7252 69.384C48.6952 69.4669 48.647 69.5421 48.5841 69.6039C48.5212 69.6658 48.4452 69.7127 48.3617 69.7412C48.2331 69.7793 48.1006 69.8024 47.9668 69.8102C47.4723 69.912 46.9662 69.9457 46.4626 69.9105Z" fill="#263238"/>
<path d="M46.7448 81.3931C43.8787 81.0477 41.1094 80.1381 38.5967 78.7168C38.5967 78.7168 40.126 82.8849 46.7448 83.3925V81.3931Z" fill="#CE9E8F"/>
<path d="M42.5702 59.7505C42.4949 60.0012 41.5799 59.926 40.5143 60.1014C39.4488 60.2769 38.5964 60.6091 38.446 60.396C38.377 60.2895 38.5149 60.0513 38.8534 59.7693C39.303 59.4446 39.8225 59.23 40.3702 59.1425C40.915 59.05 41.4742 59.0909 41.9998 59.2616C42.4009 59.4433 42.6078 59.6314 42.5702 59.7505Z" fill="#263238"/>
<path d="M51.3458 59.6C51.1954 59.8131 50.5561 59.6 49.7977 59.6502C49.0393 59.7003 48.4125 59.857 48.2558 59.6502C48.1806 59.5499 48.2558 59.3368 48.5441 59.13C48.9098 58.8724 49.3446 58.7311 49.7919 58.7244C50.2391 58.7177 50.678 58.8459 51.0512 59.0923C51.3145 59.2866 51.4085 59.4935 51.3458 59.6Z" fill="#263238"/>
<path d="M55.8208 63.0409C55.7934 61.9944 55.406 60.9894 54.724 60.1953C54.2847 59.8237 53.8662 59.4283 53.4704 59.0107C52.7246 58.0392 52.8437 56.6791 52.5177 55.4945C52.3046 54.7293 51.9128 54.0257 51.3745 53.4416C50.8361 52.8575 50.1668 52.4097 49.4215 52.135C48.1679 51.6962 46.7765 51.7526 45.6107 51.1384C44.752 50.6808 44.0939 49.8848 43.2101 49.4837C41.4865 48.7002 39.4871 49.584 37.8575 50.5555C37.5378 51.8529 38.3526 52.9686 39.111 54.0466C39.5118 54.5816 40.0234 55.0237 40.6108 55.3428C41.1981 55.6619 41.8475 55.8505 42.5144 55.8956C43.5486 55.9583 44.752 55.7201 45.479 56.4597C46.2061 57.1993 45.9491 58.597 46.5759 59.487C47.4722 60.7406 49.5155 60.2705 50.8568 61.054C51.891 61.6808 52.3297 62.9343 52.8499 63.981C53.3702 65.0277 54.279 66.1935 55.4761 66.1309C55.7095 65.1176 55.8252 64.0807 55.8208 63.0409Z" fill="#263238"/>
<path d="M40.4583 52.9125C37.4328 52.8699 34.4277 53.4126 31.6082 54.5108C30.7394 54.7702 29.9755 55.2992 29.4271 56.0213C29.0577 56.7263 28.8989 57.5226 28.9695 58.3153C28.9695 60.7911 29.9974 63.8184 30.9439 66.1061L34.0339 67.9864C36.4156 67.4223 35.2874 63.3107 35.2059 61.2486C36.0339 60.8708 36.739 60.268 37.241 59.5089C37.743 58.7498 38.0217 57.865 38.0452 56.9552C38.728 56.5088 39.3002 55.9128 39.7183 55.2123C40.1364 54.5118 40.3895 53.7253 40.4583 52.9125Z" fill="#263238"/>
<path d="M33.996 67.0647C33.8957 65.6482 32.1721 65.3787 30.9185 66.1183C30.2479 66.5194 29.7465 67.3154 29.8342 68.8134C30.0661 72.8248 34.0461 71.7655 34.0461 71.6464C34.0461 71.5273 34.1025 68.7257 33.996 67.0647Z" fill="#CE9E8F"/>
<path d="M32.7549 70.1863C32.7549 70.1863 32.6922 70.2427 32.5731 70.3053C32.411 70.3842 32.2247 70.3977 32.0529 70.343C31.7848 70.1933 31.5611 69.9752 31.4048 69.711C31.2484 69.4467 31.165 69.1457 31.1629 68.8387C31.1329 68.4962 31.18 68.1514 31.3008 67.8296C31.3311 67.7016 31.392 67.5829 31.4783 67.4836C31.5645 67.3842 31.6735 67.3073 31.7959 67.2592C31.8757 67.2365 31.9607 67.2407 32.0378 67.2713C32.1149 67.302 32.1797 67.3572 32.2221 67.4284C32.2785 67.5413 32.2597 67.6227 32.2785 67.6227C32.2973 67.6227 32.36 67.5538 32.3224 67.3908C32.2919 67.2925 32.2303 67.2068 32.1469 67.1464C32.0316 67.073 31.8927 67.0461 31.7583 67.0712C31.5994 67.1096 31.4526 67.1871 31.3311 67.2965C31.2097 67.4059 31.1174 67.5439 31.0626 67.698C30.9135 68.0564 30.8532 68.4457 30.8871 68.8324C30.8869 69.1904 30.9928 69.5404 31.1913 69.8382C31.3899 70.1361 31.6723 70.3684 32.0028 70.5059C32.1114 70.5297 32.224 70.5291 32.3323 70.5042C32.4407 70.4793 32.5422 70.4306 32.6295 70.3618C32.7549 70.2865 32.7988 70.1925 32.7549 70.1863Z" fill="#CE9E8F"/>
<path d="M32.3103 71.8722C32.3103 71.8722 32.3103 71.8722 32.3103 71.9286C32.2957 71.9802 32.2769 72.0305 32.2539 72.079C32.1522 72.2681 31.9884 72.4165 31.7901 72.4989C31.4775 72.6345 31.1405 72.7048 30.7998 72.7058C30.5899 72.711 30.3801 72.6963 30.173 72.6619C29.9294 72.6278 29.6925 72.5559 29.471 72.4488H29.5211C29.4644 72.7879 29.3209 73.1066 29.1046 73.3739C28.8883 73.6411 28.6066 73.8479 28.2867 73.9741C27.9669 74.1003 27.6198 74.1415 27.2793 74.0939C26.9388 74.0463 26.6164 73.9114 26.3434 73.7024H26.4123C26.353 73.7935 26.2757 73.8716 26.1852 73.9319C26.0947 73.9923 25.9928 74.0336 25.8859 74.0533C25.6764 74.096 25.4591 74.0786 25.2591 74.0032C25.0419 73.9222 24.857 73.7726 24.7326 73.577C24.6127 73.3774 24.5438 73.1514 24.532 72.9189C24.512 72.4346 24.6653 71.959 24.9645 71.5776C25.2583 71.1805 25.5993 70.8206 25.9799 70.5058V70.5998C25.8161 70.492 25.676 70.3519 25.5683 70.1881C25.4605 70.0243 25.3873 69.8402 25.3531 69.6471C25.2776 69.2516 25.3168 68.8428 25.4659 68.4688C25.6317 68.0916 25.8703 67.7508 26.1679 67.4659C26.4657 67.1783 26.7818 66.9103 27.1143 66.6637V66.7514C26.9718 66.596 26.8632 66.4127 26.7952 66.2131C26.7272 66.0135 26.7014 65.802 26.7195 65.5919C26.7477 65.1588 26.9049 64.744 27.1707 64.401C27.7115 63.8042 28.3799 63.3372 29.1263 63.0346L29.0949 63.1036C28.9985 62.6896 29.0026 62.2585 29.1068 61.8464C29.211 61.4343 29.4123 61.0531 29.6939 60.7347C29.9755 60.4162 30.3293 60.1698 30.7255 60.016C31.1218 59.8622 31.5492 59.8055 31.9718 59.8506L31.9092 59.9196C31.852 59.5869 31.8661 59.2459 31.9503 58.9191C32.0346 58.5923 32.1871 58.2871 32.398 58.0235C32.6088 57.76 32.8731 57.5441 33.1735 57.3901C33.4738 57.2362 33.8034 57.1477 34.1405 57.1304L34.0903 57.1868C34.0997 56.8456 34.1863 56.5109 34.3437 56.208C34.5012 55.9051 34.7253 55.6419 34.9992 55.4381C35.2327 55.25 35.502 55.1114 35.7908 55.0305C36.0795 54.9497 36.3817 54.9285 36.6789 54.968L36.6288 55.0119C36.6492 54.6473 36.7613 54.2937 36.9547 53.984C37.1221 53.7051 37.3338 53.4553 37.5815 53.2444C37.9605 52.9004 38.4437 52.693 38.9541 52.6552H39.1046H39.2424C39.328 52.6481 39.4139 52.6481 39.4994 52.6552C39.6286 52.6842 39.7562 52.7197 39.8818 52.7618L40.1074 52.8621H40.1763C40.1763 52.8621 40.1763 52.8621 40.1011 52.8621L39.8755 52.7806C39.7752 52.7367 39.6436 52.7242 39.4932 52.6803C39.4097 52.6736 39.3259 52.6736 39.2424 52.6803H39.1046H38.9541C38.4539 52.7361 37.9865 52.9566 37.6254 53.3071C37.3872 53.5099 37.1876 53.7541 37.0362 54.0279C36.8524 54.3293 36.7468 54.6718 36.7291 55.0244V55.0683H36.6852C36.3997 55.0315 36.1097 55.053 35.8328 55.1317C35.5559 55.2104 35.2979 55.3445 35.0744 55.5259C34.8143 55.7224 34.6016 55.9748 34.4519 56.2644C34.3022 56.554 34.2194 56.8735 34.2094 57.1993V57.2495H34.1593C33.8389 57.2688 33.5261 57.3553 33.2413 57.5034C32.9565 57.6515 32.706 57.8579 32.5062 58.1091C32.3064 58.3603 32.1617 58.6508 32.0815 58.9617C32.0013 59.2725 31.9874 59.5967 32.0408 59.9133V59.9885H31.9593C31.552 59.9424 31.1396 59.9954 30.7572 60.1429C30.3747 60.2905 30.0336 60.5282 29.7628 60.836C29.492 61.1437 29.2996 61.5123 29.2018 61.9104C29.1041 62.3084 29.104 62.7242 29.2015 63.1224V63.1662H29.1576C28.4408 63.4656 27.7988 63.9193 27.2773 64.495C27.0246 64.8194 26.876 65.2128 26.8511 65.6232C26.8312 65.817 26.8527 66.0128 26.9143 66.1976C26.9759 66.3824 27.0762 66.5519 27.2083 66.695L27.2585 66.7389L27.2021 66.7827C26.5226 67.2189 25.9677 67.8235 25.5913 68.5377C25.4482 68.8891 25.409 69.2741 25.4784 69.6471C25.5088 69.826 25.5764 69.9965 25.6768 70.1477C25.7772 70.2988 25.9082 70.4272 26.0613 70.5246L26.1303 70.5685L26.0676 70.6186C25.6806 70.9109 25.3311 71.2498 25.0272 71.6277C24.7467 71.9842 24.6003 72.4279 24.6135 72.8813C24.6093 73.0904 24.6664 73.2962 24.7778 73.4733C24.8892 73.6504 25.0499 73.791 25.2403 73.8779C25.4211 73.9601 25.6242 73.9794 25.8173 73.9328C26.0104 73.8863 26.1823 73.7765 26.3058 73.6209V73.577L26.3434 73.6083C26.6058 73.8081 26.9154 73.9369 27.2421 73.9821C27.5689 74.0274 27.9018 73.9876 28.2086 73.8666C28.5155 73.7456 28.786 73.5475 28.9939 73.2915C29.2019 73.0354 29.3403 72.7301 29.3958 72.4049V72.3611H29.4334C29.6491 72.466 29.8794 72.5378 30.1166 72.5742C30.3237 72.6083 30.5334 72.6251 30.7434 72.6243C31.0786 72.6276 31.4111 72.5637 31.7211 72.4363C31.9141 72.3578 32.0767 72.2193 32.1849 72.0414C32.2311 71.9884 32.273 71.9318 32.3103 71.8722Z" fill="#455A64"/>
<path d="M17.0359 67.5912C16.978 67.5148 16.9276 67.4329 16.8854 67.3468C16.7633 67.0979 16.6909 66.8275 16.6723 66.5508C16.6398 66.1075 16.7567 65.6662 17.0045 65.2972C17.1679 65.0503 17.3811 64.8402 17.6304 64.6804C17.8798 64.5207 18.1597 64.4148 18.4524 64.3696V64.4197C18.3157 63.7373 18.4458 63.0285 18.8159 62.4391C19.0121 62.1067 19.2797 61.822 19.5994 61.6055C19.9474 61.3972 20.3147 61.223 20.6962 61.0853C20.883 61.0075 21.0581 60.9041 21.2165 60.7782C21.3753 60.6429 21.5017 60.4737 21.5863 60.283C21.7618 59.9007 21.8182 59.4431 22.0438 59.0295C22.2849 58.6078 22.6463 58.2675 23.0816 58.052C23.517 57.8366 24.0067 57.7557 24.4882 57.8198L24.4193 57.8887C24.3498 57.4017 24.3931 56.9053 24.5457 56.4376C24.6982 55.9699 24.9561 55.5435 25.2994 55.1911C25.6427 54.8387 26.0622 54.5698 26.5258 54.4051C26.9893 54.2404 27.4845 54.1842 27.9731 54.2409L27.9042 54.3099C27.846 53.7746 27.9423 53.2339 28.1815 52.7517C28.4208 52.2694 28.7931 51.8656 29.2545 51.5882C29.7159 51.3107 30.247 51.1711 30.7852 51.1858C31.3233 51.2005 31.8461 51.3689 32.2916 51.6711H32.1725C32.5702 51.2878 33.0474 50.9968 33.5702 50.8187C34.0333 50.6427 34.5184 50.5309 35.0118 50.4865C35.8067 50.3971 36.6111 50.4501 37.3873 50.6432C37.8853 50.7648 38.3611 50.9636 38.7975 51.2324C38.911 51.3027 39.0199 51.3801 39.1235 51.4643L39.23 51.5583C39.23 51.5583 39.0796 51.4392 38.785 51.2575C38.3459 51.0011 37.8704 50.813 37.3748 50.6996C36.6028 50.5193 35.8053 50.4748 35.0181 50.568C34.5338 50.6187 34.0579 50.7303 33.6016 50.9002C33.0935 51.083 32.63 51.3714 32.2415 51.7463H32.2039C31.778 51.4582 31.2789 51.2973 30.765 51.2825C30.2511 51.2676 29.7435 51.3993 29.3017 51.6623C28.8599 51.9253 28.5021 52.3086 28.2702 52.7675C28.0382 53.2263 27.9417 53.7418 27.9919 54.2534V54.3287H27.9167C27.4464 54.2741 26.9699 54.3282 26.5237 54.4867C26.0776 54.6452 25.6738 54.9038 25.3432 55.2428C25.0127 55.5818 24.7644 55.9921 24.6172 56.4421C24.4701 56.8921 24.4281 57.3698 24.4945 57.8386V57.9702H24.4193C23.9727 57.9154 23.5198 57.9917 23.1158 58.1898C22.7119 58.3879 22.3742 58.6993 22.1441 59.0859C21.931 59.4745 21.8746 59.9258 21.6865 60.3394C21.5975 60.545 21.4624 60.7272 21.2917 60.8722C21.1206 61.0044 20.9331 61.114 20.7339 61.1981C20.3601 61.3323 19.9992 61.5001 19.6558 61.6995C19.346 61.9086 19.0851 62.1823 18.8911 62.5018C18.5438 63.0629 18.4145 63.732 18.5276 64.3821V64.426H18.4837C18.2006 64.4661 17.9289 64.5649 17.686 64.716C17.4432 64.8671 17.2346 65.0672 17.0735 65.3035C16.8319 65.6638 16.7131 66.0925 16.735 66.5257C16.7472 66.7965 16.811 67.0624 16.9231 67.3092C16.9857 67.5035 17.0421 67.585 17.0359 67.5912Z" fill="#455A64"/>
<path d="M55.363 68.6694C55.3394 68.6183 55.3272 68.5627 55.3272 68.5064C55.3272 68.4502 55.3394 68.3946 55.363 68.3435C55.4091 68.2139 55.4892 68.0992 55.5949 68.0113C55.7411 67.8947 55.9096 67.8094 56.0901 67.7606C56.3109 67.7042 56.5221 67.6155 56.7169 67.4973C56.9295 67.3411 57.0874 67.1218 57.1682 66.8706C57.2602 66.5727 57.2942 66.2599 57.2684 65.9492C57.2684 65.617 57.2058 65.2723 57.2058 64.8962C57.2825 64.0895 57.4529 63.2944 57.7135 62.527C57.8182 62.0939 57.8352 61.6443 57.7636 61.2045C57.7327 60.9746 57.6515 60.7543 57.5259 60.5593C57.4002 60.3644 57.2331 60.1994 57.0365 60.0763C56.5902 59.8598 56.1185 59.6998 55.6326 59.6C55.3771 59.5309 55.1354 59.4186 54.918 59.2678C54.6968 59.1069 54.5217 58.8908 54.4103 58.641C54.2122 58.1313 54.0693 57.6018 53.9841 57.0615C53.9338 56.7955 53.8406 56.5394 53.7084 56.3031C53.5728 56.071 53.3663 55.8887 53.1192 55.7829C52.7575 55.6847 52.3846 55.6341 52.0098 55.6325C51.8153 55.6186 51.6246 55.572 51.4457 55.4946C51.2699 55.4059 51.1174 55.2771 51.0007 55.1185C50.8151 54.7963 50.6738 54.4506 50.5807 54.0906C50.478 53.7582 50.3073 53.4508 50.0793 53.188C49.8615 52.9355 49.5936 52.731 49.2925 52.5875C48.9915 52.444 48.6639 52.3646 48.3306 52.3544C47.7054 52.3402 47.0981 52.5642 46.6321 52.9812L46.5756 53.0313V52.9624C46.3468 52.4713 46.0161 52.0346 45.6054 51.6812C45.1948 51.3278 44.7136 51.0659 44.1939 50.9129C43.7589 50.7855 43.3032 50.7451 42.8526 50.7938C42.4696 50.8298 42.096 50.9338 41.7495 51.1009C41.2651 51.3428 40.8589 51.7165 40.5774 52.1789C40.5018 52.2984 40.4368 52.4242 40.3831 52.555L40.333 52.6553V52.6866C40.3304 52.6742 40.3304 52.6614 40.333 52.649L40.3706 52.5487C40.4209 52.4136 40.4839 52.2835 40.5586 52.1601C40.831 51.6811 41.2387 51.293 41.7307 51.0445C42.0832 50.8722 42.4627 50.762 42.8526 50.7185C43.3107 50.6686 43.7741 50.7048 44.219 50.8251C44.7545 50.9798 45.2507 51.2472 45.6745 51.6093C46.0982 51.9714 46.4397 52.4199 46.6759 52.9248H46.5944C47.0862 52.5008 47.7193 52.2771 48.3682 52.298C48.9003 52.3186 49.4128 52.5039 49.835 52.8284C50.2572 53.1529 50.5682 53.6005 50.7249 54.1094C50.8136 54.4589 50.9508 54.7944 51.1323 55.106C51.2407 55.2481 51.3799 55.3637 51.5395 55.4441C51.6992 55.5244 51.875 55.5674 52.0537 55.5698C52.4392 55.5707 52.8229 55.6234 53.1944 55.7265C53.458 55.8461 53.6773 56.0457 53.8212 56.2969C53.9558 56.5466 54.0529 56.8148 54.1095 57.0929C54.1923 57.6241 54.331 58.1451 54.5232 58.6473C54.6271 58.8805 54.7889 59.0833 54.9932 59.2364C55.2023 59.379 55.433 59.4869 55.6764 59.5561C56.1719 59.6565 56.6523 59.8209 57.1055 60.045C57.3207 60.1756 57.5013 60.3562 57.632 60.5715C57.7519 60.7813 57.8346 61.0103 57.8764 61.2484C57.9464 61.7011 57.9272 62.1631 57.82 62.6085C57.5584 63.3702 57.3818 64.1584 57.2935 64.9589C57.2935 65.3224 57.3437 65.6734 57.3499 66.0119C57.3744 66.3296 57.3361 66.6491 57.2371 66.952C57.1566 67.2237 56.9865 67.4601 56.7545 67.6227C56.5596 67.7391 56.3483 67.8258 56.1277 67.8797C55.9538 67.9262 55.7901 68.0048 55.6451 68.1116C55.5409 68.1946 55.4591 68.3023 55.4069 68.425C55.3725 68.5016 55.3575 68.5856 55.363 68.6694Z" fill="#455A64"/>
<path d="M63.166 62.4579C63.166 62.4579 63.166 62.4579 63.1221 62.3827L63.0156 62.1633L62.6019 61.2921C62.4201 60.9161 62.2133 60.446 61.925 59.932C61.6195 59.3349 61.1526 58.8355 60.5774 58.4904C60.2578 58.3149 59.8817 58.1959 59.5056 58.0329C59.3112 57.9458 59.1263 57.8386 58.9541 57.7132C58.7799 57.5711 58.6405 57.391 58.5467 57.1867C58.3586 56.7731 58.3524 56.303 58.2019 55.8705C58.1299 55.654 57.9945 55.464 57.8133 55.3252C57.6232 55.1898 57.4112 55.088 57.1866 55.0244C56.9426 54.9566 56.7055 54.8664 56.4783 54.7549C56.2417 54.626 56.0511 54.4266 55.933 54.1845C55.7466 53.6848 55.6306 53.1617 55.5883 52.6301C55.5499 52.3706 55.4605 52.1214 55.325 51.8968C55.1773 51.6819 54.9531 51.5317 54.6983 51.4768C54.1718 51.364 53.6077 51.552 53.0185 51.4768C52.7193 51.4305 52.4426 51.29 52.2288 51.0757C52.0343 50.867 51.8659 50.6355 51.7273 50.3862C51.5936 50.1467 51.4471 49.9144 51.2886 49.6905C51.1359 49.478 50.9336 49.3059 50.6994 49.1891C50.2075 49.0229 49.6746 49.0229 49.1826 49.1891C48.6903 49.342 48.1708 49.3868 47.6596 49.3207C47.1843 49.194 46.7361 48.9816 46.3371 48.6939C45.9651 48.4392 45.5707 48.2189 45.1587 48.0358C44.3888 47.7809 43.5615 47.7548 42.777 47.9606C42.1292 48.1277 41.5273 48.4383 41.0157 48.8694C40.6333 49.2004 40.3055 49.5896 40.0442 50.0227C39.8792 50.296 39.7387 50.5833 39.6243 50.8814C39.5867 50.9817 39.5553 51.0569 39.5303 51.1133C39.5319 51.1404 39.5319 51.1676 39.5303 51.1948C39.5303 51.1948 39.5303 51.1634 39.5303 51.1133C39.5303 51.0631 39.5742 50.9754 39.6118 50.8751C39.8751 50.0799 40.347 49.37 40.9781 48.8193C41.492 48.3742 42.1009 48.0526 42.7582 47.8791C43.5593 47.6595 44.4075 47.6813 45.1963 47.9418C45.6155 48.114 46.0183 48.3238 46.3997 48.5686C46.7912 48.841 47.2286 49.0406 47.6909 49.1577C48.1861 49.2197 48.6888 49.1727 49.1638 49.0199C49.421 48.9536 49.6829 48.9075 49.9473 48.882C50.2236 48.8574 50.5016 48.9026 50.7558 49.0136C51.0084 49.1352 51.2246 49.3211 51.3826 49.5526C51.5461 49.778 51.6967 50.0123 51.8339 50.2546C51.9667 50.4951 52.1288 50.7183 52.3165 50.919C52.5058 51.1142 52.7511 51.2456 53.0185 51.2951C53.5638 51.3828 54.1342 51.201 54.7045 51.2951C54.8477 51.323 54.9839 51.3789 55.1055 51.4596C55.227 51.5402 55.3314 51.6441 55.4128 51.7651C55.5615 52.0015 55.6596 52.2662 55.7011 52.5423C55.744 53.0639 55.8535 53.5779 56.027 54.0717C56.1359 54.2931 56.3112 54.4749 56.5284 54.5919C56.7499 54.7001 56.9807 54.7882 57.2179 54.8551C57.4604 54.9215 57.6895 55.0297 57.8948 55.1748C58.098 55.3336 58.2452 55.5532 58.3148 55.8016C58.4714 56.2591 58.4714 56.7229 58.6532 57.1178C58.8435 57.487 59.1657 57.7712 59.5558 57.9138C59.9256 58.083 60.3016 58.2021 60.6338 58.3839C61.218 58.7383 61.6897 59.2512 61.9939 59.8631C62.2822 60.3896 62.4828 60.8597 62.652 61.242L63.0469 62.1195C63.0908 62.2135 63.1221 62.2887 63.1472 62.3514L63.166 62.4579Z" fill="#455A64"/>
<path d="M58.8978 58.265H58.973C59.0473 58.262 59.121 58.2793 59.1862 58.3152C59.3056 58.3911 59.4043 58.4957 59.4732 58.6193C59.5421 58.743 59.5792 58.8818 59.581 59.0234C59.5856 59.2352 59.5582 59.4466 59.4995 59.6502C59.4312 59.8737 59.3954 60.1059 59.393 60.3396C59.4202 60.6067 59.5175 60.8619 59.675 61.0792C59.8317 61.3237 60.0323 61.5619 60.189 61.8502C60.2815 61.9996 60.3386 62.1682 60.356 62.3431C60.3734 62.518 60.3506 62.6946 60.2893 62.8593C60.1639 63.1977 59.9132 63.4861 59.7941 63.8308C59.6886 64.1987 59.7267 64.593 59.9007 64.9339C60.0574 65.3037 60.283 65.6547 60.4334 66.0621C60.5148 66.2614 60.5594 66.4737 60.5651 66.6889C60.5629 66.9185 60.5116 67.1451 60.4146 67.3533C60.1943 67.7575 59.9384 68.1414 59.65 68.5003C59.3571 68.8503 59.2071 69.298 59.23 69.7538C59.3347 70.2232 59.4968 70.6779 59.7126 71.1077C59.8069 71.3431 59.8579 71.5937 59.8631 71.8472C59.8549 72.0985 59.7907 72.3448 59.675 72.568C59.4308 72.9779 59.1406 73.3585 58.8101 73.7025C58.4992 74.0273 58.26 74.4138 58.1081 74.837C57.996 75.2629 57.8578 75.6815 57.6944 76.0905C57.5965 76.2869 57.4576 76.46 57.287 76.5982C57.1134 76.7195 56.9206 76.8106 56.7167 76.8677C56.5286 76.9367 56.3343 76.9868 56.1651 77.0683C55.9966 77.1506 55.8405 77.2561 55.7013 77.3817C55.4552 77.6389 55.2445 77.9276 55.0745 78.2404C54.8927 78.5412 54.7172 78.8358 54.5292 79.099C54.1851 79.5822 53.6952 79.9424 53.1315 80.127C52.7094 80.2649 52.2621 80.3077 51.8215 80.2523C51.5439 80.216 51.2734 80.1378 51.0193 80.0204C50.933 79.9771 50.8493 79.929 50.7686 79.8762C51.1003 80.0449 51.4586 80.1552 51.8278 80.2022C52.2507 80.2462 52.6781 80.1992 53.0814 80.0643C53.6279 79.8761 54.1015 79.5209 54.4352 79.0489C54.617 78.7857 54.7862 78.4973 54.968 78.1902C55.1497 77.868 55.3754 77.5727 55.6386 77.3127C55.7816 77.1735 55.9468 77.0591 56.1275 76.9743C56.3109 76.8933 56.4993 76.8243 56.6916 76.7674C56.882 76.7113 57.0619 76.6245 57.2243 76.5105C57.3826 76.3832 57.511 76.2227 57.6004 76.0404C57.762 75.632 57.896 75.2132 58.0016 74.7868C58.1606 74.3498 58.4057 73.9491 58.7223 73.6085C59.0463 73.2726 59.3302 72.9003 59.5685 72.4991C59.6797 72.2928 59.7399 72.0628 59.744 71.8284C59.7418 71.592 59.695 71.3581 59.6061 71.139C59.3837 70.6998 59.2173 70.2345 59.1109 69.7538C59.0841 69.5069 59.1185 69.2572 59.2112 69.0268C59.3005 68.8047 59.4163 68.5943 59.556 68.4C59.8407 68.0464 60.0944 67.6689 60.3143 67.2718C60.4042 67.0747 60.4533 66.8615 60.4585 66.645C60.4568 66.43 60.4142 66.2173 60.3332 66.0182C60.189 65.6234 59.9696 65.2661 59.8129 64.89C59.6228 64.5269 59.5845 64.1031 59.7064 63.7117C59.838 63.3419 60.0887 63.0849 60.2078 62.7339C60.2668 62.5822 60.2896 62.4187 60.2744 62.2566C60.2592 62.0945 60.2063 61.9381 60.12 61.8C59.9696 61.5242 59.7753 61.2861 59.6186 61.0354C59.4576 60.8052 59.3584 60.5376 59.3303 60.2582C59.3352 60.0155 59.3753 59.7748 59.4494 59.5436C59.5057 59.3542 59.5373 59.1583 59.5434 58.9607C59.5405 58.8255 59.5062 58.6928 59.4431 58.5731C59.38 58.4534 59.2899 58.3501 59.1799 58.2713C59.0882 58.2433 58.9906 58.2411 58.8978 58.265Z" fill="#455A64"/>
<path d="M43.5858 71.2582C43.6401 71.1291 43.742 71.0258 43.8703 70.9698C43.9987 70.9138 44.1437 70.9093 44.2753 70.9573L46.7824 71.8787L47.0644 71.9852C46.9395 72.4952 46.7522 72.9878 46.5066 73.4519C46.3925 73.6513 46.2364 73.8235 46.0492 73.9566C45.862 74.0897 45.6481 74.1805 45.4223 74.2228C45.0501 74.2503 44.679 74.1581 44.363 73.9596C44.0998 73.8402 43.8645 73.6669 43.6723 73.451C43.4802 73.2351 43.3354 72.9813 43.2473 72.706C43.2406 72.203 43.3568 71.706 43.5858 71.2582Z" fill="#CE9E8F"/>
<path d="M29.9409 71.2206C29.7132 71.2975 29.501 71.4142 29.3141 71.5653C28.8079 71.9671 28.4613 72.5359 28.3363 73.1699C28.2368 73.603 28.2368 74.053 28.3363 74.4861C28.4874 75.0012 28.7598 75.4727 29.1305 75.8609C29.5013 76.2491 29.9597 76.5428 30.4674 76.7174C31.0451 76.9118 31.6683 76.9249 32.2537 76.755C32.8408 76.5964 33.371 76.2748 33.783 75.8274C34.167 75.4077 34.4197 74.8848 34.5101 74.3231C34.5908 73.8537 34.5621 73.3719 34.4262 72.9153C34.2903 72.4587 34.0509 72.0396 33.7266 71.6907C33.4648 71.4341 33.1534 71.2336 32.8115 71.1015C32.5596 70.9949 32.2936 70.9252 32.0218 70.8947C31.8495 70.8671 31.6739 70.8671 31.5016 70.8947C31.4438 70.9063 31.3871 70.9231 31.3323 70.9448C31.5588 70.9111 31.789 70.9111 32.0155 70.9448C32.2791 70.9864 32.5362 71.0623 32.7802 71.1705C33.1022 71.3122 33.3953 71.5119 33.6451 71.7596C33.9514 72.0996 34.176 72.5049 34.302 72.9448C34.428 73.3847 34.452 73.8475 34.3722 74.2981C34.2801 74.8282 34.0362 75.3202 33.6702 75.7146C33.2771 76.1399 32.7737 76.448 32.2161 76.6046C31.6594 76.7638 31.0679 76.7529 30.5175 76.5733C30.0046 76.3995 29.5435 76.1 29.1762 75.702C28.8438 75.3455 28.5991 74.9162 28.4617 74.4485C28.3502 74.0398 28.3331 73.6112 28.4116 73.1949C28.5228 72.581 28.8441 72.0248 29.3204 71.6217C29.5177 71.4738 29.725 71.3398 29.9409 71.2206Z" fill="#E0E0E0"/>
<path d="M43.2348 66.0495C43.2486 66.276 43.1729 66.4988 43.024 66.6699C42.8751 66.8411 42.6649 66.9469 42.4387 66.9646C42.3282 66.9785 42.216 66.9702 42.1087 66.94C42.0015 66.9098 41.9013 66.8584 41.8143 66.7889C41.7272 66.7194 41.655 66.6331 41.6018 66.5351C41.5487 66.4372 41.5157 66.3296 41.5049 66.2187C41.4943 65.9921 41.572 65.7701 41.7216 65.5995C41.8712 65.4289 42.081 65.3228 42.3071 65.3036C42.4172 65.2906 42.5288 65.2996 42.6353 65.3302C42.7418 65.3608 42.8412 65.4124 42.9275 65.4818C43.0139 65.5513 43.0856 65.6372 43.1383 65.7347C43.1911 65.8322 43.2239 65.9392 43.2348 66.0495Z" fill="#263238"/>
<path d="M51.6022 65.8364C51.6145 66.0624 51.5382 66.2844 51.3896 66.4552C51.241 66.626 51.0318 66.7322 50.8062 66.7515C50.6958 66.7645 50.5839 66.7555 50.477 66.725C50.3701 66.6945 50.2703 66.643 50.1834 66.5737C50.0966 66.5043 50.0243 66.4183 49.9709 66.3208C49.9175 66.2233 49.884 66.1162 49.8723 66.0056C49.8602 65.7785 49.9373 65.5557 50.0872 65.3848C50.2371 65.2138 50.4479 65.1082 50.6746 65.0905C50.7848 65.0766 50.8967 65.085 51.0036 65.1152C51.1105 65.1455 51.2102 65.197 51.2967 65.2666C51.3833 65.3362 51.455 65.4225 51.5074 65.5204C51.5599 65.6183 51.5922 65.7257 51.6022 65.8364Z" fill="#263238"/>
<path d="M51.2515 62.6333C51.17 62.765 50.4994 62.3137 49.647 62.4077C48.7945 62.5017 48.2304 63.0345 48.1239 62.953C48.0173 62.8715 48.1239 62.6772 48.3871 62.4202C48.7023 62.0827 49.1307 61.873 49.5906 61.8311C50.0478 61.7854 50.5066 61.9007 50.888 62.157C51.1763 62.3575 51.2954 62.5707 51.2515 62.6333Z" fill="#263238"/>
<path d="M43.085 63.3355C42.9659 63.4672 42.2388 62.9031 41.2046 62.9093C40.1705 62.9156 39.4246 63.4734 39.3243 63.3418C39.224 63.2102 39.387 63.041 39.7129 62.784C40.1444 62.4526 40.6731 62.2729 41.2172 62.2729C41.7612 62.2729 42.29 62.4526 42.7214 62.784C43.0348 63.0347 43.1414 63.2729 43.085 63.3355Z" fill="#263238"/>
<path d="M45.9992 73.9091C45.9284 74.0025 45.8329 74.0742 45.7234 74.116C45.4267 74.2342 45.1013 74.2604 44.7895 74.1912C44.3206 74.1057 43.8858 73.8883 43.536 73.5644C43.3284 73.3604 43.1828 73.1018 43.116 72.8186C43.0473 72.5216 43.0473 72.2129 43.116 71.916C43.1892 71.6305 43.2965 71.3548 43.4357 71.0949C43.4693 71.0156 43.519 70.944 43.5815 70.8847C43.6441 70.8253 43.7182 70.7796 43.7992 70.7502C43.9538 70.7247 44.1125 70.7511 44.2505 70.8254L45.5041 71.3268C45.8984 71.4579 46.2752 71.6369 46.626 71.8596C46.2178 71.7847 45.8187 71.667 45.4351 71.5086L44.1816 71.0573C43.9246 70.9508 43.8055 70.9696 43.6864 71.214C43.5661 71.4591 43.4696 71.7152 43.3981 71.9787C43.3203 72.2204 43.3084 72.4785 43.3635 72.7263C43.4185 72.9742 43.5387 73.2029 43.7115 73.3889C44.0117 73.6926 44.3886 73.9092 44.8021 74.0157C45.0812 74.0913 45.3754 74.0913 45.6545 74.0157C45.8801 73.9593 45.9616 73.8903 45.9992 73.9091Z" fill="#263238"/>
<path d="M62.7468 45.9114C62.4088 45.6574 62.0403 45.4469 61.6499 45.2846C61.1909 45.1053 60.701 45.018 60.2083 45.0276C59.5598 45.0335 58.925 45.2155 58.3719 45.5541L58.2904 45.6105L58.234 45.5228C57.7842 44.7868 57.0644 44.2559 56.2283 44.0436C55.7539 43.907 55.2552 43.8766 54.7677 43.9546C54.2802 44.0326 53.8159 44.217 53.4078 44.4949L53.3013 44.5701L53.226 44.4635C52.3927 43.3566 51.1648 42.6136 49.7976 42.3889C48.7295 42.2107 47.6325 42.3753 46.6637 42.859C45.7764 43.2894 45.0241 43.9549 44.4888 44.7832V44.8396H44.4198C43.2983 44.8833 42.1976 45.1564 41.1857 45.6419C40.3953 46.0188 39.668 46.5156 39.0296 47.1148C38.4828 47.6596 37.9895 48.2557 37.5566 48.8948C37.5566 48.8948 37.5566 48.8447 37.6193 48.7507C37.682 48.6567 37.7384 48.5188 37.845 48.3558C38.155 47.8676 38.5187 47.4156 38.9293 47.0082C39.5644 46.3792 40.2967 45.8564 41.0979 45.4601C42.1299 44.9416 43.2598 44.6469 44.4136 44.5952L44.3133 44.6516C44.8659 43.7728 45.6542 43.067 46.5885 42.6146C47.6025 42.1037 48.7525 41.9281 49.8728 42.1131C51.3081 42.3537 52.5949 43.1397 53.4642 44.3068H53.2824C53.7228 44.0085 54.2242 43.812 54.75 43.7318C55.2759 43.6516 55.813 43.6896 56.3223 43.843C57.2121 44.0783 57.9733 44.6548 58.4408 45.4476L58.3029 45.41C58.8881 45.0619 59.5588 44.8839 60.2397 44.896C60.7505 44.8964 61.256 45.0009 61.7251 45.2031C62.0201 45.3326 62.2963 45.5013 62.5462 45.7046C62.6216 45.7646 62.689 45.8342 62.7468 45.9114Z" fill="#263238"/>
<path d="M35.5758 44.5135C35.2626 44.6642 34.9205 44.7454 34.573 44.7516C34.0928 44.7776 33.6123 44.7078 33.1593 44.5464C32.7063 44.385 32.2899 44.1352 31.9343 43.8115C31.4428 43.343 31.1023 42.7385 30.9565 42.0753C30.7911 41.3079 30.87 40.5079 31.1821 39.7876C31.543 38.9848 32.2014 38.3533 33.0186 38.0263C33.9047 37.6657 34.8966 37.6657 35.7827 38.0263L35.626 38.0639C36.0129 37.6123 36.5446 37.3088 37.1303 37.2053C37.6213 37.1111 38.1289 37.1545 38.5969 37.3306C39.0492 37.5128 39.4359 37.8274 39.7063 38.2332C39.9646 38.6107 40.121 39.0484 40.1606 39.5041C40.2001 39.9598 40.1213 40.418 39.9319 40.8343L39.7564 40.6713C40.0706 40.4966 40.4227 40.4012 40.782 40.3936C41.1414 40.3859 41.4972 40.4662 41.8185 40.6275C42.1181 40.7629 42.3851 40.9611 42.6014 41.2088C42.8177 41.4564 42.9782 41.7477 43.0721 42.0628C43.2115 42.571 43.2105 43.1075 43.0693 43.6152C42.928 44.1229 42.6517 44.5828 42.2698 44.9459C41.778 45.4117 41.1658 45.7309 40.5023 45.8673C40.3286 45.9022 40.1527 45.9252 39.9758 45.9362H39.7878C39.7878 45.9362 40.0385 45.9362 40.4835 45.7921C41.1169 45.6299 41.6963 45.3034 42.1633 44.8457C42.5116 44.497 42.7604 44.0615 42.8838 43.5843C43.0073 43.1071 43.0008 42.6056 42.8652 42.1317C42.7779 41.8561 42.6334 41.6019 42.4411 41.3859C42.2489 41.1699 42.0132 40.9969 41.7496 40.8782C41.4641 40.7356 41.1481 40.6651 40.829 40.6727C40.51 40.6804 40.1977 40.766 39.9194 40.922L39.5496 41.1414L39.7376 40.7591C39.9031 40.3808 39.9697 39.9667 39.9314 39.5555C39.893 39.1444 39.7509 38.7498 39.5183 38.4087C39.2748 38.0507 38.9299 37.7735 38.528 37.6127C38.1099 37.4553 37.656 37.4184 37.218 37.5061C36.6911 37.5946 36.212 37.8652 35.8642 38.2708L35.8015 38.346L35.7075 38.3084C34.8881 37.9726 33.9696 37.9726 33.1502 38.3084C32.3879 38.6047 31.7715 39.1872 31.4329 39.9317C31.133 40.6043 31.0519 41.3541 31.2009 42.0753C31.3252 42.7017 31.6354 43.2762 32.091 43.7237C32.769 44.3605 33.668 44.7089 34.5981 44.6952C34.929 44.6658 35.2564 44.6049 35.5758 44.5135Z" fill="#263238"/>
<path d="M16.503 54.9368C16.4707 54.8884 16.4454 54.8356 16.4278 54.7801C16.3648 54.6294 16.3124 54.4744 16.2711 54.3163C16.124 53.7124 16.109 53.0838 16.2272 52.4736C16.4055 51.5289 16.9008 50.6732 17.6312 50.048C18.0957 49.6553 18.6355 49.3617 19.2174 49.1849C19.7994 49.0082 20.4113 48.9521 21.0158 49.0201L20.8779 49.089C21.4451 47.9451 22.4035 47.0423 23.5793 46.5443C24.4685 46.1748 25.4434 46.0619 26.3935 46.2184C27.2589 46.3604 28.0754 46.7158 28.769 47.2526H28.6373C29.5149 46.7873 30.4961 46.5523 31.4892 46.5694C32.2573 46.5787 33.0166 46.734 33.7268 47.0269C34.1762 47.2155 34.5979 47.4643 34.9803 47.7665C35.122 47.8695 35.2504 47.9894 35.3627 48.1238C34.8318 47.7348 34.255 47.4127 33.6453 47.1648C32.9483 46.9024 32.2089 46.7706 31.4641 46.7762C30.5097 46.7727 29.5699 47.0099 28.7314 47.4657L28.6624 47.5033L28.5935 47.4531C27.9266 46.9534 27.1477 46.6242 26.3245 46.4942C25.4247 46.3489 24.5023 46.4575 23.6607 46.8076C22.5448 47.2781 21.6335 48.1316 21.091 49.2144L21.0471 49.3021H20.9531C20.3834 49.2349 19.806 49.2835 19.2556 49.4451C18.7052 49.6067 18.1932 49.8778 17.7503 50.2423C17.045 50.8279 16.5571 51.6337 16.3651 52.53C16.2433 53.1213 16.2433 53.7313 16.3651 54.3226C16.4466 54.7112 16.5343 54.9306 16.503 54.9368Z" fill="#263238"/>
<path d="M87.8985 129.26L85.6358 125.844L82.0131 124.026L81.8752 123.926C81.2906 123.502 80.6189 123.213 79.9087 123.081C79.1986 122.948 78.4679 122.976 77.7698 123.161C76.2906 123.556 74.3225 124.045 72.6114 124.34L68.7129 123.268V130.883L88.3874 129.63L87.8985 129.26Z" fill="#CE9E8F"/>
<path d="M87.7609 129.053C87.5116 128.77 87.232 128.516 86.9273 128.294C86.3945 127.849 85.6737 127.248 84.8151 126.596L84.0379 125.969C83.2293 125.819 82.5273 125.7 82.0259 125.618C81.7627 125.559 81.4933 125.532 81.2236 125.537C81.4706 125.65 81.7322 125.728 82.0008 125.769C82.4897 125.888 83.1854 126.038 83.9877 126.201H83.9376L84.7148 126.828C85.5484 127.455 86.3131 128.081 86.8709 128.47C87.1464 128.695 87.4447 128.89 87.7609 129.053Z" fill="#CE9E8F"/>
<path d="M86.2255 129.718C85.3276 129.077 84.3826 128.505 83.3987 128.006L82.7093 127.63C81.8762 127.547 81.0376 127.533 80.2021 127.586C81.0292 127.745 81.8675 127.837 82.7093 127.862H82.6591L83.3486 128.245C84.2721 128.802 85.2334 129.294 86.2255 129.718Z" fill="#CE9E8F"/>
<path d="M110.795 107.724C110.478 107.544 110.105 107.486 109.748 107.563C109.391 107.639 109.075 107.843 108.858 108.137L93.0134 129.598L67.9424 129.937C66.9458 129.999 65.7299 132.024 66.6262 133.001L94.9376 132.613L111.284 109.905C111.407 109.733 111.492 109.538 111.534 109.331C111.576 109.124 111.574 108.911 111.528 108.705C111.482 108.499 111.393 108.305 111.266 108.136C111.14 107.967 110.979 107.826 110.795 107.724Z" fill="#E0E0E0"/>
<path d="M34.843 82.8661C33.2814 83.1115 31.8212 83.7938 30.6311 84.8342C29.0968 86.393 27.9428 88.2848 27.259 90.3624C26.4192 92.8695 26.7952 102.779 26.7952 105.649C26.7952 108.52 27.5286 119.301 27.8858 121.093C28.2431 122.886 27.6539 125.556 26.8266 127.286C25.3348 130.42 27.6602 131.993 27.6602 131.993L58.4223 131.767L58.3033 130.614C58.0902 128.615 58.836 126.584 58.0714 124.722C56.9417 121.995 56.457 119.043 56.6548 116.098C57.0497 110.971 58.579 107.473 57.6389 104.502C56.2036 99.9646 51.4651 89.6478 45.7301 85.2416C45.7301 85.2416 41.2173 84.2764 40.1957 83.9191C37.8829 83.1043 36.6544 82.6656 34.843 82.8661Z" fill="#3B356D"/>
<path d="M71.0322 122.384L44.7076 116.887L44.0808 94.079C44.0808 94.079 43.1594 84.7839 38.5025 83.9189L27.2832 97.8835C27.91 104.922 27.3396 118.241 30.5738 123.374C33.8079 128.508 36.9544 132.626 44.9207 132.262C52.887 131.899 70.4367 131.729 70.4367 131.729L71.0322 122.384Z" fill="#3B356D"/>
<path d="M44.7834 116.988C44.8461 117.038 44.2193 117.859 43.6866 119.006C43.1538 120.153 42.9219 121.162 42.8467 121.143C42.8756 120.354 43.0903 119.583 43.4735 118.893C43.7599 118.167 44.2079 117.515 44.7834 116.988Z" fill="#263238"/>
<g opacity="0.3">
<path d="M43.8747 93.1012C46.5009 101.174 45.9305 113.609 50.9384 118.172L44.7083 116.887C44.8267 115.428 44.8434 113.962 44.7584 112.5C44.257 106.119 44.1943 99.6322 43.8496 93.0698" fill="black"/>
</g>
<path d="M43.2917 90.2241C43.4838 90.8236 43.6366 91.435 43.7492 92.0543C43.8988 92.8044 44.0097 93.5617 44.0814 94.3232C44.1691 95.2195 44.1817 96.2537 44.2256 97.4132C44.376 102.07 44.5891 108.758 44.8523 116.9L44.7646 116.799L71.0892 122.265H71.202V122.378C71.014 125.367 70.8071 128.514 70.5752 131.717V131.842H70.406L67.2094 131.88C62.6402 131.936 58.1839 132.005 53.8779 132.099C51.7218 132.141 49.6096 132.197 47.5412 132.268C45.4791 132.318 43.4296 132.513 41.4489 132.206C40.4717 132.066 39.5131 131.818 38.5908 131.466C37.7037 131.107 36.8622 130.644 36.0837 130.087C34.629 128.983 33.3595 127.654 32.3231 126.151C31.8154 125.43 31.3265 124.709 30.8752 123.995L30.5305 123.456C30.4239 123.274 30.3299 123.086 30.2297 122.898L29.9351 122.34L29.7094 121.763C29.1553 120.289 28.7624 118.759 28.5374 117.201C28.1246 114.535 27.8672 111.848 27.7664 109.153C27.6473 106.777 27.5909 104.734 27.5345 103.06C27.4781 101.387 27.4217 100.09 27.3778 99.2058C27.3778 98.7733 27.3277 98.4411 27.3151 98.2092C27.3026 97.9773 27.3151 97.8645 27.3151 97.8645C27.3151 97.8645 27.3151 97.9773 27.3527 98.203C27.3904 98.4286 27.4029 98.7733 27.4405 99.2058C27.5032 100.083 27.5847 101.381 27.6536 103.054C27.7225 104.728 27.7915 106.771 27.9294 109.146C28.0447 111.834 28.3125 114.512 28.7317 117.169C28.9635 118.713 29.3585 120.228 29.91 121.688L30.1356 122.259L30.4239 122.798C30.5242 122.979 30.6183 123.167 30.7248 123.343L31.0633 123.876C31.5208 124.59 32.0034 125.305 32.5174 126.019C33.5546 127.506 34.8244 128.816 36.278 129.899C37.057 130.447 37.8987 130.899 38.7851 131.247C39.6899 131.587 40.6295 131.827 41.5868 131.961C43.5361 132.262 45.5606 132.068 47.6352 132.011C49.7098 131.955 51.8221 131.886 53.9782 131.836C58.2841 131.742 62.7531 131.667 67.316 131.61H70.5125L70.3809 131.729C70.5878 128.526 70.7946 125.38 71.0077 122.39L71.108 122.528L44.7082 117.006H44.6204V116.887C44.3948 108.739 44.213 102.058 44.0877 97.4007C44.0501 96.2412 44.0501 95.2007 43.9748 94.3107C43.8996 93.4207 43.7931 92.6623 43.6865 92.0543C43.58 91.4463 43.4672 90.9888 43.3919 90.6817C43.3919 90.5312 43.3293 90.4184 43.3105 90.3307C43.2917 90.2429 43.2917 90.2241 43.2917 90.2241Z" fill="#263238"/>
<path d="M85.4796 178.399L81.5811 207.149L91.7912 208.823L99.0493 183.313L85.4796 178.399Z" fill="#CE9E8F"/>
<path d="M54.5293 134.217C54.5293 134.217 91.8413 131.767 99.5882 133.002C104.27 133.747 108.307 141.062 105.756 145.462C104.546 147.543 102.622 154.024 102.622 154.024L82.565 149.448L54.5293 134.217Z" fill="#455A64"/>
<path d="M82.5899 154.024L74.5107 166.353L84.0189 172.514L94.3357 156.7L82.5899 154.024Z" fill="#CE9E8F"/>
<path d="M28.4117 131.961C28.4117 131.961 24.4693 149.342 30.8311 156.174C35.3689 161.044 46.5005 160.53 55.9021 160.53C65.4103 160.53 87.3725 160.009 87.3725 160.009C87.3725 160.009 86.376 166.12 85.6489 173.078C84.9218 180.035 84.7651 184.435 84.7651 184.435L98.761 185.601C98.761 185.601 106.558 161.871 107.755 157.17C108.952 152.469 108.551 146.158 104.402 143.813C100.892 141.833 73.1698 134.142 59.9009 133.002L58.4593 131.748L28.4117 131.961Z" fill="#455A64"/>
<path d="M94.1794 154.3C94.1794 154.344 93.6404 154.425 92.8068 154.72C92.3234 154.887 91.8556 155.097 91.4091 155.346C90.8668 155.664 90.3567 156.033 89.886 156.449C89.4259 156.878 89.0062 157.348 88.6325 157.853C88.3305 158.272 88.0662 158.717 87.8427 159.182C87.4604 159.978 87.3288 160.517 87.2786 160.505C87.2758 160.38 87.2927 160.255 87.3288 160.135C87.4099 159.787 87.5211 159.448 87.661 159.12C87.8698 158.634 88.1259 158.17 88.4256 157.734C89.1629 156.659 90.1446 155.774 91.29 155.152C91.7527 154.891 92.2423 154.681 92.7504 154.525C93.0893 154.416 93.4376 154.338 93.7908 154.293C93.9197 154.272 94.0513 154.274 94.1794 154.3Z" fill="#263238"/>
<path d="M92.5186 139.965C92.6645 139.437 92.9161 138.945 93.2582 138.517C93.5278 138.04 93.8952 137.626 94.3362 137.301C94.1033 137.788 93.8152 138.247 93.4775 138.668C93.2103 139.137 92.8884 139.572 92.5186 139.965Z" fill="#263238"/>
<path d="M108.307 150.564C108.287 150.523 108.274 150.478 108.269 150.433C108.269 150.326 108.213 150.194 108.169 150.031C108.087 149.68 107.962 149.167 107.749 148.521C107.502 147.733 107.17 146.974 106.759 146.258C106.24 145.299 105.454 144.511 104.496 143.989C101.879 142.846 99.1861 141.887 96.4357 141.119C93.3394 140.197 89.9235 139.238 86.3258 138.261C79.1178 136.349 72.5054 134.976 67.6855 134.18C65.2786 133.773 63.298 133.497 61.963 133.303L60.4086 133.096L60.0012 133.033C59.9543 133.027 59.9081 133.017 59.8633 133.002H60.0074H60.4148L61.9755 133.165C63.3356 133.322 65.2974 133.572 67.7168 133.955C74.0045 134.975 80.2364 136.314 86.3884 137.966C89.9987 138.919 93.4146 139.909 96.5046 140.849C99.2671 141.647 101.967 142.646 104.584 143.839C105.564 144.387 106.363 145.208 106.884 146.202C107.293 146.931 107.617 147.705 107.849 148.508C108.044 149.167 108.156 149.687 108.225 150.038C108.225 150.207 108.275 150.339 108.294 150.445C108.304 150.484 108.308 150.524 108.307 150.564Z" fill="#263238"/>
<path d="M92.5811 208.077L92.9195 206.823C88.7319 206.469 84.7725 204.765 81.6375 201.966L78.1777 209.443L101.243 219.704C102.133 217.504 92.5811 208.077 92.5811 208.077Z" fill="#263238"/>
<path d="M78.1963 209.449L79.0424 207.625L100.886 218.162C100.886 218.162 101.713 219.058 101.262 219.71L78.1963 209.449Z" fill="#E0E0E0"/>
<path d="M92.274 207.933C92.2175 208.039 91.6472 207.839 90.9139 207.933C90.1805 208.027 89.6603 208.371 89.5976 208.277C89.5349 208.183 89.98 207.651 90.8512 207.519C91.7224 207.387 92.3429 207.839 92.274 207.933Z" fill="#E0E0E0"/>
<path d="M83.2986 207.143C83.2179 207.298 83.0806 207.417 82.9149 207.474C82.7493 207.531 82.568 207.523 82.4086 207.45C82.329 207.416 82.2572 207.367 82.1977 207.304C82.1382 207.242 82.0923 207.167 82.0629 207.086C82.0335 207.005 82.0211 206.918 82.0267 206.832C82.0323 206.746 82.0556 206.662 82.0952 206.585C82.1735 206.427 82.3107 206.307 82.4773 206.249C82.6438 206.192 82.8263 206.202 82.9852 206.278C83.0648 206.312 83.1366 206.361 83.1961 206.424C83.2556 206.486 83.3015 206.561 83.3309 206.642C83.3603 206.723 83.3727 206.81 83.3671 206.896C83.3615 206.982 83.3382 207.066 83.2986 207.143Z" fill="#E0E0E0"/>
<path d="M92.1357 207.77C91.9558 207.773 91.7769 207.741 91.6092 207.676C91.125 207.565 90.6792 207.327 90.3181 206.986C90.2011 206.866 90.1 206.731 90.0172 206.585C89.9116 206.428 89.845 206.247 89.8229 206.059C89.8137 205.937 89.8442 205.816 89.9097 205.713C89.9752 205.61 90.0723 205.532 90.1864 205.488C90.2982 205.445 90.4178 205.426 90.5376 205.431C90.6573 205.436 90.7747 205.467 90.8821 205.52C91.3088 205.725 91.6707 206.043 91.9283 206.44C92.186 206.837 92.3293 207.297 92.3425 207.77L91.9978 207.72C92.0567 207.541 92.1344 207.368 92.2297 207.206C92.4834 206.768 92.8496 206.405 93.2904 206.156C93.7312 205.907 94.2306 205.78 94.7368 205.789C94.8705 205.783 95.0037 205.809 95.1254 205.865C95.1923 205.898 95.2504 205.946 95.295 206.006C95.3397 206.066 95.3696 206.136 95.3824 206.209C95.4011 206.325 95.3963 206.444 95.3683 206.558C95.3403 206.672 95.2897 206.779 95.2194 206.874C94.9977 207.189 94.6913 207.434 94.3357 207.582C93.8319 207.78 93.2897 207.862 92.7499 207.82C92.5563 207.832 92.362 207.815 92.1733 207.77C92.3581 207.714 92.5505 207.686 92.7437 207.688C93.2547 207.678 93.759 207.569 94.2291 207.369C94.5274 207.227 94.7843 207.011 94.975 206.742C95.0691 206.612 95.1095 206.45 95.0878 206.291C95.0878 206.165 94.9437 206.122 94.7306 206.122C94.2874 206.121 93.8519 206.237 93.4671 206.457C93.0824 206.677 92.7617 206.993 92.5368 207.375C92.457 207.519 92.3899 207.67 92.3363 207.826C92.3222 207.863 92.2962 207.894 92.2623 207.914C92.2285 207.935 92.1888 207.943 92.1497 207.938C92.1107 207.933 92.0744 207.915 92.0469 207.887C92.0193 207.858 92.002 207.822 91.9978 207.782C91.9892 207.375 91.8727 206.977 91.6602 206.629C91.4477 206.281 91.1468 205.996 90.7881 205.802C90.4747 205.639 90.1112 205.802 90.1614 206.053C90.2101 206.347 90.3454 206.619 90.55 206.836C90.8758 207.164 91.2725 207.413 91.7095 207.563C91.8584 207.617 92.0012 207.686 92.1357 207.77Z" fill="#E0E0E0"/>
<path d="M94.0409 209.531C93.5312 209.526 93.0218 209.561 92.5178 209.638C92.0339 209.804 91.5661 210.014 91.1201 210.265C91.4518 209.829 91.9219 209.52 92.4528 209.388C92.9838 209.256 93.5439 209.309 94.0409 209.538V209.531Z" fill="#E0E0E0"/>
<path d="M95.3321 210.998C95.3321 211.073 94.7053 211.054 93.9783 211.274C93.2512 211.493 92.7247 211.838 92.6934 211.775C92.9923 211.385 93.4217 211.116 93.903 211.017C94.361 210.836 94.8695 210.829 95.3321 210.998Z" fill="#E0E0E0"/>
<path d="M85.8309 171.122L86.3762 169.95C82.314 168.893 78.7033 166.549 76.0845 163.269L71.415 170.057L92.4308 184.052C93.6593 182.022 85.8309 171.122 85.8309 171.122Z" fill="#263238"/>
<path d="M71.415 170.056L72.5558 168.396L92.3431 182.467C92.3431 182.467 92.9699 183.482 92.4559 184.052L71.415 170.056Z" fill="#E0E0E0"/>
<path d="M85.5487 170.928C85.4734 171.022 84.9219 170.728 84.2074 170.715C83.4928 170.702 82.9162 170.934 82.8535 170.834C82.7908 170.734 83.3361 170.257 84.2136 170.295C85.0911 170.333 85.6364 170.853 85.5487 170.928Z" fill="white"/>
<path d="M76.8365 168.628C76.7314 168.768 76.5761 168.862 76.4031 168.89C76.23 168.918 76.0529 168.878 75.9089 168.778C75.8365 168.731 75.7745 168.67 75.7267 168.599C75.6789 168.527 75.6464 168.447 75.6311 168.362C75.6158 168.277 75.6181 168.191 75.6378 168.107C75.6576 168.023 75.6944 167.944 75.7459 167.875C75.8501 167.734 76.005 167.639 76.1781 167.61C76.3511 167.58 76.5288 167.619 76.6735 167.719C76.7468 167.765 76.8097 167.826 76.8581 167.898C76.9065 167.971 76.9394 168.052 76.9547 168.137C76.97 168.223 76.9674 168.31 76.9471 168.395C76.9267 168.479 76.8891 168.558 76.8365 168.628Z" fill="#E0E0E0"/>
<path d="M85.4483 170.752C85.2735 170.722 85.1058 170.661 84.9531 170.571C84.4947 170.379 84.0948 170.07 83.7936 169.674C83.6954 169.538 83.6173 169.388 83.5617 169.229C83.4836 169.054 83.4492 168.863 83.4614 168.671C83.4735 168.551 83.5238 168.437 83.6049 168.347C83.6861 168.257 83.7939 168.195 83.9127 168.17C84.0308 168.148 84.1521 168.151 84.2694 168.176C84.3867 168.202 84.4977 168.251 84.5958 168.32C84.9758 168.598 85.2725 168.974 85.4537 169.409C85.6349 169.843 85.6937 170.318 85.6238 170.784L85.2978 170.677C85.3838 170.508 85.4867 170.349 85.605 170.201C85.9297 169.813 86.3515 169.519 86.8273 169.349C87.3031 169.178 87.8157 169.137 88.3126 169.229C88.4435 169.248 88.5681 169.297 88.6762 169.373C88.7361 169.417 88.7854 169.473 88.8202 169.538C88.855 169.603 88.8743 169.676 88.8767 169.75C88.8758 169.867 88.8509 169.984 88.8035 170.091C88.7561 170.199 88.6872 170.296 88.6009 170.376C88.3291 170.648 87.9857 170.837 87.6106 170.922C87.0825 171.033 86.5358 171.022 86.0124 170.89C85.8186 170.868 85.6288 170.82 85.4483 170.746C85.6413 170.715 85.8381 170.715 86.0312 170.746C86.5339 170.825 87.0473 170.804 87.5417 170.683C87.8653 170.592 88.158 170.415 88.3878 170.169C88.5015 170.058 88.5687 169.908 88.5759 169.75C88.5759 169.612 88.4631 169.555 88.2562 169.518C87.8176 169.445 87.3676 169.489 86.951 169.644C86.5343 169.799 86.1654 170.06 85.8807 170.401C85.7768 170.529 85.6845 170.665 85.605 170.809C85.595 170.829 85.581 170.847 85.5638 170.862C85.5467 170.877 85.5266 170.889 85.505 170.896C85.4833 170.903 85.4605 170.905 85.4378 170.903C85.4152 170.901 85.3931 170.895 85.3731 170.884C85.3402 170.869 85.3131 170.844 85.2961 170.812C85.2791 170.781 85.2731 170.744 85.279 170.708C85.3379 170.305 85.2896 169.894 85.1388 169.515C84.9881 169.137 84.7403 168.805 84.4204 168.552C84.1383 168.339 83.756 168.421 83.7372 168.69C83.7374 168.989 83.8245 169.28 83.9879 169.53C84.254 169.91 84.6063 170.221 85.0158 170.439C85.1736 170.523 85.3191 170.629 85.4483 170.752Z" fill="white"/>
<path d="M87.0218 172.802C86.5214 172.709 86.014 172.658 85.505 172.652C84.9998 172.734 84.5028 172.859 84.0195 173.028C84.4197 172.654 84.9352 172.429 85.481 172.388C86.0268 172.347 86.5703 172.493 87.0218 172.802Z" fill="white"/>
<path d="M88.0439 174.463C88.0439 174.538 87.4171 174.413 86.665 174.507C85.9128 174.601 85.355 174.858 85.3174 174.789C85.6982 174.489 86.154 174.301 86.6349 174.243C87.1158 174.186 87.6033 174.262 88.0439 174.463Z" fill="white"/>
</svg>
