<svg width="300" height="206" viewBox="0 0 300 206" fill="none" xmlns="http://www.w3.org/2000/svg">
<path d="M246.989 24.8242H17.4414V160.613H246.989V24.8242Z" fill="#778594"/>
<path d="M242.34 29.1621H22.0889V156.599H242.34V29.1621Z" fill="#FDFDFB" fill-opacity="0.5"/>
<path d="M246.989 146.815H17.4414V160.613H246.989V146.815Z" fill="#33315D"/>
<path d="M132.216 157.27C134.18 157.27 135.772 155.678 135.772 153.714C135.772 151.75 134.18 150.158 132.216 150.158C130.251 150.158 128.659 151.75 128.659 153.714C128.659 155.678 130.251 157.27 132.216 157.27Z" fill="#FDFDFB"/>
<path d="M180.712 197.039H83.7197V205.012H180.712V197.039Z" fill="#626F8A"/>
<path d="M162.983 191.003H101.447V197.038H162.983V191.003Z" fill="#33315D"/>
<path d="M144.932 191.004H119.498L123.378 160.613H141.052L144.932 191.004Z" fill="#626F8A"/>
<path d="M141.809 166.54L141.052 160.613H123.378L122.621 166.54H141.809Z" fill="#545E75"/>
<path d="M181.034 80.4326H96.9746V137.194H181.034V80.4326Z" fill="#DDDEE6"/>
<path d="M181.034 80.4326H96.9746V88.6226H181.034V80.4326Z" fill="#676C8C"/>
<path d="M102.686 86.1442C103.579 86.1442 104.302 85.4204 104.302 84.5277C104.302 83.6349 103.579 82.9111 102.686 82.9111C101.793 82.9111 101.069 83.6349 101.069 84.5277C101.069 85.4204 101.793 86.1442 102.686 86.1442Z" fill="#E7645D"/>
<path d="M108.118 86.1442C109.011 86.1442 109.735 85.4204 109.735 84.5277C109.735 83.6349 109.011 82.9111 108.118 82.9111C107.226 82.9111 106.502 83.6349 106.502 84.5277C106.502 85.4204 107.226 86.1442 108.118 86.1442Z" fill="#FFE14C"/>
<path d="M113.55 86.1442C114.443 86.1442 115.167 85.4204 115.167 84.5277C115.167 83.6349 114.443 82.9111 113.55 82.9111C112.657 82.9111 111.934 83.6349 111.934 84.5277C111.934 85.4204 112.657 86.1442 113.55 86.1442Z" fill="#4FE1A3"/>
<path d="M119.445 95.0894H102.687V111.848H119.445V95.0894Z" fill="#FDFDFB"/>
<path d="M113.637 103.173L113.332 102.98C114.165 102.217 114.624 101.053 114.357 99.7835C114.089 98.5084 113.06 97.4758 111.784 97.2113C109.61 96.7612 107.697 98.4095 107.697 100.504C107.697 101.487 108.126 102.364 108.798 102.98L108.493 103.173C106.209 104.623 104.824 107.141 104.824 109.847V111.847H117.305V109.847C117.306 107.141 115.921 104.623 113.637 103.173Z" fill="#C1C2CB"/>
<path d="M172.52 95.0894H126.072V111.848H172.52V95.0894Z" fill="#FDFDFB"/>
<path d="M172.52 95.0894H171.567L149.297 103.124L127.027 95.0894H126.072V95.4334L148.343 103.468L126.072 111.503V111.848H127.025L149.297 103.812L171.567 111.848H172.52V111.503L150.25 103.468L172.52 95.4334V95.0894Z" fill="#DDDEE6"/>
<path d="M120.792 119.553H102.687V130.33H120.792V119.553Z" fill="white"/>
<path d="M145.47 119.553H127.365V130.33H145.47V119.553Z" fill="#C1C2CB"/>
<path d="M170.15 119.553H152.045V130.33H170.15V119.553Z" fill="white"/>
<path d="M229.315 47.27H161.636V96.4727H229.315V47.27Z" fill="#EEE8E6"/>
<path d="M226.252 62.1934H214.057V63.3249H226.252V62.1934Z" fill="#C1C2CB"/>
<path d="M226.252 65.6416H214.057V66.7732H226.252V65.6416Z" fill="#C1C2CB"/>
<path d="M226.252 69.0908H214.057V70.2224H226.252V69.0908Z" fill="#C1C2CB"/>
<path d="M226.252 72.5391H214.057V73.6706H226.252V72.5391Z" fill="#C1C2CB"/>
<path d="M226.252 79.6519H214.057V80.7834H226.252V79.6519Z" fill="#C1C2CB"/>
<path d="M226.252 83.1001H214.057V84.2317H226.252V83.1001Z" fill="#C1C2CB"/>
<path d="M226.252 86.5493H214.057V87.6809H226.252V86.5493Z" fill="#C1C2CB"/>
<path d="M226.252 89.9976H214.057V91.1291H226.252V89.9976Z" fill="#C1C2CB"/>
<path d="M176.894 62.1934H164.698V63.3249H176.894V62.1934Z" fill="#C1C2CB"/>
<path d="M176.894 65.6416H164.698V66.7732H176.894V65.6416Z" fill="#C1C2CB"/>
<path d="M176.894 69.0908H164.698V70.2224H176.894V69.0908Z" fill="#C1C2CB"/>
<path d="M176.894 72.5391H164.698V73.6706H176.894V72.5391Z" fill="#C1C2CB"/>
<path d="M176.894 79.6519H164.698V80.7834H176.894V79.6519Z" fill="#C1C2CB"/>
<path d="M176.894 83.1001H164.698V84.2317H176.894V83.1001Z" fill="#C1C2CB"/>
<path d="M176.894 86.5493H164.698V87.6809H176.894V86.5493Z" fill="#C1C2CB"/>
<path d="M176.894 89.9976H164.698V91.1291H176.894V89.9976Z" fill="#C1C2CB"/>
<path d="M229.315 47.27H161.636V55.46H229.315V47.27Z" fill="#676C8C"/>
<path d="M166.334 52.9816C167.227 52.9816 167.951 52.2579 167.951 51.3651C167.951 50.4723 167.227 49.7485 166.334 49.7485C165.442 49.7485 164.718 50.4723 164.718 51.3651C164.718 52.2579 165.442 52.9816 166.334 52.9816Z" fill="#E7645D"/>
<path d="M171.767 52.9816C172.66 52.9816 173.383 52.2579 173.383 51.3651C173.383 50.4723 172.66 49.7485 171.767 49.7485C170.874 49.7485 170.15 50.4723 170.15 51.3651C170.15 52.2579 170.874 52.9816 171.767 52.9816Z" fill="#FFE14C"/>
<path d="M177.199 52.9816C178.091 52.9816 178.815 52.2579 178.815 51.3651C178.815 50.4723 178.091 49.7485 177.199 49.7485C176.306 49.7485 175.582 50.4723 175.582 51.3651C175.582 52.2579 176.306 52.9816 177.199 52.9816Z" fill="#4FE1A3"/>
<path d="M204.169 87.6459C210.537 82.8447 211.807 73.79 207.006 67.4216C202.205 61.0532 193.15 59.7828 186.782 64.584C180.414 69.3852 179.143 78.4399 183.944 84.8083C188.746 91.1767 197.8 92.4471 204.169 87.6459Z" fill="#E7645D"/>
<path d="M190.563 84.2813V67.9634L204.596 76.1223L190.563 84.2813Z" fill="#FDFDFB"/>
<path d="M87.3342 100.047H62.4312C60.5586 100.047 59.041 101.566 59.041 103.438V119.935C59.041 121.808 60.5593 123.325 62.4312 123.325H76.559C77.3744 123.325 78.1445 123.698 78.6508 124.337L82.6424 129.378C82.9262 129.737 83.5017 129.58 83.5651 129.127L84.1955 124.615C84.299 123.876 84.9314 123.325 85.6782 123.325H87.3348C89.2074 123.325 90.725 121.807 90.725 119.935V103.438C90.7244 101.565 89.2068 100.047 87.3342 100.047Z" fill="#E7645D"/>
<path d="M80.2547 105.722C76.5192 104.749 74.882 108.331 74.882 108.331C74.882 108.331 73.2447 104.75 69.5093 105.722C65.7738 106.694 63.7783 115.185 74.882 119.553C85.9856 115.185 83.9901 106.693 80.2547 105.722Z" fill="#FDFDFB"/>
<path d="M147.381 66.8542H95.4407C94.3828 66.8542 93.5254 65.9968 93.5254 64.9389V41.3957C93.5254 40.3379 94.3828 39.4805 95.4407 39.4805H147.381C148.439 39.4805 149.296 40.3379 149.296 41.3957V64.9389C149.296 65.9968 148.439 66.8542 147.381 66.8542Z" fill="#A1B3D4"/>
<path d="M111.587 70.5688C109.999 70.5688 108.518 70.3139 107.146 69.804C105.793 69.2746 104.616 68.5294 103.616 67.5685C102.616 66.6077 101.831 65.4801 101.263 64.1859C100.714 62.8917 100.439 61.47 100.439 59.9208C100.439 58.3717 100.714 56.95 101.263 55.6558C101.831 54.3616 102.616 53.234 103.616 52.2732C104.636 51.3123 105.822 50.5769 107.175 50.0671C108.528 49.5376 110.009 49.2729 111.617 49.2729C113.401 49.2729 115.009 49.5867 116.44 50.2142C117.892 50.8221 119.107 51.7241 120.088 52.9203L117.029 55.744C116.323 54.94 115.538 54.342 114.676 53.9498C113.813 53.538 112.872 53.3321 111.852 53.3321C110.891 53.3321 110.009 53.4889 109.205 53.8027C108.401 54.1164 107.704 54.5675 107.116 55.1557C106.528 55.744 106.067 56.4402 105.734 57.2442C105.42 58.0481 105.263 58.9404 105.263 59.9208C105.263 60.9013 105.42 61.7936 105.734 62.5975C106.067 63.4015 106.528 64.0977 107.116 64.686C107.704 65.2742 108.401 65.7253 109.205 66.039C110.009 66.3528 110.891 66.5096 111.852 66.5096C112.872 66.5096 113.813 66.3135 114.676 65.9213C115.538 65.5095 116.323 64.8918 117.029 64.0683L120.088 66.892C119.107 68.0882 117.892 69 116.44 69.6275C115.009 70.255 113.391 70.5688 111.587 70.5688ZM123.306 70.2158V49.6259H127.247L136.013 64.1565H133.924L142.543 49.6259H146.455L146.514 70.2158H142.043L142.013 56.4794H142.837L135.954 68.0392H133.807L126.777 56.4794H127.777V70.2158H123.306ZM108.499 106.569C106.851 106.569 105.273 106.353 103.763 105.922C102.253 105.471 101.037 104.892 100.116 104.186L101.733 100.598C102.616 101.225 103.655 101.745 104.851 102.157C106.067 102.549 107.293 102.745 108.528 102.745C109.469 102.745 110.224 102.657 110.793 102.48C111.381 102.284 111.813 102.019 112.087 101.686C112.362 101.353 112.499 100.97 112.499 100.539C112.499 99.9898 112.283 99.5584 111.852 99.2447C111.42 98.9113 110.852 98.6466 110.146 98.4505C109.44 98.2348 108.656 98.0387 107.793 97.8622C106.949 97.6661 106.096 97.4308 105.234 97.1562C104.39 96.8817 103.616 96.5287 102.91 96.0973C102.204 95.6659 101.626 95.0973 101.175 94.3913C100.743 93.6854 100.527 92.7833 100.527 91.6852C100.527 90.5086 100.841 89.4399 101.469 88.4791C102.116 87.4986 103.077 86.724 104.351 86.1553C105.645 85.5671 107.263 85.2729 109.205 85.2729C110.499 85.2729 111.773 85.4298 113.028 85.7435C114.283 86.0377 115.391 86.4887 116.352 87.0966L114.882 90.7145C113.921 90.1655 112.96 89.7635 111.999 89.5086C111.038 89.234 110.097 89.0968 109.175 89.0968C108.254 89.0968 107.499 89.2046 106.91 89.4203C106.322 89.636 105.9 89.9204 105.645 90.2733C105.391 90.6067 105.263 90.9989 105.263 91.4499C105.263 91.9793 105.479 92.4108 105.91 92.7441C106.342 93.0579 106.91 93.3128 107.616 93.5089C108.322 93.705 109.097 93.9011 109.94 94.0972C110.803 94.2933 111.656 94.5188 112.499 94.7737C113.362 95.0286 114.146 95.3718 114.852 95.8032C115.558 96.2346 116.127 96.8033 116.558 97.5092C117.009 98.2152 117.235 99.1074 117.235 100.186C117.235 101.343 116.911 102.402 116.264 103.363C115.617 104.324 114.646 105.098 113.352 105.686C112.077 106.275 110.46 106.569 108.499 106.569Z" fill="#FDFDFB"/>
<path d="M237.209 128.316V124.801L233.066 124.441C232.936 123.68 232.737 122.945 232.476 122.238L235.883 119.854L234.126 116.81L230.367 118.565C229.878 117.978 229.337 117.437 228.75 116.948L230.505 113.189L227.461 111.432L225.078 114.84C224.37 114.578 223.636 114.38 222.875 114.249L222.515 110.106H219L218.64 114.249C217.88 114.379 217.144 114.578 216.438 114.84L214.054 111.432L211.01 113.189L212.766 116.948C212.179 117.437 211.637 117.978 211.148 118.565L207.39 116.81L205.632 119.854L209.04 122.238C208.779 122.945 208.58 123.679 208.449 124.44L204.307 124.8V128.315L208.449 128.675C208.579 129.436 208.779 130.171 209.039 130.878L205.632 133.261L207.389 136.305L211.148 134.55C211.637 135.137 212.178 135.678 212.765 136.167L211.009 139.926L214.054 141.683L216.437 138.275C217.144 138.536 217.879 138.735 218.64 138.865L219 143.008H222.515L222.875 138.865C223.636 138.735 224.371 138.536 225.078 138.275L227.461 141.683L230.505 139.926L228.75 136.167C229.337 135.678 229.878 135.137 230.367 134.55L234.126 136.305L235.883 133.261L232.476 130.878C232.737 130.17 232.935 129.436 233.066 128.675L237.209 128.316ZM220.758 133.455C216.949 133.455 213.86 130.367 213.86 126.558C213.86 122.748 216.949 119.66 220.758 119.66C224.567 119.66 227.655 122.748 227.655 126.558C227.655 130.367 224.566 133.455 220.758 133.455Z" fill="#C1C2CB"/>
<path d="M207.621 109.795V107.832H204.716C204.628 107.162 204.459 106.519 204.209 105.916L206.72 104.466L205.738 102.767L203.221 104.22C202.817 103.693 202.347 103.223 201.821 102.82L203.274 100.302L201.574 99.3208L200.125 101.832C199.522 101.581 198.878 101.412 198.208 101.325V98.4194H196.246V101.325C195.576 101.412 194.932 101.581 194.329 101.832L192.879 99.3208L191.18 100.302L192.633 102.82C192.107 103.224 191.637 103.694 191.233 104.22L188.716 102.767L187.734 104.466L190.245 105.916C189.995 106.518 189.826 107.162 189.738 107.832H186.833V109.795H189.738C189.826 110.465 189.995 111.109 190.245 111.711L187.734 113.161L188.716 114.86L191.233 113.407C191.637 113.933 192.107 114.403 192.633 114.807L191.18 117.324L192.879 118.306L194.329 115.795C194.932 116.045 195.576 116.215 196.246 116.302V119.207H198.208V116.302C198.878 116.215 199.521 116.046 200.125 115.795L201.574 118.306L203.274 117.324L201.821 114.807C202.347 114.403 202.817 113.933 203.221 113.407L205.738 114.86L206.72 113.161L204.209 111.711C204.459 111.109 204.628 110.465 204.716 109.795H207.621ZM197.227 113.247C194.779 113.247 192.793 111.262 192.793 108.813C192.793 106.364 194.779 104.379 197.227 104.379C199.676 104.379 201.661 106.364 201.661 108.813C201.661 111.262 199.676 113.247 197.227 113.247Z" fill="#676C8C"/>
<path d="M220.759 135.762C225.842 135.762 229.962 131.641 229.962 126.558C229.962 121.475 225.842 117.354 220.759 117.354C215.676 117.354 211.555 121.475 211.555 126.558C211.554 131.641 215.675 135.762 220.759 135.762ZM220.759 119.66C224.568 119.66 227.656 122.749 227.656 126.558C227.656 130.367 224.568 133.455 220.759 133.455C216.949 133.455 213.861 130.367 213.861 126.558C213.861 122.749 216.949 119.66 220.759 119.66Z" fill="#ACACB5"/>
<path d="M73.0906 46.3234H56.6433C55.7103 46.3479 54.8335 46.7715 54.2341 47.4873L51.3735 51.0456C50.7812 51.7536 49.627 51.3346 49.627 50.4113V34.5104C49.627 33.0012 50.8503 31.7778 52.3595 31.7778H73.0899C74.5991 31.7778 75.8225 33.0012 75.8225 34.5104V43.5901C75.8232 45.1 74.5998 46.3234 73.0906 46.3234Z" fill="#FFE14C"/>
<path d="M56.2028 39.7196C56.2028 40.4936 55.5756 41.1208 54.8016 41.1208C54.0276 41.1208 53.4004 40.4936 53.4004 39.7196C53.4004 38.9456 54.0276 38.3184 54.8016 38.3184C55.5756 38.3184 56.2028 38.9456 56.2028 39.7196Z" fill="#FDFDFB"/>
<path d="M61.7419 39.7196C61.7419 40.4936 61.1147 41.1208 60.3407 41.1208C59.5667 41.1208 58.9395 40.4936 58.9395 39.7196C58.9395 38.9456 59.5667 38.3184 60.3407 38.3184C61.114 38.3184 61.7419 38.9456 61.7419 39.7196Z" fill="#FDFDFB"/>
<path d="M67.2809 39.7196C67.2809 40.4936 66.6537 41.1208 65.8797 41.1208C65.1057 41.1208 64.4785 40.4936 64.4785 39.7196C64.4785 38.9456 65.1057 38.3184 65.8797 38.3184C66.6531 38.3184 67.2809 38.9456 67.2809 39.7196Z" fill="#FDFDFB"/>
<path d="M72.82 39.7196C72.82 40.4936 72.1928 41.1208 71.4188 41.1208C70.6448 41.1208 70.0176 40.4936 70.0176 39.7196C70.0176 38.9456 70.6448 38.3184 71.4188 38.3184C72.1928 38.3184 72.82 38.9456 72.82 39.7196Z" fill="#FDFDFB"/>
<path d="M65.4582 57.7374L82.1537 57.7381C83.0868 57.7627 83.9636 58.1862 84.5623 58.902L87.1746 62.4597C87.7669 63.1677 88.9211 62.7487 88.9211 61.8253V45.9245C88.9211 44.4153 87.6978 43.1919 86.1886 43.1919H65.4582C63.949 43.1919 62.7256 44.4153 62.7256 45.9245V55.0049C62.7256 56.5141 63.949 57.7374 65.4582 57.7374Z" fill="#676C8C"/>
<path d="M68.6823 51.0643C68.6823 51.8383 68.0551 52.4655 67.2811 52.4655C66.5071 52.4655 65.8799 51.8383 65.8799 51.0643C65.8799 50.2903 66.5071 49.6631 67.2811 49.6631C68.0551 49.6631 68.6823 50.2903 68.6823 51.0643Z" fill="#FDFDFB"/>
<path d="M74.2214 51.0643C74.2214 51.8383 73.5942 52.4655 72.8202 52.4655C72.0462 52.4655 71.4189 51.8383 71.4189 51.0643C71.4189 50.2903 72.0462 49.6631 72.8202 49.6631C73.5942 49.6631 74.2214 50.2903 74.2214 51.0643Z" fill="#FDFDFB"/>
<path d="M79.7604 51.0643C79.7604 51.8383 79.1332 52.4655 78.3592 52.4655C77.5852 52.4655 76.958 51.8383 76.958 51.0643C76.958 50.2903 77.5852 49.6631 78.3592 49.6631C79.1332 49.6631 79.7604 50.2903 79.7604 51.0643Z" fill="#FDFDFB"/>
<path d="M85.2995 51.0643C85.2995 51.8383 84.6723 52.4655 83.8983 52.4655C83.1243 52.4655 82.4971 51.8383 82.4971 51.0643C82.4971 50.2903 83.1243 49.6631 83.8983 49.6631C84.6716 49.6631 85.2995 50.2903 85.2995 51.0643Z" fill="#FDFDFB"/>
<path d="M45.9637 11.3213H7.72754V33.7005H45.9637V11.3213Z" fill="#DDDEE6"/>
<path d="M7.72754 33.7006L26.8453 16.2188L45.963 33.7006H7.72754Z" fill="#EBECF5"/>
<path d="M7.72754 11.3213L26.8453 22.5109L45.963 11.3213H7.72754Z" fill="#CFD2E6"/>
<path d="M14.3796 12.4015C14.9756 8.7287 12.4815 5.26811 8.8087 4.67205C5.13593 4.07598 1.67534 6.57014 1.07928 10.2429C0.483208 13.9157 2.97738 17.3763 6.65015 17.9723C10.3229 18.5684 13.7835 16.0742 14.3796 12.4015Z" fill="#E7645D"/>
<path d="M7.7289 16.6049L7.3551 9.31576H9.6602L9.27082 16.6049H7.7289ZM8.50765 20.3273C8.14423 20.3273 7.84312 20.2079 7.6043 19.9691C7.36548 19.7302 7.24607 19.4447 7.24607 19.1124C7.24607 18.7802 7.36548 18.4998 7.6043 18.2714C7.84312 18.0326 8.14423 17.9132 8.50765 17.9132C8.87107 17.9132 9.16699 18.0326 9.39542 18.2714C9.62386 18.4998 9.73807 18.7802 9.73807 19.1124C9.73807 19.4447 9.62386 19.7302 9.39542 19.9691C9.16699 20.2079 8.87107 20.3273 8.50765 20.3273Z" fill="white"/>
<path d="M241.751 15.9746C241.751 9.34491 236.009 4.05562 229.227 4.80892C223.969 5.39216 219.768 9.71671 219.318 14.9872C218.996 18.7486 220.531 22.1582 223.106 24.4129C225.44 26.4582 226.785 29.4054 226.785 32.5085V33.547H234.241V32.5117C234.241 29.4668 235.47 26.4963 237.791 24.5248C240.212 22.4673 241.751 19.403 241.751 15.9746Z" fill="#F6D361"/>
<path d="M232.233 38.4998H228.512L227.896 33.5474H232.849L232.233 38.4998Z" fill="#676C8C"/>
<path d="M226.638 30.8301C226.726 31.3829 226.785 31.9416 226.785 32.5093V33.5478H234.241V32.5126C234.241 31.9461 234.298 31.3855 234.382 30.8307L226.638 30.8301Z" fill="#F69B61"/>
<path d="M236.011 18.2607C235.068 18.2607 234.678 17.0665 234.301 15.9116C234.029 15.0807 233.691 14.0461 233.257 14.0461C232.825 14.0461 232.487 15.0801 232.216 15.911C231.839 17.0658 231.45 18.2601 230.507 18.2601C229.565 18.2601 229.176 17.0658 228.799 15.911C228.528 15.0801 228.191 14.0461 227.758 14.0461C227.327 14.0461 226.989 15.0801 226.718 15.911C226.341 17.0658 225.952 18.2601 225.01 18.2601C224.068 18.2601 223.678 17.0658 223.301 15.911C223.03 15.0801 222.693 14.0461 222.26 14.0461C222.066 14.0461 221.909 13.889 221.909 13.695C221.909 13.501 222.066 13.3439 222.26 13.3439C223.203 13.3439 223.592 14.5382 223.969 15.6931C224.24 16.524 224.577 17.5579 225.01 17.5579C225.442 17.5579 225.779 16.524 226.05 15.6931C226.427 14.5382 226.816 13.3439 227.758 13.3439C228.701 13.3439 229.09 14.5382 229.467 15.6931C229.738 16.524 230.075 17.5579 230.507 17.5579C230.94 17.5579 231.277 16.524 231.548 15.6931C231.925 14.5382 232.314 13.3439 233.257 13.3439C234.2 13.3439 234.591 14.5382 234.968 15.6931C235.239 16.524 235.577 17.5579 236.011 17.5579C236.444 17.5579 236.783 16.5233 237.054 15.6924C237.431 14.5376 237.822 13.3433 238.765 13.3433C238.959 13.3433 239.116 13.5004 239.116 13.6944C239.116 13.8884 238.959 14.0455 238.765 14.0455C238.331 14.0455 237.994 15.0794 237.722 15.9103C237.344 17.0658 236.955 18.2607 236.011 18.2607Z" fill="white"/>
<path d="M230.373 3.04361C230.179 3.04361 230.021 2.88648 230.021 2.6925V0.35111C230.021 0.157126 230.179 0 230.373 0C230.567 0 230.724 0.157126 230.724 0.35111V2.6925C230.724 2.88648 230.567 3.04361 230.373 3.04361Z" fill="#F69B61"/>
<path d="M223.783 3.86283C223.647 3.86283 223.518 3.78395 223.46 3.65139L222.699 1.89583C222.622 1.71802 222.703 1.51111 222.882 1.43416C223.06 1.35721 223.267 1.43933 223.344 1.61714L224.105 3.3727C224.182 3.55052 224.099 3.75743 223.922 3.83438C223.877 3.85378 223.829 3.86283 223.783 3.86283Z" fill="#F69B61"/>
<path d="M219.454 8.14074C219.399 8.14074 219.344 8.1278 219.293 8.10129L217.418 7.13073C217.246 7.0415 217.179 6.82941 217.268 6.65741C217.357 6.48606 217.568 6.41751 217.741 6.50739L219.616 7.47796C219.788 7.56719 219.855 7.77928 219.766 7.95128C219.703 8.07155 219.581 8.14074 219.454 8.14074Z" fill="#F69B61"/>
<path d="M217.52 14.8663H215.764C215.57 14.8663 215.413 14.7092 215.413 14.5152C215.413 14.3212 215.57 14.1641 215.764 14.1641H217.52C217.714 14.1641 217.871 14.3212 217.871 14.5152C217.871 14.7092 217.714 14.8663 217.52 14.8663Z" fill="#F69B61"/>
<path d="M237.103 3.86274C237.056 3.86274 237.009 3.85368 236.964 3.83429C236.786 3.75734 236.704 3.55043 236.781 3.37261L237.542 1.61705C237.619 1.43988 237.826 1.35712 238.004 1.43407C238.182 1.51101 238.263 1.71792 238.187 1.89574L237.426 3.6513C237.368 3.78321 237.238 3.86274 237.103 3.86274Z" fill="#F69B61"/>
<path d="M241.432 8.14065C241.304 8.14065 241.182 8.07147 241.12 7.9512C241.03 7.7792 241.098 7.56711 241.27 7.47788L243.145 6.50731C243.317 6.41678 243.529 6.48533 243.618 6.65733C243.707 6.82933 243.64 7.04142 243.468 7.13065L241.593 8.10121C241.541 8.12837 241.486 8.14065 241.432 8.14065Z" fill="#F69B61"/>
<path d="M245.122 14.8663H243.366C243.172 14.8663 243.015 14.7092 243.015 14.5152C243.015 14.3212 243.172 14.1641 243.366 14.1641H245.122C245.316 14.1641 245.473 14.3212 245.473 14.5152C245.473 14.7092 245.316 14.8663 245.122 14.8663Z" fill="#F69B61"/>
<path d="M34.7381 191.327H29.4844V200.662H34.7381V191.327Z" fill="#E78C7A"/>
<path d="M57.7164 198.821L52.5202 199.596L51.1436 190.554L56.3404 189.779L57.7164 198.821Z" fill="#E78C7A"/>
<path d="M40.2389 59.9169C41.4655 59.6757 42.429 58.6592 42.9185 57.5095C43.408 56.3599 43.4959 55.0828 43.5295 53.8335C43.558 52.7944 43.5315 51.6816 42.9398 50.8274C42.0798 49.5853 40.3773 49.3376 38.8726 49.2006C38.9347 48.4149 38.1872 47.6073 37.6117 47.0687C37.0369 46.53 36.2797 46.2158 35.5076 46.06C33.3286 45.6209 30.9387 46.4673 29.5213 48.1796C28.1686 47.187 26.274 47.2879 24.8579 48.188C24.5424 48.3891 24.2456 48.627 24.016 48.9225C23.2763 49.8743 23.3533 51.2044 23.4651 52.4045C22.4881 52.9638 21.4981 53.6415 20.8438 54.5571C20.2256 55.4223 19.9217 56.4801 19.8118 57.5373C19.7018 58.5945 19.7743 59.6621 19.8473 60.7225C18.6731 61.4319 17.4975 62.1949 16.6557 63.278C15.9373 64.2033 15.5189 65.3581 15.4795 66.5285C15.4685 66.8595 15.4866 67.1932 15.57 67.5139C15.7937 68.3778 16.4882 69.0794 17.3133 69.4195C18.1383 69.7596 19.0766 69.7635 19.9424 69.5462C19.89 69.9769 20.2004 70.412 20.5567 70.6597C20.913 70.9073 21.3488 71.0089 21.7775 71.078C22.1629 71.1401 22.5586 71.1796 22.9433 71.1097C23.6759 70.9772 24.2928 70.4554 24.7008 69.8333C25.1095 69.2113 25.3377 68.4903 25.5492 67.7764C25.8337 68.1857 26.3141 68.3448 26.8126 68.3519C27.9979 68.3681 29.1107 67.7338 29.9668 66.9145C30.8229 66.0953 31.476 65.0911 32.2009 64.1535C33.9545 61.8839 37.3751 59.7746 40.2389 59.9169Z" fill="#1F355C"/>
<path d="M55.7532 160.613C54.2984 138.412 48.0663 114.51 48.6405 109.961L25.2816 111.497C25.2816 111.497 25.3624 121.924 25.2816 131.38C25.2008 140.837 26.2787 165.355 27.356 176.131C28.4339 186.908 28.6343 191.111 28.203 193.159C28.203 193.159 31.5053 194.344 36.0852 193.159C36.0852 193.159 35.7083 187.933 36.0852 184.591C36.4622 181.25 39.103 146.495 40.2345 135.179C40.2345 135.179 42.6593 143.492 43.4676 152.591C44.2759 161.69 47.3473 183.352 50.0954 192.405C50.0954 192.405 54.945 192.405 57.2081 191.758C57.2081 191.758 56.4548 171.314 55.7532 160.613Z" fill="#F6B861"/>
<path d="M48.6401 109.961L25.2812 111.497C25.2812 111.497 25.3019 114.14 25.3116 117.97C25.7947 117.472 26.3301 117.021 26.9017 116.629C28.2686 115.692 29.8205 115.055 31.4034 114.567C35.8825 113.187 40.6292 112.967 45.3159 112.886C46.3434 112.869 47.4096 112.878 48.3899 113.224C48.5321 113.274 48.6776 113.344 48.8238 113.422C48.6265 111.851 48.5502 110.671 48.6401 109.961Z" fill="#F6A35A"/>
<path d="M73.8721 74.9467C73.8721 74.9467 76.0111 73.3709 76.2594 72.4598C76.5077 71.5488 76.3007 70.2232 76.6318 69.4777C76.9629 68.7321 78.1643 67.1169 78.4953 67.2824C78.8264 67.4479 79.034 67.9452 78.8264 68.5252C78.6195 69.1052 78.0395 69.9749 78.5367 69.9335C79.034 69.8921 81.4154 66.5291 82.2858 65.7422C83.1555 64.9552 83.901 65.2035 83.6941 66.0318C83.6941 66.0318 84.5224 64.7891 85.1438 64.7891C85.7652 64.7891 85.9307 65.576 85.6824 66.0318C85.4341 66.4871 85.1736 66.8492 85.1736 66.8492C85.1736 66.8492 86.1836 66.5698 86.1836 67.6076C86.1836 67.9807 83.385 71.8792 83.385 71.8792C83.385 71.8792 83.5072 72.0033 84.0459 71.5481C84.5845 71.0922 85.3714 70.6784 85.6611 70.8026C85.9508 70.9267 85.7853 71.3826 85.33 72.0033C84.8742 72.6247 83.3417 74.0744 82.6382 74.4469C81.934 74.82 80.1119 75.0269 79.6146 75.2752C79.1174 75.5235 75.7214 79.0443 75.68 78.9195C75.6386 78.7966 73.8721 74.9467 73.8721 74.9467Z" fill="#E78C7A"/>
<path d="M73.6151 73.751C73.6151 73.751 61.1678 85.3901 58.9855 85.2284C56.8032 85.0667 50.822 72.7811 49.1247 71.8713C47.4273 70.9615 36.7582 69.7905 36.5157 69.7905L30.4809 70.3026C20.0814 73.4277 17.9256 76.4455 17.9256 76.4455C14.9079 87.3842 16.9557 100.909 18.1953 101.717C19.3346 102.46 23.4761 101.394 23.4761 101.394C23.4761 101.394 24.4997 107.105 24.2307 107.698C23.9611 108.291 23.6378 111.093 24.8774 112.063C26.1169 113.033 35.7618 113.41 40.5577 112.063C45.3536 110.716 49.0445 111.174 49.0445 111.174C49.8528 110.527 49.6103 108.426 49.6103 107.294C49.6103 106.162 47.428 100.262 47.9938 96.6249C48.5595 92.9878 48.9637 87.0874 48.9637 87.0874C48.9637 87.0874 54.3791 95.4125 57.6929 94.9276C61.0068 94.4426 77.2523 78.9239 77.2523 78.9239L73.6151 73.751Z" fill="#636593"/>
<path d="M38.348 71.5415C38.8065 74.201 35.9232 79.1929 34.6836 79.3008C33.4441 79.4088 31.1809 78.2229 29.5062 74.8825C27.8315 71.5415 29.2948 71.1108 29.8341 70.6796C30.3727 70.2483 29.5062 64.4346 29.5062 64.4346L37.1628 64.6984C37.1628 64.6984 37.0011 69.925 37.1628 70.0329C37.3244 70.1409 38.079 69.9793 38.348 71.5415Z" fill="#D4857A"/>
<path d="M27.6787 59.7412C27.6787 59.7412 29.2952 67.7721 34.4145 67.7701C38.8897 67.7682 41.0422 62.5436 40.6155 55.5382C37.6184 55.9294 34.4559 54.867 32.3485 52.7002C32.2658 52.9789 32.1552 53.2214 31.9476 53.4244C31.2066 54.1486 30.0621 54.2204 29.0263 54.2139C29.0263 54.2139 28.9584 59.5265 28.635 60.0515C28.3117 60.5766 27.6787 59.7412 27.6787 59.7412Z" fill="#E78C7A"/>
<path d="M40.0273 137.327C40.1011 136.543 40.1702 135.821 40.2343 135.179C40.2343 135.179 40.2718 135.308 40.339 135.55C40.6378 132.477 41.446 125.758 43.1977 120.342L42.9824 120.273C40.6345 127.53 40.0345 137.231 40.0273 137.327Z" fill="#333849"/>
<path d="M30.5938 191.332L30.3675 191.321C30.6475 185.452 29.558 173.051 28.6831 163.087C28.202 157.615 27.7875 152.889 27.6737 150.164C27.3537 142.49 27.6181 130.448 27.6207 130.327L27.847 130.332C27.8445 130.453 27.5806 142.488 27.9001 150.155C28.0132 152.875 28.4283 157.598 28.9088 163.068C29.7843 173.038 30.8745 185.448 30.5938 191.332Z" fill="#333849"/>
<path d="M29.5358 124.53L29.4336 124.328C34.2599 121.875 35.1852 117.738 35.1936 117.697L35.4154 117.743C35.4057 117.787 34.4578 122.029 29.5358 124.53Z" fill="#333849"/>
<path d="M51.4967 188.775C48.5094 179.495 46.0018 158.388 45.7794 150.486C45.5666 142.935 43.4334 134.537 43.4121 134.453L43.6313 134.396C43.6533 134.481 45.7923 142.903 46.0057 150.48C46.2281 158.37 48.7311 179.443 51.712 188.705L51.4967 188.775Z" fill="#333849"/>
<path d="M28.1478 205.012H48.756C48.756 205.012 50.2109 203.099 49.1601 201.672C48.1094 200.245 38.6527 200.972 36.4703 199.194C36.4703 199.194 36.1199 196.203 35.3659 195.853C34.6113 195.502 34.8273 196.661 32.8875 196.661C30.9476 196.661 29.8432 195.476 29.2231 195.61C28.6037 195.745 28.927 197.873 28.819 198.79C28.711 199.706 28.1782 200.783 28.1484 201.376C28.1181 201.969 28.1478 205.012 28.1478 205.012Z" fill="#995C6A"/>
<path d="M48.7561 205.012C48.7561 205.012 50.2109 203.099 49.1602 201.671C48.714 201.066 46.7516 200.848 44.4755 200.662C43.1506 201.744 41.4519 202.872 41.1338 205.011L48.7561 205.012Z" fill="#7C536A"/>
<path d="M28.1387 203.774C28.1426 204.456 28.1477 205.012 28.1477 205.012H48.7559C48.7559 205.012 49.1568 204.483 49.3857 203.774H28.1387Z" fill="#C4A294"/>
<path d="M33.7496 200.306C33.7496 201.229 33.0014 201.976 32.0794 201.976C31.1567 201.976 30.4092 201.228 30.4092 200.306C30.4092 199.384 31.1573 198.636 32.0794 198.636C33.0014 198.636 33.7496 199.383 33.7496 200.306Z" fill="#C4BAAF"/>
<path d="M51.2734 205.012L71.8033 203.222C71.8033 203.222 73.0862 201.189 71.9158 199.859C70.7448 198.528 61.387 200.075 59.0586 198.493C59.0586 198.493 58.4501 195.544 57.6677 195.26C56.886 194.977 57.2015 196.113 55.2688 196.281C53.3361 196.45 52.1327 195.365 51.5275 195.553C50.9223 195.741 51.4292 197.833 51.4014 198.755C51.3736 199.677 50.9358 200.797 50.9578 201.39C50.9792 201.983 51.2734 205.012 51.2734 205.012Z" fill="#995C6A"/>
<path d="M71.8031 203.222C71.8031 203.222 73.086 201.189 71.9156 199.859C71.4184 199.294 69.4449 199.248 67.1611 199.261C65.9351 200.453 64.3412 201.725 64.21 203.884L71.8031 203.222Z" fill="#7C536A"/>
<path d="M51.1562 203.779C51.2196 204.458 51.2733 205.012 51.2733 205.012L71.8032 203.221C71.8032 203.221 72.155 202.669 72.3212 201.942L51.1562 203.779Z" fill="#C4A294"/>
<path d="M56.4449 199.837C56.5251 200.756 55.8448 201.566 54.926 201.647C54.0071 201.727 53.197 201.046 53.1168 200.128C53.0366 199.209 53.7168 198.399 54.6357 198.318C55.5551 198.238 56.3647 198.918 56.4449 199.837Z" fill="#C4BAAF"/>
<path d="M40.6485 82.9608L23.2656 88.1216L26.4922 98.9893L43.875 93.8285L40.6485 82.9608Z" fill="#F69B61"/>
<path d="M39.8789 82.7675L23.5293 87.6216L27.4468 100.817L43.7964 95.9627L39.8789 82.7675Z" fill="#FDFDFB"/>
<path d="M41.3314 85.26L24.8281 90.1597L27.9481 100.668L44.4514 95.7688L41.3314 85.26Z" fill="#F6B861"/>
<path d="M29.1758 93.1132C29.1758 93.1132 33.9303 91.4521 34.361 90.455C34.7923 89.4579 36.5161 87.9766 36.8394 88.0302C37.1627 88.0839 37.2436 88.7577 37.1356 89.0273C37.0276 89.2969 36.3545 90.2669 36.4353 90.3205C36.5161 90.3742 39.6147 89.7547 41.1232 88.9736C42.6318 88.1925 42.8406 88.7247 42.6997 89.1689C42.6997 89.1689 43.3262 88.9665 43.5487 89.2297C43.7711 89.4922 43.5487 89.8563 43.4478 89.9371C43.3469 90.0179 42.8212 90.3412 42.8212 90.3412C42.8212 90.3412 43.4679 90.5636 43.1853 91.0079C42.9027 91.4521 41.7705 92.2203 41.1239 92.5843C41.1239 92.5843 41.6289 93.0292 41.1439 93.5141C40.659 93.9991 38.5976 94.969 37.466 95.1106C36.3344 95.2522 34.9604 95.2322 34.3946 95.5148C33.8288 95.7973 29.9084 97.313 29.9084 97.313L29.1758 93.1132Z" fill="#E78C7A"/>
<path d="M22.8975 83.208C22.8975 83.208 23.1264 93.5945 23.4768 94.1196C23.8273 94.6446 29.0448 92.7184 29.0448 92.7184L29.1761 93.1135L29.9093 97.3119L30.1318 98.9692L23.4768 101.394" fill="#636593"/>
<path d="M39.2646 92.1751C41.1462 91.5149 42.6968 90.5753 42.9645 90.4085C42.8863 90.3652 42.821 90.3406 42.821 90.3406C42.821 90.3406 42.9089 90.2863 43.0182 90.2178C42.9626 90.2533 41.2258 91.3157 39.2109 92.0225L39.2646 92.1751Z" fill="#333849"/>
<path d="M38.6738 91.1326L38.7243 91.2865C41.3165 90.431 42.8445 89.1449 42.8652 89.1275C42.7688 89.1475 42.6996 89.1682 42.6996 89.1682C42.7139 89.1242 42.721 89.0796 42.7268 89.0356C42.6602 89.0874 41.12 90.3256 38.6738 91.1326Z" fill="#333849"/>
<path d="M38.9717 93.3413L39.0182 93.4965C40.358 93.0943 41.1941 92.6747 41.2018 92.6701L41.123 92.5835C41.1158 92.588 40.2934 92.945 38.9717 93.3413Z" fill="#333849"/>
<path d="M23.8908 94.3511C23.682 94.3511 23.4977 94.3103 23.3923 94.1959C22.9584 93.7226 22.8091 84.9609 22.7832 83.2099L23.0095 83.2061C23.0677 87.1989 23.2688 93.6715 23.5604 94.0439C23.7285 94.2295 24.4903 94.0704 24.9765 93.8978L25.0515 94.1112C24.9021 94.1635 24.339 94.3511 23.8908 94.3511Z" fill="#333849"/>
<path d="M23.5238 101.659L23.4766 101.394L27.0711 99.9634L27.1487 100.175L23.5238 101.659Z" fill="#333849"/>
<path d="M32.1921 58.906C32.4228 58.906 32.6098 58.6165 32.6098 58.2594C32.6098 57.9023 32.4228 57.6128 32.1921 57.6128C31.9614 57.6128 31.7744 57.9023 31.7744 58.2594C31.7744 58.6165 31.9614 58.906 32.1921 58.906Z" fill="#333849"/>
<path d="M37.5671 58.906C37.7978 58.906 37.9848 58.6165 37.9848 58.2594C37.9848 57.9023 37.7978 57.6128 37.5671 57.6128C37.3364 57.6128 37.1494 57.9023 37.1494 58.2594C37.1494 58.6165 37.3364 58.906 37.5671 58.906Z" fill="#333849"/>
<path d="M31.6025 56.8805C31.0852 56.9601 30.5815 57.1088 30.0739 57.2381C30.0157 57.253 29.953 57.2672 29.8961 57.2472C29.8392 57.2265 29.7972 57.1566 29.8276 57.1049C29.8444 57.0771 29.8761 57.0622 29.9064 57.0506C30.0552 56.9924 30.211 56.9549 30.3662 56.918C31.2178 56.7143 32.1922 56.4382 33.0742 56.598C33.5359 56.682 33.1996 56.8728 32.9171 56.8747C32.4696 56.8773 32.0564 56.8107 31.6025 56.8805Z" fill="#333849"/>
<path d="M38.1771 56.6443C38.7008 56.6424 39.2213 56.7109 39.7425 56.7588C39.8026 56.7646 39.8667 56.7691 39.9197 56.74C39.9727 56.7109 40.0037 56.6346 39.9649 56.5887C39.9442 56.5635 39.91 56.5544 39.8783 56.5473C39.7225 56.5131 39.5627 56.5001 39.403 56.4878C38.5301 56.4193 37.524 56.2984 36.6782 56.5939C36.2353 56.7484 36.5974 56.8849 36.8767 56.8428C37.3203 56.7769 37.718 56.6463 38.1771 56.6443Z" fill="#333849"/>
<path d="M34.5034 62.0448C34.4491 62.0448 34.4013 62.006 34.3922 61.9504C34.3819 61.889 34.4232 61.8302 34.4853 61.8205C34.6599 61.7914 34.8571 61.7577 35.0181 61.6711C35.1436 61.6032 35.2832 61.4706 35.2988 61.3032C35.3085 61.1984 35.271 61.0892 35.2315 60.9728C34.9308 60.0934 34.7382 59.1881 34.6554 58.2725C34.6496 58.2104 34.6961 58.1555 34.7582 58.1496C34.8254 58.1458 34.8752 58.1904 34.8811 58.2525C34.9619 59.15 35.1513 60.0371 35.443 60.8906C35.4895 61.0271 35.5393 61.1719 35.5251 61.3245C35.505 61.5424 35.3557 61.7468 35.1261 61.8709C34.9328 61.9757 34.7155 62.0119 34.5235 62.0442C34.5157 62.0442 34.5092 62.0448 34.5034 62.0448Z" fill="#333849"/>
<path d="M32.722 64.4901C32.6392 64.4863 32.5299 64.5037 32.5176 64.5858C32.5125 64.6188 32.5273 64.6512 32.5435 64.6802C32.7808 65.1128 33.3395 65.2299 33.8303 65.2816C34.3204 65.3333 34.8189 65.365 35.3033 65.2732C35.6544 65.2066 36.1542 65.0527 36.387 64.7585C36.7879 64.2522 35.9111 64.4804 35.6699 64.5128C34.6916 64.644 33.7022 64.5335 32.722 64.4901Z" fill="white"/>
<path d="M27.9354 59.0104C27.9354 59.0104 28.097 56.0838 27.9354 55.787C27.7737 55.4908 26.9383 55.0595 26.2652 55.2749C25.5914 55.4908 25.8339 58.8662 27.9354 59.0104Z" fill="#E78C7A"/>
<path d="M80.2966 70.3294C80.3166 70.3294 80.3367 70.3222 80.3522 70.3074C82.3574 68.4089 84.0133 65.7429 84.0295 65.7158C84.0508 65.6815 84.0398 65.6395 84.0101 65.6143C83.8206 65.8432 83.6939 66.032 83.6939 66.032C83.7042 65.9899 83.7023 65.9563 83.7081 65.9175C83.2257 66.654 81.8465 68.6695 80.241 70.1897C80.2087 70.2201 80.2074 70.2712 80.2378 70.3041C80.2539 70.321 80.2753 70.3294 80.2966 70.3294Z" fill="#333849"/>
<path d="M85.186 66.8467C84.5226 67.7364 83.1492 69.5301 81.8546 70.921C81.8242 70.9533 81.8262 71.0044 81.8585 71.0348C81.874 71.049 81.8941 71.0567 81.9135 71.0567C81.9355 71.0567 81.9568 71.0483 81.9723 71.0309C83.3347 69.5669 84.7844 67.6588 85.4078 66.8188C85.2901 66.8247 85.2047 66.8421 85.186 66.8467Z" fill="#333849"/>
<path d="M280.694 55.6463C281.191 55.5351 293.949 57.5053 295.808 60.2534C297.667 63.0015 298.961 71.165 299.365 77.7928C299.365 77.7928 297.991 80.2176 291.525 79.4093C291.525 79.4093 292.414 100.101 292.495 111.012C292.495 111.012 283.523 113.518 276.733 112.952C269.944 112.387 260.972 112.467 260.649 112.144C260.326 111.821 260.649 78.1161 260.649 78.1161L255.961 77.6311C255.961 77.6311 257.254 63.3248 258.709 60.9809C260.164 58.6369 271.56 56.0414 274.228 55.6418C276.895 55.2422 280.694 55.6463 280.694 55.6463Z" fill="#F6D361"/>
<path d="M280.693 55.6463C280.693 55.6463 276.894 55.2422 274.227 55.6418C273.331 55.7763 271.451 56.1584 269.294 56.6951C269.285 57.6999 270.268 64.415 276.028 64.415C281.529 64.415 282.509 57.7219 282.763 55.8946C281.602 55.7097 280.81 55.6204 280.693 55.6463Z" fill="#F6ECC7"/>
<path d="M280.936 50.1201L272.045 50.8501C272.483 55.2684 271.674 55.4301 270.785 56.4C270.064 58.0166 271.327 62.3029 275.27 62.9534C279.966 63.7281 281.529 56.4 281.529 56.4C280.397 54.1912 280.936 50.1201 280.936 50.1201Z" fill="#D4857A"/>
<path d="M285.268 36.2477L285.266 36.2496C285.187 35.2112 284.984 34.1863 284.615 33.2118C284.307 32.3952 283.855 31.5863 283.118 31.1194C282.704 30.8582 282.192 30.7457 281.716 30.8045C282.399 30.5168 283.219 30.3674 283.219 30.3674C281.319 30.024 280.73 31.2836 280.73 31.2836C280.73 31.2836 280.02 29.8624 278.457 29.1621C278.457 29.1621 279.164 29.7137 279.728 30.465C279.181 30.1404 278.562 29.9322 277.92 29.8184C277.919 29.8165 277.918 29.8132 277.918 29.8132C277.918 29.8132 274.227 28.8058 271.263 30.2238C271.263 30.2238 274.192 29.5113 275.967 29.7563C275.874 29.766 275.781 29.7725 275.689 29.7861C273.88 30.0415 272.2 30.8368 270.496 31.497C269.23 31.9878 266.737 33.528 264.985 33.2856C265.74 36.7883 268.009 38.988 268.009 38.988C269.153 39.7523 270.567 40.6776 271.711 41.4419C272.497 41.9676 273.287 42.4953 274.141 42.9026C274.568 43.1063 275.011 43.2796 275.419 43.5188C275.975 43.8447 276.452 44.2844 276.928 44.719C277.685 45.4121 278.451 46.104 279.31 46.6672C280.28 47.3035 281.415 47.8253 281.976 48.8411C282.743 47.6876 283.227 46.3723 283.676 45.0623C284.331 43.149 284.928 41.202 285.182 39.1956C285.222 38.8775 285.25 38.5574 285.27 38.2367C285.445 40.2308 285.268 43.0934 285.268 43.0934C285.91 39.4536 285.268 36.2477 285.268 36.2477Z" fill="#1F355C"/>
<path d="M281.798 46.1084C281.636 46.1621 281.043 40.9355 280.02 39.8576C278.35 39.211 277.218 36.2476 277.218 36.2476C277.025 36.4855 276.822 36.7034 276.61 36.9058L276.611 36.9071C276.611 36.9071 275.225 38.7532 272.449 39.8576C272.449 39.8576 274.005 38.9226 275.044 38.0322C271.872 39.7451 268.01 38.986 268.01 38.986C268.01 38.986 267.627 51.4966 274.524 53.8671C274.524 53.8671 276.475 54.5829 278.673 53.0052C280.774 51.4966 282.337 47.3473 282.391 45.4075C282.391 45.4075 281.96 46.0547 281.798 46.1084Z" fill="#E78C7A"/>
<path d="M282.794 38.5C282.039 38.5006 281.227 39.3897 281.227 39.3897C281.227 39.3897 282.027 41.9781 282.017 43.056C283.968 41.9911 283.549 38.4994 282.794 38.5Z" fill="#E78C7A"/>
<path d="M277.353 42.8081C277.353 43.1728 277.153 43.4683 276.908 43.4683C276.662 43.4683 276.463 43.1728 276.463 42.8081C276.463 42.4434 276.662 42.1479 276.908 42.1479C277.153 42.1479 277.353 42.4434 277.353 42.8081Z" fill="#333849"/>
<path d="M271.23 43.3678C271.476 43.3678 271.675 43.0722 271.675 42.7076C271.675 42.3429 271.476 42.0474 271.23 42.0474C270.984 42.0474 270.785 42.3429 270.785 42.7076C270.785 43.0722 270.984 43.3678 271.23 43.3678Z" fill="#333849"/>
<path d="M277.069 41.1087C277.594 41.1456 278.118 41.1818 278.642 41.2187C278.692 41.1411 278.597 41.0454 278.524 41.026C277.673 40.8003 276.727 40.7085 275.862 40.7958C275.466 40.8359 275.488 41.1294 275.861 41.1741C276.251 41.22 276.668 41.0803 277.069 41.1087Z" fill="#333849"/>
<path d="M270.831 41.3365C270.307 41.3734 269.782 41.4096 269.258 41.4465C269.209 41.3689 269.303 41.2732 269.376 41.2538C270.226 41.0281 271.173 40.9357 272.038 41.0236C272.434 41.0637 272.412 41.3579 272.039 41.4019C271.649 41.4478 271.232 41.3081 270.831 41.3365Z" fill="#333849"/>
<path d="M274.469 47.187C274.465 47.187 274.461 47.1863 274.458 47.1863C274.237 47.154 274.023 47.1171 273.827 47.0201C273.595 46.9057 273.432 46.7195 273.381 46.5106C273.324 46.2862 273.397 46.0573 273.461 45.8549C273.906 44.446 274.059 43.2905 273.946 42.2177C273.941 42.1731 273.973 42.1337 274.017 42.1285C274.071 42.1208 274.102 42.1563 274.106 42.2003C274.223 43.2956 274.067 44.4725 273.615 45.9034C273.554 46.0942 273.492 46.2908 273.537 46.4705C273.578 46.6335 273.71 46.7809 273.899 46.8746C274.074 46.9613 274.274 46.9956 274.48 47.026C274.524 47.0324 274.555 47.0732 274.55 47.1178C274.543 47.1579 274.509 47.187 274.469 47.187Z" fill="#333849"/>
<path d="M274.717 49.7017C274.635 49.7069 274.527 49.7347 274.524 49.8175C274.522 49.8504 274.54 49.8808 274.559 49.908C274.794 50.2533 275.192 50.4738 275.607 50.519C276.022 50.5637 276.448 50.4402 276.792 50.2041C277.085 50.003 277.323 49.7134 277.452 49.381C277.503 49.2504 277.584 49.0538 277.474 48.929C277.334 48.77 277.175 48.918 277.034 48.9989C276.329 49.4049 275.53 49.6487 274.717 49.7017Z" fill="white"/>
<path d="M274.591 95.5742H241.816V97.2716H274.591V95.5742Z" fill="#5B5E78"/>
<path d="M294.515 190.195L296.132 200.002H290.204L288.804 191.327L294.515 190.195Z" fill="#E78C7A"/>
<path d="M264.771 97.2716H274.591C274.591 97.2716 273.864 96.0993 273.823 95.1701C273.782 94.2409 274.47 94.2403 275.157 94.4427C275.844 94.6451 276.491 95.8575 277.218 96.14C277.946 96.4226 281.341 95.0893 285.463 91.5329C289.596 87.9668 292.636 85.7819 292.636 85.7819L291.871 79.4497C291.871 79.4497 296.697 80.1564 299.047 78.1597C299.364 79.3281 300.253 86.36 299.93 87.7341C299.607 89.1081 290.365 97.1099 281.529 99.858C281.529 99.858 279.238 100.465 277.379 101.151C275.52 101.838 268.772 101.677 264.771 97.2716Z" fill="#E78C7A"/>
<path d="M269.782 190.735L269.481 199.733H263.801C263.801 199.733 263.851 190.25 264.002 190.196C264.153 190.142 269.782 190.735 269.782 190.735Z" fill="#E78C7A"/>
<path d="M270.227 95.5745H241.816L237.209 72.1348H265.741L270.227 95.5745Z" fill="#676C8C"/>
<path d="M291.45 111.282C288.895 111.913 282.127 113.401 276.733 112.952C271.812 112.542 265.746 112.472 262.657 112.341L261.699 192.566H271.398C272.207 152.638 276.571 130.815 276.571 130.815C279.481 153.608 288.21 193.859 288.21 193.859H296.131C296.131 193.859 295.161 187.555 293.383 170.258C291.605 152.961 291.45 111.282 291.45 111.282Z" fill="#636593"/>
<path d="M290.392 66.9541L290.231 66.969L291.476 80.1773L291.556 80.1696C291.536 79.6852 291.524 79.4085 291.524 79.4085C291.539 79.4104 291.551 79.4111 291.566 79.413L290.392 66.9541Z" fill="#333849"/>
<path d="M292.355 187.571C289.159 164.978 288.695 125.661 288.69 125.266L288.917 125.264C288.921 125.658 289.385 164.961 292.579 187.54L292.355 187.571Z" fill="white"/>
<path d="M277.963 205.012H298.017C298.017 205.012 298.592 202.878 297.36 202.385C297.36 202.385 296.909 197.623 296.292 196.925C295.677 196.227 295.02 196.514 294.609 196.925C294.199 197.335 292.556 197.5 291.53 197.212C290.504 196.925 290.011 196.966 289.723 197.294C289.436 197.623 288.656 200.373 285.905 200.948C283.154 201.523 278.597 202.03 278.125 202.426C277.1 203.287 277.963 205.012 277.963 205.012Z" fill="#995C6A"/>
<path d="M288.46 199.647L288.361 199.535C287.597 198.674 286.909 196.478 287.347 195.793C287.441 195.645 287.629 195.493 288.005 195.604C289.411 196.025 288.537 199.361 288.5 199.502L288.46 199.647ZM287.766 195.727C287.641 195.727 287.548 195.778 287.483 195.879C287.114 196.459 287.715 198.433 288.382 199.305C288.536 198.644 289.058 196.088 287.959 195.76C287.887 195.738 287.823 195.727 287.766 195.727Z" fill="#333849"/>
<path d="M292.155 200.838C292.036 200.838 291.915 200.802 291.818 200.747C291.672 200.665 291.558 200.545 291.447 200.431C291.418 200.401 291.389 200.37 291.359 200.341C291.087 200.07 290.752 199.855 290.39 199.719C289.892 199.532 289.385 199.514 288.849 199.495C288.713 199.49 288.578 199.486 288.443 199.479L288.181 199.464L288.406 199.329C288.871 199.049 289.51 198.833 290.162 198.736C290.889 198.628 291.564 198.751 292.067 199.081C292.329 199.254 292.505 199.457 292.587 199.685C292.649 199.856 292.657 200.034 292.657 200.171C292.657 200.34 292.638 200.583 292.468 200.729C292.377 200.807 292.266 200.838 292.155 200.838ZM288.742 199.33C288.779 199.332 288.817 199.333 288.854 199.334C289.38 199.352 289.923 199.372 290.447 199.568C290.83 199.712 291.185 199.94 291.473 200.227C291.504 200.257 291.534 200.288 291.564 200.319C291.671 200.431 291.773 200.536 291.898 200.606C292.033 200.683 292.235 200.714 292.363 200.607C292.454 200.529 292.496 200.39 292.496 200.171C292.496 200.048 292.489 199.887 292.436 199.741C292.366 199.548 292.207 199.367 291.979 199.217C291.509 198.908 290.871 198.794 290.186 198.897C289.666 198.973 289.156 199.127 288.742 199.33Z" fill="#333849"/>
<path d="M288.14 202.001C288.093 201.667 288.045 201.322 287.905 201.016C287.754 200.683 287.507 200.446 287.227 200.364L287.272 200.209C287.597 200.303 287.881 200.574 288.052 200.949C288.201 201.278 288.251 201.635 288.301 201.979L288.14 202.001Z" fill="#333849"/>
<path d="M286.522 202.384C286.511 202.152 286.481 201.919 286.435 201.691C286.345 201.252 286.176 200.985 285.93 200.899L285.983 200.746C286.287 200.853 286.492 201.161 286.593 201.659C286.642 201.895 286.672 202.136 286.684 202.376L286.522 202.384Z" fill="#333849"/>
<path d="M285.116 202.431C285.11 202.176 285.105 201.914 285.039 201.671C284.968 201.406 284.827 201.197 284.644 201.082L284.73 200.946C284.947 201.082 285.114 201.325 285.196 201.628C285.268 201.89 285.273 202.163 285.278 202.427L285.116 202.431Z" fill="#333849"/>
<path d="M281.759 201.659C279.954 201.944 278.392 202.202 278.127 202.426C277.1 203.287 277.964 205.012 277.964 205.012H282.496C282.682 203.832 282.226 202.563 281.759 201.659Z" fill="#C4BAAF"/>
<path d="M277.636 203.388C277.549 204.183 277.963 205.012 277.963 205.012H298.017C298.017 205.012 298.592 202.877 297.36 202.385C297.36 202.385 291.273 203.544 277.636 203.388Z" fill="#B9836A"/>
<path d="M251.655 205.012H271.709C271.709 205.012 272.284 202.878 271.052 202.385C271.052 202.385 270.601 197.623 269.985 196.925C269.369 196.228 268.712 196.515 268.302 196.925C267.891 197.336 266.249 197.5 265.222 197.212C264.196 196.925 263.704 196.966 263.416 197.295C263.128 197.623 262.348 200.374 259.598 200.949C256.847 201.523 252.289 202.03 251.817 202.427C250.792 203.288 251.655 205.012 251.655 205.012Z" fill="#995C6A"/>
<path d="M264.92 200.475C263.827 200.475 262.534 200.16 261.668 199.811L261.491 199.74L261.666 199.662C261.831 199.589 265.714 197.882 266.737 198.601C266.925 198.734 267.011 198.937 266.992 199.203C266.962 199.615 266.77 199.933 266.424 200.149C266.049 200.382 265.514 200.475 264.92 200.475ZM261.913 199.732C263.239 200.226 265.372 200.615 266.338 200.012C266.638 199.825 266.804 199.549 266.83 199.192C266.845 198.984 266.784 198.834 266.643 198.734C265.813 198.151 262.7 199.401 261.913 199.732Z" fill="#333849"/>
<path d="M261.649 199.818C261.01 199.818 260.358 199.166 259.954 198.542C259.514 197.863 259.187 196.953 259.449 196.452C259.556 196.246 259.756 196.132 260.027 196.123C260.038 196.122 260.051 196.122 260.064 196.122C261.627 196.122 261.774 199.584 261.78 199.733L261.784 199.812L261.705 199.817C261.685 199.817 261.667 199.818 261.649 199.818ZM260.062 196.284C260.052 196.284 260.042 196.284 260.031 196.284C259.82 196.292 259.672 196.374 259.592 196.526C259.394 196.904 259.6 197.697 260.09 198.454C260.462 199.031 261.05 199.632 261.614 199.655C261.581 199.129 261.348 196.284 260.062 196.284Z" fill="#333849"/>
<path d="M261.864 201.876C261.482 200.665 260.426 200.649 260.416 200.649V200.487C260.428 200.487 261.602 200.504 262.018 201.826L261.864 201.876Z" fill="#333849"/>
<path d="M260.488 202.246C260.446 201.799 260.293 201.466 260.031 201.259C259.647 200.956 259.158 201.02 259.154 201.023L259.132 200.862C259.154 200.86 259.694 200.787 260.131 201.133C260.43 201.368 260.604 201.738 260.649 202.231L260.488 202.246Z" fill="#333849"/>
<path d="M259.358 202.631C259.08 201.147 257.843 201.281 257.792 201.289L257.771 201.129C257.786 201.129 259.212 200.968 259.517 202.6L259.358 202.631Z" fill="#333849"/>
<path d="M255.452 201.659C253.646 201.945 252.085 202.203 251.819 202.426C251.562 202.641 251.424 202.911 251.361 203.194C251.17 204.043 251.656 205.013 251.656 205.013H256.188C256.375 203.832 255.919 202.563 255.452 201.659Z" fill="#C4BAAF"/>
<path d="M251.329 203.388C251.242 204.183 251.656 205.012 251.656 205.012H271.71C271.71 205.012 272.285 202.878 271.053 202.385C271.053 202.385 264.965 203.545 251.329 203.388Z" fill="#B9836A"/>
<path d="M289.644 119.987C285.237 119.128 282.328 115.78 282.3 115.747L282.472 115.599C282.5 115.633 285.362 118.921 289.687 119.765L289.644 119.987Z" fill="white"/>
<path d="M255.461 84.0965C255.632 85.5992 254.772 86.9306 253.542 87.0703C252.311 87.21 251.175 86.1055 251.004 84.6035C250.833 83.1014 251.693 81.7694 252.923 81.6297C254.154 81.4894 255.29 82.5938 255.461 84.0965Z" fill="#979BB8"/>
<path d="M266.849 116.014C269.69 115.341 272.628 115.218 275.537 114.967C279.945 114.586 284.326 113.903 288.64 112.925C288.999 112.843 290.254 112.727 291.458 112.482C291.453 111.709 291.451 111.282 291.451 111.282C288.896 111.913 282.128 113.401 276.734 112.952C271.813 112.542 265.748 112.472 262.658 112.341L262.597 117.488C263.962 116.861 265.386 116.36 266.849 116.014Z" fill="#57578E"/>
<path d="M274.847 72.7275C272.72 72.7275 270.996 74.4514 270.996 76.5781C270.996 78.0563 272.571 78.6098 273.051 81.8874H276.642C277.122 78.6091 278.697 78.0556 278.697 76.5781C278.698 74.4514 276.973 72.7275 274.847 72.7275Z" fill="#F6ECC7"/>
<path d="M276.598 82.6958H273.096V83.3961H276.598V82.6958Z" fill="#F6ECC7"/>
<path d="M276.077 84.2051H273.618V84.9054H276.077V84.2051Z" fill="#F6ECC7"/>
</svg>
