<svg width="300" height="269" viewBox="0 0 300 269" fill="none" xmlns="http://www.w3.org/2000/svg">
<path d="M150 268.8C232.843 268.8 300 264.89 300 260.068C300 255.245 232.843 251.336 150 251.336C67.1573 251.336 0 255.245 0 260.068C0 264.89 67.1573 268.8 150 268.8Z" fill="#726099"/>
<path d="M185.981 167.981H181.154L173.425 259.242C173.405 259.483 173.435 259.726 173.514 259.955C173.592 260.184 173.718 260.395 173.882 260.573C174.046 260.751 174.246 260.894 174.468 260.991C174.69 261.089 174.931 261.139 175.174 261.14C175.603 261.139 176.017 260.981 176.337 260.697C176.658 260.413 176.863 260.022 176.914 259.597L185.981 167.981Z" fill="#263238"/>
<path opacity="0.1" d="M185.981 167.981H181.154L173.425 259.242C173.405 259.483 173.435 259.726 173.514 259.955C173.592 260.184 173.718 260.395 173.882 260.573C174.046 260.751 174.246 260.894 174.468 260.991C174.69 261.089 174.931 261.139 175.174 261.14C175.603 261.139 176.017 260.981 176.337 260.697C176.658 260.413 176.863 260.022 176.914 259.597L185.981 167.981Z" fill="white"/>
<path d="M69.9518 167.341H65.1166L57.3802 259.281C57.3598 259.522 57.3899 259.765 57.4686 259.993C57.5473 260.222 57.6729 260.432 57.8373 260.61C58.0017 260.787 58.2015 260.929 58.4238 261.026C58.6461 261.122 58.8861 261.172 59.1286 261.171C59.5577 261.17 59.9717 261.013 60.2923 260.729C60.613 260.444 60.8183 260.053 60.8693 259.628L69.9518 167.341Z" fill="#263238"/>
<path opacity="0.1" d="M69.9518 167.341H65.1166L57.3802 259.281C57.3598 259.522 57.3899 259.765 57.4686 259.993C57.5473 260.222 57.6729 260.432 57.8373 260.61C58.0017 260.787 58.2015 260.929 58.4238 261.026C58.6461 261.122 58.8861 261.172 59.1286 261.171C59.5577 261.17 59.9717 261.013 60.2923 260.729C60.613 260.444 60.8183 260.053 60.8693 259.628L69.9518 167.341Z" fill="white"/>
<path d="M91.3662 167.341H96.1937L96.3329 259.559C96.3329 260.023 96.1479 260.469 95.8186 260.797C95.4892 261.125 95.0425 261.31 94.5768 261.31C94.1156 261.308 93.6736 261.126 93.3453 260.803C93.0171 260.48 92.8287 260.042 92.8206 259.582L91.3662 167.341Z" fill="#263238"/>
<path opacity="0.2" d="M91.3662 167.341H96.1937L96.3329 259.559C96.3329 260.023 96.1479 260.469 95.8186 260.797C95.4892 261.125 95.0425 261.31 94.5768 261.31C94.1156 261.308 93.6736 261.126 93.3453 260.803C93.0171 260.48 92.8287 260.042 92.8206 259.582L91.3662 167.341Z" fill="white"/>
<path d="M205.849 167.341H210.684L210.823 259.559C210.823 260.023 210.638 260.469 210.309 260.797C209.979 261.125 209.533 261.31 209.067 261.31C208.606 261.308 208.164 261.126 207.835 260.803C207.507 260.48 207.319 260.042 207.311 259.582L205.849 167.341Z" fill="#263238"/>
<path opacity="0.2" d="M210.684 167.341L210.823 259.559C210.823 260.023 210.638 260.469 210.309 260.797C209.979 261.125 209.533 261.31 209.067 261.31C208.606 261.308 208.164 261.126 207.835 260.803C207.507 260.48 207.319 260.042 207.311 259.582L205.849 167.341H210.684Z" fill="white"/>
<path d="M63.6709 184.627L210.576 183.54V167.349H65.1176L63.6709 184.627Z" fill="#33315D"/>
<path opacity="0.3" d="M91.367 167.464L91.6378 184.419L63.6709 184.627L65.1176 167.349L91.367 167.464Z" fill="black"/>
<path d="M216.246 163.454C216.246 161.279 215.426 159.513 214.42 159.505H62.9273C61.9216 159.505 61.1093 161.279 61.1016 163.454C61.1016 165.637 61.9216 167.404 62.9273 167.411H214.42C215.426 167.404 216.238 165.637 216.246 163.454Z" fill="#263238"/>
<path opacity="0.1" d="M216.246 163.454C216.246 161.279 215.426 159.513 214.42 159.505H62.9273C61.9216 159.505 61.1093 161.279 61.1016 163.454C61.1016 165.637 61.9216 167.404 62.9273 167.411H214.42C215.426 167.404 216.238 165.637 216.246 163.454Z" fill="white"/>
<path opacity="0.3" d="M100.209 163.454C100.209 161.279 99.4351 159.513 98.3907 159.505H62.9273C61.9216 159.505 61.1093 161.279 61.1016 163.454C61.1016 165.637 61.9216 167.404 62.9273 167.411H98.3907C99.3965 167.404 100.209 165.637 100.209 163.454Z" fill="#515B60"/>
<path d="M177.295 159.905H161.381L161.744 158.185C163.446 153.626 172.142 153.626 172.142 153.626C174.301 153.75 176.405 155.763 177.008 158.579L177.295 159.905Z" fill="#33315D"/>
<path d="M133.135 157.359H149.118L151.021 140.698H136.508L133.135 157.359Z" fill="#263238"/>
<path d="M130.312 159.474H131.085V159.666H158.162V157.352H133.135L136.508 140.691H151.022L151.795 133.625C151.775 133.16 151.576 132.72 151.239 132.398C150.901 132.076 150.452 131.897 149.985 131.897H137.576C137.109 131.9 136.661 132.081 136.324 132.402C135.986 132.723 135.783 133.16 135.758 133.625L130.312 159.474Z" fill="#263238"/>
<path d="M133.135 157.359H149.118L150.874 142.009L151.021 140.698H136.508L133.135 157.359Z" fill="#646464"/>
<path opacity="0.1" d="M150.357 146.244L151.022 140.698H134.273L133.104 146.244H150.357Z" fill="black"/>
<path d="M158.51 157.846H160.413C160.458 157.848 160.502 157.841 160.544 157.826C160.587 157.811 160.625 157.787 160.658 157.757C160.691 157.727 160.718 157.691 160.737 157.65C160.756 157.61 160.767 157.566 160.769 157.522V155.693C160.768 155.648 160.758 155.604 160.739 155.562C160.721 155.521 160.694 155.484 160.661 155.453C160.628 155.422 160.589 155.398 160.546 155.382C160.504 155.367 160.458 155.36 160.413 155.362H159.051C158.975 155.361 158.9 155.384 158.837 155.429C158.775 155.473 158.728 155.536 158.703 155.609L158.169 157.437C158.157 157.487 158.157 157.539 158.169 157.589C158.181 157.64 158.204 157.686 158.237 157.726C158.27 157.766 158.312 157.797 158.359 157.818C158.407 157.839 158.458 157.848 158.51 157.846Z" fill="#263238"/>
<path d="M155.896 157.845H157.799C157.888 157.847 157.976 157.815 158.042 157.755C158.108 157.694 158.149 157.611 158.155 157.521V155.693C158.151 155.602 158.111 155.517 158.045 155.455C157.978 155.393 157.89 155.359 157.799 155.361H156.429C156.353 155.361 156.278 155.384 156.215 155.429C156.153 155.473 156.106 155.536 156.081 155.608L155.547 157.436C155.535 157.487 155.535 157.54 155.547 157.591C155.559 157.642 155.583 157.689 155.617 157.729C155.651 157.769 155.694 157.8 155.742 157.82C155.791 157.841 155.843 157.849 155.896 157.845Z" fill="#263238"/>
<path d="M153.273 157.846H155.168C155.259 157.85 155.348 157.818 155.416 157.758C155.484 157.697 155.526 157.612 155.532 157.522V155.693C155.53 155.648 155.519 155.603 155.499 155.562C155.48 155.52 155.452 155.483 155.419 155.452C155.385 155.422 155.345 155.398 155.302 155.382C155.259 155.367 155.214 155.36 155.168 155.362H153.806C153.729 155.36 153.654 155.383 153.591 155.427C153.528 155.472 153.482 155.535 153.458 155.609L152.924 157.437C152.912 157.487 152.912 157.541 152.924 157.591C152.936 157.642 152.96 157.69 152.994 157.729C153.028 157.769 153.071 157.801 153.119 157.821C153.168 157.841 153.22 157.849 153.273 157.846Z" fill="#263238"/>
<path d="M150.65 157.846H152.546C152.637 157.85 152.726 157.818 152.794 157.758C152.862 157.697 152.903 157.612 152.909 157.522V155.693C152.907 155.648 152.896 155.603 152.877 155.562C152.858 155.52 152.83 155.483 152.797 155.452C152.763 155.422 152.723 155.398 152.68 155.382C152.637 155.367 152.592 155.36 152.546 155.362H151.184C151.107 155.36 151.032 155.383 150.969 155.427C150.906 155.472 150.86 155.535 150.836 155.609L150.302 157.437C150.29 157.487 150.29 157.541 150.302 157.591C150.314 157.642 150.338 157.69 150.372 157.729C150.406 157.769 150.449 157.801 150.497 157.821C150.546 157.841 150.598 157.849 150.65 157.846Z" fill="#263238"/>
<path d="M148.028 157.846H149.923C150.014 157.85 150.103 157.818 150.171 157.758C150.239 157.697 150.281 157.612 150.287 157.522V155.693C150.285 155.648 150.274 155.603 150.254 155.562C150.235 155.52 150.208 155.483 150.174 155.452C150.14 155.422 150.101 155.398 150.058 155.382C150.015 155.367 149.969 155.36 149.923 155.362H148.562C148.485 155.36 148.409 155.383 148.346 155.427C148.283 155.472 148.237 155.535 148.213 155.609L147.68 157.421C147.664 157.473 147.662 157.528 147.673 157.581C147.683 157.634 147.707 157.683 147.741 157.725C147.776 157.767 147.82 157.8 147.87 157.821C147.919 157.842 147.974 157.85 148.028 157.846Z" fill="#263238"/>
<path d="M145.405 157.846H147.301C147.392 157.85 147.481 157.818 147.549 157.758C147.617 157.697 147.658 157.612 147.664 157.522V155.693C147.662 155.648 147.651 155.603 147.632 155.562C147.613 155.52 147.585 155.483 147.552 155.452C147.518 155.422 147.478 155.398 147.435 155.382C147.392 155.367 147.346 155.36 147.301 155.362H145.939C145.862 155.36 145.787 155.383 145.724 155.427C145.661 155.472 145.614 155.535 145.591 155.609L145.057 157.437C145.045 157.487 145.045 157.541 145.057 157.591C145.069 157.642 145.093 157.69 145.127 157.729C145.161 157.769 145.204 157.801 145.252 157.821C145.301 157.841 145.353 157.849 145.405 157.846Z" fill="#263238"/>
<path d="M142.782 157.846H144.678C144.769 157.85 144.858 157.818 144.926 157.758C144.994 157.697 145.035 157.612 145.041 157.522V155.693C145.039 155.648 145.028 155.603 145.009 155.562C144.989 155.52 144.962 155.483 144.928 155.452C144.895 155.422 144.855 155.398 144.812 155.382C144.769 155.367 144.723 155.36 144.678 155.362H143.316C143.239 155.36 143.163 155.383 143.101 155.427C143.038 155.472 142.991 155.535 142.968 155.609L142.426 157.437C142.415 157.488 142.417 157.541 142.43 157.592C142.443 157.643 142.468 157.69 142.502 157.729C142.537 157.769 142.58 157.8 142.629 157.82C142.677 157.84 142.73 157.849 142.782 157.846Z" fill="#263238"/>
<path d="M140.159 157.846H142.055C142.146 157.85 142.235 157.818 142.303 157.758C142.371 157.697 142.412 157.612 142.418 157.522V155.693C142.416 155.648 142.405 155.603 142.386 155.562C142.367 155.52 142.339 155.483 142.305 155.452C142.272 155.422 142.232 155.398 142.189 155.382C142.146 155.367 142.1 155.36 142.055 155.362H140.716C140.639 155.36 140.564 155.383 140.501 155.427C140.438 155.472 140.391 155.535 140.368 155.609L139.827 157.437C139.816 157.486 139.817 157.537 139.829 157.586C139.841 157.635 139.864 157.681 139.895 157.72C139.927 157.759 139.967 157.791 140.013 157.812C140.059 157.834 140.109 157.845 140.159 157.846Z" fill="#263238"/>
<path d="M137.537 157.846H139.432C139.524 157.85 139.613 157.818 139.681 157.758C139.749 157.697 139.79 157.612 139.796 157.522V155.693C139.794 155.648 139.783 155.603 139.764 155.562C139.744 155.52 139.717 155.483 139.683 155.452C139.649 155.422 139.61 155.398 139.567 155.382C139.524 155.367 139.478 155.36 139.432 155.362H138.071C137.994 155.36 137.918 155.383 137.856 155.427C137.793 155.472 137.746 155.535 137.723 155.609L137.181 157.437C137.17 157.488 137.172 157.541 137.185 157.592C137.198 157.643 137.223 157.69 137.257 157.729C137.292 157.769 137.335 157.8 137.383 157.82C137.432 157.84 137.485 157.849 137.537 157.846Z" fill="#263238"/>
<path d="M134.907 157.846H136.849C136.94 157.85 137.029 157.818 137.097 157.758C137.165 157.697 137.206 157.612 137.212 157.522V155.693C137.21 155.648 137.199 155.603 137.18 155.562C137.16 155.52 137.133 155.483 137.099 155.452C137.066 155.422 137.026 155.398 136.983 155.382C136.94 155.367 136.894 155.36 136.849 155.362H135.487C135.409 155.359 135.332 155.382 135.268 155.426C135.204 155.471 135.156 155.535 135.131 155.609L134.528 157.421C134.511 157.476 134.508 157.534 134.52 157.59C134.532 157.646 134.559 157.697 134.597 157.74C134.635 157.783 134.684 157.815 134.738 157.833C134.792 157.852 134.85 157.856 134.907 157.846Z" fill="#263238"/>
<path d="M132.284 157.846H134.187C134.278 157.85 134.368 157.818 134.436 157.758C134.504 157.697 134.545 157.612 134.551 157.522V155.693C134.549 155.648 134.538 155.603 134.519 155.562C134.499 155.52 134.472 155.483 134.438 155.452C134.404 155.422 134.365 155.398 134.322 155.382C134.279 155.367 134.233 155.36 134.187 155.362H132.826C132.748 155.359 132.671 155.382 132.607 155.426C132.543 155.471 132.495 155.535 132.47 155.609L131.936 157.437C131.924 157.487 131.924 157.541 131.936 157.591C131.948 157.642 131.972 157.69 132.006 157.729C132.04 157.769 132.083 157.801 132.131 157.821C132.179 157.841 132.232 157.849 132.284 157.846Z" fill="#263238"/>
<path d="M129.661 157.846H131.564C131.655 157.85 131.745 157.818 131.813 157.758C131.881 157.697 131.922 157.612 131.928 157.522V155.693C131.926 155.648 131.915 155.603 131.896 155.562C131.876 155.52 131.849 155.483 131.815 155.452C131.781 155.422 131.742 155.398 131.699 155.382C131.656 155.367 131.61 155.36 131.564 155.362H130.203C130.125 155.359 130.048 155.382 129.984 155.426C129.92 155.471 129.872 155.535 129.847 155.609L129.313 157.437C129.301 157.487 129.301 157.541 129.313 157.591C129.325 157.642 129.349 157.69 129.383 157.729C129.417 157.769 129.46 157.801 129.508 157.821C129.556 157.841 129.609 157.849 129.661 157.846Z" fill="#263238"/>
<path d="M127.039 157.845H128.942C129.032 157.847 129.119 157.815 129.186 157.755C129.252 157.694 129.292 157.611 129.298 157.521V155.693C129.294 155.602 129.255 155.517 129.188 155.455C129.122 155.393 129.033 155.359 128.942 155.361H127.565C127.489 155.361 127.414 155.384 127.351 155.429C127.288 155.473 127.242 155.536 127.217 155.608L126.683 157.436C126.671 157.488 126.671 157.542 126.683 157.593C126.696 157.645 126.72 157.693 126.755 157.733C126.79 157.773 126.834 157.804 126.883 157.823C126.933 157.843 126.986 157.85 127.039 157.845Z" fill="#263238"/>
<path d="M124.416 157.845H126.319C126.409 157.847 126.496 157.815 126.562 157.755C126.629 157.694 126.669 157.611 126.675 157.521V155.693C126.671 155.602 126.632 155.517 126.565 155.455C126.499 155.393 126.41 155.359 126.319 155.361H124.95C124.873 155.361 124.798 155.384 124.736 155.429C124.673 155.473 124.626 155.536 124.602 155.608L124.068 157.436C124.056 157.487 124.055 157.54 124.068 157.591C124.08 157.642 124.104 157.689 124.138 157.729C124.172 157.769 124.215 157.8 124.263 157.82C124.311 157.841 124.364 157.849 124.416 157.845Z" fill="#263238"/>
<path d="M121.794 157.846H123.697C123.788 157.85 123.877 157.818 123.945 157.758C124.013 157.697 124.055 157.612 124.061 157.522V155.693C124.059 155.648 124.048 155.603 124.028 155.562C124.009 155.52 123.982 155.483 123.948 155.452C123.914 155.422 123.875 155.398 123.832 155.382C123.789 155.367 123.743 155.36 123.697 155.362H122.336C122.259 155.36 122.183 155.383 122.12 155.427C122.057 155.472 122.011 155.535 121.987 155.609L121.454 157.437C121.441 157.487 121.441 157.539 121.453 157.589C121.465 157.64 121.488 157.686 121.521 157.726C121.554 157.766 121.596 157.797 121.643 157.818C121.691 157.839 121.742 157.848 121.794 157.846Z" fill="#263238"/>
<path d="M119.883 158.047C119.91 158.437 120.085 158.802 120.373 159.069C120.66 159.335 121.038 159.483 121.43 159.482H160.707C161.106 159.492 161.494 159.349 161.79 159.082C162.085 158.815 162.266 158.444 162.293 158.047C162.293 157.854 162.251 157.663 162.171 157.488C162.091 157.312 161.975 157.156 161.829 157.029C161.532 156.762 161.146 156.614 160.746 156.612H121.461C121.315 156.61 121.169 156.628 121.028 156.666C120.711 156.738 120.426 156.912 120.219 157.162C120.012 157.412 119.894 157.723 119.883 158.047Z" fill="#263238"/>
<path opacity="0.2" d="M119.883 158.047C119.91 158.437 120.085 158.802 120.373 159.069C120.66 159.335 121.038 159.483 121.43 159.482H160.707C161.106 159.492 161.494 159.349 161.79 159.082C162.085 158.815 162.266 158.444 162.293 158.047C162.293 157.854 162.251 157.663 162.171 157.488C162.091 157.312 161.975 157.156 161.829 157.029C161.532 156.762 161.146 156.614 160.746 156.612H121.461C121.315 156.61 121.169 156.628 121.028 156.666C120.711 156.738 120.426 156.912 120.219 157.162C120.012 157.412 119.894 157.723 119.883 158.047Z" fill="white"/>
<path d="M119.883 158.046C119.91 158.436 120.085 158.802 120.373 159.068C120.66 159.334 121.038 159.482 121.43 159.481H134.76C135.068 159.402 135.341 159.226 135.54 158.978C135.738 158.73 135.85 158.425 135.858 158.108C135.866 158.023 135.866 157.938 135.858 157.853C135.798 157.556 135.643 157.286 135.417 157.082C135.314 156.989 135.199 156.909 135.077 156.843L134.891 156.758C134.698 156.689 134.493 156.655 134.288 156.658H121.028C120.709 156.73 120.424 156.905 120.217 157.157C120.009 157.408 119.892 157.721 119.883 158.046Z" fill="#646464"/>
<path d="M108.579 93.8994H112.595L117.105 142.704H113.09C112.738 142.674 112.408 142.518 112.163 142.264C111.918 142.01 111.775 141.675 111.759 141.323L107.504 95.2802C107.473 95.1177 107.477 94.9505 107.516 94.7897C107.555 94.6289 107.627 94.4782 107.729 94.3476C107.831 94.217 107.959 94.1094 108.106 94.0322C108.252 93.9549 108.414 93.9096 108.579 93.8994Z" fill="#33315D"/>
<path opacity="0.3" d="M108.579 93.8994H112.595L117.105 142.704H113.09C112.738 142.674 112.408 142.518 112.163 142.264C111.918 142.01 111.775 141.675 111.759 141.323L107.504 95.2802C107.473 95.1177 107.477 94.9505 107.516 94.7897C107.555 94.6289 107.627 94.4782 107.729 94.3476C107.831 94.217 107.959 94.1094 108.106 94.0322C108.252 93.9549 108.414 93.9096 108.579 93.8994Z" fill="black"/>
<path d="M114.784 142.704H174.942C175.107 142.694 175.269 142.649 175.416 142.571C175.562 142.494 175.691 142.387 175.792 142.256C175.894 142.125 175.967 141.975 176.006 141.814C176.044 141.653 176.048 141.486 176.017 141.323L171.762 95.2802C171.747 94.9281 171.603 94.5938 171.358 94.3397C171.113 94.0856 170.784 93.9291 170.432 93.8994H110.274C110.108 93.9096 109.947 93.9549 109.8 94.0322C109.653 94.1094 109.525 94.217 109.423 94.3476C109.322 94.4782 109.249 94.6289 109.21 94.7897C109.171 94.9505 109.167 95.1177 109.198 95.2802L113.453 141.323C113.469 141.675 113.613 142.01 113.858 142.264C114.103 142.518 114.432 142.674 114.784 142.704Z" fill="#33315D"/>
<path d="M116.602 132.916H171.236L168.203 98.3813H113.569L116.602 132.916Z" fill="#33315D"/>
<path d="M117.353 135.616H171.19C171.544 135.622 171.896 135.553 172.221 135.414C172.547 135.275 172.839 135.068 173.078 134.807C173.317 134.547 173.498 134.239 173.609 133.904C173.719 133.568 173.757 133.213 173.72 132.862L170.703 98.5435C170.624 97.7983 170.276 97.1071 169.724 96.5989C169.171 96.0908 168.452 95.8004 167.701 95.782H113.856C113.502 95.7767 113.151 95.8464 112.826 95.9867C112.501 96.127 112.209 96.3346 111.971 96.5957C111.732 96.8569 111.552 97.1656 111.442 97.5014C111.333 97.8372 111.296 98.1924 111.334 98.5435L114.344 132.862C114.424 133.607 114.774 134.297 115.328 134.804C115.882 135.311 116.601 135.599 117.353 135.616Z" fill="#263238"/>
<path d="M116.602 132.916H171.236L168.203 98.3813H113.569L116.602 132.916Z" fill="#33315D"/>
<path opacity="0.4" d="M116.602 132.916H171.236L168.203 98.3813H113.569L116.602 132.916Z" fill="white"/>
<path d="M134.528 100.27L137.166 130.354H117.106L114.46 100.27H134.528ZM135.24 99.499H113.64L113.717 100.34L116.355 130.423L116.417 131.133H137.994L137.924 130.292L135.286 100.209L135.224 99.5067L135.24 99.499Z" fill="#33315D"/>
<path d="M137.127 130.355H117.098L114.46 100.271H134.489L137.127 130.355Z" fill="white"/>
<path d="M122.993 109.466H116.897L116.231 101.829H122.32L122.993 109.466Z" fill="#33315D"/>
<g opacity="0.2">
<path d="M116.951 101.829H116.231L116.75 107.753H116.943V107.321H117.462V107.753H117.663L117.144 101.829H116.951ZM116.703 105.007L116.634 104.143H117.152L117.229 105.007H116.703ZM117.245 105.2L117.322 106.064H116.796L116.734 105.2H117.245ZM116.611 103.95L116.541 103.086H117.059L117.137 103.95H116.611ZM116.518 102.886L116.448 102.03H116.966L117.044 102.886H116.518ZM116.889 107.121L116.819 106.264H117.338L117.415 107.121H116.889Z" fill="black"/>
</g>
<g opacity="0.2">
<path d="M122.15 101.829H121.376L121.894 107.753H122.15L122.111 107.321H122.637V107.753H122.838L122.32 101.829H122.15ZM121.91 105.007L121.832 104.143H122.358L122.428 105.007H121.91ZM122.451 105.2L122.521 106.064H122.003L121.925 105.2H122.451ZM121.817 103.95L121.74 103.086H122.266L122.335 103.95H121.817ZM121.724 102.886L121.647 102.03H122.15L122.219 102.886H121.724ZM122.095 107.121L122.018 106.264H122.544L122.614 107.121H122.095Z" fill="black"/>
</g>
<path opacity="0.2" d="M121.918 107.746L117.671 107.753L117.152 101.829H121.4L121.918 107.746Z" fill="white"/>
<path opacity="0.2" d="M121.299 104.868C121.33 105.092 121.311 105.32 121.243 105.536C121.176 105.752 121.062 105.95 120.909 106.117C120.756 106.284 120.569 106.416 120.359 106.503C120.15 106.589 119.924 106.629 119.697 106.619C119.218 106.612 118.758 106.43 118.404 106.107C118.05 105.785 117.828 105.344 117.779 104.868C117.754 104.645 117.778 104.419 117.849 104.205C117.919 103.992 118.034 103.795 118.186 103.63C118.338 103.464 118.524 103.333 118.732 103.244C118.939 103.156 119.163 103.112 119.388 103.117C119.866 103.126 120.324 103.309 120.676 103.631C121.028 103.954 121.25 104.394 121.299 104.868Z" fill="white"/>
<path d="M118.985 103.95L120.533 104.968L119.163 105.978L118.985 103.95Z" fill="white"/>
<path d="M123.828 119.031H117.739L117.066 111.402H123.155L123.828 119.031Z" fill="#33315D"/>
<g opacity="0.2">
<path d="M117.794 111.395H117.066L117.585 117.319H117.786L117.747 116.887H118.281V117.319H118.474L117.956 111.395H117.794ZM117.546 114.573L117.469 113.716H117.995L118.072 114.573H117.546ZM118.088 114.773L118.165 115.637H117.639L117.562 114.773H118.088ZM117.453 113.516L117.376 112.652H117.902L117.979 113.516H117.453ZM117.36 112.459L117.283 111.595H117.809L117.886 112.459H117.36ZM117.732 116.694L117.654 115.83H118.18L118.258 116.694H117.732Z" fill="black"/>
</g>
<g opacity="0.2">
<path d="M122.963 111.395H122.235L122.761 117.319H122.924V116.887H123.45L123.489 117.319H123.698L123.171 111.395H122.963ZM122.715 114.573L122.638 113.716H123.164L123.241 114.573H122.715ZM123.257 114.773L123.334 115.637H122.808L122.73 114.773H123.257ZM122.622 113.516L122.545 112.652H123.071L123.148 113.516H122.622ZM122.529 112.459L122.452 111.595H122.978L123.055 112.459H122.529ZM122.901 116.694L122.823 115.83H123.349L123.427 116.694H122.901Z" fill="black"/>
</g>
<path opacity="0.2" d="M122.753 117.311L118.506 117.319L117.987 111.402H122.242L122.753 117.311Z" fill="white"/>
<path opacity="0.2" d="M122.15 114.433C122.175 114.657 122.152 114.884 122.082 115.099C122.013 115.313 121.898 115.51 121.745 115.677C121.593 115.843 121.407 115.975 121.199 116.064C120.991 116.153 120.767 116.197 120.54 116.192C120.062 116.181 119.603 115.997 119.252 115.673C118.9 115.349 118.679 114.908 118.63 114.433C118.599 114.209 118.618 113.981 118.685 113.765C118.752 113.549 118.866 113.351 119.019 113.184C119.172 113.017 119.36 112.885 119.569 112.799C119.779 112.712 120.005 112.672 120.231 112.682C120.71 112.691 121.169 112.873 121.522 113.196C121.876 113.518 122.099 113.958 122.15 114.433Z" fill="white"/>
<path d="M119.828 113.523L121.375 114.534L120.006 115.552L119.828 113.523Z" fill="white"/>
<path d="M130.976 109.466H124.888L124.215 101.829H130.311L130.976 109.466Z" fill="#33315D"/>
<g opacity="0.2">
<path d="M124.942 101.829H124.215L124.741 107.753H124.934V107.321H125.46L125.499 107.753H125.7L125.174 101.829H124.942ZM124.694 105.007L124.617 104.143H125.143L125.221 105.007H124.694ZM125.236 105.208L125.313 106.064H124.787L124.71 105.208H125.236ZM124.602 103.95L124.524 103.086H125.05L125.128 103.95H124.602ZM124.509 102.886L124.431 102.03H124.958L125.035 102.886H124.509ZM124.88 107.128L124.803 106.264H125.329L125.406 107.128H124.88Z" fill="black"/>
</g>
<g opacity="0.2">
<path d="M130.11 101.829H129.391L129.909 107.753H130.102V107.321H130.621L130.659 107.753H130.861L130.342 101.829H130.11ZM129.863 105.007L129.793 104.143H130.311L130.389 105.007H129.863ZM130.404 105.208L130.481 106.064H129.955L129.886 105.208H130.404ZM129.77 103.95L129.7 103.086H130.218L130.296 103.95H129.77ZM129.677 102.886L129.607 102.03H130.126L130.203 102.886H129.677ZM130.048 107.128L129.979 106.264H130.497L130.574 107.128H130.048Z" fill="black"/>
</g>
<path opacity="0.2" d="M129.909 107.746L125.654 107.753L125.136 101.829H129.391L129.909 107.746Z" fill="white"/>
<path opacity="0.2" d="M129.29 104.868C129.321 105.093 129.302 105.321 129.234 105.538C129.166 105.754 129.052 105.953 128.898 106.12C128.744 106.288 128.556 106.419 128.345 106.505C128.135 106.591 127.908 106.63 127.681 106.619C127.203 106.61 126.745 106.427 126.392 106.105C126.04 105.782 125.819 105.342 125.77 104.868C125.746 104.645 125.77 104.419 125.84 104.205C125.91 103.992 126.025 103.795 126.177 103.63C126.33 103.464 126.516 103.333 126.723 103.244C126.93 103.156 127.154 103.112 127.379 103.117C127.857 103.126 128.315 103.309 128.667 103.631C129.019 103.954 129.241 104.394 129.29 104.868Z" fill="white"/>
<path d="M126.977 103.95L128.524 104.968L127.154 105.978L126.977 103.95Z" fill="white"/>
<path d="M124.672 128.603H118.575L117.91 120.966H123.999L124.672 128.603Z" fill="#33315D"/>
<g opacity="0.2">
<path d="M118.63 120.966H117.91L118.428 126.89H118.622V126.458H119.14L119.179 126.89H119.38L118.862 120.966H118.63ZM118.382 124.144L118.312 123.28H118.831L118.908 124.144H118.382ZM118.924 124.337L119.001 125.201H118.475L118.405 124.337H118.924ZM118.289 123.08L118.22 122.224H118.738L118.815 123.08H118.289ZM118.196 122.023L118.127 121.167H118.645L118.722 122.031L118.196 122.023ZM118.568 126.258L118.498 125.394H119.055L119.133 126.258H118.568Z" fill="black"/>
</g>
<g opacity="0.2">
<path d="M123.798 120.966H123.078L123.596 126.89H123.798V126.458H124.324L124.362 126.89H124.556L124.037 120.966H123.798ZM123.558 124.144L123.48 123.28H124.006L124.076 124.144H123.558ZM124.099 124.337L124.169 125.201H123.651L123.573 124.337H124.099ZM123.465 123.08L123.388 122.224H123.914L123.983 123.08H123.465ZM123.372 122.023L123.295 121.159H123.821L123.89 122.023H123.372ZM123.743 126.258L123.666 125.394H124.192L124.262 126.258H123.743Z" fill="black"/>
</g>
<path opacity="0.2" d="M123.597 126.883L119.349 126.89L118.831 120.966H123.078L123.597 126.883Z" fill="white"/>
<path opacity="0.2" d="M122.977 124.006C123.014 124.233 122.999 124.465 122.935 124.686C122.871 124.907 122.757 125.11 122.604 125.282C122.45 125.453 122.26 125.589 122.048 125.678C121.835 125.766 121.605 125.807 121.375 125.796C120.896 125.787 120.437 125.605 120.084 125.282C119.73 124.96 119.507 124.52 119.456 124.045C119.432 123.821 119.456 123.595 119.526 123.382C119.597 123.168 119.712 122.972 119.864 122.806C120.016 122.641 120.202 122.509 120.409 122.421C120.617 122.333 120.84 122.289 121.066 122.294C121.538 122.301 121.991 122.479 122.342 122.794C122.693 123.108 122.919 123.539 122.977 124.006Z" fill="white"/>
<path d="M120.664 123.088L122.219 124.098L120.842 125.117L120.664 123.088Z" fill="white"/>
<path opacity="0.1" d="M132.323 95.8047L121.646 135.6H125.244L135.796 95.8047H132.323Z" fill="white"/>
<path opacity="0.1" d="M137.862 95.8047L127.193 135.6H134.311L144.863 95.8047H137.862Z" fill="white"/>
<path d="M169.906 125.479H135.193L133.398 105.038H168.111L169.906 125.479Z" fill="#263238"/>
<path d="M155.741 113.007C155.805 113.555 155.751 114.111 155.581 114.637C155.411 115.163 155.13 115.646 154.757 116.054C154.384 116.462 153.927 116.786 153.417 117.003C152.907 117.219 152.357 117.324 151.803 117.311C150.628 117.289 149.502 116.839 148.637 116.046C147.772 115.253 147.228 114.172 147.107 113.007C147.042 112.457 147.095 111.9 147.264 111.374C147.434 110.847 147.715 110.363 148.088 109.954C148.462 109.545 148.919 109.22 149.429 109.003C149.939 108.786 150.49 108.681 151.045 108.695C152.222 108.715 153.35 109.166 154.215 109.96C155.081 110.755 155.624 111.839 155.741 113.007Z" fill="white"/>
<path d="M153.791 113.16L150.016 111.093L150.379 115.235L153.791 113.16Z" fill="#263238"/>
<path d="M169.093 121.468H135.301L135.239 120.805H169.032L169.093 121.468Z" fill="white"/>
<path d="M154.24 121.468H135.301L135.239 120.805H154.186L154.24 121.468Z" fill="#33315D"/>
<path d="M135.881 123.929H135.556L135.44 122.648H135.765L135.881 123.929Z" fill="white"/>
<path d="M136.446 123.929H136.121L136.013 122.648H136.338L136.446 123.929Z" fill="white"/>
<path d="M139.379 123.929H138.095L137.986 122.648H139.271L139.379 123.929Z" fill="white"/>
<path d="M141.08 123.289L142.132 122.648L142.241 123.929L141.08 123.289Z" fill="white"/>
<path d="M141.134 123.929H140.809L140.693 122.648H141.018L141.134 123.929Z" fill="white"/>
<path d="M144.67 123.289L143.51 122.648L143.618 123.929L144.67 123.289Z" fill="white"/>
<path d="M144.731 123.929H145.056L144.94 122.648H144.615L144.731 123.929Z" fill="white"/>
<path d="M147.053 122.625L146.48 123.396H147.765L147.053 122.625Z" fill="white"/>
<path d="M147.834 123.952L147.811 123.627H146.48L146.511 123.952H147.834Z" fill="white"/>
<path d="M169.342 124.03H166.866L166.734 122.487H169.202L169.342 124.03ZM167.059 123.821H169.109L169.017 122.734H166.966L167.059 123.821Z" fill="white"/>
<path d="M165.04 124.029H164.537L164.498 123.589L164.707 123.574L164.73 123.821H165.04V124.029Z" fill="white"/>
<path d="M166.145 124.029H165.643V123.821H165.921L165.898 123.589L166.107 123.574L166.145 124.029Z" fill="white"/>
<path d="M165.851 123.003L165.82 122.733H165.534V122.524H166.014L166.053 122.987L165.851 123.003Z" fill="white"/>
<path d="M164.452 123.003L164.405 122.524H164.924V122.733H164.637L164.661 122.987L164.452 123.003Z" fill="white"/>
<path opacity="0.1" d="M139.882 105.038H143.804L139.154 125.479H135.186L139.882 105.038Z" fill="white" stroke="#263238" stroke-linecap="round" stroke-linejoin="round"/>
<path opacity="0.1" d="M159.393 125.479L164.089 105.038H168.019L163.369 125.479H159.393Z" fill="white" stroke="#263238" stroke-linecap="round" stroke-linejoin="round"/>
<g opacity="0.1">
<path d="M168.328 107.521L165.279 120.805L165.125 121.468L164.862 122.625L164.614 123.689L164.204 125.479H165.225L165.875 122.625L166.138 121.468L166.285 120.805L168.598 110.646" fill="white"/>
<path d="M168.328 107.521L165.279 120.805L165.125 121.468L164.862 122.625L164.614 123.689L164.204 125.479H165.225L165.875 122.625L166.138 121.468L166.285 120.805L168.598 110.646" stroke="#263238" stroke-linecap="round" stroke-linejoin="round"/>
</g>
<path d="M168.112 105.038H133.399L133.236 103.187H167.949L168.112 105.038Z" fill="#33315D"/>
<path d="M135.858 104.127C135.865 104.2 135.858 104.274 135.834 104.343C135.811 104.413 135.774 104.477 135.724 104.531C135.674 104.585 135.613 104.628 135.546 104.656C135.478 104.685 135.405 104.699 135.332 104.698C135.176 104.696 135.026 104.637 134.912 104.532C134.797 104.426 134.726 104.282 134.713 104.127C134.705 104.055 134.713 103.982 134.736 103.913C134.758 103.844 134.795 103.78 134.844 103.726C134.893 103.672 134.953 103.629 135.019 103.6C135.086 103.571 135.158 103.556 135.231 103.556C135.387 103.559 135.537 103.619 135.653 103.724C135.768 103.829 135.841 103.972 135.858 104.127Z" fill="white"/>
<path d="M137.576 104.127C137.583 104.2 137.575 104.274 137.552 104.343C137.529 104.413 137.491 104.477 137.442 104.531C137.392 104.585 137.331 104.628 137.264 104.657C137.196 104.685 137.123 104.699 137.049 104.698C136.894 104.697 136.744 104.637 136.629 104.532C136.515 104.426 136.444 104.282 136.431 104.127C136.422 104.055 136.428 103.981 136.451 103.911C136.473 103.842 136.51 103.778 136.559 103.724C136.608 103.669 136.668 103.626 136.736 103.598C136.803 103.569 136.876 103.555 136.949 103.556C137.105 103.559 137.255 103.619 137.37 103.724C137.486 103.829 137.559 103.972 137.576 104.127Z" fill="white"/>
<path d="M139.286 104.127C139.294 104.2 139.288 104.273 139.265 104.343C139.243 104.412 139.206 104.476 139.157 104.531C139.108 104.585 139.048 104.628 138.98 104.657C138.913 104.685 138.84 104.7 138.767 104.698C138.611 104.695 138.461 104.636 138.346 104.53C138.23 104.425 138.157 104.282 138.141 104.127C138.133 104.054 138.141 103.98 138.164 103.911C138.187 103.841 138.225 103.777 138.274 103.723C138.324 103.669 138.385 103.626 138.452 103.598C138.52 103.569 138.593 103.555 138.667 103.556C138.823 103.558 138.972 103.617 139.087 103.722C139.201 103.828 139.272 103.972 139.286 104.127Z" fill="white"/>
<path d="M102.901 159.505H83.0575L77.8818 100.426H97.7178L102.901 159.505Z" fill="#33315D"/>
<path opacity="0.3" d="M102.901 159.505H83.0575L77.8818 100.426H97.7178L102.901 159.505Z" fill="black"/>
<path d="M104.851 159.505H85.0076L79.8242 100.426H99.668L104.851 159.505Z" fill="#33315D"/>
<path opacity="0.5" d="M90.384 104.968C89.4168 104.951 88.4569 105.139 87.5682 105.52C86.6795 105.901 85.8825 106.466 85.2303 107.179C84.578 107.891 84.0855 108.734 83.7856 109.651C83.4857 110.568 83.3853 111.538 83.491 112.497C83.7022 114.536 84.6544 116.427 86.1679 117.814C87.6815 119.201 89.6517 119.988 91.7069 120.026C92.6735 120.042 93.6326 119.854 94.5204 119.472C95.4081 119.09 96.2042 118.525 96.8556 117.812C97.5069 117.1 97.9987 116.258 98.2982 115.341C98.5976 114.425 98.6979 113.455 98.5923 112.497C98.3845 110.458 97.4343 108.566 95.9217 107.179C94.4091 105.792 92.439 105.005 90.384 104.968Z" fill="black"/>
<path d="M88.9996 113.006C89.0563 113.585 89.3238 114.123 89.7516 114.518C90.1793 114.913 90.7375 115.138 91.3205 115.151C91.5958 115.156 91.8689 115.102 92.1217 114.993C92.3745 114.885 92.6011 114.723 92.7864 114.52C92.9716 114.317 93.1113 114.077 93.1961 113.816C93.2808 113.555 93.3087 113.279 93.2778 113.006C93.2162 112.43 92.9469 111.896 92.52 111.503C92.0932 111.11 91.5377 110.885 90.9569 110.869C90.6824 110.865 90.41 110.918 90.1578 111.026C89.9056 111.134 89.6795 111.295 89.4943 111.497C89.3091 111.699 89.1693 111.938 89.084 112.198C88.9987 112.459 88.9699 112.734 88.9996 113.006Z" fill="#33315D"/>
<path opacity="0.5" d="M88.7055 127.183C88.8076 128.178 89.2717 129.101 90.0102 129.778C90.7486 130.454 91.7102 130.838 92.7129 130.855C93.1844 130.863 93.6522 130.771 94.0852 130.585C94.5182 130.399 94.9065 130.123 95.2242 129.776C95.5419 129.428 95.7817 129.018 95.9276 128.571C96.0735 128.123 96.1222 127.651 96.0705 127.183C95.9686 126.188 95.5048 125.264 94.7665 124.586C94.0282 123.908 93.0665 123.523 92.0631 123.504C91.5913 123.497 91.1233 123.59 90.6903 123.777C90.2573 123.963 89.8692 124.24 89.5516 124.588C89.234 124.936 88.9944 125.347 88.8485 125.795C88.7026 126.242 88.6539 126.716 88.7055 127.183Z" fill="black"/>
<path opacity="0.5" d="M90.0127 136.594C90.098 137.455 90.4974 138.254 91.135 138.84C91.7726 139.426 92.6039 139.758 93.4709 139.773C93.8793 139.781 94.2847 139.701 94.66 139.541C95.0353 139.38 95.3719 139.141 95.6472 138.84C95.9226 138.54 96.1304 138.184 96.2567 137.796C96.383 137.409 96.425 136.999 96.3798 136.594C96.2911 135.734 95.8896 134.936 95.2511 134.35C94.6126 133.765 93.7812 133.433 92.9139 133.416C92.5061 133.41 92.1016 133.489 91.7272 133.651C91.3528 133.812 91.0172 134.051 90.7427 134.351C90.4682 134.652 90.2611 135.008 90.1352 135.395C90.0094 135.781 89.9676 136.19 90.0127 136.594Z" fill="black"/>
<path opacity="0.5" d="M91.2507 145.25C91.3262 145.975 91.6653 146.648 92.204 147.141C92.7427 147.634 93.4438 147.913 94.175 147.926C94.5187 147.933 94.8599 147.866 95.1756 147.731C95.4914 147.595 95.7744 147.394 96.0059 147.141C96.2373 146.887 96.4119 146.587 96.5177 146.261C96.6236 145.935 96.6584 145.59 96.6197 145.25C96.5477 144.525 96.2107 143.851 95.6728 143.357C95.135 142.864 94.434 142.585 93.7031 142.573C93.3591 142.567 93.0177 142.633 92.7017 142.769C92.3856 142.904 92.1021 143.105 91.87 143.359C91.638 143.612 91.4627 143.912 91.3559 144.238C91.2492 144.564 91.2133 144.909 91.2507 145.25Z" fill="black"/>
<path opacity="0.5" d="M92.3567 152.424C92.419 153.014 92.6957 153.561 93.1346 153.961C93.5736 154.362 94.1444 154.589 94.7395 154.599C95.0194 154.605 95.2974 154.551 95.5549 154.442C95.8123 154.332 96.0433 154.168 96.2323 153.963C96.4213 153.757 96.5639 153.513 96.6507 153.247C96.7375 152.982 96.7664 152.701 96.7355 152.424C96.6766 151.831 96.4011 151.281 95.9617 150.879C95.5222 150.476 94.9494 150.249 94.3527 150.241C94.0724 150.236 93.7942 150.29 93.5368 150.401C93.2793 150.511 93.0485 150.675 92.8596 150.882C92.6708 151.089 92.5282 151.333 92.4415 151.599C92.3548 151.865 92.3259 152.146 92.3567 152.424Z" fill="black"/>
<path d="M203.899 159.427H184.055L178.872 100.347H198.716L203.899 159.427Z" fill="#33315D"/>
<path opacity="0.3" d="M203.899 159.427H184.055L178.872 100.347H198.716L203.899 159.427Z" fill="black"/>
<path d="M205.848 159.427H186.005L180.821 100.347H200.665L205.848 159.427Z" fill="#33315D"/>
<path opacity="0.5" d="M191.382 104.892C190.415 104.874 189.455 105.062 188.566 105.443C187.678 105.824 186.881 106.39 186.228 107.102C185.576 107.814 185.084 108.657 184.784 109.574C184.484 110.491 184.383 111.462 184.489 112.42C184.7 114.459 185.652 116.35 187.166 117.737C188.68 119.124 190.65 119.911 192.705 119.949C193.672 119.966 194.631 119.777 195.518 119.395C196.406 119.014 197.202 118.448 197.854 117.736C198.505 117.023 198.997 116.181 199.296 115.265C199.596 114.348 199.696 113.379 199.59 112.42C199.383 110.382 198.432 108.49 196.92 107.102C195.407 105.715 193.437 104.928 191.382 104.892Z" fill="black"/>
<path d="M189.998 112.937C190.056 113.515 190.324 114.051 190.752 114.444C191.179 114.838 191.737 115.062 192.318 115.074C192.593 115.079 192.865 115.025 193.118 114.917C193.37 114.809 193.596 114.648 193.781 114.446C193.966 114.244 194.106 114.005 194.191 113.745C194.277 113.485 194.305 113.209 194.276 112.937C194.216 112.36 193.947 111.824 193.52 111.429C193.093 111.035 192.537 110.808 191.955 110.793C191.68 110.788 191.406 110.841 191.154 110.95C190.901 111.059 190.674 111.22 190.489 111.423C190.304 111.626 190.164 111.866 190.079 112.127C189.995 112.388 189.967 112.664 189.998 112.937Z" fill="#33315D"/>
<path opacity="0.5" d="M189.703 127.106C189.805 128.101 190.269 129.024 191.007 129.701C191.746 130.377 192.707 130.761 193.71 130.778C194.182 130.786 194.649 130.694 195.082 130.508C195.515 130.322 195.904 130.046 196.221 129.699C196.539 129.352 196.779 128.941 196.925 128.494C197.071 128.047 197.119 127.574 197.068 127.106C196.966 126.112 196.501 125.189 195.763 124.512C195.025 123.835 194.063 123.452 193.06 123.435C192.589 123.426 192.121 123.518 191.688 123.704C191.255 123.89 190.867 124.166 190.549 124.514C190.231 124.861 189.992 125.272 189.846 125.719C189.7 126.166 189.651 126.639 189.703 127.106Z" fill="black"/>
<path opacity="0.5" d="M191.003 136.51C191.088 137.371 191.488 138.17 192.125 138.756C192.763 139.342 193.594 139.674 194.461 139.688C194.87 139.696 195.275 139.617 195.65 139.457C196.026 139.296 196.362 139.057 196.638 138.756C196.913 138.455 197.121 138.099 197.247 137.712C197.373 137.325 197.415 136.915 197.37 136.51C197.281 135.651 196.879 134.853 196.241 134.269C195.602 133.685 194.771 133.354 193.904 133.34C193.497 133.332 193.092 133.411 192.718 133.571C192.344 133.731 192.008 133.97 191.733 134.27C191.459 134.57 191.251 134.925 191.125 135.311C191 135.698 190.958 136.106 191.003 136.51Z" fill="black"/>
<path opacity="0.5" d="M192.249 145.172C192.324 145.897 192.663 146.57 193.202 147.063C193.741 147.556 194.442 147.835 195.173 147.848C195.517 147.855 195.858 147.788 196.174 147.653C196.489 147.517 196.772 147.316 197.004 147.063C197.235 146.809 197.41 146.509 197.516 146.183C197.622 145.857 197.656 145.512 197.618 145.172C197.546 144.446 197.209 143.773 196.671 143.279C196.133 142.786 195.432 142.507 194.701 142.495C194.357 142.489 194.016 142.555 193.7 142.691C193.384 142.826 193.1 143.027 192.868 143.281C192.636 143.534 192.461 143.834 192.354 144.16C192.247 144.486 192.211 144.831 192.249 145.172Z" fill="black"/>
<path opacity="0.5" d="M193.324 152.346C193.386 152.937 193.662 153.485 194.101 153.887C194.54 154.289 195.111 154.517 195.706 154.529C195.987 154.534 196.265 154.479 196.522 154.368C196.78 154.258 197.011 154.094 197.199 153.887C197.388 153.681 197.531 153.436 197.618 153.171C197.704 152.905 197.733 152.624 197.702 152.346C197.642 151.754 197.366 151.205 196.927 150.803C196.488 150.401 195.916 150.173 195.32 150.163C195.04 150.159 194.762 150.215 194.505 150.326C194.248 150.437 194.018 150.601 193.829 150.807C193.641 151.013 193.498 151.257 193.411 151.522C193.324 151.788 193.294 152.068 193.324 152.346Z" fill="black"/>
<path d="M45.775 82.8228L42.1621 23.1186C42.1621 23.0415 42.1621 22.9644 42.1621 22.8872C42.1703 22.1275 42.4803 21.4021 43.0241 20.8699C43.568 20.3378 44.3013 20.0424 45.0632 20.0486L204.579 19.686C205.413 19.6976 206.212 20.0211 206.819 20.5926C207.425 21.1641 207.793 21.9418 207.851 22.7715L211.464 82.4757C211.464 82.5528 211.464 82.6377 211.464 82.7148C211.46 83.0906 211.382 83.462 211.234 83.8076C211.086 84.1533 210.871 84.4665 210.602 84.7294C210.332 84.9923 210.014 85.1997 209.664 85.3398C209.314 85.4798 208.94 85.5498 208.563 85.5458L49.0397 85.9083C48.2069 85.8949 47.4095 85.5704 46.805 84.9991C46.2005 84.4278 45.833 83.6512 45.775 82.8228Z" fill="white"/>
<path d="M105.004 20.3489H61.2165L61.1855 20.0172L104.966 19.9092L105.004 20.3489Z" fill="white"/>
<path d="M211.464 82.6988C211.454 83.4572 211.143 84.1807 210.6 84.7111C210.056 85.2416 209.324 85.5359 208.563 85.5297L49.0397 85.8923C48.2064 85.8806 47.408 85.5568 46.8031 84.9851C46.1983 84.4135 45.8312 83.6359 45.775 82.8068L42.1621 23.1026C42.1621 23.0255 42.1621 22.9406 42.1621 22.8635C42.1723 22.1044 42.4829 21.3801 43.0264 20.8484C43.5698 20.3167 44.3019 20.0207 45.0632 20.0248H57.3253L57.0778 17.1785C57.0117 16.5812 57.0741 15.9767 57.2608 15.4053C57.4475 14.834 57.7542 14.3089 58.1606 13.8651C58.5669 13.4212 59.0635 13.0689 59.6171 12.8315C60.1708 12.5942 60.7689 12.4772 61.3715 12.4885H95.744C97.0245 12.5104 98.2524 13 99.1949 13.8644C100.137 14.7288 100.729 15.9081 100.858 17.1785L101.105 19.9168L204.587 19.6854C205.418 19.7024 206.214 20.028 206.818 20.5986C207.421 21.1692 207.79 21.9438 207.851 22.7709L211.464 82.4674C211.464 82.5445 211.464 82.5985 211.464 82.6988Z" fill="#726099"/>
<path d="M95.7371 12.4816C97.0175 12.5035 98.2454 12.993 99.188 13.8575C100.131 14.7219 100.722 15.9011 100.851 17.1715L101.098 19.9099L204.58 19.6785C205.411 19.6954 206.207 20.021 206.811 20.5916C207.414 21.1622 207.783 21.9368 207.844 22.764L211.457 82.4604C211.457 82.553 211.457 82.6301 211.457 82.7073C211.449 83.4609 211.143 84.1809 210.606 84.711C210.068 85.241 209.343 85.5383 208.587 85.5382L49.0637 85.9008C48.2304 85.8891 47.432 85.5653 46.8271 84.9936C46.2223 84.422 45.8552 83.6443 45.799 82.8153L42.1861 23.1111C42.1861 23.0339 42.1861 22.9491 42.1861 22.872C42.1963 22.1156 42.5048 21.3936 43.0449 20.8623C43.5849 20.3311 44.3131 20.0332 45.0718 20.0333H57.3339L57.0863 17.187C57.0202 16.5897 57.0826 15.9852 57.2693 15.4138C57.4561 14.8425 57.7628 14.3174 58.1691 13.8735C58.5754 13.4297 59.072 13.0774 59.6257 12.84C60.1793 12.6026 60.7774 12.4857 61.38 12.497H95.7526M95.7526 10.1366H61.3645C60.4333 10.1253 59.5103 10.3103 58.6559 10.6796C57.8015 11.0489 57.035 11.5941 56.4068 12.2795C55.7785 12.9649 55.3027 13.775 55.0105 14.6567C54.7183 15.5383 54.6163 16.4715 54.7113 17.3952V17.6806H45.0254C43.6421 17.6805 42.3145 18.2236 41.3299 19.1923C40.3453 20.1611 39.783 21.4775 39.7646 22.8565V23.2576L43.3775 82.9695C43.4711 84.3921 44.1001 85.727 45.1388 86.7068C46.1774 87.6866 47.5489 88.239 48.9786 88.2534L208.541 87.8909C209.923 87.893 211.251 87.3517 212.236 86.3842C213.221 85.4167 213.783 84.1011 213.801 82.7227C213.801 82.5684 213.801 82.4296 213.801 82.283L210.189 22.6097C210.093 21.1883 209.465 19.8547 208.429 18.8742C207.392 17.8937 206.024 17.3382 204.595 17.3181H204.549L103.203 17.5418L103.149 16.9633C102.986 15.106 102.138 13.375 100.769 12.1053C99.3996 10.8356 97.6067 10.1176 95.7371 10.0903L95.7526 10.1366Z" fill="#33315D"/>
<path d="M86.1903 6.82666H50.7578V51.25H86.1903V6.82666Z" fill="#33315D"/>
<g opacity="0.2">
<path d="M54.9664 6.82666H50.7578V41.2838H51.9105V38.7769H55.0051V41.2838H56.1578V6.82666H54.9664ZM51.8718 25.3396V20.3257H54.9664V25.3396H51.8718ZM54.9664 26.4812V31.4951H51.8718V26.4812H54.9664ZM51.8718 19.1763V14.1624H54.9664V19.1763H51.8718ZM51.8718 13.0053V7.99143H54.9664V13.0053H51.8718ZM51.8718 37.6892V32.6753H54.9664V37.6892H51.8718Z" fill="black"/>
</g>
<g opacity="0.2">
<path d="M85.0143 6.82666H80.8135V41.2838H81.9662V38.7769H85.0143V41.2838H86.167V6.82666H85.0143ZM81.9662 25.3396V20.3257H85.0143V25.3396H81.9662ZM85.0143 26.4812V31.4951H81.9971V26.4812H85.0143ZM81.9662 19.1763V14.1624H85.0143V19.1763H81.9662ZM81.9662 13.0053V7.99143H85.0143V13.0053H81.9662ZM81.9662 37.6892V32.6753H85.0143V37.6892H81.9662Z" fill="black"/>
</g>
<path opacity="0.2" d="M80.8435 41.2376L56.1182 41.2838V6.82666H80.8435V41.2376Z" fill="white"/>
<path opacity="0.2" d="M78.7087 24.5066C78.7102 26.5257 78.111 28.4998 76.9869 30.1792C75.8629 31.8587 74.2644 33.1679 72.3939 33.9413C70.5233 34.7146 68.4647 34.9174 66.4786 34.5239C64.4924 34.1303 62.668 33.1582 61.2361 31.7305C59.8042 30.3028 58.8293 28.4837 58.4346 26.5034C58.0399 24.523 58.2432 22.4705 59.0189 20.6054C59.7945 18.7403 61.1076 17.1465 62.7919 16.0258C64.4763 14.905 66.4562 14.3076 68.4812 14.3091C71.1937 14.3091 73.7951 15.3835 75.7131 17.2959C77.6311 19.2083 78.7087 21.8021 78.7087 24.5066Z" fill="white"/>
<path d="M65.7266 19.1768L74.2211 25.07L65.7266 30.971V19.1768Z" fill="white"/>
<path d="M74.222 25.0695L73.5721 25.5168L65.7197 20.071V19.1685L74.222 25.0695Z" fill="#33315D"/>
<path d="M64.3118 49.3212V45.796L62.5788 48.7041H61.9599L60.2579 45.8732V49.3212H58.9814V43.4434H60.1032L62.3158 47.0997L64.482 43.4434H65.6038V49.3212H64.3118Z" fill="white"/>
<path d="M69.1313 47.0148L68.3576 47.8402V49.3212H66.9883V43.4434H68.3421V46.1894L70.9493 43.4434H72.4966L70.0519 46.066L72.6435 49.3212H71.0499L69.1313 47.0148Z" fill="white"/>
<path d="M78.5459 43.4434L75.9929 49.3212H74.6468L72.1016 43.4434H73.5715L75.3663 47.6473L77.1843 43.4434H78.5459Z" fill="white"/>
<path d="M124.817 16.7236H89.3848V61.1469H124.817V16.7236Z" fill="#33315D"/>
<g opacity="0.2">
<path d="M93.5933 16.7236H89.3848V51.1808H90.5375V48.6584H93.632V51.1654H94.7847V16.7236H93.5933ZM90.4988 35.2366V30.2226H93.5933V35.2366H90.4988ZM93.5933 36.3859V41.3998H90.4988V36.3859H93.5933ZM90.4988 29.0733V24.0594H93.5933V29.0733H90.4988ZM90.4988 22.9023V17.8884H93.5933V22.9023H90.4988ZM90.4988 47.5399V42.4874H93.5933V47.5014L90.4988 47.5399Z" fill="black"/>
</g>
<g opacity="0.2">
<path d="M123.696 16.7236H119.495V51.1808H120.601V48.6584H123.696V51.1654H124.849V16.7236H123.696ZM120.648 35.2366V30.2226H123.696V35.2366H120.648ZM123.696 36.3859V41.3998H120.601V36.3859H123.696ZM120.601 29.0424V24.0285H123.696V29.0424H120.601ZM120.601 22.8715V17.8576H123.696V22.8715H120.601ZM120.601 47.5091V42.4874H123.696V47.5014L120.601 47.5091Z" fill="black"/>
</g>
<path opacity="0.2" d="M119.471 51.1422L94.7461 51.1808V16.7236H119.471V51.1422Z" fill="white"/>
<path opacity="0.2" d="M117.336 34.4108C117.336 36.4295 116.735 38.4029 115.61 40.0813C114.485 41.7598 112.886 43.0678 111.015 43.84C109.145 44.6122 107.086 44.8138 105.101 44.4194C103.115 44.025 101.291 43.0523 99.8603 41.6243C98.4292 40.1963 97.455 38.3772 97.061 36.397C96.6669 34.4169 96.8707 32.3647 97.6466 30.5001C98.4224 28.6355 99.7355 27.0422 101.42 25.9217C103.104 24.8013 105.083 24.204 107.108 24.2056C108.452 24.2056 109.782 24.4696 111.024 24.9825C112.265 25.4955 113.393 26.2473 114.343 27.1951C115.293 28.1428 116.046 29.2679 116.559 30.506C117.073 31.7441 117.337 33.071 117.336 34.4108Z" fill="white"/>
<path d="M104.354 29.0723L112.849 34.9733L104.354 40.8665V29.0723Z" fill="white"/>
<path d="M112.849 34.9655L112.207 35.4129L104.354 29.9671V29.0723L112.849 34.9655Z" fill="#33315D"/>
<path d="M103.527 57.9692H100.789L100.27 59.2265H98.8701L101.5 53.3486H102.847L105.485 59.2265H104.053L103.527 57.9692ZM103.102 56.9355L102.166 54.6831L101.261 56.9355H103.102Z" fill="white"/>
<path d="M111.441 53.3486L108.888 59.2265H107.542L104.997 53.3486H106.475L108.262 57.5449L110.088 53.3486H111.441Z" fill="white"/>
<path d="M111.929 53.3486H113.29V59.2265H111.929V53.3486Z" fill="white"/>
<path d="M163.283 0H127.851V44.4233H163.283V0Z" fill="#33315D"/>
<g opacity="0.2">
<path d="M132.051 0H127.851V34.4572H129.003V31.9502H132.051V34.4572H133.204V0H132.051ZM129.003 18.5129V13.499H132.051V18.5129H129.003ZM132.051 19.6546V24.6685H129.003V19.6546H132.051ZM129.003 12.3497V7.33575H132.051V12.3497H129.003ZM129.003 6.17869V1.14163H132.051V6.15555L129.003 6.17869ZM129.003 30.824V25.8101H132.051V30.824H129.003Z" fill="black"/>
</g>
<g opacity="0.2">
<path d="M162.131 0H157.93V34.4572H159.082V31.9502H162.131V34.4572H163.283V0H162.131ZM159.082 18.5129V13.499H162.131V18.5129H159.082ZM162.131 19.6546V24.6685H159.082V19.6546H162.131ZM159.082 12.3497V7.33575H162.131V12.3497H159.082ZM159.082 6.17869V1.14163H162.131V6.15555L159.082 6.17869ZM159.082 30.824V25.8101H162.131V30.824H159.082Z" fill="black"/>
</g>
<path opacity="0.2" d="M157.929 34.4109L133.204 34.4572V0H157.929V34.4109Z" fill="white"/>
<path opacity="0.2" d="M155.794 17.6804C155.794 19.6973 155.194 21.6689 154.07 23.3459C152.946 25.0229 151.349 26.3299 149.48 27.1017C147.611 27.8736 145.555 28.0755 143.571 27.682C141.587 27.2886 139.765 26.3173 138.334 24.8912C136.904 23.465 135.93 21.648 135.535 19.6699C135.141 17.6918 135.343 15.6414 136.117 13.778C136.891 11.9147 138.202 10.322 139.884 9.2015C141.566 8.08098 143.544 7.48291 145.566 7.48291C148.279 7.48291 150.88 8.55729 152.798 10.4697C154.716 12.3821 155.794 14.9759 155.794 17.6804Z" fill="white"/>
<path d="M142.812 12.3496L151.314 18.2429L142.812 24.1439V12.3496Z" fill="white"/>
<path d="M151.314 18.2429L150.664 18.6903L142.812 13.2444V12.3496L151.314 18.2429Z" fill="#33315D"/>
<path d="M141.397 42.4874V38.9545L139.664 41.8626H139.053L137.32 39.0317V42.4874H136.074V36.625H137.204L139.409 40.2736L141.582 36.625H142.704V42.5029L141.397 42.4874Z" fill="white"/>
<path d="M149.226 38.754C149.226 40.0653 148.235 40.8753 146.665 40.8753H145.435V42.4874H144.073V36.625H146.626C148.197 36.625 149.226 37.4349 149.226 38.754ZM147.841 38.754C147.841 38.106 147.423 37.7281 146.588 37.7281H145.435V39.7722H146.549C147.384 39.7722 147.802 39.4019 147.802 38.754H147.841Z" fill="white"/>
<path d="M155.005 41.2687H154.046V42.4874H152.715V41.2532H149.543V40.3353L152.32 36.625H153.752L151.175 40.1733H152.723V39.0702H154.007V40.1733H154.966L155.005 41.2687Z" fill="white"/>
<path d="M201.647 7.62891H166.215V52.0522H201.647V7.62891Z" fill="#33315D"/>
<g opacity="0.2">
<path d="M170.423 7.62891H166.245V42.0861H167.398V39.5868H170.454V42.0861H171.606V7.62891H170.423ZM167.367 26.1418V21.1279H170.423V26.1418H167.367ZM170.423 27.2912V32.3051H167.367V27.2912H170.423ZM167.367 19.9786V14.9647H170.423V19.9786H167.367ZM167.367 13.8076V8.77825H170.423V13.7922L167.367 13.8076ZM167.367 38.4915V33.4776H170.423V38.4915H167.367Z" fill="black"/>
</g>
<g opacity="0.2">
<path d="M200.503 7.62891H196.302V42.0861H197.454V39.5868H200.503V42.0861H201.655V7.62891H200.503ZM197.454 26.1418V21.1279H200.503V26.1418H197.454ZM200.503 27.2912V32.3051H197.454V27.2912H200.503ZM197.454 19.9786V14.9647H200.503V19.9786H197.454ZM197.454 13.8076V8.77825H200.503V13.7922L197.454 13.8076ZM197.454 38.4915V33.4776H200.503V38.4915H197.454Z" fill="black"/>
</g>
<path opacity="0.2" d="M196.302 42.0475L171.576 42.0861V7.62891H196.302V42.0475Z" fill="white"/>
<path opacity="0.2" d="M183.938 35.5137C189.587 35.5137 194.166 30.9481 194.166 25.3162C194.166 19.6842 189.587 15.1187 183.938 15.1187C178.29 15.1187 173.711 19.6842 173.711 25.3162C173.711 30.9481 178.29 35.5137 183.938 35.5137Z" fill="white"/>
<path d="M181.185 19.9785L189.679 25.8795L181.185 31.7728V19.9785Z" fill="white"/>
<path d="M189.686 25.8791L189.036 26.3265L181.191 20.8806V19.9858L189.686 25.8791Z" fill="#33315D"/>
<path d="M179.77 50.1313V46.6061L178.037 49.5142H177.418L175.692 46.6832V50.1313H174.408V44.2534H175.53L177.735 47.9097L179.909 44.2534H181.031V50.1313H179.77Z" fill="white"/>
<path d="M182.074 47.1919C182.039 46.549 182.197 45.9102 182.53 45.3583C182.862 44.8063 183.353 44.3666 183.939 44.0959C184.525 43.8252 185.179 43.7361 185.816 43.8401C186.454 43.944 187.045 44.2363 187.514 44.6791C187.983 45.1218 188.307 45.6947 188.446 46.3235C188.585 46.9523 188.531 47.6082 188.292 48.2063C188.053 48.8043 187.639 49.317 187.104 49.678C186.569 50.039 185.938 50.2316 185.293 50.2311C184.878 50.2542 184.463 50.1927 184.074 50.0503C183.684 49.908 183.328 49.6878 183.026 49.4032C182.725 49.1187 182.485 48.7758 182.321 48.3955C182.158 48.0153 182.074 47.6057 182.074 47.1919ZM187.142 47.1919C187.134 46.829 187.019 46.4764 186.811 46.1784C186.604 45.8803 186.312 45.65 185.974 45.5164C185.635 45.3828 185.265 45.3517 184.909 45.4271C184.553 45.5026 184.227 45.6811 183.972 45.9404C183.717 46.1997 183.545 46.5282 183.477 46.8847C183.409 47.2413 183.447 47.61 183.588 47.9446C183.729 48.2792 183.966 48.5649 184.269 48.7658C184.573 48.9667 184.929 49.0739 185.293 49.074C185.54 49.0808 185.786 49.0363 186.016 48.9435C186.246 48.8507 186.453 48.7115 186.626 48.5347C186.799 48.3579 186.934 48.1473 187.021 47.9162C187.108 47.6851 187.147 47.4385 187.134 47.1919H187.142Z" fill="white"/>
<path d="M195.017 44.2534L192.464 50.1313H191.118L188.58 44.2534H190.05L191.845 48.4497L193.663 44.2534H195.017Z" fill="white"/>
<path d="M137.172 81.2637H125.661C124.558 81.2415 123.501 80.8185 122.689 80.0742C121.877 79.3299 121.366 78.3155 121.251 77.2217L121.166 76.1958C121.11 75.6814 121.164 75.161 121.325 74.6692C121.486 74.1773 121.751 73.7253 122.1 73.343C122.45 72.9607 122.877 72.657 123.354 72.452C123.83 72.2469 124.345 72.1453 124.864 72.1538H136.376L137.172 81.2637Z" fill="#33315D"/>
<path d="M144.159 80.5391L137.544 77.2685L137.382 75.4172L143.424 72.1543L144.159 80.5391Z" fill="#33315D"/>
<path d="M145.032 80.5391H144.158L143.423 72.1543H144.297L145.032 80.5391Z" fill="#33315D"/>
<path d="M128.609 68.2444C128.653 68.6485 128.61 69.0574 128.484 69.4438C128.357 69.8302 128.149 70.1852 127.874 70.4852C127.598 70.7851 127.262 71.0232 126.887 71.1834C126.513 71.3437 126.108 71.4226 125.7 71.4147C124.835 71.4002 124.004 71.0694 123.367 70.485C122.729 69.9007 122.329 69.1034 122.242 68.2444C122.197 67.8403 122.239 67.4312 122.365 67.0444C122.491 66.6577 122.698 66.3021 122.972 66.0014C123.247 65.7007 123.582 65.4617 123.957 65.3005C124.331 65.1393 124.736 65.0594 125.143 65.0663C126.011 65.0809 126.843 65.4125 127.482 65.9983C128.121 66.5841 128.522 67.3833 128.609 68.2444Z" fill="#33315D"/>
<path d="M134.983 68.2445C135.026 68.6484 134.982 69.0568 134.855 69.4426C134.728 69.8285 134.52 70.1829 134.245 70.4826C133.97 70.7823 133.634 71.0204 133.26 71.1811C132.886 71.3418 132.482 71.4215 132.074 71.4149C131.208 71.4005 130.376 71.07 129.738 70.4858C129.099 69.9016 128.697 69.1042 128.608 68.2445C128.563 67.8397 128.605 67.43 128.732 67.0427C128.858 66.6554 129.066 66.2994 129.341 65.9986C129.616 65.6977 129.953 65.459 130.328 65.2982C130.704 65.1375 131.109 65.0585 131.517 65.0665C132.385 65.0827 133.216 65.4149 133.855 66.0003C134.493 66.5858 134.895 67.3841 134.983 68.2445Z" fill="#33315D"/>
<path d="M190.027 100.779C189.613 102.261 189.002 103.68 188.209 104.999C188.549 105.183 188.926 105.29 189.312 105.313C189.699 105.335 190.085 105.273 190.445 105.13L190.027 100.779Z" fill="#A02724"/>
<path d="M207.133 105.253L203.458 109.11L198.43 114.332C198.842 114.939 199.139 115.616 199.304 116.33C199.753 117.873 200.139 119.038 196.735 120.565C196.372 120.713 196.059 120.962 195.833 121.282C195.607 121.602 195.477 121.979 195.459 122.37C195.459 123.334 196.233 124.383 199.59 124.445C202.844 124.432 206.008 123.38 208.618 121.445C209.903 120.534 209.779 119.709 208.974 118.359C206.607 114.633 206.669 109.396 207.133 105.253Z" fill="#FF8B7B"/>
<path d="M188.837 100.525C188.791 101.042 188.976 101.482 189.247 101.497C189.518 101.512 189.766 101.119 189.804 100.602C189.843 100.085 189.665 99.6535 189.394 99.6303C189.123 99.6072 188.876 100.008 188.837 100.525Z" fill="#263238"/>
<path d="M189.293 97.6395C189.869 97.5658 190.454 97.6373 190.994 97.8475C191.535 98.0578 192.014 98.4 192.388 98.8429" stroke="#263238" stroke-linecap="round" stroke-linejoin="round"/>
<path d="M189.989 107.514C190.37 108.893 191.063 110.166 192.015 111.236C192.968 112.306 194.154 113.143 195.482 113.685C196.384 114.058 197.345 114.274 198.321 114.325C199.505 114.391 200.689 114.194 201.787 113.749C202.886 113.303 203.871 112.62 204.672 111.748C207.867 108.362 207.659 104.544 207.867 98.0488C207.929 96.5308 207.606 95.0218 206.927 93.6612C206.249 92.3007 205.238 91.1325 203.988 90.2645C202.737 89.3966 201.287 88.8569 199.772 88.6953C198.257 88.5337 196.726 88.7555 195.319 89.3401C189.014 92.0321 188.411 101.697 189.989 107.514Z" fill="#FF8B7B"/>
<path opacity="0.2" d="M195.482 113.715C196.385 114.089 197.346 114.305 198.322 114.356L198.43 114.309L197.811 113.106C197.811 113.106 197.432 114.132 195.482 113.715Z" fill="black"/>
<path d="M210.467 102.284C209.771 104.598 208.819 107.028 207.04 108.709C206.382 109.334 200.704 109.913 200.704 109.913C200.433 108 196.913 101.844 195.374 99.8849C195.157 100.841 194.801 104.968 194.476 105.878C193.834 105.878 192.821 104.891 192.821 104.891C193.863 102.219 194.131 99.3079 193.594 96.4909L193.37 95.3261C193.37 95.573 189.618 97.3317 187.792 93.9299C180.976 81.21 198.46 83.4701 203.311 88.4301C204.113 88.0725 204.998 87.941 205.869 88.0498C206.741 88.1586 207.566 88.5035 208.255 89.0472C209.625 90.1581 210.581 91.6956 210.97 93.4131C211.605 96.3613 211.432 99.4258 210.467 102.284Z" fill="#263238"/>
<path d="M205.315 85.5683C204.863 85.5554 204.418 85.6838 204.042 85.9355C203.666 86.1872 203.378 86.5496 203.219 86.9721C203.025 87.4735 202.832 88.6846 203.397 88.9391C203.914 87.7507 204.557 86.6207 205.315 85.5683Z" fill="#263238"/>
<path d="M199.729 101.542C199.424 102.98 198.598 104.254 197.409 105.122C195.861 106.217 194.314 104.659 194.36 102.807C194.36 101.157 195.467 98.8658 197.2 98.4955C198.933 98.1252 200.085 99.7683 199.729 101.542Z" fill="#FF8B7B"/>
<path d="M169.063 251.829L162.742 249.955L164.661 235.067L172.436 237.829L169.063 251.829Z" fill="#FF8B7B"/>
<path opacity="0.2" d="M173.31 233.679L165.102 230.632L163.872 241.338L171.152 243.375L173.31 233.679Z" fill="black"/>
<path d="M162.208 248.891L169.411 250.835C169.542 250.878 169.653 250.968 169.722 251.087C169.79 251.207 169.812 251.348 169.782 251.483L168.691 258.317C168.671 258.48 168.617 258.637 168.534 258.778C168.451 258.92 168.339 259.043 168.207 259.14C168.075 259.238 167.924 259.307 167.764 259.345C167.603 259.382 167.437 259.387 167.275 259.358C164.784 258.633 163.616 258.14 160.452 257.283C158.502 256.759 154.046 255.494 151.323 254.969C148.6 254.445 149.149 251.29 150.348 251.213C155.764 250.873 158.858 250.233 161.001 249.037C161.369 248.834 161.802 248.781 162.208 248.891Z" fill="#263238"/>
<path d="M158.843 249.91C159.413 250.028 159.994 250.084 160.576 250.079C160.605 250.083 160.633 250.076 160.657 250.06C160.681 250.045 160.699 250.022 160.708 249.995C160.723 249.97 160.731 249.942 160.731 249.914C160.731 249.885 160.723 249.857 160.708 249.833C160.538 249.64 159.006 247.974 158.155 248.089C158.057 248.099 157.964 248.136 157.885 248.194C157.806 248.252 157.744 248.331 157.706 248.421C157.629 248.553 157.588 248.704 157.588 248.857C157.588 249.01 157.629 249.16 157.706 249.293C157.997 249.629 158.402 249.849 158.843 249.91ZM160.259 249.771C159.052 249.686 158.209 249.493 157.985 249.115C157.939 249.029 157.918 248.933 157.925 248.836C157.932 248.739 157.966 248.646 158.023 248.567C158.039 248.522 158.067 248.482 158.104 248.45C158.14 248.419 158.185 248.398 158.232 248.39C158.681 248.321 159.625 249.123 160.259 249.771Z" fill="#33315D"/>
<path d="M160.583 250.079H160.653C160.679 250.072 160.703 250.058 160.722 250.039C160.741 250.02 160.754 249.997 160.761 249.971C160.761 249.894 161.373 248.089 160.87 247.31C160.807 247.209 160.723 247.124 160.622 247.061C160.521 246.998 160.408 246.959 160.289 246.947C160.16 246.919 160.026 246.936 159.907 246.995C159.789 247.054 159.695 247.151 159.64 247.271C159.322 247.935 159.957 249.5 160.506 250.033C160.515 250.045 160.526 250.056 160.54 250.064C160.553 250.072 160.568 250.077 160.583 250.079ZM160.328 247.271C160.448 247.303 160.551 247.38 160.614 247.487C160.824 248.185 160.799 248.933 160.545 249.616C160.059 248.988 159.835 248.198 159.918 247.41C159.918 247.325 160.026 247.233 160.251 247.263L160.328 247.271Z" fill="#33315D"/>
<path d="M201.06 171.144C201.06 171.144 165.697 171.028 164.552 190.498C163.43 204.182 162.718 209.782 163.399 239.603L172.814 240.12C172.814 240.12 182.392 207.854 181.1 195.041C191.652 195.041 215.805 195.959 219.31 186.471C221.055 181.653 221.904 176.559 221.816 171.437L201.06 171.144Z" fill="#33315D"/>
<g opacity="0.3">
<path d="M201.06 171.143C201.06 171.143 165.697 171.027 164.552 190.497C163.43 204.181 162.718 209.781 163.399 239.602L172.814 240.119C172.814 240.119 182.392 207.853 181.1 195.04C191.652 195.04 215.805 195.958 219.31 186.47C221.055 181.652 221.904 176.558 221.816 171.436L201.06 171.143Z" fill="black"/>
</g>
<path d="M174.338 241.941L162.037 239.843L162.238 234.413L174.972 237.236L174.338 241.941Z" fill="#33315D"/>
<path d="M144.654 253.782L138.697 250.966L142.867 236.549L150.132 240.452L144.654 253.782Z" fill="#FF8B7B"/>
<path opacity="0.2" d="M151.625 236.487L143.989 232.229L141.127 242.628L148.012 245.744L151.625 236.487Z" fill="black"/>
<path d="M138.334 249.831L145.15 252.855C145.273 252.915 145.368 253.019 145.419 253.146C145.469 253.273 145.469 253.414 145.421 253.542L143.293 260.137C143.247 260.293 143.17 260.438 143.067 260.565C142.964 260.691 142.837 260.795 142.692 260.871C142.548 260.947 142.39 260.994 142.228 261.008C142.065 261.023 141.901 261.004 141.746 260.955C139.425 259.851 138.311 259.188 135.317 257.869C133.468 257.051 129.267 255.123 126.644 254.22C124.022 253.318 125.059 250.248 126.258 250.364C131.634 250.857 134.768 250.688 137.089 249.839C137.285 249.756 137.497 249.713 137.711 249.711C137.924 249.71 138.136 249.751 138.334 249.831Z" fill="#263238"/>
<path d="M134.853 250.325C135.396 250.527 135.959 250.672 136.532 250.757C136.561 250.765 136.592 250.763 136.62 250.752C136.647 250.741 136.671 250.721 136.687 250.695C136.702 250.671 136.71 250.643 136.71 250.614C136.71 250.586 136.702 250.558 136.687 250.533C136.555 250.317 135.294 248.443 134.435 248.428C134.335 248.421 134.236 248.441 134.147 248.488C134.058 248.534 133.984 248.604 133.933 248.69C133.837 248.808 133.774 248.95 133.75 249.1C133.725 249.25 133.74 249.404 133.793 249.546C134.035 249.93 134.414 250.209 134.853 250.325ZM136.269 250.41C135.093 250.14 134.288 249.816 134.126 249.415C134.096 249.323 134.09 249.224 134.111 249.129C134.131 249.034 134.176 248.947 134.242 248.875C134.268 248.833 134.303 248.798 134.344 248.773C134.386 248.747 134.433 248.732 134.482 248.728C134.938 248.736 135.743 249.662 136.269 250.41Z" fill="#33315D"/>
<path d="M136.539 250.757H136.609C136.636 250.752 136.662 250.74 136.684 250.725C136.707 250.709 136.726 250.688 136.74 250.665C136.74 250.587 137.63 248.898 137.251 248.057C137.205 247.948 137.134 247.851 137.044 247.773C136.954 247.696 136.848 247.64 136.733 247.61C136.609 247.563 136.473 247.558 136.347 247.597C136.22 247.636 136.111 247.717 136.036 247.826C135.626 248.435 136.036 250.078 136.477 250.688C136.489 250.717 136.511 250.742 136.539 250.757ZM136.717 247.942C136.775 247.964 136.827 247.999 136.871 248.043C136.915 248.086 136.949 248.139 136.972 248.196C137.072 248.92 136.933 249.656 136.578 250.294C136.182 249.59 136.08 248.759 136.292 247.98C136.292 247.895 136.423 247.826 136.647 247.888L136.717 247.942Z" fill="#33315D"/>
<path d="M189.944 171.145C189.696 171.145 150.558 167.342 147.935 189.534C143.781 216.702 141.166 239.604 141.166 239.604L149.405 243.677C149.405 243.677 163.764 214.681 163.547 196.5C175.02 193.214 204.705 198.729 208.217 189.249C211.087 181.489 209.532 171.145 209.532 171.145H189.944Z" fill="#33315D"/>
<path opacity="0.3" d="M189.944 171.145C189.696 171.145 150.558 167.342 147.935 189.534C143.781 216.702 141.166 239.604 141.166 239.604L149.405 243.677C149.405 243.677 163.764 214.681 163.547 196.5C175.02 193.214 204.705 198.729 208.217 189.249C211.087 181.489 209.532 171.145 209.532 171.145H189.944Z" fill="black"/>
<path d="M150.727 244.856L139.672 239.896L140.562 235.384L152.22 239.395L150.727 244.856Z" fill="#33315D"/>
<path d="M208.866 122.941C209.755 125.378 210.452 127.716 211.187 130.138C211.921 132.56 212.463 134.974 212.989 137.443C213.515 139.911 213.933 142.426 214.227 145.018C214.552 147.719 214.591 150.446 214.343 153.156C214.195 154.744 213.817 156.303 213.221 157.784C212.851 158.691 212.356 159.542 211.751 160.314C211.399 160.752 211.002 161.152 210.568 161.509L210.219 161.795C210.034 161.926 209.825 162.073 209.624 162.188C209.292 162.374 208.942 162.527 208.579 162.643C208.046 162.828 207.493 162.952 206.932 163.014C206.488 163.07 206.041 163.096 205.593 163.091C204.834 163.073 204.077 163.008 203.326 162.898C201.991 162.725 200.668 162.468 199.365 162.127C194.506 160.797 189.792 158.989 185.293 156.727L186.732 152.739C191.374 153.719 196.17 154.745 200.696 155.346C201.833 155.447 202.924 155.593 203.953 155.632C204.413 155.647 204.873 155.632 205.33 155.585C205.709 155.585 206.042 155.447 205.934 155.439L205.709 155.524C205.633 155.563 205.56 155.609 205.493 155.663L205.57 155.547C205.685 155.344 205.778 155.129 205.848 154.907C206.088 154.106 206.228 153.28 206.266 152.446C206.35 150.312 206.221 148.175 205.879 146.067C205.57 143.799 205.106 141.577 204.587 139.309C204.069 137.042 203.489 134.774 202.839 132.506C202.189 130.238 201.485 127.955 200.789 125.81L208.866 122.941Z" fill="#FF8B7B"/>
<path d="M188.682 154.012L183.993 150.811L181.046 155.918C181.046 155.918 186.601 158.818 187.947 157.46L188.682 154.012Z" fill="#FF8B7B"/>
<path d="M179.886 151.466L177.317 154.829L181.023 155.878L183.971 150.772L179.886 151.466Z" fill="#FF8B7B"/>
<path d="M159.786 149.515L152.916 148.743L150.943 156.272C150.943 156.272 158.796 156.341 160.034 154.096L159.786 149.515Z" fill="#FF8B7B"/>
<path d="M147.764 151.528L146.589 154.413C146.506 154.612 146.474 154.829 146.496 155.044C146.517 155.259 146.591 155.465 146.711 155.645C146.831 155.824 146.993 155.972 147.183 156.075C147.374 156.177 147.587 156.232 147.803 156.233H150.944L152.917 148.705L148.43 150.795C148.124 150.948 147.887 151.21 147.764 151.528Z" fill="#FF8B7B"/>
<path d="M219.503 121.39C218.938 119.901 216.331 118.413 214.722 118.413H213.662C211.518 118.44 209.377 118.587 207.249 118.852C202.98 119.323 198.741 120.033 194.553 120.981C192.772 121.456 191.016 122.023 189.293 122.678H189.238C188.404 123.008 187.705 123.608 187.253 124.382C186.802 125.155 186.623 126.058 186.747 126.944C187.405 131.734 188.674 141.477 189.432 151.173C190.028 158.74 189.78 166.253 189.973 171.421H221.824C222.923 165.212 222.745 159.797 222.837 148.589C222.907 141.847 221.808 127.515 219.503 121.39Z" fill="#33315D"/>
<path opacity="0.8" d="M219.503 121.39C218.938 119.901 216.331 118.413 214.722 118.413H213.662C211.518 118.44 209.377 118.587 207.249 118.852C202.98 119.323 198.741 120.033 194.553 120.981C192.772 121.456 191.016 122.023 189.293 122.678H189.238C188.404 123.008 187.705 123.608 187.253 124.382C186.802 125.155 186.623 126.058 186.747 126.944C187.405 131.734 188.674 141.477 189.432 151.173C190.028 158.74 189.78 166.253 189.973 171.421H221.824C222.923 165.212 222.745 159.797 222.837 148.589C222.907 141.847 221.808 127.515 219.503 121.39Z" fill="white"/>
<path d="M191.97 123.042C192.589 123.274 193.156 123.625 193.638 124.077C194.12 124.529 194.508 125.071 194.778 125.673C195.048 126.275 195.197 126.924 195.214 127.583C195.231 128.242 195.117 128.898 194.879 129.513C192.604 135.384 188.783 144.694 187.096 147.965C186.454 149.129 185.812 150.279 185.085 151.459C184.713 152.045 184.311 152.624 183.87 153.225C183.623 153.534 183.437 153.812 183.151 154.128L182.741 154.598L182.509 154.861C181.863 155.544 181.069 156.072 180.188 156.403C179.729 156.581 179.258 156.728 178.78 156.843C177.993 157.014 177.193 157.119 176.389 157.159C175.006 157.252 173.618 157.252 172.235 157.159C167.113 156.736 162.048 155.793 157.118 154.344L156.592 149.137C161.458 149.276 166.432 149.438 171.074 149.207C172.165 149.145 173.256 149.029 174.339 148.859C174.775 148.786 175.205 148.678 175.623 148.536C175.759 148.488 175.888 148.426 176.01 148.35C176.049 148.35 176.01 148.296 175.817 148.443C175.747 148.49 175.682 148.545 175.623 148.605L175.693 148.512L175.879 148.266C176.002 148.119 176.142 147.88 176.281 147.687C176.552 147.278 176.83 146.831 177.101 146.353C177.635 145.411 178.145 144.378 178.648 143.329C179.654 141.231 180.567 139.017 181.456 136.788C182.083 135.198 183.932 130.385 185.495 126.089C185.719 125.466 186.065 124.893 186.513 124.405C186.962 123.916 187.503 123.522 188.106 123.244C188.708 122.966 189.36 122.811 190.024 122.787C190.687 122.762 191.349 122.87 191.97 123.103V123.042Z" fill="#33315D"/>
<path opacity="0.2" d="M188.76 143.537C189 146.391 188.914 145.465 189.178 148.458C196.953 136.479 194.384 128.572 194.384 128.572L188.76 143.537Z" fill="black"/>
<path opacity="0.8" d="M191.97 123.042C192.589 123.274 193.156 123.625 193.638 124.077C194.12 124.529 194.508 125.071 194.778 125.673C195.048 126.275 195.197 126.924 195.214 127.583C195.231 128.242 195.117 128.898 194.879 129.513C192.604 135.384 188.783 144.694 187.096 147.965C186.454 149.129 185.812 150.279 185.085 151.459C184.713 152.045 184.311 152.624 183.87 153.225C183.623 153.534 183.437 153.812 183.151 154.128L182.741 154.598L182.509 154.861C181.863 155.544 181.069 156.072 180.188 156.403C179.729 156.581 179.258 156.728 178.78 156.843C177.993 157.014 177.193 157.119 176.389 157.159C175.006 157.252 173.618 157.252 172.235 157.159C167.113 156.736 162.048 155.793 157.118 154.344L156.592 149.137C161.458 149.276 166.432 149.438 171.074 149.207C172.165 149.145 173.256 149.029 174.339 148.859C174.775 148.786 175.205 148.678 175.623 148.536C175.759 148.488 175.888 148.426 176.01 148.35C176.049 148.35 176.01 148.296 175.817 148.443C175.747 148.49 175.682 148.545 175.623 148.605L175.693 148.512L175.879 148.266C176.002 148.119 176.142 147.88 176.281 147.687C176.552 147.278 176.83 146.831 177.101 146.353C177.635 145.411 178.145 144.378 178.648 143.329C179.654 141.231 180.567 139.017 181.456 136.788C182.083 135.198 183.932 130.385 185.495 126.089C185.719 125.466 186.065 124.893 186.513 124.405C186.962 123.916 187.503 123.522 188.106 123.244C188.708 122.966 189.36 122.811 190.024 122.787C190.687 122.762 191.349 122.87 191.97 123.103V123.042Z" fill="white"/>
<path d="M181.518 260.122C181.518 260.762 181.327 261.389 180.97 261.922C180.613 262.454 180.106 262.87 179.512 263.115C178.919 263.36 178.265 263.424 177.635 263.299C177.005 263.174 176.426 262.866 175.971 262.412C175.517 261.959 175.207 261.382 175.082 260.754C174.957 260.125 175.021 259.474 175.267 258.882C175.513 258.29 175.929 257.784 176.464 257.428C176.998 257.072 177.626 256.882 178.269 256.882C179.131 256.882 179.957 257.223 180.566 257.831C181.176 258.438 181.518 259.262 181.518 260.122Z" fill="#646464"/>
<path d="M229.213 260.122C229.213 260.762 229.403 261.389 229.76 261.922C230.118 262.454 230.625 262.87 231.219 263.115C231.812 263.36 232.466 263.424 233.096 263.299C233.726 263.174 234.305 262.866 234.76 262.412C235.214 261.959 235.524 261.382 235.649 260.754C235.774 260.125 235.71 259.474 235.464 258.882C235.218 258.29 234.802 257.784 234.267 257.428C233.733 257.072 233.105 256.882 232.462 256.882C231.6 256.882 230.774 257.223 230.165 257.831C229.555 258.438 229.213 259.262 229.213 260.122Z" fill="#263238"/>
<path d="M201.061 259.087C201.061 259.728 201.251 260.355 201.608 260.887C201.965 261.42 202.473 261.835 203.066 262.081C203.66 262.326 204.313 262.39 204.944 262.265C205.574 262.14 206.153 261.831 206.607 261.378C207.062 260.925 207.371 260.348 207.497 259.719C207.622 259.091 207.558 258.44 207.312 257.848C207.066 257.256 206.649 256.75 206.115 256.394C205.581 256.038 204.952 255.848 204.31 255.848C203.448 255.848 202.622 256.189 202.012 256.797C201.403 257.404 201.061 258.228 201.061 259.087Z" fill="#646464"/>
<path d="M239.54 255.771C239.465 256.137 239.263 256.464 238.97 256.696C238.678 256.929 238.313 257.052 237.939 257.044L204.069 256.581L172.35 257.291C171.94 257.337 171.528 257.219 171.205 256.962C170.882 256.705 170.675 256.331 170.629 255.922C170.583 255.513 170.701 255.102 170.959 254.78C171.217 254.458 171.592 254.251 172.002 254.205L189.324 250.85C191.109 250.512 192.922 250.342 194.739 250.341H213.353C215.17 250.342 216.983 250.512 218.768 250.85L238.233 253.935C238.443 253.964 238.644 254.035 238.825 254.144C239.006 254.254 239.163 254.399 239.286 254.571C239.408 254.743 239.494 254.938 239.538 255.145C239.582 255.351 239.583 255.564 239.54 255.771Z" fill="#646464"/>
<path d="M209.825 222.139H198.306V255.2H209.825V222.139Z" fill="#646464"/>
<path d="M208.178 201.197H199.962V222.31H208.178V201.197Z" fill="#646464"/>
<path opacity="0.2" d="M199.962 205.108L208.178 207.175V201.197H199.962V205.108Z" fill="black"/>
<path d="M173.781 171.029H169.611V188.786H173.781V171.029Z" fill="#263238"/>
<path d="M173.781 171.029H169.611V188.786H173.781V171.029Z" fill="#646464"/>
<path d="M201.455 131.194C201.377 131.676 201.339 132.163 201.339 132.652V201.157H194.709V132.683C194.705 132.629 194.705 132.575 194.709 132.521L201.455 131.194Z" fill="#646464"/>
<path d="M240.059 201.112V201.189H238.968C239.333 201.186 239.697 201.16 240.059 201.112Z" fill="#263238"/>
<path d="M246.705 130.786L246.217 122.648C246.076 120.351 245.122 118.178 243.525 116.516L238.318 111.116L235.642 97.5554C235.442 96.5308 234.892 95.6073 234.085 94.943C233.277 94.2787 232.263 93.9152 231.216 93.9146H219.217C218.271 93.917 217.349 94.2164 216.583 94.7701C215.816 95.3239 215.244 96.104 214.947 97L209.926 111.587L200.348 117.465C199.139 118.207 198.106 119.204 197.323 120.386C196.54 121.568 196.025 122.906 195.815 124.307L194.577 132.614H194.716L201.455 131.318C201.377 131.8 201.338 132.288 201.339 132.776V201.282H238.968C239.343 201.28 239.718 201.254 240.09 201.205C241.933 200.937 243.617 200.016 244.833 198.611C246.05 197.205 246.717 195.409 246.712 193.553V132.082C246.711 131.641 246.683 131.201 246.627 130.763L246.705 130.786ZM214.916 125.618L203.311 126.721L202.801 126.767L204.046 121.476L211.821 117.735L214.405 116.493L214.916 117.735L215.001 117.943L215.473 119.084L214.916 125.618ZM237.901 125.749L236.439 125.387C236.384 124.931 236.322 124.469 236.268 124.013C235.943 121.476 235.649 119.084 235.649 119.084L235.765 118.251L236.005 116.493L241.537 121.476L241.614 122.656L241.9 126.767L237.901 125.749Z" fill="#646464"/>
<path d="M201.339 186.263V201.189H157.628C156.677 201.196 155.742 200.95 154.918 200.478C154.094 200.005 153.41 199.322 152.938 198.5C152.466 197.677 152.221 196.744 152.23 195.796C152.238 194.848 152.499 193.919 152.986 193.105C154.217 191.021 155.972 189.293 158.078 188.093C160.184 186.893 162.568 186.262 164.993 186.263H201.339Z" fill="#646464"/>
<path d="M185.874 176.451C176.688 173.25 166.684 173.25 157.497 176.451C156.576 176.797 155.561 176.794 154.642 176.445C153.723 176.095 152.963 175.423 152.507 174.554C151.656 172.756 152.793 170.435 155.114 169.625C165.838 165.884 177.518 165.884 188.241 169.625C190.562 170.396 191.7 172.756 190.849 174.554C190.391 175.418 189.635 176.087 188.72 176.436C187.804 176.785 186.793 176.791 185.874 176.451Z" fill="#263238"/>
<path opacity="0.4" d="M185.874 176.451C176.688 173.25 166.684 173.25 157.497 176.451C156.576 176.797 155.561 176.794 154.642 176.445C153.723 176.095 152.963 175.423 152.507 174.554C151.656 172.756 152.793 170.435 155.114 169.625C165.838 165.884 177.518 165.884 188.241 169.625C190.562 170.396 191.7 172.756 190.849 174.554C190.391 175.418 189.635 176.087 188.72 176.436C187.804 176.785 186.793 176.791 185.874 176.451Z" fill="#646464"/>
</svg>
