<svg width="300" height="107" viewBox="0 0 300 107" fill="none" xmlns="http://www.w3.org/2000/svg">
<g clip-path="url(#clip0_628_2019)">
<path fill-rule="evenodd" clip-rule="evenodd" d="M8.00026 13.8345V27.6682L8.96851 26.736C12.018 23.8012 16.5765 21.159 21.9998 19.182L23.8125 18.522L23.8448 9.261L23.8763 0H15.9383H8.00026V13.8345ZM41.7503 6.87525C41.7503 10.656 41.781 13.7498 41.8178 13.7498C42.0083 13.7498 46.203 12.6592 48.0623 12.126C51.2543 11.2117 53.8163 10.266 56.6565 8.9535L57.6248 8.5065V4.25325V0H49.6875H41.7503V6.87525ZM286 0.75V1.37475H287.062H288.125V4.25025V7.125H288.812H289.5V4.25025V1.37475H290.563H291.625V0.75V0.12525H288.812H286V0.75ZM292.5 3.62025V7.125H293.188H293.875L293.879 4.719L293.884 2.31225L294.227 3.1875C294.416 3.669 294.817 4.75125 295.121 5.5935L295.673 7.125H296.258H296.842L297.702 4.78125L298.562 2.4375L298.597 4.78125L298.631 7.125H299.315H300V3.62025V0.11475L298.984 0.1515L297.967 0.1875L297.422 1.62525C297.122 2.41575 296.755 3.3885 296.606 3.7875C296.297 4.62075 296.232 4.59675 295.819 3.4905C295.654 3.04875 295.303 2.12475 295.039 1.43775L294.561 0.1875L293.53 0.1515L292.5 0.11475V3.62025ZM179.875 38.3123V62.25H185.687H191.5V38.3123V14.3752H185.687H179.875V38.3123ZM154.633 28.3838C151.727 28.6403 148.113 29.4083 146 30.2175L145.063 30.5768L145.1 34.5022C145.14 38.8132 145.117 38.616 145.55 38.3325C146.966 37.4048 150.476 36.414 153.357 36.1283C159.546 35.5155 162.913 37.179 163.287 41.0348C163.337 41.544 163.315 41.6235 163.142 41.5732C161.72 41.1607 155.975 41.0783 153.313 41.4323C144.927 42.5475 140.883 46.1663 140.878 52.5623C140.873 58.872 145.208 62.709 152.625 62.9587C157.472 63.1222 160.745 61.599 163.253 58.0117L163.813 57.2107L163.892 58.0117C163.934 58.452 164.011 59.586 164.06 60.531L164.15 62.25H169.464H174.778L174.694 61.8052C174.269 59.5387 174.221 58.434 174.127 48.9998C174.026 38.7533 174.04 38.9737 173.355 36.8752C171.299 30.5722 164.54 27.5063 154.633 28.3838ZM209.258 28.3838C206.338 28.6418 203.317 29.28 200.875 30.1538L199.688 30.5782L199.724 33.8205C199.744 35.6033 199.791 37.38 199.828 37.7677L199.897 38.4728L201.104 37.9065C207.095 35.0962 215.094 35.4382 217.1 38.5905C217.718 39.5625 218.198 41.6985 217.77 41.5747C213.535 40.353 204.166 41.5282 200.375 43.7565C193.502 47.796 193.852 57.963 200.987 61.5562C204.594 63.372 210.184 63.4905 213.562 61.8218C215.293 60.9675 216.881 59.5155 218.115 57.6615L218.465 57.135L218.544 58.3485C218.587 59.016 218.659 60.1673 218.704 60.906L218.787 62.25H224.095H229.402L229.319 61.803C228.881 59.4652 228.843 58.626 228.751 49.0627C228.651 38.7458 228.665 38.976 227.98 36.8752C225.927 30.5805 219.152 27.5078 209.258 28.3838ZM274.312 28.3237C271.625 28.5832 270.855 28.683 269.5 28.9508C267.992 29.2485 265.859 29.847 264.562 30.3368L263.938 30.5723L263.981 34.5052C264.005 36.6675 264.042 38.4555 264.063 38.478C264.084 38.4998 264.43 38.3498 264.832 38.1443C269.293 35.865 276.451 35.3183 279.633 37.0148C281.014 37.7505 281.857 38.988 282.124 40.6725C282.289 41.7127 282.431 41.6235 280.937 41.409C275.024 40.5615 267.667 41.73 264.064 44.0902C257.518 48.378 258.485 58.7805 265.711 61.7985C272.078 64.458 278.655 62.9242 282.171 57.9585L282.688 57.2302L282.767 57.7087C282.811 57.972 282.887 59.1015 282.937 60.219L283.027 62.25H288.325C292.482 62.25 293.625 62.2162 293.624 62.094C293.624 62.0077 293.542 61.4595 293.443 60.8752C293.11 58.9215 293 55.7445 293 48.1028C293 38.829 292.919 38.0663 291.644 35.4375C289.78 31.5938 286.408 29.4195 280.875 28.494C280.061 28.3575 275.251 28.233 274.312 28.3237ZM227.25 28.9515C227.25 29.0385 230.305 34.3935 230.629 34.875C230.744 35.0468 230.993 35.469 231.182 35.8125C231.514 36.4185 232.644 38.37 232.883 38.7502C233.128 39.141 239.156 49.5727 239.324 49.8975C239.468 50.1757 239.5 51.3247 239.5 56.244V62.25H245.25H251V56.2785V50.3078L256 41.5732C258.75 36.7695 261 32.8207 261 32.7982C261 32.7757 261.274 32.292 261.608 31.7228C261.943 31.1535 262.446 30.2798 262.727 29.781L263.237 28.875H256.826H250.414L248.343 33.7185C247.102 36.621 246.082 39.1995 245.802 40.1505C245.329 41.7488 245.222 41.916 245.07 41.2822C244.892 40.5352 243.969 37.815 243.688 37.2068C243.524 36.852 243.251 36.225 243.081 35.8125C242.911 35.4 242.596 34.6815 242.38 34.2157C242.164 33.75 241.831 32.991 241.64 32.5282C241.448 32.0655 241.021 31.0545 240.689 30.2812L240.087 28.875H233.669C230.138 28.875 227.25 28.9095 227.25 28.9515ZM101.813 29.1427C97.7858 29.6542 94.2743 31.923 92.4833 35.1705L92.1293 35.8125L92.127 32.781L92.1248 29.7502H86.8125H81.5003V46.3748V63H87.3038H93.108L93.1628 54.531C93.2213 45.48 93.2355 45.2565 93.888 43.2577C95.7465 37.563 102.298 36.903 103.755 42.2633C104.092 43.5068 104.093 43.5262 104.11 53.9062L104.125 63H109.942H115.759L115.75 54.906C115.739 45.354 115.869 44.0198 117.032 41.7698C118.956 38.0468 124.136 37.5457 125.789 40.9222C126.583 42.5437 126.553 42.099 126.596 53.031L126.634 63H132.451H138.269L138.216 51.531C138.153 37.8165 138.089 37.11 136.642 34.0627C133.258 26.9422 119.703 27.3203 115.056 34.665L114.716 35.2028L114.302 34.4093C112.178 30.3345 107.607 28.407 101.813 29.1427ZM63.8753 46.3748V63H69.8123H75.75V46.3748V29.7502H69.8123H63.8753V46.3748ZM56.8748 34.6388C53.3858 37.8278 49.9118 39.8505 43.7828 42.2633L41.7525 43.0627L41.751 53.031L41.7503 63H49.6875H57.6248V48.5002C57.6248 40.5247 57.6113 34.0027 57.594 34.0057C57.5768 34.0087 57.2528 34.2938 56.8748 34.6388ZM162.953 47.5778C163.334 47.6453 163.34 47.6595 163.286 48.2295C162.842 52.7985 159.066 55.935 154.979 55.131C150.536 54.2565 150.556 49.224 155.008 47.865C156.465 47.4202 161.105 47.253 162.953 47.5778ZM216.157 47.487C218.179 47.601 217.993 47.4878 217.864 48.5288C217.297 53.1128 213.412 56.0497 209.246 55.044C205.72 54.1935 205.288 49.9125 208.562 48.279C210.167 47.478 212.216 47.2643 216.157 47.487ZM281.846 47.5815L282.255 47.6535L282.181 48.2955C281.642 52.959 277.585 56.1525 273.562 55.0808C269.421 53.9768 269.498 49.29 273.68 47.9385C275.279 47.4217 279.819 47.2238 281.846 47.5815ZM20.4998 48.4958C15.6615 49.7393 13.038 50.6318 9.40651 52.2705L8.00026 52.905V57.9525V63H15.9375H23.8748V55.3125C23.8748 51.084 23.8613 47.6295 23.844 47.6348C23.8268 47.64 22.3215 48.0278 20.4998 48.4958ZM13.3125 84.327C9.71701 84.7777 7.81276 86.7413 7.81276 89.997C7.81276 92.553 8.61826 93.7822 11.469 95.5732C13.986 97.155 14.1878 97.2825 14.6835 97.6103C17.3955 99.4005 17.7143 102.01 15.3713 103.23C13.437 104.237 10.6418 103.428 8.58526 101.265C8.18476 100.844 7.83301 100.5 7.80376 100.5C7.77451 100.5 7.74976 101.415 7.74976 102.534V104.567L8.59351 105.077C14.3265 108.538 20.7945 105.446 19.8968 99.6728C19.5315 97.3245 18.3023 95.898 14.9168 93.894C11.541 91.8953 10.707 91.065 10.6935 89.6873C10.6658 86.7893 15.5363 86.3625 18.5333 89.0002L19.125 89.5215V87.642V85.7617L18.0938 85.257C16.6223 84.5355 14.673 84.1567 13.3125 84.327ZM110.625 84.3765C104.237 85.0027 99.636 90.5287 100.364 96.7012C100.516 97.989 101.2 100.2 101.625 100.776C101.762 100.963 101.875 101.149 101.875 101.191C101.875 101.675 103.841 103.757 105.108 104.614C108.59 106.973 114.842 107.158 119.125 105.029L119.812 104.687L119.847 102.894L119.882 101.1L119.222 101.495C112.024 105.799 104.025 102.941 103.664 95.9377C103.292 88.7055 110.671 85.215 118.438 88.9492L119.563 89.49L119.597 87.7905C119.617 86.8553 119.608 86.0662 119.578 86.0362C119.177 85.635 115.158 84.5595 113.393 84.381C111.999 84.24 112.021 84.24 110.625 84.3765ZM223.063 84.3772C216.127 85.3162 215.742 95.7397 222.596 97.0177C223.808 97.2435 226.219 96.864 226.844 96.3487C227.176 96.0742 225.875 99.0022 225.499 99.375C225.465 99.4095 225.121 99.831 224.735 100.312C223.722 101.578 222.9 102.374 221.625 103.326C220.279 104.331 220.302 104.129 221.392 105.398C222.495 106.683 222.314 106.643 223.459 105.854C233.725 98.7653 233.433 82.9717 223.063 84.3772ZM252.313 84.4238C251.831 84.516 251.1 84.726 250.688 84.8902L249.938 85.1887L249.902 86.7195C249.883 87.5767 249.917 88.2502 249.98 88.2502C250.043 88.2502 250.424 88.1033 250.828 87.924C254.729 86.19 258.182 88.1107 257.187 91.4617C256.825 92.6805 255.698 93.3833 253.792 93.5783L252.992 93.66L253.027 95.1008L253.063 96.5423L254.335 96.7553C256.751 97.1603 257.878 98.5815 257.482 100.724C256.984 103.423 254.155 104.132 250.645 102.438C250.003 102.128 249.454 101.875 249.426 101.875C249.398 101.875 249.375 102.657 249.375 103.613V105.352L250.281 105.728C255.749 107.997 260.885 105.166 260.873 99.8895C260.868 97.7018 259.919 95.79 258.512 95.13L257.878 94.8337L258.482 94.4265C261.41 92.4548 261.27 87.4118 258.232 85.383C256.788 84.4185 254.373 84.027 252.313 84.4238ZM285.392 84.3787C277.465 85.5315 277.034 104.309 284.888 106.326C287.153 106.907 289.201 106.099 290.98 103.92C291.46 103.331 292.37 101.369 292.682 100.25C294.657 93.1538 291.874 85.1415 287.165 84.3705C286.363 84.2393 286.35 84.2392 285.392 84.3787ZM38.3753 95.4375V106.25H39.9998H41.625V95.4375V84.6248H39.9998H38.3753V95.4375ZM61.3748 95.4412V106.258L62.9063 106.223L64.4378 106.187L64.5 98.0033L64.5623 89.8185L64.854 90.1905C65.0145 90.3952 65.352 90.7875 65.6048 91.0627C65.8575 91.3372 66.2265 91.7595 66.4245 92.0002C66.6225 92.2402 67.1078 92.8028 67.5015 93.2498C67.896 93.6968 69.1665 95.1593 70.3253 96.5003C71.4833 97.8405 72.489 98.9993 72.5595 99.075C72.63 99.1508 74.0595 100.796 75.7358 102.731L78.7838 106.25H80.2043H81.6248V95.4375V84.6248H80.0633H78.5018L78.4695 92.8552L78.4373 101.085L75.1253 97.2697C73.3028 95.172 71.1683 92.7203 70.3815 91.8218C69.594 90.9225 68.835 90.0525 68.694 89.8875C68.553 89.7225 67.4648 88.4707 66.276 87.1065L64.1153 84.6248H62.745H61.3748V95.4412ZM138.625 95.4375V106.25H145H151.375V104.812V103.375H146.625H141.875V100.063V96.75H146.312H150.75V95.3123V93.8752H146.312H141.875V90.6877V87.5002H146.438H151V86.0625V84.6248H144.812H138.625V95.4375ZM191.958 84.708C191.912 84.7545 191.875 89.6198 191.875 95.5208V106.25H193.5H195.125V95.4375V84.6248H193.583C192.736 84.6248 192.005 84.6623 191.958 84.708ZM225.246 87.4478C227.069 87.9893 228.24 90.5858 227.639 92.7488C227.381 93.675 224.594 94.4055 223.16 93.924C218.876 92.484 220.913 86.1608 225.246 87.4478ZM287.223 87.5685C290.824 89.0708 291.008 101.091 287.462 103.125C284.769 104.669 282.688 101.749 282.532 96.21C282.356 89.9175 284.294 86.3475 287.223 87.5685Z" fill="white"/>
<path fill-rule="evenodd" clip-rule="evenodd" d="M63.8108 46.3126C63.8108 55.4566 63.8258 59.1788 63.8438 54.5843C63.8618 49.9898 63.8618 42.5086 63.8438 37.9591C63.8258 33.4096 63.8108 37.1686 63.8108 46.3126ZM115.654 48.3751C115.654 48.6158 115.68 48.7141 115.712 48.5941C115.742 48.4733 115.742 48.2768 115.712 48.1561C115.68 48.0361 115.654 48.1343 115.654 48.3751Z" fill="white"/>
<path fill-rule="evenodd" clip-rule="evenodd" d="M64.5953 6.86622C58.7063 11.907 52.8623 14.3565 39.2498 17.4892C27.4875 20.196 22.6755 21.7335 17.25 24.5197C7.46775 29.5432 1.07625 37.9995 0.069751 47.25L-0.00524902 47.9377L0.278251 47.571C0.435001 47.3692 0.977251 46.6477 1.485 45.9667C4.6695 41.6932 9.1095 38.3197 15.3435 35.4382C19.6313 33.456 22.0253 32.6107 33.2498 29.1172C37.4783 27.8017 40.9935 26.6835 41.0625 26.6332C41.1315 26.583 41.8905 26.2995 42.75 26.004C55.3215 21.6742 62.6978 15.3937 65.3258 6.78147C65.5313 6.10947 65.4713 6.11622 64.5953 6.86622ZM64.7978 14.625C62.3738 18.1852 59.7833 20.5395 54.6248 23.8717C50.7045 26.4037 44.1997 28.8742 29.7727 33.3097C17.079 37.212 10.7385 40.3665 5.96925 45.1507C3.4485 47.6797 0.787501 52.2127 0.306001 54.798L0.216001 55.284L1.2645 54.3765C5.05575 51.0952 10.032 48.4792 15.9998 46.6305C17.9573 46.0245 22.074 44.9797 31.0628 42.8092C49.8353 38.2762 59.4615 31.797 63.7425 20.8125C63.957 20.2627 64.1858 19.7002 64.251 19.5622C64.6635 18.6945 65.5643 14.5717 65.4758 13.9612C65.4435 13.7407 65.3115 13.8697 64.7978 14.625ZM8.00025 73.7497V74.4997H150.563H293.125V73.7497V72.9997H150.563H8.00025V73.7497Z" fill="#F47C24"/>
</g>
<defs>
<clipPath id="clip0_628_2019">
<rect width="300" height="106.53" fill="white"/>
</clipPath>
</defs>
</svg>
