<svg width="394" height="100" viewBox="0 0 394 100" fill="none" xmlns="http://www.w3.org/2000/svg">
<path d="M65.3373 2.3936C65.9585 2.59819 66.5798 2.80279 67.2199 3.01358C79.286 7.27965 89.1545 16.1683 94.74 27.6412C100.189 39.3636 101.712 52.9933 97.5659 65.3839C97.3614 66.0054 97.1569 66.6268 96.9462 67.2671C92.6761 79.3523 83.7841 89.2245 72.2906 94.7962C60.5602 100.258 47.0213 101.783 34.5961 97.623C33.6642 97.3161 33.6642 97.3161 32.7135 97.003C20.6474 92.737 10.7789 83.8483 5.19334 72.3754C-0.255164 60.653 -1.77872 47.0233 2.3674 34.6327C2.57193 34.0113 2.77646 33.3898 2.98719 32.7495C7.35918 20.3758 16.5002 10.7163 28.1557 4.83163C39.5976 -0.43607 53.3462 -1.62147 65.3373 2.3936Z" fill="#F5A524"/>
<path d="M49.4707 20.249C59.9425 20.249 70.4144 20.249 81.2036 20.249C80.5393 22.2425 79.9403 23.8907 79.0165 25.7291C78.7796 26.203 78.5427 26.6768 78.2987 27.165C77.916 27.923 77.916 27.923 77.5255 28.6963C77.26 29.2261 76.9945 29.7558 76.721 30.3017C75.8722 31.9942 75.0207 33.6855 74.169 35.3766C73.6055 36.499 73.0423 37.6214 72.4791 38.7439C71.4314 40.8321 70.3825 42.9197 69.3324 45.0067C67.6653 48.3247 66.0057 51.6466 64.3455 54.9681C69.9086 54.9681 75.4718 54.9681 81.2036 54.9681C81.2036 62.4972 81.2036 70.0262 81.2036 77.7835C70.7317 77.7835 60.2599 77.7835 49.4707 77.7835C49.4707 58.7971 49.4707 39.8107 49.4707 20.249Z" fill="#212346"/>
<path d="M46 20.7451C46.1637 20.7451 46.3273 20.7451 46.4959 20.7451C46.4959 39.5678 46.4959 58.3905 46.4959 77.7836C36.5149 77.7836 26.5339 77.7836 16.2505 77.7836C18.6645 72.954 21.0789 68.1305 23.5639 63.338C23.8636 62.7596 24.1632 62.1812 24.4719 61.5853C26.2638 58.1355 28.0991 54.713 29.9787 51.3103C33.1762 45.5185 36.1728 39.6238 39.177 33.7301C41.3997 29.3725 43.6565 25.0392 46 20.7451Z" fill="#222345"/>
<path d="M135.745 53.48C136.235 53.6437 136.726 53.8073 137.232 53.976C137.232 58.0679 137.232 62.1597 137.232 66.3756C141.814 66.212 146.395 66.0483 151.115 65.8796C151.606 64.4066 152.097 62.9335 152.603 61.4158C153.799 60.0054 154.447 59.9481 156.29 59.6798C158.057 59.9278 158.057 59.9278 159.451 60.9508C160.657 62.5706 161.023 63.9418 161.528 65.8796C163.748 65.894 165.969 65.9028 168.19 65.9106C168.825 65.9148 169.459 65.919 170.112 65.9232C170.715 65.9248 171.317 65.9264 171.938 65.9281C172.496 65.9307 173.054 65.9333 173.63 65.936C174.88 66.0262 174.88 66.0262 175.411 65.3837C175.527 64.4666 175.615 63.5461 175.69 62.6247C175.752 61.8719 175.752 61.8719 175.815 61.1038C175.846 60.7157 175.876 60.3277 175.906 59.9278C176.725 59.9278 177.543 59.9278 178.386 59.9278C178.386 61.8919 178.386 63.856 178.386 65.8796C180.37 65.9252 180.37 65.9252 182.352 65.8796C183.177 65.0546 183.027 64.0035 183.127 62.8727C183.189 62.1889 183.189 62.1889 183.253 61.4913C183.283 61.139 183.313 60.7868 183.344 60.4238C184.571 60.1783 184.571 60.1783 185.823 59.9278C185.853 60.3159 185.883 60.704 185.914 61.1038C185.956 61.6057 185.997 62.1076 186.04 62.6247C186.08 63.1254 186.12 63.626 186.162 64.1418C186.186 65.3521 186.186 65.3521 186.815 65.8796C187.971 65.8999 189.129 65.9007 190.285 65.8796C190.613 63.9155 190.94 61.9514 191.277 59.9278C192.095 59.9278 192.913 59.9278 193.756 59.9278C194.002 62.874 194.002 62.874 194.252 65.8796C194.743 65.8796 195.234 65.8796 195.74 65.8796C195.903 64.0792 196.067 62.2788 196.235 60.4238C197.463 60.1783 197.463 60.1783 198.714 59.9278C198.878 61.7282 199.042 63.5287 199.21 65.3837C200.028 65.711 200.847 66.0384 201.689 66.3756C201.689 64.4115 201.689 62.4474 201.689 60.4238C202.508 60.2601 203.326 60.0964 204.169 59.9278C204.169 62.7103 204.169 65.4928 204.169 68.3596C203.095 68.3493 202.021 68.3391 200.915 68.3286C198.033 68.3171 198.033 68.3171 195.182 68.6696C193.645 68.8701 193.038 68.724 191.773 67.8636C191.527 68.1091 191.527 68.1091 191.277 68.3596C190.327 68.4088 189.374 68.4231 188.422 68.4238C187.812 68.4253 187.201 68.4269 186.572 68.4285C185.9 68.4276 185.228 68.4266 184.556 68.4255C183.871 68.4258 183.186 68.4263 182.501 68.4269C181.063 68.4276 179.625 68.4266 178.187 68.4242C176.344 68.4214 174.5 68.423 172.657 68.426C171.241 68.4278 169.826 68.4272 168.41 68.426C167.73 68.4256 167.051 68.426 166.371 68.4272C165.42 68.4284 164.47 68.4262 163.519 68.4238C162.707 68.4232 162.707 68.4232 161.878 68.4226C160.536 68.3596 160.536 68.3596 159.048 67.8636C158.558 68.1091 158.558 68.1091 158.057 68.3596C156.235 68.4258 154.835 68.4425 153.099 67.8636C152.608 68.1091 152.608 68.1091 152.107 68.3596C150.805 68.4026 149.516 68.4169 148.214 68.408C147.83 68.4073 147.446 68.4066 147.051 68.4059C145.823 68.4031 144.596 68.3969 143.368 68.3906C142.536 68.3881 141.705 68.3858 140.873 68.3838C138.833 68.3783 136.793 68.3698 134.753 68.3596C134.728 66.4 134.71 64.4404 134.698 62.4806C134.691 61.4856 134.678 60.4907 134.666 59.4958C134.661 58.5607 134.661 58.5607 134.656 57.6067C134.651 57.0301 134.646 56.4535 134.64 55.8594C134.753 54.472 134.753 54.472 135.745 53.48ZM155.578 61.9118C154.462 62.8179 154.462 62.8179 154.462 64.1437C154.462 65.4694 154.462 65.4694 155.578 66.3756C156.957 66.1746 156.957 66.1746 158.057 65.3837C158.181 64.1645 158.181 64.1645 158.057 62.9037C157.73 62.5764 157.402 62.249 157.065 61.9118C156.574 61.9118 156.083 61.9118 155.578 61.9118Z" fill="#F6A623"/>
<path d="M313.25 53.48C313.741 53.6437 314.232 53.8073 314.738 53.976C314.738 58.7226 314.738 63.4692 314.738 68.3596C298.212 68.3596 281.686 68.3596 264.659 68.3596C264.332 69.5053 264.005 70.651 263.667 71.8315C261.964 72.9674 261.196 72.912 259.205 72.8235C259.041 72.0051 258.878 71.1867 258.709 70.3435C259.691 70.3435 260.673 70.3435 261.684 70.3435C261.682 70.0632 261.679 69.783 261.676 69.4942C261.666 68.2274 261.66 66.9605 261.653 65.6937C261.649 65.2525 261.645 64.8113 261.641 64.3568C261.639 63.9348 261.637 63.5129 261.636 63.0781C261.633 62.6885 261.631 62.2989 261.628 61.8975C261.684 60.9198 261.684 60.9198 262.18 59.9278C262.998 59.9278 263.816 59.9278 264.659 59.9278C264.659 62.0556 264.659 64.1834 264.659 66.3756C273.249 66.1301 273.249 66.1301 282.013 65.8796C282.013 64.0792 282.013 62.2788 282.013 60.4238C282.831 60.2601 283.649 60.0964 284.492 59.9278C284.522 60.3159 284.552 60.704 284.583 61.1038C284.625 61.6057 284.666 62.1076 284.709 62.6247C284.749 63.1254 284.79 63.626 284.831 64.1418C284.855 65.3521 284.855 65.3521 285.484 65.8796C286.62 65.9232 287.758 65.9327 288.895 65.9281C289.235 65.9274 289.575 65.9267 289.926 65.926C291.018 65.9232 292.109 65.9169 293.2 65.9106C293.938 65.9082 294.677 65.9059 295.415 65.9039C297.228 65.8984 299.041 65.8898 300.854 65.8796C300.84 65.3368 300.825 64.794 300.81 64.2348C300.854 62.4077 300.854 62.4077 301.567 60.9508C303.195 59.6398 304.215 59.6854 306.248 59.7437C307.3 59.9278 307.3 59.9278 308.788 60.9198C308.624 61.5745 308.46 62.2292 308.292 62.9037C307.74 62.8117 307.187 62.7196 306.618 62.6247C304.907 62.2506 304.907 62.2506 303.829 62.9037C303.829 63.8858 303.829 64.8678 303.829 65.8796C306.611 66.0433 309.393 66.207 312.258 66.3756C312.258 62.2837 312.258 58.1919 312.258 53.976C312.586 53.8123 312.913 53.6486 313.25 53.48Z" fill="#F6A624"/>
<path d="M48.479 22.7292C48.6427 22.7292 48.8063 22.7292 48.9749 22.7292C48.9749 41.5519 48.9749 60.3746 48.9749 79.7677C38.9939 79.7677 29.0129 79.7677 18.7295 79.7677C19.0567 79.113 19.384 78.4583 19.7211 77.7838C28.5568 77.7838 37.3924 77.7838 46.4957 77.7838C46.4612 72.2588 46.4612 72.2588 46.426 66.6221C46.4159 64.2872 46.4063 61.9522 46.3989 59.6173C46.387 55.912 46.373 52.2068 46.3461 48.5015C46.3245 45.5139 46.3127 42.5264 46.3076 39.5388C46.3039 38.3995 46.2967 37.2603 46.286 36.1211C46.2716 34.5241 46.2697 32.9275 46.2706 31.3304C46.2634 30.8606 46.2563 30.3907 46.249 29.9066C46.2675 26.9244 46.7783 25.1917 48.479 22.7292Z" fill="#FAF6F1"/>
<path d="M353.908 59.9279C355.148 60.6409 355.148 60.6409 355.891 61.9119C356.055 63.385 356.218 64.8581 356.387 66.3758C363.096 66.3758 369.804 66.3758 376.716 66.3758C376.716 64.248 376.716 62.1202 376.716 59.9279C377.56 60.066 377.56 60.066 378.42 60.2069C379.003 60.2785 379.586 60.3502 380.187 60.4239C380.35 60.2603 380.514 60.0966 380.683 59.9279C383.375 59.6116 385.458 59.4258 387.686 61.0749C389.527 63.7146 389.112 64.7276 389.112 68.3597C378.312 68.5234 367.513 68.6871 356.387 68.8557C355.896 70.0833 355.896 70.0833 355.395 71.3356C354.125 72.701 353.507 72.817 351.615 72.9476C349.941 72.8236 349.941 72.8236 348.95 72.3276C349.113 71.6729 349.277 71.0182 349.446 70.3437C349.906 70.3846 350.366 70.4255 350.84 70.4677C352.466 70.5188 352.466 70.5188 353.35 69.3517C353.534 69.0243 353.718 68.697 353.908 68.3597C353.294 68.3802 352.681 68.4006 352.049 68.4217C349.244 68.4068 349.244 68.4068 347.958 67.3677C347.117 65.9254 346.96 65.0413 347.028 63.3689C348.102 59.7617 350.489 59.3306 353.908 59.9279ZM350.933 61.9119C349.818 62.8181 349.818 62.8181 349.817 64.1438C349.818 65.4696 349.818 65.4696 350.933 66.3758C352.462 66.4585 352.462 66.4585 353.908 66.3758C353.744 65.0664 353.581 63.757 353.412 62.4079C352.224 62.0708 352.224 62.0708 350.933 61.9119ZM379.939 63.2759C379.012 64.4434 379.012 64.4434 379.195 66.3758C381.486 66.3758 383.776 66.3758 386.137 66.3758C386.137 65.3937 386.137 64.4117 386.137 63.3999C385.15 62.2028 385.15 62.2028 383.224 62.2219C381.682 62.2611 381.25 62.3576 379.939 63.2759Z" fill="#F6A623"/>
<path d="M213.589 53.48C214.612 53.697 214.612 53.697 215.573 53.976C215.585 54.3189 215.597 54.6619 215.61 55.0153C215.667 56.5599 215.728 58.1043 215.789 59.6488C215.809 60.1888 215.828 60.7287 215.849 61.285C215.869 61.7981 215.89 62.3112 215.911 62.8398C215.93 63.3151 215.948 63.7904 215.967 64.2802C215.949 65.3695 215.949 65.3695 216.564 65.8796C217.591 65.9582 218.62 66.0043 219.65 66.0366C220.587 66.0677 220.587 66.0677 221.543 66.0995C222.207 66.1193 222.872 66.139 223.537 66.1586C224.203 66.1801 224.87 66.2017 225.536 66.2235C227.173 66.2764 228.81 66.3263 230.447 66.3756C230.447 62.2837 230.447 58.1919 230.447 53.976C230.938 53.8123 231.429 53.6486 231.935 53.48C232.262 53.6437 232.589 53.8073 232.926 53.976C232.926 58.7226 232.926 63.4692 232.926 68.3596C223.836 68.3596 214.746 68.3596 205.656 68.3596C205.656 67.7049 205.656 67.0502 205.656 66.3756C206.31 66.3756 206.965 66.3756 207.639 66.3756C207.639 63.2658 207.639 60.156 207.639 56.9519C208.457 56.9519 209.276 56.9519 210.118 56.9519C210.118 60.0617 210.118 63.1716 210.118 66.3756C210.937 66.0483 211.755 65.7209 212.598 65.3837C212.61 65.0407 212.622 64.6977 212.635 64.3443C212.693 62.7997 212.753 61.2553 212.814 59.7108C212.834 59.1709 212.853 58.6309 212.874 58.0746C212.894 57.5616 212.915 57.0485 212.937 56.5198C212.964 55.8069 212.964 55.8069 212.992 55.0795C213.093 53.976 213.093 53.976 213.589 53.48Z" fill="#F6A624"/>
<path d="M81.2036 56.4561C82.0218 56.4561 82.8399 56.4561 83.6828 56.4561C83.6828 64.1488 83.6828 71.8416 83.6828 79.7674C73.0473 79.7674 62.4119 79.7674 51.4541 79.7674C51.4541 79.1127 51.4541 78.458 51.4541 77.7835C61.2715 77.7835 71.0888 77.7835 81.2036 77.7835C81.2036 70.7454 81.2036 63.7074 81.2036 56.4561Z" fill="#F9F6F2"/>
<path d="M80.2119 22.2332C81.3573 22.2332 82.5026 22.2332 83.6827 22.2332C80.1455 29.8469 76.3976 37.3515 72.6288 44.8521C71.5277 47.0447 70.4308 49.2393 69.3347 51.4344C69.0307 52.0427 68.7266 52.6511 68.4225 53.2594C68.2224 53.6597 68.0224 54.0599 67.8163 54.4723C66.8345 54.4723 65.8528 54.4723 64.8413 54.4723C65.4866 52.4231 66.2512 50.5155 67.1868 48.5824C67.459 48.0186 67.7312 47.4549 68.0116 46.874C68.308 46.2654 68.6044 45.657 68.9009 45.0485C69.2064 44.4184 69.5118 43.7883 69.8172 43.1582C73.2197 36.1522 76.7105 29.19 80.2119 22.2332Z" fill="#F9F8F6"/>
<path d="M234.91 29.177C235.834 29.9346 235.834 29.9346 236.397 30.665C236.234 31.156 236.07 31.647 235.901 32.1529C235.619 32.1056 235.338 32.0583 235.047 32.0096C232.366 31.6245 230.516 31.7269 227.968 32.6489C227.21 35.0174 227.071 37.2659 228.154 39.5307C228.874 40.6327 228.874 40.6327 229.951 41.0807C230.798 41.1154 231.645 41.1226 232.493 41.1117C232.944 41.1072 233.395 41.1027 233.86 41.0981C234.206 41.0924 234.553 41.0866 234.91 41.0807C234.91 40.2623 234.91 39.4439 234.91 38.6008C233.928 38.6008 232.946 38.6008 231.935 38.6008C231.935 37.7824 231.935 36.964 231.935 36.1208C233.735 36.1208 235.534 36.1208 237.389 36.1208C237.56 38.1324 237.634 40.0652 237.389 42.0727C236.074 43.5957 235.201 43.9376 233.234 44.2349C230.238 44.3996 228.375 43.8781 225.985 42.0727C224.276 40.079 223.864 37.7049 224.001 35.1289C224.614 32.9539 225.636 31.5097 227.224 29.921C229.725 28.8489 232.225 28.7469 234.91 29.177Z" fill="white"/>
<path d="M356.728 34.5553C357.887 34.7309 357.887 34.7309 358.866 34.1368C360.577 33.9507 361.493 33.8917 362.922 34.8982C364.146 36.5564 364.045 37.9912 363.948 39.9646C363.939 40.3105 363.93 40.6564 363.921 41.0128C363.898 41.8623 363.862 42.7115 363.824 43.5605C363.006 43.5605 362.188 43.5605 361.345 43.5605C361.181 41.2691 361.018 38.9776 360.849 36.6167C360.031 36.7804 359.213 36.9441 358.37 37.1127C358.207 39.2405 358.043 41.3683 357.874 43.5605C356.893 43.5605 355.911 43.5605 354.899 43.5605C354.899 41.2691 354.899 38.9776 354.899 36.6167C353.918 36.9441 352.936 37.2714 351.924 37.6087C351.761 39.5728 351.597 41.5369 351.429 43.5605C350.61 43.5605 349.792 43.5605 348.949 43.5605C348.949 40.6144 348.949 37.6682 348.949 34.6328C349.931 34.6328 350.913 34.6328 351.924 34.6328C353.496 33.8467 355.022 34.3371 356.728 34.5553Z" fill="white"/>
<path d="M206.648 29.177C208.082 30.4232 208.768 31.7835 209.582 33.4878C209.977 34.3131 209.977 34.3131 210.381 35.155C210.652 35.7295 210.923 36.3039 211.203 36.8958C211.48 37.4722 211.757 38.0486 212.043 38.6424C214.085 42.9305 214.085 42.9305 214.085 44.0566C213.103 44.0566 212.122 44.0566 211.11 44.0566C210.783 43.0745 210.456 42.0925 210.118 41.0807C207.991 41.0807 205.864 41.0807 203.673 41.0807C203.345 42.0627 203.018 43.0448 202.681 44.0566C201.699 44.0566 200.718 44.0566 199.706 44.0566C200.337 42.0646 201.067 40.1955 201.97 38.3121C202.211 37.8092 202.451 37.3064 202.699 36.7883C202.949 36.2713 203.199 35.7544 203.456 35.2218C203.707 34.6953 203.959 34.1688 204.218 33.6264C206.084 29.7404 206.084 29.7404 206.648 29.177ZM206.648 34.1369C206.157 35.6099 205.666 37.083 205.16 38.6007C206.305 38.6007 207.451 38.6007 208.631 38.6007C208.14 37.1277 207.649 35.6546 207.143 34.1369C206.98 34.1369 206.816 34.1369 206.648 34.1369Z" fill="white"/>
<path d="M133.761 29.177C135.249 29.673 135.249 29.673 136.009 30.9429C136.403 31.7711 136.403 31.7711 136.804 32.616C136.945 32.9102 137.086 33.2043 137.231 33.5074C137.528 34.1296 137.823 34.753 138.115 35.3774C138.563 36.3347 139.019 37.2882 139.476 38.2414C141.694 42.9085 141.694 42.9085 141.694 44.0566C140.713 44.0566 139.731 44.0566 138.719 44.0566C138.392 43.0745 138.065 42.0925 137.728 41.0807C136.684 41.0971 135.641 41.1315 134.598 41.1737C134.017 41.1909 133.436 41.2082 132.837 41.226C131.185 41.414 131.185 41.414 130.414 42.8321C130.21 43.2362 130.005 43.6403 129.795 44.0566C128.462 44.2116 128.462 44.2116 127.315 44.0566C127.626 42.0504 128.274 40.4436 129.161 38.6221C129.428 38.0706 129.695 37.5192 129.97 36.951C130.389 36.0951 130.389 36.0951 130.817 35.2218C131.099 34.6416 131.38 34.0614 131.67 33.4636C132.365 32.0335 133.062 30.6047 133.761 29.177ZM134.257 34.1369C133.275 36.3465 133.275 36.3465 132.274 38.6007C133.583 38.6007 134.892 38.6007 136.24 38.6007C135.749 37.1277 135.259 35.6546 134.753 34.1369C134.589 34.1369 134.426 34.1369 134.257 34.1369Z" fill="white"/>
<path d="M249.784 29.177C250.603 29.177 251.421 29.177 252.264 29.177C252.427 31.1411 252.591 33.1052 252.759 35.1288C253.25 34.8015 253.741 34.4741 254.247 34.1369C256.219 34.2086 257.349 34.3324 258.895 35.5938C260.09 37.1111 260.28 37.8792 260.135 39.7787C259.917 41.4677 259.769 41.99 258.647 43.3436C256.877 44.2293 255.708 44.2741 253.751 44.0566C253.26 43.7292 252.769 43.4019 252.264 43.0646C252.264 43.392 252.264 43.7193 252.264 44.0566C251.445 43.8929 250.627 43.7292 249.784 43.5606C249.784 38.814 249.784 34.0674 249.784 29.177ZM252.759 37.6088C252.511 39.0757 252.511 39.0757 252.759 40.5847C253.532 41.65 253.532 41.65 254.743 42.0727C256.11 41.906 256.11 41.906 257.222 41.0807C257.802 39.9157 257.802 39.9157 257.718 38.6007C257.227 37.4085 257.227 37.4085 256.23 36.6168C254.503 36.3639 254.016 36.3516 252.759 37.6088Z" fill="white"/>
<path d="M149.132 29.177C149.95 29.177 150.768 29.177 151.611 29.177C151.611 34.0873 151.611 38.9975 151.611 44.0566C150.289 44.0566 148.966 44.0566 147.644 44.0566C147.164 44.0771 146.683 44.0975 146.188 44.1186C144.667 44.0565 143.93 43.909 142.686 43.0646C141.283 40.9601 141.375 39.087 141.694 36.6168C142.752 34.8816 143.443 34.6915 145.413 34.1989C147.148 34.1369 147.148 34.1369 149.132 35.1288C149.132 33.1647 149.132 31.2006 149.132 29.177ZM145.165 36.6168C144.1 38.2146 143.895 38.7295 144.173 40.5847C144.955 41.6156 144.955 41.6156 146.157 42.0727C147.524 41.906 147.524 41.906 148.636 41.0807C149.216 39.9157 149.216 39.9157 149.132 38.6007C148.641 37.4085 148.641 37.4085 147.644 36.6168C146.383 36.3274 146.383 36.3274 145.165 36.6168Z" fill="white"/>
<path d="M172.932 34.1367C173.423 34.3003 173.913 34.464 174.419 34.6326C175.401 34.6326 176.383 34.6326 177.394 34.6326C177.394 37.5788 177.394 40.525 177.394 43.5604C176.249 43.5604 175.103 43.5604 173.923 43.5604C173.76 43.7241 173.596 43.8878 173.427 44.0564C171.496 44.2422 170.28 44.2181 168.531 43.3434C167.042 41.5465 166.834 39.9117 166.982 37.6086C168.233 34.6669 169.821 33.9422 172.932 34.1367ZM169.988 37.7016C169.329 39.0701 169.329 39.0701 169.74 40.4605C170.352 41.6206 170.352 41.6206 171.382 42.0724C172.805 42.0724 173.38 41.5124 174.419 40.5845C174.328 38.431 174.328 38.431 173.427 36.6166C171.684 36.3413 171.185 36.3498 169.988 37.7016Z" fill="white"/>
<path d="M281.021 29.177C281.84 29.177 282.658 29.177 283.501 29.177C283.664 30.9774 283.828 32.7779 283.996 34.6329C284.528 34.5203 285.06 34.4078 285.608 34.2919C287.467 34.1369 287.467 34.1369 288.645 34.7569C290.272 36.5099 289.998 38.4072 289.977 40.6777C289.973 41.3087 289.968 41.9398 289.964 42.59C289.958 43.0739 289.952 43.5579 289.946 44.0566C289.128 44.0566 288.31 44.0566 287.467 44.0566C287.304 41.6015 287.14 39.1463 286.971 36.6168C286.153 36.7805 285.335 36.9442 284.492 37.1128C283.822 38.4529 283.829 39.6513 283.718 41.1427C283.676 41.6861 283.634 42.2296 283.592 42.7895C283.562 43.2076 283.532 43.6258 283.501 44.0566C282.683 44.0566 281.864 44.0566 281.021 44.0566C281.021 39.1463 281.021 34.2361 281.021 29.177Z" fill="white"/>
<path d="M278.542 34.6327C278.542 37.5789 278.542 40.5251 278.542 43.5605C277.561 43.5605 276.579 43.5605 275.567 43.5605C275.24 43.7242 274.913 43.8879 274.576 44.0565C272.936 44.2022 271.789 44.1248 270.237 43.5605C268.865 42.3406 268.52 41.4352 268.173 39.6585C268.097 37.788 268.656 36.732 269.617 35.1287C272.116 33.2984 275.689 34.3685 278.542 34.6327ZM271.105 37.6087C270.938 39.1781 270.857 40.1804 271.694 41.5456C272.601 42.1797 272.601 42.1797 273.863 42.0725C275.157 41.6729 275.157 41.6729 275.815 40.4606C276.189 39.0683 276.189 39.0683 275.536 37.7017C274.671 36.4965 274.671 36.4965 273.305 36.3997C272.011 36.5132 272.011 36.5132 271.105 37.6087Z" fill="white"/>
<path d="M190.285 34.1368C190.776 34.3005 191.267 34.4642 191.773 34.6328C192.591 34.6328 193.409 34.6328 194.252 34.6328C194.252 37.579 194.252 40.5251 194.252 43.5605C193.27 43.5605 192.288 43.5605 191.277 43.5605C190.95 43.7242 190.622 43.8879 190.285 44.0565C188.365 44.2699 187.546 44.2136 185.916 43.1266C184.429 41.6816 184.354 41.3112 184.18 39.1897C184.195 37.5431 184.332 37.1175 185.265 35.6558C186.948 34.022 187.981 34.0427 190.285 34.1368ZM187.403 37.1747C186.679 38.1351 186.679 38.1351 186.814 39.6237C187.162 41.1869 187.162 41.1869 188.581 41.7626C188.98 41.8649 189.379 41.9672 189.789 42.0726C190.864 41.2465 190.864 41.2465 191.773 40.0886C191.693 38.4065 191.484 37.8156 190.285 36.6167C188.407 36.4424 188.407 36.4424 187.403 37.1747Z" fill="white"/>
<path d="M152.603 34.6328C153.585 34.6328 154.566 34.6328 155.578 34.6328C156.201 36.0742 156.569 37.0116 156.569 38.6007C156.897 38.6007 157.224 38.6007 157.561 38.6007C157.714 38.1301 157.868 37.6596 158.026 37.1747C158.553 35.6248 158.553 35.6248 159.049 34.6328C159.376 34.6328 159.703 34.6328 160.04 34.6328C160.695 35.9422 161.349 37.2516 162.023 38.6007C162.678 37.2913 163.332 35.9819 164.007 34.6328C164.825 34.6328 165.643 34.6328 166.486 34.6328C165.496 37.9652 164.141 40.9851 162.519 44.0566C161.046 42.7121 160.594 41.5114 160.04 39.5927C159.713 39.5927 159.386 39.5927 159.049 39.5927C158.916 40.053 158.783 40.5134 158.646 40.9876C158.084 42.4951 157.71 43.0154 156.569 44.0566C154.948 40.9851 153.593 37.9652 152.603 34.6328Z" fill="white"/>
<path d="M330.108 34.6326C331.1 35.4386 331.1 35.4386 331.595 36.6166C331.688 38.4765 331.688 38.4765 331.595 40.0885C328.65 40.334 328.65 40.334 325.646 40.5845C326.519 41.6674 326.519 41.6674 327.602 41.6733C329.103 41.6249 329.103 41.6249 330.604 41.5764C330.767 42.2312 330.931 42.8859 331.1 43.5604C328.898 44.2945 326.679 44.3828 324.468 43.6844C323.401 42.8634 323.08 42.3768 322.671 41.0805C322.343 37.6431 322.343 37.6431 323.569 35.6556C325.572 33.767 327.592 33.9668 330.108 34.6326ZM326.141 36.6166C325.65 37.3531 325.65 37.3531 325.15 38.1045C326.459 38.1045 327.768 38.1045 329.116 38.1045C328.953 37.6135 328.789 37.1225 328.62 36.6166C327.422 36.4924 327.422 36.4924 326.141 36.6166Z" fill="white"/>
<path d="M372.749 34.6326C373.77 35.4156 374.16 35.9675 374.733 37.1125C374.733 38.0945 374.733 39.0766 374.733 40.0884C371.787 40.3339 371.787 40.3339 368.783 40.5844C368.783 40.9117 368.783 41.2391 368.783 41.5764C370.419 41.5764 372.055 41.5764 373.741 41.5764C373.905 42.0674 374.068 42.5584 374.237 43.0643C372.401 44.2887 370.913 44.3345 368.783 44.0563C366.517 42.9954 366.517 42.9954 365.808 41.5764C365.35 37.2644 365.35 37.2644 366.706 35.3455C368.836 33.9455 370.314 34.1105 372.749 34.6326ZM369.279 36.6165C368.788 37.353 368.788 37.353 368.287 38.1045C369.596 38.1045 370.905 38.1045 372.254 38.1045C372.09 37.6134 371.926 37.1224 371.758 36.6165C370.56 36.4923 370.56 36.4923 369.279 36.6165Z" fill="white"/>
<path d="M384.153 34.6326C385.407 36.5132 385.256 38.0097 385.207 40.1815C385.202 40.5533 385.198 40.925 385.193 41.3081C385.182 42.2242 385.164 43.1403 385.145 44.0564C384.327 44.0564 383.509 44.0564 382.666 44.0564C382.502 41.7649 382.338 39.4734 382.17 37.1125C381.352 37.2762 380.534 37.4399 379.691 37.6085C379.364 39.7363 379.036 41.8641 378.699 44.0564C377.881 43.8927 377.063 43.729 376.22 43.5604C376.22 40.6142 376.22 37.6681 376.22 34.6326C377.377 34.6326 378.534 34.6326 379.691 34.6326C381.252 33.8518 382.49 34.276 384.153 34.6326Z" fill="white"/>
<path d="M310.275 34.6326C311.529 36.5132 311.378 38.0097 311.329 40.1815C311.324 40.5533 311.32 40.925 311.315 41.3081C311.304 42.2242 311.286 43.1403 311.267 44.0564C310.449 44.0564 309.631 44.0564 308.788 44.0564C308.624 41.7649 308.461 39.4734 308.292 37.1125C307.474 37.2762 306.656 37.4399 305.813 37.6085C305.176 38.8827 305.153 39.9723 305.038 41.3904C304.976 42.1366 304.976 42.1366 304.912 42.8978C304.882 43.2801 304.852 43.6624 304.821 44.0564C304.003 44.0564 303.185 44.0564 302.342 44.0564C302.342 40.9465 302.342 37.8367 302.342 34.6326C303.499 34.6326 304.656 34.6326 305.813 34.6326C307.374 33.8518 308.612 34.276 310.275 34.6326Z" fill="white"/>
<path d="M238.876 34.6328C239.695 34.6328 240.513 34.6328 241.356 34.6328C241.386 35.0094 241.416 35.386 241.447 35.774C241.488 36.2669 241.53 36.7599 241.573 37.2677C241.613 37.7568 241.653 38.246 241.695 38.7499C241.811 40.1352 241.811 40.1352 242.347 41.5766C243.327 41.4041 243.327 41.4041 244.331 41.0806C244.967 39.8065 244.99 38.7169 245.105 37.2987C245.147 36.8013 245.188 36.3039 245.231 35.7914C245.261 35.4091 245.291 35.0267 245.322 34.6328C246.14 34.6328 246.958 34.6328 247.801 34.6328C247.801 37.579 247.801 40.5251 247.801 43.5606C245.322 44.0566 245.322 44.0566 244.331 44.0566C243.768 44.0872 243.206 44.1179 242.626 44.1496C240.86 44.0566 240.86 44.0566 239.93 43.4056C238.712 41.5775 238.824 39.8912 238.845 37.7637C238.85 37.1787 238.854 36.5937 238.859 35.991C238.865 35.5428 238.871 35.0946 238.876 34.6328Z" fill="white"/>
<path d="M257.036 59.8969C257.782 59.9037 257.782 59.9037 258.543 59.9105C258.925 59.9163 259.307 59.922 259.701 59.9279C259.755 60.9607 259.793 61.9942 259.825 63.0279C259.848 63.6033 259.871 64.1787 259.895 64.7716C259.701 66.3758 259.701 66.3758 258.841 67.5615C257.258 68.6863 256.198 68.6452 254.311 68.5457C253.255 68.3597 253.255 68.3597 251.985 67.6157C250.981 65.8699 250.86 64.3754 251.272 62.4079C252.999 60.1614 254.296 59.8651 257.036 59.8969ZM253.751 62.9039C253.668 64.1024 253.668 64.1024 253.751 65.3838C254.078 65.7111 254.406 66.0385 254.743 66.3758C256.122 66.1747 256.122 66.1747 257.222 65.3838C257.242 64.2267 257.243 63.069 257.222 61.9119C256.055 61.9119 254.845 62.5313 253.751 62.9039Z" fill="#F5A524"/>
<path d="M336.721 34.0823C337.838 34.2163 338.926 34.3905 340.025 34.6325C339.698 35.4509 339.37 36.2693 339.033 37.1124C337.561 36.8669 337.561 36.8669 336.058 36.6165C336.516 37.8223 336.516 37.8223 338.289 38.1974C339.148 38.6424 339.148 38.6424 340.025 39.0964C340.49 40.9253 340.49 40.9253 340.521 42.5683C339.233 43.8567 338.294 44.1672 336.523 44.1803C334.571 44.0563 334.571 44.0563 333.083 43.5603C333.247 42.7419 333.41 41.9235 333.579 41.0803C334.888 41.244 336.197 41.4077 337.546 41.5763C336.596 40.528 336.596 40.528 335.314 39.9334C333.871 38.9586 333.571 38.2577 333.083 36.6165C334.936 34.1659 334.936 34.1659 336.721 34.0823Z" fill="white"/>
<path d="M388.616 30.6648C389.434 30.6648 390.252 30.6648 391.095 30.6648C391.095 31.9742 391.095 33.2836 391.095 34.6327C391.749 34.6327 392.404 34.6327 393.078 34.6327C393.078 35.2874 393.078 35.9421 393.078 36.6166C392.424 36.6166 391.769 36.6166 391.095 36.6166C391.095 39.0718 391.095 41.5269 391.095 44.0564C390.277 44.0564 389.459 44.0564 388.616 44.0564C388.452 41.6013 388.288 39.1462 388.12 36.6166C387.629 36.6166 387.138 36.6166 386.632 36.6166C386.632 35.9619 386.632 35.3072 386.632 34.6327C387.287 34.6327 387.941 34.6327 388.616 34.6327C388.616 33.3233 388.616 32.0139 388.616 30.6648Z" fill="white"/>
<path d="M312.258 34.6325C313.24 34.6325 314.222 34.6325 315.233 34.6325C315.888 35.9419 316.542 37.2513 317.217 38.6004C317.367 38.314 317.517 38.0276 317.672 37.7324C318.293 36.6312 318.899 35.615 319.696 34.6325C321.09 34.3845 321.09 34.3845 322.175 34.6325C321.485 36.9273 320.541 38.9213 319.386 41.0184C319.073 41.5899 318.759 42.1615 318.437 42.7504C318.198 43.1814 317.959 43.6123 317.712 44.0563C315.971 42.4917 314.96 40.8502 313.87 38.7864C313.565 38.2174 313.261 37.6484 312.948 37.0621C312.258 35.6245 312.258 35.6245 312.258 34.6325Z" fill="white"/>
<path d="M343 30.6648C343.818 30.6648 344.636 30.6648 345.479 30.6648C345.479 31.9742 345.479 33.2836 345.479 34.6327C346.133 34.6327 346.788 34.6327 347.462 34.6327C347.462 35.2874 347.462 35.9421 347.462 36.6166C346.808 36.6166 346.153 36.6166 345.479 36.6166C345.479 39.0718 345.479 41.5269 345.479 44.0564C344.661 44.0564 343.843 44.0564 343 44.0564C343 41.6013 343 39.1462 343 36.6166C342.509 36.6166 342.018 36.6166 341.512 36.6166C341.512 35.9619 341.512 35.3072 341.512 34.6327C342.003 34.6327 342.494 34.6327 343 34.6327C343 33.3233 343 32.0139 343 30.6648Z" fill="white"/>
<path d="M131.282 59.9277C131.937 59.9277 132.591 59.9277 133.265 59.9277C133.323 61.7049 133.358 63.4818 133.389 65.2596C133.414 66.0153 133.414 66.0153 133.44 66.7863C133.489 70.5101 133.489 70.5101 132.363 72.1705C130.93 73.0363 129.953 73.0023 128.307 72.8234C127.98 72.6597 127.653 72.496 127.315 72.3274C127.479 71.6727 127.643 71.018 127.811 70.3435C128.629 70.1798 129.447 70.0161 130.29 69.8475C130.309 69.4232 130.309 69.4232 130.328 68.9903C130.385 67.7156 130.446 66.4411 130.507 65.1666C130.527 64.7213 130.546 64.276 130.566 63.8172C130.587 63.3936 130.608 62.97 130.629 62.5336C130.648 62.1414 130.666 61.7492 130.684 61.3451C130.786 60.4237 130.786 60.4237 131.282 59.9277Z" fill="#F6A523"/>
<path d="M297.384 29.177C298.202 29.177 299.021 29.177 299.864 29.177C299.864 34.0873 299.864 38.9975 299.864 44.0566C299.045 44.0566 298.227 44.0566 297.384 44.0566C297.384 39.1463 297.384 34.2361 297.384 29.177Z" fill="white"/>
<path d="M215.077 29.177C215.895 29.177 216.713 29.177 217.557 29.177C217.557 34.0873 217.557 38.9975 217.557 44.0566C216.738 44.0566 215.92 44.0566 215.077 44.0566C215.077 39.1463 215.077 34.2361 215.077 29.177Z" fill="white"/>
<path d="M391.095 53.48C392.077 53.7255 392.077 53.7255 393.079 53.976C393.079 58.7226 393.079 63.4692 393.079 68.3596C392.26 68.3596 391.442 68.3596 390.599 68.3596C390.587 66.3202 390.578 64.2809 390.572 62.2415C390.569 61.5472 390.566 60.853 390.561 60.1587C390.555 59.1628 390.553 58.1668 390.55 57.1708C390.548 56.5708 390.545 55.9708 390.542 55.3526C390.599 53.976 390.599 53.976 391.095 53.48Z" fill="#F6A523"/>
<path d="M343.992 53.48C344.974 53.7255 344.974 53.7255 345.975 53.976C345.975 58.7226 345.975 63.4692 345.975 68.3596C345.157 68.3596 344.339 68.3596 343.496 68.3596C343.483 66.3202 343.474 64.2809 343.468 62.2415C343.466 61.5472 343.462 60.853 343.458 60.1587C343.452 59.1628 343.45 58.1668 343.447 57.1708C343.444 56.5708 343.442 55.9708 343.439 55.3526C343.496 53.976 343.496 53.976 343.992 53.48Z" fill="#F6A524"/>
<path d="M317.217 53.48C317.708 53.6437 318.199 53.8073 318.705 53.976C318.705 58.7226 318.705 63.4692 318.705 68.3596C317.886 68.3596 317.068 68.3596 316.225 68.3596C316.2 66.4 316.182 64.4404 316.17 62.4806C316.163 61.4856 316.15 60.4907 316.138 59.4958C316.133 58.5607 316.133 58.5607 316.128 57.6067C316.123 57.0301 316.118 56.4535 316.112 55.8594C316.225 54.472 316.225 54.472 317.217 53.48Z" fill="#F6A623"/>
<path d="M265.651 34.1367C266.305 34.1367 266.96 34.1367 267.634 34.1367C267.634 35.1188 267.634 36.1008 267.634 37.1126C267.235 37.174 266.837 37.2354 266.426 37.2986C265.797 37.4521 265.797 37.4521 265.155 37.6086C264.518 38.8828 264.496 39.9724 264.38 41.3905C264.318 42.1367 264.318 42.1367 264.254 42.8979C264.224 43.2802 264.194 43.6625 264.163 44.0564C263.345 43.8928 262.527 43.7291 261.684 43.5605C261.684 40.6143 261.684 37.6681 261.684 34.6327C262.841 34.6327 263.998 34.6327 265.155 34.6327C265.319 34.469 265.482 34.3054 265.651 34.1367Z" fill="white"/>
<path d="M340.366 63.4618C341.512 63.8958 341.512 63.8958 342.008 64.8878C341.844 65.2151 341.681 65.5425 341.512 65.8798C340.858 65.7161 340.203 65.5524 339.529 65.3838C339.529 65.7111 339.529 66.0385 339.529 66.3757C340.347 66.3757 341.165 66.3757 342.008 66.3757C342.008 67.0304 342.008 67.6852 342.008 68.3597C340.208 68.3597 338.408 68.3597 336.554 68.3597C336.71 66.6423 336.902 65.5892 337.917 64.1748C339.033 63.3998 339.033 63.3998 340.366 63.4618Z" fill="#F5A523"/>
<path d="M176.402 53.9761C177.057 54.1397 177.711 54.3034 178.386 54.4721C178.386 55.1268 178.386 55.7815 178.386 56.456C178.876 56.6197 179.367 56.7834 179.873 56.952C179.709 57.7704 179.546 58.5887 179.377 59.4319C179.009 59.2478 178.641 59.0637 178.262 58.8739C176.926 58.2936 176.926 58.2936 175.751 58.8739C175.337 59.1501 175.337 59.1501 174.915 59.4319C174.588 58.7772 174.26 58.1225 173.923 57.448C174.399 57.2792 174.399 57.2792 174.884 57.107C176.041 56.5292 176.041 56.5292 176.278 55.154C176.319 54.7653 176.36 54.3766 176.402 53.9761Z" fill="#F5A523"/>
<path d="M180.369 27.1929C181.671 27.3789 181.671 27.3789 182.848 27.6889C182.995 30.18 182.841 31.6049 181.361 33.6407C180.706 33.477 180.052 33.3133 179.377 33.1447C179.469 32.6946 179.562 32.2445 179.656 31.7807C179.965 30.2418 179.965 30.2418 179.594 29.0528C179.523 28.7664 179.451 28.48 179.377 28.1848C179.705 27.8575 180.032 27.5301 180.369 27.1929Z" fill="white"/>
<path d="M304.325 56.4561C305.307 56.7016 305.307 56.7016 306.309 56.952C306.146 57.7704 305.982 58.5888 305.813 59.432C305.159 59.2683 304.504 59.1046 303.829 58.936C303.993 58.1176 304.157 57.2992 304.325 56.4561Z" fill="#F5A523"/>
<path d="M185.327 56.4561C186.288 56.642 186.288 56.642 187.311 56.952C187.475 57.2794 187.639 57.6067 187.807 57.944C187.316 58.6806 187.316 58.6806 186.815 59.432C186.161 59.1046 185.506 58.7773 184.831 58.44C184.995 57.7853 185.159 57.1306 185.327 56.4561Z" fill="#F5A423"/>
<path d="M282.509 69.3521C283.164 69.3521 283.819 69.3521 284.493 69.3521C284.657 69.8431 284.82 70.3341 284.989 70.84C284.825 71.1674 284.662 71.4947 284.493 71.832C283.675 71.6683 282.856 71.5046 282.013 71.336C282.177 70.6813 282.341 70.0266 282.509 69.3521Z" fill="#F6A523"/>
<path d="M382.666 56.4561C383.648 56.7016 383.648 56.7016 384.65 56.952C384.65 57.6067 384.65 58.2614 384.65 58.936C384.159 59.0997 383.668 59.2633 383.162 59.432C382.835 59.2683 382.507 59.1046 382.17 58.936C382.334 58.1176 382.497 57.2992 382.666 56.4561Z" fill="#F5A523"/>
<path d="M257.222 56.4561C258.204 56.7016 258.204 56.7016 259.206 56.952C259.206 57.6067 259.206 58.2614 259.206 58.936C258.715 59.0997 258.224 59.2633 257.718 59.432C257.39 59.2683 257.063 59.1046 256.726 58.936C256.89 58.1176 257.053 57.2992 257.222 56.4561Z" fill="#F5A523"/>
<path d="M254.247 56.4561C255.229 56.7016 255.229 56.7016 256.231 56.952C256.067 57.6067 255.904 58.2614 255.735 58.936C255.08 58.936 254.426 58.936 253.751 58.936C253.915 58.1176 254.078 57.2992 254.247 56.4561Z" fill="#F6A523"/>
<path d="M182.352 56.4561C183.334 56.7016 183.334 56.7016 184.336 56.952C184.336 57.6067 184.336 58.2614 184.336 58.936C183.845 59.0997 183.354 59.2633 182.848 59.432C182.521 59.2683 182.193 59.1046 181.856 58.936C182.02 58.1176 182.184 57.2992 182.352 56.4561Z" fill="#F5A523"/>
</svg>
