<svg width="181" height="106" viewBox="0 0 181 106" fill="none" xmlns="http://www.w3.org/2000/svg">
<g clip-path="url(#clip0_189_18626)">
<path fill-rule="evenodd" clip-rule="evenodd" d="M91.4136 2.81979C92.2123 2.13833 91.7895 0.610916 93.011 0.35243C93.8567 0.117443 94.35 0.90465 94.7611 1.48037C94.4792 1.59003 94.1973 1.70752 93.9154 1.83285C93.7627 1.62136 93.4573 1.18663 93.3046 0.975146C93.0345 1.44512 92.8583 1.97384 92.7526 2.50256C93.3751 2.51431 93.9976 2.52606 94.6201 2.53781C94.6201 2.73755 94.6084 3.13703 94.6084 3.33676C93.5513 3.33676 92.5059 3.33676 91.4488 3.32501C91.4371 3.19577 91.4254 2.94904 91.4136 2.81979ZM18.8967 3.59525C18.9437 2.85504 18.9671 1.78585 19.9068 1.62136C20.6585 1.36287 21.2928 1.90334 21.6216 2.52606C21.422 2.7493 21.1988 2.94904 20.9874 3.16052C20.7877 2.92554 20.4001 2.45556 20.2004 2.20883C19.989 2.69055 19.8011 3.17227 19.6366 3.66575C20.4471 3.79499 21.7039 3.36026 21.7626 4.57045C20.6585 4.62919 19.5544 4.61744 18.4503 4.62919C18.4034 4.47645 18.3094 4.15922 18.2624 4.00648C18.4268 3.90073 18.744 3.70099 18.8967 3.59525ZM5.51851 4.25321C6.03531 4.25321 6.55211 4.25321 7.06892 4.25321C7.08066 7.70752 7.06892 11.1736 7.06892 14.6279C7.18637 16.1906 5.91785 17.5887 4.44966 17.9295C2.53514 18.4699 0.338724 16.9425 0.233014 14.9451C0.174287 13.4999 0.221269 12.0548 0.233014 10.6096C0.757648 10.6174 1.28228 10.6253 1.80692 10.6331C1.84215 12.0313 1.73644 13.453 1.86564 14.8511C2.01834 16.0613 3.59224 16.8368 4.6141 16.0966C5.36581 15.6618 5.55374 14.7219 5.51851 13.9229C5.51851 10.7036 5.49501 7.48428 5.51851 4.25321ZM22.8784 4.24146C23.4187 4.2493 23.959 4.25713 24.4993 4.26496C24.511 7.1318 24.5345 9.99864 24.4993 12.8655C24.558 14.1344 23.5479 15.2976 22.2676 15.3798C20.4941 15.4856 18.7087 15.4033 16.9352 15.4033C16.9352 14.8629 16.9352 14.3107 16.9352 13.7702C18.5913 13.7232 20.2474 13.8054 21.9035 13.7349C22.3968 13.7819 22.9019 13.406 22.8432 12.889C22.9136 9.99864 22.8197 7.12005 22.8784 4.24146ZM26.0497 4.25321C26.5665 4.25321 27.0951 4.25321 27.6236 4.25321C27.7998 7.96601 27.6823 11.6906 27.6236 15.4033C27.099 15.4033 26.5704 15.4033 26.038 15.4033C26.0497 11.6906 26.038 7.97776 26.0497 4.25321ZM62.778 4.30021C63.283 4.24146 63.7881 4.22971 64.2932 4.20622C64.3519 5.87462 64.3167 7.53128 64.3167 9.18794C65.5617 8.36548 66.8889 7.39029 68.4628 7.55478C69.9075 7.57828 71.1173 8.85896 71.317 10.2454C71.4579 11.3381 71.4697 12.466 71.3052 13.5587C71.0821 14.7101 69.9075 15.4386 68.7917 15.4151C66.9829 15.4503 65.1858 15.4033 63.3888 15.4268C61.9206 15.4033 60.4171 15.5796 59.0077 15.0626C58.2442 15.3328 57.4573 15.4738 56.6468 15.4268C52.5946 15.3798 48.5189 15.4856 44.4667 15.3798C44.361 15.3093 44.1613 15.1684 44.0556 15.0979C43.7385 13.9699 43.9851 12.7362 43.9264 11.5731C43.8677 10.8211 44.1496 9.79891 43.3626 9.34068C42.7519 8.81196 41.73 9.44643 41.7417 10.1984C41.6478 12.3368 41.8122 14.4751 41.683 16.6018C41.6948 17.4125 40.6611 17.248 40.1209 17.3185C38.453 17.3067 36.7851 17.4242 35.129 17.2245C33.0735 16.9425 31.6993 14.5104 32.5097 12.607C32.8386 11.4673 33.8957 10.8093 34.8706 10.2571C35.1525 10.7154 35.4344 11.1736 35.7163 11.6318C35.0938 12.09 34.2598 12.4425 34.0249 13.2532C33.5903 14.3342 34.53 15.5678 35.6575 15.6383C37.1257 15.7206 38.5939 15.6383 40.0504 15.6618C40.1091 13.7349 39.9799 11.7963 40.1091 9.8694C40.2735 7.82502 43.0572 6.77932 44.5489 8.154C46.1698 9.54042 45.4181 11.902 45.5708 13.7584C49.7287 13.7232 53.8984 13.8172 58.0563 13.6997C58.115 11.7728 57.9976 9.8459 58.1033 7.91901C58.5848 7.74277 59.1134 7.76627 59.6067 7.90726C59.8416 9.83415 59.6537 11.7845 59.7124 13.7232C60.6873 13.7584 61.6857 13.7584 62.6723 13.7584C62.7193 10.6096 62.5078 7.43729 62.778 4.30021ZM64.3284 11.2323C64.3284 12.0783 64.3167 12.9125 64.3167 13.7584C65.9375 13.7232 67.5467 13.8289 69.1676 13.6997C69.9663 13.4882 69.6726 12.4895 69.7548 11.8903C69.8253 10.8681 69.7196 9.39943 68.4511 9.21144C66.8419 9.11744 65.5264 10.3159 64.3284 11.2323ZM92.2006 4.24146C92.7174 4.31196 93.3751 4.08872 93.7979 4.40596C93.8919 8.07175 93.8214 11.7375 93.8214 15.4033C93.2929 15.4033 92.7526 15.4151 92.224 15.4151C92.1418 11.6905 92.1771 7.96601 92.2006 4.24146ZM107.399 4.28846C107.94 4.25321 108.468 4.22972 109.02 4.21797C109.102 7.39029 108.997 10.5626 109.079 13.7349C113.765 13.7584 118.452 13.7937 123.127 13.7114C123.174 11.714 123.068 9.71666 123.209 7.71927C123.726 7.83676 124.36 7.67227 124.783 8.06C124.865 9.95165 124.783 11.8433 124.806 13.7232C126.169 13.7702 127.519 13.7584 128.882 13.7349C128.917 11.7728 128.87 9.8224 128.905 7.87201C129.457 7.88376 129.998 7.89551 130.55 7.91901C130.514 9.8224 130.608 11.714 130.514 13.6174C130.468 14.6631 129.469 15.4621 128.447 15.4151C126.991 15.4386 125.487 15.5561 124.101 15.0626C123.432 15.2741 122.739 15.4621 122.034 15.4268C118.205 15.4151 114.388 15.4151 110.559 15.4268C109.807 15.4503 109.079 15.2741 108.362 15.0626C106.248 15.7441 103.981 15.3211 101.797 15.4033C99.6002 15.4268 97.9441 13.0065 98.6254 10.9386C98.9425 9.68141 100.058 8.92945 101.139 8.37723C101.389 8.85504 101.636 9.33285 101.879 9.81065C101.233 10.2689 100.281 10.6449 100.188 11.5496C99.9056 12.5718 100.74 13.7349 101.808 13.7349C103.664 13.7937 105.508 13.7467 107.364 13.7349C107.435 10.5861 107.376 7.43729 107.399 4.28846ZM66.8185 4.64094C67.3118 4.64094 67.8051 4.66444 68.2866 4.67619C68.2945 5.20883 68.2984 5.74146 68.2984 6.2741C67.8051 6.28585 67.3118 6.2976 66.8302 6.2976C66.8145 5.74146 66.8106 5.18925 66.8185 4.64094ZM123.197 4.71144C123.698 4.71144 124.203 4.71144 124.712 4.71144C124.697 5.24408 124.677 5.77671 124.653 6.30935C124.172 6.2976 123.702 6.28585 123.221 6.2741C123.205 5.75713 123.197 5.23624 123.197 4.71144ZM19.1668 5.40465C19.6915 5.39682 20.22 5.38898 20.7525 5.38115C20.8347 7.95426 20.7877 10.5274 20.776 13.1005C20.2357 13.1005 19.6954 13.1005 19.1668 13.0887C19.1668 10.5274 19.1551 7.96601 19.1668 5.40465ZM103.183 8.9882C103.147 8.14225 103.418 6.90857 104.498 6.96731C105.367 6.81457 105.731 7.73102 106.025 8.35374C105.414 8.27149 104.839 8.06 104.251 7.90726C104.122 8.28324 104.04 8.67097 103.946 9.0587C104.733 9.19969 106.049 8.74146 106.025 9.9399C104.909 9.97515 103.793 9.9634 102.678 9.97515C102.654 9.81066 102.607 9.50517 102.572 9.35243C102.725 9.25844 103.03 9.0822 103.183 8.9882ZM10.9215 7.69577C12.7772 7.04956 15.0441 8.28324 15.3378 10.2689C15.4787 11.9373 15.3965 13.6292 15.3965 15.3093C15.4435 16.7898 14.2689 18.1644 12.8242 18.4229C11.9785 18.5287 11.1094 18.4817 10.2637 18.4817C10.252 17.9412 10.252 17.4007 10.3224 16.8603C11.1446 16.7663 11.9785 16.8485 12.8007 16.731C13.3293 16.4843 13.5759 15.9203 13.9048 15.4738C12.4484 15.3916 10.7218 15.6501 9.62944 14.4516C7.84412 12.56 8.23172 8.60047 10.9215 7.69577ZM11.2621 9.35243C10.017 9.92815 10.1345 11.5731 10.4046 12.701C10.9449 14.0522 12.5776 13.7349 13.7404 13.7702C13.7169 12.6305 13.8226 11.4791 13.6582 10.3394C13.341 9.42293 12.1547 8.84721 11.2621 9.35243ZM73.0318 9.92815C73.6309 7.59003 76.9314 6.73233 78.5992 8.44773C80.1614 9.75191 79.5389 11.9725 79.6446 13.7467C82.7806 13.7349 85.9167 13.7819 89.0528 13.7232C89.135 11.7963 89.0058 9.85765 89.1232 7.93076C89.6048 7.78977 90.1216 7.81327 90.6149 7.80152C90.6501 9.72841 90.6736 11.6671 90.6267 13.6057C90.6619 14.6396 89.6635 15.4386 88.6886 15.4033C85.717 15.4503 82.7337 15.4151 79.762 15.4151C79.5389 16.3198 79.2217 17.248 78.4348 17.812C77.3307 18.7754 75.7686 18.4347 74.4296 18.4347C74.4883 17.8942 74.5588 17.3537 74.6292 16.8015C75.4162 16.7898 76.2266 16.872 77.0253 16.731C77.5891 16.5313 77.8475 15.9203 78.1881 15.4621C76.7552 15.3798 75.0403 15.6736 73.9597 14.4869C72.656 13.359 72.8439 11.4673 73.0318 9.92815ZM75.4514 9.39943C74.2651 10.0456 74.4178 11.6671 74.7115 12.7597C75.287 14.0639 76.8844 13.7232 78.0237 13.7702C78.0119 12.6892 78.0824 11.5966 77.9767 10.5274C77.777 9.45817 76.3793 8.78846 75.4514 9.39943ZM58.1268 16.7193C58.6279 16.7271 59.133 16.7389 59.6419 16.7545C59.6302 17.248 59.6302 17.7532 59.5715 18.2584C59.0899 18.3289 58.6083 18.3289 58.1268 18.3407C58.1189 17.8002 58.1189 17.2597 58.1268 16.7193ZM88.1366 16.8015C88.6299 16.731 89.135 16.7193 89.64 16.6958C89.64 17.2245 89.64 17.7415 89.5813 18.2584C89.2289 18.3289 88.8766 18.3877 88.5242 18.3407C87.7842 18.2702 88.1836 17.295 88.1366 16.8015ZM127.977 16.731C128.494 16.731 129.011 16.7428 129.528 16.7663C129.528 17.2676 129.528 17.765 129.528 18.2584C129.011 18.2663 128.494 18.2702 127.977 18.2702C127.97 17.7532 127.97 17.2402 127.977 16.731ZM35.6693 18.7167C36.1744 18.7167 36.6912 18.7284 37.208 18.7402C37.208 19.2493 37.208 19.7584 37.208 20.2676C36.6912 20.2676 36.1783 20.2637 35.6693 20.2558C35.6693 19.7389 35.6693 19.2336 35.6693 18.7167ZM37.9832 18.7402C38.5078 18.7323 39.0324 18.7284 39.5571 18.7284C39.5453 19.2219 39.5453 19.7154 39.4866 20.2206C38.9933 20.2676 38.4882 20.2676 37.9949 20.2793C37.9832 19.7624 37.9832 19.2571 37.9832 18.7402ZM0.209523 27.8694C11.8728 27.8811 23.5244 27.8694 35.1877 27.8812C35.176 31.3472 35.1877 34.825 35.176 38.2911C27.6941 38.2911 20.2239 38.2793 12.742 38.2911C12.7538 42.6853 12.742 47.0796 12.742 51.4621C19.39 51.4738 26.038 51.4621 32.6859 51.4621C32.7681 54.6462 32.639 57.8185 32.7682 60.9908C26.0967 61.0143 19.4135 60.9908 12.742 61.0026C12.7538 68.9686 12.7303 76.9347 12.7538 84.9007C8.57234 84.9125 4.39093 84.9007 0.209523 84.9125C0.221269 65.902 0.221269 46.8798 0.209523 27.8694ZM50.9502 27.8812C55.6367 27.8694 60.3232 27.8812 64.9979 27.8812C71.963 46.8916 78.9046 65.902 85.8697 84.9007C81.3007 84.9007 76.7199 84.9125 72.1509 84.9007C70.9529 81.1057 69.7079 77.3224 68.4981 73.5274C61.1219 73.5156 53.7574 73.5274 46.3812 73.5156C45.054 77.3107 43.8207 81.1292 42.4935 84.9125C38.1711 84.9007 33.8487 84.9242 29.5264 84.9007C36.7029 65.902 43.809 46.8916 50.9502 27.8812ZM49.6582 63.4112C54.838 63.4347 60.0178 63.4112 65.1976 63.4112C63.5532 58.4177 61.9441 53.4007 60.3114 48.4073C59.3483 45.4229 58.3382 42.4503 57.5982 39.3955C55.1316 47.4673 52.3714 55.4334 49.6582 63.4112ZM89.8749 27.8812C95.4267 27.8812 100.974 27.8812 106.518 27.8812C110.782 27.9046 115.128 27.6109 119.274 28.7858C123.491 29.8433 127.578 32.4516 129.387 36.5404C131.56 41.5221 130.879 47.949 126.991 51.9203C125.499 53.483 123.561 54.5169 121.517 55.1279C124.548 55.8681 127.531 57.2898 129.516 59.7571C132.359 63.1762 132.817 67.9817 131.936 72.1997C131.137 76.1592 128.576 79.6723 125.123 81.7284C121.177 84.137 116.467 84.8655 111.91 84.9007C104.569 84.9125 97.2159 84.9007 89.8749 84.9007C89.8749 65.8903 89.8867 46.8798 89.8749 27.8812ZM102.407 37.7154C102.419 42.1801 102.419 46.6449 102.419 51.1096C105.391 51.0744 108.374 51.2036 111.346 51.0274C113.765 50.8629 116.408 49.7584 117.348 47.3498C118.135 45.1997 118.193 42.5796 116.96 40.5704C115.574 38.4908 112.931 37.7859 110.571 37.7271C107.846 37.7036 105.132 37.7271 102.407 37.7154ZM102.419 59.7219C102.411 64.8289 102.411 69.9399 102.419 75.0548C105.59 74.9843 108.774 75.1958 111.933 74.9255C114.458 74.7258 117.089 73.4216 118.099 70.966C119.074 68.4517 119.004 65.4556 117.712 63.0704C116.432 60.7911 113.718 59.8746 111.24 59.7689C108.292 59.6514 105.356 59.7571 102.419 59.7219ZM7.90285 93.9595C9.26533 93.5013 9.92308 95.7689 8.45489 96.0509C7.12764 96.4151 6.61084 94.2532 7.90285 93.9595ZM40.1913 94.2297C40.7786 94.218 41.3541 94.218 41.9414 94.218C41.9414 95.3929 41.9414 96.5796 41.9179 97.7663C43.3744 96.9086 45.5943 96.9908 46.4869 98.6005C47.5088 100.574 47.3796 103.523 45.3946 104.863C43.8442 105.909 41.8827 105.486 40.2031 105.027C40.1913 101.42 40.2148 97.825 40.1913 94.2297ZM41.9414 98.953C42.0119 100.633 41.7535 102.384 42.0706 104.029C43.0455 104.287 44.2788 104.193 44.8308 103.23C45.4651 102.055 45.5003 100.445 44.7721 99.3054C44.1143 98.3537 42.8576 98.6005 41.9414 98.953ZM69.5199 94.218C70.0955 94.218 70.6592 94.218 71.2348 94.218C71.2348 95.4164 71.2348 96.6148 71.223 97.8015C72.1979 97.3433 73.3137 97.0143 74.3943 97.3315C75.3692 97.5783 75.9682 98.5887 75.9682 99.5522C76.027 101.491 75.9682 103.429 75.9917 105.368C75.4279 105.368 74.8641 105.368 74.3004 105.368C74.2534 103.429 74.4296 101.491 74.2181 99.5639C73.9128 98.2245 72.1627 98.483 71.2935 99.0705C71.1408 101.162 71.27 103.277 71.2348 105.368C70.6632 105.368 70.0915 105.368 69.5199 105.368C69.5317 101.655 69.5317 97.9308 69.5199 94.218ZM84.6952 94.2297C85.2746 94.2219 85.858 94.218 86.4452 94.218C86.4452 95.4047 86.4452 96.5796 86.4218 97.7663C87.5493 97.1553 89.041 96.9438 90.1568 97.7075C91.3901 98.5652 91.672 100.187 91.6015 101.597C91.5663 103.018 90.8263 104.499 89.4873 105.11C87.9722 105.838 86.2456 105.427 84.6952 105.004C84.7069 101.42 84.7069 97.825 84.6952 94.2297ZM86.4452 98.9412C86.4374 100.649 86.4413 102.356 86.457 104.064C87.3144 104.099 88.348 104.334 89.0293 103.629C90.0276 102.537 90.0041 100.774 89.4169 99.4934C88.8178 98.389 87.4319 98.5417 86.4452 98.9412ZM92.8231 94.2532C93.3399 93.607 94.6084 93.9242 94.6671 94.7937C94.8785 95.6514 93.8214 96.4151 93.0815 95.9099C92.4707 95.6279 92.2945 94.6997 92.8231 94.2532ZM124.078 94.218C124.642 94.218 125.206 94.2297 125.781 94.2297C125.781 96.4033 125.769 98.5652 125.793 100.739C126.709 99.5874 127.625 98.436 128.565 97.308C129.199 97.308 129.833 97.3159 130.468 97.3315C129.446 98.5182 128.471 99.7519 127.437 100.939C128.236 101.961 129.023 102.971 129.822 103.982C130.009 104.029 130.374 104.111 130.561 104.146C130.561 104.487 130.538 105.145 130.538 105.474C129.845 105.392 129.035 105.474 128.506 104.91C127.496 103.841 126.697 102.595 125.793 101.444C125.769 102.748 125.781 104.052 125.793 105.368C125.213 105.368 124.638 105.368 124.066 105.368C124.09 101.655 124.078 97.9308 124.078 94.218ZM0.221269 95.0992C2.19452 95.0992 4.15602 95.0992 6.14102 95.0992C6.13319 95.6005 6.13319 96.1018 6.14102 96.6031C4.73938 96.6031 3.34167 96.6031 1.94786 96.6031C1.94786 97.5195 1.94786 98.436 1.95961 99.3524C3.19289 99.3524 4.42617 99.3524 5.6712 99.3524C5.6712 99.8146 5.6712 100.281 5.6712 100.751C4.42617 100.743 3.18506 100.739 1.94786 100.739C1.95961 102.278 1.94786 103.817 1.95961 105.368C1.37233 105.368 0.7968 105.368 0.209523 105.368C0.221269 101.949 0.209523 98.5182 0.221269 95.0992ZM33.7078 95.0757C34.3538 95.0992 34.9998 95.0757 35.6458 95.1579C36.9965 98.5182 38.1006 101.984 39.3809 105.368C38.7231 105.368 38.0693 105.368 37.4194 105.368C37.161 104.593 36.9065 103.817 36.6559 103.042C35.2699 103.053 33.884 103.053 32.498 103.053C32.2279 103.817 31.9695 104.593 31.7111 105.368C31.1003 105.368 30.4895 105.368 29.8787 105.368C31.1825 101.949 32.4158 98.5065 33.7078 95.0757ZM32.9913 101.514C34.0602 101.526 35.1173 101.526 36.1861 101.514C35.6575 99.9517 35.1055 98.4007 34.6592 96.8146C34.0954 98.3772 33.5786 99.9517 32.9913 101.514ZM59.9356 95.0992C62.2964 95.1932 65.2446 94.6057 66.9711 96.6501C68.6625 98.8472 68.5803 102.466 66.4543 104.346C64.6338 105.873 62.0968 105.251 59.9238 105.368C59.9356 101.949 59.9238 98.5182 59.9356 95.0992ZM61.7326 96.5678C61.7326 99 61.7444 101.444 61.7326 103.876C63.0716 103.876 64.7512 104.052 65.6087 102.783C66.5131 101.35 66.4543 99.3877 65.7496 97.8955C64.9509 96.4621 63.1421 96.5561 61.7326 96.5678ZM100.27 105.368C100.281 101.949 100.27 98.5182 100.27 95.0992C102.102 95.1814 104.064 94.8172 105.802 95.5809C107.517 96.4503 107.376 99.1644 105.661 99.9869C107.728 100.68 107.904 103.735 106.096 104.816C104.322 105.803 102.196 105.215 100.27 105.368ZM102.02 96.5796C102.02 97.5195 102.02 98.4673 102.02 99.4229C102.795 99.3877 103.582 99.4582 104.345 99.2937C105.45 99 105.614 97.2728 104.592 96.7676C103.77 96.4621 102.866 96.6148 102.02 96.5796ZM102.02 100.668C102.02 101.773 102.02 102.877 102.032 103.982C102.912 103.935 103.852 104.064 104.698 103.723C105.496 103.324 105.555 102.266 105.285 101.514C104.627 100.363 103.112 100.751 102.02 100.668ZM22.6435 95.2637C23.1133 95.248 23.5831 95.2323 24.053 95.2167C24.0412 95.9216 24.053 96.6148 24.0412 97.3198C24.6598 97.312 25.2784 97.308 25.897 97.308C25.897 97.637 25.8853 98.295 25.8853 98.624C25.2628 98.6122 24.652 98.6122 24.0412 98.6122C24.1234 100.292 23.8768 102.008 24.1939 103.664C24.5933 104.369 25.4507 103.97 26.0967 104.017C26.0849 104.475 26.0732 104.922 26.0614 105.38C25.251 105.439 24.4053 105.591 23.5949 105.368C22.8549 105.133 22.3733 104.381 22.3968 103.629C22.3146 101.961 22.3851 100.281 22.3733 98.6122C22.1032 98.6122 21.5864 98.6122 21.328 98.624C21.3123 98.1853 21.3006 97.7506 21.2928 97.3198C21.5629 97.3198 22.1149 97.3198 22.3851 97.3198C22.4634 96.6305 22.5495 95.9451 22.6435 95.2637ZM7.33906 97.3198C7.91459 97.3198 8.49013 97.308 9.0774 97.308C9.06566 99.9986 9.06566 102.677 9.0774 105.368C8.49796 105.368 7.92242 105.368 7.35081 105.368C7.33906 102.689 7.35081 100.01 7.33906 97.3198ZM12.3544 97.9778C13.1414 97.3785 14.081 97.1553 15.0559 97.2023C15.0794 97.7193 15.0989 98.2402 15.1146 98.765C14.1515 98.6827 13.1883 98.8002 12.3779 99.3524C12.4014 101.362 12.3779 103.359 12.3896 105.368C11.818 105.368 11.2464 105.368 10.6748 105.368C10.6865 102.677 10.6865 99.9986 10.6748 97.3198C11.2464 97.312 11.818 97.308 12.3896 97.308C12.3779 97.4725 12.3662 97.8133 12.3544 97.9778ZM16.8412 97.496C18.0158 97.0143 19.3078 97.2728 20.5176 97.449C20.5176 97.8015 20.541 98.5065 20.541 98.859C19.5309 98.7532 18.1802 98.1775 17.3345 98.9765C16.8295 100.292 18.6383 100.398 19.4252 100.833C21.1636 101.279 21.5864 103.829 20.1652 104.875C18.8497 105.873 17.0644 105.486 15.5962 105.133C15.5962 104.781 15.5962 104.076 15.5962 103.723C16.5945 103.982 17.6751 104.381 18.7087 104.04C19.3313 103.841 19.6014 102.924 19.0376 102.501C18.2154 102.008 17.2523 101.843 16.4536 101.315C15.1498 100.422 15.326 98.06 16.8412 97.496ZM77.7183 97.5195C79.21 97.2728 81.0071 96.8263 82.2873 97.872C83.3679 98.9295 82.9803 100.586 83.039 101.937C83.1095 102.807 82.6867 104.087 83.873 104.311C83.8808 104.679 83.8886 105.047 83.8965 105.415C83.0273 105.556 82.1346 105.521 81.4886 104.839C80.4668 105.497 79.1043 105.779 77.9885 105.168C76.5907 104.416 76.5672 102.078 77.965 101.315C79.0103 100.68 80.2671 100.739 81.4416 100.704C81.2302 100.069 81.3712 99.1644 80.7017 98.7885C79.7033 98.3655 78.611 98.7532 77.6243 99.0235C77.6478 98.5182 77.6831 98.013 77.7183 97.5195ZM78.7989 102.525C78.5522 103.018 78.6462 103.735 79.1748 104.017C79.8677 104.44 80.6782 104.04 81.3594 103.758C81.3438 103.1 81.332 102.443 81.3242 101.785C80.4785 101.914 79.3744 101.738 78.7989 102.525ZM92.7526 97.308C93.3281 97.308 93.9154 97.308 94.4909 97.3198C94.4909 99.9986 94.4909 102.689 94.4909 105.368C93.9037 105.368 93.3281 105.368 92.7526 105.368C92.7761 102.677 92.7643 99.9986 92.7526 97.308ZM109.02 97.5078C110.653 97.2258 113.025 96.7088 114.024 98.4712C114.564 100.01 114.176 101.691 114.317 103.288C114.165 103.923 114.775 104.099 115.21 104.346C115.198 104.616 115.187 105.18 115.187 105.462C114.317 105.544 113.425 105.509 112.767 104.851C111.757 105.486 110.43 105.768 109.337 105.192C107.857 104.499 107.846 102.031 109.279 101.291C110.312 100.68 111.557 100.751 112.72 100.704C112.509 100.069 112.65 99.1879 112.004 98.7885C111.017 98.3655 109.936 98.7415 108.961 99C108.977 98.5065 108.997 98.0091 109.02 97.5078ZM110.089 102.49C109.819 103.018 109.936 103.747 110.5 104.052C111.123 104.322 111.898 104.193 112.462 103.829C112.697 103.183 112.614 102.466 112.661 101.796C111.792 101.902 110.723 101.761 110.089 102.49ZM116.032 97.2728C116.678 97.3315 117.418 97.2023 117.935 97.7193C118.933 97.2493 120.12 97.0143 121.189 97.4255C121.999 97.8015 122.457 98.6827 122.504 99.5522C122.61 101.491 122.504 103.429 122.551 105.368C121.964 105.368 121.38 105.368 120.801 105.368C120.754 103.429 120.907 101.491 120.73 99.5639C120.413 98.154 118.698 98.6005 117.759 99.0352C117.735 101.15 117.747 103.253 117.759 105.368C117.172 105.368 116.592 105.368 116.021 105.368C116.032 102.666 116.02 99.9752 116.032 97.2728ZM48.1548 97.3198C48.7186 97.3198 49.2863 97.3198 49.8579 97.3198C49.8579 98.9647 49.8344 100.61 49.8462 102.266C49.8462 102.912 49.9636 103.688 50.6096 104.005C51.3848 104.311 52.16 103.923 52.8883 103.7C52.8883 101.569 52.8883 99.4425 52.8883 97.3198C53.4834 97.3198 54.0824 97.3198 54.6853 97.3198C54.6853 100.014 54.6853 102.709 54.6853 105.403C54.0158 105.368 53.2993 105.415 52.7121 105.004C51.6667 105.462 50.3982 105.768 49.3294 105.192C48.4954 104.792 48.19 103.817 48.1548 102.959C48.1196 101.08 48.1665 99.1997 48.1548 97.3198Z" fill="white"/>
<path d="M129.258 27.9165C146.183 18.6228 163.12 9.35254 180.046 0.0705566C172.622 12.1371 166.162 24.8499 161.523 38.2559C157.271 50.4988 154.475 63.3408 154.053 76.3238C153.724 83.2677 154.323 90.2351 155.321 97.1084C147.499 85.6998 143.118 71.9413 143.047 58.0888C142.93 47.7259 145.185 37.3395 149.578 27.94C142.8 27.9048 136.023 27.9518 129.258 27.9165Z" fill="#EF2E24"/>
</g>
<defs>
<clipPath id="clip0_189_18626">
<rect width="179.942" height="105.627" fill="white" transform="translate(0.150879)"/>
</clipPath>
</defs>
</svg>
