<svg width="201" height="118" viewBox="0 0 201 118" fill="none" xmlns="http://www.w3.org/2000/svg">
<g clip-path="url(#clip0_628_2024)">
<path fill-rule="evenodd" clip-rule="evenodd" d="M101.685 3.13425C102.572 2.37683 102.102 0.679148 103.46 0.391849C104.4 0.130667 104.948 1.00562 105.405 1.64552C105.092 1.7674 104.779 1.89799 104.465 2.03729C104.296 1.80223 103.956 1.31904 103.786 1.08398C103.486 1.60634 103.29 2.194 103.173 2.78166C103.865 2.79472 104.557 2.80778 105.249 2.82083C105.249 3.04284 105.235 3.48685 105.235 3.70885C104.061 3.70885 102.899 3.70885 101.724 3.69579C101.711 3.55214 101.698 3.2779 101.685 3.13425ZM21.0841 3.99615C21.1363 3.17343 21.1624 1.98505 22.2068 1.80223C23.0423 1.51493 23.7472 2.11565 24.1128 2.80778C23.8908 3.0559 23.6428 3.2779 23.4078 3.51297C23.1859 3.25178 22.7551 2.72942 22.5331 2.45518C22.2982 2.9906 22.0893 3.52602 21.9065 4.07451C22.8073 4.21816 24.2042 3.73497 24.2694 5.08005C23.0423 5.14535 21.8151 5.13229 20.588 5.14535C20.5358 4.97558 20.4313 4.62299 20.3791 4.45322C20.5619 4.33569 20.9143 4.11368 21.0841 3.99615ZM6.21461 4.72746C6.78902 4.72746 7.36343 4.72746 7.93785 4.72746C7.9509 8.56682 7.93785 12.4192 7.93785 16.2586C8.0684 17.9955 6.65847 19.5495 5.02662 19.9282C2.89868 20.5289 0.457429 18.8312 0.339936 16.6112C0.274662 15.0049 0.326881 13.3987 0.339936 11.7924C0.923052 11.8011 1.50617 11.8098 2.08928 11.8185C2.12845 13.3726 2.01095 14.9527 2.15456 16.5067C2.32427 17.8518 4.07362 18.7137 5.20939 17.891C6.0449 17.4078 6.25377 16.3631 6.21461 15.4751C6.21461 11.8969 6.1885 8.3187 6.21461 4.72746ZM25.5096 4.7144C26.1102 4.72311 26.7107 4.73181 27.3112 4.74052C27.3243 7.92693 27.3504 11.1133 27.3112 14.2998C27.3765 15.7101 26.2538 17.003 24.8308 17.0944C22.8595 17.2119 20.8752 17.1205 18.9039 17.1205C18.9039 16.5198 18.9039 15.906 18.9039 15.3053C20.7446 15.2531 22.5854 15.3445 24.4261 15.2661C24.9744 15.3184 25.5358 14.9005 25.4705 14.3259C25.5488 11.1133 25.4444 7.91387 25.5096 4.7144ZM29.0345 4.72746C29.6089 4.72746 30.1963 4.72746 30.7838 4.72746C30.9796 8.85412 30.8491 12.9938 30.7838 17.1205C30.2007 17.1205 29.6132 17.1205 29.0214 17.1205C29.0345 12.9938 29.0214 8.86718 29.0345 4.72746ZM69.8569 4.77969C70.4183 4.7144 70.9796 4.70134 71.541 4.67522C71.6062 6.52961 71.5671 8.37094 71.5671 10.2123C72.9509 9.29813 74.4261 8.21423 76.1754 8.39706C77.7812 8.42317 79.1258 9.84661 79.3478 11.3876C79.5044 12.6021 79.5175 13.8557 79.3347 15.0702C79.0867 16.35 77.7812 17.1597 76.541 17.1336C74.5305 17.1727 72.5331 17.1205 70.5358 17.1466C68.9039 17.1205 67.2329 17.3164 65.6663 16.7418C64.8177 17.0422 63.9431 17.1989 63.0423 17.1466C58.5384 17.0944 54.0083 17.2119 49.5044 17.0944C49.3869 17.016 49.165 16.8593 49.0475 16.781C48.695 15.5273 48.9692 14.1561 48.9039 12.8633C48.8386 12.0275 49.1519 10.8913 48.2773 10.382C47.5984 9.79438 46.4627 10.4996 46.4757 11.3353C46.3713 13.7121 46.554 16.0888 46.4104 18.4525C46.4235 19.3536 45.2747 19.1708 44.6741 19.2491C42.8204 19.2361 40.9666 19.3667 39.1258 19.1447C36.8412 18.8313 35.3138 16.128 36.2146 14.0125C36.5801 12.7457 37.7551 12.0144 38.8386 11.4006C39.1519 11.9099 39.4653 12.4192 39.7786 12.9286C39.0867 13.4379 38.1598 13.8296 37.8987 14.7307C37.4157 15.9321 38.46 17.3033 39.7133 17.3817C41.3452 17.4731 42.977 17.3817 44.5958 17.4078C44.6611 15.2661 44.5175 13.1114 44.6611 10.9697C44.8439 8.69742 47.9378 7.53516 49.5958 9.06307C51.3974 10.604 50.5619 13.2289 50.7316 15.2922C55.353 15.2531 59.9875 15.3575 64.6089 15.2269C64.6741 13.0853 64.5436 10.9436 64.6611 8.80189C65.1963 8.606 65.7838 8.63212 66.3321 8.78883C66.5932 10.9305 66.3843 13.0983 66.4496 15.2531C67.5331 15.2922 68.6428 15.2922 69.7394 15.2922C69.7916 11.7924 69.5566 8.26647 69.8569 4.77969ZM71.5801 12.4845C71.5801 13.4248 71.5671 14.352 71.5671 15.2922C73.3687 15.2531 75.1572 15.3706 76.9587 15.2269C77.8465 14.9919 77.5201 13.8819 77.6115 13.2159C77.6898 12.0797 77.5723 10.4473 76.1624 10.2384C74.3739 10.1339 72.9117 11.4659 71.5801 12.4845ZM102.559 4.7144C103.134 4.79275 103.865 4.54463 104.335 4.89723C104.439 8.97166 104.361 13.0461 104.361 17.1205C103.773 17.1205 103.173 17.1336 102.585 17.1336C102.494 12.9938 102.533 8.85412 102.559 4.7144ZM119.452 4.76664C120.053 4.72746 120.64 4.70134 121.254 4.68828C121.345 8.21423 121.228 11.7402 121.319 15.2661C126.528 15.2922 131.737 15.3314 136.933 15.24C136.985 13.02 136.867 10.7999 137.024 8.57988C137.598 8.71047 138.303 8.52765 138.773 8.9586C138.865 11.0611 138.773 13.1636 138.799 15.2531C140.314 15.3053 141.815 15.2922 143.329 15.2661C143.369 13.0853 143.316 10.9175 143.356 8.74965C143.969 8.76271 144.57 8.77577 145.183 8.80189C145.144 10.9175 145.249 13.02 145.144 15.1355C145.092 16.2978 143.982 17.1858 142.846 17.1336C141.228 17.1597 139.557 17.2903 138.016 16.7418C137.272 16.9769 136.502 17.1858 135.719 17.1466C131.463 17.1336 127.22 17.1336 122.964 17.1466C122.128 17.1727 121.319 16.9769 120.523 16.7418C118.173 17.4992 115.653 17.0291 113.225 17.1205C110.784 17.1466 108.943 14.4565 109.7 12.1581C110.053 10.7607 111.293 9.92497 112.494 9.31119C112.772 9.84226 113.047 10.3733 113.316 10.9044C112.598 11.4137 111.541 11.8316 111.437 12.8371C111.123 13.9733 112.05 15.2661 113.238 15.2661C115.301 15.3314 117.35 15.2792 119.413 15.2661C119.491 11.7663 119.426 8.26647 119.452 4.76664ZM74.3478 5.15841C74.8961 5.15841 75.4444 5.18453 75.9796 5.19759C75.9883 5.7896 75.9927 6.38161 75.9927 6.97362C75.4444 6.98668 74.8961 6.99974 74.3608 6.99974C74.3434 6.38161 74.3391 5.76783 74.3478 5.15841ZM137.011 5.23676C137.568 5.23676 138.129 5.23676 138.695 5.23676C138.678 5.82877 138.656 6.42078 138.63 7.0128C138.094 6.99974 137.572 6.98668 137.037 6.97362C137.02 6.39902 137.011 5.82007 137.011 5.23676ZM21.3843 6.00725C21.9674 5.99854 22.5549 5.98984 23.1467 5.98113C23.2381 8.84106 23.1859 11.701 23.1728 14.5609C22.5723 14.5609 21.9718 14.5609 21.3843 14.5479C21.3843 11.701 21.3713 8.85412 21.3843 6.00725ZM114.766 9.99026C114.726 9.05001 115.027 7.67881 116.228 7.7441C117.194 7.57434 117.598 8.59294 117.925 9.28507C117.246 9.19366 116.606 8.9586 115.954 8.78883C115.81 9.20672 115.719 9.63767 115.614 10.0686C116.489 10.2253 117.951 9.71602 117.925 11.048C116.685 11.0872 115.444 11.0742 114.204 11.0872C114.178 10.9044 114.126 10.5649 114.087 10.3951C114.256 10.2906 114.596 10.0947 114.766 9.99026ZM12.2198 8.55377C14.2825 7.83552 16.8021 9.20672 17.1284 11.4137C17.2851 13.2681 17.1937 15.1486 17.1937 17.016C17.2459 18.6615 15.9405 20.1894 14.3347 20.4767C13.3948 20.5942 12.4287 20.542 11.4888 20.542C11.4757 19.9413 11.4757 19.3406 11.554 18.7398C12.4679 18.6354 13.3948 18.7268 14.3086 18.5962C14.8961 18.3219 15.1702 17.6951 15.5358 17.1989C13.917 17.1075 11.9979 17.3948 10.7838 16.0627C8.79947 13.9602 9.23027 9.55931 12.2198 8.55377ZM12.5984 10.3951C11.2146 11.035 11.3452 12.8633 11.6454 14.1169C12.2459 15.6187 14.0606 15.2661 15.353 15.3053C15.3269 14.0386 15.4444 12.7588 15.2616 11.4921C14.9091 10.4734 13.5906 9.83355 12.5984 10.3951ZM81.2538 11.035C81.9196 8.43623 85.588 7.48292 87.4418 9.38955C89.1781 10.8391 88.4861 13.3073 88.6036 15.2792C92.0893 15.2661 95.5749 15.3184 99.0606 15.2531C99.1519 13.1114 99.0083 10.9566 99.1389 8.81495C99.6741 8.65824 100.249 8.68436 100.797 8.6713C100.836 10.813 100.862 12.9677 100.81 15.1225C100.849 16.2717 99.7394 17.1597 98.6559 17.1205C95.353 17.1727 92.0371 17.1336 88.7342 17.1336C88.4861 18.1391 88.1337 19.1708 87.259 19.7976C86.0318 20.8685 84.2955 20.4897 82.8073 20.4897C82.8726 19.889 82.9509 19.2883 83.0292 18.6745C83.9039 18.6615 84.8047 18.7529 85.6924 18.5962C86.319 18.3742 86.6063 17.6951 86.9848 17.1858C85.3922 17.0944 83.4861 17.4209 82.2851 16.1019C80.836 14.8482 81.0449 12.7457 81.2538 11.035ZM83.9431 10.4473C82.6245 11.1656 82.7942 12.9677 83.1206 14.1822C83.7603 15.6318 85.5358 15.2531 86.8021 15.3053C86.789 14.1039 86.8673 12.8894 86.7498 11.701C86.5279 10.5126 84.9744 9.76826 83.9431 10.4473ZM64.6872 18.5831C65.2442 18.5918 65.8056 18.6049 66.3713 18.6223C66.3582 19.1708 66.3582 19.7323 66.2929 20.2939C65.7577 20.3722 65.2224 20.3722 64.6872 20.3853C64.6785 19.7846 64.6785 19.1838 64.6872 18.5831ZM98.0423 18.6745C98.5906 18.5962 99.1519 18.5831 99.7133 18.557C99.7133 19.1447 99.7133 19.7193 99.648 20.2939C99.2564 20.3722 98.8647 20.4375 98.4731 20.3853C97.6506 20.3069 98.0945 19.223 98.0423 18.6745ZM142.324 18.5962C142.899 18.5962 143.473 18.6092 144.048 18.6354C144.048 19.1925 144.048 19.7454 144.048 20.2939C143.473 20.3026 142.899 20.3069 142.324 20.3069C142.316 19.7323 142.316 19.1621 142.324 18.5962ZM39.7264 20.8032C40.2877 20.8032 40.8621 20.8162 41.4365 20.8293C41.4365 21.3952 41.4365 21.9611 41.4365 22.527C40.8621 22.527 40.2921 22.5226 39.7264 22.5139C39.7264 21.9393 39.7264 21.3778 39.7264 20.8032ZM42.2982 20.8293C42.8813 20.8206 43.4644 20.8162 44.0475 20.8162C44.0345 21.3647 44.0345 21.9132 43.9692 22.4747C43.4209 22.527 42.8595 22.527 42.3112 22.54C42.2982 21.9654 42.2982 21.4039 42.2982 20.8293ZM0.313826 30.9762C13.2773 30.9892 26.2277 30.9762 39.1911 30.9892C39.1781 34.8417 39.1911 38.7071 39.1781 42.5596C30.8621 42.5596 22.5593 42.5465 14.2433 42.5596C14.2564 47.4437 14.2433 52.3278 14.2433 57.1988C21.6324 57.2118 29.0214 57.1988 36.4104 57.1988C36.5018 60.7378 36.3582 64.2637 36.5018 67.7897C29.0867 67.8158 21.6585 67.7897 14.2433 67.8028C14.2564 76.6568 14.2303 85.5108 14.2564 94.3649C9.60887 94.3779 4.96135 94.3649 0.313826 94.378C0.326881 73.2484 0.326881 52.1058 0.313826 30.9762ZM56.7107 30.9892C61.9196 30.9762 67.1284 30.9892 72.3243 30.9892C80.0658 52.1188 87.7812 73.2484 95.5227 94.3649C90.4444 94.3649 85.353 94.3779 80.2747 94.3649C78.9431 90.1468 77.5593 85.9418 76.2146 81.7237C68.0162 81.7107 59.8308 81.7237 51.6324 81.7107C50.1572 85.9287 48.7864 90.1729 47.3112 94.378C42.507 94.3649 37.7029 94.391 32.8987 94.3649C40.8752 73.2484 48.7734 52.1188 56.7107 30.9892ZM55.2747 70.4799C61.0318 70.506 66.789 70.4799 72.5462 70.4799C70.7185 64.9298 68.93 59.3535 67.1154 53.8034C66.0449 50.4864 64.9222 47.1825 64.0997 43.7871C61.3582 52.7587 58.2903 61.6128 55.2747 70.4799ZM99.9744 30.9892C106.145 30.9892 112.311 30.9892 118.473 30.9892C123.212 31.0154 128.042 30.6889 132.651 31.9948C137.337 33.1701 141.88 36.0692 143.891 40.6138C146.306 46.1508 145.549 53.2941 141.228 57.7081C139.57 59.4449 137.416 60.5941 135.144 61.2732C138.512 62.0959 141.828 63.6761 144.034 66.4185C147.194 70.2187 147.703 75.5598 146.724 80.248C145.836 84.6489 142.99 88.5536 139.152 90.8389C134.766 93.516 129.531 94.3257 124.465 94.3649C116.306 94.3779 108.134 94.3649 99.9744 94.3649C99.9744 73.2353 99.9875 52.1058 99.9744 30.9892ZM113.904 41.9197C113.917 46.8821 113.917 51.8446 113.917 56.807C117.22 56.7678 120.536 56.9115 123.839 56.7156C126.528 56.5328 129.465 55.3052 130.51 52.6281C131.384 50.2383 131.45 47.3261 130.079 45.093C128.538 42.7816 125.601 41.998 122.977 41.9327C119.948 41.9066 116.933 41.9327 113.904 41.9197ZM113.917 66.3793C113.908 72.0556 113.908 77.7363 113.917 83.4214C117.442 83.343 120.98 83.5781 124.491 83.2777C127.298 83.0557 130.222 81.6062 131.345 78.8768C132.429 76.0822 132.35 72.7521 130.914 70.1011C129.491 67.5677 126.476 66.5491 123.721 66.4315C120.444 66.301 117.181 66.4185 113.917 66.3793ZM8.86474 104.433C10.3791 103.924 11.1102 106.445 9.47832 106.758C8.00312 107.163 7.42871 104.76 8.86474 104.433ZM44.7525 104.734C45.4052 104.721 46.0449 104.721 46.6976 104.721C46.6976 106.027 46.6976 107.346 46.6715 108.665C48.2903 107.711 50.7577 107.803 51.7499 109.592C52.8856 111.786 52.742 115.064 50.5358 116.552C48.8125 117.715 46.6324 117.244 44.7655 116.735C44.7525 112.726 44.7786 108.73 44.7525 104.734ZM46.6976 109.984C46.776 111.851 46.4888 113.797 46.8412 115.625C47.9248 115.912 49.2955 115.808 49.9091 114.737C50.6141 113.431 50.6533 111.642 49.8439 110.375C49.1128 109.318 47.7159 109.592 46.6976 109.984ZM77.3504 104.721C77.9901 104.721 78.6167 104.721 79.2564 104.721C79.2564 106.053 79.2564 107.385 79.2433 108.704C80.3269 108.194 81.5671 107.829 82.7681 108.181C83.8517 108.456 84.5175 109.579 84.5175 110.65C84.5828 112.804 84.5175 114.959 84.5436 117.114C83.917 117.114 83.2903 117.114 82.6637 117.114C82.6115 114.959 82.8073 112.804 82.5723 110.663C82.2329 109.174 80.2877 109.461 79.3217 110.114C79.1519 112.439 79.2955 114.789 79.2564 117.114C78.621 117.114 77.9857 117.114 77.3504 117.114C77.3634 112.987 77.3634 108.847 77.3504 104.721ZM94.2172 104.734C94.8613 104.725 95.5096 104.721 96.1624 104.721C96.1624 106.04 96.1624 107.346 96.1363 108.665C97.3895 107.985 99.0475 107.75 100.288 108.599C101.658 109.553 101.972 111.355 101.893 112.922C101.854 114.502 101.032 116.147 99.5436 116.826C97.8595 117.636 95.9405 117.179 94.2172 116.709C94.2303 112.726 94.2303 108.73 94.2172 104.734ZM96.1624 109.97C96.1537 111.868 96.158 113.766 96.1754 115.664C97.1284 115.703 98.2773 115.965 99.0344 115.181C100.144 113.967 100.118 112.008 99.4653 110.584C98.7995 109.357 97.259 109.526 96.1624 109.97ZM103.251 104.76C103.826 104.042 105.235 104.394 105.301 105.361C105.536 106.314 104.361 107.163 103.538 106.601C102.86 106.288 102.664 105.256 103.251 104.76ZM137.99 104.721C138.617 104.721 139.243 104.734 139.883 104.734C139.883 107.15 139.87 109.553 139.896 111.969C140.914 110.689 141.933 109.409 142.977 108.155C143.682 108.155 144.387 108.164 145.092 108.181C143.956 109.5 142.873 110.872 141.724 112.191C142.611 113.327 143.486 114.45 144.374 115.573C144.583 115.625 144.987 115.716 145.196 115.756C145.196 116.134 145.17 116.866 145.17 117.231C144.4 117.14 143.499 117.231 142.912 116.604C141.789 115.416 140.901 114.032 139.896 112.752C139.87 114.202 139.883 115.651 139.896 117.114C139.252 117.114 138.612 117.114 137.977 117.114C138.003 112.987 137.99 108.847 137.99 104.721ZM0.326881 105.7C2.52009 105.7 4.70025 105.7 6.90652 105.7C6.89781 106.257 6.89781 106.815 6.90652 107.372C5.34864 107.372 3.79511 107.372 2.24594 107.372C2.24594 108.39 2.24594 109.409 2.259 110.428C3.62975 110.428 5.00051 110.428 6.38432 110.428C6.38432 110.941 6.38432 111.459 6.38432 111.982C5.00051 111.973 3.62105 111.969 2.24594 111.969C2.259 113.679 2.24594 115.39 2.259 117.114C1.60625 117.114 0.966568 117.114 0.313826 117.114C0.326881 113.314 0.313826 109.5 0.326881 105.7ZM37.5462 105.674C38.2642 105.7 38.9822 105.674 39.7003 105.765C41.2016 109.5 42.4287 113.353 43.8517 117.114C43.1206 117.114 42.3939 117.114 41.6715 117.114C41.3843 116.252 41.1015 115.39 40.823 114.528C39.2825 114.541 37.742 114.541 36.2016 114.541C35.9013 115.39 35.6141 116.252 35.3269 117.114C34.648 117.114 33.9692 117.114 33.2903 117.114C34.7394 113.314 36.1102 109.487 37.5462 105.674ZM36.7499 112.83C37.9378 112.843 39.1128 112.843 40.3008 112.83C39.7133 111.094 39.0997 109.37 38.6036 107.607C37.977 109.344 37.4026 111.094 36.7499 112.83ZM66.6976 105.7C69.3217 105.805 72.5984 105.152 74.5175 107.424C76.3974 109.866 76.306 113.888 73.9431 115.978C71.9196 117.675 69.0997 116.983 66.6846 117.114C66.6976 113.314 66.6846 109.5 66.6976 105.7ZM68.695 107.333C68.695 110.036 68.7081 112.752 68.695 115.455C70.1833 115.455 72.0501 115.651 73.0031 114.241C74.0083 112.648 73.9431 110.467 73.1598 108.808C72.272 107.215 70.2616 107.319 68.695 107.333ZM111.528 117.114C111.541 113.314 111.528 109.5 111.528 105.7C113.564 105.792 115.745 105.387 117.677 106.236C119.583 107.202 119.426 110.219 117.52 111.133C119.818 111.903 120.014 115.299 118.003 116.5C116.032 117.597 113.669 116.944 111.528 117.114ZM113.473 107.346C113.473 108.39 113.473 109.444 113.473 110.506C114.335 110.467 115.209 110.545 116.058 110.362C117.285 110.036 117.468 108.116 116.332 107.555C115.418 107.215 114.413 107.385 113.473 107.346ZM113.473 111.89C113.473 113.118 113.473 114.345 113.486 115.573C114.465 115.521 115.51 115.664 116.45 115.286C117.337 114.842 117.403 113.666 117.102 112.83C116.371 111.551 114.687 111.982 113.473 111.89ZM25.2486 105.883C25.7707 105.866 26.2929 105.848 26.8151 105.831C26.8021 106.614 26.8151 107.385 26.8021 108.168C27.4896 108.16 28.1772 108.155 28.8647 108.155C28.8647 108.521 28.8517 109.252 28.8517 109.618C28.1598 109.605 27.4809 109.605 26.8021 109.605C26.8935 111.472 26.6193 113.379 26.9718 115.22C27.4157 116.004 28.3687 115.56 29.0867 115.612C29.0736 116.121 29.0606 116.618 29.0475 117.127C28.1467 117.192 27.2068 117.362 26.306 117.114C25.4835 116.853 24.9483 116.017 24.9744 115.181C24.883 113.327 24.9613 111.459 24.9483 109.605C24.648 109.605 24.0736 109.605 23.7864 109.618C23.769 109.13 23.7559 108.647 23.7472 108.168C24.0475 108.168 24.6611 108.168 24.9613 108.168C25.0484 107.402 25.1441 106.64 25.2486 105.883ZM8.23811 108.168C8.87779 108.168 9.51748 108.155 10.1702 108.155C10.1572 111.146 10.1572 114.123 10.1702 117.114C9.52618 117.114 8.8865 117.114 8.25116 117.114C8.23811 114.136 8.25116 111.159 8.23811 108.168ZM13.8125 108.9C14.6872 108.234 15.7316 107.985 16.8151 108.038C16.8412 108.612 16.863 109.191 16.8804 109.775C15.8099 109.683 14.7394 109.814 13.8386 110.428C13.8647 112.661 13.8386 114.881 13.8517 117.114C13.2163 117.114 12.581 117.114 11.9457 117.114C11.9587 114.123 11.9587 111.146 11.9457 108.168C12.581 108.16 13.2163 108.155 13.8517 108.155C13.8386 108.338 13.8256 108.717 13.8125 108.9ZM18.7995 108.364C20.1049 107.829 21.541 108.116 22.8856 108.312C22.8856 108.704 22.9117 109.487 22.9117 109.879C21.789 109.762 20.2877 109.122 19.3478 110.01C18.7864 111.472 20.7969 111.59 21.6715 112.073C23.6036 112.569 24.0736 115.403 22.494 116.565C21.0318 117.675 19.0475 117.244 17.4157 116.853C17.4157 116.461 17.4157 115.677 17.4157 115.286C18.5253 115.573 19.7264 116.017 20.8752 115.638C21.5671 115.416 21.8674 114.398 21.2407 113.927C20.3269 113.379 19.2564 113.196 18.3687 112.608C16.9196 111.616 17.1154 108.991 18.7995 108.364ZM86.4626 108.39C88.1206 108.116 90.118 107.62 91.541 108.782C92.742 109.957 92.3112 111.799 92.3765 113.301C92.4548 114.267 91.9848 115.69 93.3034 115.938C93.3121 116.348 93.3208 116.757 93.3295 117.166C92.3634 117.323 91.3713 117.284 90.6532 116.526C89.5175 117.257 88.0031 117.571 86.7629 116.892C85.2094 116.056 85.1833 113.457 86.7368 112.608C87.8987 111.903 89.2955 111.969 90.601 111.929C90.366 111.224 90.5227 110.219 89.7786 109.801C88.6689 109.331 87.4548 109.762 86.3582 110.062C86.3843 109.5 86.4235 108.939 86.4626 108.39ZM87.6637 113.953C87.3895 114.502 87.494 115.299 88.0814 115.612C88.8517 116.082 89.7525 115.638 90.5096 115.325C90.4922 114.593 90.4792 113.862 90.4705 113.131C89.5305 113.274 88.3034 113.079 87.6637 113.953ZM103.173 108.155C103.813 108.155 104.465 108.155 105.105 108.168C105.105 111.146 105.105 114.136 105.105 117.114C104.452 117.114 103.813 117.114 103.173 117.114C103.199 114.123 103.186 111.146 103.173 108.155ZM121.254 108.377C123.068 108.064 125.705 107.489 126.815 109.448C127.416 111.159 126.985 113.026 127.141 114.802C126.972 115.508 127.651 115.703 128.134 115.978C128.121 116.278 128.108 116.905 128.108 117.218C127.141 117.31 126.149 117.27 125.418 116.539C124.296 117.244 122.82 117.558 121.606 116.918C119.961 116.147 119.948 113.405 121.541 112.582C122.69 111.903 124.074 111.982 125.366 111.929C125.131 111.224 125.288 110.245 124.57 109.801C123.473 109.331 122.272 109.748 121.188 110.036C121.206 109.487 121.228 108.934 121.254 108.377ZM122.442 113.914C122.141 114.502 122.272 115.312 122.899 115.651C123.591 115.952 124.452 115.808 125.079 115.403C125.34 114.685 125.249 113.888 125.301 113.144C124.335 113.261 123.147 113.105 122.442 113.914ZM129.047 108.116C129.766 108.181 130.588 108.038 131.162 108.612C132.272 108.09 133.591 107.829 134.779 108.286C135.679 108.704 136.188 109.683 136.241 110.65C136.358 112.804 136.241 114.959 136.293 117.114C135.64 117.114 134.992 117.114 134.348 117.114C134.296 114.959 134.465 112.804 134.269 110.663C133.917 109.096 132.011 109.592 130.967 110.075C130.94 112.426 130.954 114.763 130.967 117.114C130.314 117.114 129.67 117.114 129.034 117.114C129.048 114.11 129.034 111.12 129.047 108.116ZM53.6036 108.168C54.2303 108.168 54.8613 108.168 55.4966 108.168C55.4966 109.997 55.4705 111.825 55.4835 113.666C55.4835 114.384 55.6141 115.246 56.3321 115.599C57.1937 115.938 58.0553 115.508 58.8647 115.259C58.8647 112.891 58.8647 110.528 58.8647 108.168C59.5262 108.168 60.192 108.168 60.8621 108.168C60.8621 111.163 60.8621 114.158 60.8621 117.153C60.118 117.114 59.3217 117.166 58.6689 116.709C57.507 117.218 56.0971 117.558 54.9091 116.918C53.9822 116.474 53.6428 115.39 53.6036 114.437C53.5645 112.347 53.6167 110.258 53.6036 108.168Z" fill="white"/>
<path d="M143.747 31.0284C162.559 20.6986 181.384 10.395 200.196 0.0783691C191.946 13.49 184.765 27.6199 179.609 42.5203C174.883 56.1279 171.776 70.4014 171.306 84.8317C170.94 92.5496 171.606 100.294 172.716 107.933C164.021 95.2528 159.152 79.9607 159.074 64.564C158.943 53.0459 161.45 41.5017 166.332 31.0545C158.799 31.0153 151.267 31.0675 143.747 31.0284Z" fill="#EF2E24"/>
</g>
<defs>
<clipPath id="clip0_628_2024">
<rect width="200" height="117.401" fill="white" transform="translate(0.248535)"/>
</clipPath>
</defs>
</svg>
