<svg width="246" height="50" viewBox="0 0 246 50" fill="none" xmlns="http://www.w3.org/2000/svg">
<path d="M30.1498 0C35.3596 0.853886 40.2583 3.72605 43.3686 7.99548C43.9906 8.84937 44.6127 9.78088 45.0792 10.79C43.0575 12.1873 41.0358 13.5069 39.0919 14.9042C38.7809 15.1371 38.5476 15.2923 38.1588 15.4476C37.2257 13.1188 35.5928 11.0229 33.4934 9.62563C31.9382 8.61649 30.1498 7.91786 28.3614 7.52972C28.9057 5.04569 29.5278 2.56166 30.1498 0ZM11.3326 2.25115C13.743 1.47489 16.5423 2.71691 17.5531 4.96807C18.4085 6.67584 18.1752 8.92699 17.0088 10.4019C15.5314 12.2649 12.7322 12.9635 10.6327 11.8768C9.23311 11.1781 8.14451 9.85851 7.83348 8.30599C7.60021 7.14159 7.67796 5.89958 8.30002 4.81281C8.92208 3.5708 10.0884 2.71691 11.3326 2.25115ZM0.602051 28.7216C3.47907 28.644 6.27833 28.7216 9.15535 28.7216C9.69965 31.8267 11.0215 34.7765 13.121 37.1052C14.7539 38.9683 16.8533 40.2879 19.1083 41.1418C22.2186 42.3062 25.6399 42.4614 28.9057 41.6852C31.8605 40.9865 34.5042 39.3564 36.4482 36.95C37.77 35.3198 38.7809 33.4568 39.3252 31.4385C41.8912 32.1372 44.3016 33.0687 46.8676 33.8449C46.7899 34.6212 46.4788 35.3975 46.1678 36.1737C44.4572 40.5984 41.2691 44.4021 37.148 46.8085C34.5042 48.361 31.4717 49.3702 28.4392 49.7583C22.4518 50.5345 16.1535 49.2925 11.0993 45.9546C8.37778 44.1692 5.9673 41.7628 4.25664 38.9683C2.23495 36.0185 1.06859 32.4477 0.602051 28.7216Z" fill="#28BB4E"/>
<path d="M53.7102 21.7352C57.3648 15.8357 65.4515 13.1187 71.9054 15.8357C73.9271 16.6119 75.3267 18.2421 76.4931 20.0275C76.4153 18.6302 76.4153 17.2329 76.4153 15.758H84.191C84.3466 26.8586 83.88 37.9591 84.5021 49.0596H76.8819C76.8041 47.5071 76.7264 46.0322 76.6486 44.4797C72.683 51.5436 62.3413 51.3108 56.7427 46.4979C49.8223 40.4431 48.8893 29.265 53.7102 21.7352ZM65.5293 21.8905C58.3756 23.6759 57.1315 33.3015 60.3973 38.8906C62.8856 43.4705 69.8837 44.402 73.4605 40.5984C77.0374 36.8723 77.3484 30.8175 75.249 26.2375C73.6161 22.6667 69.2617 20.959 65.5293 21.8905ZM123.925 18.1644C129.601 13.5069 138.388 13.5845 144.22 18.0092C149.118 21.8905 150.44 28.5663 149.974 34.4659C141.809 34.5435 133.567 34.4659 125.402 34.4659C125.791 37.7262 127.58 41.0641 130.768 42.3061C135.355 44.5573 141.42 42.3838 143.053 37.4157C145.308 38.1143 147.485 38.813 149.74 39.434C148.496 42.8495 146.241 46.0322 142.976 47.8176C136.599 51.466 127.735 50.3792 122.525 45.1007C115.372 37.9591 115.916 24.5298 123.925 18.1644ZM127.58 24.1416C126.413 25.3837 126.024 27.0914 125.558 28.644C131.079 28.644 136.677 28.7992 142.198 28.4887C141.654 26.4704 141.032 24.2969 139.243 22.9773C135.9 20.4932 130.379 20.8037 127.58 24.1416ZM161.871 17.8539C167.236 13.7398 175.089 13.7398 180.766 17.2329C186.364 20.8813 188.23 28.1782 187.453 34.4659C179.288 34.3883 171.124 34.4659 162.959 34.4659C163.348 36.4066 163.814 38.4248 165.136 39.8997C168.091 43.5482 174.001 44.2468 177.733 41.4522C179.133 40.4431 179.755 38.7353 180.766 37.4933C182.943 38.0367 185.12 38.813 187.297 39.5116C186.053 43.0048 183.72 46.1874 180.377 47.9728C174.078 51.3884 165.525 50.4569 160.393 45.4112C152.773 38.192 153.395 24.1416 161.871 17.8539ZM164.981 24.2193C163.892 25.4613 163.503 27.0914 163.037 28.644H179.599C179.21 26.7033 178.666 24.6074 177.033 23.2101C173.69 20.4156 167.858 20.6485 164.981 24.2193ZM202.693 19.7946C207.125 12.9635 218.867 13.0411 222.599 20.4932C226.176 14.3608 235.118 12.9635 240.716 17.0777C243.749 19.4065 245.149 23.2878 245.149 27.0138C245.226 34.3107 245.149 41.6075 245.149 48.9043H237.451V29.265C237.451 27.2467 237.14 25.0732 235.74 23.5983C232.785 20.6485 227.109 21.4247 225.165 25.1508C224.154 26.8586 224.154 28.9545 224.154 30.8175V48.9043H216.378C216.301 41.8404 216.456 34.7764 216.301 27.7901C216.301 24.685 213.735 21.8129 210.547 21.8905C206.814 21.3471 203.315 24.3745 203.082 28.0229C202.849 35.0093 203.082 41.9956 203.004 48.9043H195.151V15.6028H202.771C202.771 17.0777 202.771 18.4749 202.693 19.7946ZM94.2995 15.6804H102.075C102.075 17.3882 101.997 19.1736 101.997 20.8813C104.175 16.5343 109.229 14.7489 113.817 15.3699V23.5206C111.095 23.443 108.063 23.1325 105.73 24.8403C103.242 26.4704 102.386 29.6531 102.308 32.4476C102.231 37.9591 102.308 43.4705 102.231 48.982H94.2995V15.6804Z" fill="#28BB4E"/>
</svg>
