<svg width="228" height="50" viewBox="0 0 228 50" fill="none" xmlns="http://www.w3.org/2000/svg">
<path fill-rule="evenodd" clip-rule="evenodd" d="M223.228 40.5779C221.557 40.5779 220.493 40.2739 219.734 39.362C219.126 38.6021 218.822 37.3863 218.822 35.5626V24.6202H226.267L225.355 16.4135H218.974V8.96655V2.88745C218.974 2.88745 216.088 3.03945 215.176 3.19142C210.314 3.49538 207.124 6.83886 207.124 10.4863V16.8694L202.566 17.1734V24.7722H207.124V37.3863C207.124 41.1858 208.187 44.2253 210.162 46.505C212.137 48.7846 215.176 49.8485 219.126 49.8485C221.101 49.8485 222.62 49.6965 223.988 49.5445C226.115 49.0886 227.634 47.2649 227.634 44.9852V39.514C226.267 40.1219 224.747 40.5779 223.228 40.5779Z" fill="#FF5215"/>
<path fill-rule="evenodd" clip-rule="evenodd" d="M104.116 41.6414C105.332 41.0335 106.243 40.4256 106.851 39.5137V36.6262C104.876 35.2584 102.749 34.6505 100.318 34.6505C98.799 34.6505 97.5835 34.9544 96.672 35.7143C95.7604 36.3222 95.4565 37.386 95.4565 38.6019C95.4565 39.8177 95.9123 40.7296 96.672 41.4895C97.4316 42.0974 98.647 42.5533 100.318 42.5533C101.534 42.4013 102.901 42.0973 104.116 41.6414ZM86.9486 46.8087C84.5177 44.833 83.1504 42.0973 83.1504 38.6019C83.1504 34.9544 84.3658 32.2188 86.7967 30.2431C89.2275 28.2674 92.5699 27.3555 97.1277 27.3555C98.799 27.3555 100.622 27.5075 102.293 27.9634C103.964 28.4194 105.484 28.8753 106.851 29.4832V28.8753C106.851 25.3798 103.965 23.7081 98.3432 23.7081C94.3931 23.7081 91.9622 24.0121 88.7717 25.5318C88.7717 25.5318 88.3159 22.3403 88.164 21.1245C87.8601 18.6928 89.8352 16.8691 93.0257 16.2612C95.3046 15.8053 97.7355 15.6533 100.318 15.6533C106.243 15.6533 110.801 16.8691 113.84 19.3008C116.878 21.7324 118.398 25.0759 118.398 29.3313V44.0731C118.398 48.0245 117.03 48.9364 113.688 48.9364H107.611L107.307 46.2007C106.092 47.4165 104.572 48.3284 102.749 48.9364C100.926 49.5443 98.799 50.0002 96.52 50.0002C92.7218 49.6962 89.3794 48.7844 86.9486 46.8087Z" fill="#FF5215"/>
<path fill-rule="evenodd" clip-rule="evenodd" d="M186.461 41.6414C187.677 41.0335 188.588 40.4256 189.196 39.5137V36.6262C187.221 35.2584 185.094 34.6505 182.663 34.6505C181.144 34.6505 179.928 34.9544 179.017 35.7143C178.105 36.3222 177.801 37.386 177.801 38.6019C177.801 39.8177 178.257 40.7296 179.017 41.4895C179.776 42.0974 180.992 42.5533 182.663 42.5533C183.878 42.4013 185.246 42.0973 186.461 41.6414ZM169.293 46.8087C166.862 44.833 165.495 42.0973 165.495 38.6019C165.495 34.9544 166.711 32.2188 169.141 30.2431C171.572 28.2674 174.915 27.3555 179.473 27.3555C181.144 27.3555 182.967 27.5075 184.638 27.9634C186.309 28.4194 187.829 28.8753 189.196 29.4832V28.8753C189.196 25.3798 186.309 23.7081 180.688 23.7081C176.738 23.7081 174.307 24.0121 171.116 25.5318C171.116 25.5318 170.661 22.3403 170.509 21.1245C170.205 18.6928 172.18 16.8691 175.37 16.2612C177.649 15.8053 180.08 15.6533 182.663 15.6533C188.588 15.6533 193.146 16.8691 196.185 19.3008C199.223 21.7324 200.742 25.0759 200.742 29.3313V44.0731C200.742 48.0245 199.375 48.9364 196.033 48.9364H189.956L189.652 46.2007C188.436 47.4165 186.917 48.3284 185.094 48.9364C183.271 49.5443 181.144 50.0002 178.865 50.0002C175.067 49.6962 171.724 48.7844 169.293 46.8087Z" fill="#FF5215"/>
<path fill-rule="evenodd" clip-rule="evenodd" d="M20.7076 40.5779C19.0364 40.5779 17.9729 40.2739 17.2133 39.362C16.6056 38.6021 16.3017 37.3863 16.3017 35.5626V24.6202H23.7462L22.8346 16.4135H16.4536V8.96655V2.88745C16.4536 2.88745 13.567 3.03945 12.6554 3.19142C7.79375 3.49538 4.60325 6.83886 4.60325 10.4863V16.8694L0.0454102 17.1734V24.7722H4.60325V37.3863C4.60325 41.1858 5.66675 44.2253 7.64181 46.505C9.61688 48.7846 12.6554 49.8485 16.6056 49.8485C18.5806 49.8485 20.0999 49.6965 21.4673 49.5445C23.5943 49.0886 25.1135 47.2649 25.1135 44.9852V39.514C23.5943 40.1219 22.075 40.5779 20.7076 40.5779Z" fill="#FF5215"/>
<path fill-rule="evenodd" clip-rule="evenodd" d="M48.2067 41.6414C49.4221 41.0335 50.3337 40.4256 50.9414 39.5137V36.6262C48.9664 35.2584 46.8394 34.6505 44.4085 34.6505C42.8892 34.6505 41.6738 34.9544 40.7623 35.7143C39.8507 36.3222 39.5468 37.386 39.5468 38.6019C39.5468 39.8177 40.0026 40.7296 40.7623 41.4895C41.5219 42.0974 42.7373 42.5533 44.4085 42.5533C45.7759 42.4013 46.9913 42.0973 48.2067 41.6414ZM31.1908 46.8087C28.7599 44.833 27.3926 42.0973 27.3926 38.6019C27.3926 34.9544 28.608 32.2188 31.0388 30.2431C33.4697 28.2674 36.8121 27.3555 41.37 27.3555C43.0412 27.3555 44.8643 27.5075 46.5355 27.9634C48.2067 28.4194 49.726 28.8753 51.0934 29.4832V28.8753C51.0934 25.3798 48.2067 23.7081 42.5854 23.7081C38.6353 23.7081 36.2044 24.0121 33.0139 25.5318C33.0139 25.5318 32.5581 22.3403 32.4062 21.1245C32.1024 18.6928 34.0774 16.8691 37.2679 16.2612C39.5468 15.8053 41.9777 15.6533 44.5605 15.6533C50.4856 15.6533 55.0435 16.8691 58.082 19.3008C61.1206 21.7324 62.6399 25.0759 62.6399 29.3313V44.0731C62.6399 48.0245 61.2725 48.9364 57.9301 48.9364H51.853L51.5491 46.2007C50.3337 47.4165 48.8144 48.3284 46.9913 48.9364C45.1682 49.5443 43.0412 50.0002 40.7623 50.0002C36.8121 49.6962 33.6216 48.7844 31.1908 46.8087Z" fill="#FF5215"/>
<path fill-rule="evenodd" clip-rule="evenodd" d="M78.8958 48.6328V0C78.8958 0 76.1611 0.151996 75.0976 0.303973C70.2359 0.607928 67.0454 3.95141 67.0454 7.59887V48.6328H78.8958Z" fill="#FF5215"/>
<path fill-rule="evenodd" clip-rule="evenodd" d="M148.935 38.4503C147.415 39.8181 145.44 40.578 143.161 40.578C141.338 40.578 139.819 40.1221 138.3 39.2102C136.932 38.2983 135.869 37.0825 135.261 35.4108V29.6356C135.869 28.1158 136.932 26.9 138.3 25.8362C139.667 24.9243 141.338 24.4684 143.161 24.4684C145.592 24.4684 147.567 25.2282 148.935 26.596C150.454 27.9638 151.214 29.9396 151.214 32.3712C151.214 35.1068 150.454 37.0825 148.935 38.4503ZM161.089 23.7085C159.722 21.1249 157.595 18.9972 155.012 17.6294C152.429 16.2616 149.39 15.5017 146.048 15.5017C143.921 15.5017 141.794 15.8057 139.971 16.4136C137.996 17.0215 136.477 17.9333 135.109 18.9972V0C135.109 0 132.223 0.151996 131.311 0.303973C126.449 0.607928 123.259 3.95141 123.259 7.59887V48.6328H134.35L134.653 45.4412C137.692 48.3288 141.49 49.6966 146.048 49.6966C149.39 49.6966 152.429 48.9367 155.012 47.5689C157.595 46.2011 159.57 44.2254 161.089 41.6418C162.456 39.0582 163.216 36.0186 163.216 32.6751C163.216 29.3316 162.608 26.2921 161.089 23.7085Z" fill="#FF5215"/>
</svg>
