<svg width="253" height="189" viewBox="0 0 253 189" fill="none" xmlns="http://www.w3.org/2000/svg">
<path d="M126.512 189V76.2127L90.0342 60.9438V189H126.512Z" fill="#005377"/>
<path d="M162.992 189V60.9438L126.512 76.2127V189H162.992Z" fill="#3584A0"/>
<path d="M126.686 76.2127L90.0342 60.9438L127.556 46.429L162.992 60.9438L126.686 76.2127Z" fill="#1889B8"/>
<path d="M216.022 189V128.263L179.542 112.994V189H216.022Z" fill="#005377"/>
<path d="M252.5 189V112.994L216.021 128.263V189H252.5Z" fill="#3584A0"/>
<path d="M216.195 128.263L179.542 112.994L217.063 98.479L252.5 112.994L216.195 128.263Z" fill="#1889B8"/>
<path d="M36.9787 189V100.689L0.5 85.4202V189H36.9787Z" fill="#005377"/>
<path d="M73.459 189V85.4202L36.979 100.689V189H73.459Z" fill="#3584A0"/>
<path d="M37.1522 100.689L0.5 85.4202L38.0213 70.9055L73.4587 85.4202L37.1522 100.689Z" fill="#1889B8"/>
<path d="M148.315 63.5222H145.13L138.24 36.3341L141.15 35.7011L148.315 63.5222Z" fill="#1A1745"/>
<path d="M108.581 63.5222H111.689L118.58 36.3341L115.67 35.7011L108.581 63.5222Z" fill="#1A1745"/>
<path d="M130.104 36.5233H127.114V62.7001H130.104V36.5233Z" fill="#1A1745"/>
<path d="M151.989 22.9686C151.989 34.9273 141.522 44.6205 128.609 44.6205C115.697 44.6205 105.227 34.9273 105.227 22.9686C105.227 11.0104 115.698 1.31537 128.609 1.31537C141.522 1.31537 151.989 11.0104 151.989 22.9686Z" fill="#EE5A63"/>
<path d="M148.315 22.9684C148.315 33.0468 139.491 41.2181 128.609 41.2181C117.727 41.2181 108.902 33.0474 108.902 22.9684C108.902 12.8907 117.728 4.72003 128.609 4.72003C139.491 4.72003 148.315 12.8907 148.315 22.9684Z" fill="white"/>
<path d="M144.884 22.9685C144.884 31.2925 137.598 38.0403 128.61 38.0403C119.62 38.0403 112.333 31.2919 112.333 22.9685C112.333 14.6451 119.62 7.8974 128.61 7.8974C137.598 7.8974 144.884 14.6451 144.884 22.9685Z" fill="#EE5A63"/>
<path d="M141.104 22.9685C141.104 29.3589 135.509 34.5396 128.609 34.5396C121.709 34.5396 116.114 29.3589 116.114 22.9685C116.114 16.5787 121.709 11.3979 128.609 11.3979C135.51 11.3979 141.104 16.5787 141.104 22.9685Z" fill="white"/>
<path d="M137.796 22.9685C137.796 27.6664 133.681 31.4748 128.609 31.4748C123.534 31.4748 119.424 27.6664 119.424 22.9685C119.424 18.2705 123.534 14.4621 128.609 14.4621C133.681 14.4621 137.796 18.2705 137.796 22.9685Z" fill="#EE5A63"/>
<path d="M162.314 0.629272L162.419 4.41606L157.842 6.91524L157.675 3.16307L162.314 0.629272Z" fill="#1A1745"/>
<path d="M166.35 6.96591L162.824 5.0484L158.245 7.54697L161.71 9.49847L166.35 6.96591Z" fill="#1A1745"/>
<path d="M163.111 5.20417L132.177 22.0896L131.491 21.0121L162.411 4.13416L162.585 4.78939L163.111 5.20417Z" fill="#005377"/>
<path d="M131.609 16.5522L136.441 24.1647L126.325 24.5201L131.609 16.5522Z" fill="#1A1745"/>
<path d="M26.4248 55.7094L19.3853 55.71L19.8024 85.2712H22.8603C22.6153 81.3756 23.6466 62.3687 23.6466 62.3687L26.4248 55.7094Z" fill="#0C0635"/>
<path d="M32.6612 57.0582C32.5711 56.8041 32.5371 56.2317 32.6232 56.1847L32.3608 55.5969L33.5797 55.132L33.834 55.7162C33.9081 55.7044 34.318 56.1452 34.4975 56.2756C34.7519 56.4604 35.2618 57.0155 35.2618 57.0155C35.3393 57.0922 35.3533 57.2096 35.2852 57.2677L35.2512 57.2962C35.1711 57.3635 35.0676 57.3246 34.9788 57.2411C34.9067 57.1756 34.6878 56.9821 34.6878 56.9821L34.5589 56.9395L35.1924 58.279C35.2351 58.3779 35.2411 58.5776 35.0149 58.5522C34.836 58.5325 34.32 57.4056 34.2652 57.3345L34.1912 57.311L34.7545 58.6345C34.8039 58.7463 34.824 58.8415 34.7192 58.8823L34.6551 58.9058C34.5489 58.9454 34.4708 58.8669 34.4214 58.7544L33.802 57.4482L33.7499 57.4346C33.7526 57.5125 34.3901 58.7674 34.1137 58.8316C34.0029 58.8576 33.9241 58.818 33.8788 58.7179L33.3347 57.4346L33.2807 57.4396C33.27 57.4964 33.7906 58.5726 33.5103 58.6598C33.4148 58.6876 33.3514 58.6338 33.2807 58.4713C33.1852 58.2537 32.9049 57.6096 32.9049 57.5978C32.9062 57.5978 32.7226 57.2269 32.6612 57.0582Z" fill="#D4D8EE"/>
<path d="M24.5291 35.4136H22.5459V37.4912H24.5291V35.4136Z" fill="#D4D8EE"/>
<path d="M20.9346 30.0932C20.191 31.0785 20.3392 32.3791 20.3392 32.3791L20.4627 34.3059C20.7631 35.3017 22.9912 36.5504 23.4731 36.5504C23.885 36.5504 25.9549 35.5379 26.1352 35.1843C26.1352 35.1843 26.6204 33.5987 26.6044 31.7109C26.6018 31.2763 26.6458 31.0958 25.9249 30.0926H20.9346V30.0932Z" fill="#D4D8EE"/>
<path d="M25.6618 31.4179L26.8493 30.9438L25.0818 29.1771H21.7936L20.3271 30.5686C20.3271 30.5686 20.1943 33.1345 20.3271 34.029C20.4486 34.8524 21.8644 35.8093 22.2689 36.0924H24.7781L24.6385 34.3368L25.4209 33.2174L25.6618 31.4179Z" fill="#1A1745"/>
<path d="M27.1804 55.7092L27.5576 38.9574L24.5291 37.3792H22.5459L19.7037 38.7898L19.3853 55.708L27.1804 55.7092Z" fill="#005377"/>
<path d="M27.15 55.7094L21.3286 55.7081L23.472 61.3642L24.1275 68.5131L24.255 85.2712H27.1353L28.1038 68.4451L27.15 55.7094Z" fill="#1A1745"/>
<path d="M22.1729 85.2711C22.1729 85.2711 23.9351 85.8398 25.0352 86.3387C25.1787 86.4048 25.3676 86.8301 24.853 86.9061H20.105V85.2711H22.1729Z" fill="#0C0635"/>
<path d="M26.7652 85.2711C26.7652 85.2711 28.5281 85.8398 29.6261 86.3387C29.7697 86.4048 29.9599 86.8301 29.4453 86.9061H24.6973V85.2711H26.7652Z" fill="#0C0635"/>
<path d="M28.7796 40.0862L30.7387 48.7187L33.9668 55.4726L32.2753 56.147L28.4378 48.8435C27.9626 47.3501 27.7249 45.2465 27.4486 43.8476L26.4253 40.0862L27.5881 38.9822L28.7796 40.0862Z" fill="#005377"/>
<path d="M15.5203 56.6175C15.5731 56.3548 15.8447 55.8399 15.9462 55.8368L16.025 55.205L17.3326 55.3472L17.2492 55.9734C17.3206 55.9962 17.4468 56.5656 17.5362 56.7603C17.6617 57.036 17.8166 57.7512 17.8166 57.7512C17.8439 57.8532 17.7932 57.962 17.7031 57.9824L17.6604 57.9923C17.5549 58.0145 17.4835 57.9341 17.4494 57.821C17.4221 57.7308 17.332 57.4637 17.332 57.4637L17.2418 57.3679L17.093 58.8243C17.079 58.9294 16.9782 59.1068 16.7933 58.9831C16.6491 58.8855 16.7886 57.6683 16.7793 57.5818L16.7252 57.528L16.5236 58.938C16.5082 59.0573 16.4755 59.1507 16.3621 59.1383L16.2946 59.1297C16.1812 59.1167 16.1538 59.0128 16.1692 58.8929L16.3153 57.473L16.276 57.4372C16.2366 57.5058 16.1364 58.8904 15.8614 58.8212C15.7513 58.7946 15.7012 58.7248 15.7152 58.6178L15.9135 57.2511L15.8621 57.2307C15.8234 57.2758 15.7132 58.4503 15.4235 58.4009C15.3261 58.3835 15.2981 58.3069 15.3221 58.1332C15.3541 57.8995 15.4462 57.2115 15.4496 57.2004C15.4482 57.1992 15.4856 56.7918 15.5203 56.6175Z" fill="#D4D8EE"/>
<path d="M21.0345 40.0374L18.2156 48.464L17.4907 55.8194L15.6577 55.6469L16.0329 47.3273C16.916 43.6789 18.5707 40.1085 18.9579 39.1664L20.5452 38.3727L21.0345 40.0374Z" fill="#005377"/>
<path d="M25.517 33.4466C25.5664 33.7143 25.4262 33.9597 25.2033 33.9962C24.9803 34.0326 24.7581 33.8441 24.7087 33.5771C24.6579 33.31 24.7974 33.064 25.0204 33.0281C25.2433 32.9923 25.4663 33.1796 25.517 33.4466Z" fill="#D4D8EE"/>
<path d="M27.1811 55.205H19.3853V55.9332H27.1811V55.205Z" fill="#0C0635"/>
<path d="M208.373 83.1804C208.317 82.901 208.03 82.357 207.924 82.3539L207.841 81.6851L206.454 81.8359L206.543 82.4979C206.467 82.5227 206.334 83.126 206.24 83.3312C206.107 83.6236 205.943 84.3802 205.943 84.3802C205.915 84.4884 205.967 84.6034 206.062 84.625L206.108 84.6349C206.22 84.659 206.294 84.5737 206.33 84.4538C206.36 84.3592 206.456 84.0754 206.456 84.0754L206.553 83.9741L206.709 85.5164C206.724 85.6276 206.83 85.8162 207.026 85.6857C207.18 85.5813 207.033 84.2924 207.043 84.2009L207.099 84.1441L207.312 85.6369C207.328 85.7636 207.362 85.8625 207.482 85.8489L207.555 85.8396C207.675 85.8267 207.705 85.716 207.687 85.5887L207.534 84.0847L207.574 84.0464C207.616 84.1193 207.723 85.5856 208.013 85.5127C208.129 85.4836 208.183 85.4094 208.167 85.2969L207.958 83.8492L208.01 83.8276C208.053 83.8752 208.169 85.1195 208.476 85.0663C208.578 85.0484 208.609 84.9662 208.583 84.7832C208.549 84.5366 208.453 83.8066 208.447 83.7948C208.447 83.7948 208.411 83.3652 208.373 83.1804Z" fill="#D4D8EE"/>
<path d="M205.334 65.2781C205.518 65.6515 206.373 69.2157 207.364 73.0421L208.202 82.1889L206.297 82.3953L205.408 74.1307L204.145 69.2392C202.557 66.9156 203.291 64.1228 203.291 64.1228C203.291 64.1228 205.208 65.0191 205.334 65.2781Z" fill="#005377"/>
<path d="M191.746 83.2872C191.841 83.0202 191.874 82.4212 191.785 82.3711L192.061 81.7548L190.783 81.2671L190.515 81.8803C190.437 81.8679 190.007 82.3309 189.82 82.4663C189.552 82.6604 189.018 83.2421 189.018 83.2421C188.937 83.3231 188.921 83.4454 188.993 83.5073L189.028 83.5369C189.113 83.6068 189.221 83.5666 189.315 83.4794C189.391 83.4102 189.62 83.2075 189.62 83.2075L189.755 83.1617L189.089 84.5674C189.046 84.6706 189.04 84.8814 189.277 84.8548C189.462 84.8332 190.006 83.6519 190.063 83.5765L190.141 83.5524L189.55 84.9401C189.498 85.0582 189.477 85.1583 189.587 85.1998L189.655 85.2251C189.766 85.2659 189.848 85.1843 189.901 85.0662L190.549 83.6958L190.603 83.681C190.601 83.7632 189.931 85.0798 190.221 85.146C190.339 85.1726 190.423 85.1318 190.468 85.0273L191.038 83.6816L191.097 83.6865C191.107 83.7459 190.561 84.8752 190.856 84.9661C190.955 84.9964 191.023 84.9389 191.095 84.7689C191.195 84.5396 191.49 83.8652 191.492 83.8534C191.49 83.8534 191.68 83.4646 191.746 83.2872Z" fill="#D4D8EE"/>
<path d="M196.184 65.2811L193.761 74.5404L190.376 81.625L192.151 82.3322L196.174 74.6714C196.674 73.105 197.069 70.9755 197.359 69.5093L198.286 65.4857L197.435 64.1221L196.184 65.2811Z" fill="#005377"/>
<path d="M199.725 97.6066L200.295 113.58H198.225L196.015 98.0703C196.015 98.0703 196.113 88.5811 196.113 85.3444C196.111 81.8358 196.436 78.6777 196.436 78.6777H203.184L200.801 87.1859L199.725 97.6066Z" fill="#D4D8EE"/>
<path d="M198.213 113.58C198.213 113.58 196.316 114.164 195.173 114.684C195.024 114.751 194.824 115.161 195.358 115.24H200.295V113.58H198.213Z" fill="#1A1745"/>
<path d="M202.645 113.58C202.645 113.58 200.748 114.164 199.607 114.684C199.457 114.751 199.256 115.161 199.793 115.24H204.727L204.712 113.58H202.645Z" fill="#1A1745"/>
<path d="M204.734 113.58H202.645L201.114 98.4115C201.114 98.4115 200.546 88.5811 200.546 85.3444C200.545 81.8358 201.033 78.6727 201.033 78.6727H205.212L205.232 87.1865L204.869 98.2656L204.734 113.58Z" fill="#D4D8EE"/>
<path d="M195.995 78.4904C195.995 78.4904 198.029 71.9813 197.15 67.645C196.93 66.5521 197.434 64.1215 197.434 64.1215L199.422 63.4861H201.825L203.63 64.0585C203.63 64.0585 205.138 66.7338 204.731 67.8502C203.471 71.3063 205.212 78.496 205.212 78.496L195.995 78.4904Z" fill="#005377"/>
<path d="M201.825 61.3237H199.423V63.4866H201.825V61.3237Z" fill="#D4D8EE"/>
<path d="M203.345 57.0158C203.657 57.7026 203.795 58.2805 203.795 58.2805L203.666 60.2871C203.354 61.3237 201.701 62.6243 200.532 62.6243C199.515 62.6243 198.391 62.1829 198.146 61.1624C197.971 60.4379 197.953 58.0976 197.953 58.0976C197.953 58.0976 197.895 57.6964 198.049 57.0158H203.345Z" fill="#D4D8EE"/>
<path d="M204.992 96.2331L195.992 96.2554C195.992 96.2554 195.403 90.6611 195.386 85.5181C195.374 81.8327 195.994 78.5027 195.994 78.5027L205.212 78.5089C205.212 78.5089 206.363 81.8136 206.221 84.7226C206.025 88.7863 204.992 96.2331 204.992 96.2331Z" fill="#1A1745"/>
<path d="M197.824 58.0748C197.824 58.0748 197.647 58.8747 199.646 58.4988C200.661 58.3072 200.275 60.2538 200.275 62.12C200.275 62.9749 202.157 62.6306 202.395 62.57C202.395 62.57 204.025 61.6712 204.025 58.6639C204.025 57.3231 203.59 55.5039 200.604 55.5039C197.565 55.5033 197.824 58.0748 197.824 58.0748Z" fill="#1A1745"/>
<path d="M200.295 59.0965C200.295 59.0965 200.524 62.8876 199.53 65.3985C199.53 65.3985 204.624 66.3399 205.081 64.8496C205.081 64.8496 204.378 63.2362 204.013 58.2811L200.295 59.0965Z" fill="#1A1745"/>
<path d="M200.676 60.0269C200.617 60.3001 200.386 60.4868 200.161 60.4448C199.935 60.4034 199.802 60.1475 199.861 59.8749C199.921 59.6016 200.151 59.4143 200.376 59.457C200.601 59.499 200.735 59.7537 200.676 60.0269Z" fill="#D4D8EE"/>
<path d="M232.524 81.1879C232.468 80.9091 232.181 80.3652 232.074 80.3615L231.992 79.6932L230.604 79.8434L230.693 80.5061C230.619 80.5302 230.483 81.1335 230.39 81.3394C230.257 81.6318 230.094 82.3877 230.094 82.3877C230.066 82.4959 230.117 82.6109 230.213 82.6332L230.258 82.6437C230.371 82.6672 230.445 82.5825 230.481 82.4625C230.51 82.3667 230.608 82.0836 230.608 82.0836L230.703 81.9829L230.859 83.5245C230.874 83.6364 230.981 83.8243 231.176 83.6933C231.328 83.5901 231.183 82.3 231.193 82.2091L231.249 82.151L231.462 83.6451C231.478 83.7718 231.512 83.8701 231.633 83.8571L231.703 83.8484C231.824 83.8342 231.854 83.7248 231.836 83.5975L231.685 82.0935L231.724 82.0564C231.766 82.1294 231.872 83.595 232.162 83.5221C232.281 83.493 232.332 83.4188 232.318 83.3057L232.108 81.8586L232.161 81.837C232.203 81.8846 232.32 83.1277 232.626 83.0758C232.729 83.0572 232.76 82.9762 232.734 82.7926C232.701 82.5454 232.603 81.8166 232.599 81.8048C232.6 81.8036 232.563 81.3734 232.524 81.1879Z" fill="#D4D8EE"/>
<path d="M229.485 63.2856C229.668 63.659 230.525 67.2232 231.515 71.0489L232.353 80.1957L230.449 80.4022L229.56 72.1375L228.295 67.2461C226.708 64.9224 227.443 62.129 227.443 62.129C227.443 62.129 229.359 63.0266 229.485 63.2856Z" fill="#1A1745"/>
<path d="M215.896 81.2948C215.992 81.0284 216.026 80.4288 215.936 80.3787L216.21 79.7624L214.933 79.2747L214.666 79.8879C214.587 79.8756 214.158 80.3386 213.971 80.4745C213.702 80.668 213.168 81.2509 213.168 81.2509C213.087 81.3313 213.071 81.4537 213.144 81.5155L213.178 81.5458C213.263 81.6157 213.371 81.5749 213.464 81.4877C213.54 81.4185 213.77 81.2157 213.77 81.2157L213.906 81.1706L213.241 82.5756C213.195 82.6783 213.19 82.8897 213.427 82.8625C213.614 82.8408 214.155 81.6595 214.212 81.5847L214.292 81.5606L213.7 82.9478C213.649 83.0652 213.626 83.1654 213.738 83.2074L213.804 83.2327C213.915 83.2735 213.999 83.1913 214.051 83.0745L214.7 81.7034L214.754 81.6892C214.752 81.7708 214.081 83.0875 214.372 83.1536C214.489 83.1814 214.571 83.1406 214.617 83.0355L215.188 81.6898L215.247 81.6942C215.258 81.7541 214.712 82.8829 215.005 82.9737C215.105 83.004 215.173 82.9465 215.246 82.7765C215.346 82.5478 215.639 81.8728 215.642 81.8604C215.641 81.8611 215.832 81.4722 215.896 81.2948Z" fill="#D4D8EE"/>
<path d="M220.336 63.2882L217.913 72.5481L214.528 79.6327L216.302 80.3405L220.326 72.6797C220.826 71.1133 221.22 68.9838 221.51 67.5182L222.437 63.494L221.586 62.1298L220.336 63.2882Z" fill="#1A1745"/>
<path d="M223.876 95.614L224.446 111.588H222.377L220.165 96.0776C220.165 96.0776 220.265 86.589 220.264 83.3517C220.263 79.8444 220.587 76.6856 220.587 76.6856H227.336L224.952 85.1944L223.876 95.614Z" fill="#D4D8EE"/>
<path d="M222.365 111.587C222.365 111.587 220.467 112.171 219.325 112.691C219.177 112.759 218.976 113.168 219.512 113.247H224.446V111.587H222.365Z" fill="#1A1745"/>
<path d="M226.797 111.587C226.797 111.587 224.9 112.171 223.757 112.691C223.608 112.759 223.407 113.169 223.943 113.247H228.878L228.862 111.587H226.797Z" fill="#1A1745"/>
<path d="M228.886 111.587H226.797L225.265 96.4191C225.265 96.4191 224.698 86.5886 224.696 83.3514C224.696 79.844 225.184 76.6791 225.184 76.6791H229.364L229.385 85.1941L229.022 96.2726L228.886 111.587Z" fill="#D4D8EE"/>
<path d="M220.146 76.4973C220.146 76.4973 222.178 69.9894 221.301 65.6524C221.08 64.5595 221.586 62.1296 221.586 62.1296L223.574 61.4941H225.977L227.783 62.0653C227.783 62.0653 229.29 64.7413 228.883 65.8577C227.623 69.315 229.364 76.5041 229.364 76.5041L220.146 76.4973Z" fill="#1A1745"/>
<path d="M225.977 59.3313H223.574V61.4948H225.977V59.3313Z" fill="#D4D8EE"/>
<path d="M227.495 55.0235C227.807 55.7109 227.946 56.2882 227.946 56.2882L227.817 58.2948C227.505 59.3314 225.853 60.632 224.683 60.632C223.666 60.632 222.542 60.19 222.296 59.1707C222.122 58.4456 222.103 56.1053 222.103 56.1053C222.103 56.1053 222.044 55.7047 222.199 55.0235H227.495Z" fill="#D4D8EE"/>
<path d="M229.462 90.1313L219.928 90.1536C219.928 90.1536 219.772 88.4753 219.755 83.3317C219.741 79.6463 220.147 76.5098 220.147 76.5098L229.365 76.5166C229.365 76.5166 230.516 79.8218 230.373 82.7308C230.177 86.7939 229.462 90.1313 229.462 90.1313Z" fill="#005377"/>
<path d="M224.826 58.0351C224.767 58.3077 224.537 58.4943 224.312 58.4529C224.086 58.4109 223.953 58.1556 224.012 57.8824C224.073 57.6098 224.302 57.4225 224.527 57.4645C224.753 57.5065 224.887 57.7618 224.826 58.0351Z" fill="#D4D8EE"/>
<path d="M223.574 60.7332C223.595 59.997 223.823 58.4628 223.411 56.5644C223.245 55.7948 222.092 55.9067 222.092 55.6539C222.092 53.8044 223.484 53.2555 225.244 53.2567C226.486 53.2586 227.822 53.5788 228.671 55.4153C229.928 58.1327 228.947 59.2287 230.087 60.4724C231.225 61.7161 231.117 62.9586 230.278 64.1664C229.441 65.3755 229.406 65.8163 229.808 66.7763C230.213 67.7363 230.348 70.3665 227.983 69.3348C225.622 68.305 224.842 64.4638 224.842 64.4638C224.842 64.4638 223.49 63.573 223.574 60.7332Z" fill="#005377"/>
<path d="M51.8958 56.3336L44.8569 56.3342L45.2741 85.896H48.3327C48.0877 82.0011 49.119 62.9929 49.119 62.9929L51.8958 56.3336Z" fill="#0C0635"/>
<path d="M58.1339 57.6824C58.0424 57.4284 58.0084 56.8566 58.0952 56.8096L57.8335 56.2217L59.0504 55.7569L59.3067 56.3423C59.3794 56.3299 59.7906 56.7707 59.9702 56.9005C60.2245 57.0847 60.7338 57.6404 60.7338 57.6404C60.8119 57.717 60.8259 57.8339 60.7572 57.8926L60.7251 57.921C60.6444 57.9872 60.5402 57.9495 60.4508 57.866C60.3794 57.7999 60.1591 57.6064 60.1591 57.6064L60.0303 57.5637L60.6644 58.9033C60.7078 59.0022 60.7118 59.2025 60.4875 59.1765C60.3086 59.1567 59.792 58.0298 59.7379 57.9587L59.6631 57.9359L60.2272 59.2581C60.2752 59.3706 60.2966 59.4664 60.1898 59.506L60.1264 59.5301C60.0209 59.569 59.9415 59.4911 59.8928 59.3786L59.2733 58.0725L59.2226 58.0583C59.2239 58.1362 59.8627 59.3922 59.5864 59.4553C59.4742 59.4813 59.3948 59.4423 59.3521 59.3415L58.8074 58.0589L58.7527 58.0632C58.742 58.1201 59.2633 59.1963 58.9836 59.2834C58.8895 59.3119 58.8247 59.2581 58.7533 59.0955C58.6585 58.8773 58.3775 58.2338 58.3769 58.2227C58.3769 58.2227 58.1933 57.8512 58.1339 57.6824Z" fill="#D4D8EE"/>
<path d="M49.9509 36.3508H47.9951V38.4H49.9509V36.3508Z" fill="#D4D8EE"/>
<path d="M46.3729 31.3221C45.6373 32.2938 45.7481 33.1796 45.7481 33.1796L45.871 35.0805C46.1667 36.0627 48.3581 37.1982 48.8334 37.1982C49.2405 37.1982 50.422 36.9992 50.7157 36.6753C51.0755 36.2778 51.9239 35.8142 51.9239 32.9769C51.9239 32.5491 51.9239 31.8117 51.191 31.1558L46.3729 31.3221Z" fill="#D4D8EE"/>
<path d="M50.9961 32.0756L45.7014 32.2617C45.674 33.0801 45.64 34.2626 45.7354 34.8078C45.921 35.8507 46.9256 36.5702 47.3315 36.8422C47.6706 37.0678 48.3 37.2724 48.9034 37.2724C49.8072 37.2724 50.2218 36.9442 50.2218 36.9442L50.2191 34.5723C50.2191 34.5723 51.0328 34.1773 51.1436 33.2606C51.2411 32.4527 50.9961 32.0756 50.9961 32.0756Z" fill="#1A1745"/>
<path d="M52.6528 56.3337L53.0299 39.5818L50.0008 38.0043H48.0169L45.1747 39.4149L44.8569 56.3337H52.6528Z" fill="#1A1745"/>
<path d="M52.6218 56.3336H46.7998L48.9432 61.9897L49.598 69.138L49.7262 85.896H52.6065L53.5744 69.07L52.6218 56.3336Z" fill="#1A1745"/>
<path d="M47.645 85.8961C47.645 85.8961 49.4065 86.4648 50.5059 86.9637C50.6501 87.0286 50.839 87.4545 50.3243 87.5311H45.5757V85.8961H47.645Z" fill="#0C0635"/>
<path d="M52.2376 85.8961C52.2376 85.8961 53.9991 86.4648 55.0992 86.9637C55.2427 87.0286 55.4316 87.4545 54.9169 87.5311H50.1689V85.8961H52.2376Z" fill="#0C0635"/>
<path d="M54.2515 40.7111L56.2126 49.3436L59.4393 56.0975L57.7472 56.7719L53.9104 49.4678C53.4344 47.975 53.1961 45.8708 52.9211 44.4726L51.8965 40.7111L53.06 39.6065L54.2515 40.7111Z" fill="#1A1745"/>
<path d="M40.9927 57.2417C41.0447 56.9778 41.3171 56.4641 41.4179 56.461L41.496 55.8299L42.805 55.9721L42.7209 56.5983C42.7916 56.6211 42.9184 57.1917 43.0079 57.3852C43.1327 57.6609 43.2869 58.3754 43.2869 58.3754C43.3149 58.478 43.2669 58.5856 43.1761 58.6066L43.1314 58.6165C43.0266 58.6394 42.9552 58.559 42.9218 58.4453C42.8944 58.355 42.803 58.088 42.803 58.088L42.7135 57.9922L42.5647 59.4492C42.5506 59.5536 42.4492 59.7317 42.2656 59.6068C42.1208 59.5097 42.2603 58.292 42.2503 58.2054L42.1969 58.1517L41.9946 59.5617C41.9793 59.6816 41.9479 59.7749 41.8344 59.7626L41.7657 59.7539C41.6528 59.7415 41.6255 59.6377 41.6402 59.5172L41.7857 58.0966L41.7483 58.0608C41.7076 58.13 41.6075 59.5147 41.3324 59.4455C41.2216 59.4183 41.1736 59.3478 41.1869 59.2409L41.3858 57.8741L41.3338 57.8537C41.2944 57.8988 41.1836 59.0739 40.8952 59.0233C40.7978 59.006 40.7697 58.9299 40.7938 58.7556C40.8258 58.5219 40.9173 57.8333 40.9226 57.8234C40.9213 57.8234 40.9573 57.4167 40.9927 57.2417Z" fill="#D4D8EE"/>
<path d="M46.5063 40.6624L43.6888 49.0884L42.9638 56.4437L41.1309 56.2719L41.5053 47.9522C42.3878 44.3033 44.0439 40.7328 44.431 39.7908L46.0164 38.9971L46.5063 40.6624Z" fill="#1A1745"/>
<path d="M50.8552 34.233C50.9052 34.4964 50.7664 34.7393 50.5461 34.7752C50.3258 34.8104 50.1082 34.6256 50.0588 34.3616C50.0094 34.0983 50.1476 33.8554 50.3666 33.8201C50.5868 33.7843 50.8058 33.9691 50.8552 34.233Z" fill="#D4D8EE"/>
<path d="M52.6528 55.8299H44.8569V56.5581H52.6528V55.8299Z" fill="#0C0635"/>
<path d="M45.6953 32.4676C45.6953 32.4676 47.0136 33.0932 49.5542 32.6431C50.9079 32.4033 51.0427 31.8705 52.2149 31.9675C52.2149 31.9675 51.3598 30.2979 48.9034 30.301C47.312 30.3028 45.7354 30.9989 45.6953 32.4676Z" fill="#1A1745"/>
</svg>
