<svg width="255" height="222" viewBox="0 0 255 222" fill="none" xmlns="http://www.w3.org/2000/svg">
<path d="M197.62 208.835C198.682 206.443 200.238 202.608 200.773 199.565C201.679 194.814 194.914 196.468 194.914 196.468C194.914 196.468 198.567 190.843 198.297 186.337C198.026 181.83 193.798 184.087 193.798 184.087C193.798 184.087 197.451 165.519 192.114 162.144C186.776 158.769 183.123 183.829 183.123 183.829C183.123 183.829 180.877 180.17 176.662 181.579C172.448 182.989 174.416 194.238 174.416 194.238C174.416 194.238 169.64 188.614 168.517 194.238C167.692 198.386 172.048 205.433 174.396 208.856L197.62 208.835Z" fill="#7E58FF" stroke="#263238" stroke-linecap="round" stroke-linejoin="round"/>
<path d="M184.8 208.836L189.786 174.905" stroke="#263238" stroke-linecap="round" stroke-linejoin="round"/>
<path d="M185.842 201.964L179.605 189.685" stroke="#263238" stroke-linecap="round" stroke-linejoin="round"/>
<path d="M186.464 196.97L194.359 190.722" stroke="#263238" stroke-linecap="round" stroke-linejoin="round"/>
<path d="M77.9936 208.836C79.6511 205.122 82.0526 199.159 82.8983 194.436C84.2107 186.981 73.7384 189.631 73.7384 189.631C73.7384 189.631 79.4075 180.889 78.9745 173.895C78.5416 166.902 71.993 170.419 71.993 170.419C71.993 170.419 77.6621 141.577 69.375 136.339C61.0878 131.1 55.4119 169.978 55.4119 169.978C55.4119 169.978 51.9279 164.32 45.4064 166.468C38.885 168.616 41.9157 186.12 41.9157 186.12C41.9157 186.12 34.4742 177.378 32.7558 186.12C31.4705 192.565 38.2355 203.51 41.8886 208.823L77.9936 208.836Z" fill="#7E58FF" stroke="#263238" stroke-linecap="round" stroke-linejoin="round"/>
<path d="M58.0503 208.836L65.7963 156.133" stroke="#263238" stroke-linecap="round" stroke-linejoin="round"/>
<path d="M59.6608 198.163L49.98 179.093" stroke="#263238" stroke-linecap="round" stroke-linejoin="round"/>
<path d="M60.6279 190.403L72.8929 180.706" stroke="#263238" stroke-linecap="round" stroke-linejoin="round"/>
<path d="M35.2793 208.835H215.189" stroke="#263238" stroke-linecap="round" stroke-linejoin="round"/>
<path d="M27.2832 208.835H30.2463" stroke="#263238" stroke-linecap="round" stroke-linejoin="round"/>
<path d="M178.143 46.6277C178.143 46.6277 171.743 39.7628 166.264 40.2169C160.784 40.6709 159.864 46.1736 156.664 46.6277C153.464 47.0817 147.985 41.5926 143.872 43.8831C139.758 46.1736 140.672 49.379 137.472 49.8331C134.272 50.2871 130.159 47.0885 126.959 48.4777C124.545 49.6228 122.25 51.0028 120.106 52.598H190.023C190.023 52.598 188.196 44.371 178.143 46.6277Z" stroke="#263238" stroke-linecap="round" stroke-linejoin="round"/>
<path d="M84.9147 23.7358C84.9147 23.7358 78.5149 16.871 73.0353 17.3318C67.5556 17.7926 66.6355 23.2818 63.4357 23.7358C60.2358 24.1898 54.7562 18.7007 50.643 20.9912C46.5299 23.2818 47.4431 26.4871 44.2433 26.9412C41.0434 27.3952 36.9303 24.1966 33.7304 25.5858C31.3153 26.7281 29.0196 28.1083 26.8774 29.7061H96.8211C96.8211 29.7061 94.9675 21.452 84.9147 23.7358Z" stroke="#263238" stroke-linecap="round" stroke-linejoin="round"/>
<path d="M73.0347 17.3318L78.8932 16.0781" stroke="#263238" stroke-linecap="round" stroke-linejoin="round"/>
<path d="M78.8932 17.0945C79.4536 17.0945 79.9079 16.6394 79.9079 16.078C79.9079 15.5166 79.4536 15.0615 78.8932 15.0615C78.3327 15.0615 77.8784 15.5166 77.8784 16.078C77.8784 16.6394 78.3327 17.0945 78.8932 17.0945Z" fill="#263238"/>
<path d="M34.6025 24.522H32.3633V26.7651H34.6025V24.522Z" fill="white" stroke="#263238" stroke-linecap="round" stroke-linejoin="round"/>
<path d="M44.9194 25.708H42.6802V27.9511H44.9194V25.708Z" fill="white" stroke="#263238" stroke-linecap="round" stroke-linejoin="round"/>
<path d="M51.1567 20.2598H48.9175V22.5029H51.1567V20.2598Z" fill="white" stroke="#263238" stroke-linecap="round" stroke-linejoin="round"/>
<path d="M62.9282 22.2378H60.689V24.4809H62.9282V22.2378Z" fill="white" stroke="#263238" stroke-linecap="round" stroke-linejoin="round"/>
<path d="M73.583 16.3086H71.3438V18.5517H73.583V16.3086Z" fill="white" stroke="#263238" stroke-linecap="round" stroke-linejoin="round"/>
<path d="M86.0302 22.6182H83.791V24.8613H86.0302V22.6182Z" fill="white" stroke="#263238" stroke-linecap="round" stroke-linejoin="round"/>
<path d="M97.917 28.5679H95.6777V30.811H97.917V28.5679Z" fill="white" stroke="#263238" stroke-linecap="round" stroke-linejoin="round"/>
<path d="M28.1557 28.5679H25.9165V30.811H28.1557V28.5679Z" fill="white" stroke="#263238" stroke-linecap="round" stroke-linejoin="round"/>
<path d="M156.928 151.958L150.968 147.004L151.672 154.73L153.573 151.999L156.928 151.958Z" fill="#263238"/>
<path d="M91.6729 64.5991L96.5437 72.1349L101.408 67.2624L98.0929 60.1671L99.4188 55.071L92.5591 52.4146L91.6729 64.5991Z" fill="white" stroke="#263238" stroke-linecap="round" stroke-linejoin="round"/>
<path d="M81.6202 52.5571L81.8434 57.206L79.9086 61.1907C79.8544 61.3032 79.8271 61.4267 79.8287 61.5516C79.8303 61.6765 79.8608 61.7993 79.9179 61.9103C79.975 62.0213 80.057 62.1176 80.1575 62.1915C80.258 62.2653 80.3743 62.3148 80.4972 62.336L82.9326 62.7493C82.9326 62.7493 85.8077 70.7256 86.694 70.9492C87.5802 71.1728 96.4288 66.9577 96.6453 65.4058C96.8618 63.8539 97.3218 60.9738 97.3218 60.9738C97.9698 60.7556 98.5324 60.3381 98.9296 59.7808C99.3268 59.2235 99.5383 58.5548 99.534 57.8701C99.534 55.4372 95.3329 54.7731 95.3329 54.7731L81.6202 52.5571Z" fill="white" stroke="#263238" stroke-linecap="round" stroke-linejoin="round"/>
<path d="M84.3599 57.2468C84.3599 57.9245 84.1231 58.4463 83.8254 58.4463C83.5278 58.4463 83.291 57.9245 83.291 57.2468C83.291 56.5692 83.5346 56.0474 83.8322 56.0474C84.1299 56.0474 84.3599 56.5692 84.3599 57.2468Z" fill="#263238"/>
<path d="M82.689 55.0922C82.8308 54.8652 83.0233 54.6743 83.2514 54.5346C83.4795 54.3948 83.7368 54.3101 84.0032 54.2871C84.2695 54.2641 84.5376 54.3035 84.7862 54.402C85.0348 54.5006 85.2571 54.6556 85.4356 54.855" stroke="#263238" stroke-linecap="round" stroke-linejoin="round"/>
<path d="M84.3599 63.7118C85.0037 63.7942 85.6559 63.6472 86.2025 63.2966C86.7491 62.9461 87.1553 62.4142 87.35 61.7939" stroke="#263238" stroke-linecap="round" stroke-linejoin="round"/>
<path d="M81.6201 52.5571L104.188 56.3249C104.188 56.3249 104.635 48.3419 101.976 44.1268C99.3174 39.9117 90.9153 40.5826 86.4909 42.3513C82.0666 44.12 81.6201 52.5571 81.6201 52.5571Z" fill="#7E58FF" stroke="#263238" stroke-linecap="round" stroke-linejoin="round"/>
<path d="M91.1382 54.3262C91.1382 54.3262 91.1382 57.6536 92.4912 57.4299C93.8442 57.2063 95.3663 54.7734 95.3663 54.7734L91.1382 54.3262Z" fill="#263238" stroke="#263238" stroke-linecap="round" stroke-linejoin="round"/>
<path d="M94.0205 54.7729C94.0205 54.7729 101.32 62.7559 104.418 62.9728C107.517 63.1897 111.941 62.085 110.832 60.7568C109.722 59.4286 104.067 55.9318 104.067 55.9318L94.0205 54.7729Z" fill="#7E58FF" stroke="#263238" stroke-linecap="round" stroke-linejoin="round"/>
<path d="M114.302 130.883C121.574 141.725 131.519 156.438 131.938 156.573C132.615 156.797 171.764 137.734 171.764 137.734C171.764 137.734 180.612 156.797 181.722 156.573C182.831 156.35 180.173 132.177 179.063 131.974C177.954 131.77 134.597 146.157 134.597 146.157L126.188 118.454L126.134 118.312C126.83 116.287 127.22 114.17 127.29 112.03L102.07 118.014L102.294 123.11C102.294 123.11 85.036 146.828 85.036 147.933C85.036 149.038 88.5741 184.724 88.5741 184.724C88.5741 184.724 71.5398 195.357 72.426 195.804C73.3122 196.251 96.5433 195.804 96.5433 195.804L95.1903 183.606L93.6411 148.814C93.6411 148.814 105.074 139.245 114.302 130.883Z" stroke="#BBE8FF" stroke-linecap="round" stroke-linejoin="round"/>
<path d="M86.1191 146.781H83.8799V149.024H86.1191V146.781Z" fill="white" stroke="#263238" stroke-linecap="round" stroke-linejoin="round"/>
<path d="M94.7846 147.696H92.5454V149.939H94.7846V147.696Z" fill="white" stroke="#263238" stroke-linecap="round" stroke-linejoin="round"/>
<path d="M89.6972 183.599H87.458V185.842H89.6972V183.599Z" fill="white" stroke="#263238" stroke-linecap="round" stroke-linejoin="round"/>
<path d="M73.5424 194.679H71.3032V196.922H73.5424V194.679Z" fill="white" stroke="#263238" stroke-linecap="round" stroke-linejoin="round"/>
<path d="M96.334 182.487H94.0947V184.73H96.334V182.487Z" fill="white" stroke="#263238" stroke-linecap="round" stroke-linejoin="round"/>
<path d="M133.054 155.456H130.815V157.699H133.054V155.456Z" fill="white" stroke="#263238" stroke-linecap="round" stroke-linejoin="round"/>
<path d="M115.418 129.758H113.179V132.001H115.418V129.758Z" fill="white" stroke="#263238" stroke-linecap="round" stroke-linejoin="round"/>
<path d="M135.713 145.032H133.474V147.275H135.713V145.032Z" fill="white" stroke="#263238" stroke-linecap="round" stroke-linejoin="round"/>
<path d="M172.88 136.616H170.641V138.859H172.88V136.616Z" fill="white" stroke="#263238" stroke-linecap="round" stroke-linejoin="round"/>
<path d="M182.486 155.625H180.247V157.868H182.486V155.625Z" fill="white" stroke="#263238" stroke-linecap="round" stroke-linejoin="round"/>
<path d="M180.22 130.693H177.981V132.936H180.22V130.693Z" fill="white" stroke="#263238" stroke-linecap="round" stroke-linejoin="round"/>
<path d="M97.3281 194.36H95.0889V196.603H97.3281V194.36Z" fill="white" stroke="#263238" stroke-linecap="round" stroke-linejoin="round"/>
<path d="M147.207 101.614L136.586 72.5826L127.791 70.082L125.18 76.3979L131.052 77.9024L141.876 102.719C141.876 102.719 140.99 105.158 141.199 106.27C141.409 107.381 143.411 112.03 144.737 112.694C145.06 112.896 145.45 112.963 145.822 112.881C146.194 112.799 146.518 112.573 146.726 112.254C146.726 112.254 151.374 110.478 151.82 109.367C152.267 108.255 150.711 106.27 150.467 104.718C150.224 103.166 147.207 101.614 147.207 101.614Z" fill="white" stroke="#263238" stroke-linecap="round" stroke-linejoin="round"/>
<path d="M138.953 200.006H53.9506L43.2957 193.507C43.0643 193.376 42.8617 193.199 42.6998 192.988C42.5379 192.777 42.42 192.535 42.3532 192.278C42.2864 192.02 42.272 191.751 42.3109 191.488C42.3498 191.225 42.4411 190.972 42.5795 190.745C42.7179 190.517 42.9006 190.32 43.1166 190.165C43.3325 190.01 43.5775 189.9 43.8368 189.841C44.0961 189.783 44.3645 189.777 44.626 189.825C44.8875 189.873 45.1368 189.972 45.359 190.118L55.0601 196.034H137.316L140.699 192.646C141.075 192.299 141.571 192.112 142.082 192.123C142.593 192.133 143.08 192.342 143.442 192.704C143.803 193.066 144.011 193.554 144.022 194.066C144.033 194.578 143.845 195.075 143.499 195.452L138.953 200.006Z" fill="#263238" stroke="#263238" stroke-miterlimit="10"/>
<path d="M65.8369 204.62C65.8382 203.831 65.6057 203.058 65.1686 202.401C64.7316 201.744 64.1098 201.231 63.3818 200.928C62.6538 200.625 61.8525 200.545 61.0791 200.698C60.3057 200.851 59.5951 201.231 59.0371 201.789C58.4792 202.347 58.099 203.058 57.9447 203.832C57.7904 204.607 57.869 205.41 58.1703 206.139C58.4717 206.869 58.9824 207.493 59.6378 207.932C60.2933 208.371 61.0639 208.605 61.8523 208.605C62.9079 208.605 63.9204 208.185 64.6674 207.438C65.4145 206.691 65.8351 205.678 65.8369 204.62Z" fill="#263238" stroke="#263238" stroke-linecap="round" stroke-linejoin="round"/>
<path d="M61.8522 206.518C62.8984 206.518 63.7464 205.668 63.7464 204.62C63.7464 203.572 62.8984 202.723 61.8522 202.723C60.8061 202.723 59.958 203.572 59.958 204.62C59.958 205.668 60.8061 206.518 61.8522 206.518Z" fill="white" stroke="#263238" stroke-linecap="round" stroke-linejoin="round"/>
<path d="M126.675 204.62C126.676 203.83 126.443 203.058 126.006 202.4C125.569 201.743 124.947 201.23 124.218 200.927C123.49 200.624 122.688 200.545 121.914 200.698C121.141 200.852 120.43 201.233 119.873 201.791C119.315 202.35 118.935 203.062 118.782 203.837C118.628 204.611 118.708 205.415 119.01 206.144C119.313 206.874 119.824 207.497 120.481 207.935C121.137 208.373 121.908 208.606 122.697 208.605C123.751 208.603 124.762 208.183 125.508 207.436C126.253 206.689 126.673 205.677 126.675 204.62Z" fill="#263238" stroke="#263238" stroke-linecap="round" stroke-linejoin="round"/>
<path d="M124.591 204.62C124.591 204.245 124.48 203.878 124.272 203.566C124.064 203.254 123.768 203.011 123.422 202.867C123.076 202.723 122.695 202.686 122.327 202.759C121.96 202.832 121.622 203.013 121.358 203.278C121.093 203.544 120.912 203.882 120.839 204.25C120.766 204.618 120.804 205 120.947 205.346C121.09 205.693 121.333 205.989 121.645 206.198C121.956 206.406 122.322 206.518 122.697 206.518C123.199 206.518 123.681 206.318 124.036 205.962C124.392 205.606 124.591 205.123 124.591 204.62Z" fill="white" stroke="#263238" stroke-linecap="round" stroke-linejoin="round"/>
<path d="M80.4158 84.5367L75.7411 88.0945L50.4264 84.5977L47.3618 79.854L42.4572 80.3284L42.3016 81.2771C42.3016 81.2771 39.1355 81.2771 38.8176 81.9141C38.4996 82.5511 38.8176 84.7671 38.8176 84.7671L40.0826 85.0789C40.0826 85.0789 39.927 87.9319 40.7186 88.5689C41.5101 89.2059 48.6337 89.2466 48.6337 89.2466L78.8395 96.5519L85.5031 90.9678L80.4158 84.5367Z" fill="white" stroke="#263238" stroke-linecap="round" stroke-linejoin="round"/>
<path d="M143.655 110.613L148.343 109.258C148.539 109.195 148.711 109.071 148.832 108.904C148.954 108.737 149.019 108.536 149.019 108.33C149.018 108.093 148.931 107.865 148.774 107.688C148.617 107.511 148.401 107.397 148.167 107.367L144.906 106.995" fill="white"/>
<path d="M143.655 110.613L148.343 109.258C148.539 109.195 148.711 109.071 148.832 108.904C148.954 108.737 149.019 108.536 149.019 108.33C149.018 108.093 148.931 107.865 148.774 107.688C148.617 107.511 148.401 107.397 148.167 107.367L144.906 106.995" stroke="#263238" stroke-linecap="round" stroke-linejoin="round"/>
<path d="M147.139 107.449L146.186 104.44" stroke="#263238" stroke-linecap="round" stroke-linejoin="round"/>
<path d="M149.034 107.449L150.935 106.656" stroke="#263238" stroke-linecap="round" stroke-linejoin="round"/>
<path d="M125.464 81.2433L131.553 70.9562C131.553 70.9562 115.601 65.9211 109.269 65.0469C102.937 64.1727 101.184 66.1379 101.184 66.1379L90.5363 76.5673L76.5259 87.1458L83.2909 97.9073L93.3032 89.7752L101.638 125.224C101.638 125.224 113.233 124.953 119.146 122.514C125.437 119.884 131.58 114.551 131.58 114.551L112.103 73.2128L125.464 81.2433Z" fill="#263238" stroke="#263238" stroke-miterlimit="10"/>
<path d="M20.3223 1V221H229.991V1H20.3223ZM227.671 214.033H22.6427V10.2977H227.671V214.033Z" fill="#263238" stroke="#263238" stroke-linecap="round" stroke-linejoin="round"/>
<path opacity="0.2" d="M20.3223 1V221H229.991V1H20.3223ZM227.671 214.033H22.6427V10.2977H227.671V214.033Z" fill="white"/>
<path d="M227.671 10.2979H22.6426V214.034H227.671V10.2979Z" stroke="#263238" stroke-linecap="round" stroke-linejoin="round"/>
<path d="M27.9121 2.125H23.5757V8.22406H28.7983V2.96531L27.9121 2.125ZM28.46 7.83778H23.9139V2.51805H27.6888L28.46 3.24994V7.83778Z" fill="#7E58FF"/>
<path d="M223.699 3.45312L220.384 6.33324" stroke="#7E58FF" stroke-miterlimit="10"/>
<path d="M220.384 3.45312L223.699 6.33324" stroke="#7E58FF" stroke-miterlimit="10"/>
<path d="M228.117 1.68457V8.32577H198.053V1.68457" stroke="#7E58FF" stroke-width="0.5" stroke-miterlimit="10"/>
<path d="M216.183 8.32577V1.9082" stroke="#7E58FF" stroke-width="0.5" stroke-miterlimit="10"/>
<path d="M206.679 8.32577V1.9082" stroke="#7E58FF" stroke-width="0.5" stroke-miterlimit="10"/>
<path d="M213.308 3.34473H209.554V6.00121H213.308V3.34473Z" stroke="#7E58FF" stroke-miterlimit="10"/>
<path d="M203.14 5.89258H199.825" stroke="#7E58FF" stroke-miterlimit="10"/>
<path d="M227.67 10.2432H220.195V214.033H227.67V10.2432Z" fill="#263238"/>
<path opacity="0.2" d="M224.944 114.619H223.239C221.834 114.619 220.695 115.76 220.695 117.167V124.059C220.695 125.466 221.834 126.607 223.239 126.607H224.944C226.349 126.607 227.487 125.466 227.487 124.059V117.167C227.487 115.76 226.349 114.619 224.944 114.619Z" fill="white"/>
<path d="M25.5039 78.1943H0.25V167.078H25.5039V78.1943Z" fill="#263238"/>
<path opacity="0.2" d="M25.5039 78.1943H0.25V167.078H25.5039V78.1943Z" fill="white"/>
<path d="M10.6749 90.2227H4.18725C3.37649 90.2227 2.71924 90.881 2.71924 91.6932V98.4293C2.71924 99.2414 3.37649 99.8998 4.18725 99.8998H10.6749C11.4857 99.8998 12.1429 99.2414 12.1429 98.4293V91.6932C12.1429 90.881 11.4857 90.2227 10.6749 90.2227Z" fill="#263238"/>
<path d="M25.5039 78.1943H0.25V82.6873H25.5039V78.1943Z" fill="#263238"/>
<path d="M8.60449 83.4189V85.3706" stroke="#263238" stroke-linecap="round" stroke-linejoin="round"/>
<path d="M9.57227 83.4189V85.3706" stroke="#263238" stroke-linecap="round" stroke-linejoin="round"/>
<path d="M10.5469 83.4189V85.3706" stroke="#263238" stroke-linecap="round" stroke-linejoin="round"/>
<path d="M11.521 83.4189V85.3706" stroke="#263238" stroke-linecap="round" stroke-linejoin="round"/>
<path d="M12.4951 83.4189V85.3706" stroke="#263238" stroke-linecap="round" stroke-linejoin="round"/>
<path d="M13.4688 83.4189V85.3706" stroke="#263238" stroke-linecap="round" stroke-linejoin="round"/>
<path d="M14.4429 83.4189V85.3706" stroke="#263238" stroke-linecap="round" stroke-linejoin="round"/>
<path d="M15.417 83.4189V85.3706" stroke="#263238" stroke-linecap="round" stroke-linejoin="round"/>
<path d="M16.3848 83.4189V85.3706" stroke="#263238" stroke-linecap="round" stroke-linejoin="round"/>
<path d="M17.3589 83.4189V85.3706" stroke="#263238" stroke-linecap="round" stroke-linejoin="round"/>
<path d="M10.1538 95.6712L5.49268 91.8085C5.43907 91.7638 5.37343 91.7361 5.30408 91.7289C5.23474 91.7217 5.16482 91.7353 5.1032 91.768C5.04159 91.8007 4.99105 91.851 4.95802 91.9125C4.92498 91.974 4.91093 92.0439 4.91765 92.1134L5.46562 98.1718C5.47313 98.2436 5.50246 98.3113 5.54965 98.3659C5.59683 98.4204 5.6596 98.4591 5.72946 98.4768H5.81741C5.87422 98.4768 5.93022 98.4633 5.98079 98.4373C6.03137 98.4114 6.07507 98.3738 6.1083 98.3277L7.46131 96.3353H9.91025C9.98228 96.3329 10.0519 96.3089 10.1101 96.2663C10.1683 96.2237 10.2123 96.1645 10.2364 96.0965C10.2605 96.0284 10.2636 95.9547 10.2452 95.8849C10.2269 95.815 10.1879 95.7524 10.1335 95.7051L10.1538 95.6712Z" fill="white"/>
<path d="M9.92373 95.9422L5.25586 92.0591L5.80383 98.1175L7.2989 95.976L9.92373 95.9422Z" fill="#263238"/>
<path d="M21.3505 95.9422L16.6826 92.0591L17.2373 98.1175L18.7257 95.976L21.3505 95.9422Z" fill="white"/>
<path d="M23.2038 99.3914L23.1158 98.1445L22.0063 99.1881L23.2038 99.3914Z" fill="white"/>
<path d="M23.2038 139.11L23.1158 137.863L22.0063 138.913L23.2038 139.11Z" fill="white"/>
<path d="M23.2038 151.302L23.1158 150.055L22.0063 151.105L23.2038 151.302Z" fill="white"/>
<path d="M23.2038 163.804L23.1158 162.557L22.0063 163.601L23.2038 163.804Z" fill="white"/>
<path d="M11.5885 125.035L11.5006 123.788L10.3911 124.838L11.5885 125.035Z" fill="white"/>
<path d="M11.5885 139.11L11.5006 137.863L10.3911 138.913L11.5885 139.11Z" fill="white"/>
<path d="M11.5885 151.302L11.5006 150.055L10.3911 151.105L11.5885 151.302Z" fill="white"/>
<path d="M11.5885 163.804L11.5006 162.557L10.3911 163.601L11.5885 163.804Z" fill="white"/>
<path d="M9.78919 107.337L8.98047 106.647L3.78809 112.757L4.59681 113.447L9.78919 107.337Z" fill="white"/>
<path d="M7.32649 106.785C6.23056 105.572 6.21026 105.335 7.10324 103.959C5.8923 105.057 5.64876 105.077 4.28223 104.189C5.37816 105.402 5.39846 105.64 4.51224 107.009C5.71642 105.911 5.95996 105.89 7.32649 106.785Z" fill="white"/>
<path d="M12.1829 107.442C11.5064 106.69 11.5064 106.541 12.0409 105.7C11.2967 106.378 11.1479 106.378 10.3022 105.836C10.9787 106.588 10.9787 106.737 10.4443 107.577C11.1885 106.9 11.3373 106.893 12.1829 107.442Z" fill="white"/>
<path d="M10.8234 110.316C10.343 109.78 10.3363 109.672 10.7219 109.069C10.1942 109.55 10.086 109.564 9.48389 109.17C9.9642 109.699 9.97774 109.808 9.58536 110.411C10.113 109.93 10.228 109.923 10.8234 110.316Z" fill="white"/>
<path d="M16.0801 137.395L16.5672 137.863L21.7559 131.75L21.2756 131.29L16.0801 137.395Z" fill="white"/>
<path d="M23.3802 111.19L19.2603 107.761L19.7473 113.101L21.0598 111.217L23.3802 111.19Z" fill="white"/>
<path d="M19.2061 111.502C17.2307 111.502 15.6206 110.336 15.6206 108.9C15.6206 107.463 17.2307 106.297 19.2061 106.297C21.1815 106.297 22.7915 107.463 22.7915 108.9C22.7915 110.336 21.1882 111.502 19.2061 111.502ZM19.2061 106.609C17.3998 106.609 15.9318 107.632 15.9318 108.9C15.9318 110.167 17.3998 111.19 19.2061 111.19C21.0123 111.19 22.4804 110.16 22.4804 108.9C22.4804 107.639 21.0123 106.609 19.2061 106.609Z" fill="white"/>
<path d="M17.0272 110.98C16.8514 110.981 16.6791 110.93 16.5324 110.833C16.3856 110.736 16.2709 110.598 16.203 110.435C16.1351 110.273 16.117 110.094 16.151 109.921C16.185 109.748 16.2695 109.589 16.3938 109.465C16.5182 109.34 16.6767 109.255 16.8493 109.221C17.0218 109.187 17.2005 109.205 17.3628 109.273C17.525 109.341 17.6633 109.456 17.7602 109.603C17.857 109.75 17.908 109.923 17.9067 110.099C17.9049 110.332 17.8117 110.555 17.6471 110.72C17.4826 110.885 17.2599 110.978 17.0272 110.98ZM17.0272 109.523C16.9132 109.522 16.8014 109.554 16.7059 109.617C16.6105 109.679 16.5357 109.769 16.4912 109.874C16.4466 109.979 16.4343 110.095 16.4557 110.207C16.4771 110.319 16.5313 110.423 16.6115 110.504C16.6916 110.585 16.7941 110.641 16.9058 110.664C17.0175 110.686 17.1335 110.675 17.2389 110.632C17.3444 110.588 17.4346 110.515 17.4981 110.42C17.5616 110.325 17.5955 110.213 17.5955 110.099C17.5955 109.947 17.5359 109.802 17.4295 109.694C17.3231 109.586 17.1786 109.525 17.0272 109.523Z" fill="white"/>
<path d="M16.7631 111.908L16.6616 111.617C17.0364 111.517 17.357 111.273 17.5546 110.939C17.6662 110.699 17.6831 110.426 17.602 110.173L17.8996 110.072C18.0066 110.4 17.9848 110.756 17.8387 111.068C17.7243 111.273 17.5703 111.453 17.3855 111.597C17.2008 111.741 16.9892 111.847 16.7631 111.908Z" fill="white"/>
<path d="M6.09152 119.247L8.83252 121.993L10.105 120.719L7.36396 117.973L6.09152 119.247Z" fill="white"/>
<path d="M2.78662 124.276L3.23312 124.73L5.43175 122.528C5.38375 122.447 5.36433 122.352 5.3766 122.258C5.38887 122.165 5.43212 122.078 5.4994 122.013C5.55635 121.955 5.6284 121.914 5.70732 121.895C5.78625 121.876 5.86888 121.88 5.94579 121.906C6.0227 121.932 6.0908 121.979 6.14232 122.042C6.19384 122.104 6.2267 122.18 6.23716 122.261C6.24762 122.342 6.23526 122.424 6.20148 122.497C6.16771 122.571 6.11388 122.634 6.04613 122.679C5.97839 122.724 5.89946 122.749 5.81834 122.751C5.73722 122.753 5.65718 122.732 5.58735 122.69L3.39548 124.893L3.8149 125.306L7.52215 124.337L8.48955 122.304L5.78353 119.593L3.75402 120.508L2.78662 124.276Z" fill="white"/>
<path d="M2.39404 115.656H24.1301" stroke="#263238" stroke-linecap="round" stroke-linejoin="round"/>
<path d="M20.4355 117.973L19.1631 119.248L21.9041 121.994L23.1765 120.719L20.4355 117.973Z" fill="white"/>
<path d="M16.8173 120.542L15.8296 124.276L16.2761 124.73L18.4747 122.528C18.4267 122.447 18.4073 122.352 18.4196 122.258C18.4318 122.165 18.4751 122.078 18.5424 122.013C18.5993 121.955 18.6714 121.914 18.7503 121.895C18.8292 121.876 18.9119 121.88 18.9888 121.906C19.0657 121.932 19.1338 121.979 19.1853 122.042C19.2368 122.104 19.2697 122.18 19.2801 122.261C19.2906 122.342 19.2782 122.424 19.2445 122.497C19.2107 122.571 19.1568 122.634 19.0891 122.679C19.0214 122.724 18.9424 122.749 18.8613 122.751C18.7802 122.753 18.7001 122.732 18.6303 122.69L16.4384 124.893L16.8579 125.306L20.6125 124.337L21.5799 122.304L18.8739 119.593L16.8173 120.542Z" fill="white"/>
<path d="M15.4781 121.626C15.6134 121.362 15.7555 121.077 15.8976 120.759C16.0363 120.5 16.1173 120.213 16.1348 119.92C16.1523 119.626 16.106 119.332 15.999 119.058C15.7257 118.563 15.2688 118.195 14.7272 118.035C14.6815 118.022 14.6326 118.028 14.5914 118.052C14.5501 118.075 14.5199 118.114 14.5074 118.16C14.4948 118.206 14.5009 118.255 14.5244 118.296C14.5479 118.337 14.5868 118.368 14.6325 118.38C15.0774 118.51 15.4538 118.809 15.6811 119.214C15.7662 119.44 15.8012 119.682 15.7837 119.923C15.7662 120.164 15.6965 120.398 15.5796 120.61C15.4376 120.928 15.2955 121.206 15.1602 121.464C14.4837 122.819 14.0643 123.639 15.8367 124.988C15.872 124.998 15.9096 124.998 15.9449 124.988C15.9712 124.988 15.9971 124.982 16.0206 124.97C16.0441 124.958 16.0645 124.941 16.0802 124.92C16.1121 124.886 16.1298 124.841 16.1298 124.794C16.1298 124.748 16.1121 124.703 16.0802 124.669C14.5107 123.551 14.7949 122.982 15.4781 121.626Z" fill="white"/>
<path d="M2.48247 130.701V131.053C2.47752 131.587 2.50689 132.122 2.57041 132.652L3.24692 132.496C3.19926 132.137 3.17665 131.775 3.17927 131.412H5.88528V137.45H4.87729V138.128H7.5833V137.45H6.58885V131.412H9.20015V132.679H9.87665C9.87665 132.219 9.87665 131.046 9.87665 131.046V130.694L2.48247 130.701Z" fill="white"/>
<path opacity="0.44" d="M6.49439 150.272C8.64272 150.272 10.3843 149.013 10.3843 147.459C10.3843 145.906 8.64272 144.647 6.49439 144.647C4.34606 144.647 2.60449 145.906 2.60449 147.459C2.60449 149.013 4.34606 150.272 6.49439 150.272Z" fill="white"/>
<path d="M6.49439 150.272C8.64272 150.272 10.3843 149.013 10.3843 147.459C10.3843 145.906 8.64272 144.647 6.49439 144.647C4.34606 144.647 2.60449 145.906 2.60449 147.459C2.60449 149.013 4.34606 150.272 6.49439 150.272Z" stroke="white" stroke-miterlimit="10"/>
<path d="M18.3467 147.541L22.6222 142.898C22.7074 142.808 22.8203 142.749 22.9429 142.731C23.0656 142.712 23.1908 142.736 23.2987 142.797C23.425 142.875 23.5151 143.001 23.5493 143.145C23.5835 143.29 23.5591 143.443 23.4813 143.569L20.2138 148.733L18.3467 147.541Z" fill="white"/>
<path d="M17.7848 147.927C18.8401 147.798 20.4908 148.652 20.051 149.96C19.9056 150.268 19.6496 150.51 19.334 150.637C18.3734 151.027 17.3377 151.196 16.3032 151.132C16.4586 151.043 16.592 150.919 16.6938 150.772C16.7957 150.624 16.8633 150.455 16.8918 150.278C16.8974 149.911 16.8793 149.545 16.8377 149.18C16.8377 148.659 17.203 147.954 17.7848 147.913" fill="white"/>
<path d="M8.68603 158.112C8.66343 157.654 8.50569 157.213 8.23278 156.845L7.0083 158.071C7.32565 158.488 7.50961 158.991 7.53597 159.515C7.573 159.993 7.65454 160.468 7.77951 160.931L8.98369 159.725C8.82179 159.201 8.72188 158.659 8.68603 158.112Z" fill="white"/>
<path d="M7.27189 159.535C7.24889 159.077 7.09119 158.636 6.81864 158.268L5.5874 159.494C5.91052 159.906 6.09736 160.408 6.12184 160.931C6.15739 161.409 6.23664 161.883 6.35862 162.347L7.56279 161.141C7.40695 160.618 7.30939 160.079 7.27189 159.535Z" fill="white"/>
<path d="M8.95639 158.091C8.99001 158.571 9.0716 159.045 9.19993 159.508L10.9656 157.732L9.15934 155.923L8.42871 156.655C8.74629 157.069 8.93037 157.57 8.95639 158.091Z" fill="white"/>
<path d="M5.85136 160.931C5.82876 160.473 5.67102 160.032 5.3981 159.664L4.36982 160.694L3.61214 163.038C3.59926 163.075 3.5971 163.115 3.60592 163.152C3.61474 163.19 3.63416 163.225 3.66191 163.252C3.68965 163.279 3.72454 163.297 3.76247 163.305C3.80041 163.313 3.83979 163.31 3.87597 163.296L6.16932 162.544C6.00858 162.018 5.90203 161.478 5.85136 160.931ZM4.39688 162.496L4.80278 161.256L5.62135 162.076L4.39688 162.496Z" fill="white"/>
<path d="M16.2427 159.223L14.8896 160.579L18.0692 163.771L19.4222 162.415L19.6184 162.612L22.798 159.42L19.2328 155.842L16.0465 159.034L16.2427 159.223ZM18.076 162.964L15.6406 160.572L16.6012 159.61L19.0231 162.022L18.076 162.964Z" fill="white"/>
<path d="M4.68071 79.3799V79.8068L3.79449 80.559L4.68071 81.3045V81.7314L3.28711 80.559L4.68071 79.3799Z" fill="white"/>
<path d="M3.15238 79.3799V79.8068L2.27293 80.559L3.15238 81.3045V81.7314L1.75879 80.559L3.15238 79.3799Z" fill="white"/>
<path d="M254.25 37.5195H164.979V96.7076H254.25V37.5195Z" fill="#263238"/>
<path opacity="0.1" d="M254.25 39.9932H195.225V51.3713H254.25V39.9932Z" fill="white"/>
<path opacity="0.2" d="M195.225 51.3781V39.9932H164.979V96.7077H254.25V51.3781H195.225Z" fill="white"/>
<path d="M175.248 61.9771H170.884V66.348H175.248V61.9771Z" fill="white"/>
<path d="M177.427 64.1592H173.063V68.5302H177.427V64.1592Z" fill="white"/>
<path d="M186.755 64.1592H188.934V61.9771H184.57V66.348H186.755V64.1592Z" fill="white"/>
<path d="M191.301 68.713H186.566V63.9692H191.301V68.713ZM186.938 68.3402H190.929V64.3487H186.938V68.3402Z" fill="white"/>
<path d="M202.991 66.5313H198.256V61.7876H202.991V66.5313ZM198.635 66.1586H202.626V62.1603H198.635V66.1586Z" fill="white"/>
<path d="M205.176 68.713H200.441V63.9692H205.176V68.713ZM200.813 68.3402H204.804V64.3487H200.813V68.3402Z" fill="white"/>
<path d="M202.809 64.1592H200.631V66.3413H202.809V64.1592Z" fill="white"/>
<path d="M216.765 88.7928H212.28V84.2998H216.765V88.7928ZM212.402 88.6708H216.643V84.4218H212.402V88.6708Z" fill="white"/>
<path d="M219.072 91.1309H214.336V86.3872H219.072V91.1309ZM214.709 90.765H218.7V86.7667H214.709V90.765Z" fill="white"/>
<path d="M216.704 86.5498H214.526V88.7319H216.704V86.5498Z" fill="white"/>
<path d="M230.877 88.9146H226.141V84.1709H230.877V88.9146ZM226.52 88.5419H230.505V84.5504H226.52V88.5419Z" fill="white"/>
<path d="M233.055 91.1309H228.319V86.3872H233.055V91.1309ZM228.698 90.765H232.69V86.7667H228.698V90.765Z" fill="white"/>
<path d="M244.617 86.5498V88.7319H242.438V90.914H246.802V86.5498H244.617Z" fill="white"/>
<path d="M247.005 91.1309H242.27V88.5761H244.448V86.3872H247.005V91.1309ZM242.642 90.765H246.633V86.7667H244.827V88.9488H242.642V90.765Z" fill="white"/>
<path d="M244.806 88.9146H240.07V84.1709H244.806V88.9146ZM240.442 88.5419H244.434V84.5504H240.442V88.5419Z" fill="white"/>
<path d="M172.555 85.8044H174.984V83.873H170.62V88.2373H172.555V85.8044Z" fill="white"/>
<path d="M174.734 86.2988H173.05V87.9862H174.734V86.2988Z" fill="white"/>
<path d="M175.228 86.0552V88.488H172.806V90.4262H177.162V86.0552H175.228Z" fill="white"/>
<path d="M216.596 64.1592V61.9771H212.232V66.348H214.411V64.1592H216.596Z" fill="white"/>
<path d="M216.596 64.1592V66.3481H214.411V68.5302H218.774V64.1592H216.596Z" fill="white"/>
<path d="M186.167 85.7231H188.913V83.7036H184.55V88.0746H186.167V85.7231Z" fill="white"/>
<path d="M191.092 86.2178H186.606V90.2567H191.092V86.2178Z" fill="white"/>
<path d="M202.836 86.3871V84.1982H198.479V88.5692H200.346V86.5769H200.84V90.7513H205.021V86.3871H202.836Z" fill="white"/>
<path d="M171.27 78.8379H189.299" stroke="white" stroke-width="2" stroke-miterlimit="10"/>
<path d="M171.27 45.9302H189.299" stroke="white" stroke-width="2" stroke-miterlimit="10"/>
<path d="M171.27 57.6875H197.938" stroke="white" stroke-width="2" stroke-miterlimit="10"/>
<path d="M238.068 42.7173V43.3136L239.306 44.364L238.068 45.4077V46.004L240.017 44.364L238.068 42.7173Z" fill="white"/>
<path d="M240.199 42.7173V43.3136L241.437 44.364L240.199 45.4077V46.004L242.148 44.364L240.199 42.7173Z" fill="white"/>
<path d="M244.617 41.728V47.4137" stroke="white" stroke-width="0.5" stroke-miterlimit="10"/>
<path d="M247.086 43.4561H251.537" stroke="white" stroke-width="0.5" stroke-miterlimit="10"/>
<path d="M247.086 44.4458H251.537" stroke="white" stroke-width="0.5" stroke-miterlimit="10"/>
<path d="M247.086 45.4355H251.537" stroke="white" stroke-width="0.5" stroke-miterlimit="10"/>
<path d="M247.086 46.4248H251.537" stroke="white" stroke-width="0.5" stroke-miterlimit="10"/>
</svg>
