<svg width="180" height="220" viewBox="0 0 180 220" fill="none" xmlns="http://www.w3.org/2000/svg">
<path opacity="0.3" d="M176.008 168.636L109.974 130.515L81.0532 147.209L147.084 185.333L176.008 168.636Z" fill="black"/>
<path d="M92.418 144.333V147.717L90.5673 148.79L89.9224 145.011L92.418 144.333Z" fill="#403531"/>
<path d="M90.5674 145.413V148.79H87.9657L86.1216 144.333L90.5674 145.413Z" fill="#544540"/>
<path d="M87.9657 145.413V148.79L86.1216 147.721V144.333L87.9657 145.413Z" fill="#685750"/>
<path d="M86.1216 142.847V144.333L87.9657 145.413H90.5674L92.4182 144.333V142.847L90.5674 141.773H87.9657L86.1216 142.847Z" fill="#836E69"/>
<path d="M150.231 177.698V181.079L148.383 182.148L147.733 178.374L150.231 177.698Z" fill="#403531"/>
<path d="M148.383 178.771V182.148H145.77L143.939 177.698L148.383 178.771Z" fill="#544540"/>
<path d="M145.77 178.771V182.148L143.939 181.086V177.698L145.77 178.771Z" fill="#685750"/>
<path d="M143.939 176.205V177.698L145.77 178.771H148.383L150.231 177.698V176.205L148.385 175.134H145.77L143.939 176.205Z" fill="#836E69"/>
<path d="M172.423 164.837V168.216L170.568 169.29L169.919 165.509L172.423 164.837Z" fill="#403531"/>
<path d="M170.568 165.904V169.29H167.973L166.127 164.837L170.568 165.904Z" fill="#544540"/>
<path d="M167.973 165.904V169.29L166.127 168.216V164.837L167.973 165.904Z" fill="#685750"/>
<path d="M166.127 163.344V164.837L167.973 165.904H170.568L172.424 164.837V163.344L170.573 162.269H167.973L166.127 163.344Z" fill="#836E69"/>
<path d="M176.008 121.292L109.974 83.1743L81.0532 99.8665L130.772 127.337L147.084 137.988L176.008 121.292Z" fill="#F7E6BB"/>
<path d="M81.0552 99.8643V142.275L147.084 180.408V137.988L81.0552 99.8643Z" fill="#7563FF"/>
<path d="M176.008 163.711L147.084 180.408V137.988L176.008 121.292V163.711Z" fill="#7E58FF"/>
<path d="M109.974 75.9233L78.46 94.1152L148.155 134.353L179.665 116.165L109.974 75.9233Z" fill="#7E58FF"/>
<path d="M148.155 139.497L78.46 99.2457V94.1152L148.155 134.353V139.497Z" fill="#7563FF"/>
<path d="M179.665 116.166L148.155 134.349V139.49L179.665 121.292V116.166Z" fill="#7563FF"/>
<path opacity="0.3" d="M141.424 123.61L96.2656 97.5406L117.141 85.4907L162.304 111.567L141.424 123.61Z" fill="black"/>
<path d="M161.018 111.565V109.789L151.042 113.029L143.764 117.23L141.43 121.103L141.423 122.875L161.018 111.565Z" fill="#403531"/>
<path d="M141.424 122.875V121.104L133.87 114.045L107.776 98.7069L97.542 95.7651V97.5408L141.424 122.875Z" fill="#685750"/>
<path d="M161.018 109.789L117.138 84.4526L97.542 95.7648L141.424 121.104L161.018 109.789Z" fill="#836E69"/>
<path d="M134.415 102.87H130.438L127.615 101.251V98.9585L130.438 97.3286H134.415L137.236 98.9585V101.251L134.415 102.87Z" fill="#836E69"/>
<path d="M130.438 103.84V102.87L127.615 101.251V102.221L130.438 103.84Z" fill="#685750"/>
<path d="M134.416 102.87H130.438V103.839H134.416V102.87Z" fill="#544540"/>
<path d="M137.236 102.221V101.251L134.416 102.87V103.84L137.236 102.221Z" fill="#403531"/>
<path d="M133.973 75.4751H130.87L128.693 74.214V72.4273L130.87 71.1685H133.973L136.149 72.4273V74.214L133.973 75.4751Z" fill="#836E69"/>
<path d="M130.87 101.98L132.799 84.4306L130.87 75.4749L128.693 74.2139V100.725L130.87 101.98Z" fill="#685750"/>
<path d="M133.974 101.98L135.504 86.5267L133.974 75.4751H130.871V101.98H133.974Z" fill="#544540"/>
<path d="M136.149 100.725V74.2139L133.974 75.4749V101.98L136.149 100.725Z" fill="#403531"/>
<path d="M171.984 118.922L170.226 119.936L165.983 113.875V115.371L170.226 113.482L171.984 112.466V118.922Z" fill="#0A0808"/>
<path d="M171.984 112.466L170.226 113.48L151.035 102.864L99.9075 73.8897L85.0439 64.3001L86.7975 63.2842L171.984 112.466Z" fill="#362C29"/>
<path d="M170.226 119.936L85.0439 70.7603V64.3003L170.226 113.48V119.936Z" fill="#362C29"/>
<path d="M164.772 113.524L164.35 112.798L161.444 111.09L161.018 111.333V111.574L161.444 112.296L164.35 114.012L164.772 113.774V113.524Z" fill="#DDE65C"/>
<path d="M164.474 112.736L164.35 112.797L161.443 111.09L161.56 111.024L164.474 112.736Z" fill="#B4C342"/>
<path d="M164.889 113.458L164.772 113.524L164.35 112.797L164.474 112.735L164.889 113.458Z" fill="#9AAB43"/>
<path d="M164.889 113.703L164.772 113.774V113.524L164.889 113.458V113.703Z" fill="#86943F"/>
<path d="M171.984 112.466L170.226 113.48L165.983 88.7949V57.8907L170.226 50.1983L171.984 49.1846V112.466Z" fill="#403531"/>
<path d="M171.984 49.1845L170.226 50.196L151.035 44.3499L99.9075 15.3649L85.0439 1.01372L86.7975 0L171.984 49.1845Z" fill="#836E69"/>
<path d="M170.226 113.48L85.0439 64.2997V1.01367L170.226 50.1959V113.48Z" fill="#685750"/>
<path d="M167.944 110.043V110.596L87.3228 64.0481V3.90039L87.7976 4.17425V63.7897L167.944 110.043Z" fill="#403531"/>
<path d="M167.944 50.4452V110.043L87.7983 63.7893V4.17383L167.944 50.4452Z" fill="#17435C"/>
<path d="M167.944 50.4458V110.044L87.7983 63.7899L167.944 50.4458Z" fill="#275C78"/>
<path d="M103.283 53.8485L100.947 55.1958L103.278 59.2381L105.614 57.8908L103.283 53.8485Z" fill="#FBE979"/>
<path d="M108.505 56.8595L106.171 58.21L108.51 62.2533L110.844 60.9028L108.505 56.8595Z" fill="#FBE979"/>
<path d="M113.681 59.8517L111.345 61.1992L113.678 65.2434L116.014 63.8959L113.681 59.8517Z" fill="#FBE979"/>
<path d="M118.868 62.8254L116.532 64.1724L118.864 68.217L121.2 66.87L118.868 62.8254Z" fill="#FBE979"/>
<path d="M139.625 74.7921L137.288 76.1421L139.624 80.1868L141.961 78.8368L139.625 74.7921Z" fill="#FBE979"/>
<path d="M144.805 77.8367L142.471 79.1826L144.803 83.2273L147.137 81.8814L144.805 77.8367Z" fill="#FBE979"/>
<path d="M145.088 87.4703L144.54 87.1567V89.3211L145.088 89.6369V87.4703Z" fill="white"/>
<path d="M119.147 76.9352L118.599 76.6216V78.7838L119.147 79.1018V76.9352Z" fill="white"/>
<path d="M103.58 62.8473L103.033 62.5337V64.6936L103.58 65.0117V62.8473Z" fill="white"/>
<path d="M149.991 80.8133L147.655 82.1616L149.99 86.2049L152.325 84.8566L149.991 80.8133Z" fill="#FBE979"/>
<path d="M103.31 18.8068L100.975 20.1519L103.306 24.1974L105.641 22.8524L103.31 18.8068Z" fill="#FF9F3D"/>
<path d="M108.504 21.797L106.17 23.1475L108.509 27.1907L110.843 25.8403L108.504 21.797Z" fill="#FF9F3D"/>
<path d="M113.665 24.7816L111.329 26.1294L113.663 30.1731L115.998 28.8253L113.665 24.7816Z" fill="#FF9F3D"/>
<path d="M118.866 27.7703L116.532 29.1162L118.864 33.1609L121.198 31.815L118.866 27.7703Z" fill="#FF9F3D"/>
<path d="M124.061 36.1589L121.724 32.1128L124.061 30.77L126.397 34.8161L124.061 36.1589Z" fill="#FF9F3D"/>
<path d="M129.239 33.7631L126.905 35.1133L129.242 39.1547L131.577 37.8044L129.239 33.7631Z" fill="#FF9F3D"/>
<path d="M134.406 36.7642L132.071 38.1128L134.407 42.1575L136.742 40.8089L134.406 36.7642Z" fill="#FF9F3D"/>
<path d="M139.656 39.7532L137.318 41.1021L139.654 45.1501L141.991 43.8012L139.656 39.7532Z" fill="#FF9F3D"/>
<path d="M144.848 42.7493L142.513 44.0977L144.846 48.1395L147.182 46.7912L144.848 42.7493Z" fill="#FF9F3D"/>
<path d="M149.999 45.7523L147.666 47.1001L150.001 51.1429L152.334 49.7951L149.999 45.7523Z" fill="#FF9F3D"/>
<path d="M155.932 68.6755L156.789 68.1829L156.4 67.5138L155.548 68.0062L153.015 66.5464L152.162 65.0645L151.773 65.2831L152.63 66.7695V69.687L151.773 70.1883L152.162 70.8553L153.015 70.3584L155.548 71.8204L156.4 73.3024L156.789 73.0771L155.932 71.5951V68.6755Z" fill="#FA5C52"/>
<path d="M149.792 65.1303L150.647 64.6355L150.263 63.9686L149.406 64.4655L146.877 63.0034L146.018 61.5171L145.638 61.7401L146.488 63.2221V66.1484L145.638 66.6387L146.018 67.3057L146.877 66.8154L149.406 68.2753L150.263 69.7572L150.647 69.5363L149.792 68.0522V65.1303Z" fill="#FA5C52"/>
<path d="M143.655 61.5834L144.512 61.0909L144.127 60.4217L143.271 60.9186L140.744 59.4566L139.885 57.9746L139.496 58.1999L140.353 59.6796L140.351 62.6015L139.496 63.0962L139.885 63.7632L140.737 63.2729L143.271 64.7306L144.125 66.2103L144.512 65.9917L143.655 64.5075V61.5834Z" fill="#FA5C52"/>
<path d="M137.515 58.0387L138.372 57.5462L137.986 56.8814L137.131 57.3739L134.6 55.9141L133.741 54.4321L133.356 54.6552L134.211 56.1327V59.0546L133.356 59.5516L133.741 60.2163L134.6 59.7238L137.131 61.1837L137.986 62.67L138.372 62.4448L137.515 60.9628V58.0387Z" fill="#FA5C52"/>
<path d="M131.375 54.494L132.23 54.0015L131.848 53.3367L130.989 53.8293L128.458 52.3672L127.603 50.8853L127.216 51.1105L128.073 52.5903V55.5122L127.216 56.0069L127.603 56.6717L128.458 56.1792L130.989 57.639L131.848 59.121L132.23 58.8979L131.375 57.4204V54.494Z" fill="#FA5C52"/>
<path d="M119.098 47.4049L119.955 46.9168L119.564 46.2454L118.711 46.7379L116.183 45.2781L115.33 43.7983L114.937 44.017L115.796 45.5012V48.4231L114.937 48.9178L115.33 49.5848L116.183 49.0901L118.711 50.5521L119.564 52.0363L119.955 51.8088L119.098 50.329V47.4049Z" fill="#FA5C52"/>
<path d="M112.956 43.8602L113.815 43.3699L113.427 42.6985L112.572 43.1955L110.041 41.7334L109.186 40.2515L108.797 40.4767L109.654 41.9565V44.8806L108.797 45.3731L109.186 46.0401L110.041 45.5454L112.572 47.0119L113.427 48.4894L113.815 48.2685L112.956 46.7866V43.8602Z" fill="#FA5C52"/>
<path d="M106.816 40.3178L107.673 39.8231L107.287 39.1561L106.434 39.6508L103.901 38.1887L103.048 36.7046L102.664 36.9321L103.519 38.414V41.3359L102.664 41.8284L103.048 42.4998L103.901 42.0029L106.434 43.4649L107.287 44.9469L107.673 44.7216L106.816 43.2397V40.3178Z" fill="#FA5C52"/>
<path d="M100.679 36.7731L101.533 36.2806L101.149 35.6136L100.297 36.1105L97.7634 34.6441L96.9087 33.1621L96.52 33.383L97.3792 34.8671V37.789L96.52 38.2837L96.9087 38.9507L97.7634 38.4604L100.297 39.9203L101.149 41.4022L101.533 41.1814L100.679 39.6972V36.7731Z" fill="#FA5C52"/>
<path d="M155.954 79.1418L156.617 78.7597L154.28 74.7158L151.944 76.063L152.606 77.2137L151.566 77.8188L152.887 80.1135L153.273 79.8905L152.334 78.2628L152.997 77.8829L154.28 80.1091L155.566 79.367L156.228 80.5133L155.292 81.0544L155.674 81.7191L157.003 80.955L155.954 79.1418Z" fill="#CCA7CF"/>
<path d="M149.814 75.6013L150.477 75.2148L148.14 71.1709L145.81 72.5159L146.468 73.6666L145.424 74.2739L146.749 76.5686L147.138 76.35L146.197 74.7178L146.855 74.338L148.14 76.562L149.426 75.8221L150.091 76.9706L149.147 77.5117L149.536 78.1765L150.861 77.4145L149.814 75.6013Z" fill="#CCA7CF"/>
<path d="M143.67 72.0521L144.335 71.6679L142.003 67.624L139.666 68.9734L140.331 70.1241L139.286 70.727L140.607 73.0239L140.996 72.8031L140.055 71.1754L140.715 70.7933L142.003 73.0173L143.29 72.2708L143.951 73.4215L143.01 73.967L143.396 74.634L144.721 73.8676L143.67 72.0521Z" fill="#CCA7CF"/>
<path d="M131.395 64.965L132.058 64.5829L129.725 60.5391L127.393 61.8841L128.056 63.0347L127.009 63.6421L128.334 65.9368L128.714 65.7137L127.777 64.0838L128.436 63.7061L129.725 65.9279L131.011 65.1859L131.673 66.3343L130.732 66.8776L131.114 67.5446L132.44 66.776L131.395 64.965Z" fill="#CCA7CF"/>
<path d="M119.115 57.8734L119.78 57.4958L117.444 53.4497L115.107 54.7925L115.774 55.9498L114.727 56.5527L116.052 58.8452L116.441 58.6288L115.5 56.9944L116.158 56.6146L117.444 58.8385L118.733 58.0965L119.396 59.2449L118.457 59.7882L118.842 60.453L120.162 59.691L119.115 57.8734Z" fill="#CCA7CF"/>
<path d="M112.978 54.3312L113.641 53.9469L111.306 49.9053L108.967 51.2503L109.63 52.4054L108.592 53.0061L109.91 55.303L110.299 55.0799L109.356 53.4522L110.021 53.0723L111.306 55.2964L112.594 54.5543L113.256 55.7005L112.315 56.246L112.7 56.9108L114.029 56.1445L112.978 54.3312Z" fill="#CCA7CF"/>
<path d="M106.841 50.7863L107.499 50.4042L105.166 46.3604L102.832 47.7053L103.497 48.8538L102.448 49.4612L103.771 51.7603L104.159 51.535L103.221 49.9051L103.883 49.5252L105.166 51.7559L106.45 51.0072L107.114 52.1578L106.176 52.6989L106.56 53.3659L107.885 52.6017L106.841 50.7863Z" fill="#CCA7CF"/>
<path d="M100.696 47.2411L101.359 46.8569L99.0266 42.813L96.6899 44.1602L97.3525 45.3109L96.3101 45.9182L97.6374 48.2129L98.0194 47.9899L97.083 46.3599L97.7456 45.9823L99.0266 48.2063L100.314 47.4642L100.975 48.6082L100.034 49.1537L100.416 49.8207L101.743 49.0566L100.696 47.2411Z" fill="#CCA7CF"/>
<path d="M156.619 60.9017L155.682 59.2828L156.341 58.9007L155.954 58.2338L155.298 58.6114L154.284 56.8578L153.262 57.4475L152.604 56.3013L152.215 56.5243L152.878 57.6683L151.943 58.2095L153.213 60.4025V60.3981V62.3726L155.351 63.6072V61.6327H155.349L156.619 60.9017Z" fill="#9FB366"/>
<path d="M150.484 57.3609L149.549 55.7398L150.203 55.3622L149.819 54.6952L149.161 55.0729L148.147 53.317L147.131 53.9068L146.468 52.7583L146.08 52.9814L146.742 54.1276L145.812 54.6598L147.078 56.8574V56.8552V58.8296L149.216 60.0686V58.0942V58.0897L150.484 57.3609Z" fill="#9FB366"/>
<path d="M144.35 53.8187L143.409 52.1954L144.072 51.8199L143.683 51.1507L143.027 51.5284L142.014 49.7748L140.995 50.3623L140.331 49.2183L139.944 49.4369L140.607 50.5853L139.679 51.122L140.945 53.3173H140.94V55.2896L143.085 56.5241V54.5497H143.08L144.35 53.8187Z" fill="#9FB366"/>
<path d="M138.213 50.2784L137.274 48.6618L137.93 48.2797L137.55 47.6083L136.896 47.9859L135.878 46.2323L134.86 46.8242L134.193 45.6758L133.809 45.8988L134.474 47.0451L133.542 47.584L134.814 49.7749V51.7515L136.952 52.9839V51.0116L136.945 51.0072L138.213 50.2784Z" fill="#9FB366"/>
<path d="M132.082 46.7359L131.146 45.1126L131.799 44.7372L131.415 44.0724L130.757 44.4456L129.748 42.6921L128.725 43.2795L128.065 42.1333L127.678 42.3564L128.343 43.5026L127.409 44.0393L128.679 46.2324V48.2068L130.816 49.437V47.4692H130.81L132.082 46.7359Z" fill="#9FB366"/>
<path d="M119.807 39.6505L118.875 38.0316L119.531 37.6495L119.147 36.9847L118.491 37.3646L117.473 35.6044L116.454 36.1963L115.796 35.0479L115.41 35.2753L116.07 36.4194L115.143 36.9538L116.404 39.1469V41.1236L118.548 42.3559V40.3859L119.807 39.6505Z" fill="#9FB366"/>
<path d="M113.674 36.1104L112.74 34.4916L113.398 34.1095L113.011 33.4447L112.353 33.8202L111.342 32.0644L110.323 32.6563L109.661 31.5078L109.272 31.7287L109.935 32.8749L109.009 33.416L110.273 35.6047H110.268V37.5791L112.413 38.8159V36.8437L112.408 36.8415L113.674 36.1104Z" fill="#9FB366"/>
<path d="M107.542 32.5701L106.608 30.9469L107.266 30.5714L106.878 29.9022L106.224 30.2799L105.206 28.5263L104.185 29.1138L103.525 27.9653L103.141 28.1884L103.799 29.3368L102.874 29.8713L104.137 32.0644V34.0388L106.277 35.2756V33.2968H106.272L107.542 32.5701Z" fill="#9FB366"/>
<path d="M101.408 29.0275L100.471 27.4086L101.127 27.0287L100.743 26.3617L100.089 26.7372L99.0732 24.9836L98.0573 25.5711L97.3925 24.4204L97.0082 24.6457L97.6685 25.7919L96.7388 26.3286L98.002 28.5261V28.5239V30.4984L100.142 31.7285V29.7607L100.138 29.7563L101.408 29.0275Z" fill="#9FB366"/>
<path d="M129.509 68.1076L128.367 64.0594L131.139 66.9503L132.318 63.103L133.502 68.81L140.547 67.169L135.576 71.7804L139.368 74.8636L135.85 74.7819L136.632 78.8964L133.566 76.1556L132.526 79.4905L131.212 74.5566L127.574 75.0668L128.926 71.1113L124.334 66.7383L129.509 68.1076Z" fill="#FBE979"/>
<path d="M130.673 65.8794L128.343 67.2244V71.0275L130.673 75.0626L133.964 76.9641L136.296 75.6191V71.816L133.964 67.7788L130.673 65.8794Z" fill="#C84030"/>
<path d="M131.139 67.4473L129.467 68.4102V71.1377L131.139 74.0332L133.502 75.398L135.172 74.4329V71.7031L133.502 68.81L131.139 67.4473Z" fill="#FF9F3D"/>
<path d="M131.65 69.1611L130.698 69.711V71.2614L131.65 72.9068L132.99 73.682L133.942 73.1321V71.5839L132.99 69.9385L131.65 69.1611Z" fill="#FBE979"/>
<path d="M157.845 66.8268C157.673 64.0684 155.833 60.8792 153.529 59.3509V55.4904L152.836 55.0884V58.9489C150.53 57.8182 148.688 58.8805 148.518 61.4424L145.174 59.5099V60.3116L148.518 62.2419C148.688 65.0026 150.53 68.1917 152.836 69.7178V73.5784L153.529 73.9803V70.1198C155.833 71.2528 157.675 70.1883 157.845 67.6263L161.189 69.5588V68.7549L157.845 66.8268ZM152.834 68.9647C150.89 67.6506 149.34 64.965 149.172 62.6218L152.834 64.7375V68.9647ZM152.834 63.9336L149.172 61.8201C149.34 59.6733 150.89 58.7789 152.834 59.7065V63.9336ZM153.529 60.1084C155.473 61.4225 157.023 64.1081 157.191 66.4492L153.529 64.3356V60.1084ZM153.529 69.3667V65.1373L157.191 67.2531C157.023 69.3998 155.473 70.2943 153.529 69.3667Z" fill="white"/>
<path d="M127.002 23.3486V24.9498L131.863 27.7547L132.163 25.9901L127.002 23.3486Z" fill="#211A1A"/>
<path d="M129.361 20.8599L127.98 21.6616L132.912 24.8551L134.224 23.6669L129.361 20.8599Z" fill="#574943"/>
<path d="M127.98 21.6616L127.002 23.349L131.863 26.1604L132.457 25.6525L132.835 24.4643L127.98 21.6616Z" fill="#362C29"/>
<path d="M135.2 25.827L134.224 27.5231L132.835 28.3204L131.863 27.755V26.1605L132.835 24.4643L134.224 23.667L135.2 24.2324V25.827Z" fill="#0A0808"/>
<path d="M130.538 25.5933V26.7726L130.023 27.0708L129.809 25.7655L130.538 25.5933Z" fill="#0A0808"/>
<path d="M128.793 23.749L129.82 24.3409L129.243 24.924L128.283 24.0494L128.793 23.749Z" fill="#574943"/>
<path d="M129.82 24.3408L130.537 25.5931L130.023 25.889L129.588 25.5158L129.303 24.6368L129.82 24.3408Z" fill="#211A1A"/>
<path d="M127.558 25.6461L128.283 26.9005L129.303 27.4902L130.023 27.0706V25.889L129.303 24.6368L128.283 24.0493L127.558 24.4645V25.6461Z" fill="#362C29"/>
<path d="M129.239 26.6754L129.091 26.7682L128.501 26.4214L128.066 25.697V25.008L128.22 24.9307V25.6065L128.647 26.3331L129.239 26.6754Z" fill="#0A0808"/>
<path d="M129.51 25.836V26.5251L129.239 26.6753L128.647 26.333L128.221 25.6064V24.9217L128.501 24.7671L129.091 25.1138L129.51 25.836Z" fill="#8CCCCB"/>
<path d="M132.755 26.6748V28.2738L141.567 33.3557L141.867 31.5955L132.755 26.6748Z" fill="#211A1A"/>
<path d="M135.118 24.1836L133.733 24.9809L142.616 30.4537L143.925 29.2699L135.118 24.1836Z" fill="#574943"/>
<path d="M133.733 24.981L132.755 26.6749L141.567 31.759L142.161 31.2554L142.539 30.0695L133.733 24.981Z" fill="#362C29"/>
<path d="M144.907 31.4273L143.926 33.1257L142.539 33.923L141.567 33.3554V31.7586L142.539 30.0691L143.926 29.2695L144.907 29.8327V31.4273Z" fill="#0A0808"/>
<path d="M41.6528 78.0435L43.4727 78.6244L47.6004 76.1397L42.6599 73.2974L41.6528 78.0435Z" fill="#303033"/>
<path opacity="0.3" d="M63.2194 204.43C64.2155 210.375 54.1688 217.014 40.7805 219.256C27.3923 221.5 15.7312 218.496 14.7351 212.548C13.739 206.601 23.7858 199.962 37.174 197.72C50.5644 195.481 62.2256 198.484 63.2194 204.43Z" fill="#5E5DCB"/>
<path d="M7.80008 101.213C5.95594 106.666 0.222517 114.071 0.0149131 116.85C-0.307535 121.174 4.70589 123.667 4.70589 123.667C4.70589 123.667 14.185 127.63 15.8304 128.301C17.478 128.975 18.0676 125.229 18.0676 125.229C18.0676 125.229 17.9086 122.799 15.6095 121.178C13.3126 119.557 10.0395 115.637 10.0395 115.637L13.8051 110.783L14.6753 107.662L12.8974 102.487C12.8974 102.487 8.83589 100.776 7.80008 101.213Z" fill="#F0C6B4"/>
<path d="M23.7678 205.225C22.5111 204.348 21.3958 203.668 21.3958 203.668C21.3958 203.668 18.5401 204.251 18.8559 207.597L23.7678 205.225Z" fill="#403531"/>
<path d="M26.8335 210.558C26.8754 209.779 26.9395 208.957 27.0632 208.114C26.5994 207.321 23.9557 205.45 23.7702 205.225C19.6005 205.205 18.8584 207.597 18.8584 207.597C19.0903 210.017 19.9119 211.658 20.718 213.253L26.8335 210.558Z" fill="#544540"/>
<path d="M20.7158 213.253C20.8152 213.445 21.332 214.467 21.5993 215.106C22.5688 217.407 24.7089 217.813 25.9236 216.68C26.8777 215.79 26.9351 211.49 26.8335 210.558C26.7319 209.626 22.2243 209.951 20.7158 213.253Z" fill="#403531"/>
<path d="M20.5479 201.967C20.5479 201.967 21.2458 205.276 20.952 206.74C20.3955 209.514 27.4231 210.241 27.2972 207.184C27.2552 206.15 27.6616 201.967 27.6616 201.967H20.5479Z" fill="#17435C"/>
<path d="M15.8306 141.289C15.8306 161.634 18.5161 172.065 17.9508 179.177C17.3854 186.291 18.2445 196.951 18.4322 199.158C18.62 201.369 21.1951 203.153 24.3732 203.478C26.3698 203.681 29.8681 202.303 29.8747 199.275C29.8791 196.245 29.899 185.399 29.8725 179.577C29.8438 173.755 32.9976 150.234 32.9976 150.234L24.413 143.551C24.413 143.551 15.8306 139.355 15.8306 141.289Z" fill="#29617D"/>
<path d="M55.2271 201.254C56.4175 201.278 57.7536 201.258 59.187 201.163C60.2095 201.092 61.517 203.756 61.2343 204.56C60.3178 207.184 59.3349 207.736 57.4621 208.491L55.2271 201.254Z" fill="#403531"/>
<path d="M57.4618 208.491C55.589 209.244 51.1034 209.608 45.5423 211.185L40.9463 204.818C41.0302 204.262 41.1119 203.668 41.1627 203.02C42.214 202.254 49.8114 200.796 49.8114 200.796C49.8114 200.796 51.9625 201.189 55.229 201.256C55.229 201.256 56.8611 200.781 57.9853 203.65C59.1536 206.631 57.4618 208.491 57.4618 208.491Z" fill="#544540"/>
<path d="M45.5423 211.185C43.3094 211.817 41.2223 211.391 40.7475 209.366C40.3963 207.846 40.6901 206.492 40.9441 204.818C40.9441 204.818 41.8871 204.357 43.9079 206.335C45.931 208.314 45.5423 211.185 45.5423 211.185Z" fill="#403531"/>
<path d="M40.7471 199.297C40.7471 199.297 41.1446 201.526 41.1601 203.019C41.1866 205.85 51.0499 204.448 50.2924 201.484C50.0384 200.483 50.023 197.281 50.023 197.281L40.7471 199.297Z" fill="#17435C"/>
<path d="M15.8306 140.183C15.8306 140.183 16.1243 149.673 21.4094 151.169C26.6922 152.662 32.9976 152.823 32.9976 152.823C32.9976 152.823 39.4289 169.274 38.9806 176.671C38.413 185.964 39.2235 192.541 39.4643 195.585C39.705 198.628 40.7276 200.976 45.9177 200.786C51.1056 200.598 50.7831 195.342 50.7831 195.342C50.7831 195.342 51.2668 178.045 51.6709 169.557C52.0751 161.07 48.9412 140.78 48.9412 140.78L42.0527 137.412L15.8306 140.183Z" fill="#29617D"/>
<path d="M24.4131 154.223L42.5343 151.124L22.9731 152.337L24.4131 154.223Z" fill="#17435C"/>
<path d="M20.117 94.7026C25.0222 97.5804 20.6846 103.181 20.6846 103.181C20.6846 103.181 19.2866 104.95 18.2972 106.125C16.2256 108.592 6.72879 103.638 7.85515 100.259C8.15993 99.3361 8.6657 98.2054 8.6657 98.2054C9.45195 96.443 13.699 90.937 20.117 94.7026Z" fill="#D8D1C7"/>
<path d="M25.9854 89.9761C25.6807 91.9528 23.5781 93.1675 23.5781 93.1675L24.2672 97.6398L34.8837 99.4177L37.6046 95.3495C37.6046 95.3495 37.5229 92.6418 38.7509 88.7437C37.5229 87.3899 31.6416 85.5679 31.6416 85.5679C31.6416 85.5679 28.0703 89.2915 25.9854 89.9761Z" fill="#F0C6B4"/>
<path d="M46.9777 99.2143C42.3728 98.7703 37.6046 95.3471 37.6046 95.3471C37.6046 95.3471 35.0978 97.1515 29.2783 95.9942C23.4588 94.8369 24.075 94.0286 23.5781 93.165C21.5175 94.0286 18.9313 94.0816 16.2633 96.3497C13.8582 98.3971 12.7076 103.43 13.8383 111.028C14.7129 116.909 16.0204 120.567 15.8592 126.307C15.6979 132.044 15.698 139.724 15.698 139.724C15.698 139.724 16.4643 145.464 30.3274 145.949C48.7997 146.594 48.9389 140.775 48.9389 140.775C48.9389 140.775 47.9494 133.824 47.8699 126.792C47.7882 119.758 49.8841 112.47 49.8841 112.47C49.8841 112.47 47.3774 101.111 46.9777 99.2143Z" fill="#E6E1DD"/>
<path d="M42.7773 72.3647C42.7773 72.3647 44.0803 77.3914 43.9456 78.8999C43.9014 79.3901 43.6011 79.4476 43.4597 79.7479C43.3206 80.0505 43.7446 81.6915 43.4597 82.9813C42.6116 86.8396 41.0767 89.152 40.4274 89.2271C37.3155 89.5893 35.6724 85.8524 35.6724 85.8524L38.4728 75.6268L42.7773 72.3647Z" fill="#F0C6B4"/>
<path d="M39.1927 68.5928C39.1927 68.5928 41.2643 68.2063 42.373 70.1013C43.8262 72.5925 42.5033 75.2008 42.1522 80.9276C42.0903 81.9214 40.6989 82.3919 40.3787 83.7347C39.058 89.2472 38.0067 90.4177 36.0124 91.6567C33.8745 92.9863 30.7582 93.4523 28.6712 92.2751C25.1551 90.2963 24.3071 86.9812 24.0222 85.0002C23.4766 81.1772 23.2138 77.9946 24.5478 74.6928C27.0147 68.5906 32.3484 66.6935 33.9584 66.6029C37.8742 66.3821 39.1927 68.5928 39.1927 68.5928Z" fill="#685750"/>
<path d="M39.1924 68.5928C39.1924 68.5928 33.0769 68.5111 29.6802 74.1275C33.8853 70.4105 39.1924 68.5928 39.1924 68.5928Z" fill="#544540"/>
<path d="M82.0889 86.9128C82.0889 86.9128 82.8861 85.4529 84.0302 85.3801C85.1742 85.305 85.3774 85.9035 85.3774 85.9035L84.8385 88.6134L82.0889 86.9128Z" fill="#F0C6B4"/>
<path d="M88.9024 84.4722L88.1714 84.8963L88.231 85.1613C88.2001 85.2916 88.1891 85.444 88.1891 85.6118C88.1891 86.2103 88.39 86.8287 88.6639 87.0871L88.7191 87.3654L89.4524 86.9436C89.6335 86.842 89.7594 86.5085 89.7594 86.0381C89.7594 85.3601 89.4987 84.6644 89.1829 84.4811C89.0791 84.4258 88.9864 84.4259 88.9024 84.4722Z" fill="#9C251F"/>
<path d="M87.8711 85.7974C87.8711 86.471 88.1317 87.1689 88.4498 87.3522C88.7678 87.5377 89.0284 87.1402 89.0284 86.4599C89.0284 85.7863 88.77 85.0884 88.4498 84.9051C88.1317 84.7196 87.8711 85.1215 87.8711 85.7974Z" fill="#FF3F4A"/>
<path d="M88.9333 95.3315L87.4425 95.5789C86.9522 95.5082 86.4089 95.5811 86.0268 95.802L86.0004 95.8174L83.7344 96.1929V96.84C83.7344 97.0608 83.8779 97.2795 84.1672 97.4474L84.5339 97.6594C85.1125 97.9951 86.0578 97.9951 86.6364 97.6594L88.496 96.5882C88.7853 96.4204 88.9311 96.1995 88.9311 95.9786L88.9333 95.3315Z" fill="#303033"/>
<path d="M86.6392 97.01C86.0605 97.3435 85.1153 97.3435 84.5366 97.01L84.17 96.7979C83.5892 96.4644 83.5892 95.9189 84.17 95.5832L86.0296 94.5099C86.6082 94.1764 87.5557 94.1764 88.1344 94.5099L88.501 94.7219C89.0796 95.0554 89.0796 95.6009 88.501 95.9366L86.6392 97.01Z" fill="#535359"/>
<path d="M84.4365 85.4881C83.9219 89.5783 84.4586 96.2923 84.4586 96.2923C84.5072 96.4359 84.611 96.5662 84.7877 96.6678C85.4016 97.0234 86.5368 96.8666 87.3938 96.4469C88.2816 96.0119 88.1182 95.3228 88.1182 95.3228C88.1182 95.3228 88.0099 88.9644 90.0793 83.6086C89.7812 83.1757 84.6529 84.8366 84.4365 85.4881Z" fill="black"/>
<path d="M91.4402 80.7637L88.8385 81.1943C87.9816 81.0706 87.0341 81.1987 86.3671 81.5852L86.3186 81.6118L82.3608 82.2655V84.5204C82.3608 84.9025 82.6148 85.289 83.1184 85.5783L83.7611 85.9493C84.7726 86.5346 86.4246 86.5346 87.4339 85.9493L90.6827 84.0743C91.1884 83.7827 91.4402 83.3985 91.4402 83.0142V80.7637Z" fill="#303033"/>
<path d="M87.4338 83.697C86.4223 84.2822 84.7725 84.2822 83.761 83.697L83.1183 83.3281C82.109 82.7451 82.109 81.791 83.1183 81.2057L86.3671 79.3307C87.3742 78.7498 89.0284 78.7498 90.0399 79.3307L90.6826 79.7017C91.6941 80.2847 91.6941 81.2389 90.6826 81.8219L87.4338 83.697Z" fill="#535359"/>
<path d="M80.3316 91.5462C80.3316 91.5462 81.0405 87.8844 82.0895 86.9127C83.0061 87.0761 84.2738 87.3985 84.2738 87.3985C84.2738 87.3985 85.1882 88.3681 86.8998 87.5355C88.6092 86.7006 89.6892 84.6533 89.6892 84.6533C89.6892 84.6533 91.3301 84.6533 91.4383 85.4616C91.5466 86.27 90.9149 86.8331 90.6852 87.5355C90.4688 91.4424 89.7576 92.8713 88.6644 93.7062C86.6524 95.2411 83.4898 96.2372 83.4898 96.2372L80.0952 94.5388L80.3316 91.5462Z" fill="#F0C6B4"/>
<path d="M54.6676 101.52C59.8334 103.081 63.175 104.106 65.1141 104.806C68.131 100.709 77.239 95.3204 80.4193 91.4422C81.2277 91.334 83.381 94.4591 83.4915 96.237C80.9693 100.784 77.4025 105.559 74.3834 108.415C71.3665 111.273 67.9874 113.422 66.6247 113.59C61.3971 114.237 51.4873 112.41 51.4873 112.41V106.8C51.4873 106.8 52.7374 101.897 54.6676 101.52Z" fill="#F0C6B4"/>
<path d="M43.0994 102.834C44.9524 97.4538 50.8647 99.3907 50.8647 99.3907C50.8647 99.3907 52.8767 100.411 54.2239 101.149C57.0509 102.695 54.0693 112.982 50.5312 112.545C49.5639 112.426 48.6054 112.337 48.6054 112.337C46.7215 111.915 40.6745 109.87 43.0994 102.834Z" fill="#D8D1C7"/>
<path d="M10.0397 115.637L4.94678 119.436C7.04932 120.867 10.0397 115.637 10.0397 115.637Z" fill="#C7A495"/>
<path d="M23.5888 80.6624C23.5888 80.6624 22.6921 82.5971 23.909 84.1586C24.2668 84.4921 31.4623 89.2161 43.4657 81.8263C43.4657 81.4619 43.4657 78.6482 43.4657 78.9751C30.2696 87.0407 23.5888 80.6624 23.5888 80.6624Z" fill="#7E58FF"/>
<path d="M43.4727 83.8448L47.6004 79.7965V76.1392L43.4727 78.6238V83.8448Z" fill="#121214"/>
<path d="M44.8027 80.9316L47.601 78.7495V77.4111L44.8027 79.5711V80.9316Z" fill="#939598"/>
<path d="M45.8608 79.6531L47.6012 78.2905V77.8311L45.8608 79.1716V79.6531Z" fill="#FA5C52"/>
<path d="M45.3285 77.5083L43.4733 78.6236L43.2436 78.8909L43.0117 78.3608L44.8029 76.8325L45.3285 77.5083Z" fill="#303033"/>
<path d="M43.0117 83.5823L43.4733 83.8452V78.6241L43.0117 78.3613V83.5823Z" fill="#303033"/>
<path d="M42.939 82.3875L43.2018 82.5421L43.4734 82.3853V79.8896L42.939 79.9029V82.3875Z" fill="black"/>
<path d="M42.939 79.9027L43.2018 80.0485L43.4734 79.8895L43.2128 79.7393L42.939 79.9027Z" fill="#303033"/>
<path d="M41.9019 77.6239L41.882 77.615C41.3652 77.3301 40.6606 77.3743 39.8788 77.8271C38.3063 78.7392 37.0254 80.9521 37.0254 82.7764V83.2557C37.0254 84.1656 37.3456 84.8061 37.8624 85.102L39.1655 85.8551L39.5652 85.1639C39.6977 85.1109 39.8347 85.0402 39.9804 84.9563C41.5551 84.0485 42.8339 81.829 42.8339 80.0091V79.5298C42.8339 79.3885 42.825 79.2516 42.8074 79.1191L43.2292 78.3947L41.9019 77.6239Z" fill="#362C29"/>
<path d="M41.2038 78.5908C39.6247 79.5007 38.3438 81.7115 38.3438 83.5358V84.0172C38.3438 85.8371 39.6247 86.577 41.2038 85.667C42.7807 84.7593 44.0573 82.5375 44.0573 80.7199V80.2384C44.0573 78.4163 42.7807 77.6765 41.2038 78.5908Z" fill="#0A0808"/>
<path d="M43.0615 80.095L42.8318 79.9625C42.4629 79.7505 41.9395 79.777 41.3719 80.1105C40.2257 80.7664 39.3003 82.3743 39.3003 83.6928C39.3003 84.3531 39.5344 84.8169 39.9076 85.0378L40.1108 85.157L40.1263 85.1305C40.4664 85.2299 40.9037 85.1615 41.3697 84.892C42.5115 84.2295 43.4391 82.6282 43.4391 81.3053C43.4391 80.7775 43.2934 80.3755 43.0416 80.1282L43.0615 80.095Z" fill="#FA5C52"/>
<path d="M41.573 80.2253C40.429 80.8835 39.5059 82.4891 39.5059 83.8121C39.5059 85.1306 40.4268 85.6672 41.573 85.0047C42.7171 84.3465 43.6425 82.7387 43.6425 81.4224C43.6425 80.0995 42.7171 79.565 41.573 80.2253Z" fill="#8A1C14"/>
<path d="M30.1017 68.0584C30.1017 68.0584 28.8318 68.4913 28.3481 69.2577C28.8407 69.0589 29.4325 68.9419 29.4325 68.9419C33.3483 68.2462 39.5102 74.1585 39.5102 78.7147L41.3057 77.6789C41.3057 72.7229 33.8982 65.8565 30.1017 68.0584Z" fill="#7E58FF"/>
</svg>
