<svg width="220" height="220" viewBox="0 0 220 220" fill="none" xmlns="http://www.w3.org/2000/svg">
<path d="M35.1118 108.398C-6.2482 132.273 -6.2482 170.988 35.1118 194.867C76.4718 218.746 143.523 218.746 184.883 194.867C226.243 170.988 226.243 132.273 184.883 108.398C143.523 84.5238 76.4718 84.5194 35.1118 108.398Z" fill="#5E5DCB"/>
<path d="M121.185 152.979V26.29C121.185 23.0296 119.565 22.132 118.127 21.3004C116.688 20.4688 114.321 19.9804 112.279 21.1464L59.9631 51.3524C57.9215 52.5316 56.2627 55.4004 56.2627 57.7588V184.452C56.2627 186.811 57.7411 188.201 59.1799 189.033C60.6187 189.864 63.1399 190.771 65.1683 189.592L117.48 159.39C118.637 158.777 119.599 157.851 120.254 156.717C120.909 155.583 121.232 154.288 121.185 152.979Z" fill="#37474F"/>
<path d="M117.858 154.181L64.0595 185.24V58.0009L57.3451 54.1201C56.6796 55.2224 56.307 56.4765 56.2627 57.7633V184.453C56.2627 186.811 57.7411 188.201 59.1799 189.033C60.6187 189.865 63.1399 190.771 65.1683 189.592L117.48 159.39C118.932 158.607 120.065 157.342 120.683 155.813L120.476 155.694L117.858 154.181Z" fill="#263238"/>
<path d="M117.387 25.1943L64.9217 55.4883C64.167 55.9811 63.5388 56.6444 63.0878 57.4248C62.6368 58.2052 62.3758 59.0808 62.3257 59.9807V185.645C62.3257 188.175 64.1253 189.213 66.3165 187.941L117.387 158.462C118.243 157.901 118.955 157.148 119.467 156.262C119.978 155.377 120.274 154.383 120.331 153.362V26.8927C120.331 25.0227 119.006 24.2615 117.387 25.1943Z" fill="#455A64"/>
<path d="M117.77 32.8989V150.379C117.716 151.348 117.435 152.291 116.95 153.132C116.465 153.973 115.789 154.687 114.976 155.219L67.6763 182.525C66.1363 183.405 64.8823 182.701 64.8823 180.915V62.5769C64.9714 60.9733 65.6741 59.4655 66.8447 58.3661C66.9327 58.2869 67.0207 58.2033 67.1087 58.1285C67.2898 57.9866 67.4794 57.8558 67.6763 57.7369L80.9819 50.0589C80.9819 50.0589 81.3691 49.8301 81.8619 49.5573C82.3547 49.2845 82.7419 49.5001 82.7419 50.0589C82.7419 50.6177 83.1555 50.8201 83.6703 50.4989L99.1715 41.5493C99.4277 41.3839 99.6424 41.1617 99.7988 40.9C99.9552 40.6383 100.049 40.344 100.074 40.0401C100.09 39.7559 100.168 39.4787 100.302 39.2279C100.437 38.9771 100.625 38.7587 100.852 38.5881L100.94 38.5309L113.96 31.0201L114.237 30.8573C116.182 29.7353 117.77 30.6505 117.77 32.8989Z" fill="black"/>
<path d="M110.915 152.073C111.728 151.542 112.405 150.827 112.89 149.986C113.376 149.146 113.656 148.202 113.709 147.233V31.1606L100.949 38.5306L100.861 38.5878C100.633 38.7585 100.446 38.9769 100.311 39.2277C100.177 39.4785 100.099 39.7557 100.082 40.0398C100.058 40.35 99.962 40.6501 99.8007 40.9161C99.6394 41.1821 99.4179 41.4064 99.154 41.571L83.644 50.5206C83.1292 50.8198 82.7156 50.6086 82.7156 50.0806C82.7156 49.5526 82.3284 49.3018 81.8356 49.579C81.3428 49.8562 80.9556 50.0806 80.9556 50.0806L67.65 57.7586C67.453 57.8776 67.2635 58.0084 67.0824 58.1502C66.9944 58.225 66.9064 58.3086 66.8184 58.3878C65.6477 59.4873 64.945 60.9951 64.856 62.5986V178.64L110.915 152.073Z" fill="#263238"/>
<path d="M85.998 45.7953L93.104 41.6901C93.544 41.4481 93.874 41.6197 93.874 42.0817C93.8545 42.3392 93.7746 42.5885 93.6408 42.8094C93.507 43.0303 93.3232 43.2166 93.104 43.3533L85.998 47.4585C85.558 47.7049 85.228 47.5289 85.228 47.0713C85.2466 46.8129 85.326 46.5626 85.4598 46.3408C85.5937 46.1191 85.7781 45.9321 85.998 45.7953Z" fill="#263238"/>
<path d="M96.7516 39.2482C97.2268 38.971 97.6316 39.1954 97.6316 39.7498C97.6128 40.0508 97.5233 40.3431 97.3704 40.603C97.2175 40.8629 97.0055 41.0831 96.7516 41.2458C96.272 41.523 95.8716 41.2986 95.8716 40.7486C95.889 40.4467 95.9778 40.1532 96.1308 39.8924C96.2838 39.6315 96.4966 39.4107 96.7516 39.2482Z" fill="#263238"/>
<path d="M61.116 72.9609C61.099 72.47 60.9662 71.9902 60.7284 71.5604C60.4905 71.1307 60.1545 70.7632 59.7476 70.4881C59.6134 70.3909 59.4552 70.3321 59.29 70.3182C59.1249 70.3042 58.959 70.3356 58.8104 70.4089C58.6388 70.5145 57.9656 70.8885 57.7852 70.9941C57.6334 71.1038 57.513 71.2512 57.4358 71.4218C57.3586 71.5923 57.3274 71.7801 57.3452 71.9665V82.2801C57.3639 82.7706 57.4975 83.2499 57.7352 83.6793C57.9728 84.1088 58.308 84.4765 58.7136 84.7529C58.8434 84.846 58.9952 84.9039 59.154 84.9209C59.3129 84.9378 59.4734 84.9133 59.62 84.8497L60.676 84.2469C60.8278 84.1373 60.9482 83.9898 61.0254 83.8193C61.1026 83.6487 61.1338 83.4609 61.116 83.2745V72.9609Z" fill="#455A64"/>
<path d="M60.0996 73.5458V83.8682C60.0996 84.7966 59.488 85.1882 58.7312 84.7482C58.3256 84.4719 57.9904 84.1041 57.7528 83.6747C57.5151 83.2452 57.3815 82.7659 57.3628 82.2755V71.9662C57.3628 71.0378 57.9788 70.6462 58.7312 71.0862C59.1358 71.3606 59.4704 71.726 59.7081 72.1532C59.9458 72.5804 60.0799 73.0574 60.0996 73.5458Z" fill="#37474F"/>
<path d="M61.1158 91.0273C61.0981 90.5366 60.965 90.057 60.7273 89.6273C60.4895 89.1977 60.1538 88.8301 59.7474 88.5545C59.6132 88.4573 59.455 88.3985 59.2898 88.3846C59.1247 88.3706 58.9589 88.402 58.8102 88.4753C58.6386 88.5809 57.9654 88.9549 57.785 89.0649C57.6336 89.1739 57.5134 89.3205 57.4362 89.4903C57.359 89.6602 57.3276 89.8472 57.345 90.0329V100.355C57.3631 100.846 57.4964 101.325 57.7341 101.755C57.9718 102.185 58.3073 102.552 58.7134 102.828C58.8433 102.921 58.995 102.979 59.1539 102.996C59.3127 103.013 59.4733 102.989 59.6198 102.925C59.8046 102.828 60.4998 102.428 60.6758 102.322C60.8279 102.213 60.9486 102.065 61.0258 101.895C61.1031 101.724 61.1341 101.536 61.1158 101.35V91.0273Z" fill="#455A64"/>
<path d="M60.0996 91.6123V101.935C60.0996 102.867 59.488 103.255 58.7312 102.815C58.3251 102.539 57.9896 102.171 57.7518 101.742C57.5141 101.312 57.3808 100.832 57.3628 100.342V90.0327C57.3628 89.1043 57.9788 88.7127 58.7312 89.1527C59.1358 89.427 59.4704 89.7924 59.7081 90.2196C59.9458 90.6468 60.0799 91.1238 60.0996 91.6123Z" fill="#37474F"/>
<path d="M125.603 35.693C124.951 35.319 124.058 35.3718 123.073 35.9394L122.791 36.1066L109.56 43.7318L109.472 43.7846C109.241 43.9586 109.05 44.1811 108.913 44.4364C108.776 44.6917 108.697 44.9738 108.68 45.263C108.656 45.5777 108.559 45.8823 108.395 46.1522C108.232 46.4221 108.007 46.6496 107.739 46.8162L91.9997 55.9022C91.9881 55.9045 91.9761 55.9045 91.9645 55.9022C91.9733 55.7981 91.9543 55.6936 91.9095 55.5992C91.8647 55.5049 91.7956 55.4242 91.7093 55.3654L90.8029 54.8418C90.7022 54.7966 90.5914 54.7789 90.4816 54.7905C90.3719 54.8021 90.2672 54.8426 90.1781 54.9078L89.3201 55.4402L75.8121 63.2282C75.6106 63.346 75.418 63.4783 75.2357 63.6242C75.1433 63.699 75.0597 63.7826 74.9673 63.8662C73.7778 64.9825 73.064 66.5141 72.9741 68.143V188.263C72.9741 189.169 73.2909 189.799 73.8013 190.098L74.7209 190.626C75.2313 190.921 75.9397 190.877 76.7229 190.423L124.736 162.703C125.561 162.164 126.248 161.437 126.74 160.582C127.233 159.728 127.517 158.769 127.569 157.784V38.5442C127.569 37.4046 127.169 36.6038 126.522 36.2298L125.603 35.693Z" fill="#7563FF"/>
<path opacity="0.3" d="M77.0001 190.027V190.265L76.7273 190.419C75.9485 190.859 75.2401 190.916 74.7297 190.621L73.8145 190.093C73.2997 189.794 72.9873 189.161 72.9873 188.259V68.1385C73.0302 67.0578 73.368 66.0094 73.9641 65.1069L75.0465 65.7317C74.4677 66.6032 74.1389 67.6168 74.0961 68.6621V188.782C74.0714 189.269 74.2091 189.75 74.4877 190.151C74.6049 190.294 74.7537 190.408 74.9223 190.484C75.091 190.561 75.2751 190.597 75.4601 190.591C75.8752 190.571 76.2783 190.446 76.6305 190.225L77.0001 190.027Z" fill="black"/>
<path opacity="0.3" d="M110.141 44.8802C109.942 45.1469 109.827 45.4672 109.811 45.7998C109.794 46.1764 109.672 46.5407 109.459 46.8514L108.368 46.2002C108.569 45.9228 108.686 45.5924 108.702 45.2498C108.719 44.8827 108.841 44.5282 109.054 44.229L110.141 44.8802Z" fill="black"/>
<path d="M75.4515 190.608C75.2665 190.614 75.0826 190.578 74.914 190.501C74.7453 190.425 74.5965 190.311 74.4791 190.168C74.1996 189.767 74.0618 189.284 74.0875 188.795V68.6751C74.179 67.1037 74.8686 65.6269 76.0147 64.5479L76.0983 64.4687L76.2743 64.3103C76.4485 64.1728 76.6323 64.0478 76.8243 63.9363L90.3279 56.1395L91.2079 55.6335C91.2953 55.5745 91.3974 55.541 91.5027 55.5367C91.7579 55.5367 91.7843 55.8359 91.7843 55.9767C91.772 56.077 91.7808 56.1787 91.8101 56.2754C91.8393 56.3721 91.8885 56.4616 91.9543 56.5383C92.0202 56.6149 92.1013 56.6769 92.1925 56.7204C92.2837 56.7638 92.3829 56.7878 92.4839 56.7907C92.6775 56.7852 92.8661 56.7275 93.0295 56.6235L108.768 47.5199C109.068 47.3359 109.318 47.0829 109.5 46.782C109.681 46.4812 109.788 46.1413 109.811 45.7907C109.824 45.5325 109.894 45.2804 110.016 45.0522C110.138 44.8241 110.308 44.6255 110.515 44.4707L110.59 44.4267L123.79 36.8015L124.076 36.6343C124.527 36.3625 125.041 36.211 125.568 36.1943C126.676 36.1943 127.363 37.0743 127.363 38.5527V157.793C127.312 158.743 127.037 159.668 126.562 160.492C126.086 161.316 125.423 162.016 124.626 162.536L76.6131 190.256C76.2633 190.473 75.8628 190.594 75.4515 190.608Z" fill="#FAFAFA"/>
<path d="M125.576 36.1812C125.05 36.1978 124.536 36.3493 124.085 36.6212L123.799 36.7884L110.599 44.4136L110.524 44.4576C110.317 44.6124 110.146 44.8109 110.025 45.039C109.903 45.2672 109.833 45.5193 109.82 45.7776C109.798 46.1312 109.691 46.4743 109.508 46.7777C109.325 47.081 109.071 47.3357 108.768 47.52L93.0294 56.6059C92.8659 56.7099 92.6774 56.7677 92.4838 56.7731C92.3826 56.7709 92.283 56.7474 92.1915 56.7041C92.1 56.6609 92.0186 56.5988 91.9526 56.5221C91.8866 56.4453 91.8375 56.3555 91.8085 56.2585C91.7795 56.1615 91.7712 56.0595 91.7842 55.9592C91.7842 55.8316 91.7578 55.5192 91.5026 55.5192C91.3976 55.5255 91.2961 55.5589 91.2078 55.616L90.3278 56.122L76.8242 63.9275C76.633 64.038 76.4506 64.163 76.2786 64.3015C76.217 64.35 76.1598 64.4072 76.0982 64.46L76.0146 64.5391C74.8685 65.6181 74.1789 67.0949 74.0874 68.6664V81.3516L127.371 50.6V38.5395C127.371 37.0831 126.685 36.1812 125.576 36.1812Z" fill="#7563FF"/>
<g opacity="0.3">
<path d="M125.576 36.1812C125.05 36.1978 124.536 36.3493 124.085 36.6212L123.799 36.7884L110.599 44.4136L110.524 44.4576C110.317 44.6124 110.146 44.8109 110.025 45.039C109.903 45.2672 109.833 45.5193 109.82 45.7776C109.798 46.1312 109.691 46.4743 109.508 46.7777C109.325 47.081 109.071 47.3357 108.768 47.52L93.0294 56.6059C92.8659 56.7099 92.6774 56.7677 92.4838 56.7731C92.3826 56.7709 92.283 56.7474 92.1915 56.7041C92.1 56.6609 92.0186 56.5988 91.9526 56.5221C91.8866 56.4453 91.8375 56.3555 91.8085 56.2585C91.7795 56.1615 91.7712 56.0595 91.7842 55.9592C91.7842 55.8316 91.7578 55.5192 91.5026 55.5192C91.3976 55.5255 91.2961 55.5589 91.2078 55.616L90.3278 56.122L76.8242 63.9275C76.633 64.038 76.4506 64.163 76.2786 64.3015C76.217 64.35 76.1598 64.4072 76.0982 64.46L76.0146 64.5391C74.8685 65.6181 74.1789 67.0949 74.0874 68.6664V81.3516L127.371 50.6V38.5395C127.371 37.0831 126.685 36.1812 125.576 36.1812Z" fill="white"/>
</g>
<path d="M77.9285 68.7063C77.9347 68.7324 77.9347 68.7595 77.9285 68.7855C77.9285 68.8119 77.8977 68.8339 77.8757 68.8427L77.7701 68.9043C77.7467 68.9043 77.7291 68.9043 77.7173 68.9043C77.7097 68.898 77.7037 68.8898 77.6998 68.8806C77.696 68.8714 77.6945 68.8614 77.6953 68.8515V66.9155L77.2553 67.5931C77.251 67.6053 77.2439 67.6163 77.2348 67.6254C77.2257 67.6345 77.2147 67.6415 77.2025 67.6459C77.2025 67.6459 77.1673 67.6459 77.1585 67.6459L77.0925 67.5755C77.0879 67.5659 77.0854 67.5554 77.0854 67.5447C77.0854 67.534 77.0879 67.5235 77.0925 67.5139C77.0939 67.4856 77.103 67.4582 77.1189 67.4347L77.6821 66.5327L77.7261 66.4799L77.7701 66.4535L77.8757 66.3919C77.883 66.3854 77.8924 66.3818 77.9021 66.3818C77.9119 66.3818 77.9213 66.3854 77.9285 66.3919C77.9285 66.3919 77.9285 66.4183 77.9285 66.4447V68.7063Z" fill="#FAFAFA"/>
<path d="M79.0417 68.0679C79.0476 68.094 79.0476 68.1211 79.0417 68.1471C79.0315 68.1708 79.0126 68.1897 78.9889 68.1999L78.8833 68.2659C78.8752 68.2702 78.8661 68.2724 78.8569 68.2724C78.8477 68.2724 78.8387 68.2702 78.8305 68.2659C78.8305 68.2659 78.8305 68.2351 78.8305 68.2087V66.2727L78.3905 66.9547C78.3791 66.9765 78.3604 66.9937 78.3377 67.0031C78.3306 67.0079 78.3221 67.0104 78.3135 67.0104C78.3049 67.0104 78.2965 67.0079 78.2893 67.0031L78.2233 66.9283C78.2159 66.9085 78.2159 66.8866 78.2233 66.8667C78.2282 66.8392 78.2371 66.8125 78.2497 66.7875L78.8173 65.8855C78.8271 65.8669 78.8406 65.8504 78.8569 65.8371L78.9009 65.8107L79.0065 65.7447C79.0147 65.7405 79.0237 65.7383 79.0329 65.7383C79.0421 65.7383 79.0512 65.7405 79.0593 65.7447C79.0669 65.7631 79.0669 65.7836 79.0593 65.8019L79.0417 68.0679Z" fill="#FAFAFA"/>
<path d="M79.6622 66.1452C79.6696 66.1409 79.6779 66.1387 79.6864 66.1387C79.6949 66.1387 79.7033 66.1409 79.7106 66.1452C79.7106 66.1452 79.7326 66.176 79.7326 66.2024V66.44C79.7336 66.468 79.7259 66.4956 79.7106 66.5192C79.6993 66.5418 79.6827 66.5614 79.6622 66.5764L79.4862 66.6776C79.479 66.684 79.4696 66.6876 79.4598 66.6876C79.4501 66.6876 79.4407 66.684 79.4334 66.6776C79.4334 66.6776 79.4334 66.6512 79.4334 66.6248V66.3872C79.4272 66.3611 79.4272 66.334 79.4334 66.308C79.4451 66.2853 79.4636 66.2669 79.4862 66.2552L79.6622 66.1452ZM79.6622 67.3772C79.6688 67.371 79.6774 67.3675 79.6864 67.3675C79.6954 67.3675 79.7041 67.371 79.7106 67.3772C79.7106 67.3772 79.7326 67.4036 79.7326 67.43V67.6676C79.7331 67.6955 79.7254 67.723 79.7106 67.7468C79.6993 67.7694 79.6827 67.789 79.6622 67.804L79.4862 67.9052C79.4781 67.9094 79.469 67.9116 79.4598 67.9116C79.4506 67.9116 79.4416 67.9094 79.4334 67.9052C79.4258 67.8868 79.4258 67.8663 79.4334 67.848V67.6148C79.4272 67.5887 79.4272 67.5616 79.4334 67.5356C79.4463 67.5126 79.4644 67.493 79.4862 67.4784L79.6622 67.3772Z" fill="#FAFAFA"/>
<path d="M80.2739 66.8097C80.2796 66.8502 80.2966 66.8882 80.3231 66.9194C80.3496 66.9506 80.3844 66.9735 80.4235 66.9857C80.5176 67.0014 80.6141 66.9793 80.6919 66.9241C80.7517 66.8909 80.8065 66.8494 80.8547 66.8009C80.9062 66.7488 80.952 66.6912 80.9911 66.6293C81.0276 66.5621 81.057 66.4913 81.0791 66.4181C81.102 66.3394 81.1139 66.258 81.1143 66.1761C81.1164 66.1055 81.1044 66.0352 81.0791 65.9693C81.0633 65.9247 81.0321 65.8872 80.9911 65.8637C80.949 65.8425 80.9013 65.8348 80.8547 65.8417C80.7969 65.8537 80.7417 65.876 80.6919 65.9077C80.6335 65.9392 80.5802 65.9793 80.5335 66.0265C80.4982 66.0651 80.4659 66.1063 80.4367 66.1497L80.3663 66.2509C80.3499 66.2805 80.3255 66.3049 80.2959 66.3213L80.1639 66.4005C80.1639 66.4005 80.1331 66.4005 80.1243 66.4005C80.1211 66.3936 80.1195 66.3861 80.1195 66.3785C80.1195 66.3709 80.1211 66.3634 80.1243 66.3565L80.2035 65.1333C80.1978 65.1087 80.1978 65.0831 80.2035 65.0585C80.2035 65.0277 80.2343 65.0101 80.2563 65.0013L81.1847 64.4601C81.1928 64.4558 81.2019 64.4536 81.2111 64.4536C81.2203 64.4536 81.2293 64.4558 81.2375 64.4601C81.2451 64.4784 81.2451 64.499 81.2375 64.5173V64.6405C81.2437 64.6665 81.2437 64.6936 81.2375 64.7197C81.2271 64.7443 81.2084 64.7646 81.1847 64.7769L80.4191 65.2169L80.3751 65.8505C80.4126 65.8046 80.4538 65.7619 80.4983 65.7229C80.558 65.6709 80.6228 65.6251 80.6919 65.5865C80.7713 65.5384 80.8596 65.507 80.9515 65.4941C81.0258 65.4791 81.103 65.4933 81.1671 65.5337C81.2328 65.5756 81.2837 65.6372 81.3123 65.7097C81.3471 65.8116 81.3635 65.9188 81.3607 66.0265C81.3604 66.1527 81.3441 66.2783 81.3123 66.4005C81.2765 66.5198 81.2278 66.6349 81.1671 66.7437C81.1068 66.8485 81.0344 66.946 80.9515 67.0341C80.8754 67.1139 80.7879 67.1821 80.6919 67.2365C80.6151 67.2843 80.5301 67.3171 80.4411 67.3333C80.3722 67.3536 80.2988 67.3536 80.2299 67.3333C80.1675 67.3099 80.1159 67.2645 80.0847 67.2057C80.0428 67.1322 80.0229 67.0482 80.0275 66.9637C80.0221 66.9435 80.0221 66.9222 80.0275 66.9021C80.0343 66.8816 80.0484 66.8644 80.0671 66.8537L80.1859 66.7833C80.1928 66.7801 80.2003 66.7785 80.2079 66.7785C80.2155 66.7785 80.223 66.7801 80.2299 66.7833C80.2387 66.7843 80.2472 66.7871 80.2548 66.7917C80.2624 66.7962 80.2689 66.8024 80.2739 66.8097Z" fill="#FAFAFA"/>
<path d="M81.8402 65.9516C81.8466 65.9842 81.8585 66.0154 81.8754 66.044C81.8909 66.0722 81.9158 66.094 81.9458 66.1056C81.9879 66.1145 82.0313 66.1145 82.0734 66.1056C82.1465 66.0792 82.216 66.0437 82.2802 66C82.3363 65.9687 82.3881 65.9303 82.4342 65.8856C82.4848 65.8398 82.5278 65.7863 82.5618 65.7272C82.6007 65.669 82.6304 65.6052 82.6498 65.538C82.6729 65.4684 82.6848 65.3957 82.685 65.3224C82.6862 65.2623 82.6757 65.2025 82.6542 65.1464C82.6454 65.1285 82.6331 65.1127 82.618 65.0998C82.6028 65.087 82.5852 65.0774 82.5662 65.0716C82.5247 65.0584 82.4801 65.0584 82.4386 65.0716C82.3834 65.0892 82.3303 65.1128 82.2802 65.142L82.0602 65.2696C82.0529 65.2761 82.0435 65.2797 82.0338 65.2797C82.0241 65.2797 82.0147 65.2761 82.0074 65.2696C82.0074 65.2696 82.0074 65.2432 82.0074 65.2168V65.12C82.0032 65.0982 82.0032 65.0758 82.0074 65.054L82.0338 64.9924L82.509 64.0332L81.7522 64.4732C81.744 64.4774 81.735 64.4796 81.7258 64.4796C81.7166 64.4796 81.7075 64.4774 81.6994 64.4732C81.6917 64.4668 81.6857 64.4587 81.6819 64.4495C81.6781 64.4403 81.6765 64.4303 81.6774 64.4204V64.2928C81.6785 64.265 81.6861 64.2379 81.6994 64.2136C81.7108 64.1896 81.7293 64.1697 81.7522 64.1564L82.7906 63.558C82.7971 63.5518 82.8058 63.5483 82.8148 63.5483C82.8238 63.5483 82.8325 63.5518 82.839 63.558C82.8429 63.5662 82.8449 63.5752 82.8449 63.5844C82.8449 63.5935 82.8429 63.6025 82.839 63.6108V63.7384C82.8432 63.7602 82.8432 63.7826 82.839 63.8044C82.8291 63.8316 82.8174 63.858 82.8038 63.8836L82.3374 64.8252C82.4119 64.7819 82.4941 64.7535 82.5794 64.7416C82.6432 64.7318 82.7085 64.7442 82.7642 64.7768C82.8206 64.8137 82.8638 64.8676 82.8874 64.9308C82.918 65.0184 82.9329 65.1108 82.9314 65.2036C82.9314 65.3229 82.9136 65.4415 82.8786 65.5556C82.8435 65.6674 82.7963 65.7751 82.7378 65.8768C82.6773 65.9736 82.6065 66.0636 82.5266 66.1452C82.4538 66.2238 82.3692 66.2906 82.2758 66.3432C82.1819 66.4034 82.0773 66.4452 81.9678 66.4664C81.8968 66.4804 81.8232 66.4727 81.7566 66.4444C81.7023 66.417 81.6588 66.372 81.6334 66.3168C81.607 66.2524 81.5921 66.1839 81.5894 66.1144C81.5854 66.0926 81.5854 66.0702 81.5894 66.0484C81.5993 66.0296 81.6146 66.0143 81.6334 66.0044L81.7522 65.934C81.7522 65.934 81.7874 65.934 81.8006 65.934C81.815 65.9368 81.8285 65.9428 81.8402 65.9516Z" fill="#FAFAFA"/>
<path d="M85.9498 61.8113L85.1358 64.5833V63.3601L84.2294 63.8837L85.9498 61.7937M85.9498 61.5913C85.914 61.5928 85.8792 61.6034 85.8486 61.6221L85.809 61.6573L84.093 63.7429C84.0622 63.78 84.0454 63.8267 84.0454 63.8749C84.0454 63.9231 84.0622 63.9698 84.093 64.0069C84.1117 64.0299 84.1351 64.0485 84.1617 64.0614C84.1883 64.0743 84.2174 64.0813 84.247 64.0817C84.2838 64.0814 84.32 64.0723 84.3526 64.0553L84.9466 63.7077V64.5569C84.9461 64.6068 84.9636 64.6552 84.9959 64.6932C85.0283 64.7313 85.0733 64.7563 85.1226 64.7637H85.1534C85.1978 64.7646 85.2412 64.7508 85.277 64.7246C85.3127 64.6983 85.3389 64.6611 85.3514 64.6185L86.161 61.8641C86.1656 61.8379 86.1656 61.8111 86.161 61.7849C86.1599 61.7308 86.1376 61.6794 86.0989 61.6415C86.0603 61.6037 86.0083 61.5825 85.9542 61.5825L85.9498 61.5913Z" fill="#FAFAFA"/>
<path d="M114.136 47.8722L113.696 48.1274V47.2606L114.136 47.0054V47.8722Z" fill="#FAFAFA"/>
<path d="M114.836 47.4674L114.396 47.7226V46.4862L114.836 46.231V47.4674Z" fill="#FAFAFA"/>
<path d="M115.535 47.0627L115.095 47.3179V45.6151L115.535 45.3599V47.0627Z" fill="#FAFAFA"/>
<path d="M116.239 46.6579L115.795 46.9131V44.7571L116.239 44.5063V46.6579Z" fill="#7563FF"/>
<path d="M119.311 42.6801C118.81 43.0065 118.407 43.4627 118.145 44.0001L118.435 44.2333C118.633 43.8316 118.937 43.4921 119.315 43.2521C119.441 43.1592 119.593 43.1062 119.75 43.1C119.906 43.0937 120.061 43.1344 120.195 43.2169L120.49 42.6493C120.313 42.5359 120.106 42.4783 119.895 42.4838C119.685 42.4892 119.481 42.5576 119.311 42.6801ZM118.549 44.3081L118.818 44.5237C118.929 44.2976 119.099 44.106 119.311 43.9693C119.384 43.9182 119.472 43.8908 119.561 43.8908C119.651 43.8908 119.738 43.9182 119.812 43.9693L120.081 43.4457C119.965 43.3713 119.829 43.3341 119.691 43.3388C119.554 43.3435 119.421 43.39 119.311 43.4721C118.988 43.675 118.725 43.9606 118.549 44.2993V44.3081ZM118.945 44.6249L119.311 44.9197L119.685 44.1893C119.629 44.152 119.564 44.1321 119.498 44.1321C119.431 44.1321 119.366 44.152 119.311 44.1893C119.15 44.2929 119.023 44.4412 118.945 44.6161V44.6249Z" fill="#FAFAFA"/>
<path d="M124.639 39.653C124.797 39.5606 124.925 39.653 124.925 39.8686V41.259C124.923 41.3666 124.897 41.4724 124.847 41.5679C124.797 41.6633 124.726 41.7459 124.639 41.809L122.157 43.239C121.999 43.3314 121.871 43.239 121.871 43.0234V41.633C121.873 41.526 121.899 41.4208 121.949 41.326C121.999 41.2313 122.07 41.1495 122.157 41.0874L124.639 39.653ZM124.639 39.5342L122.157 40.9686C122.042 41.0495 121.948 41.1569 121.883 41.2817C121.818 41.4064 121.784 41.545 121.783 41.6858V43.0762C121.783 43.3534 121.95 43.481 122.157 43.3578L124.639 41.9278C124.753 41.8456 124.846 41.738 124.911 41.6134C124.976 41.4889 125.011 41.351 125.013 41.2106V39.8202C125.013 39.543 124.846 39.4154 124.639 39.5342Z" fill="#7563FF"/>
<path d="M123.64 42.0421L122.241 42.8473C122.175 42.8869 122.126 42.8473 122.126 42.7593V41.6065C122.126 41.5633 122.137 41.5208 122.157 41.4825C122.177 41.4442 122.206 41.4113 122.241 41.3865L123.64 40.5813C123.702 40.5417 123.754 40.5813 123.754 40.6693V41.8221C123.753 41.8651 123.743 41.9072 123.723 41.9454C123.703 41.9835 123.675 42.0166 123.64 42.0421Z" fill="#FAFAFA"/>
<path d="M125.281 40.7351L125.18 40.7923V40.0399L125.281 39.9827C125.334 39.9519 125.383 40.0927 125.383 40.3039C125.398 40.4549 125.362 40.6067 125.281 40.7351Z" fill="#7563FF"/>
<path d="M120.859 48.5012C120.719 48.6021 120.603 48.7339 120.522 48.8864C120.44 49.039 120.395 49.2083 120.389 49.3812C120.389 49.7288 120.6 49.8872 120.859 49.7376C121 49.6367 121.116 49.5049 121.197 49.3523C121.279 49.1998 121.324 49.0305 121.33 48.8576C121.33 48.51 121.119 48.3516 120.859 48.5012ZM124.454 46.4244C124.313 46.525 124.197 46.6567 124.115 46.8092C124.032 46.9618 123.986 47.1312 123.979 47.3044C123.979 47.652 124.195 47.8148 124.454 47.6608C124.598 47.5577 124.715 47.4224 124.797 47.2657C124.879 47.1091 124.923 46.9355 124.925 46.7588C124.925 46.4332 124.714 46.2748 124.454 46.4244ZM122.655 47.4628C122.514 47.5637 122.399 47.6955 122.317 47.848C122.235 48.0006 122.19 48.1699 122.184 48.3428C122.184 48.6904 122.395 48.8488 122.655 48.6992C122.797 48.5992 122.913 48.4677 122.996 48.3151C123.078 48.1624 123.124 47.9926 123.13 47.8192C123.13 47.4716 122.919 47.3132 122.655 47.4628Z" fill="#FAFAFA"/>
<path d="M125.576 36.3838C126.575 36.3838 127.169 37.189 127.169 38.5398V157.78C127.114 158.697 126.846 159.588 126.386 160.383C125.926 161.178 125.287 161.855 124.52 162.36L76.5204 190.08C76.1988 190.282 75.8304 190.397 75.4512 190.415C74.7252 190.415 74.2896 189.807 74.2896 188.791V68.671C74.3845 67.1635 75.0481 65.7482 76.1464 64.711L76.2388 64.6274L76.3972 64.4866C76.5637 64.353 76.7402 64.2324 76.9252 64.1258L90.4288 56.3202L91.3088 55.8142C91.3664 55.7757 91.4332 55.7529 91.5024 55.7482C91.5816 55.7482 91.5816 55.9506 91.5816 55.9726C91.5688 56.0997 91.5825 56.228 91.6217 56.3495C91.661 56.471 91.7251 56.583 91.8098 56.6785C91.8946 56.774 91.9982 56.8509 92.1142 56.9044C92.2301 56.9578 92.3559 56.9866 92.4836 56.989C92.7126 56.9837 92.9361 56.9169 93.1304 56.7954L108.869 47.7094C109.197 47.5055 109.472 47.2264 109.671 46.8951C109.87 46.5638 109.987 46.1898 110.013 45.8042C110.03 45.5799 110.093 45.3615 110.2 45.1636C110.307 44.9656 110.455 44.7926 110.634 44.6558L110.691 44.6206L123.904 36.9602L124.181 36.7974C124.601 36.5336 125.081 36.3821 125.576 36.3574M125.576 35.9526C125.01 35.9722 124.459 36.1406 123.979 36.441L123.697 36.6038L110.497 44.229L110.405 44.2862C110.175 44.4603 109.985 44.6822 109.849 44.9367C109.713 45.1912 109.634 45.4722 109.617 45.7602C109.597 46.0795 109.501 46.3894 109.339 46.6647C109.176 46.9399 108.95 47.1728 108.68 47.3442L92.928 56.4258C92.7965 56.5111 92.6446 56.5597 92.488 56.5666C92.1932 56.5666 91.9908 56.3422 91.9908 55.955C91.9908 55.5678 91.7928 55.3258 91.5068 55.3258C91.3662 55.331 91.2295 55.3735 91.1108 55.449L90.2308 55.955L76.7272 63.7518C76.525 63.8686 76.3323 64.001 76.1508 64.1478L75.878 64.3898C74.6905 65.5072 73.9783 67.0386 73.8892 68.6666V188.787C73.8892 190.071 74.5272 190.815 75.4556 190.815C75.9063 190.798 76.3447 190.663 76.7272 190.423L124.74 162.703C125.565 162.164 126.252 161.437 126.744 160.582C127.237 159.728 127.521 158.769 127.574 157.784V38.5442C127.574 36.9206 126.764 35.9834 125.58 35.9834L125.576 35.9526Z" fill="#7563FF"/>
<path d="M103.88 76.8461H103.44V76.1949C103.442 76.1612 103.442 76.1274 103.44 76.0937L103.413 76.0101V75.9837V75.9485L103.387 75.8913L103.299 75.7857H103.272C103.206 75.7656 103.136 75.7656 103.07 75.7857L103 75.3457C103.148 75.317 103.302 75.3355 103.44 75.3985C103.48 75.4162 103.518 75.4383 103.554 75.4645L103.585 75.4909C103.608 75.508 103.629 75.5288 103.646 75.5525L103.695 75.6097C103.716 75.6323 103.733 75.6593 103.743 75.6889C103.775 75.7373 103.799 75.7909 103.814 75.8473C103.818 75.8735 103.818 75.9003 103.814 75.9265L103.849 75.9925V76.0233C103.849 76.0233 103.849 76.0585 103.849 76.0761C103.851 76.1215 103.851 76.167 103.849 76.2125L103.88 76.8461Z" fill="#7563FF"/>
<path d="M81.4527 123.605C81.3964 123.603 81.3404 123.596 81.2855 123.583C81.2414 123.571 81.1986 123.555 81.1579 123.535C81.125 123.523 81.0939 123.506 81.0655 123.486C80.922 123.384 80.8081 123.246 80.7355 123.086C80.6536 122.908 80.6116 122.714 80.6123 122.518V122.052H81.0523V122.518C81.0515 122.647 81.0769 122.774 81.1271 122.892C81.1642 122.978 81.2197 123.055 81.2899 123.116L81.3427 123.147V123.372L81.3911 123.165C81.4144 123.168 81.4382 123.168 81.4615 123.165L81.5099 123.605H81.4527ZM83.0851 122.786L82.8695 122.412L84.3347 121.568L84.5459 121.937L83.0851 122.786ZM86.0111 121.092L85.7955 120.723L87.2607 119.878L87.4763 120.248L86.0111 121.092ZM81.0435 120.362H80.6035V118.672H81.0435V120.362ZM88.9371 119.403L88.7259 119.033L90.1999 118.184L90.4155 118.558L88.9371 119.403ZM91.8631 117.709L91.6519 117.339L93.1127 116.495L93.3283 116.864L91.8631 117.709ZM81.0435 116.978H80.6035V115.28H81.0435V116.978ZM94.7935 116.019L94.5779 115.65L96.0431 114.805L96.2543 115.175L94.7935 116.019ZM97.7195 114.33L97.5039 113.956L98.9691 113.111L99.1847 113.48L97.7195 114.33ZM81.0435 113.599H80.6035V111.91H81.0435V113.599ZM100.646 112.64L100.434 112.271L101.895 111.426L102.111 111.795L100.646 112.64ZM103.506 110.713L103.149 110.48C103.331 110.21 103.435 109.894 103.448 109.569V108.975H103.888V109.56C103.871 109.971 103.738 110.369 103.506 110.708V110.713ZM81.0435 110.224H80.6035V108.535H81.0435V110.224ZM103.88 107.285H103.44V105.6H103.88V107.285ZM81.0435 106.845H80.6035V105.16H81.0435V106.845ZM103.88 103.902H103.44V102.212H103.88V103.902ZM81.0435 103.462H80.6035V101.772H81.0435V103.462ZM103.88 100.523H103.44V98.8329H103.88V100.523ZM81.0435 100.083H80.6035V98.3929H81.0435V100.083ZM103.88 97.1433H103.44V95.4537H103.88V97.1433ZM81.0435 96.7033H80.6035V95.0137H81.0435V96.7033ZM103.88 93.7597H103.44V92.0701H103.88V93.7597ZM81.0435 93.3197H80.6035V91.6257H81.0435V93.3197ZM103.88 90.3761H103.44V88.6865H103.88V90.3761ZM81.0435 89.9361H80.6035V89.3729C80.6197 88.9534 80.7556 88.5473 80.9951 88.2025L81.3515 88.4401C81.161 88.7154 81.0513 89.0385 81.0347 89.3729L81.0435 89.9361ZM82.6231 87.5029L82.4119 87.1289L83.8771 86.2841L84.0883 86.6581L82.6231 87.5029ZM103.88 86.9969H103.44V85.3073H103.88V86.9969ZM85.5535 85.8001L85.3379 85.4261L86.8031 84.5813L87.0187 84.9553L85.5535 85.8001ZM88.4795 84.1105L88.2683 83.7365L89.7291 82.8917L89.9447 83.2657L88.4795 84.1105ZM103.88 83.6045H103.44V81.9105H103.88V83.6045ZM91.4099 82.4209L91.1943 82.0469L92.6595 81.2065L92.8707 81.5761L91.4099 82.4209ZM94.3359 80.7313L94.1247 80.3617L95.5855 79.5169L95.8011 79.8865L94.3359 80.7313ZM103.88 80.2209H103.44V78.5313H103.88V80.2209ZM97.2795 79.0417L97.0639 78.6677L98.5291 77.8229L98.7403 78.1969L97.2795 79.0417ZM100.206 77.3521L99.9899 76.9781L101.455 76.1377L101.671 76.5073L100.206 77.3521Z" fill="#7563FF"/>
<path d="M103.88 125.647H103.44V124.995C103.442 124.962 103.442 124.928 103.44 124.894L103.413 124.811V124.784V124.749L103.387 124.692L103.303 124.586H103.272C103.209 124.557 103.138 124.549 103.07 124.564L103 124.124C103.149 124.099 103.302 124.119 103.44 124.181L103.558 124.247L103.589 124.283C103.612 124.294 103.631 124.311 103.646 124.331L103.69 124.388C103.71 124.412 103.727 124.439 103.739 124.467C103.771 124.516 103.795 124.569 103.809 124.626C103.821 124.651 103.829 124.678 103.836 124.705L103.866 124.771V124.802C103.866 124.802 103.866 124.837 103.866 124.85C103.866 124.863 103.866 124.943 103.866 124.991L103.88 125.647Z" fill="#7563FF"/>
<path d="M81.4483 172.401C81.3933 172.402 81.3384 172.394 81.2855 172.379C81.241 172.371 81.1979 172.356 81.1579 172.335L81.0655 172.287C80.923 172.184 80.8094 172.046 80.7355 171.886C80.6536 171.708 80.6116 171.515 80.6123 171.319V170.852H81.0523V171.319C81.0515 171.447 81.0769 171.575 81.1271 171.693C81.1642 171.779 81.2197 171.855 81.2899 171.917L81.3955 171.966H81.4615L81.5099 172.406L81.4483 172.401ZM83.0851 171.583L82.8695 171.213L84.3347 170.368L84.5459 170.738L83.0851 171.583ZM86.0111 169.893L85.7955 169.524L87.2607 168.679L87.4763 169.048L86.0111 169.893ZM81.0435 169.163H80.6035V167.473H81.0435V169.163ZM88.9371 168.204L88.7259 167.834L90.1867 166.985L90.4023 167.354L88.9371 168.204ZM91.8631 166.51L91.6519 166.14L93.1127 165.295L93.3283 165.665L91.8631 166.51ZM81.0435 165.779H80.6035V164.09H81.0435V165.779ZM94.7935 164.82L94.5779 164.45L96.0431 163.606L96.2543 163.975L94.7935 164.82ZM97.7195 163.13L97.5039 162.756L98.9691 161.912L99.1847 162.281L97.7195 163.13ZM81.0435 162.4H80.6035V160.71H81.0435V162.4ZM100.646 161.436L100.434 161.067L101.895 160.222L102.111 160.592L100.646 161.436ZM103.506 159.509L103.149 159.276C103.331 159.006 103.435 158.691 103.448 158.365V157.771H103.888V158.365C103.87 158.775 103.737 159.171 103.506 159.509ZM81.0435 159.021H80.6035V157.331H81.0435V159.021ZM103.88 156.077H103.44V154.388H103.88V156.077ZM81.0435 155.637H80.6035V153.943H81.0435V155.637ZM103.88 152.694H103.44V151.008H103.88V152.694ZM81.0435 152.254H80.6035V150.568H81.0435V152.254ZM103.88 149.314H103.44V147.625H103.88V149.314ZM81.0435 148.874H80.6035V147.185H81.0435V148.874ZM103.88 145.935H103.44V144.241H103.88V145.935ZM81.0435 145.495H80.6035V143.806H81.0435V145.495ZM103.88 142.552H103.44V140.862H103.88V142.552ZM81.0435 142.112H80.6035V140.422H81.0435V142.112ZM103.88 139.172H103.44V137.483H103.88V139.172ZM81.0435 138.732H80.6035V138.16C80.6197 137.741 80.7556 137.335 80.9951 136.99L81.3515 137.228C81.161 137.503 81.0513 137.826 81.0347 138.16L81.0435 138.732ZM82.6231 136.299L82.4119 135.925L83.8771 135.08L84.0883 135.454L82.6231 136.299ZM103.88 135.793H103.44V134.104H103.88V135.793ZM85.5535 134.61L85.3379 134.236L86.8031 133.391L87.0187 133.765L85.5535 134.61ZM88.4795 132.92L88.2683 132.546L89.7291 131.701L89.9447 132.075L88.4795 132.92ZM103.88 132.41H103.44V130.724H103.88V132.41ZM91.4099 131.23L91.1943 130.856L92.6595 130.012L92.8707 130.386L91.4099 131.23ZM94.3359 129.541L94.1247 129.167L95.5855 128.322L95.8011 128.696L94.3359 129.541ZM103.88 129.03H103.44V127.341H103.88V129.03ZM97.2795 127.851L97.0639 127.477L98.5291 126.632L98.7403 127.006L97.2795 127.851ZM100.206 126.162L99.9899 125.788L101.455 124.943L101.671 125.317L100.206 126.162Z" fill="#7563FF"/>
<path d="M164.067 15.8751L142.793 28.1599C142.564 28.3084 142.373 28.509 142.236 28.7453C142.099 28.9816 142.02 29.2468 142.005 29.5195V49.2403C142.02 49.5122 142.1 49.7766 142.238 50.0115C142.376 50.2465 142.567 50.4452 142.797 50.5911L144.293 51.4403C144.538 51.5626 144.808 51.6263 145.081 51.6263C145.354 51.6263 145.624 51.5626 145.869 51.4403L167.143 39.1599C167.372 39.0113 167.562 38.8107 167.699 38.5744C167.836 38.3381 167.915 38.0729 167.93 37.8003V18.0663C167.915 17.7943 167.835 17.5299 167.698 17.295C167.56 17.06 167.368 16.8614 167.138 16.7155L165.642 15.8663C165.397 15.7453 165.127 15.6831 164.854 15.6846C164.58 15.6861 164.311 15.7513 164.067 15.8751Z" fill="#7563FF"/>
<path opacity="0.2" d="M145.869 51.4184C145.623 51.5378 145.354 51.5999 145.081 51.5999C144.808 51.5999 144.539 51.5378 144.293 51.4184L142.797 50.5648C142.567 50.4191 142.375 50.2205 142.237 49.9855C142.1 49.7505 142.02 49.486 142.005 49.214V29.5064C142.015 29.2217 142.102 28.9451 142.256 28.7056L145.314 30.4656C145.17 30.6972 145.09 30.9628 145.081 31.2356V50.9564C145.081 51.4228 145.407 51.6868 145.869 51.4184Z" fill="black"/>
<g opacity="0.2">
<path d="M167.917 17.9254C167.856 17.5294 167.534 17.3886 167.143 17.613L145.869 29.8846C145.637 30.0315 145.447 30.2343 145.314 30.4742L142.234 28.7142C142.369 28.484 142.562 28.2929 142.793 28.1598L164.067 15.8838C164.312 15.7615 164.581 15.6978 164.855 15.6978C165.128 15.6978 165.398 15.7615 165.642 15.8838L167.138 16.7286C167.346 16.8614 167.522 17.0367 167.657 17.2431C167.791 17.4495 167.88 17.6821 167.917 17.9254Z" fill="white"/>
</g>
<path d="M167.143 17.5997L145.869 29.8845C145.642 30.0342 145.452 30.2344 145.316 30.4696C145.179 30.7047 145.099 30.9683 145.081 31.2397V50.9605C145.081 51.4621 145.433 51.6645 145.869 51.4005L167.143 39.1597C167.372 39.0111 167.562 38.8105 167.699 38.5742C167.836 38.338 167.915 38.0727 167.93 37.8001V18.0661C167.93 17.5645 167.578 17.3621 167.143 17.5997Z" fill="#7563FF"/>
<path d="M147.189 39.7098C147.183 39.544 147.213 39.3789 147.277 39.2258C147.348 39.0733 147.43 38.9262 147.523 38.7858L152.161 31.3058C152.183 31.2728 152.209 31.2431 152.24 31.2178C152.255 31.2018 152.273 31.1885 152.293 31.1782C152.317 31.1577 152.347 31.1465 152.378 31.1465C152.41 31.1465 152.44 31.1577 152.464 31.1782C152.491 31.2095 152.511 31.246 152.523 31.2853C152.535 31.3247 152.539 31.3661 152.535 31.407V34.2978C152.542 34.5085 152.495 34.7177 152.398 34.905C152.326 35.0412 152.247 35.1734 152.161 35.301L150.132 38.4162L152.161 39.2082C152.245 39.2352 152.325 39.2737 152.398 39.3226C152.491 39.3798 152.535 39.525 152.535 39.7626V42.6534C152.536 42.7602 152.512 42.8657 152.464 42.9614C152.428 43.0462 152.368 43.1193 152.293 43.1726H152.24C152.214 43.1793 152.187 43.1793 152.161 43.1726L147.523 41.0298C147.429 40.9937 147.345 40.9365 147.277 40.8626C147.204 40.7474 147.173 40.6107 147.189 40.4754V39.7098Z" fill="white"/>
<path d="M157.3 26.9982C157.343 26.8379 157.4 26.6817 157.471 26.5318C157.547 26.3816 157.665 26.2564 157.81 26.171L159.363 25.291C159.389 25.2699 159.42 25.2583 159.453 25.2583C159.486 25.2583 159.518 25.2699 159.544 25.291C159.571 25.3229 159.592 25.36 159.604 25.4001C159.617 25.4401 159.622 25.4823 159.618 25.5242C159.624 25.5813 159.624 25.6387 159.618 25.6958L155.698 42.4158C155.66 42.5678 155.605 42.7153 155.535 42.8558C155.461 43.0146 155.34 43.1467 155.188 43.2342L153.67 44.1142C153.645 44.1362 153.613 44.1483 153.579 44.1483C153.546 44.1483 153.514 44.1362 153.489 44.1142C153.461 44.0828 153.44 44.0458 153.427 44.0056C153.414 43.9654 153.41 43.9229 153.414 43.881C153.417 43.8232 153.424 43.7658 153.436 43.7094L157.3 26.9982Z" fill="white"/>
<path d="M165.823 29.7044C165.829 29.8702 165.799 30.0353 165.735 30.1884C165.664 30.3413 165.582 30.4884 165.488 30.6284L160.846 38.1084C160.827 38.1419 160.802 38.1717 160.772 38.1964C160.756 38.2123 160.738 38.2257 160.719 38.236C160.695 38.2573 160.665 38.2691 160.633 38.2691C160.601 38.2691 160.571 38.2573 160.547 38.236C160.521 38.2046 160.501 38.1681 160.489 38.1288C160.476 38.0895 160.472 38.0481 160.477 38.0072V35.1472C160.47 34.9412 160.515 34.7367 160.609 34.5532C160.701 34.3948 160.78 34.2628 160.846 34.166L162.879 31.0288L160.846 30.2544C160.761 30.2257 160.681 30.1841 160.609 30.1312C160.521 30.0696 160.477 29.9229 160.477 29.6912V26.7916C160.476 26.6848 160.5 26.5792 160.547 26.4836C160.581 26.3984 160.641 26.3261 160.719 26.2768H160.772C160.796 26.2723 160.822 26.2723 160.846 26.2768L165.488 28.4196C165.582 28.4557 165.667 28.5129 165.735 28.5868C165.807 28.7022 165.838 28.8387 165.823 28.974V29.7044Z" fill="white"/>
<path opacity="0.15" d="M135.379 56.9141C135.233 56.9191 135.09 56.9632 134.966 57.0417L114.004 69.1373C113.732 69.3157 113.505 69.5556 113.342 69.8376C113.18 70.1195 113.085 70.4358 113.067 70.7609V103.902C113.066 104.065 113.099 104.227 113.164 104.377C113.219 104.5 113.303 104.607 113.41 104.689L113.494 104.733C113.518 104.747 113.545 104.756 113.573 104.76C113.612 104.764 113.652 104.764 113.692 104.76C113.798 104.756 113.901 104.724 113.991 104.667L134.953 92.5585C135.225 92.38 135.451 92.1401 135.614 91.8582C135.777 91.5762 135.871 91.2599 135.89 90.9349V57.5829C135.89 57.5433 135.89 57.4993 135.89 57.4641C135.892 57.4363 135.892 57.4083 135.89 57.3805C135.89 57.3526 135.882 57.3252 135.868 57.3013C135.857 57.2577 135.839 57.2162 135.815 57.1781L135.784 57.1297L135.758 57.0945L135.696 57.0329C135.672 57.014 135.646 56.9992 135.617 56.9889C135.55 56.9569 135.476 56.9404 135.401 56.9405L135.379 56.9141Z" fill="black"/>
<path d="M140.079 58.8237C139.932 58.8288 139.789 58.8728 139.665 58.9513L118.699 71.0469C118.427 71.2247 118.2 71.4638 118.038 71.745C117.875 72.0262 117.78 72.3417 117.762 72.6661V105.811C117.76 105.975 117.795 106.138 117.863 106.287C117.918 106.41 118.002 106.517 118.109 106.599C118.135 106.616 118.161 106.63 118.189 106.643C118.216 106.654 118.244 106.663 118.272 106.669H118.391C118.495 106.668 118.597 106.637 118.686 106.581L139.652 94.4681C139.924 94.2909 140.15 94.0518 140.312 93.7704C140.475 93.489 140.568 93.1733 140.585 92.8489V59.4881C140.587 59.45 140.587 59.4118 140.585 59.3737C140.587 59.3444 140.587 59.315 140.585 59.2857C140.58 59.2572 140.572 59.2292 140.563 59.2021C140.55 59.1599 140.53 59.1198 140.505 59.0833C140.499 59.0648 140.489 59.0482 140.475 59.0349C140.468 59.0215 140.459 59.0095 140.448 58.9997L140.387 58.9381L140.307 58.8897C140.239 58.8612 140.166 58.8463 140.092 58.8457L140.079 58.8237Z" fill="#455A64"/>
<path d="M140.294 58.8678C140.19 58.8289 140.078 58.8162 139.967 58.8307C139.857 58.8453 139.751 58.8867 139.661 58.9514L118.704 71.0426C118.429 71.2142 118.203 71.4536 118.048 71.7378L115.65 70.3694C115.804 70.0892 116.028 69.8541 116.301 69.6874L137.28 57.5918C137.377 57.5198 137.491 57.4763 137.611 57.4661C137.731 57.456 137.851 57.4797 137.958 57.5346C138.112 57.6402 140.092 58.7666 140.294 58.8678Z" fill="#37474F"/>
<path d="M135.291 62.7662C135.124 62.9007 134.989 63.0717 134.898 63.2661C134.806 63.4606 134.76 63.6733 134.763 63.8882C134.763 64.3282 135.001 64.5658 135.291 64.3942C135.459 64.261 135.594 64.0909 135.686 63.897C135.777 63.7032 135.823 63.4909 135.819 63.2766C135.819 62.8278 135.582 62.599 135.291 62.7662Z" fill="#FAFAFA"/>
<path d="M137.192 61.6661C137.024 61.8001 136.889 61.9711 136.798 62.1656C136.706 62.3601 136.66 62.5731 136.664 62.7881C136.664 63.2281 136.902 63.4657 137.192 63.2941C137.361 63.1616 137.497 62.9916 137.588 62.7976C137.68 62.6036 137.725 62.391 137.72 62.1765C137.72 61.7277 137.487 61.4989 137.192 61.6661Z" fill="#FAFAFA"/>
<path d="M139.097 60.566C138.928 60.6994 138.793 60.8701 138.701 61.0648C138.61 61.2595 138.564 61.4728 138.569 61.688C138.569 62.128 138.802 62.3612 139.097 62.194C139.265 62.0608 139.4 61.8907 139.492 61.6968C139.583 61.503 139.629 61.2907 139.625 61.0764C139.625 60.6276 139.388 60.3988 139.097 60.566Z" fill="#FAFAFA"/>
<path d="M117.863 106.286C117.801 106.135 117.767 105.974 117.762 105.811V75.724V72.644C117.773 72.3159 117.869 71.9962 118.039 71.7156L115.641 70.3472C115.467 70.6301 115.369 70.9527 115.355 71.2844V74.36V104.443C115.354 104.614 115.39 104.784 115.461 104.94C115.524 105.071 115.623 105.18 115.747 105.257C115.747 105.257 117.898 106.493 117.982 106.546L118.101 106.612C117.996 106.524 117.915 106.412 117.863 106.286Z" fill="#263238"/>
<path d="M137.016 89.9362L121.348 99.0002C120.661 99.3962 120.103 98.9738 120.103 98.0586V77.9506C120.11 77.4848 120.226 77.0272 120.443 76.6145C120.659 76.2019 120.969 75.8457 121.348 75.5746L137.016 66.5282C137.703 66.1278 138.261 66.5502 138.261 67.4654V87.5602C138.253 88.0259 138.137 88.4833 137.92 88.8958C137.704 89.3084 137.395 89.6647 137.016 89.9362Z" fill="#7563FF"/>
<path d="M122.052 94.1422L136.312 85.9054L132.748 80.6738L130.966 85.4346L126.989 76.749L122.052 94.1422Z" fill="#FAFAFA"/>
<path d="M134.225 75.781C134.725 74.6071 134.591 73.4264 133.927 73.1438C133.263 72.8612 132.32 73.5838 131.82 74.7577C131.321 75.9316 131.454 77.1124 132.118 77.395C132.783 77.6775 133.726 76.955 134.225 75.781Z" fill="#FAFAFA"/>
<path opacity="0.15" d="M135.379 105.767C135.233 105.772 135.09 105.816 134.966 105.895L114.004 117.99C113.732 118.168 113.506 118.407 113.343 118.688C113.18 118.97 113.086 119.285 113.067 119.609V152.755C113.066 152.918 113.099 153.08 113.164 153.23C113.22 153.352 113.304 153.459 113.41 153.542L113.494 153.586L113.573 153.613H113.692C113.797 153.608 113.9 153.578 113.991 153.525L134.953 141.411C135.225 141.235 135.452 140.996 135.615 140.714C135.778 140.433 135.872 140.117 135.89 139.792V106.431C135.89 106.392 135.89 106.352 135.89 106.317C135.892 106.288 135.892 106.258 135.89 106.229C135.889 106.2 135.882 106.171 135.868 106.145C135.857 106.103 135.839 106.063 135.815 106.027C135.807 106.009 135.797 105.993 135.784 105.978L135.758 105.943L135.696 105.881L135.617 105.833C135.549 105.803 135.476 105.787 135.401 105.789L135.379 105.767Z" fill="black"/>
<path d="M140.079 107.677C139.933 107.683 139.79 107.725 139.665 107.8L118.699 119.9C118.427 120.077 118.2 120.317 118.037 120.598C117.874 120.879 117.78 121.195 117.762 121.519V154.664C117.76 154.828 117.795 154.991 117.863 155.14C117.918 155.263 118.002 155.37 118.109 155.452L118.189 155.492L118.272 155.522C118.312 155.527 118.351 155.527 118.391 155.522C118.495 155.519 118.597 155.488 118.686 155.434L139.652 143.321C139.923 143.143 140.149 142.904 140.311 142.623C140.474 142.342 140.567 142.026 140.585 141.702V108.341C140.587 108.303 140.587 108.265 140.585 108.227C140.587 108.197 140.587 108.168 140.585 108.139C140.58 108.11 140.572 108.082 140.563 108.055C140.551 108.012 140.531 107.972 140.505 107.936C140.499 107.918 140.489 107.901 140.475 107.888C140.468 107.874 140.459 107.863 140.448 107.853C140.431 107.829 140.41 107.808 140.387 107.791L140.307 107.743C140.24 107.712 140.166 107.697 140.092 107.699L140.079 107.677Z" fill="#455A64"/>
<path d="M140.294 107.721C140.19 107.682 140.078 107.669 139.967 107.684C139.857 107.698 139.751 107.74 139.661 107.804L118.704 119.895C118.429 120.067 118.203 120.307 118.048 120.591L115.646 119.24C115.799 118.96 116.024 118.725 116.297 118.558L137.28 106.445C137.377 106.373 137.491 106.33 137.611 106.319C137.73 106.308 137.85 106.33 137.958 106.383C138.112 106.48 140.092 107.615 140.294 107.721Z" fill="#37474F"/>
<path d="M135.291 111.619C135.123 111.753 134.988 111.924 134.897 112.119C134.805 112.313 134.76 112.526 134.763 112.741C134.763 113.181 135.001 113.414 135.291 113.247C135.459 113.114 135.594 112.944 135.686 112.75C135.778 112.556 135.823 112.344 135.819 112.13C135.819 111.681 135.582 111.452 135.291 111.619Z" fill="#FAFAFA"/>
<path d="M137.192 110.519C137.024 110.652 136.889 110.822 136.798 111.016C136.706 111.21 136.66 111.422 136.664 111.637C136.664 112.077 136.902 112.314 137.192 112.147C137.361 112.015 137.497 111.845 137.588 111.651C137.68 111.457 137.725 111.244 137.72 111.029C137.72 110.581 137.487 110.352 137.192 110.519Z" fill="#FAFAFA"/>
<path d="M139.097 109.419C138.928 109.552 138.793 109.721 138.701 109.915C138.61 110.109 138.564 110.322 138.569 110.537C138.569 110.977 138.802 111.214 139.097 111.047C139.265 110.914 139.4 110.744 139.492 110.55C139.583 110.356 139.629 110.144 139.625 109.929C139.625 109.476 139.388 109.252 139.097 109.419Z" fill="#FAFAFA"/>
<path d="M117.863 155.139C117.801 154.988 117.767 154.827 117.762 154.664V124.577V121.519C117.773 121.191 117.868 120.871 118.039 120.591L115.645 119.24C115.473 119.521 115.374 119.842 115.359 120.173V123.2V153.283C115.359 153.454 115.395 153.623 115.465 153.78C115.531 153.909 115.629 154.018 115.751 154.097C115.751 154.097 117.903 155.329 117.986 155.381L118.105 155.452C118.002 155.367 117.919 155.26 117.863 155.139Z" fill="#263238"/>
<path d="M137.016 138.785L121.348 147.84C120.661 148.236 120.103 147.814 120.103 146.898V126.804C120.11 126.338 120.226 125.88 120.443 125.467C120.659 125.055 120.969 124.699 121.348 124.428L137.016 115.377C137.703 114.981 138.261 115.403 138.261 116.318V136.4C138.255 136.867 138.14 137.327 137.923 137.741C137.707 138.155 137.396 138.513 137.016 138.785Z" fill="#7563FF"/>
<path d="M136.061 130.882V127.701C136.061 125.998 135.564 124.511 133.518 125.69C132.655 126.209 131.907 126.898 131.318 127.714L131.595 128.572C132.066 127.914 132.665 127.358 133.355 126.936C134.724 126.148 134.878 127.323 134.878 128.027V128.203C132.295 129.677 130.856 131.63 130.856 133.685C130.856 134.913 131.547 135.727 132.902 134.948C133.82 134.364 134.533 133.509 134.944 132.502L134.988 132.48L135.084 133.492L136.189 132.854C136.099 132.2 136.056 131.542 136.061 130.882ZM134.886 130.733C134.883 130.912 134.86 131.091 134.816 131.265C134.605 132.231 134.026 133.077 133.201 133.624C132.581 133.98 132.053 133.808 132.053 132.81C132.053 131.155 133.562 129.989 134.886 129.259V130.733ZM125.356 127.261L122.192 140.928L123.438 140.206L124.401 135.925L127.701 134.02L128.696 137.17L129.98 136.431L126.804 126.421L125.356 127.261ZM124.652 134.587L125.563 130.627C125.743 129.804 125.893 128.995 126.034 128.212H126.06C126.196 128.814 126.337 129.439 126.544 130.09L127.455 132.972L124.652 134.587Z" fill="#FAFAFA"/>
<path opacity="0.15" d="M89.663 148.676C89.5163 148.681 89.3735 148.725 89.2494 148.803L68.2878 160.899C68.0148 161.077 67.7875 161.316 67.6247 161.598C67.4618 161.881 67.3679 162.197 67.3506 162.523V195.663C67.3494 195.827 67.3823 195.989 67.4474 196.139C67.5023 196.262 67.587 196.369 67.6938 196.451L67.7774 196.495C67.8021 196.508 67.8289 196.517 67.8566 196.521C67.8961 196.526 67.9359 196.526 67.9754 196.521C68.0816 196.517 68.1848 196.486 68.2746 196.429L89.2494 184.36C89.5217 184.181 89.7484 183.941 89.9112 183.659C90.074 183.378 90.1683 183.061 90.1866 182.736V149.345C90.1888 149.305 90.1888 149.265 90.1866 149.226C90.1912 149.198 90.1912 149.17 90.1866 149.142C90.1897 149.116 90.1897 149.089 90.1866 149.063C90.1754 149.019 90.1576 148.978 90.1338 148.94L90.103 148.891L90.0722 148.861C90.0567 148.837 90.0374 148.816 90.015 148.799C89.9902 148.782 89.9637 148.767 89.9358 148.755C89.8684 148.723 89.7948 148.706 89.7202 148.707L89.663 148.676Z" fill="black"/>
<path d="M94.3623 150.585C94.2154 150.59 94.0725 150.634 93.9487 150.713L72.9827 162.8C72.7107 162.978 72.4842 163.217 72.3214 163.498C72.1586 163.779 72.0641 164.095 72.0455 164.419V197.56C72.0438 197.724 72.0784 197.886 72.1467 198.035C72.2012 198.157 72.2842 198.264 72.3887 198.347L72.4723 198.391L72.5515 198.418C72.5924 198.422 72.6337 198.422 72.6747 198.418C72.7794 198.414 72.8812 198.382 72.9695 198.325L93.9355 186.212C94.2076 186.035 94.434 185.796 94.5961 185.515C94.7582 185.233 94.8515 184.917 94.8683 184.593V151.254C94.8706 151.215 94.8706 151.175 94.8683 151.135C94.8724 151.106 94.8724 151.077 94.8683 151.047C94.8636 151.019 94.8562 150.991 94.8463 150.964C94.8327 150.922 94.8134 150.882 94.7891 150.845C94.782 150.827 94.7716 150.811 94.7583 150.797C94.752 150.783 94.743 150.771 94.7319 150.761L94.6703 150.7C94.6458 150.682 94.6192 150.667 94.5911 150.656C94.5237 150.624 94.45 150.607 94.3755 150.607L94.3623 150.585Z" fill="#455A64"/>
<path d="M94.5736 150.629C94.4699 150.591 94.3583 150.578 94.2486 150.593C94.1389 150.607 94.0345 150.649 93.9444 150.713L72.9828 162.8C72.7098 162.97 72.4855 163.208 72.3316 163.491L69.9336 162.122C70.0864 161.841 70.3111 161.606 70.5848 161.44L91.5464 149.345C91.6436 149.273 91.7588 149.229 91.8793 149.219C91.9997 149.209 92.1206 149.233 92.2284 149.287C92.4 149.397 94.3756 150.528 94.5736 150.629Z" fill="#37474F"/>
<path d="M89.5752 154.532C89.4065 154.665 89.2709 154.835 89.1793 155.029C89.0876 155.223 89.0424 155.435 89.0472 155.65C89.0472 156.09 89.2804 156.327 89.5752 156.156C89.7432 156.023 89.8782 155.852 89.9698 155.659C90.0613 155.465 90.107 155.253 90.1032 155.038C90.1032 154.589 89.8656 154.361 89.5752 154.532Z" fill="#FAFAFA"/>
<path d="M91.4759 153.428C91.3083 153.562 91.1737 153.733 91.0822 153.928C90.9907 154.122 90.9448 154.335 90.9479 154.55C90.9479 154.99 91.1855 155.227 91.4759 155.056C91.6439 154.923 91.7789 154.752 91.8705 154.559C91.962 154.365 92.0077 154.153 92.0039 153.938C92.0039 153.489 91.7663 153.261 91.4759 153.428Z" fill="#FAFAFA"/>
<path d="M93.3769 152.328C93.2088 152.462 93.0738 152.633 92.9822 152.827C92.8907 153.022 92.8451 153.235 92.8489 153.45C92.8489 153.89 93.0865 154.123 93.3769 153.956C93.5461 153.823 93.6824 153.654 93.7748 153.46C93.8672 153.266 93.9132 153.053 93.9092 152.838C93.9092 152.389 93.6717 152.16 93.3769 152.328Z" fill="#FAFAFA"/>
<path d="M72.1599 198.048C72.0931 197.899 72.0586 197.737 72.0587 197.573V167.49V164.41C72.0693 164.081 72.1648 163.759 72.3359 163.477L69.9379 162.109C69.7648 162.392 69.6664 162.715 69.6519 163.046V166.086V196.196C69.6524 196.366 69.6899 196.534 69.7619 196.688C69.8252 196.819 69.9244 196.929 70.0479 197.005L72.2831 198.294L72.3975 198.36C72.294 198.277 72.2124 198.17 72.1599 198.048Z" fill="#263238"/>
<path d="M91.2998 181.72L75.6314 190.766C74.9406 191.162 74.3862 190.74 74.3862 189.825V169.712C74.3928 169.246 74.509 168.789 74.7253 168.376C74.9416 167.963 75.252 167.607 75.6314 167.336L91.2998 158.29C91.9862 157.89 92.545 158.312 92.545 159.227V179.322C92.5412 179.792 92.4264 180.254 92.21 180.67C91.9936 181.087 91.6817 181.447 91.2998 181.72Z" fill="#7563FF"/>
<path d="M81.1492 169.506H81.202H81.2328L85.6944 166.932C85.7483 166.896 85.7931 166.849 85.8252 166.793C85.8574 166.737 85.8758 166.675 85.8792 166.61V164.608C85.8792 164.516 85.7912 164.49 85.6988 164.538L81.2372 167.116C81.1827 167.15 81.1374 167.197 81.1052 167.253C81.0737 167.308 81.0556 167.37 81.0524 167.433V169.4C81.048 169.457 81.092 169.506 81.1492 169.506ZM83.358 182.807V174.53C83.0808 174.627 82.8696 174.425 82.8696 174.038C82.8721 173.814 82.9272 173.595 83.0304 173.397C83.1336 173.199 83.282 173.028 83.4636 172.898C83.7936 172.709 84.0576 172.898 84.0576 173.338C84.0528 173.539 84.007 173.738 83.923 173.921C83.839 174.104 83.7187 174.268 83.5692 174.403V182.688L86.614 172.779C86.6284 172.717 86.6291 172.653 86.6162 172.591C86.6033 172.528 86.577 172.47 86.5392 172.418C85.6725 171.271 85.1642 169.894 85.0784 168.458C85.0795 168.434 85.0735 168.41 85.0612 168.389C85.0489 168.367 85.0308 168.35 85.009 168.339C84.9872 168.328 84.9626 168.323 84.9383 168.326C84.9139 168.328 84.8908 168.338 84.8716 168.353L82.0556 169.981C82.0006 170.015 81.9539 170.062 81.9189 170.116C81.8839 170.171 81.8614 170.233 81.8532 170.298C81.65 172.293 81.1379 174.245 80.3352 176.084C80.2866 176.208 80.2866 176.346 80.3352 176.471L83.358 182.807ZM89.078 180.017C88.9689 180.022 88.8656 180.068 88.7884 180.145C88.7111 180.223 88.6653 180.326 88.66 180.435C88.6533 180.474 88.6533 180.515 88.66 180.554L84.7352 182.82C87.1332 180.8 88.9504 177.346 89.1 174.346C89.2083 174.326 89.3055 174.267 89.3723 174.18C89.4392 174.092 89.471 173.983 89.4613 173.874C89.4516 173.764 89.4013 173.662 89.3201 173.588C89.239 173.514 89.133 173.472 89.023 173.472C88.913 173.472 88.807 173.514 88.7259 173.588C88.6447 173.662 88.5944 173.764 88.5847 173.874C88.575 173.983 88.6068 174.092 88.6737 174.18C88.7405 174.267 88.8377 174.326 88.946 174.346C88.77 177.804 86.3456 181.874 83.3932 183.586C81.9236 184.435 80.5464 184.576 79.5124 183.977C78.562 183.432 78.0076 182.318 77.924 180.822C78.0155 180.801 78.0972 180.75 78.1556 180.676C78.214 180.603 78.2456 180.511 78.2452 180.418C78.2452 180.307 78.2012 180.2 78.1228 180.122C78.0444 180.044 77.9381 180 77.8272 180C77.7163 180 77.61 180.044 77.5316 180.122C77.4532 180.2 77.4092 180.307 77.4092 180.418C77.4082 180.518 77.4439 180.615 77.5095 180.692C77.575 180.768 77.6661 180.817 77.7656 180.831C77.8536 182.38 78.4388 183.537 79.4332 184.114C79.89 184.374 80.4079 184.507 80.9336 184.501C81.3644 184.496 81.7918 184.425 82.2008 184.29L78.1308 186.644C78.114 186.622 78.0948 186.603 78.0736 186.586C78.0032 186.532 77.9164 186.502 77.8272 186.503C77.7456 186.507 77.6671 186.535 77.6013 186.584C77.5355 186.632 77.4853 186.699 77.4571 186.775C77.4288 186.852 77.4236 186.935 77.4421 187.015C77.4606 187.095 77.5021 187.167 77.5613 187.223C77.6205 187.28 77.695 187.317 77.7754 187.332C77.8558 187.346 77.9387 187.337 78.0138 187.304C78.0889 187.272 78.153 187.219 78.198 187.151C78.243 187.082 78.2671 187.002 78.2672 186.921C78.2667 186.877 78.2593 186.834 78.2452 186.793L88.77 180.717L88.8492 180.796C88.92 180.842 89.0025 180.866 89.0868 180.866C89.1417 180.866 89.196 180.856 89.2468 180.835C89.2975 180.814 89.3436 180.783 89.3824 180.744C89.4212 180.705 89.452 180.659 89.473 180.608C89.494 180.558 89.5048 180.503 89.5048 180.448C89.5048 180.393 89.494 180.339 89.473 180.288C89.452 180.238 89.4212 180.192 89.3824 180.153C89.3436 180.114 89.2975 180.083 89.2468 180.062C89.196 180.041 89.1417 180.03 89.0868 180.03L89.078 180.017Z" fill="white"/>
<path d="M30.2239 62.9202L28.3715 59.4354L29.8631 55.1322V52.4922L25.3003 55.1322V57.7722L27.2803 61.1602C27.3106 61.2128 27.3568 61.2544 27.4123 61.279L30.2239 62.9202Z" fill="#7563FF"/>
<path opacity="0.2" d="M30.2239 62.9202L28.3715 59.4354L29.8631 55.1322V52.4922L25.3003 55.1322V57.7722L27.2803 61.1602C27.3106 61.2128 27.3568 61.2544 27.4123 61.279L30.2239 62.9202Z" fill="black"/>
<path d="M64.1301 18.4801C64.1051 18.0049 63.9681 17.5424 63.7303 17.1302C63.4924 16.7181 63.1606 16.368 62.7617 16.1085L61.6485 15.4661C61.2243 15.2512 60.7556 15.1392 60.2801 15.1392C59.8046 15.1392 59.3358 15.2512 58.9117 15.4661L17.8069 39.3581C17.4086 39.6171 17.077 39.9665 16.8393 40.3779C16.6015 40.7892 16.4642 41.2509 16.4385 41.7253V60.1789C16.4642 60.6533 16.6015 61.115 16.8393 61.5263C17.077 61.9377 17.4086 62.2871 17.8069 62.5461L18.9201 63.1885C19.3436 63.4055 19.8126 63.5187 20.2885 63.5187C20.7643 63.5187 21.2334 63.4055 21.6569 63.1885L28.1601 59.4309L30.1181 62.8189C30.1455 62.8678 30.1866 62.9077 30.2362 62.9337C30.2858 62.9598 30.3419 62.971 30.3978 62.9658C30.4536 62.9607 30.5067 62.9396 30.5508 62.9049C30.5949 62.8702 30.628 62.8236 30.6461 62.7705L32.7141 56.7997L62.7573 39.3141C63.1547 39.0569 63.486 38.7098 63.7244 38.3008C63.9629 37.8919 64.1019 37.4326 64.1301 36.9601V18.4801Z" fill="#7563FF"/>
<path opacity="0.2" d="M16.4385 60.1789C16.4642 60.6533 16.6015 61.115 16.8393 61.5263C17.0771 61.9377 17.4086 62.287 17.8069 62.5461L18.9201 63.1885C19.3057 63.3834 19.7284 63.494 20.16 63.513C20.5917 63.532 21.0225 63.4588 21.4237 63.2985C20.7769 63.5449 20.2885 63.1797 20.2885 62.4185V43.9473C20.3026 43.4725 20.4374 43.0092 20.6801 42.6009L16.8301 40.4009C16.5843 40.8083 16.4465 41.2717 16.4297 41.7473L16.4385 60.1789Z" fill="black"/>
<path opacity="0.3" d="M64.0861 18.1019C63.9233 17.5211 63.3953 17.3363 62.7661 17.7015L21.6525 41.5803C21.2448 41.8298 20.9095 42.1817 20.6801 42.6011L16.8345 40.4011C17.0626 39.9836 17.3945 39.6321 17.7981 39.3803L58.8985 15.5015C59.3244 15.2898 59.7935 15.1797 60.2691 15.1797C60.7447 15.1797 61.2138 15.2898 61.6397 15.5015L62.7529 16.1483C63.0953 16.3672 63.39 16.6531 63.6191 16.9888C63.8482 17.3245 64.0071 17.7031 64.0861 18.1019Z" fill="white"/>
<path d="M31.0288 41.1931C31.0635 41.1664 31.1061 41.1519 31.1498 41.1519C31.1936 41.1519 31.2362 41.1664 31.2708 41.1931C31.3084 41.2254 31.3375 41.2663 31.3559 41.3122C31.3743 41.3582 31.3813 41.4079 31.3764 41.4571V48.4663C31.3777 49.1565 31.2995 49.8445 31.1432 50.5167C30.9931 51.1668 30.761 51.7952 30.4524 52.3867C30.1435 52.975 29.7556 53.5182 29.2996 54.0015C28.8278 54.4963 28.2869 54.9202 27.6936 55.2599C27.2067 55.5701 26.6592 55.7726 26.0876 55.8539C25.6823 55.9106 25.2707 55.8081 24.9392 55.5679C24.6025 55.2918 24.3621 54.9159 24.2528 54.4943C24.0903 53.9132 24.0147 53.3112 24.0284 52.7079V45.6943C24.0298 45.5603 24.0646 45.4287 24.1296 45.3115C24.1826 45.1982 24.2665 45.1021 24.3716 45.0343L25.4144 44.4403C25.4491 44.4136 25.4917 44.3991 25.5354 44.3991C25.5792 44.3991 25.6218 44.4136 25.6564 44.4403C25.6923 44.4737 25.7201 44.5148 25.7377 44.5606C25.7552 44.6064 25.762 44.6555 25.7576 44.7043V51.6299C25.7459 52.0061 25.7935 52.3817 25.8984 52.7431C25.9643 52.9768 26.1049 53.1823 26.2988 53.3283C26.4814 53.4411 26.7006 53.479 26.9104 53.4339C27.1878 53.379 27.4531 53.2746 27.6936 53.1259C27.9804 52.9605 28.245 52.7594 28.4812 52.5275C28.73 52.2865 28.9407 52.0091 29.106 51.7047C29.2844 51.3756 29.4205 51.0252 29.5108 50.6619C29.6117 50.2412 29.6605 49.8097 29.656 49.3771V42.4471C29.6596 42.312 29.6942 42.1795 29.7572 42.0599C29.8129 41.947 29.8981 41.8513 30.0036 41.7827L31.0288 41.1931Z" fill="white"/>
<path d="M33.6559 51.6429C33.6209 51.669 33.5785 51.683 33.5349 51.683C33.4913 51.683 33.4488 51.669 33.4139 51.6429C33.3768 51.6095 33.3482 51.5677 33.3306 51.521C33.313 51.4743 33.3069 51.4241 33.3127 51.3745V40.3349C33.314 40.2008 33.3488 40.0693 33.4139 39.9521C33.4668 39.8387 33.5507 39.7427 33.6559 39.6749L34.6943 39.0765C34.7296 39.0494 34.7729 39.0347 34.8175 39.0347C34.862 39.0347 34.9053 39.0494 34.9407 39.0765C34.9766 39.1099 35.0043 39.151 35.0219 39.1968C35.0394 39.2425 35.0463 39.2917 35.0419 39.3405V50.3845C35.0394 50.5184 35.0047 50.6497 34.9407 50.7673C34.8864 50.8823 34.801 50.9798 34.6943 51.0489L33.6559 51.6429Z" fill="white"/>
<path d="M40.6826 34.6591C40.733 34.5066 40.7978 34.3593 40.8762 34.2191C40.9631 34.0617 41.0928 33.9321 41.2502 33.8451L42.1962 33.2951C42.2251 33.2747 42.2597 33.2637 42.2952 33.2637C42.3306 33.2637 42.3652 33.2747 42.3942 33.2951C42.4247 33.3224 42.4483 33.3566 42.4628 33.3949C42.4774 33.4332 42.4825 33.4744 42.4778 33.5151C42.4756 33.5714 42.4682 33.6274 42.4558 33.6823L38.1218 50.0151C38.0777 50.1679 38.0172 50.3154 37.9414 50.4551C37.8516 50.6205 37.7175 50.7577 37.5542 50.8511L36.6434 51.3747C36.6147 51.3958 36.58 51.4072 36.5444 51.4072C36.5087 51.4072 36.4741 51.3958 36.4454 51.3747C36.416 51.3475 36.3932 51.3139 36.3787 51.2766C36.3642 51.2392 36.3584 51.199 36.3618 51.1591C36.3635 51.101 36.3724 51.0434 36.3882 50.9875L40.6826 34.6591Z" fill="white"/>
<path d="M50.7232 29.819C50.7591 29.7932 50.8022 29.7793 50.8464 29.7793C50.8906 29.7793 50.9337 29.7932 50.9696 29.819C51.0063 29.8517 51.0347 29.8927 51.0523 29.9387C51.0699 29.9846 51.0762 30.0341 51.0708 30.083V37.0922C51.072 37.7823 50.9938 38.4703 50.8376 39.1426C50.6909 39.7918 50.4633 40.4201 50.16 41.0126C49.8514 41.601 49.4635 42.1444 49.0072 42.6274C48.5354 43.1221 47.9944 43.546 47.4012 43.8858C46.9149 44.1971 46.367 44.3997 45.7952 44.4798C45.3898 44.5364 44.9782 44.4339 44.6468 44.1938C44.3051 43.9196 44.06 43.5434 43.9472 43.1202C43.7847 42.539 43.709 41.937 43.7228 41.3338V34.3202C43.727 34.1865 43.7616 34.0556 43.824 33.9374C43.8771 33.8227 43.9628 33.7263 44.0704 33.6602L45.1088 33.0574C45.1437 33.0313 45.1862 33.0172 45.2298 33.0172C45.2734 33.0172 45.3158 33.0313 45.3508 33.0574C45.3884 33.0894 45.4174 33.1303 45.4351 33.1764C45.4528 33.2226 45.4586 33.2724 45.452 33.3214V40.2514C45.4406 40.6275 45.4881 41.0031 45.5928 41.3646C45.6586 41.5982 45.7993 41.8038 45.9932 41.9498C46.1775 42.0624 46.3979 42.1002 46.6092 42.0554C46.8843 41.9976 47.1477 41.8934 47.388 41.7474C47.676 41.5819 47.9421 41.3808 48.18 41.149C48.4251 40.9058 48.634 40.6287 48.8004 40.3262C48.9795 39.9958 49.1155 39.6439 49.2052 39.279C49.3057 38.8597 49.3544 38.4297 49.3504 37.9986V31.073C49.3534 30.9386 49.3897 30.8071 49.456 30.6902C49.5077 30.576 49.5918 30.4796 49.698 30.413L50.7232 29.819Z" fill="white"/>
<path d="M58.8148 37.1185C58.6432 37.2153 58.52 37.2329 58.4408 37.1625C58.3832 37.1116 58.3288 37.0573 58.278 36.9997L56.2364 34.3993L54.2124 39.3493L54.0452 39.7013C53.9633 39.8646 53.8326 39.9984 53.6712 40.0841L52.5976 40.7089C52.5617 40.7346 52.5186 40.7485 52.4744 40.7485C52.4302 40.7485 52.3871 40.7346 52.3512 40.7089C52.315 40.6748 52.287 40.6329 52.2695 40.5864C52.2519 40.5399 52.2453 40.49 52.25 40.4405C52.2524 40.3699 52.2657 40.3001 52.2896 40.2337L55.2244 33.0837L52.4172 29.4801C52.3912 29.4282 52.3777 29.3709 52.3776 29.3129C52.3818 29.1792 52.4164 29.0483 52.4788 28.9301C52.5319 28.8154 52.6176 28.719 52.7252 28.6529L53.8032 28.0325C53.9704 27.9313 54.098 27.9181 54.1728 27.9885L54.34 28.1469L56.276 30.6373L58.1988 25.9205C58.234 25.8413 58.2868 25.7269 58.366 25.5685C58.446 25.4041 58.5752 25.2688 58.7356 25.1813L59.8136 24.5609C59.849 24.5337 59.8923 24.519 59.9368 24.519C59.9814 24.519 60.0247 24.5337 60.06 24.5609C60.0959 24.5942 60.1237 24.6354 60.1412 24.6811C60.1588 24.7269 60.1656 24.776 60.1612 24.8249C60.1586 24.8968 60.1452 24.968 60.1216 25.0361L57.288 31.9617L60.2008 35.6665C60.2234 35.7194 60.2353 35.7762 60.236 35.8337C60.2358 35.9678 60.201 36.0997 60.1348 36.2165C60.0831 36.3306 59.999 36.427 59.8928 36.4937L58.8148 37.1185Z" fill="white"/>
<path d="M155.386 108.306C156.015 108.667 156.886 108.618 157.85 108.06C158.863 107.399 159.707 106.508 160.311 105.46C160.916 104.411 161.265 103.236 161.33 102.027C161.33 100.918 160.939 100.14 160.309 99.7744L158.109 98.494C157.476 98.1288 156.605 98.1816 155.645 98.736C154.631 99.3968 153.787 100.287 153.182 101.336C152.576 102.384 152.226 103.56 152.161 104.768C152.161 105.877 152.552 106.66 153.181 107.021L155.386 108.306Z" fill="#7563FF"/>
<path opacity="0.3" d="M155.386 108.306C156.015 108.667 156.886 108.618 157.85 108.06C158.863 107.399 159.707 106.508 160.311 105.46C160.916 104.411 161.265 103.236 161.33 102.027C161.33 100.918 160.939 100.14 160.309 99.7744L158.109 98.494C157.476 98.1288 156.605 98.1816 155.645 98.736C154.631 99.3968 153.787 100.287 153.182 101.336C152.576 102.384 152.226 103.56 152.161 104.768C152.161 105.877 152.552 106.66 153.181 107.021L155.386 108.306Z" fill="black"/>
<path d="M161.33 102.027C161.33 100.918 160.939 100.139 160.31 99.7743C159.68 99.4091 158.809 99.4619 157.85 100.016C156.837 100.676 155.994 101.565 155.388 102.612C154.783 103.658 154.432 104.833 154.365 106.04C154.365 107.153 154.757 107.932 155.386 108.297C156.015 108.662 156.886 108.609 157.85 108.051C158.862 107.39 159.705 106.501 160.31 105.455C160.914 104.408 161.264 103.234 161.33 102.027Z" fill="#7563FF"/>
<path d="M155.386 121.594C156.015 121.959 156.886 121.907 157.85 121.352C158.863 120.691 159.706 119.8 160.311 118.752C160.916 117.704 161.265 116.528 161.33 115.32C161.33 114.211 160.939 113.428 160.309 113.063L158.109 111.782C157.476 111.417 156.605 111.47 155.645 112.029C154.631 112.689 153.787 113.58 153.182 114.628C152.576 115.676 152.226 116.852 152.161 118.061C152.161 119.17 152.552 119.949 153.181 120.314L155.386 121.594Z" fill="#E0E0E0"/>
<path d="M161.33 115.32C161.33 114.211 160.939 113.428 160.31 113.063C159.68 112.697 158.809 112.755 157.85 113.309C156.835 113.969 155.991 114.86 155.385 115.908C154.779 116.956 154.43 118.133 154.365 119.341C154.365 120.45 154.757 121.233 155.386 121.594C156.015 121.955 156.886 121.907 157.85 121.352C158.863 120.691 159.707 119.8 160.311 118.752C160.916 117.704 161.265 116.528 161.33 115.32Z" fill="#F5F5F5"/>
<path d="M155.386 134.887C156.015 135.247 156.886 135.199 157.85 134.64C158.863 133.979 159.707 133.088 160.311 132.04C160.916 130.992 161.265 129.816 161.33 128.608C161.33 127.499 160.939 126.72 160.309 126.355L158.109 125.075C157.476 124.709 156.605 124.762 155.645 125.317C154.631 125.977 153.787 126.868 153.182 127.916C152.576 128.964 152.226 130.14 152.161 131.349C152.161 132.458 152.552 133.241 153.181 133.602L155.386 134.887Z" fill="#263238"/>
<path d="M161.33 128.608C161.33 127.499 160.939 126.72 160.31 126.355C159.68 125.99 158.809 126.042 157.85 126.597C156.836 127.258 155.992 128.148 155.386 129.196C154.781 130.244 154.431 131.421 154.365 132.629C154.365 133.742 154.757 134.521 155.386 134.886C156.015 135.252 156.886 135.199 157.85 134.64C158.864 133.979 159.707 133.088 160.312 132.04C160.916 130.992 161.265 129.816 161.33 128.608Z" fill="#455A64"/>
<path d="M155.386 95.0137C156.015 95.3789 156.886 95.3261 157.85 94.7717C158.863 94.1103 159.706 93.2195 160.311 92.1714C160.916 91.1234 161.265 89.9475 161.33 88.7393C161.33 87.6261 160.939 86.8473 160.309 86.4821L158.109 85.2017C157.476 84.8365 156.605 84.8893 155.645 85.4481C154.632 86.1082 153.788 86.9981 153.182 88.0454C152.577 89.0928 152.227 90.2681 152.161 91.4761C152.161 92.5893 152.552 93.3681 153.181 93.7333L155.386 95.0137Z" fill="#7563FF"/>
<path d="M161.33 88.7393C161.33 87.6261 160.939 86.8473 160.31 86.4821C159.68 86.1169 158.809 86.1741 157.85 86.7285C156.835 87.3885 155.991 88.2789 155.385 89.3272C154.779 90.3755 154.43 91.552 154.365 92.7609C154.365 93.8697 154.757 94.6529 155.386 95.0137C156.015 95.3745 156.886 95.3261 157.85 94.7717C158.863 94.1103 159.707 93.2195 160.311 92.1714C160.916 91.1234 161.265 89.9475 161.33 88.7393Z" fill="#7563FF"/>
<path opacity="0.3" d="M161.33 88.7393C161.33 87.6261 160.939 86.8473 160.31 86.4821C159.68 86.1169 158.809 86.1741 157.85 86.7285C156.835 87.3885 155.991 88.2789 155.385 89.3272C154.779 90.3755 154.43 91.552 154.365 92.7609C154.365 93.8697 154.757 94.6529 155.386 95.0137C156.015 95.3745 156.886 95.3261 157.85 94.7717C158.863 94.1103 159.707 93.2195 160.311 92.1714C160.916 91.1234 161.265 89.9475 161.33 88.7393Z" fill="white"/>
<path d="M202.043 102.26C201.876 104.055 202.092 105.635 201.955 106.524C201.875 107.225 201.757 107.921 201.603 108.609C201.43 109.139 201.172 109.637 200.838 110.083C200.629 110.686 200.363 111.268 200.046 111.821C199.632 112.373 199.159 112.876 198.633 113.322C198.277 114.167 198.281 114.255 198.127 114.615C198.091 114.745 198.016 114.86 197.912 114.945C197.86 114.968 197.804 114.977 197.748 114.97C197.692 114.963 197.639 114.941 197.595 114.906C197.512 114.838 197.444 114.754 197.394 114.658C197.345 114.563 197.316 114.459 197.309 114.351C197.272 113.798 197.364 113.244 197.577 112.732C197.803 112.014 197.97 111.278 198.075 110.532C198.036 110.667 197.98 110.796 197.907 110.915C197.811 111.109 197.767 111.32 197.679 111.518C197.261 112.468 196.843 113.414 196.429 114.365C196.397 114.456 196.341 114.537 196.266 114.598C196.218 114.627 196.162 114.642 196.106 114.642C196.049 114.642 195.993 114.627 195.945 114.598C195.854 114.532 195.784 114.442 195.743 114.338C195.61 113.932 195.61 113.495 195.743 113.089C195.861 112.547 196.008 112.013 196.183 111.487C196.385 110.93 196.544 110.357 196.658 109.775C196.851 109.023 196.934 108.246 196.904 107.47C196.834 106.889 196.222 107.637 196.099 107.809C195.906 108.113 195.686 108.4 195.443 108.667C195.288 108.83 195.1 108.96 194.892 109.045C194.683 109.131 194.459 109.171 194.233 109.164C194.164 109.162 194.096 109.144 194.035 109.111C193.977 109.065 193.934 109.003 193.912 108.932C193.89 108.862 193.89 108.786 193.912 108.715C193.96 108.577 194.028 108.446 194.115 108.328C194.136 108.3 194.155 108.271 194.172 108.24C194.893 107.025 195.021 105.688 195.659 104.605C195.857 104.267 196.222 103.554 196.455 103.048C196.816 102.477 197.057 101.84 197.164 101.173C197.287 100.21 197.01 89.9447 197.01 89.9447L193.415 79.9699C192.535 75.9747 193.023 72.6351 194.194 71.0159C197.058 70.7123 198.281 72.1599 199.381 74.8747C200.177 76.7037 200.872 78.575 201.463 80.4803C202.281 82.7773 202.934 85.13 203.416 87.5203C203.751 89.0999 203.416 90.4551 203.003 94.1203C202.642 97.3191 202.211 100.465 202.043 102.26Z" fill="#FFA8A7"/>
<path d="M199.351 104.592C199.405 104.418 199.447 104.24 199.478 104.06C199.529 103.91 199.529 103.747 199.478 103.598C199.39 103.681 199.39 103.769 199.364 103.892C199.328 104.06 199.281 104.224 199.223 104.385C199.118 104.684 198.984 104.971 198.823 105.243C198.705 105.448 198.557 105.634 198.383 105.793C198.145 106.013 197.846 106.163 197.622 106.396C197.592 106.427 197.571 106.465 197.56 106.506C197.596 106.522 197.635 106.531 197.674 106.531C197.714 106.531 197.753 106.522 197.789 106.506C198.276 106.321 198.686 105.975 198.95 105.525C199.12 105.231 199.254 104.918 199.351 104.592ZM199.25 108.332C199.154 109.423 198.87 110.489 198.409 111.482C198.158 111.87 197.992 112.306 197.921 112.763C197.921 113.027 198.062 113.41 198.361 113.449C198.409 113.449 198.405 113.357 198.361 113.339C197.859 112.961 198.092 112.459 198.334 111.988C198.522 111.621 198.685 111.242 198.823 110.853C199.09 110.04 199.238 109.192 199.263 108.336C199.32 108.288 199.254 108.284 199.25 108.332ZM200.732 110.127C200.732 110.127 200.165 110.686 200.112 110.748C200.039 110.839 199.946 110.911 199.839 110.959C199.584 111.047 199.43 110.844 199.399 110.616C199.389 110.426 199.427 110.237 199.509 110.066C199.597 109.894 199.707 109.736 199.8 109.564C200.303 108.713 200.561 107.741 200.548 106.752C200.436 107.378 200.282 107.996 200.086 108.6C199.956 108.949 199.8 109.288 199.619 109.612C199.456 109.841 199.345 110.102 199.294 110.378C199.276 110.564 199.315 110.751 199.404 110.915C199.448 110.987 199.512 111.045 199.588 111.082C199.839 111.205 200.077 110.924 200.231 110.765C200.385 110.607 200.561 110.369 200.719 110.176C200.732 110.162 200.746 110.145 200.732 110.127Z" fill="#F28F8F"/>
<path d="M193.6 70.0214C197.428 69.6518 199.008 71.183 200.455 76.0494C201.797 80.5506 202.655 83.503 202.655 83.503C201.807 84.5413 200.74 85.3797 199.531 85.9582C196.957 87.155 195.778 87.0318 195.778 87.0318C195.778 87.0318 193.648 81.5142 193.248 79.9918C192.848 78.4694 191.501 71.777 193.6 70.0214Z" fill="#7563FF"/>
<path d="M179.687 157.12C179.405 157.089 179.388 157.771 179.555 158.101C180.034 159.056 181.403 160.094 183.427 160.582C185.451 161.071 189.428 160.613 190.634 160.582C191.84 160.552 193.903 161.212 195.1 161.427C197.278 161.823 198.787 161.247 199.5 160.547C199.621 160.407 199.712 160.243 199.766 160.066C199.821 159.888 199.838 159.702 199.817 159.518C199.817 158.69 199.742 158.519 199.65 158.523L179.687 157.12Z" fill="#263238"/>
<path d="M199.478 156.12C199.669 157.107 199.714 158.117 199.61 159.117C199.455 159.398 199.242 159.642 198.984 159.834C198.727 160.026 198.432 160.161 198.118 160.23C196.673 160.603 195.153 160.582 193.718 160.168C192.715 159.892 191.679 159.753 190.638 159.755C189.393 159.799 186.648 160.023 185.398 160.014C184.234 160.011 183.084 159.767 182.019 159.297C181.2 158.897 179.968 158.026 179.704 157.383C179.462 155.883 179.634 154.998 180.505 154.51C181.376 154.022 182.705 153.912 184.522 153.81C185.059 153.78 185.737 153.762 186.027 153.736C187.114 153.639 188.135 153.577 188.958 153.542C189.66 153.561 190.357 153.423 190.999 153.137C191.293 153.011 191.534 152.787 191.681 152.504C191.857 152.125 191.633 151.566 191.967 151.54C191.967 151.54 198.325 152.706 198.822 152.768C199.381 152.838 198.99 153.648 199.478 156.12Z" fill="#37474F"/>
<path d="M185.539 153.67C185.348 153.812 185.191 153.994 185.077 154.202C184.948 154.425 184.847 154.663 184.778 154.911C184.69 155.219 185.077 155.289 185.218 154.933C185.33 154.635 185.478 154.351 185.658 154.088C185.79 153.906 185.981 153.776 186.199 153.718L186.511 153.692C186.467 153.459 185.781 153.52 185.539 153.67Z" fill="#FAFAFA"/>
<path d="M188.32 153.402C188.216 153.387 188.111 153.395 188.011 153.424C187.911 153.452 187.818 153.502 187.739 153.569C187.537 153.738 187.385 153.958 187.299 154.207C187.184 154.507 187.096 154.816 187.035 155.131C187.008 155.333 187.475 155.333 187.536 155.131C187.609 154.846 187.695 154.566 187.796 154.29C187.853 154.154 188.108 153.63 188.438 153.582H188.584C188.584 153.512 188.496 153.463 188.43 153.446L188.32 153.402Z" fill="#FAFAFA"/>
<path d="M189.948 153.388C189.807 153.411 189.678 153.481 189.583 153.586C189.469 153.733 189.38 153.896 189.319 154.07C189.214 154.39 189.159 154.724 189.156 155.06C189.156 155.32 189.618 155.263 189.64 155.087C189.628 154.624 189.744 154.168 189.974 153.767C190.076 153.588 190.219 153.437 190.392 153.327C190.392 153.283 190.309 153.274 190.265 153.283C190.156 153.309 190.05 153.344 189.948 153.388Z" fill="#FAFAFA"/>
<path d="M198.779 145.763C198.779 145.763 198.779 151.443 198.748 152.759C198.748 153.177 197.973 153.414 197.582 153.639C197.095 153.874 196.649 154.186 196.262 154.563C195.329 155.68 194.572 155.993 193.789 154.255C193.76 154.169 193.713 154.091 193.652 154.025C193.59 153.959 193.515 153.908 193.431 153.874C193.348 153.839 193.258 153.823 193.168 153.827C193.078 153.83 192.99 153.853 192.909 153.894C192.579 154.042 192.223 154.126 191.862 154.14C191.805 154.11 191.827 154.022 191.862 153.964C192.005 153.755 192.101 153.517 192.143 153.268C192.186 153.018 192.174 152.762 192.108 152.517C191.721 150.229 191.413 147.928 191.074 145.631L198.779 145.763Z" fill="#FFA8A7"/>
<path d="M164.819 164.274C164.542 164.247 164.533 164.929 164.709 165.259C165.206 166.201 166.597 167.213 168.625 167.662C170.654 168.11 174.631 167.574 175.832 167.53C177.034 167.486 179.115 168.097 180.316 168.291C182.516 168.643 183.999 168.036 184.716 167.332C184.835 167.191 184.923 167.026 184.975 166.849C185.026 166.671 185.04 166.485 185.015 166.302C185.015 165.47 184.923 165.303 184.83 165.312L164.819 164.274Z" fill="#263238"/>
<path d="M184.588 162.888C184.803 163.87 184.874 164.878 184.8 165.88C184.648 166.163 184.438 166.41 184.184 166.607C183.93 166.803 183.638 166.944 183.326 167.019C181.888 167.421 180.368 167.43 178.926 167.046C177.913 166.786 176.869 166.666 175.824 166.689C174.583 166.76 171.837 167.037 170.592 167.055C169.428 167.071 168.273 166.848 167.2 166.399C166.372 166.016 165.127 165.167 164.85 164.529C164.577 163.037 164.731 162.149 165.589 161.643C166.447 161.137 167.789 161 169.593 160.868C170.134 160.824 170.812 160.793 171.098 160.763C172.185 160.644 173.201 160.565 174.024 160.512C174.726 160.52 175.421 160.369 176.057 160.072C176.348 159.941 176.585 159.712 176.726 159.425C176.897 159.042 176.893 158.483 177.227 158.453C177.227 158.453 183.387 159.495 183.876 159.548C184.43 159.605 184.056 160.428 184.588 162.888Z" fill="#37474F"/>
<path d="M170.605 160.71C170.422 160.857 170.272 161.041 170.165 161.251C170.041 161.475 169.946 161.715 169.884 161.964C169.8 162.276 170.187 162.338 170.324 161.964C170.437 161.663 170.584 161.377 170.764 161.11C170.892 160.926 171.08 160.792 171.296 160.732L171.609 160.701C171.529 160.481 170.843 160.551 170.605 160.71Z" fill="#FAFAFA"/>
<path d="M173.36 160.389C173.257 160.376 173.152 160.385 173.053 160.416C172.954 160.446 172.862 160.497 172.783 160.565C172.58 160.736 172.428 160.96 172.343 161.212C172.236 161.514 172.153 161.824 172.097 162.14C172.075 162.342 172.537 162.338 172.599 162.118C172.664 161.831 172.745 161.547 172.841 161.269C172.898 161.132 173.14 160.6 173.47 160.547H173.615C173.615 160.477 173.523 160.428 173.461 160.415L173.36 160.389Z" fill="#FAFAFA"/>
<path d="M175.005 160.34C174.865 160.368 174.739 160.441 174.644 160.547C174.535 160.695 174.45 160.86 174.393 161.035C174.294 161.357 174.245 161.693 174.248 162.03C174.248 162.289 174.715 162.219 174.728 162.03C174.713 161.57 174.821 161.114 175.04 160.71C175.138 160.532 175.279 160.381 175.449 160.27C175.449 160.221 175.366 160.217 175.322 160.226C175.214 160.257 175.108 160.296 175.005 160.34Z" fill="#FAFAFA"/>
<path d="M184.478 152.926C184.478 152.926 183.946 158.58 183.809 159.887C183.77 160.305 182.978 160.472 182.573 160.648C182.066 160.839 181.594 161.111 181.174 161.454C180.14 162.479 179.361 162.721 178.741 160.921C178.72 160.834 178.68 160.753 178.626 160.682C178.571 160.612 178.501 160.554 178.422 160.512C178.343 160.471 178.256 160.446 178.167 160.441C178.078 160.436 177.988 160.449 177.905 160.481C177.561 160.598 177.198 160.649 176.835 160.631C176.783 160.596 176.835 160.512 176.835 160.455C176.996 160.259 177.112 160.032 177.177 159.787C177.241 159.543 177.253 159.287 177.209 159.038C177.033 156.724 176.937 154.4 176.805 152.086L184.478 152.926Z" fill="#FFA8A7"/>
<path d="M199.095 130.209C198.864 128.59 198.487 126.995 197.969 125.444C197.969 125.444 198.655 115.531 198.95 108.046C199.086 104.275 198.825 100.499 198.171 96.7822L175.005 97.1122C175.005 97.1122 174.851 110.088 174.9 118.012C174.948 125.651 175.058 127.736 175.401 132.585C175.582 135.168 175.934 139.999 176.145 144.28C176.378 148.913 176.932 155.562 176.932 155.562C177.933 156.069 179.025 156.368 180.144 156.442C183.295 156.486 183.849 156.028 184.302 155.707C184.302 155.707 184.712 152.301 185.587 145.913C186.062 142.836 186.338 139.732 186.414 136.62C186.414 135.093 186.529 133.949 186.26 132.158L187.088 123.05C187.277 124.335 187.488 125.62 187.748 127.204C188.188 129.756 188.98 134.534 189.596 138.771C190.26 143.365 191.439 149.93 191.439 149.93C191.439 149.93 193.542 150.607 195.109 150.484C198.246 150.229 198.629 149.481 199.029 149.116C199.029 149.116 199.17 145.882 199.443 139.436C199.564 136.356 199.448 133.271 199.095 130.209Z" fill="#455A64"/>
<path opacity="0.2" d="M189.846 112.006C194.818 110.224 195.276 107.606 195.276 107.606C191.756 110.524 188.861 110.744 188.861 110.744L187.101 123.064L188.319 130.711L188.073 123.05L189.846 112.006Z" fill="black"/>
<path d="M195.8 70.4882C197.758 71.4474 199.263 74.3998 198.994 78.4082C198.748 82.0954 198.519 84.3834 198.035 88.2774C197.826 90.1534 197.792 92.0448 197.934 93.927C198.106 97.0554 198.625 100.439 198.625 100.439C198.625 100.439 196.064 104.465 189.086 105.085C180.655 105.829 174.904 103.699 174.904 103.699C174.904 103.699 174.737 92.1274 174.737 89.3994C174.737 82.5046 174.618 79.9482 175.344 77.713C175.881 76.481 178.499 70.9282 179.942 71.3506C181.702 71.8742 183.858 71.3066 185.614 71.0866C191.919 70.2726 193.741 69.4894 195.8 70.4882Z" fill="#37474F"/>
<path d="M183.436 68.4729L183.594 71.5221C185.495 71.8433 189.847 71.9401 190.868 71.1833L190.731 67.8701L183.436 68.4729Z" fill="#FFA8A7"/>
<path d="M180.131 58.6914C179.408 59.6842 178.755 60.7266 178.178 61.811L179.401 62.5942L180.131 58.6914Z" fill="#F28F8F"/>
<path d="M183.999 52.7999C181.632 52.6503 180.615 54.9295 179.713 60.0071C178.833 64.9439 179.234 66.9151 179.788 67.6719C181.148 68.6707 182.622 68.9919 184.725 68.7235C186.327 68.5167 190.41 67.8435 192.394 65.5819C194.731 62.9199 195.848 58.5419 194.022 56.6279C191.453 53.9087 185.24 52.8659 183.999 52.7999Z" fill="#FFA8A7"/>
<path d="M180.884 64.3546C180.855 64.3568 180.828 64.3658 180.804 64.381C180.804 64.381 180.774 64.4162 180.756 64.4294C180.725 64.4647 180.69 64.4958 180.65 64.5218C180.571 64.5838 180.486 64.6369 180.395 64.6802C180.225 64.7509 180.046 64.7954 179.863 64.8122C179.857 64.8141 179.851 64.8175 179.846 64.8221C179.842 64.8267 179.838 64.8324 179.836 64.8386C179.836 64.8386 179.836 64.8738 179.836 64.8914C179.836 64.909 179.924 64.931 179.968 64.931C180.018 64.9376 180.068 64.9376 180.118 64.931C180.225 64.9175 180.33 64.8909 180.43 64.8518C180.529 64.8152 180.623 64.7648 180.708 64.7022C180.75 64.6735 180.79 64.6411 180.826 64.6054L180.884 64.5526C180.911 64.5188 180.926 64.4771 180.928 64.4338C180.928 64.4338 180.914 64.3458 180.884 64.3546Z" fill="#B16668"/>
<path d="M179.788 67.6587C180.1 68.0987 182.16 69.0315 183.466 69.0579L183.427 68.0327C182.202 68.0782 180.978 67.9523 179.788 67.6587Z" fill="#F28F8F"/>
<path d="M183.37 56.2892C183.293 56.6863 183.344 57.0975 183.515 57.464C183.754 57.9649 184.167 58.362 184.677 58.5816C184.257 59.1755 183.982 59.8598 183.876 60.5792C183.825 60.802 183.842 61.0348 183.924 61.248C183.954 61.3201 184.002 61.383 184.065 61.4302C184.127 61.4774 184.2 61.5073 184.278 61.5167C184.355 61.5261 184.434 61.5147 184.505 61.4838C184.577 61.4528 184.639 61.4033 184.685 61.3404C184.907 60.9801 185.17 60.6464 185.469 60.346C185.846 60.0042 186.336 59.8132 186.846 59.8092C188.751 59.8708 188.346 62.8584 187.453 63.7692C185.988 65.2608 185.121 64.0684 185.121 64.0684C185.121 64.0684 184.135 66.5368 185.794 67.8788C185.794 67.8788 188.601 68.948 190.735 68.1824C192.28 66.3652 194.035 64.8208 195.061 63.272C197.481 59.598 197.129 56.342 195.43 55.4092C195.43 53.7856 194.11 52.5976 192.755 51.8892C190.929 50.9344 188.98 51.304 187.035 51.0092C186.03 50.8674 185.07 50.4955 184.232 49.9224C183.858 49.6672 183.405 49.3592 183 49.5616C182.844 49.6494 182.718 49.783 182.639 49.9444C182.485 50.221 182.395 50.5292 182.377 50.8457C182.36 51.1622 182.415 51.4784 182.538 51.7704C182.072 51.3304 181.139 51.3744 180.563 51.7176C179.731 52.2148 179.515 52.9056 179.639 53.9176C179.7 54.5908 180.646 56.7028 183.37 56.2892Z" fill="#263238"/>
<path d="M195.272 55.7962L197.208 54.991C197.155 54.8639 197.078 54.7484 196.98 54.6512C196.883 54.554 196.767 54.4769 196.64 54.4244C196.512 54.3719 196.376 54.345 196.238 54.3452C196.101 54.3454 195.964 54.3727 195.837 54.4256C195.71 54.4785 195.595 54.5559 195.497 54.6534C195.4 54.7508 195.323 54.8665 195.271 54.9938C195.218 55.1211 195.191 55.2574 195.191 55.3951C195.192 55.5328 195.219 55.6691 195.272 55.7962Z" fill="#263238"/>
<path d="M160.204 49.9884C159.953 48.4836 159.764 47.7884 159.451 47.2912C159.139 46.794 158.285 44.7964 157.867 44.1276C157.599 43.6876 156.921 44.1276 156.987 44.9372C157.18 45.7772 157.437 46.601 157.757 47.4012C157.865 48.1517 157.884 48.9122 157.815 49.6672L160.204 49.9884Z" fill="#F28F8F"/>
<path d="M178.53 71.3107L166.386 64.9307C166.386 64.9307 161.071 57.4815 160.666 56.5971C160.261 55.7127 160.485 52.3863 160.446 51.3567C160.389 49.9531 159.935 49.7023 159.509 49.3987C158.118 48.4175 157.749 48.2635 157.339 48.1799C157.213 48.1598 157.083 48.1719 156.963 48.215C156.842 48.258 156.734 48.3307 156.649 48.4263C156.288 48.1535 155.813 47.6827 155.241 48.1535C155.076 48.267 154.927 48.4033 154.801 48.5583C154.705 48.4928 154.59 48.4646 154.475 48.4791C153.907 48.5319 153.335 50.0499 153.375 50.5955C153.417 50.8062 153.504 51.0053 153.631 51.1786C153.758 51.3519 153.921 51.4953 154.11 51.5987C154.479 51.8671 154.647 51.3875 154.647 51.3875L155.087 51.8539C155.403 53.5039 154.119 54.9339 155.131 56.5091C155.624 57.0817 156.066 57.6972 156.451 58.3483C158.112 62.3642 159.983 66.2901 162.056 70.1095C162.593 70.9895 163.442 71.5879 166.425 73.7351L173.171 78.5751L178.53 71.3107Z" fill="#FFA8A7"/>
<path d="M156.64 48.2898L158.364 49.3854L156.86 48.1182C156.778 48.1642 156.704 48.2221 156.64 48.2898Z" fill="#F28F8F"/>
<path d="M154.818 48.4265L156.688 49.8037L155.003 48.2285C154.934 48.287 154.872 48.3534 154.818 48.4265Z" fill="#F28F8F"/>
<path d="M154.334 49.3682C154.308 49.5055 154.322 49.6476 154.374 49.7774C154.42 49.9085 154.483 50.0328 154.563 50.147V50.1074C154.523 50.2394 154.488 50.367 154.453 50.499H154.532C154.494 50.4465 154.445 50.4026 154.389 50.37C154.333 50.3375 154.271 50.3169 154.206 50.3098C154.083 50.2982 153.959 50.3243 153.85 50.3846C153.963 50.3584 154.08 50.3584 154.193 50.3846C154.3 50.4103 154.395 50.4725 154.462 50.5606L154.51 50.6354L154.536 50.5474C154.576 50.4198 154.611 50.2878 154.646 50.1558C154.568 50.0481 154.5 49.9332 154.444 49.8126C154.369 49.6767 154.331 49.5234 154.334 49.3682Z" fill="#F28F8F"/>
<path d="M154.572 50.0059C154.747 50.2227 154.935 50.4284 155.135 50.6219C155.051 50.7813 155.016 50.9618 155.034 51.1411C155.043 51.3357 155.063 51.5297 155.096 51.7219L154.656 51.2555C154.67 51.114 154.656 50.9709 154.613 50.8354C154.57 50.6998 154.499 50.5747 154.405 50.4679L154.572 50.0059Z" fill="#F28F8F"/>
<path d="M180.057 71.346C179.111 70.6508 177.03 70.1008 175.283 69.3396C174.601 69.0448 171.97 67.9273 169.836 66.7437C168.142 68.5037 166.8 70.0173 166.069 72.5473C165.961 72.9186 165.876 73.2963 165.814 73.6781C168.164 75.4381 171.094 77.5984 172.454 79.1296C174.979 81.9588 174.79 82.2669 175.014 82.8433C175.239 83.4197 177.954 84.0268 179.502 80.256C181.051 76.4852 180.774 72.9388 180.057 71.346Z" fill="#7563FF"/>
</svg>
