<svg width="221" height="198" viewBox="0 0 221 198" fill="none" xmlns="http://www.w3.org/2000/svg">
<path d="M110.665 197.698C171.416 197.698 220.665 194.823 220.665 191.276C220.665 187.729 171.416 184.854 110.665 184.854C49.9132 184.854 0.664551 187.729 0.664551 191.276C0.664551 194.823 49.9132 197.698 110.665 197.698Z" fill="#5E5DCB"/>
<path d="M137.051 123.548H133.511L127.843 190.669C127.828 190.846 127.851 191.025 127.908 191.194C127.966 191.362 128.058 191.517 128.178 191.648C128.299 191.779 128.445 191.884 128.608 191.956C128.771 192.027 128.947 192.064 129.126 192.065C129.44 192.064 129.744 191.948 129.979 191.739C130.214 191.53 130.365 191.242 130.402 190.93L137.051 123.548Z" fill="#263238"/>
<path opacity="0.1" d="M137.051 123.548H133.511L127.843 190.669C127.828 190.846 127.851 191.025 127.908 191.194C127.966 191.362 128.058 191.517 128.178 191.648C128.299 191.779 128.445 191.884 128.608 191.956C128.771 192.027 128.947 192.064 129.126 192.065C129.44 192.064 129.744 191.948 129.979 191.739C130.214 191.53 130.365 191.242 130.402 190.93L137.051 123.548Z" fill="white"/>
<path d="M51.9625 123.077H48.4166L42.7433 190.697C42.7284 190.875 42.7504 191.053 42.8081 191.221C42.8658 191.39 42.9579 191.544 43.0785 191.675C43.1991 191.805 43.3456 191.91 43.5086 191.981C43.6716 192.052 43.8476 192.088 44.0255 192.087C44.3401 192.087 44.6437 191.971 44.8789 191.762C45.114 191.553 45.2645 191.265 45.302 190.953L51.9625 123.077Z" fill="#263238"/>
<path opacity="0.1" d="M51.9625 123.077H48.4166L42.7433 190.697C42.7284 190.875 42.7504 191.053 42.8081 191.221C42.8658 191.39 42.9579 191.544 43.0785 191.675C43.1991 191.805 43.3456 191.91 43.5086 191.981C43.6716 192.052 43.8476 192.088 44.0255 192.087C44.3401 192.087 44.6437 191.971 44.8789 191.762C45.114 191.553 45.2645 191.265 45.302 190.953L51.9625 123.077Z" fill="white"/>
<path d="M67.666 123.077H71.2062L71.3083 190.902C71.3083 191.243 71.1726 191.571 70.9311 191.812C70.6896 192.054 70.362 192.19 70.0204 192.19C69.6823 192.188 69.3581 192.054 69.1174 191.817C68.8766 191.579 68.7385 191.257 68.7326 190.919L67.666 123.077Z" fill="#263238"/>
<path opacity="0.2" d="M67.666 123.077H71.2062L71.3083 190.902C71.3083 191.243 71.1726 191.571 70.9311 191.812C70.6896 192.054 70.362 192.19 70.0204 192.19C69.6823 192.188 69.3581 192.054 69.1174 191.817C68.8766 191.579 68.7385 191.257 68.7326 190.919L67.666 123.077Z" fill="white"/>
<path d="M151.62 123.077H155.165L155.268 190.902C155.268 191.243 155.132 191.571 154.89 191.812C154.649 192.054 154.321 192.19 153.98 192.19C153.642 192.188 153.317 192.054 153.077 191.817C152.836 191.579 152.698 191.257 152.692 190.919L151.62 123.077Z" fill="#263238"/>
<path opacity="0.2" d="M155.165 123.077L155.268 190.902C155.268 191.243 155.132 191.571 154.89 191.812C154.649 192.054 154.321 192.19 153.98 192.19C153.642 192.188 153.317 192.054 153.077 191.817C152.836 191.579 152.698 191.257 152.692 190.919L151.62 123.077H155.165Z" fill="white"/>
<path d="M47.356 135.791L155.087 134.991V123.083H48.4169L47.356 135.791Z" fill="#7563FF"/>
<path opacity="0.3" d="M67.6664 123.168L67.865 135.638L47.356 135.791L48.4169 123.083L67.6664 123.168Z" fill="black"/>
<path d="M159.245 120.218C159.245 118.618 158.644 117.319 157.906 117.313H46.8111C46.0735 117.313 45.4778 118.618 45.4722 120.218C45.4722 121.823 46.0735 123.122 46.8111 123.128H157.906C158.644 123.122 159.239 121.823 159.245 120.218Z" fill="#263238"/>
<path opacity="0.1" d="M159.245 120.218C159.245 118.618 158.644 117.319 157.906 117.313H46.8111C46.0735 117.313 45.4778 118.618 45.4722 120.218C45.4722 121.823 46.0735 123.122 46.8111 123.128H157.906C158.644 123.122 159.239 121.823 159.245 120.218Z" fill="white"/>
<path opacity="0.3" d="M74.1508 120.218C74.1508 118.618 73.5835 117.319 72.8176 117.313H46.8111C46.0735 117.313 45.4778 118.618 45.4722 120.218C45.4722 121.823 46.0735 123.122 46.8111 123.128H72.8176C73.5551 123.122 74.1508 121.823 74.1508 120.218Z" fill="black"/>
<path d="M130.68 117.608H119.01L119.276 116.343C120.525 112.99 126.901 112.99 126.901 112.99C128.484 113.081 130.027 114.561 130.47 116.632L130.68 117.608Z" fill="#7563FF"/>
<path d="M98.2969 115.736H110.018L111.414 103.481H100.77L98.2969 115.736Z" fill="#263238"/>
<path d="M96.2256 117.29H96.7929V117.432H116.65V115.73H98.2963L100.77 103.476H111.413L111.98 98.2791C111.966 97.937 111.819 97.6137 111.572 97.3769C111.325 97.14 110.995 97.008 110.653 97.0083H101.553C101.211 97.0107 100.882 97.1435 100.634 97.3796C100.387 97.6157 100.238 97.9374 100.22 98.2791L96.2256 117.29Z" fill="#263238"/>
<path d="M98.2969 115.736H110.018L111.306 104.446L111.414 103.481H100.77L98.2969 115.736Z" fill="#263238"/>
<path opacity="0.1" d="M110.925 107.561L111.413 103.481H99.1306L98.2739 107.561H110.925Z" fill="black"/>
<path d="M116.905 116.093H118.3C118.333 116.095 118.366 116.09 118.397 116.079C118.428 116.067 118.456 116.05 118.48 116.028C118.505 116.006 118.524 115.979 118.538 115.95C118.552 115.92 118.56 115.888 118.561 115.855V114.51C118.561 114.477 118.553 114.444 118.54 114.414C118.526 114.383 118.507 114.356 118.482 114.333C118.458 114.311 118.429 114.293 118.398 114.282C118.367 114.27 118.334 114.265 118.3 114.266H117.302C117.246 114.266 117.191 114.283 117.145 114.316C117.099 114.348 117.065 114.395 117.047 114.448L116.655 115.792C116.646 115.829 116.646 115.868 116.655 115.905C116.663 115.942 116.68 115.976 116.705 116.005C116.729 116.035 116.76 116.058 116.794 116.073C116.829 116.088 116.867 116.095 116.905 116.093Z" fill="#263238"/>
<path d="M114.987 116.093H116.383C116.449 116.095 116.513 116.071 116.561 116.026C116.61 115.982 116.639 115.92 116.644 115.855V114.51C116.641 114.443 116.612 114.381 116.563 114.335C116.514 114.289 116.45 114.265 116.383 114.266H115.379C115.322 114.266 115.267 114.283 115.222 114.316C115.176 114.348 115.141 114.394 115.123 114.448L114.732 115.792C114.723 115.83 114.723 115.869 114.732 115.906C114.741 115.944 114.758 115.978 114.783 116.008C114.808 116.037 114.839 116.06 114.875 116.075C114.91 116.09 114.949 116.096 114.987 116.093Z" fill="#263238"/>
<path d="M113.064 116.093H114.454C114.521 116.096 114.586 116.073 114.636 116.029C114.686 115.984 114.716 115.922 114.721 115.855V114.51C114.719 114.477 114.711 114.444 114.697 114.413C114.683 114.383 114.663 114.356 114.638 114.333C114.613 114.31 114.584 114.293 114.552 114.281C114.521 114.27 114.487 114.265 114.454 114.266H113.455C113.399 114.265 113.343 114.282 113.297 114.315C113.251 114.347 113.217 114.394 113.2 114.448L112.809 115.793C112.8 115.83 112.799 115.869 112.808 115.906C112.817 115.944 112.835 115.978 112.86 116.008C112.885 116.037 112.916 116.06 112.952 116.075C112.987 116.09 113.026 116.096 113.064 116.093Z" fill="#263238"/>
<path d="M111.141 116.093H112.531C112.598 116.096 112.663 116.073 112.713 116.029C112.763 115.984 112.793 115.922 112.798 115.855V114.51C112.796 114.477 112.788 114.444 112.774 114.413C112.76 114.383 112.74 114.356 112.715 114.333C112.69 114.31 112.661 114.293 112.63 114.281C112.598 114.27 112.565 114.265 112.531 114.266H111.533C111.476 114.265 111.421 114.282 111.375 114.315C111.329 114.347 111.294 114.394 111.277 114.448L110.886 115.793C110.877 115.83 110.877 115.869 110.886 115.906C110.894 115.944 110.912 115.978 110.937 116.008C110.962 116.037 110.993 116.06 111.029 116.075C111.064 116.09 111.103 116.096 111.141 116.093Z" fill="#263238"/>
<path d="M109.217 116.093H110.607C110.674 116.096 110.74 116.073 110.789 116.029C110.839 115.984 110.87 115.922 110.874 115.855V114.51C110.873 114.477 110.865 114.444 110.85 114.413C110.836 114.383 110.816 114.356 110.791 114.333C110.767 114.31 110.738 114.293 110.706 114.281C110.674 114.27 110.641 114.265 110.607 114.266H109.609C109.552 114.265 109.497 114.282 109.451 114.315C109.405 114.347 109.371 114.394 109.354 114.448L108.962 115.781C108.951 115.819 108.949 115.86 108.957 115.899C108.965 115.937 108.982 115.974 109.007 116.005C109.032 116.035 109.065 116.06 109.101 116.075C109.138 116.09 109.178 116.097 109.217 116.093Z" fill="#263238"/>
<path d="M107.294 116.093H108.684C108.751 116.096 108.816 116.073 108.866 116.029C108.916 115.984 108.947 115.922 108.951 115.855V114.51C108.95 114.477 108.941 114.444 108.927 114.413C108.913 114.383 108.893 114.356 108.868 114.333C108.843 114.31 108.814 114.293 108.783 114.281C108.751 114.27 108.718 114.265 108.684 114.266H107.686C107.629 114.265 107.574 114.282 107.528 114.315C107.482 114.347 107.448 114.394 107.431 114.448L107.039 115.793C107.03 115.83 107.03 115.869 107.039 115.906C107.048 115.944 107.065 115.978 107.09 116.008C107.115 116.037 107.147 116.06 107.182 116.075C107.218 116.09 107.256 116.096 107.294 116.093Z" fill="#263238"/>
<path d="M105.371 116.093H106.761C106.828 116.096 106.893 116.073 106.943 116.029C106.993 115.984 107.023 115.922 107.027 115.855V114.51C107.026 114.477 107.018 114.444 107.004 114.413C106.99 114.383 106.97 114.356 106.945 114.333C106.92 114.31 106.891 114.293 106.859 114.281C106.828 114.27 106.794 114.265 106.761 114.266H105.762C105.706 114.265 105.65 114.282 105.604 114.315C105.558 114.347 105.524 114.394 105.507 114.448L105.11 115.793C105.102 115.83 105.103 115.869 105.112 115.907C105.122 115.944 105.14 115.979 105.166 116.008C105.191 116.037 105.223 116.06 105.258 116.075C105.294 116.089 105.332 116.096 105.371 116.093Z" fill="#263238"/>
<path d="M103.447 116.093H104.837C104.904 116.096 104.97 116.073 105.019 116.029C105.069 115.984 105.1 115.922 105.104 115.855V114.51C105.103 114.477 105.095 114.444 105.08 114.413C105.066 114.383 105.046 114.356 105.021 114.333C104.997 114.31 104.968 114.293 104.936 114.281C104.904 114.27 104.871 114.265 104.837 114.266H103.856C103.799 114.265 103.744 114.282 103.698 114.315C103.652 114.347 103.618 114.394 103.601 114.448L103.204 115.793C103.196 115.829 103.197 115.866 103.205 115.902C103.214 115.938 103.231 115.972 103.254 116.001C103.277 116.03 103.307 116.053 103.34 116.069C103.374 116.085 103.41 116.093 103.447 116.093Z" fill="#263238"/>
<path d="M101.525 116.093H102.915C102.981 116.096 103.047 116.073 103.097 116.029C103.147 115.984 103.177 115.922 103.181 115.855V114.51C103.18 114.477 103.172 114.444 103.158 114.413C103.143 114.383 103.123 114.356 103.099 114.333C103.074 114.31 103.045 114.293 103.013 114.281C102.982 114.27 102.948 114.265 102.915 114.266H101.916C101.86 114.265 101.804 114.282 101.758 114.315C101.712 114.347 101.678 114.394 101.661 114.448L101.264 115.793C101.256 115.83 101.257 115.869 101.266 115.907C101.276 115.944 101.294 115.979 101.319 116.008C101.345 116.037 101.376 116.06 101.412 116.075C101.448 116.089 101.486 116.096 101.525 116.093Z" fill="#263238"/>
<path d="M99.5956 116.093H101.02C101.086 116.096 101.152 116.073 101.202 116.029C101.251 115.984 101.282 115.922 101.286 115.855V114.51C101.285 114.477 101.277 114.444 101.263 114.413C101.248 114.383 101.228 114.356 101.204 114.333C101.179 114.31 101.15 114.293 101.118 114.281C101.087 114.27 101.053 114.265 101.02 114.266H100.021C99.9639 114.265 99.9076 114.281 99.8606 114.314C99.8136 114.347 99.7784 114.394 99.7601 114.448L99.3176 115.781C99.3051 115.821 99.3033 115.864 99.3122 115.905C99.3211 115.946 99.3405 115.984 99.3684 116.016C99.3964 116.047 99.432 116.071 99.4718 116.084C99.5116 116.098 99.5543 116.101 99.5956 116.093Z" fill="#263238"/>
<path d="M97.6728 116.093H99.0684C99.1352 116.096 99.2006 116.073 99.2504 116.029C99.3003 115.984 99.3307 115.922 99.3351 115.855V114.51C99.3336 114.477 99.3256 114.444 99.3114 114.413C99.2972 114.383 99.2771 114.356 99.2524 114.333C99.2276 114.31 99.1986 114.293 99.167 114.281C99.1355 114.27 99.102 114.265 99.0684 114.266H98.0699C98.0127 114.265 97.9564 114.281 97.9094 114.314C97.8624 114.347 97.8272 114.394 97.809 114.448L97.4175 115.793C97.4084 115.83 97.4084 115.869 97.4173 115.906C97.4261 115.944 97.4437 115.978 97.4686 116.008C97.4935 116.037 97.525 116.06 97.5605 116.075C97.596 116.09 97.6344 116.096 97.6728 116.093Z" fill="#263238"/>
<path d="M95.749 116.093H97.1446C97.2114 116.096 97.2768 116.073 97.3266 116.029C97.3765 115.984 97.4069 115.922 97.4112 115.855V114.51C97.4098 114.477 97.4017 114.444 97.3875 114.413C97.3733 114.383 97.3533 114.356 97.3285 114.333C97.3038 114.31 97.2748 114.293 97.2432 114.281C97.2116 114.27 97.1781 114.265 97.1446 114.266H96.1461C96.0889 114.265 96.0326 114.281 95.9856 114.314C95.9386 114.347 95.9034 114.394 95.8851 114.448L95.4937 115.793C95.4846 115.83 95.4845 115.869 95.4934 115.906C95.5023 115.944 95.5199 115.978 95.5448 116.008C95.5697 116.037 95.6012 116.06 95.6366 116.075C95.6721 116.09 95.7106 116.096 95.749 116.093Z" fill="#263238"/>
<path d="M93.8256 116.093H95.2212C95.287 116.095 95.3509 116.071 95.3996 116.026C95.4482 115.982 95.4778 115.92 95.4822 115.855V114.51C95.4792 114.443 95.4502 114.381 95.4015 114.335C95.3527 114.289 95.288 114.265 95.2212 114.266H94.2113C94.1551 114.266 94.1001 114.283 94.0542 114.316C94.0084 114.348 93.974 114.394 93.9561 114.448L93.5646 115.792C93.5553 115.83 93.5553 115.87 93.5645 115.908C93.5736 115.946 93.5918 115.981 93.6173 116.01C93.6429 116.04 93.6751 116.062 93.7114 116.077C93.7476 116.091 93.7868 116.097 93.8256 116.093Z" fill="#263238"/>
<path d="M91.9028 116.093H93.2984C93.3643 116.095 93.4282 116.071 93.4768 116.026C93.5254 115.982 93.555 115.92 93.5594 115.855V114.51C93.5564 114.443 93.5275 114.381 93.4787 114.335C93.4299 114.289 93.3652 114.265 93.2984 114.266H92.2942C92.238 114.266 92.183 114.283 92.1371 114.316C92.0913 114.348 92.0569 114.394 92.0389 114.448L91.6475 115.792C91.6384 115.83 91.6383 115.869 91.6472 115.906C91.6561 115.944 91.6737 115.978 91.6986 116.008C91.7235 116.037 91.755 116.06 91.7905 116.075C91.8259 116.09 91.8644 116.096 91.9028 116.093Z" fill="#263238"/>
<path d="M89.9795 116.093H91.3752C91.442 116.096 91.5073 116.073 91.5572 116.029C91.607 115.984 91.6374 115.922 91.6418 115.855V114.51C91.6404 114.477 91.6323 114.444 91.6181 114.413C91.6039 114.383 91.5839 114.356 91.5591 114.333C91.5343 114.31 91.5053 114.293 91.4738 114.281C91.4422 114.27 91.4087 114.265 91.3752 114.266H90.3767C90.3202 114.265 90.2648 114.282 90.2187 114.315C90.1727 114.347 90.1385 114.394 90.1214 114.448L89.7299 115.793C89.721 115.829 89.7209 115.868 89.7295 115.905C89.7381 115.942 89.7552 115.976 89.7794 116.005C89.8036 116.035 89.8343 116.058 89.8691 116.073C89.9038 116.088 89.9416 116.095 89.9795 116.093Z" fill="#263238"/>
<path d="M88.5781 116.241C88.5983 116.528 88.7266 116.797 88.9373 116.992C89.1479 117.188 89.4251 117.297 89.7128 117.296H118.516C118.809 117.304 119.093 117.199 119.31 117.002C119.527 116.806 119.659 116.533 119.679 116.241C119.679 116.099 119.648 115.959 119.59 115.83C119.531 115.701 119.446 115.586 119.339 115.492C119.121 115.296 118.838 115.187 118.545 115.186H89.7355C89.6282 115.184 89.5213 115.197 89.4178 115.225C89.1852 115.278 88.9766 115.406 88.8247 115.59C88.6728 115.774 88.5861 116.003 88.5781 116.241Z" fill="#263238"/>
<path opacity="0.2" d="M88.5781 116.241C88.5983 116.528 88.7266 116.797 88.9373 116.992C89.1479 117.188 89.4251 117.297 89.7128 117.296H118.516C118.809 117.304 119.093 117.199 119.31 117.002C119.527 116.806 119.659 116.533 119.679 116.241C119.679 116.099 119.648 115.959 119.59 115.83C119.531 115.701 119.446 115.586 119.339 115.492C119.121 115.296 118.838 115.187 118.545 115.186H89.7355C89.6282 115.184 89.5213 115.197 89.4178 115.225C89.1852 115.278 88.9766 115.406 88.8247 115.59C88.6728 115.774 88.5861 116.003 88.5781 116.241Z" fill="white"/>
<path d="M88.5781 116.241C88.5983 116.527 88.7266 116.796 88.9373 116.992C89.1479 117.188 89.4251 117.296 89.7128 117.296H99.4879C99.7137 117.238 99.9145 117.108 100.06 116.926C100.205 116.744 100.287 116.519 100.294 116.286C100.299 116.224 100.299 116.161 100.294 116.099C100.249 115.88 100.136 115.681 99.9701 115.531C99.894 115.463 99.8103 115.404 99.7205 115.355L99.5844 115.293C99.4424 115.242 99.2926 115.217 99.1418 115.219H89.4178C89.1843 115.272 88.975 115.401 88.823 115.586C88.671 115.771 88.5848 116.001 88.5781 116.241Z" fill="#263238"/>
<path d="M80.2896 69.0615H83.234L86.5416 104.957H83.5971C83.3389 104.935 83.0974 104.82 82.9178 104.633C82.7382 104.446 82.6328 104.2 82.6213 103.941L79.501 70.0771C79.4782 69.9576 79.4811 69.8346 79.5096 69.7163C79.538 69.5981 79.5913 69.4872 79.6659 69.3911C79.7405 69.2951 79.8347 69.216 79.9422 69.1592C80.0498 69.1023 80.1682 69.069 80.2896 69.0615Z" fill="#7563FF"/>
<path opacity="0.3" d="M80.2896 69.0615H83.234L86.5416 104.957H83.5971C83.3389 104.935 83.0974 104.82 82.9178 104.633C82.7382 104.446 82.6328 104.2 82.6213 103.941L79.501 70.0771C79.4782 69.9576 79.4811 69.8346 79.5096 69.7163C79.538 69.5981 79.5913 69.4872 79.6659 69.3911C79.7405 69.2951 79.8347 69.216 79.9422 69.1592C80.0498 69.1023 80.1682 69.069 80.2896 69.0615Z" fill="black"/>
<path d="M84.8388 104.957H128.955C129.076 104.949 129.194 104.916 129.302 104.859C129.409 104.802 129.504 104.723 129.578 104.627C129.653 104.531 129.706 104.42 129.735 104.302C129.763 104.184 129.766 104.061 129.743 103.941L126.623 70.0771C126.611 69.8181 126.506 69.5722 126.326 69.3853C126.147 69.1984 125.905 69.0833 125.647 69.0615H81.5313C81.4099 69.069 81.2915 69.1023 81.1839 69.1592C81.0764 69.216 80.9822 69.2951 80.9076 69.3911C80.833 69.4872 80.7797 69.5981 80.7513 69.7163C80.7228 69.8346 80.7199 69.9576 80.7427 70.0771L83.863 103.941C83.8745 104.2 83.9799 104.446 84.1595 104.633C84.3391 104.82 84.5806 104.935 84.8388 104.957Z" fill="#7563FF"/>
<path d="M86.1722 97.7569H126.237L124.013 72.3574H83.9482L86.1722 97.7569Z" fill="#7563FF"/>
<path d="M86.723 99.7425H126.204C126.463 99.7472 126.721 99.6966 126.96 99.5941C127.198 99.4917 127.412 99.3396 127.588 99.1481C127.763 98.9566 127.896 98.73 127.977 98.4833C128.058 98.2366 128.086 97.9754 128.059 97.7172L125.846 72.4766C125.789 71.9285 125.533 71.4201 125.128 71.0463C124.723 70.6726 124.196 70.459 123.645 70.4455H84.1587C83.8989 70.4416 83.6413 70.4929 83.4029 70.5961C83.1645 70.6993 82.9508 70.8519 82.7759 71.044C82.601 71.2361 82.469 71.4631 82.3885 71.7101C82.308 71.9571 82.281 72.2183 82.3092 72.4766L84.5161 97.7172C84.5752 98.2652 84.8318 98.773 85.2379 99.1457C85.644 99.5184 86.1719 99.7306 86.723 99.7425Z" fill="#263238"/>
<path d="M86.1722 97.7569H126.237L124.013 72.3574H83.9482L86.1722 97.7569Z" fill="#7563FF"/>
<path opacity="0.4" d="M86.1722 97.7569H126.237L124.013 72.3574H83.9482L86.1722 97.7569Z" fill="white"/>
<path d="M99.318 73.7475L101.253 95.8735H86.5416L84.6014 73.7475H99.318ZM99.8399 73.1802H84L84.0567 73.7986L85.9913 95.9245L86.0367 96.4465H101.86L101.809 95.8281L99.8739 73.7021L99.8286 73.1858L99.8399 73.1802Z" fill="#7563FF"/>
<path d="M101.223 95.874H86.5352L84.6006 73.748H99.2888L101.223 95.874Z" fill="white"/>
<path d="M90.8589 80.5101H86.3883L85.9004 74.8936H90.3653L90.8589 80.5101Z" fill="#7563FF"/>
<g opacity="0.2">
<path d="M86.428 74.8936H85.9004L86.2805 79.2507H86.4223V78.933H86.8024V79.2507H86.9499L86.5698 74.8936H86.428ZM86.2465 77.231L86.1954 76.5956H86.5755L86.6322 77.231H86.2465ZM86.6436 77.3728L86.7003 78.0082H86.3145L86.2692 77.3728H86.6436ZM86.1784 76.4537L86.1273 75.8183H86.5074L86.5642 76.4537H86.1784ZM86.1103 75.6708L86.0592 75.0411H86.4394L86.4961 75.6708H86.1103ZM86.3826 78.7855L86.3316 78.1557H86.7117L86.7684 78.7855H86.3826Z" fill="black"/>
</g>
<g opacity="0.2">
<path d="M90.2402 74.8936H89.6729L90.053 79.2507H90.2402L90.2118 78.933H90.5976V79.2507H90.7451L90.365 74.8936H90.2402ZM90.0643 77.231L90.0076 76.5956H90.3934L90.4444 77.231H90.0643ZM90.4614 77.3728L90.5125 78.0082H90.1324L90.0757 77.3728H90.4614ZM89.9962 76.4537L89.9395 75.8183H90.3253L90.3763 76.4537H89.9962ZM89.9281 75.6708L89.8714 75.0411H90.2402L90.2912 75.6708H89.9281ZM90.2005 78.7855L90.1437 78.1557H90.5295L90.5806 78.7855H90.2005Z" fill="black"/>
</g>
<path opacity="0.2" d="M90.0705 79.245L86.9558 79.2507L86.5757 74.8936H89.6903L90.0705 79.245Z" fill="white"/>
<path opacity="0.2" d="M89.6164 77.1289C89.639 77.2936 89.6252 77.4613 89.5758 77.6201C89.5264 77.7789 89.4427 77.9249 89.3307 78.0477C89.2187 78.1706 89.081 78.2673 88.9274 78.3311C88.7739 78.3949 88.6082 78.4241 88.442 78.4167C88.0905 78.4117 87.753 78.2777 87.4937 78.0403C87.2344 77.8029 87.0712 77.4786 87.0351 77.1289C87.0173 76.9646 87.0347 76.7984 87.0863 76.6413C87.1378 76.4843 87.2222 76.34 87.3339 76.2181C87.4455 76.0963 87.5819 75.9996 87.7338 75.9346C87.8858 75.8696 88.0499 75.8377 88.2151 75.8411C88.5657 75.8475 88.9017 75.9821 89.1599 76.2193C89.4181 76.4566 89.5804 76.7801 89.6164 77.1289Z" fill="white"/>
<path d="M87.9199 76.4536L89.0546 77.2025L88.0504 77.9457L87.9199 76.4536Z" fill="white"/>
<path d="M91.4712 87.5455H87.0063L86.5127 81.9346H90.9776L91.4712 87.5455Z" fill="#7563FF"/>
<g opacity="0.2">
<path d="M87.046 81.9287H86.5127L86.8928 86.2858H87.0403L87.012 85.9681H87.4034V86.2858H87.5452L87.1651 81.9287H87.046ZM86.8644 84.2661L86.8077 83.6364H87.1935L87.2502 84.2661H86.8644ZM87.2616 84.4136L87.3183 85.049H86.9325L86.8758 84.4136H87.2616ZM86.7964 83.4889L86.7396 82.8535H87.1254L87.1822 83.4889H86.7964ZM86.7283 82.7116L86.6716 82.0762H87.0573L87.1141 82.7116H86.7283ZM87.0006 85.8263L86.9439 85.1909H87.3297L87.3864 85.8263H87.0006Z" fill="black"/>
</g>
<g opacity="0.2">
<path d="M90.836 81.9287H90.3027L90.6885 86.2858H90.8077V85.9681H91.1934L91.2218 86.2858H91.375L90.9892 81.9287H90.836ZM90.6545 84.2661L90.5977 83.6364H90.9835L91.0403 84.2661H90.6545ZM91.0516 84.4136L91.1083 85.049H90.7226L90.6658 84.4136H91.0516ZM90.5864 83.4889L90.5297 82.8535H90.9155L90.9722 83.4889H90.5864ZM90.5183 82.7116L90.4616 82.0762H90.8474L90.9041 82.7116H90.5183ZM90.7906 85.8263L90.7339 85.1909H91.1197L91.1764 85.8263H90.7906Z" fill="black"/>
</g>
<path opacity="0.2" d="M90.6828 86.2803L87.5681 86.286L87.188 81.9346H90.3083L90.6828 86.2803Z" fill="white"/>
<path opacity="0.2" d="M90.2403 84.164C90.259 84.3287 90.2422 84.4956 90.191 84.6533C90.1399 84.8111 90.0556 84.956 89.9439 85.0785C89.8321 85.201 89.6955 85.2982 89.5431 85.3636C89.3907 85.4289 89.2261 85.461 89.0603 85.4575C88.7092 85.4496 88.3731 85.3139 88.1151 85.0757C87.857 84.8375 87.6948 84.5133 87.659 84.164C87.6364 83.9992 87.6502 83.8315 87.6996 83.6728C87.749 83.514 87.8327 83.368 87.9447 83.2451C88.0567 83.1223 88.1944 83.0255 88.348 82.9618C88.5015 82.898 88.6672 82.8687 88.8334 82.8761C89.1845 82.8824 89.5213 83.0168 89.7804 83.2539C90.0395 83.4911 90.2031 83.8147 90.2403 84.164Z" fill="white"/>
<path d="M88.5381 83.4946L89.6727 84.2378L88.6686 84.9867L88.5381 83.4946Z" fill="white"/>
<path d="M96.7134 80.5101H92.2485L91.7549 74.8936H96.2255L96.7134 80.5101Z" fill="#7563FF"/>
<g opacity="0.2">
<path d="M92.2882 74.8936H91.7549L92.1407 79.2507H92.2825V78.933H92.6683L92.6967 79.2507H92.8442L92.4584 74.8936H92.2882ZM92.1066 77.231L92.0499 76.5956H92.4357L92.4924 77.231H92.1066ZM92.5038 77.3785L92.5605 78.0082H92.1747L92.118 77.3785H92.5038ZM92.0385 76.4537L91.9818 75.8183H92.3676L92.4243 76.4537H92.0385ZM91.9705 75.6708L91.9137 75.0411H92.2995L92.3563 75.6708H91.9705ZM92.2428 78.7911L92.1861 78.1557H92.5718L92.6286 78.7911H92.2428Z" fill="black"/>
</g>
<g opacity="0.2">
<path d="M96.0779 74.8936H95.5503L95.9304 79.2507H96.0722V78.933H96.4523L96.4807 79.2507H96.6282L96.2481 74.8936H96.0779ZM95.8964 77.231L95.8453 76.5956H96.2254L96.2821 77.231H95.8964ZM96.2935 77.3785L96.3502 78.0082H95.9644L95.9134 77.3785H96.2935ZM95.8283 76.4537L95.7772 75.8183H96.1573L96.2141 76.4537H95.8283ZM95.7602 75.6708L95.7091 75.0411H96.0893L96.146 75.6708H95.7602ZM96.0325 78.7911L95.9815 78.1557H96.3616L96.4183 78.7911H96.0325Z" fill="black"/>
</g>
<path opacity="0.2" d="M95.9306 79.245L92.8103 79.2507L92.4302 74.8936H95.5505L95.9306 79.245Z" fill="white"/>
<path opacity="0.2" d="M95.4768 77.1289C95.4995 77.2941 95.4855 77.4623 95.4358 77.6216C95.3861 77.7808 95.3019 77.9271 95.1893 78.05C95.0766 78.173 94.9382 78.2696 94.7839 78.333C94.6297 78.3964 94.4633 78.425 94.2967 78.4167C93.9462 78.4103 93.6101 78.2757 93.3519 78.0385C93.0938 77.8012 92.9314 77.4777 92.8954 77.1289C92.8776 76.9646 92.8951 76.7984 92.9466 76.6413C92.9982 76.4843 93.0825 76.34 93.1942 76.2181C93.3059 76.0963 93.4422 75.9996 93.5942 75.9346C93.7461 75.8696 93.9102 75.8377 94.0755 75.8411C94.426 75.8475 94.7621 75.9821 95.0203 76.2193C95.2784 76.4566 95.4408 76.7801 95.4768 77.1289Z" fill="white"/>
<path d="M93.7803 76.4536L94.9149 77.2025L93.9108 77.9457L93.7803 76.4536Z" fill="white"/>
<path d="M92.0898 94.5858H87.6193L87.1313 88.9692H91.5962L92.0898 94.5858Z" fill="#7563FF"/>
<g opacity="0.2">
<path d="M87.659 88.9692H87.1313L87.5115 93.3263H87.6533V93.0086H88.0334L88.0618 93.3263H88.2093L87.8292 88.9692H87.659ZM87.4774 91.3066L87.4264 90.6712H87.8065L87.8632 91.3066H87.4774ZM87.8746 91.4485L87.9313 92.0839H87.5455L87.4944 91.4485H87.8746ZM87.4093 90.5237L87.3583 89.894H87.7384L87.7951 90.5237H87.4093ZM87.3413 89.7465L87.2902 89.1167H87.6703L87.727 89.7522L87.3413 89.7465ZM87.6136 92.8611L87.5625 92.2257H87.971L88.0277 92.8611H87.6136Z" fill="black"/>
</g>
<g opacity="0.2">
<path d="M91.449 88.9692H90.9214L91.3015 93.3263H91.449V93.0086H91.8348L91.8632 93.3263H92.005L91.6249 88.9692H91.449ZM91.2731 91.3066L91.2164 90.6712H91.6022L91.6532 91.3066H91.2731ZM91.6703 91.4485L91.7213 92.0839H91.3412L91.2845 91.4485H91.6703ZM91.2051 90.5237L91.1483 89.894H91.5341L91.5852 90.5237H91.2051ZM91.137 89.7465L91.0802 89.1111H91.466L91.5171 89.7465H91.137ZM91.4093 92.8611L91.3526 92.2257H91.7383L91.7894 92.8611H91.4093Z" fill="black"/>
</g>
<path opacity="0.2" d="M91.3014 93.3207L88.1868 93.3263L87.8066 88.9692H90.9213L91.3014 93.3207Z" fill="white"/>
<path opacity="0.2" d="M90.8474 91.2045C90.8746 91.3714 90.8642 91.5423 90.817 91.7046C90.7697 91.8669 90.6868 92.0167 90.5742 92.1428C90.4616 92.269 90.3223 92.3684 90.1664 92.4338C90.0104 92.4992 89.8419 92.5289 89.673 92.5208C89.3218 92.5144 88.985 92.3801 88.7259 92.1429C88.4669 91.9058 88.3033 91.5822 88.266 91.2329C88.2482 91.0686 88.2657 90.9024 88.3172 90.7453C88.3687 90.5883 88.4532 90.444 88.5648 90.3221C88.6765 90.2003 88.8128 90.1036 88.9648 90.0386C89.1167 89.9736 89.2808 89.9417 89.4461 89.9451C89.7923 89.9507 90.1248 90.0812 90.3823 90.3127C90.6398 90.5442 90.805 90.8609 90.8474 91.2045Z" fill="white"/>
<path d="M89.1509 90.5293L90.2912 91.2725L89.2814 92.0214L89.1509 90.5293Z" fill="white"/>
<path opacity="0.1" d="M97.7008 70.4629L89.8716 99.7316H92.5097L100.248 70.4629H97.7008Z" fill="white"/>
<path opacity="0.1" d="M101.763 70.4629L93.9395 99.7316H99.1589L106.897 70.4629H101.763Z" fill="white"/>
<path d="M125.262 92.2882H99.8055L98.4893 77.2539H123.945L125.262 92.2882Z" fill="#263238"/>
<path d="M114.874 83.1142C114.921 83.5177 114.881 83.9267 114.757 84.3134C114.632 84.7001 114.426 85.0556 114.152 85.3558C113.878 85.6559 113.543 85.8938 113.17 86.0532C112.796 86.2127 112.392 86.2899 111.986 86.2799C111.125 86.2637 110.299 85.9328 109.664 85.3496C109.03 84.7664 108.631 83.9713 108.542 83.1142C108.494 82.7102 108.534 82.3006 108.658 81.9132C108.782 81.5257 108.988 81.1695 109.262 80.8687C109.536 80.5679 109.871 80.3295 110.245 80.1698C110.619 80.01 111.023 79.9326 111.43 79.9428C112.293 79.9579 113.12 80.2892 113.755 80.8738C114.39 81.4583 114.788 82.2555 114.874 83.1142Z" fill="white"/>
<path d="M113.444 83.2275L110.676 81.707L110.942 84.7536L113.444 83.2275Z" fill="#263238"/>
<path d="M124.666 89.338H99.8847L99.8394 88.8501H124.62L124.666 89.338Z" fill="white"/>
<path d="M113.773 89.338H99.8847L99.8394 88.8501H113.733L113.773 89.338Z" fill="#7563FF"/>
<path d="M100.311 91.1478H100.072L99.9873 90.2061H100.226L100.311 91.1478Z" fill="white"/>
<path d="M100.724 91.1478H100.486L100.407 90.2061H100.645L100.724 91.1478Z" fill="white"/>
<path d="M102.875 91.1478H101.933L101.854 90.2061H102.795L102.875 91.1478Z" fill="white"/>
<path d="M104.123 90.6769L104.895 90.2061L104.974 91.1478L104.123 90.6769Z" fill="white"/>
<path d="M104.163 91.1478H103.924L103.839 90.2061H104.078L104.163 91.1478Z" fill="white"/>
<path d="M106.755 90.6769L105.904 90.2061L105.984 91.1478L106.755 90.6769Z" fill="white"/>
<path d="M106.8 91.1478H107.039L106.954 90.2061H106.715L106.8 91.1478Z" fill="white"/>
<path d="M108.503 90.1885L108.083 90.7558H109.025L108.503 90.1885Z" fill="white"/>
<path d="M109.076 91.1645L109.059 90.9263H108.083L108.106 91.1645H109.076Z" fill="white"/>
<path d="M124.847 91.2216H123.032L122.936 90.0869H124.745L124.847 91.2216ZM123.174 91.0684H124.677L124.609 90.2685H123.106L123.174 91.0684Z" fill="white"/>
<path d="M121.693 91.2215H121.324L121.296 90.8981L121.449 90.8867L121.466 91.0683H121.693V91.2215Z" fill="white"/>
<path d="M122.504 91.2215H122.135V91.0683H122.339L122.322 90.8981L122.476 90.8867L122.504 91.2215Z" fill="white"/>
<path d="M122.289 90.4665L122.266 90.2679H122.056V90.1147H122.408L122.436 90.4551L122.289 90.4665Z" fill="white"/>
<path d="M121.262 90.4665L121.228 90.1147H121.608V90.2679H121.398L121.415 90.4551L121.262 90.4665Z" fill="white"/>
<path opacity="0.1" d="M103.244 77.2539H106.12L102.71 92.2882H99.7998L103.244 77.2539Z" fill="white" stroke="#263238" stroke-linecap="round" stroke-linejoin="round"/>
<path opacity="0.1" d="M117.552 92.2882L120.995 77.2539H123.878L120.468 92.2882H117.552Z" fill="white" stroke="#263238" stroke-linecap="round" stroke-linejoin="round"/>
<g opacity="0.1">
<path d="M124.104 79.0806L121.869 88.85L121.756 89.3379L121.563 90.1889L121.381 90.9718L121.081 92.2881H121.829L122.306 90.1889L122.499 89.3379L122.607 88.85L124.303 81.3783" fill="white"/>
<path d="M124.104 79.0806L121.869 88.85L121.756 89.3379L121.563 90.1889L121.381 90.9718L121.081 92.2881H121.829L122.306 90.1889L122.499 89.3379L122.607 88.85L124.303 81.3783" stroke="#263238" stroke-linecap="round" stroke-linejoin="round"/>
</g>
<path d="M123.945 77.2537H98.4893L98.3701 75.8921H123.826L123.945 77.2537Z" fill="#7563FF"/>
<path d="M100.293 76.5839C100.299 76.6375 100.293 76.6917 100.276 76.7429C100.259 76.7942 100.232 76.8412 100.195 76.8809C100.159 76.9206 100.114 76.9521 100.065 76.9733C100.015 76.9944 99.9615 77.0048 99.9076 77.0037C99.7933 77.0027 99.6834 76.9592 99.5995 76.8815C99.5156 76.8039 99.4636 76.6978 99.4537 76.5839C99.4482 76.5307 99.4538 76.477 99.4704 76.4262C99.487 76.3754 99.5141 76.3287 99.55 76.2891C99.5859 76.2494 99.6297 76.2178 99.6786 76.1963C99.7275 76.1748 99.7804 76.1638 99.8339 76.1641C99.9484 76.1662 100.058 76.2099 100.143 76.2872C100.227 76.3645 100.281 76.47 100.293 76.5839Z" fill="white"/>
<path d="M101.553 76.584C101.559 76.6376 101.553 76.6918 101.536 76.743C101.519 76.7942 101.491 76.8413 101.455 76.881C101.418 76.9207 101.374 76.9522 101.324 76.9734C101.275 76.9945 101.221 77.0049 101.167 77.0038C101.053 77.0028 100.943 76.9593 100.859 76.8816C100.775 76.804 100.723 76.6979 100.713 76.584C100.707 76.5307 100.712 76.4766 100.728 76.4253C100.744 76.3741 100.771 76.327 100.807 76.2872C100.843 76.2474 100.888 76.2158 100.937 76.1945C100.986 76.1733 101.04 76.1629 101.093 76.1642C101.208 76.1662 101.318 76.21 101.402 76.2873C101.487 76.3646 101.54 76.4701 101.553 76.584Z" fill="white"/>
<path d="M102.807 76.584C102.814 76.6373 102.809 76.6914 102.792 76.7426C102.776 76.7938 102.749 76.8409 102.713 76.8808C102.677 76.9206 102.633 76.9522 102.583 76.9734C102.534 76.9946 102.481 77.005 102.427 77.0038C102.312 77.0017 102.203 76.9579 102.118 76.8806C102.033 76.8034 101.98 76.6979 101.967 76.584C101.962 76.5303 101.968 76.4761 101.985 76.4249C102.001 76.3737 102.029 76.3267 102.066 76.287C102.102 76.2473 102.147 76.2158 102.196 76.1946C102.246 76.1734 102.299 76.163 102.353 76.1641C102.468 76.1651 102.577 76.2087 102.661 76.2863C102.745 76.3639 102.797 76.4701 102.807 76.584Z" fill="white"/>
<path d="M76.1249 117.313H61.5728L57.7773 73.8613H72.3237L76.1249 117.313Z" fill="#7563FF"/>
<path opacity="0.3" d="M76.1249 117.313H61.5728L57.7773 73.8613H72.3237L76.1249 117.313Z" fill="black"/>
<path d="M77.5549 117.313H63.0028L59.2017 73.8613H73.7537L77.5549 117.313Z" fill="#7563FF"/>
<path opacity="0.5" d="M66.9457 77.2025C66.2364 77.1894 65.5324 77.3276 64.8807 77.6079C64.229 77.8882 63.6445 78.3042 63.1662 78.8281C62.6879 79.3521 62.3268 79.9719 62.1068 80.6464C61.8869 81.3209 61.8132 82.0345 61.8907 82.7397C62.0456 84.2391 62.7439 85.6301 63.8538 86.6501C64.9638 87.6702 66.4086 88.2488 67.9158 88.2768C68.6246 88.2891 69.328 88.1503 69.979 87.8697C70.63 87.589 71.2138 87.1729 71.6914 86.649C72.1691 86.1252 72.5298 85.5056 72.7494 84.8316C72.969 84.1575 73.0425 83.4444 72.9651 82.7397C72.8126 81.2402 72.1159 79.8486 71.0066 78.8283C69.8974 77.8079 68.4526 77.2295 66.9457 77.2025Z" fill="black"/>
<path d="M65.9302 83.1147C65.9718 83.5403 66.1679 83.9359 66.4816 84.2266C66.7953 84.5173 67.2046 84.6828 67.6322 84.6919C67.834 84.6956 68.0343 84.6562 68.2197 84.5762C68.4051 84.4963 68.5713 84.3777 68.7071 84.2284C68.843 84.0791 68.9454 83.9025 69.0076 83.7105C69.0697 83.5184 69.0902 83.3153 69.0675 83.1147C69.0223 82.691 68.8249 82.2982 68.5118 82.0091C68.1988 81.7201 67.7915 81.5545 67.3655 81.5432C67.1642 81.5396 66.9645 81.5789 66.7795 81.6585C66.5946 81.7381 66.4287 81.8561 66.293 82.0048C66.1572 82.1534 66.0546 82.3293 65.9921 82.5207C65.9295 82.7121 65.9084 82.9146 65.9302 83.1147Z" fill="#7563FF"/>
<path opacity="0.5" d="M65.7148 93.5414C65.7897 94.2731 66.13 94.9519 66.6716 95.4496C67.2131 95.9472 67.9183 96.2291 68.6536 96.2419C68.9993 96.248 69.3424 96.1804 69.6599 96.0436C69.9775 95.9067 70.2622 95.7038 70.4952 95.4483C70.7282 95.1928 70.904 94.8905 71.011 94.5617C71.118 94.2329 71.1538 93.8851 71.1158 93.5414C71.0411 92.8092 70.701 92.1297 70.1595 91.6311C69.6181 91.1326 68.9129 90.8495 68.1771 90.8352C67.8311 90.83 67.4879 90.8983 67.1704 91.0358C66.8528 91.1733 66.5682 91.3768 66.3353 91.6327C66.1024 91.8887 65.9267 92.1912 65.8197 92.5203C65.7127 92.8494 65.677 93.1975 65.7148 93.5414Z" fill="black"/>
<path opacity="0.5" d="M66.6731 100.463C66.7356 101.096 67.0285 101.684 67.4961 102.115C67.9636 102.546 68.5733 102.79 69.209 102.801C69.5085 102.806 69.8058 102.748 70.0811 102.63C70.3563 102.512 70.6031 102.336 70.8051 102.115C71.007 101.894 71.1593 101.632 71.252 101.347C71.3446 101.062 71.3754 100.761 71.3422 100.463C71.2772 99.8304 70.9828 99.2433 70.5145 98.8126C70.0463 98.382 69.4366 98.1377 68.8006 98.1258C68.5016 98.1207 68.2049 98.1794 67.9304 98.298C67.6558 98.4166 67.4097 98.5923 67.2084 98.8135C67.0071 99.0347 66.8552 99.2962 66.7629 99.5807C66.6706 99.8651 66.64 100.166 66.6731 100.463Z" fill="black"/>
<path opacity="0.5" d="M67.5809 106.829C67.6362 107.362 67.8849 107.857 68.2799 108.22C68.675 108.582 69.1892 108.788 69.7254 108.797C69.9774 108.802 70.2276 108.753 70.4591 108.654C70.6907 108.554 70.8983 108.406 71.068 108.22C71.2377 108.033 71.3657 107.813 71.4433 107.573C71.521 107.333 71.5465 107.079 71.5181 106.829C71.4653 106.295 71.2182 105.8 70.8238 105.437C70.4294 105.074 69.9153 104.869 69.3793 104.86C69.127 104.855 68.8767 104.905 68.6449 105.004C68.4131 105.104 68.2052 105.252 68.035 105.438C67.8649 105.624 67.7363 105.845 67.658 106.084C67.5797 106.324 67.5534 106.578 67.5809 106.829Z" fill="black"/>
<path opacity="0.5" d="M68.3926 112.105C68.4382 112.539 68.6411 112.942 68.963 113.236C69.2849 113.531 69.7036 113.698 70.1399 113.705C70.3452 113.71 70.5491 113.67 70.7379 113.59C70.9267 113.509 71.0961 113.389 71.2347 113.237C71.3732 113.086 71.4779 112.906 71.5415 112.711C71.6052 112.516 71.6263 112.309 71.6037 112.105C71.5605 111.67 71.3585 111.265 71.0362 110.969C70.7139 110.673 70.2939 110.506 69.8563 110.5C69.6507 110.496 69.4468 110.536 69.258 110.618C69.0692 110.699 68.8999 110.82 68.7614 110.972C68.6229 111.123 68.5184 111.303 68.4548 111.499C68.3912 111.694 68.37 111.901 68.3926 112.105Z" fill="black"/>
<path d="M150.19 117.257H135.638L131.837 73.8047H146.389L150.19 117.257Z" fill="#7563FF"/>
<path opacity="0.3" d="M150.19 117.257H135.638L131.837 73.8047H146.389L150.19 117.257Z" fill="black"/>
<path d="M151.62 117.256H137.068L133.267 73.8042H147.819L151.62 117.256Z" fill="#7563FF"/>
<path opacity="0.5" d="M141.011 77.1459C140.302 77.1328 139.598 77.271 138.946 77.5513C138.294 77.8316 137.71 78.2476 137.232 78.7715C136.753 79.2954 136.392 79.9153 136.172 80.5898C135.952 81.2643 135.879 81.9779 135.956 82.683C136.111 84.1825 136.809 85.5735 137.919 86.5935C139.029 87.6135 140.474 88.1922 141.981 88.2202C142.69 88.2325 143.393 88.0937 144.044 87.813C144.695 87.5323 145.279 87.1162 145.757 86.5924C146.235 86.0686 146.595 85.449 146.815 84.7749C147.034 84.1008 147.108 83.3877 147.03 82.683C146.878 81.1836 146.181 79.792 145.072 78.7716C143.963 77.7512 142.518 77.1728 141.011 77.1459Z" fill="black"/>
<path d="M139.995 83.0628C140.038 83.4874 140.235 83.8816 140.548 84.1711C140.862 84.4606 141.271 84.6254 141.697 84.6343C141.899 84.6379 142.098 84.5986 142.283 84.519C142.468 84.4394 142.634 84.3214 142.77 84.1727C142.906 84.024 143.008 83.8482 143.071 83.6568C143.133 83.4654 143.154 83.2629 143.133 83.0628C143.089 82.6381 142.892 82.2439 142.579 81.9537C142.265 81.6635 141.857 81.4971 141.431 81.4856C141.229 81.4819 141.028 81.5213 140.843 81.6012C140.658 81.6812 140.492 81.7997 140.356 81.949C140.22 82.0983 140.117 82.2749 140.055 82.467C139.993 82.6591 139.973 82.8622 139.995 83.0628Z" fill="#7563FF"/>
<path opacity="0.5" d="M139.779 93.4851C139.854 94.2167 140.195 94.8956 140.736 95.3932C141.278 95.8908 141.983 96.1727 142.718 96.1856C143.064 96.1917 143.407 96.1241 143.724 95.9872C144.042 95.8504 144.327 95.6474 144.56 95.3919C144.793 95.1364 144.968 94.8342 145.076 94.5054C145.183 94.1766 145.218 93.8287 145.18 93.4851C145.106 92.7534 144.765 92.0746 144.224 91.5769C143.682 91.0793 142.977 90.7974 142.242 90.7846C141.896 90.7784 141.553 90.8461 141.235 90.9829C140.918 91.1198 140.633 91.3227 140.4 91.5782C140.167 91.8337 139.991 92.1359 139.884 92.4647C139.777 92.7935 139.741 93.1414 139.779 93.4851Z" fill="black"/>
<path opacity="0.5" d="M140.733 100.401C140.795 101.034 141.088 101.622 141.556 102.053C142.023 102.483 142.633 102.728 143.269 102.738C143.568 102.744 143.865 102.686 144.141 102.568C144.416 102.45 144.663 102.274 144.865 102.053C145.067 101.832 145.219 101.57 145.312 101.285C145.404 101 145.435 100.699 145.402 100.401C145.337 99.7687 145.042 99.1823 144.574 98.7526C144.105 98.3229 143.496 98.0798 142.86 98.0693C142.561 98.0634 142.265 98.1213 141.99 98.2393C141.716 98.3572 141.47 98.5324 141.268 98.7531C141.067 98.9739 140.915 99.2351 140.822 99.5192C140.73 99.8034 140.7 100.104 140.733 100.401Z" fill="black"/>
<path opacity="0.5" d="M141.647 106.772C141.702 107.305 141.951 107.8 142.346 108.163C142.741 108.525 143.255 108.731 143.791 108.74C144.043 108.745 144.294 108.696 144.525 108.596C144.757 108.497 144.964 108.349 145.134 108.162C145.304 107.976 145.432 107.756 145.509 107.516C145.587 107.276 145.612 107.022 145.584 106.772C145.531 106.238 145.284 105.743 144.89 105.38C144.495 105.017 143.981 104.812 143.445 104.803C143.193 104.798 142.943 104.847 142.711 104.947C142.479 105.047 142.271 105.195 142.101 105.381C141.931 105.567 141.802 105.787 141.724 106.027C141.646 106.267 141.619 106.521 141.647 106.772Z" fill="black"/>
<path opacity="0.5" d="M142.435 112.048C142.48 112.483 142.683 112.886 143.005 113.181C143.327 113.477 143.745 113.645 144.182 113.654C144.388 113.657 144.592 113.617 144.781 113.536C144.969 113.454 145.139 113.334 145.277 113.182C145.416 113.03 145.52 112.85 145.584 112.655C145.647 112.459 145.669 112.252 145.646 112.048C145.602 111.613 145.399 111.209 145.077 110.913C144.755 110.618 144.336 110.45 143.899 110.443C143.693 110.44 143.49 110.481 143.301 110.562C143.113 110.644 142.944 110.765 142.806 110.916C142.668 111.068 142.563 111.247 142.499 111.442C142.435 111.637 142.413 111.844 142.435 112.048Z" fill="black"/>
<path d="M34.2334 60.9146L31.584 17.0031C31.584 16.9464 31.584 16.8897 31.584 16.8329C31.59 16.2742 31.8173 15.7406 32.2161 15.3492C32.615 14.9579 33.1527 14.7406 33.7115 14.7452L150.69 14.4785C151.301 14.487 151.888 14.725 152.332 15.1453C152.777 15.5656 153.047 16.1376 153.089 16.7478L155.739 60.6593C155.739 60.7161 155.739 60.7785 155.739 60.8352C155.736 61.1116 155.679 61.3847 155.57 61.639C155.462 61.8932 155.304 62.1236 155.106 62.3169C154.909 62.5103 154.675 62.6628 154.419 62.7658C154.162 62.8688 153.888 62.9203 153.611 62.9173L36.6276 63.1839C36.0169 63.1741 35.4321 62.9355 34.9888 62.5153C34.5455 62.0951 34.276 61.5239 34.2334 60.9146Z" fill="white"/>
<path d="M77.6684 14.9664H45.5574L45.5347 14.7225L77.64 14.6431L77.6684 14.9664Z" fill="white"/>
<path d="M155.739 60.8237C155.731 61.3814 155.503 61.9136 155.105 62.3037C154.706 62.6939 154.169 62.9103 153.611 62.9058L36.6276 63.1724C36.0165 63.1638 35.431 62.9257 34.9874 62.5052C34.5438 62.0848 34.2747 61.5129 34.2334 60.9031L31.584 16.9916C31.584 16.9349 31.584 16.8725 31.584 16.8157C31.5915 16.2575 31.8193 15.7248 32.2178 15.3337C32.6163 14.9426 33.1532 14.7249 33.7115 14.728H42.7037L42.5221 12.6345C42.4737 12.1952 42.5194 11.7506 42.6564 11.3304C42.7933 10.9102 43.0182 10.524 43.3162 10.1975C43.6142 9.87111 43.9783 9.61197 44.3843 9.43739C44.7904 9.26281 45.2289 9.17681 45.6708 9.18512H70.8774C71.8164 9.20121 72.7168 9.56127 73.408 10.197C74.0992 10.8328 74.5331 11.7001 74.6275 12.6345L74.809 14.6485L150.695 14.4783C151.305 14.4908 151.889 14.7302 152.331 15.1499C152.774 15.5696 153.044 16.1393 153.089 16.7477L155.739 60.6535C155.739 60.7102 155.739 60.7499 155.739 60.8237Z" fill="#5E5DCB"/>
<path d="M70.8722 9.17963C71.8111 9.19572 72.7116 9.55578 73.4028 10.1916C74.094 10.8273 74.5279 11.6946 74.6222 12.629L74.8038 14.643L150.69 14.4728C151.3 14.4853 151.883 14.7248 152.326 15.1444C152.769 15.5641 153.039 16.1338 153.084 16.7422L155.734 60.648C155.734 60.7161 155.734 60.7728 155.734 60.8295C155.728 61.3838 155.503 61.9134 155.109 62.3032C154.715 62.693 154.183 62.9117 153.629 62.9116L36.645 63.1783C36.0339 63.1697 35.4484 62.9315 35.0048 62.5111C34.5613 62.0907 34.2921 61.5187 34.2509 60.909L31.6014 16.9975C31.6014 16.9407 31.6014 16.8783 31.6014 16.8216C31.6089 16.2653 31.8351 15.7343 32.2312 15.3435C32.6272 14.9528 33.1612 14.7338 33.7176 14.7338H42.7098L42.5282 12.6404C42.4798 12.201 42.5255 11.7565 42.6625 11.3362C42.7994 10.916 43.0243 10.5298 43.3223 10.2034C43.6203 9.87696 43.9844 9.61782 44.3904 9.44324C44.7965 9.26866 45.235 9.18266 45.6769 9.19098H70.8835M70.8835 7.45494H45.6656C44.9827 7.44658 44.3058 7.58268 43.6792 7.8543C43.0527 8.12592 42.4906 8.52693 42.0299 9.03103C41.5692 9.53513 41.2203 10.1309 41.006 10.7794C40.7917 11.4278 40.7169 12.1142 40.7865 12.7935V13.0034H33.6835C32.6692 13.0034 31.6956 13.4028 30.9735 14.1153C30.2515 14.8278 29.8391 15.796 29.8257 16.8102V17.1053L32.4751 61.0224C32.5437 62.0687 33.005 63.0505 33.7667 63.7711C34.5284 64.4917 35.5341 64.898 36.5826 64.9086L153.595 64.642C154.609 64.6436 155.582 64.2454 156.304 63.5338C157.027 62.8223 157.439 61.8546 157.453 60.8409C157.453 60.7274 157.453 60.6253 157.453 60.5175L154.803 16.6287C154.733 15.5833 154.273 14.6025 153.513 13.8813C152.753 13.1602 151.749 12.7516 150.701 12.7368H150.667L76.3469 12.9013L76.3072 12.4758C76.1879 11.1099 75.5661 9.83671 74.562 8.90289C73.558 7.96906 72.2432 7.44099 70.8722 7.4209L70.8835 7.45494Z" fill="#7563FF"/>
<path d="M63.871 5.021H37.8872V37.6936H63.871V5.021Z" fill="#7563FF"/>
<g opacity="0.2">
<path d="M40.9735 5.021H37.8872V30.3637H38.7325V28.5199H41.0019V30.3637H41.8472V5.021H40.9735ZM38.7042 18.637V14.9493H40.9735V18.637H38.7042ZM40.9735 19.4766V23.1643H38.7042V19.4766H40.9735ZM38.7042 14.104V10.4163H40.9735V14.104H38.7042ZM38.7042 9.56533V5.87767H40.9735V9.56533H38.7042ZM38.7042 27.7199V24.0323H40.9735V27.7199H38.7042Z" fill="black"/>
</g>
<g opacity="0.2">
<path d="M63.0083 5.021H59.9277V30.3637H60.7731V28.5199H63.0083V30.3637H63.8537V5.021H63.0083ZM60.7731 18.637V14.9493H63.0083V18.637H60.7731ZM63.0083 19.4766V23.1643H60.7958V19.4766H63.0083ZM60.7731 14.104V10.4163H63.0083V14.104H60.7731ZM60.7731 9.56533V5.87767H63.0083V9.56533H60.7731ZM60.7731 27.7199V24.0323H63.0083V27.7199H60.7731Z" fill="black"/>
</g>
<path opacity="0.2" d="M59.9503 30.3297L41.8184 30.3637V5.021H59.9503V30.3297Z" fill="white"/>
<path opacity="0.2" d="M58.3847 18.0241C58.3858 19.509 57.9464 20.961 57.1221 22.1962C56.2977 23.4314 55.1256 24.3943 53.7538 24.9631C52.3821 25.5319 50.8724 25.681 49.4159 25.3916C47.9594 25.1021 46.6215 24.3872 45.5715 23.3371C44.5214 22.2871 43.8064 20.9492 43.517 19.4926C43.2276 18.0361 43.3767 16.5265 43.9455 15.1548C44.5143 13.783 45.4772 12.6108 46.7124 11.7865C47.9476 10.9622 49.3995 10.5228 50.8845 10.5239C52.8737 10.5239 54.7814 11.3141 56.1879 12.7207C57.5945 14.1272 58.3847 16.0349 58.3847 18.0241Z" fill="white"/>
<path d="M48.8647 14.104L55.094 18.4384L48.8647 22.7785V14.104Z" fill="white"/>
<path d="M55.0944 18.4382L54.6178 18.7673L48.8594 14.7619V14.0981L55.0944 18.4382Z" fill="#7563FF"/>
<path d="M47.8269 36.2752V33.6825L46.5561 35.8213H46.1022L44.8541 33.7392V36.2752H43.918V31.9521H44.7406L46.3632 34.6413L47.9517 31.9521H48.7743V36.2752H47.8269Z" fill="white"/>
<path d="M51.3616 34.5789L50.7942 35.1859V36.2752H49.79V31.9521H50.7829V33.9718L52.6948 31.9521H53.8294L52.0367 33.8811L53.9372 36.2752H52.7685L51.3616 34.5789Z" fill="white"/>
<path d="M58.2659 31.9521L56.3937 36.2752H55.4066L53.54 31.9521H54.618L55.9342 35.0441L57.2674 31.9521H58.2659Z" fill="white"/>
<path d="M92.1977 12.2998H66.2139V44.9725H92.1977V12.2998Z" fill="#7563FF"/>
<g opacity="0.2">
<path d="M69.3002 12.2998H66.2139V37.6425H67.0592V35.7873H69.3285V37.6312H70.1739V12.2998H69.3002ZM67.0308 25.9158V22.2281H69.3002V25.9158H67.0308ZM69.3002 26.7611V30.4488H67.0308V26.7611H69.3002ZM67.0308 21.3828V17.6951H69.3002V21.3828H67.0308ZM67.0308 16.8441V13.1565H69.3002V16.8441H67.0308ZM67.0308 34.9647V31.2487H69.3002V34.9363L67.0308 34.9647Z" fill="black"/>
</g>
<g opacity="0.2">
<path d="M91.375 12.2998H88.2944V37.6425H89.1057V35.7873H91.375V37.6312H92.2204V12.2998H91.375ZM89.1398 25.9158V22.2281H91.375V25.9158H89.1398ZM91.375 26.7611V30.4488H89.1057V26.7611H91.375ZM89.1057 21.3601V17.6724H91.375V21.3601H89.1057ZM89.1057 16.8214V13.1338H91.375V16.8214H89.1057ZM89.1057 34.942V31.2487H91.375V34.9363L89.1057 34.942Z" fill="black"/>
</g>
<path opacity="0.2" d="M88.2774 37.6142L70.1455 37.6425V12.2998H88.2774V37.6142Z" fill="white"/>
<path opacity="0.2" d="M86.7118 25.3085C86.7118 26.7933 86.2715 28.2447 85.4465 29.4791C84.6215 30.7136 83.4489 31.6756 82.077 32.2435C80.7052 32.8115 79.1957 32.9598 77.7396 32.6697C76.2835 32.3796 74.9461 31.6642 73.8966 30.6139C72.8471 29.5637 72.1327 28.2257 71.8437 26.7694C71.5548 25.313 71.7042 23.8037 72.2732 22.4323C72.8421 21.0609 73.8051 19.889 75.0401 19.0649C76.2752 18.2409 77.7269 17.8016 79.2117 17.8027C80.1971 17.8027 81.1728 17.9969 82.0832 18.3742C82.9935 18.7515 83.8205 19.3044 84.5171 20.0015C85.2136 20.6985 85.7659 21.526 86.1425 22.4366C86.5191 23.3472 86.7125 24.3231 86.7118 25.3085Z" fill="white"/>
<path d="M77.1919 21.3823L83.4212 25.7224L77.1919 30.0568V21.3823Z" fill="white"/>
<path d="M83.4212 25.7167L82.9503 26.0458L77.1919 22.0404V21.3823L83.4212 25.7167Z" fill="#7563FF"/>
<path d="M76.5848 42.6351H74.5764L74.1963 43.5599H73.1694L75.0984 39.2368H76.0855L78.0201 43.5599H76.9706L76.5848 42.6351ZM76.2727 41.8749L75.5863 40.2183L74.9225 41.8749H76.2727Z" fill="white"/>
<path d="M82.3885 39.2368L80.5163 43.5599H79.5291L77.6626 39.2368H78.7462L80.0567 42.3231L81.3956 39.2368H82.3885Z" fill="white"/>
<path d="M82.7461 39.2368H83.7446V43.5599H82.7461V39.2368Z" fill="white"/>
<path d="M120.406 0H94.4219V32.6726H120.406V0Z" fill="#7563FF"/>
<g opacity="0.2">
<path d="M97.5025 0H94.4219V25.3427H95.2672V23.4989H97.5025V25.3427H98.3478V0H97.5025ZM95.2672 13.616V9.92831H97.5025V13.616H95.2672ZM97.5025 14.4556V18.1433H95.2672V14.4556H97.5025ZM95.2672 9.08298V5.39533H97.5025V9.08298H95.2672ZM95.2672 4.54433V0.839653H97.5025V4.52731L95.2672 4.54433ZM95.2672 22.6706V18.9829H97.5025V22.6706H95.2672Z" fill="black"/>
</g>
<g opacity="0.2">
<path d="M119.56 0H116.479V25.3427H117.324V23.4989H119.56V25.3427H120.405V0H119.56ZM117.324 13.616V9.92831H119.56V13.616H117.324ZM119.56 14.4556V18.1433H117.324V14.4556H119.56ZM117.324 9.08298V5.39533H119.56V9.08298H117.324ZM117.324 4.54433V0.839653H119.56V4.52731L117.324 4.54433ZM117.324 22.6706V18.9829H119.56V22.6706H117.324Z" fill="black"/>
</g>
<path opacity="0.2" d="M116.48 25.3087L98.3481 25.3427V0H116.48V25.3087Z" fill="white"/>
<path opacity="0.2" d="M114.914 13.0035C114.914 14.4869 114.474 15.937 113.65 17.1704C112.826 18.4038 111.654 19.3651 110.284 19.9328C108.913 20.5004 107.405 20.649 105.951 20.3596C104.496 20.0702 103.159 19.3558 102.11 18.3069C101.061 17.258 100.347 15.9216 100.058 14.4667C99.7683 13.0119 99.9168 11.5038 100.484 10.1334C101.052 8.7629 102.013 7.59154 103.247 6.76741C104.48 5.94329 105.93 5.50342 107.414 5.50342C109.403 5.50342 111.311 6.29361 112.717 7.70015C114.124 9.1067 114.914 11.0144 114.914 13.0035Z" fill="white"/>
<path d="M105.394 9.08301L111.629 13.4174L105.394 17.7575V9.08301Z" fill="white"/>
<path d="M111.629 13.4174L111.152 13.7465L105.394 9.74111V9.08301L111.629 13.4174Z" fill="#7563FF"/>
<path d="M104.356 31.2487V28.6504L103.085 30.7892H102.637L101.366 28.7071V31.2487H100.453V26.937H101.281L102.898 29.6205L104.492 26.937H105.315V31.2601L104.356 31.2487Z" fill="white"/>
<path d="M110.097 28.5028C110.097 29.4673 109.371 30.063 108.219 30.063H107.317V31.2487H106.319V26.937H108.191C109.343 26.937 110.097 27.5327 110.097 28.5028ZM109.082 28.5028C109.082 28.0263 108.775 27.7483 108.163 27.7483H107.317V29.2517H108.134C108.747 29.2517 109.053 28.9794 109.053 28.5028H109.082Z" fill="white"/>
<path d="M114.335 30.3523H113.631V31.2487H112.656V30.341H110.33V29.6659L112.366 26.937H113.416L111.527 29.5467H112.661V28.7355H113.603V29.5467H114.307L114.335 30.3523Z" fill="white"/>
<path d="M148.539 5.61084H122.556V38.2835H148.539V5.61084Z" fill="#7563FF"/>
<g opacity="0.2">
<path d="M125.642 5.61084H122.578V30.9536H123.423V29.1154H125.664V30.9536H126.51V5.61084H125.642ZM123.401 19.2268V15.5391H125.642V19.2268H123.401ZM125.642 20.0721V23.7598H123.401V20.0721H125.642ZM123.401 14.6938V11.0062H125.642V14.6938H123.401ZM123.401 10.1552V6.45617H125.642V10.1438L123.401 10.1552ZM123.401 28.3098V24.6221H125.642V28.3098H123.401Z" fill="black"/>
</g>
<g opacity="0.2">
<path d="M147.699 5.61084H144.619V30.9536H145.464V29.1154H147.699V30.9536H148.545V5.61084H147.699ZM145.464 19.2268V15.5391H147.699V19.2268H145.464ZM147.699 20.0721V23.7598H145.464V20.0721H147.699ZM145.464 14.6938V11.0062H147.699V14.6938H145.464ZM145.464 10.1552V6.45617H147.699V10.1438L145.464 10.1552ZM145.464 28.3098V24.6221H147.699V28.3098H145.464Z" fill="black"/>
</g>
<path opacity="0.2" d="M144.62 30.9252L126.488 30.9536V5.61084H144.62V30.9252Z" fill="white"/>
<path opacity="0.2" d="M135.553 26.1199C139.696 26.1199 143.053 22.762 143.053 18.6198C143.053 14.4776 139.696 11.1196 135.553 11.1196C131.411 11.1196 128.053 14.4776 128.053 18.6198C128.053 22.762 131.411 26.1199 135.553 26.1199Z" fill="white"/>
<path d="M133.533 14.6938L139.763 19.0339L133.533 23.3684V14.6938Z" fill="white"/>
<path d="M139.768 19.0336L139.292 19.3627L133.539 15.3573V14.6992L139.768 19.0336Z" fill="#7563FF"/>
<path d="M132.496 36.8704V34.2777L131.225 36.4166H130.771L129.506 34.3345V36.8704H128.564V32.5474H129.387L131.004 35.2365L132.598 32.5474H133.42V36.8704H132.496Z" fill="white"/>
<path d="M134.186 34.7092C134.16 34.2363 134.276 33.7665 134.52 33.3606C134.764 32.9546 135.124 32.6312 135.554 32.4321C135.984 32.233 136.463 32.1675 136.93 32.2439C137.398 32.3204 137.831 32.5354 138.175 32.861C138.519 33.1866 138.757 33.608 138.859 34.0705C138.961 34.533 138.921 35.0154 138.746 35.4552C138.57 35.8951 138.267 36.2721 137.875 36.5376C137.483 36.8031 137.02 36.9448 136.546 36.9444C136.242 36.9614 135.938 36.9162 135.653 36.8115C135.367 36.7068 135.105 36.5448 134.884 36.3356C134.663 36.1263 134.488 35.8741 134.367 35.5944C134.247 35.3147 134.186 35.0135 134.186 34.7092ZM137.902 34.7092C137.897 34.4423 137.812 34.1829 137.66 33.9637C137.508 33.7445 137.294 33.5751 137.046 33.4769C136.798 33.3786 136.526 33.3557 136.265 33.4112C136.004 33.4667 135.765 33.598 135.578 33.7887C135.391 33.9794 135.265 34.221 135.215 34.4832C135.165 34.7455 135.193 35.0166 135.297 35.2627C135.4 35.5089 135.574 35.719 135.796 35.8667C136.018 36.0145 136.279 36.0934 136.546 36.0934C136.728 36.0984 136.909 36.0657 137.077 35.9974C137.245 35.9292 137.398 35.8268 137.524 35.6968C137.651 35.5667 137.75 35.4119 137.814 35.2419C137.878 35.0719 137.906 34.8905 137.897 34.7092H137.902Z" fill="white"/>
<path d="M143.677 32.5474L141.805 36.8704H140.818L138.957 32.5474H140.035L141.351 35.6337L142.684 32.5474H143.677Z" fill="white"/>
<path d="M101.258 59.7684H92.8163C92.0076 59.7521 91.2327 59.441 90.6372 58.8935C90.0417 58.3461 89.6667 57.6001 89.5825 56.7956L89.5201 56.041C89.479 55.6627 89.5189 55.28 89.637 54.9182C89.7551 54.5565 89.9489 54.224 90.2054 53.9429C90.4618 53.6617 90.7751 53.4383 91.1245 53.2875C91.4739 53.1367 91.8514 53.062 92.2319 53.0682H100.674L101.258 59.7684Z" fill="#7563FF"/>
<path d="M106.381 59.2353L101.531 56.8298L101.412 55.4682L105.842 53.0684L106.381 59.2353Z" fill="#7563FF"/>
<path d="M107.022 59.2353H106.381L105.842 53.0684H106.483L107.022 59.2353Z" fill="#7563FF"/>
<path d="M94.978 50.1922C95.0103 50.4895 94.9788 50.7902 94.8858 51.0744C94.7928 51.3585 94.6403 51.6196 94.4385 51.8403C94.2366 52.0609 93.9901 52.2359 93.7153 52.3538C93.4405 52.4717 93.1438 52.5297 92.8448 52.5239C92.2099 52.5133 91.601 52.2699 91.1335 51.8402C90.6661 51.4104 90.3727 50.824 90.3088 50.1922C90.2757 49.895 90.3064 49.5941 90.3987 49.3097C90.491 49.0252 90.6428 48.7637 90.8441 48.5425C91.0454 48.3213 91.2916 48.1456 91.5661 48.027C91.8406 47.9084 92.1373 47.8497 92.4363 47.8548C93.0727 47.8655 93.6831 48.1094 94.1516 48.5402C94.6201 48.9711 94.9141 49.5589 94.978 50.1922Z" fill="#7563FF"/>
<path d="M99.6526 50.1923C99.684 50.4894 99.6519 50.7897 99.5585 51.0735C99.4651 51.3573 99.3126 51.618 99.1109 51.8384C98.9093 52.0588 98.6632 52.2339 98.3888 52.3521C98.1144 52.4703 97.8181 52.5289 97.5194 52.524C96.8839 52.5135 96.2743 52.2704 95.8059 51.8407C95.3375 51.411 95.0429 50.8246 94.9778 50.1923C94.9446 49.8946 94.9754 49.5932 95.068 49.3084C95.1607 49.0235 95.313 48.7617 95.515 48.5404C95.7169 48.3192 95.9637 48.1436 96.2389 48.0254C96.5142 47.9071 96.8115 47.849 97.1109 47.8549C97.747 47.8668 98.3567 48.1111 98.8249 48.5417C99.2931 48.9724 99.5876 49.5595 99.6526 50.1923Z" fill="#7563FF"/>
<path d="M140.018 74.1221C139.715 75.2115 139.266 76.2553 138.685 77.2254C138.935 77.3607 139.211 77.4396 139.494 77.4562C139.777 77.4729 140.061 77.427 140.325 77.3218L140.018 74.1221Z" fill="#A02724"/>
<path d="M152.562 77.4126L149.867 80.2493L146.18 84.0901C146.482 84.5361 146.7 85.0343 146.821 85.5595C147.15 86.6941 147.433 87.5508 144.937 88.6741C144.671 88.7831 144.441 88.966 144.275 89.2012C144.109 89.4364 144.014 89.7142 144.001 90.0017C144.001 90.7109 144.568 91.4824 147.031 91.5278C149.417 91.5181 151.737 90.7447 153.651 89.3209C154.593 88.6514 154.502 88.0444 153.912 87.0516C152.176 84.3114 152.222 80.4592 152.562 77.4126Z" fill="#FF8B7B"/>
<path d="M139.145 73.9352C139.111 74.3153 139.247 74.6387 139.446 74.65C139.644 74.6614 139.826 74.372 139.854 73.9919C139.882 73.6118 139.752 73.2941 139.553 73.2771C139.355 73.26 139.173 73.5551 139.145 73.9352Z" fill="#263238"/>
<path d="M139.48 71.8127C139.902 71.7585 140.331 71.8111 140.728 71.9657C141.124 72.1203 141.475 72.3721 141.749 72.6978" stroke="#263238" stroke-linecap="round" stroke-linejoin="round"/>
<path d="M139.99 79.075C140.27 80.0893 140.778 81.0259 141.476 81.8127C142.175 82.5996 143.044 83.2157 144.018 83.6137C144.68 83.8883 145.384 84.0476 146.1 84.0846C146.968 84.1333 147.837 83.9886 148.642 83.6609C149.448 83.3332 150.17 82.8307 150.758 82.1897C153.101 79.6991 152.948 76.8908 153.101 72.1139C153.146 70.9974 152.909 69.8875 152.412 68.8868C151.914 67.8862 151.173 67.027 150.256 66.3886C149.339 65.7503 148.276 65.3533 147.165 65.2345C146.053 65.1156 144.93 65.2787 143.899 65.7087C139.275 67.6887 138.833 74.7973 139.99 79.075Z" fill="#FF8B7B"/>
<path opacity="0.2" d="M144.018 83.6362C144.68 83.9108 145.384 84.0701 146.1 84.1071L146.18 84.073L145.726 83.188C145.726 83.188 145.448 83.9425 144.018 83.6362Z" fill="black"/>
<path d="M155.007 75.2284C154.497 76.9304 153.799 78.7175 152.494 79.9542C152.012 80.4138 147.848 80.8393 147.848 80.8393C147.649 79.4323 145.068 74.905 143.939 73.464C143.78 74.1675 143.519 77.2027 143.281 77.8721C142.81 77.8721 142.066 77.1459 142.066 77.1459C142.831 75.1803 143.027 73.0396 142.634 70.9677L142.469 70.111C142.469 70.2926 139.718 71.5861 138.379 69.0842C133.381 59.7289 146.202 61.3911 149.759 65.0391C150.348 64.7761 150.996 64.6794 151.636 64.7594C152.275 64.8394 152.88 65.0931 153.385 65.4929C154.389 66.3101 155.091 67.4409 155.376 68.704C155.842 70.8724 155.715 73.1263 155.007 75.2284Z" fill="#263238"/>
<path d="M151.229 62.9342C150.897 62.9248 150.57 63.0192 150.295 63.2043C150.019 63.3895 149.808 63.656 149.691 63.9668C149.549 64.3355 149.407 65.2263 149.822 65.4135C150.201 64.5394 150.673 63.7083 151.229 62.9342Z" fill="#263238"/>
<path d="M147.132 74.6835C146.909 75.7407 146.303 76.6781 145.43 77.3159C144.296 78.1215 143.161 76.9755 143.195 75.6139C143.195 74.3998 144.006 72.7148 145.277 72.4425C146.548 72.1702 147.393 73.3786 147.132 74.6835Z" fill="#FF8B7B"/>
<path d="M124.643 185.217L120.008 183.838L121.415 172.889L127.117 174.92L124.643 185.217Z" fill="#FF8B7B"/>
<path opacity="0.2" d="M127.758 171.867L121.739 169.626L120.837 177.501L126.176 178.999L127.758 171.867Z" fill="black"/>
<path d="M119.616 183.055L124.898 184.485C124.995 184.516 125.076 184.583 125.126 184.671C125.177 184.759 125.193 184.862 125.171 184.962L124.371 189.988C124.356 190.108 124.316 190.223 124.255 190.327C124.194 190.431 124.113 190.522 124.016 190.594C123.919 190.665 123.808 190.716 123.691 190.744C123.573 190.772 123.451 190.775 123.332 190.754C121.506 190.221 120.649 189.858 118.329 189.228C116.899 188.842 113.631 187.912 111.634 187.526C109.637 187.14 110.04 184.82 110.919 184.763C114.891 184.513 117.16 184.042 118.731 183.163C119.001 183.013 119.319 182.975 119.616 183.055Z" fill="#263238"/>
<path d="M117.149 183.805C117.567 183.891 117.993 183.933 118.42 183.929C118.441 183.932 118.462 183.927 118.479 183.915C118.497 183.904 118.51 183.887 118.517 183.867C118.528 183.849 118.533 183.828 118.533 183.807C118.533 183.786 118.528 183.766 118.517 183.748C118.392 183.606 117.268 182.381 116.644 182.466C116.573 182.473 116.504 182.5 116.446 182.543C116.389 182.586 116.343 182.643 116.315 182.71C116.258 182.807 116.229 182.917 116.229 183.03C116.229 183.143 116.258 183.253 116.315 183.351C116.529 183.598 116.825 183.76 117.149 183.805ZM118.187 183.702C117.302 183.64 116.684 183.498 116.52 183.22C116.486 183.157 116.471 183.086 116.476 183.015C116.481 182.943 116.506 182.875 116.548 182.817C116.559 182.784 116.58 182.754 116.607 182.731C116.634 182.708 116.666 182.693 116.701 182.687C117.03 182.636 117.722 183.226 118.187 183.702Z" fill="#7563FF"/>
<path d="M118.425 183.929H118.476C118.495 183.924 118.513 183.914 118.527 183.9C118.541 183.886 118.551 183.869 118.556 183.85C118.556 183.793 119.004 182.465 118.635 181.892C118.59 181.818 118.527 181.756 118.454 181.71C118.38 181.663 118.296 181.635 118.21 181.626C118.115 181.605 118.016 181.618 117.93 181.661C117.843 181.704 117.774 181.776 117.733 181.864C117.501 182.352 117.966 183.504 118.369 183.895C118.375 183.905 118.383 183.912 118.393 183.918C118.403 183.924 118.414 183.928 118.425 183.929ZM118.238 181.864C118.326 181.887 118.402 181.944 118.448 182.023C118.602 182.537 118.584 183.086 118.397 183.589C118.041 183.127 117.876 182.546 117.937 181.966C117.937 181.904 118.017 181.836 118.181 181.858L118.238 181.864Z" fill="#7563FF"/>
<path d="M148.108 125.874C148.108 125.874 122.175 125.789 121.335 140.108C120.513 150.173 119.991 154.292 120.49 176.225L127.395 176.605C127.395 176.605 134.418 152.873 133.471 143.45C141.209 143.45 158.921 144.125 161.491 137.147C162.771 133.604 163.394 129.856 163.329 126.09L148.108 125.874Z" fill="#7563FF"/>
<g opacity="0.3">
<path d="M148.108 125.874C148.108 125.874 122.176 125.789 121.336 140.108C120.513 150.173 119.991 154.292 120.491 176.225L127.395 176.605C127.395 176.605 134.419 152.873 133.471 143.45C141.21 143.45 158.922 144.125 161.492 137.147C162.772 133.604 163.394 129.856 163.33 126.09L148.108 125.874Z" fill="black"/>
</g>
<path d="M128.512 177.944L119.492 176.401L119.639 172.407L128.977 174.483L128.512 177.944Z" fill="#7563FF"/>
<path d="M106.744 186.652L102.375 184.581L105.433 173.978L110.761 176.849L106.744 186.652Z" fill="#FF8B7B"/>
<path opacity="0.2" d="M111.856 173.933L106.256 170.801L104.157 178.449L109.206 180.741L111.856 173.933Z" fill="black"/>
<path d="M102.109 183.747L107.107 185.971C107.197 186.016 107.268 186.092 107.304 186.185C107.341 186.279 107.342 186.382 107.306 186.476L105.746 191.327C105.712 191.442 105.656 191.549 105.58 191.642C105.504 191.734 105.411 191.811 105.305 191.867C105.199 191.923 105.084 191.957 104.964 191.968C104.845 191.978 104.725 191.965 104.611 191.928C102.909 191.117 102.092 190.629 99.8964 189.659C98.5405 189.058 95.4599 187.639 93.5367 186.975C91.6134 186.312 92.3736 184.054 93.253 184.139C97.1959 184.502 99.4936 184.377 101.196 183.753C101.34 183.692 101.495 183.66 101.652 183.659C101.809 183.658 101.964 183.688 102.109 183.747Z" fill="#263238"/>
<path d="M99.5559 184.11C99.9541 184.259 100.367 184.365 100.787 184.428C100.808 184.434 100.831 184.432 100.851 184.424C100.872 184.416 100.889 184.402 100.9 184.383C100.911 184.365 100.917 184.344 100.917 184.323C100.917 184.302 100.911 184.282 100.9 184.264C100.804 184.105 99.8792 182.726 99.2495 182.715C99.1762 182.71 99.1029 182.725 99.0378 182.759C98.9727 182.793 98.9183 182.845 98.8807 182.908C98.8107 182.995 98.7645 183.099 98.7466 183.209C98.7287 183.319 98.7397 183.433 98.7786 183.537C98.9557 183.82 99.2335 184.025 99.5559 184.11ZM100.594 184.173C99.7317 183.974 99.1417 183.736 99.0226 183.441C99.0003 183.373 98.9964 183.301 99.0114 183.231C99.0263 183.161 99.0596 183.097 99.1077 183.044C99.1264 183.013 99.1521 182.988 99.1826 182.969C99.2132 182.95 99.2478 182.939 99.2835 182.936C99.6183 182.942 100.208 183.623 100.594 184.173Z" fill="#7563FF"/>
<path d="M100.793 184.428H100.844C100.864 184.424 100.883 184.416 100.899 184.404C100.916 184.393 100.93 184.378 100.941 184.36C100.941 184.304 101.593 183.061 101.315 182.443C101.281 182.362 101.229 182.291 101.163 182.234C101.097 182.177 101.019 182.136 100.935 182.114C100.844 182.079 100.745 182.076 100.652 182.104C100.559 182.133 100.479 182.192 100.424 182.273C100.124 182.721 100.424 183.929 100.748 184.377C100.756 184.399 100.773 184.417 100.793 184.428ZM100.924 182.358C100.966 182.375 101.004 182.4 101.036 182.432C101.069 182.464 101.094 182.503 101.111 182.545C101.184 183.077 101.082 183.618 100.821 184.088C100.532 183.57 100.456 182.959 100.611 182.386C100.611 182.324 100.708 182.273 100.872 182.318L100.924 182.358Z" fill="#7563FF"/>
<path d="M139.956 125.874C139.774 125.874 111.073 123.077 109.15 139.399C106.103 159.381 104.186 176.225 104.186 176.225L110.228 179.22C110.228 179.22 120.757 157.894 120.598 144.522C129.012 142.105 150.781 146.162 153.356 139.189C155.461 133.482 154.321 125.874 154.321 125.874H139.956Z" fill="#7563FF"/>
<path opacity="0.3" d="M139.956 125.874C139.774 125.874 111.073 123.077 109.15 139.399C106.103 159.381 104.186 176.225 104.186 176.225L110.228 179.22C110.228 179.22 120.757 157.894 120.598 144.522C129.012 142.105 150.781 146.162 153.356 139.189C155.461 133.482 154.321 125.874 154.321 125.874H139.956Z" fill="black"/>
<path d="M111.198 180.088L103.09 176.44L103.743 173.122L112.292 176.072L111.198 180.088Z" fill="#7563FF"/>
<path d="M153.833 90.4214C154.485 92.2142 154.996 93.9332 155.534 95.7146C156.073 97.496 156.471 99.2718 156.856 101.087C157.242 102.903 157.549 104.752 157.764 106.658C158.002 108.645 158.031 110.651 157.849 112.644C157.741 113.812 157.464 114.959 157.027 116.048C156.755 116.715 156.392 117.341 155.949 117.909C155.69 118.231 155.399 118.525 155.081 118.788L154.825 118.998C154.689 119.094 154.536 119.202 154.388 119.287C154.145 119.424 153.888 119.536 153.623 119.622C153.231 119.757 152.826 119.849 152.414 119.894C152.089 119.936 151.761 119.955 151.433 119.951C150.876 119.938 150.321 119.89 149.77 119.809C148.791 119.682 147.821 119.493 146.866 119.242C143.302 118.264 139.845 116.934 136.546 115.271L137.601 112.337C141.005 113.058 144.523 113.812 147.841 114.255C148.675 114.329 149.475 114.437 150.23 114.465C150.567 114.476 150.904 114.465 151.24 114.431C151.518 114.431 151.762 114.329 151.682 114.323L151.518 114.385C151.462 114.414 151.408 114.448 151.359 114.488L151.416 114.403C151.5 114.253 151.568 114.095 151.62 113.932C151.795 113.343 151.898 112.735 151.926 112.122C151.988 110.552 151.893 108.981 151.643 107.43C151.416 105.762 151.075 104.128 150.695 102.46C150.315 100.792 149.89 99.1243 149.413 97.4563C148.936 95.7883 148.42 94.109 147.91 92.5319L153.833 90.4214Z" fill="#FF8B7B"/>
<path d="M139.031 113.274L135.593 110.919L133.431 114.675C133.431 114.675 137.505 116.808 138.492 115.81L139.031 113.274Z" fill="#FF8B7B"/>
<path d="M132.58 111.401L130.697 113.875L133.414 114.646L135.576 110.891L132.58 111.401Z" fill="#FF8B7B"/>
<path d="M117.841 109.966L112.803 109.398L111.356 114.936C111.356 114.936 117.115 114.987 118.023 113.336L117.841 109.966Z" fill="#FF8B7B"/>
<path d="M109.025 111.447L108.162 113.568C108.102 113.715 108.078 113.875 108.094 114.033C108.11 114.191 108.164 114.342 108.252 114.474C108.34 114.607 108.459 114.715 108.598 114.791C108.738 114.866 108.894 114.906 109.053 114.907H111.356L112.803 109.37L109.512 110.908C109.289 111.02 109.115 111.213 109.025 111.447Z" fill="#FF8B7B"/>
<path d="M161.633 89.2807C161.219 88.1858 159.307 87.0908 158.127 87.0908H157.35C155.777 87.1111 154.207 87.219 152.646 87.4142C149.516 87.7601 146.408 88.2828 143.337 88.98C142.03 89.3294 140.742 89.746 139.479 90.2282H139.439C138.827 90.471 138.314 90.9121 137.983 91.481C137.652 92.0499 137.521 92.7135 137.612 93.3655C138.094 96.8887 139.025 104.054 139.581 111.185C140.018 116.751 139.836 122.277 139.978 126.078H163.335C164.141 121.511 164.01 117.528 164.078 109.285C164.129 104.326 163.324 93.7853 161.633 89.2807Z" fill="#7563FF"/>
<path opacity="0.8" d="M161.633 89.2807C161.219 88.1858 159.307 87.0908 158.127 87.0908H157.35C155.777 87.1111 154.207 87.219 152.646 87.4142C149.516 87.7601 146.408 88.2828 143.337 88.98C142.03 89.3294 140.742 89.746 139.479 90.2282H139.439C138.827 90.471 138.314 90.9121 137.983 91.481C137.652 92.0499 137.521 92.7135 137.612 93.3655C138.094 96.8887 139.025 104.054 139.581 111.185C140.018 116.751 139.836 122.277 139.978 126.078H163.335C164.141 121.511 164.01 117.528 164.078 109.285C164.129 104.326 163.324 93.7853 161.633 89.2807Z" fill="white"/>
<path d="M141.442 90.4953C141.896 90.6658 142.312 90.9246 142.665 91.2568C143.019 91.5889 143.303 91.9878 143.501 92.4304C143.7 92.873 143.808 93.3505 143.821 93.8354C143.834 94.3202 143.75 94.8028 143.575 95.2552C141.907 99.5726 139.105 106.42 137.868 108.826C137.397 109.682 136.926 110.528 136.393 111.396C136.121 111.827 135.826 112.252 135.502 112.695C135.321 112.922 135.184 113.126 134.975 113.359L134.674 113.705L134.504 113.898C134.03 114.401 133.448 114.789 132.802 115.032C132.465 115.163 132.12 115.271 131.769 115.356C131.192 115.481 130.606 115.559 130.016 115.588C129.002 115.656 127.984 115.656 126.969 115.588C123.213 115.277 119.499 114.583 115.884 113.518L115.498 109.688C119.067 109.79 122.715 109.909 126.119 109.739C126.918 109.694 127.718 109.609 128.513 109.484C128.832 109.43 129.147 109.35 129.454 109.246C129.554 109.211 129.649 109.165 129.738 109.109C129.766 109.109 129.738 109.07 129.596 109.178C129.545 109.212 129.498 109.252 129.454 109.297L129.505 109.229L129.642 109.047C129.732 108.939 129.835 108.763 129.937 108.622C130.135 108.321 130.339 107.992 130.538 107.64C130.929 106.948 131.304 106.188 131.673 105.416C132.41 103.873 133.08 102.245 133.732 100.605C134.192 99.4364 135.548 95.8963 136.694 92.7362C136.858 92.278 137.112 91.857 137.441 91.4978C137.769 91.1386 138.166 90.8484 138.608 90.6441C139.05 90.4397 139.528 90.3254 140.015 90.3076C140.501 90.2899 140.987 90.3691 141.442 90.5407V90.4953Z" fill="#7563FF"/>
<path opacity="0.2" d="M139.088 105.569C139.264 107.668 139.201 106.988 139.394 109.189C145.096 100.378 143.212 94.563 143.212 94.563L139.088 105.569Z" fill="black"/>
<path opacity="0.8" d="M141.442 90.4953C141.896 90.6658 142.312 90.9246 142.665 91.2568C143.019 91.5889 143.303 91.9878 143.501 92.4304C143.7 92.873 143.808 93.3505 143.821 93.8354C143.834 94.3202 143.75 94.8028 143.575 95.2552C141.907 99.5726 139.105 106.42 137.868 108.826C137.397 109.682 136.926 110.528 136.393 111.396C136.121 111.827 135.826 112.252 135.502 112.695C135.321 112.922 135.184 113.126 134.975 113.359L134.674 113.705L134.504 113.898C134.03 114.401 133.448 114.789 132.802 115.032C132.465 115.163 132.12 115.271 131.769 115.356C131.192 115.481 130.606 115.559 130.016 115.588C129.002 115.656 127.984 115.656 126.969 115.588C123.213 115.277 119.499 114.583 115.884 113.518L115.498 109.688C119.067 109.79 122.715 109.909 126.119 109.739C126.918 109.694 127.718 109.609 128.513 109.484C128.832 109.43 129.147 109.35 129.454 109.246C129.554 109.211 129.649 109.165 129.738 109.109C129.766 109.109 129.738 109.07 129.596 109.178C129.545 109.212 129.498 109.252 129.454 109.297L129.505 109.229L129.642 109.047C129.732 108.939 129.835 108.763 129.937 108.622C130.135 108.321 130.339 107.992 130.538 107.64C130.929 106.948 131.304 106.188 131.673 105.416C132.41 103.873 133.08 102.245 133.732 100.605C134.192 99.4364 135.548 95.8963 136.694 92.7362C136.858 92.278 137.112 91.857 137.441 91.4978C137.769 91.1386 138.166 90.8484 138.608 90.6441C139.05 90.4397 139.528 90.3254 140.015 90.3076C140.501 90.2899 140.987 90.3691 141.442 90.5407V90.4953Z" fill="white"/>
<path d="M133.777 191.315C133.777 191.787 133.638 192.247 133.376 192.639C133.114 193.031 132.742 193.336 132.306 193.517C131.871 193.697 131.392 193.744 130.93 193.652C130.467 193.56 130.043 193.334 129.71 193C129.376 192.667 129.149 192.242 129.058 191.78C128.966 191.318 129.013 190.839 129.193 190.404C129.373 189.968 129.679 189.596 130.071 189.334C130.463 189.072 130.923 188.933 131.395 188.933C132.026 188.933 132.633 189.184 133.079 189.631C133.526 190.077 133.777 190.683 133.777 191.315Z" fill="#263238"/>
<path d="M168.753 191.315C168.753 191.787 168.893 192.247 169.155 192.639C169.417 193.031 169.789 193.336 170.224 193.517C170.66 193.697 171.139 193.744 171.601 193.652C172.063 193.56 172.488 193.334 172.821 193C173.154 192.667 173.381 192.242 173.473 191.78C173.565 191.318 173.518 190.839 173.338 190.404C173.157 189.968 172.852 189.596 172.46 189.334C172.068 189.072 171.607 188.933 171.136 188.933C170.504 188.933 169.898 189.184 169.451 189.631C169.004 190.077 168.753 190.683 168.753 191.315Z" fill="#263238"/>
<path d="M148.108 190.555C148.108 191.026 148.248 191.487 148.51 191.879C148.772 192.271 149.144 192.576 149.579 192.757C150.015 192.937 150.494 192.984 150.956 192.892C151.418 192.8 151.843 192.573 152.176 192.24C152.509 191.907 152.736 191.482 152.828 191.02C152.92 190.558 152.873 190.079 152.693 189.643C152.512 189.208 152.207 188.836 151.815 188.574C151.423 188.312 150.962 188.172 150.491 188.172C149.859 188.172 149.253 188.423 148.806 188.87C148.359 189.317 148.108 189.923 148.108 190.555Z" fill="#263238"/>
<path d="M176.327 188.116C176.272 188.385 176.124 188.625 175.909 188.796C175.695 188.967 175.427 189.058 175.153 189.052L150.315 188.712L127.055 189.234C126.754 189.268 126.452 189.181 126.215 188.992C125.978 188.803 125.826 188.528 125.792 188.227C125.758 187.926 125.846 187.624 126.034 187.387C126.223 187.15 126.498 186.998 126.799 186.964L139.502 184.497C140.811 184.248 142.141 184.123 143.473 184.122H157.123C158.456 184.123 159.785 184.248 161.095 184.497L175.369 186.766C175.522 186.787 175.67 186.839 175.803 186.919C175.936 187 176.051 187.107 176.141 187.233C176.23 187.36 176.293 187.503 176.326 187.655C176.358 187.807 176.358 187.964 176.327 188.116Z" fill="#263238"/>
<path d="M154.536 163.38H146.088V187.696H154.536V163.38Z" fill="#263238"/>
<path d="M153.328 147.978H147.303V163.505H153.328V147.978Z" fill="#263238"/>
<path opacity="0.2" d="M147.303 150.854L153.328 152.374V147.978H147.303V150.854Z" fill="black"/>
<path d="M128.104 125.789H125.046V138.849H128.104V125.789Z" fill="#263238"/>
<path d="M128.104 125.789H125.046V138.849H128.104V125.789Z" fill="#263238"/>
<path d="M148.397 96.4917C148.341 96.8463 148.312 97.2048 148.312 97.564V147.949H143.45V97.5866C143.448 97.547 143.448 97.5072 143.45 97.4675L148.397 96.4917Z" fill="#263238"/>
<path d="M176.707 147.915V147.971H175.907C176.175 147.969 176.442 147.95 176.707 147.915Z" fill="#263238"/>
<path d="M181.581 96.1912L181.223 90.2059C181.12 88.5161 180.421 86.9178 179.249 85.6956L175.431 81.7243L173.468 71.7506C173.322 70.997 172.918 70.3177 172.326 69.8292C171.734 69.3406 170.99 69.0732 170.223 69.0728H161.424C160.729 69.0746 160.053 69.2947 159.491 69.702C158.929 70.1093 158.51 70.6831 158.292 71.3421L154.61 82.0703L147.586 86.3934C146.699 86.9395 145.942 87.6728 145.368 88.542C144.794 89.4113 144.416 90.3954 144.262 91.4256L143.354 97.5358H143.456L148.398 96.5827C148.341 96.9373 148.312 97.2958 148.312 97.6549V148.04H175.908C176.183 148.038 176.457 148.019 176.73 147.983C178.081 147.786 179.316 147.109 180.208 146.075C181.101 145.041 181.59 143.72 181.587 142.355V97.1443C181.586 96.82 181.565 96.496 181.524 96.1742L181.581 96.1912ZM158.269 92.3901L149.759 93.2014L149.385 93.2354L150.298 89.3435L156 86.592L157.895 85.6786L158.269 86.592L158.332 86.7451L158.678 87.5848L158.269 92.3901ZM175.125 92.4865L174.052 92.2199C174.013 91.8852 173.967 91.5448 173.928 91.2101C173.689 89.3435 173.474 87.5848 173.474 87.5848L173.559 86.9721L173.735 85.6786L177.791 89.3435L177.848 90.2115L178.058 93.2354L175.125 92.4865Z" fill="#263238"/>
<path d="M148.313 136.994V147.972H116.258C115.561 147.976 114.875 147.796 114.271 147.448C113.666 147.101 113.165 146.599 112.819 145.993C112.473 145.388 112.293 144.702 112.299 144.005C112.306 143.308 112.497 142.625 112.854 142.026C113.757 140.493 115.044 139.222 116.588 138.339C118.132 137.457 119.881 136.993 121.659 136.994H148.313Z" fill="#263238"/>
<path d="M136.971 129.777C130.235 127.423 122.899 127.423 116.162 129.777C115.487 130.031 114.742 130.03 114.068 129.773C113.394 129.515 112.837 129.021 112.502 128.382C111.878 127.06 112.712 125.352 114.414 124.756C122.278 122.005 130.843 122.005 138.707 124.756C140.409 125.324 141.243 127.06 140.619 128.382C140.284 129.017 139.729 129.509 139.058 129.766C138.387 130.023 137.645 130.027 136.971 129.777Z" fill="#263238"/>
<path opacity="0.4" d="M136.971 129.777C130.235 127.423 122.899 127.423 116.162 129.777C115.487 130.031 114.742 130.03 114.068 129.773C113.394 129.515 112.837 129.021 112.502 128.382C111.878 127.06 112.712 125.352 114.414 124.756C122.278 122.005 130.843 122.005 138.707 124.756C140.409 125.324 141.243 127.06 140.619 128.382C140.284 129.017 139.729 129.509 139.058 129.766C138.387 130.023 137.645 130.027 136.971 129.777Z" fill="#263238"/>
</svg>
